<svg width="240" height="115" viewBox="0 0 240 115" fill="none" xmlns="http://www.w3.org/2000/svg">
<path d="M53.2617 3.14941C52.3828 3.40332 51.5332 3.77441 50.7129 4.2627C49.8926 4.73145 49.1113 5.30762 48.3691 5.99121C49.7363 7.33887 50.8789 8.85254 51.7969 10.5322C52.7148 12.1924 53.3691 13.9697 53.7598 15.8643C54.1504 17.7588 54.248 19.7314 54.0527 21.7822C53.877 23.833 53.3789 25.9033 52.5586 27.9932C51.582 30.415 50.2539 32.5732 48.5742 34.4678C46.9141 36.3428 45 37.9443 42.832 39.2725C40.6836 40.5811 38.3398 41.5967 35.8008 42.3193C33.2617 43.0225 30.6445 43.4033 27.9492 43.4619C26.4844 43.4619 25.0684 43.335 23.7012 43.0811C22.3535 42.8467 21.0156 42.5537 19.6875 42.2021C19.2969 42.3584 18.8867 42.5049 18.457 42.6416C18.0469 42.7783 17.627 42.915 17.1973 43.0518C16.8262 43.1494 16.2891 43.2666 15.5859 43.4033C14.9023 43.54 14.1211 43.667 13.2422 43.7842C12.3828 43.9014 11.4551 43.999 10.459 44.0771C9.46289 44.1553 8.4668 44.1943 7.4707 44.1943C6.49414 44.1943 5.55664 44.1455 4.6582 44.0479C3.75977 43.9697 2.95898 43.8135 2.25586 43.5791C1.57227 43.3447 1.02539 43.0225 0.615234 42.6123C0.205078 42.2217 0 41.7334 0 41.1475C0 40.6592 0.185547 40.2393 0.556641 39.8877C0.947266 39.5361 1.39648 39.2432 1.9043 39.0088C2.43164 38.7744 2.95898 38.5986 3.48633 38.4814C4.0332 38.3643 4.47266 38.3057 4.80469 38.3057H6.00586C7.19727 38.3057 8.34961 38.4033 9.46289 38.5986C10.5957 38.7939 11.6992 39.0381 12.7734 39.3311C13.8477 39.624 14.9121 39.9463 15.9668 40.2979C17.0215 40.6299 18.0762 40.9521 19.1309 41.2646C21.0059 40.4248 22.6172 39.4092 23.9648 38.2178C25.332 37.0068 26.5723 35.6592 27.6855 34.1748C28.7988 32.6709 29.8535 31.04 30.8496 29.2822C31.8457 27.5244 32.9004 25.6592 34.0137 23.6865C34.7559 22.3779 35.5566 20.9717 36.416 19.4678C37.2949 17.9639 38.252 16.4502 39.2871 14.9268C40.3223 13.3838 41.4453 11.8799 42.6562 10.415C43.8672 8.9502 45.1953 7.60254 46.6406 6.37207C45.5469 5.06348 44.1699 3.98926 42.5098 3.14941C40.2051 2.05566 37.7637 1.41113 35.1855 1.21582C32.627 1.02051 30.0684 1.20605 27.5098 1.77246C24.9707 2.33887 22.5 3.24707 20.0977 4.49707C17.7148 5.72754 15.5566 7.23145 13.623 9.00879C11.6895 10.7666 10.0488 12.749 8.70117 14.9561C7.35352 17.1436 6.45508 19.4873 6.00586 21.9873C5.81055 23.1006 5.69336 24.1748 5.6543 25.21C5.63477 26.2451 5.72266 27.2217 5.91797 28.1396C6.11328 29.0576 6.43555 29.8975 6.88477 30.6592C7.33398 31.4209 7.92969 32.0752 8.67188 32.6221C9.84375 33.501 11.0938 34.0674 12.4219 34.3213C13.7695 34.5557 15.127 34.5459 16.4941 34.292C17.8809 34.0381 19.2578 33.5693 20.625 32.8857C21.9922 32.2021 23.291 31.3818 24.5215 30.4248C25.7715 29.4482 26.9141 28.3545 27.9492 27.1436C29.0039 25.9326 29.8926 24.6826 30.6152 23.3936C31.3379 22.1045 31.875 20.8057 32.2266 19.4971C32.5977 18.1885 32.7148 16.9287 32.5781 15.7178C32.5195 14.8389 32.3438 14.0088 32.0508 13.2275C31.7773 12.4268 31.3672 11.7334 30.8203 11.1475C30.2734 10.5615 29.5996 10.1025 28.7988 9.77051C27.998 9.43848 27.041 9.28223 25.9277 9.30176C24.5996 9.32129 23.3594 9.59473 22.207 10.1221C21.0547 10.6299 20.0293 11.3135 19.1309 12.1729C18.2324 13.0127 17.4805 13.9697 16.875 15.0439C16.2695 16.1182 15.8496 17.2119 15.6152 18.3252C15.5176 18.4814 15.459 18.6377 15.4395 18.7939C15.4395 18.9502 15.4395 19.126 15.4395 19.3213C15.459 19.6924 15.3711 19.9756 15.1758 20.1709C14.9805 20.3467 14.7852 20.415 14.5898 20.376C14.4141 20.3174 14.2871 20.1416 14.209 19.8486C14.1309 19.5361 14.2188 19.0869 14.4727 18.501C14.8242 17.1338 15.3613 15.8447 16.084 14.6338C16.8066 13.4033 17.6758 12.3193 18.6914 11.3818C19.707 10.4443 20.8594 9.70215 22.1484 9.15527C23.4375 8.6084 24.834 8.3252 26.3379 8.30566C27.002 8.28613 27.7344 8.39355 28.5352 8.62793C29.3555 8.8623 30.1172 9.2627 30.8203 9.8291C31.543 10.3955 32.1582 11.1475 32.666 12.085C33.1934 13.0225 33.5059 14.1943 33.6035 15.6006C33.7207 16.9287 33.5645 18.3252 33.1348 19.79C32.7246 21.2549 32.1094 22.7002 31.2891 24.126C30.4688 25.5518 29.4824 26.9189 28.3301 28.2275C27.1777 29.5361 25.9277 30.7178 24.5801 31.7725C23.2324 32.8076 21.8066 33.667 20.3027 34.3506C18.8184 35.0342 17.3242 35.4736 15.8203 35.6689C14.3359 35.8447 12.8711 35.7275 11.4258 35.3174C9.98047 34.9072 8.63281 34.126 7.38281 32.9736C6.64062 32.29 6.05469 31.4307 5.625 30.3955C5.21484 29.3604 4.93164 28.2373 4.77539 27.0264C4.63867 25.8154 4.62891 24.5752 4.74609 23.3057C4.86328 22.0361 5.09766 20.8252 5.44922 19.6729C5.97656 17.9346 6.72852 16.2549 7.70508 14.6338C8.68164 13.0127 9.82422 11.499 11.1328 10.0928C12.4609 8.66699 13.9258 7.36816 15.5273 6.19629C17.1289 5.00488 18.8184 3.96973 20.5957 3.09082C22.373 2.21191 24.209 1.50879 26.1035 0.981445C28.0176 0.454102 29.9316 0.141602 31.8457 0.0439453C33.7793 -0.0732422 35.6836 0.0439453 37.5586 0.395508C39.4531 0.727539 41.2793 1.33301 43.0371 2.21191C43.916 2.66113 44.7559 3.15918 45.5566 3.70605C46.3574 4.2334 47.0996 4.81934 47.7832 5.46387C48.6621 4.78027 49.5605 4.16504 50.4785 3.61816C51.416 3.05176 52.4121 2.56348 53.4668 2.15332C53.5254 2.11426 53.5742 2.13379 53.6133 2.21191C53.6719 2.29004 53.7207 2.3877 53.7598 2.50488C53.7598 2.62207 53.7207 2.74902 53.6426 2.88574C53.584 3.00293 53.457 3.09082 53.2617 3.14941ZM37.0312 23.7451C36.0547 25.6201 35.0195 27.4463 33.9258 29.2236C32.832 31.001 31.6309 32.6709 30.3223 34.2334C29.0137 35.7764 27.5684 37.1924 25.9863 38.4814C24.4238 39.751 22.6953 40.8252 20.8008 41.7041C21.9922 42.0166 23.2031 42.2412 24.4336 42.3779C25.6641 42.5146 26.9531 42.5146 28.3008 42.3779C30.3711 42.1631 32.3242 41.6455 34.1602 40.8252C36.0156 40.0049 37.7344 38.9697 39.3164 37.7197C40.8984 36.4502 42.3242 35.0049 43.5938 33.3838C44.8828 31.7432 45.9863 30.0244 46.9043 28.2275C47.8223 26.4111 48.5352 24.5459 49.043 22.6318C49.5703 20.7178 49.8633 18.8428 49.9219 17.0068C49.9805 15.1709 49.7852 13.4131 49.3359 11.7334C48.9062 10.0342 48.2031 8.50098 47.2266 7.13379C46.2695 8.12988 45.3516 9.2627 44.4727 10.5322C43.6133 11.8018 42.7637 13.1494 41.9238 14.5752C41.1035 16.001 40.2832 17.4951 39.4629 19.0576C38.6621 20.6006 37.8516 22.1631 37.0312 23.7451ZM5.15625 39.3311C4.66797 39.3506 4.18945 39.3994 3.7207 39.4775C3.27148 39.5361 2.86133 39.6436 2.49023 39.7998C2.11914 39.9561 1.79688 40.1611 1.52344 40.415C1.26953 40.6689 1.10352 40.9814 1.02539 41.3525C1.2793 41.958 1.74805 42.4268 2.43164 42.7588C3.11523 43.0908 3.92578 43.3154 4.86328 43.4326C5.82031 43.5693 6.8457 43.6182 7.93945 43.5791C9.0332 43.54 10.1074 43.4521 11.1621 43.3154C12.2168 43.1787 13.2129 43.0127 14.1504 42.8174C15.0879 42.6221 15.8594 42.4365 16.4648 42.2607C16.9922 42.085 17.5195 41.8994 18.0469 41.7041C17.0312 41.4111 16.0059 41.1182 14.9707 40.8252C13.9551 40.5322 12.9199 40.2686 11.8652 40.0342C10.8105 39.7998 9.72656 39.624 8.61328 39.5068C7.5 39.3701 6.34766 39.3115 5.15625 39.3311Z" fill="#FFFCF4"/>
<path d="M70.957 28.0811L71.4551 28.7549C70.498 29.5752 69.6875 30.1904 69.0234 30.6006C68.3789 30.9912 67.8027 31.2646 67.2949 31.4209C67.0605 31.4795 66.8848 31.5283 66.7676 31.5674C66.6504 31.6064 66.4844 31.6357 66.2695 31.6553C66.1719 31.6748 66.084 31.6846 66.0059 31.6846C65.9473 31.6846 65.8984 31.6846 65.8594 31.6846H65.0391C64.8633 32.1143 64.668 32.5439 64.4531 32.9736C64.2383 33.4033 64.0039 33.8428 63.75 34.292C62.3828 36.7334 60.8691 38.6963 59.209 40.1807C57.5879 41.626 56.2109 42.3486 55.0781 42.3486C54.1992 42.3486 53.5449 41.9482 53.1152 41.1475C52.666 40.3467 52.4414 39.3506 52.4414 38.1592C52.4414 37.6123 52.5195 37.0264 52.6758 36.4014C52.832 35.7764 53.0566 35.1514 53.3496 34.5264C53.6426 33.8818 53.9844 33.2471 54.375 32.6221C54.7852 31.9971 55.2246 31.4014 55.6934 30.835C56.377 29.9756 57.1289 29.165 57.9492 28.4033C58.7695 27.6416 59.5898 26.9775 60.4102 26.4111C61.2305 25.8252 62.0117 25.3662 62.7539 25.0342C63.4961 24.7021 64.1406 24.5459 64.6875 24.5654C65.0586 24.5654 65.3613 24.7217 65.5957 25.0342C65.8496 25.3271 66.0156 25.7471 66.0938 26.2939C66.1719 26.8408 66.1523 27.5049 66.0352 28.2861C65.918 29.0674 65.6836 29.9365 65.332 30.8936C66.8164 30.835 68.6914 29.8975 70.957 28.0811ZM62.9297 33.999C63.2031 33.5107 63.4375 33.0615 63.6328 32.6514C63.8477 32.2217 64.0332 31.8311 64.1895 31.4795C63.7012 31.2451 63.3691 30.874 63.1934 30.3662C63.0176 29.8389 62.959 29.3311 63.0176 28.8428C63.0762 28.2764 63.3594 27.6904 63.8672 27.085C64.375 26.499 64.8828 26.1572 65.3906 26.0596C65.2344 25.4736 65 25.1807 64.6875 25.1807C63.7891 25.1807 62.7344 25.8154 61.5234 27.085C60.3125 28.3545 59.2285 29.8486 58.2715 31.5674C57.7832 32.4268 57.3242 33.2959 56.8945 34.1748C56.4844 35.0342 56.1133 35.9131 55.7812 36.8115C55.0977 38.6279 54.7559 40.0146 54.7559 40.9717C54.7559 41.3818 54.8633 41.5869 55.0781 41.5869C55.9961 41.5869 57.2363 40.8545 58.7988 39.3896C60.3613 37.9053 61.7383 36.1084 62.9297 33.999Z" fill="#FFFCF4"/>
<path d="M82.7051 33.3545H83.584C83.1934 33.9795 82.7832 34.5947 82.3535 35.2002C81.9238 35.8057 81.3477 36.5674 80.625 37.4854C79.9023 38.4033 79.2188 39.2041 78.5742 39.8877C77.9492 40.5518 77.2754 41.1279 76.5527 41.6162C75.8301 42.1045 75.2051 42.3486 74.6777 42.3486C74.4824 42.3486 74.2871 42.3291 74.0918 42.29C73.8965 42.2314 73.6621 42.124 73.3887 41.9678C73.1348 41.8115 72.9102 41.6064 72.7148 41.3525C72.5391 41.0986 72.3828 40.7373 72.2461 40.2686C72.1094 39.7998 72.041 39.2529 72.041 38.6279C72.041 37.9834 72.2949 37.1729 72.8027 36.1963C73.3301 35.2197 73.9648 34.2432 74.707 33.2666C75.4492 32.2705 76.1914 31.3135 76.9336 30.3955C77.6758 29.458 78.3008 28.5986 78.8086 27.8174C79.3359 27.0361 79.5996 26.4697 79.5996 26.1182C79.5996 25.708 79.4531 25.5029 79.1602 25.5029C78.5547 25.5029 77.7637 25.874 76.7871 26.6162C75.8301 27.3389 74.8828 28.2178 73.9453 29.2529C73.0078 30.2881 72.1094 31.333 71.25 32.3877C70.3906 33.4229 69.6973 34.3018 69.1699 35.0244L68.3789 36.1377L53.1445 60.6006H49.8926L64.0137 38.0713L66.5039 33.4131L71.9238 24.7119H75.2344L75.1758 24.7998C74.4922 25.9912 73.2715 27.9932 71.5137 30.8057C74.7363 26.6455 77.4316 24.5654 79.5996 24.5654C80.2246 24.5654 80.7422 24.7607 81.1523 25.1514C81.582 25.542 81.7969 26.167 81.7969 27.0264C81.7969 27.749 81.5234 28.6279 80.9766 29.6631C80.4492 30.6982 79.8047 31.7334 79.043 32.7686C78.3008 33.8037 77.5488 34.8193 76.7871 35.8154C76.0254 36.8115 75.3809 37.749 74.8535 38.6279C74.3262 39.4873 74.0625 40.1611 74.0625 40.6494C74.0625 41.2744 74.2676 41.5869 74.6777 41.5869C75.1855 41.5869 75.8105 41.2939 76.5527 40.708C77.2949 40.1221 78.0664 39.3506 78.8672 38.3936C79.6875 37.4365 80.3906 36.5674 80.9766 35.7861C81.582 34.9854 82.1582 34.1748 82.7051 33.3545Z" fill="#FFFCF4"/>
<path d="M99.082 28.0811L99.5801 28.7549C98.623 29.5752 97.8125 30.1904 97.1484 30.6006C96.5039 30.9912 95.9277 31.2646 95.4199 31.4209C95.1855 31.4795 95.0098 31.5283 94.8926 31.5674C94.7754 31.6064 94.6094 31.6357 94.3945 31.6553C94.2969 31.6748 94.209 31.6846 94.1309 31.6846C94.0723 31.6846 94.0234 31.6846 93.9844 31.6846H93.1641C92.9883 32.1143 92.793 32.5439 92.5781 32.9736C92.3633 33.4033 92.1289 33.8428 91.875 34.292C90.5078 36.7334 88.9941 38.6963 87.334 40.1807C85.7129 41.626 84.3359 42.3486 83.2031 42.3486C82.3242 42.3486 81.6699 41.9482 81.2402 41.1475C80.791 40.3467 80.5664 39.3506 80.5664 38.1592C80.5664 37.6123 80.6445 37.0264 80.8008 36.4014C80.957 35.7764 81.1816 35.1514 81.4746 34.5264C81.7676 33.8818 82.1094 33.2471 82.5 32.6221C82.9102 31.9971 83.3496 31.4014 83.8184 30.835C84.502 29.9756 85.2539 29.165 86.0742 28.4033C86.8945 27.6416 87.7148 26.9775 88.5352 26.4111C89.3555 25.8252 90.1367 25.3662 90.8789 25.0342C91.6211 24.7021 92.2656 24.5459 92.8125 24.5654C93.1836 24.5654 93.4863 24.7217 93.7207 25.0342C93.9746 25.3271 94.1406 25.7471 94.2188 26.2939C94.2969 26.8408 94.2773 27.5049 94.1602 28.2861C94.043 29.0674 93.8086 29.9365 93.457 30.8936C94.9414 30.835 96.8164 29.8975 99.082 28.0811ZM91.0547 33.999C91.3281 33.5107 91.5625 33.0615 91.7578 32.6514C91.9727 32.2217 92.1582 31.8311 92.3145 31.4795C91.8262 31.2451 91.4941 30.874 91.3184 30.3662C91.1426 29.8389 91.084 29.3311 91.1426 28.8428C91.2012 28.2764 91.4844 27.6904 91.9922 27.085C92.5 26.499 93.0078 26.1572 93.5156 26.0596C93.3594 25.4736 93.125 25.1807 92.8125 25.1807C91.9141 25.1807 90.8594 25.8154 89.6484 27.085C88.4375 28.3545 87.3535 29.8486 86.3965 31.5674C85.9082 32.4268 85.4492 33.2959 85.0195 34.1748C84.6094 35.0342 84.2383 35.9131 83.9062 36.8115C83.2227 38.6279 82.8809 40.0146 82.8809 40.9717C82.8809 41.3818 82.9883 41.5869 83.2031 41.5869C84.1211 41.5869 85.3613 40.8545 86.9238 39.3896C88.4863 37.9053 89.8633 36.1084 91.0547 33.999Z" fill="#FFFCF4"/>
<path d="M104.268 24.5654C105.088 24.5264 105.703 24.6924 106.113 25.0635C106.543 25.4346 106.787 25.9326 106.846 26.5576C106.924 27.1631 106.846 27.8467 106.611 28.6084C106.377 29.3701 106.025 30.1025 105.557 30.8057C104.502 32.3682 103.379 33.8428 102.188 35.2295C101.016 36.6162 99.9609 37.9639 99.0234 39.2725C98.5156 39.9756 98.2715 40.5811 98.291 41.0889C98.3105 41.5967 98.6133 41.8311 99.1992 41.792C99.9219 41.6748 100.713 41.3037 101.572 40.6787C102.432 40.0537 103.271 39.3213 104.092 38.4814C104.932 37.6221 105.703 36.7334 106.406 35.8154C107.129 34.8779 107.705 34.0576 108.135 33.3545H108.926C108.34 34.1748 107.666 35.1123 106.904 36.167C106.162 37.2021 105.342 38.1982 104.443 39.1553C103.545 40.0928 102.568 40.9033 101.514 41.5869C100.479 42.2705 99.375 42.6514 98.2031 42.7295C97.6562 42.7686 97.207 42.7002 96.8555 42.5244C96.5039 42.3486 96.2109 42.0947 95.9766 41.7627C95.5664 41.1768 95.3906 40.5518 95.4492 39.8877C95.5273 39.2236 95.7422 38.54 96.0938 37.8369C96.4648 37.1338 96.9434 36.4209 97.5293 35.6982C98.1152 34.9756 98.7305 34.2627 99.375 33.5596C100.02 32.8564 100.645 32.1826 101.25 31.5381C101.875 30.874 102.402 30.249 102.832 29.6631C103.379 29.0186 103.818 28.4326 104.15 27.9053C104.482 27.3584 104.697 26.8994 104.795 26.5283C104.912 26.1572 104.893 25.8838 104.736 25.708C104.58 25.5127 104.277 25.4443 103.828 25.5029C103.379 25.6201 102.91 25.8545 102.422 26.2061C101.934 26.5381 101.426 26.9482 100.898 27.4365C100.391 27.9248 99.873 28.4717 99.3457 29.0771C98.8184 29.6826 98.3008 30.3076 97.793 30.9521C97.3047 31.5967 96.8262 32.2412 96.3574 32.8857C95.8887 33.5303 95.4492 34.126 95.0391 34.6729L94.2773 34.585C95.0781 33.2373 95.9375 31.958 96.8555 30.7471C97.793 29.5361 98.7109 28.4717 99.6094 27.5537C100.508 26.6357 101.357 25.9131 102.158 25.3857C102.979 24.8389 103.682 24.5654 104.268 24.5654Z" fill="#FFFCF4"/>
<path d="M124.98 33.3545H125.859C125.703 33.6084 125.488 33.9404 125.215 34.3506C124.961 34.7412 124.453 35.4541 123.691 36.4893C122.949 37.5244 122.236 38.4424 121.553 39.2432C120.889 40.0244 120.137 40.7373 119.297 41.3818C118.477 42.0264 117.783 42.3486 117.217 42.3486C116.572 42.3486 115.996 41.9873 115.488 41.2646C114.98 40.542 114.727 39.5068 114.727 38.1592C114.727 37.7295 114.844 37.1729 115.078 36.4893C112.051 40.3955 109.98 42.3486 108.867 42.3486C108.242 42.3486 107.676 41.9873 107.168 41.2646C106.66 40.542 106.406 39.5068 106.406 38.1592C106.406 37.5537 106.65 36.6748 107.139 35.5225C107.627 34.3701 108.213 33.1982 108.896 32.0068C109.6 30.7959 110.303 29.6338 111.006 28.5205C111.709 27.4072 112.305 26.499 112.793 25.7959L113.525 24.7119H117.246C117.012 25.0635 116.699 25.5225 116.309 26.0889C115.918 26.6553 115.225 27.7197 114.229 29.2822C113.232 30.8252 112.354 32.251 111.592 33.5596C110.83 34.8682 110.137 36.2158 109.512 37.6025C108.887 38.9697 108.574 39.9854 108.574 40.6494C108.574 41.1572 108.779 41.4111 109.189 41.4111C110.068 41.4111 112.471 38.8037 116.396 33.5889C117.021 32.3779 117.783 31.04 118.682 29.5752C119.6 28.0908 120.352 26.9092 120.938 26.0303L121.846 24.7119H125.566C125.332 25.0635 125.01 25.5225 124.6 26.0889C124.209 26.6553 123.516 27.7197 122.52 29.2822C121.523 30.8252 120.645 32.251 119.883 33.5596C119.141 34.8682 118.457 36.2158 117.832 37.6025C117.207 38.9697 116.895 39.9854 116.895 40.6494C116.895 41.1572 117.1 41.4111 117.51 41.4111C117.861 41.4111 118.34 41.1572 118.945 40.6494C119.551 40.1416 120.137 39.5654 120.703 38.9209C121.27 38.2764 121.895 37.5146 122.578 36.6357C123.262 35.7568 123.76 35.0928 124.072 34.6436C124.404 34.1943 124.707 33.7646 124.98 33.3545Z" fill="#FFFCF4"/>
<path d="M127.559 41.5869C129.512 41.5869 132.588 38.8428 136.787 33.3545H137.695C136.777 34.5654 135.889 35.6689 135.029 36.665C134.189 37.6416 133.301 38.5791 132.363 39.4775C131.445 40.376 130.557 41.0791 129.697 41.5869C128.838 42.0947 128.066 42.3486 127.383 42.3486C126.348 42.3486 125.469 41.9775 124.746 41.2354C124.043 40.4932 123.691 39.3701 123.691 37.8662C123.691 36.5576 124.082 35.1123 124.863 33.5303C125.645 31.9287 126.611 30.4736 127.764 29.165C128.936 27.8564 130.234 26.7627 131.66 25.8838C133.086 25.0049 134.404 24.5654 135.615 24.5654C135.83 24.5654 136.045 24.6045 136.26 24.6826C136.494 24.7607 136.729 24.8975 136.963 25.0928C137.197 25.2686 137.383 25.5518 137.52 25.9424C137.676 26.3135 137.754 26.7822 137.754 27.3486C137.754 28.6377 137.227 29.8779 136.172 31.0693C135.117 32.2607 133.857 33.1299 132.393 33.6768C130.928 34.2041 129.639 34.2627 128.525 33.8525C127.158 36.3721 126.475 38.3252 126.475 39.7119C126.475 40.9619 126.836 41.5869 127.559 41.5869ZM135.439 25.1807C134.912 25.1807 133.945 26.04 132.539 27.7588C131.152 29.4775 129.883 31.3721 128.73 33.4424C129.453 33.5596 130.186 33.4424 130.928 33.0908C131.689 32.7393 132.354 32.2607 132.92 31.6553C133.506 31.0303 134.023 30.3564 134.473 29.6338C134.941 28.8916 135.293 28.1787 135.527 27.4951C135.781 26.8115 135.908 26.2451 135.908 25.7959C135.908 25.3857 135.752 25.1807 135.439 25.1807Z" fill="#FFFCF4"/>
<path d="M162.979 33.3545H163.857C163.467 33.9795 163.057 34.5947 162.627 35.2002C162.197 35.8057 161.621 36.5674 160.898 37.4854C160.176 38.4033 159.492 39.2041 158.848 39.8877C158.223 40.5518 157.549 41.1279 156.826 41.6162C156.104 42.1045 155.479 42.3486 154.951 42.3486C154.756 42.3486 154.561 42.3291 154.365 42.29C154.17 42.2314 153.936 42.124 153.662 41.9678C153.408 41.8115 153.184 41.6064 152.988 41.3525C152.812 41.0986 152.656 40.7373 152.52 40.2686C152.383 39.7998 152.314 39.2529 152.314 38.6279C152.314 37.9834 152.568 37.1729 153.076 36.1963C153.604 35.2197 154.238 34.2432 154.98 33.2666C155.723 32.2705 156.465 31.3135 157.207 30.3955C157.949 29.458 158.574 28.5986 159.082 27.8174C159.609 27.0361 159.873 26.4697 159.873 26.1182C159.873 25.708 159.727 25.5029 159.434 25.5029C158.828 25.5029 158.037 25.874 157.061 26.6162C156.104 27.3389 155.156 28.2178 154.219 29.2529C153.281 30.2881 152.383 31.333 151.523 32.3877C150.664 33.4229 149.971 34.3018 149.443 35.0244L148.652 36.1377L133.418 60.6006H130.166L144.287 38.0713L146.777 33.4131L152.197 24.7119H155.508L155.449 24.7998C154.766 25.9912 153.545 27.9932 151.787 30.8057C155.01 26.6455 157.705 24.5654 159.873 24.5654C160.498 24.5654 161.016 24.7607 161.426 25.1514C161.855 25.542 162.07 26.167 162.07 27.0264C162.07 27.749 161.797 28.6279 161.25 29.6631C160.723 30.6982 160.078 31.7334 159.316 32.7686C158.574 33.8037 157.822 34.8193 157.061 35.8154C156.299 36.8115 155.654 37.749 155.127 38.6279C154.6 39.4873 154.336 40.1611 154.336 40.6494C154.336 41.2744 154.541 41.5869 154.951 41.5869C155.459 41.5869 156.084 41.2939 156.826 40.708C157.568 40.1221 158.34 39.3506 159.141 38.3936C159.961 37.4365 160.664 36.5674 161.25 35.7861C161.855 34.9854 162.432 34.1748 162.979 33.3545Z" fill="#FFFCF4"/>
<path d="M179.355 28.0811L179.854 28.7549C178.896 29.5752 178.086 30.1904 177.422 30.6006C176.777 30.9912 176.201 31.2646 175.693 31.4209C175.459 31.4795 175.283 31.5283 175.166 31.5674C175.049 31.6064 174.883 31.6357 174.668 31.6553C174.57 31.6748 174.482 31.6846 174.404 31.6846C174.346 31.6846 174.297 31.6846 174.258 31.6846H173.438C173.262 32.1143 173.066 32.5439 172.852 32.9736C172.637 33.4033 172.402 33.8428 172.148 34.292C170.781 36.7334 169.268 38.6963 167.607 40.1807C165.986 41.626 164.609 42.3486 163.477 42.3486C162.598 42.3486 161.943 41.9482 161.514 41.1475C161.064 40.3467 160.84 39.3506 160.84 38.1592C160.84 37.6123 160.918 37.0264 161.074 36.4014C161.23 35.7764 161.455 35.1514 161.748 34.5264C162.041 33.8818 162.383 33.2471 162.773 32.6221C163.184 31.9971 163.623 31.4014 164.092 30.835C164.775 29.9756 165.527 29.165 166.348 28.4033C167.168 27.6416 167.988 26.9775 168.809 26.4111C169.629 25.8252 170.41 25.3662 171.152 25.0342C171.895 24.7021 172.539 24.5459 173.086 24.5654C173.457 24.5654 173.76 24.7217 173.994 25.0342C174.248 25.3271 174.414 25.7471 174.492 26.2939C174.57 26.8408 174.551 27.5049 174.434 28.2861C174.316 29.0674 174.082 29.9365 173.73 30.8936C175.215 30.835 177.09 29.8975 179.355 28.0811ZM171.328 33.999C171.602 33.5107 171.836 33.0615 172.031 32.6514C172.246 32.2217 172.432 31.8311 172.588 31.4795C172.1 31.2451 171.768 30.874 171.592 30.3662C171.416 29.8389 171.357 29.3311 171.416 28.8428C171.475 28.2764 171.758 27.6904 172.266 27.085C172.773 26.499 173.281 26.1572 173.789 26.0596C173.633 25.4736 173.398 25.1807 173.086 25.1807C172.188 25.1807 171.133 25.8154 169.922 27.085C168.711 28.3545 167.627 29.8486 166.67 31.5674C166.182 32.4268 165.723 33.2959 165.293 34.1748C164.883 35.0342 164.512 35.9131 164.18 36.8115C163.496 38.6279 163.154 40.0146 163.154 40.9717C163.154 41.3818 163.262 41.5869 163.477 41.5869C164.395 41.5869 165.635 40.8545 167.197 39.3896C168.76 37.9053 170.137 36.1084 171.328 33.999Z" fill="#FFFCF4"/>
<path d="M179.619 44.7803C182.041 44.8779 183.604 45.7178 184.307 47.2998L183.809 47.5928C183.438 46.9092 182.91 46.3721 182.227 45.9814C181.543 45.6104 180.557 45.4053 179.268 45.3662L173.965 54.1846C173.223 55.3369 172.471 56.333 171.709 57.1729C170.947 58.0322 170.283 58.667 169.717 59.0771C169.15 59.5068 168.594 59.8389 168.047 60.0732C167.48 60.3271 167.061 60.4736 166.787 60.5127C166.514 60.5713 166.27 60.6006 166.055 60.6006C165.117 60.6006 164.648 60.0049 164.648 58.8135C164.648 57.7002 165.01 56.4502 165.732 55.0635C166.455 53.6963 167.373 52.3975 168.486 51.167C169.6 49.9365 170.85 48.7939 172.236 47.7393C173.604 46.7041 174.922 45.9229 176.191 45.3955L180 39.2432C178.105 41.3135 176.787 42.3486 176.045 42.3486C175.166 42.3486 174.512 41.9482 174.082 41.1475C173.633 40.3467 173.408 39.3506 173.408 38.1592C173.408 37.2217 173.633 36.2158 174.082 35.1416C174.512 34.0479 175.088 33.0127 175.811 32.0361C176.533 31.04 177.344 30.083 178.242 29.165C179.16 28.2471 180.068 27.4561 180.967 26.792C181.885 26.1084 182.773 25.5713 183.633 25.1807C184.512 24.7705 185.254 24.5654 185.859 24.5654C186.738 24.5654 187.1 25.3467 186.943 26.9092L188.174 24.7119H191.689L179.619 44.7803ZM176.045 41.5576C176.553 41.5576 177.354 41.0107 178.447 39.917C179.541 38.8037 180.615 37.5732 181.67 36.2256L182.109 35.4346L186.035 28.5498C186.113 28.1592 186.182 27.7783 186.24 27.4072C186.299 27.0166 186.338 26.6455 186.357 26.2939C186.377 25.9424 186.338 25.6689 186.24 25.4736C186.162 25.2588 186.035 25.1514 185.859 25.1514C184.941 25.1514 183.877 25.7861 182.666 27.0557C181.455 28.3252 180.352 29.8193 179.355 31.5381C178.359 33.2568 177.51 35.0049 176.807 36.7822C176.104 38.5596 175.752 39.9463 175.752 40.9424C175.752 41.3525 175.85 41.5576 176.045 41.5576ZM165.879 59.8682C166.328 59.8682 166.914 59.4873 167.637 58.7256C168.359 57.9834 169.082 57.0654 169.805 55.9717C170.508 54.8975 171.191 53.8232 171.855 52.749C172.5 51.6748 173.027 50.7666 173.438 50.0244L174.053 48.8818L175.605 46.333C174.043 47.1143 172.471 48.2764 170.889 49.8193C169.287 51.3623 167.979 52.9834 166.963 54.6826C165.928 56.3818 165.41 57.8369 165.41 59.0479C165.41 59.5557 165.566 59.8291 165.879 59.8682Z" fill="#FFFCF4"/>
<path d="M196.289 36.4893C196.543 35.8838 196.816 35.2686 197.109 34.6436C197.402 34.0186 197.715 33.3936 198.047 32.7686H193.857L188.467 42.3486H184.893L194.854 24.7119H198.398L194.268 32.0068H198.457C199.18 30.6592 199.922 29.3604 200.684 28.1104C201.445 26.8408 202.119 25.708 202.705 24.7119H206.426C206.387 24.7705 206.143 25.1611 205.693 25.8838C205.244 26.5869 204.668 27.5244 203.965 28.6963C203.262 29.8682 202.48 31.2256 201.621 32.7686C200.762 34.292 199.902 35.9033 199.043 37.6025C198.711 38.2861 198.408 38.8818 198.135 39.3896C197.881 39.8975 197.754 40.3174 197.754 40.6494C197.754 41.1572 197.959 41.4111 198.369 41.4111C198.701 41.4111 199.102 41.2354 199.57 40.8838C200.039 40.5127 200.527 40.0537 201.035 39.5068C201.562 38.96 202.09 38.3643 202.617 37.7197C203.145 37.0557 203.633 36.4307 204.082 35.8447C204.531 35.2393 204.912 34.7119 205.225 34.2627C205.537 33.7939 205.742 33.4912 205.84 33.3545H206.719C206.68 33.4131 206.553 33.6084 206.338 33.9404C206.143 34.2529 205.859 34.6729 205.488 35.2002C205.137 35.7275 204.697 36.3428 204.17 37.0459C203.662 37.7295 203.076 38.4619 202.412 39.2432C202.1 39.6143 201.748 39.9854 201.357 40.3564C200.967 40.7275 200.576 41.0596 200.186 41.3525C199.795 41.6455 199.414 41.8896 199.043 42.085C198.672 42.2607 198.35 42.3486 198.076 42.3486C197.646 42.3486 197.236 42.2119 196.846 41.9385C196.455 41.665 196.152 41.2842 195.938 40.7959C195.742 40.2881 195.654 39.6729 195.674 38.9502C195.693 38.2275 195.898 37.4072 196.289 36.4893Z" fill="#FFFCF4"/>
<path d="M227.871 33.4424C227.305 34.2236 226.758 34.9756 226.23 35.6982C225.703 36.4014 225.186 37.0654 224.678 37.6904C224.17 38.3154 223.652 38.9014 223.125 39.4482C222.617 39.9951 222.109 40.5127 221.602 41.001C220.586 41.958 219.805 42.4365 219.258 42.4365C218.945 42.4365 218.643 42.3486 218.35 42.1729C218.057 41.9775 217.793 41.7041 217.559 41.3525C217.324 41.001 217.139 40.5713 217.002 40.0635C216.865 39.5361 216.797 38.9307 216.797 38.2471C216.797 37.6025 217.041 36.7236 217.529 35.6104C218.018 34.4775 218.604 33.3057 219.287 32.0947C219.443 31.8408 219.58 31.5967 219.697 31.3623C219.834 31.1084 219.98 30.8643 220.137 30.6299C219.609 31.0205 219.043 31.3525 218.438 31.626C217.832 31.8994 217.188 32.0752 216.504 32.1533C216.66 32.876 216.621 33.7158 216.387 34.6729C216.113 35.8057 215.654 36.8506 215.01 37.8076C214.385 38.7646 213.643 39.5947 212.783 40.2979C211.924 40.9814 210.996 41.5283 210 41.9385C209.004 42.3291 208.018 42.5244 207.041 42.5244C206.318 42.6025 205.742 42.5244 205.312 42.29C204.883 42.0557 204.551 41.7236 204.316 41.2939C204.082 40.8643 203.945 40.376 203.906 39.8291C203.848 39.2627 203.848 38.7061 203.906 38.1592C203.965 37.5928 204.072 37.0557 204.229 36.5479C204.365 36.04 204.512 35.6201 204.668 35.2881C205.508 33.1787 206.445 31.2744 207.48 29.5752C208.516 27.8564 209.502 26.2354 210.439 24.7119H213.896C213.818 24.8096 213.457 25.3955 212.812 26.4697C212.168 27.5244 211.25 29.1455 210.059 31.333C210.742 30.7275 211.406 30.2881 212.051 30.0146C212.715 29.7412 213.32 29.624 213.867 29.6631C214.434 29.6826 214.922 29.8486 215.332 30.1611C215.762 30.4541 216.084 30.8643 216.299 31.3916C217.256 31.3525 218.174 31.0596 219.053 30.5127C219.932 29.9463 220.703 29.3311 221.367 28.667C221.699 28.1006 222.021 27.5928 222.334 27.1436C222.646 26.6748 222.93 26.2549 223.184 25.8838L223.916 24.7998H227.637C227.52 24.9756 227.383 25.1807 227.227 25.415C227.07 25.6494 226.895 25.9033 226.699 26.1768C226.504 26.4502 226.23 26.8604 225.879 27.4072C225.547 27.9346 225.127 28.5889 224.619 29.3701C224.111 30.1514 223.643 30.8936 223.213 31.5967C222.783 32.2998 222.373 32.9834 221.982 33.6475C221.592 34.3115 221.221 34.9854 220.869 35.6689C220.537 36.333 220.215 37.0068 219.902 37.6904C219.277 39.0967 218.965 40.1123 218.965 40.7373C218.965 41.2451 219.17 41.499 219.58 41.499C220.088 41.499 221.025 40.7275 222.393 39.1846C223.799 37.6025 225.332 35.6885 226.992 33.4424H227.871ZM208.213 34.8486C207.9 35.4541 207.598 36.1768 207.305 37.0166C207.012 37.8369 206.797 38.6182 206.66 39.3604C206.543 40.1025 206.543 40.7178 206.66 41.2061C206.777 41.6943 207.09 41.9092 207.598 41.8506C208.125 41.792 208.662 41.5381 209.209 41.0889C209.775 40.6201 210.312 40.0439 210.82 39.3604C211.348 38.6768 211.826 37.9248 212.256 37.1045C212.705 36.2646 213.076 35.4346 213.369 34.6143C213.525 34.2041 213.672 33.7158 213.809 33.1494C213.965 32.5635 214.043 32.0557 214.043 31.626C214.023 31.1182 213.867 30.7861 213.574 30.6299C213.281 30.4541 212.9 30.4248 212.432 30.542C211.982 30.6592 211.484 30.9033 210.938 31.2744C210.41 31.6455 209.883 32.1143 209.355 32.6807C209.16 33.0127 208.965 33.3643 208.77 33.7354C208.594 34.0869 208.408 34.458 208.213 34.8486Z" fill="#FFFCF4"/>
<path d="M229.336 41.5869C231.289 41.5869 234.365 38.8428 238.564 33.3545H239.473C238.555 34.5654 237.666 35.6689 236.807 36.665C235.967 37.6416 235.078 38.5791 234.141 39.4775C233.223 40.376 232.334 41.0791 231.475 41.5869C230.615 42.0947 229.844 42.3486 229.16 42.3486C228.125 42.3486 227.246 41.9775 226.523 41.2354C225.82 40.4932 225.469 39.3701 225.469 37.8662C225.469 36.5576 225.859 35.1123 226.641 33.5303C227.422 31.9287 228.389 30.4736 229.541 29.165C230.713 27.8564 232.012 26.7627 233.438 25.8838C234.863 25.0049 236.182 24.5654 237.393 24.5654C237.607 24.5654 237.822 24.6045 238.037 24.6826C238.271 24.7607 238.506 24.8975 238.74 25.0928C238.975 25.2686 239.16 25.5518 239.297 25.9424C239.453 26.3135 239.531 26.7822 239.531 27.3486C239.531 28.6377 239.004 29.8779 237.949 31.0693C236.895 32.2607 235.635 33.1299 234.17 33.6768C232.705 34.2041 231.416 34.2627 230.303 33.8525C228.936 36.3721 228.252 38.3252 228.252 39.7119C228.252 40.9619 228.613 41.5869 229.336 41.5869ZM237.217 25.1807C236.689 25.1807 235.723 26.04 234.316 27.7588C232.93 29.4775 231.66 31.3721 230.508 33.4424C231.23 33.5596 231.963 33.4424 232.705 33.0908C233.467 32.7393 234.131 32.2607 234.697 31.6553C235.283 31.0303 235.801 30.3564 236.25 29.6338C236.719 28.8916 237.07 28.1787 237.305 27.4951C237.559 26.8115 237.686 26.2451 237.686 25.7959C237.686 25.3857 237.529 25.1807 237.217 25.1807Z" fill="#FFFCF4"/>
<path d="M72.7734 87.3545H73.6523C73.4961 87.6084 73.2812 87.9404 73.0078 88.3506C72.7539 88.7412 72.2461 89.4541 71.4844 90.4893C70.7422 91.5244 70.0293 92.4424 69.3457 93.2432C68.6816 94.0244 67.9297 94.7373 67.0898 95.3818C66.2695 96.0264 65.5762 96.3486 65.0098 96.3486C64.3652 96.3486 63.7891 95.9873 63.2812 95.2646C62.7734 94.542 62.5195 93.5068 62.5195 92.1592C62.5195 91.7295 62.6367 91.1729 62.8711 90.4893C59.8438 94.3955 57.7734 96.3486 56.6602 96.3486C56.0352 96.3486 55.4688 95.9873 54.9609 95.2646C54.4531 94.542 54.1992 93.5068 54.1992 92.1592C54.1992 91.5537 54.4434 90.6748 54.9316 89.5225C55.4199 88.3701 56.0059 87.1982 56.6895 86.0068C57.3926 84.7959 58.0957 83.6338 58.7988 82.5205C59.502 81.4072 60.0977 80.499 60.5859 79.7959L61.3184 78.7119H65.0391C64.8047 79.0635 64.4922 79.5225 64.1016 80.0889C63.7109 80.6553 63.0176 81.7197 62.0215 83.2822C61.0254 84.8252 60.1465 86.251 59.3848 87.5596C58.623 88.8682 57.9297 90.2158 57.3047 91.6025C56.6797 92.9697 56.3672 93.9854 56.3672 94.6494C56.3672 95.1572 56.5723 95.4111 56.9824 95.4111C57.8613 95.4111 60.2637 92.8037 64.1895 87.5889C64.8145 86.3779 65.5762 85.04 66.4746 83.5752C67.3926 82.0908 68.1445 80.9092 68.7305 80.0303L69.6387 78.7119H73.3594C73.125 79.0635 72.8027 79.5225 72.3926 80.0889C72.002 80.6553 71.3086 81.7197 70.3125 83.2822C69.3164 84.8252 68.4375 86.251 67.6758 87.5596C66.9336 88.8682 66.25 90.2158 65.625 91.6025C65 92.9697 64.6875 93.9854 64.6875 94.6494C64.6875 95.1572 64.8926 95.4111 65.3027 95.4111C65.6543 95.4111 66.1328 95.1572 66.7383 94.6494C67.3438 94.1416 67.9297 93.5654 68.4961 92.9209C69.0625 92.2764 69.6875 91.5146 70.3711 90.6357C71.0547 89.7568 71.5527 89.0928 71.8652 88.6436C72.1973 88.1943 72.5 87.7646 72.7734 87.3545Z" fill="#FFFCF4"/>
<path d="M99.1992 82.0811L99.6973 82.7549C98.7402 83.5752 97.9297 84.1904 97.2656 84.6006C96.6211 84.9912 96.0449 85.2646 95.5371 85.4209C95.3027 85.4795 95.127 85.5283 95.0098 85.5674C94.8926 85.6064 94.7266 85.6357 94.5117 85.6553C94.4141 85.6748 94.3262 85.6846 94.248 85.6846C94.1895 85.6846 94.1406 85.6846 94.1016 85.6846H93.2812C93.1055 86.1143 92.9102 86.5439 92.6953 86.9736C92.4805 87.4033 92.2461 87.8428 91.9922 88.292C90.625 90.7334 89.1113 92.6963 87.4512 94.1807C85.8301 95.626 84.4531 96.3486 83.3203 96.3486C82.4414 96.3486 81.7871 95.9482 81.3574 95.1475C80.9082 94.3467 80.6836 93.3506 80.6836 92.1592C80.6836 91.6123 80.7617 91.0264 80.918 90.4014C81.0742 89.7764 81.2988 89.1514 81.5918 88.5264C81.8848 87.8818 82.2266 87.2471 82.6172 86.6221C83.0273 85.9971 83.4668 85.4014 83.9355 84.835C84.6191 83.9756 85.3711 83.165 86.1914 82.4033C87.0117 81.6416 87.832 80.9775 88.6523 80.4111C89.4727 79.8252 90.2539 79.3662 90.9961 79.0342C91.7383 78.7021 92.3828 78.5459 92.9297 78.5654C93.3008 78.5654 93.623 78.7314 93.8965 79.0635C93.9746 77.7939 93.9746 76.583 93.8965 75.4307C93.8184 74.2783 93.7207 73.2236 93.6035 72.2666C93.4863 71.3096 93.3887 70.4795 93.3105 69.7764C93.2324 69.0732 93.2324 68.5264 93.3105 68.1357C93.3105 67.9014 93.3398 67.6279 93.3984 67.3154C93.4766 66.9834 93.6133 66.6709 93.8086 66.3779C94.0039 66.0654 94.2578 65.7725 94.5703 65.499C94.9023 65.2256 95.332 65.0107 95.8594 64.8545C96.3477 64.7178 96.8555 64.6299 97.3828 64.5908C97.9297 64.5322 98.4766 64.5029 99.0234 64.5029C99.5703 64.4834 100.107 64.4736 100.635 64.4736C101.162 64.4736 101.66 64.4541 102.129 64.415C102.598 64.376 103.037 64.3174 103.447 64.2393C103.857 64.1416 104.209 63.9951 104.502 63.7998C104.795 63.585 105.02 63.3115 105.176 62.9795C105.352 62.6475 105.439 62.2275 105.439 61.7197L105.791 61.749C105.713 63.1357 105.371 64.3369 104.766 65.3525C104.18 66.3682 103.418 67.0615 102.48 67.4326C101.953 67.667 101.367 67.8232 100.723 67.9014C100.098 67.9795 99.4531 68.0381 98.7891 68.0771C98.1445 68.0967 97.5098 68.1162 96.8848 68.1357C96.2793 68.1357 95.7227 68.1748 95.2148 68.2529L95.0098 68.3408C94.6387 68.3799 94.3848 68.5654 94.248 68.8975C94.1309 69.21 94.0723 69.6494 94.0723 70.2158C94.0918 70.7627 94.1504 71.4268 94.248 72.208C94.3457 72.9697 94.4336 73.8291 94.5117 74.7861C94.5898 75.7236 94.6289 76.7393 94.6289 77.833C94.6289 78.9268 94.541 80.0693 94.3652 81.2607C94.3262 82.2764 94.0625 83.4873 93.5742 84.8936C95.0586 84.835 96.9336 83.8975 99.1992 82.0811ZM91.2305 88.1162C91.6602 87.374 92.0508 86.5635 92.4023 85.6846C92.7734 84.8057 93.0664 83.9463 93.2812 83.1064C93.3203 83.0088 93.3496 82.9111 93.3691 82.8135C93.3887 82.7158 93.4082 82.6182 93.4277 82.5205C93.4668 82.3643 93.4863 82.2666 93.4863 82.2275C93.5254 82.1299 93.5449 82.0322 93.5449 81.9346C93.5645 81.8174 93.584 81.71 93.6035 81.6123C93.6426 81.3389 93.6621 81.0752 93.6621 80.8213C93.6816 80.5479 93.6719 80.2939 93.6328 80.0596C93.4766 79.4736 93.2422 79.1807 92.9297 79.1807C92.0312 79.1807 90.9766 79.8154 89.7656 81.085C88.5547 82.3545 87.4707 83.8486 86.5137 85.5674C86.0254 86.4268 85.5664 87.2959 85.1367 88.1748C84.7266 89.0342 84.3555 89.9131 84.0234 90.8115C83.3398 92.6279 82.998 94.0146 82.998 94.9717C82.998 95.3818 83.1055 95.5869 83.3203 95.5869C84.2383 95.5869 85.4785 94.8545 87.041 93.3896C87.8223 92.6475 88.5645 91.8564 89.2676 91.0166C89.9707 90.1572 90.625 89.1904 91.2305 88.1162Z" fill="#FFFCF4"/>
<path d="M113.232 87.3545C112.666 88.1357 112.119 88.8877 111.592 89.6104C111.064 90.3135 110.547 90.9775 110.039 91.6025C109.551 92.208 109.043 92.7939 108.516 93.3604C107.988 93.9268 107.48 94.4346 106.992 94.8838C106.504 95.3135 106.045 95.665 105.615 95.9385C105.205 96.2119 104.873 96.3486 104.619 96.3486C104.307 96.3486 104.004 96.2607 103.711 96.085C103.418 95.8896 103.154 95.6162 102.92 95.2646C102.686 94.9131 102.5 94.4834 102.363 93.9756C102.227 93.4482 102.158 92.8428 102.158 92.1592C102.158 91.71 102.266 91.1631 102.48 90.5186C102.715 89.8545 103.018 89.1416 103.389 88.3799C103.76 87.5986 104.18 86.7979 104.648 85.9775C105.117 85.1572 105.586 84.3662 106.055 83.6045C106.543 82.8428 107.002 82.1299 107.432 81.4658C107.861 80.8018 108.232 80.2451 108.545 79.7959L108.604 79.708C107.9 79.9033 107.246 80.2256 106.641 80.6748C106.055 81.1045 105.498 81.6318 104.971 82.2568C104.443 82.8818 103.945 83.5752 103.477 84.3369C103.008 85.0986 102.559 85.8896 102.129 86.71C101.504 87.9404 100.889 89.1318 100.283 90.2842C99.6973 91.417 99.0918 92.4424 98.4668 93.3604C97.9395 94.2002 97.334 94.9229 96.6504 95.5283C95.9668 96.1338 95.1758 96.4561 94.2773 96.4951C93.4961 96.3975 92.9395 96.1436 92.6074 95.7334C92.2754 95.3232 92.0801 94.8643 92.0215 94.3564C91.9238 93.9854 91.9238 93.585 92.0215 93.1553C92.0996 92.7256 92.2363 92.3154 92.4316 91.9248C92.627 91.5342 92.8711 91.1826 93.1641 90.8701C93.457 90.5576 93.7598 90.3428 94.0723 90.2256C94.6387 90.0693 95.1465 90.0791 95.5957 90.2549C96.0449 90.4307 96.3184 90.7529 96.416 91.2217C96.4941 91.6904 96.4355 92.1689 96.2402 92.6572C96.0449 93.126 95.8105 93.5654 95.5371 93.9756C95.2832 94.3857 95.0391 94.7568 94.8047 95.0889C94.5703 95.4014 94.4629 95.6357 94.4824 95.792C94.4434 95.8896 94.4531 95.9092 94.5117 95.8506C94.5898 95.7725 94.7266 95.7529 94.9219 95.792C95.3711 95.6357 95.8105 95.3818 96.2402 95.0303C96.6895 94.6592 97.1289 94.1416 97.5586 93.4775C98.1836 92.501 98.7793 91.4561 99.3457 90.3428C99.9121 89.21 100.508 88.0869 101.133 86.9736C101.699 85.9385 102.266 84.9521 102.832 84.0146C103.418 83.0576 104.033 82.2178 104.678 81.4951C105.322 80.7529 106.016 80.1475 106.758 79.6787C107.5 79.1904 108.33 78.8877 109.248 78.7705L109.277 78.7119H112.998C112.939 78.79 112.744 79.0732 112.412 79.5615C112.08 80.0303 111.65 80.6553 111.123 81.4365C110.615 82.2178 110.029 83.1357 109.365 84.1904C108.721 85.2256 108.047 86.3486 107.344 87.5596C106.973 88.1846 106.602 88.8486 106.23 89.5518C105.879 90.2549 105.557 90.9385 105.264 91.6025C104.99 92.2471 104.766 92.8428 104.59 93.3896C104.414 93.917 104.326 94.3369 104.326 94.6494C104.326 95.1572 104.531 95.4111 104.941 95.4111C105.176 95.4111 105.537 95.1963 106.025 94.7666C106.533 94.3369 107.119 93.7607 107.783 93.0381C108.447 92.2959 109.17 91.4365 109.951 90.46C110.732 89.4834 111.533 88.4482 112.354 87.3545H113.232Z" fill="#FFFCF4"/>
<path d="M129.141 87.3545H130.02C129.863 87.6084 129.648 87.9404 129.375 88.3506C129.121 88.7412 128.613 89.4541 127.852 90.4893C127.109 91.5244 126.396 92.4424 125.713 93.2432C125.049 94.0244 124.297 94.7373 123.457 95.3818C122.637 96.0264 121.943 96.3486 121.377 96.3486C120.732 96.3486 120.156 95.9873 119.648 95.2646C119.141 94.542 118.887 93.5068 118.887 92.1592C118.887 91.7295 119.004 91.1729 119.238 90.4893C116.211 94.3955 114.141 96.3486 113.027 96.3486C112.402 96.3486 111.836 95.9873 111.328 95.2646C110.82 94.542 110.566 93.5068 110.566 92.1592C110.566 91.5537 110.811 90.6748 111.299 89.5225C111.787 88.3701 112.373 87.1982 113.057 86.0068C113.76 84.7959 114.463 83.6338 115.166 82.5205C115.869 81.4072 116.465 80.499 116.953 79.7959L117.686 78.7119H121.406C121.172 79.0635 120.859 79.5225 120.469 80.0889C120.078 80.6553 119.385 81.7197 118.389 83.2822C117.393 84.8252 116.514 86.251 115.752 87.5596C114.99 88.8682 114.297 90.2158 113.672 91.6025C113.047 92.9697 112.734 93.9854 112.734 94.6494C112.734 95.1572 112.939 95.4111 113.35 95.4111C114.229 95.4111 116.631 92.8037 120.557 87.5889C121.182 86.3779 121.943 85.04 122.842 83.5752C123.76 82.0908 124.512 80.9092 125.098 80.0303L126.006 78.7119H129.727C129.492 79.0635 129.17 79.5225 128.76 80.0889C128.369 80.6553 127.676 81.7197 126.68 83.2822C125.684 84.8252 124.805 86.251 124.043 87.5596C123.301 88.8682 122.617 90.2158 121.992 91.6025C121.367 92.9697 121.055 93.9854 121.055 94.6494C121.055 95.1572 121.26 95.4111 121.67 95.4111C122.021 95.4111 122.5 95.1572 123.105 94.6494C123.711 94.1416 124.297 93.5654 124.863 92.9209C125.43 92.2764 126.055 91.5146 126.738 90.6357C127.422 89.7568 127.92 89.0928 128.232 88.6436C128.564 88.1943 128.867 87.7646 129.141 87.3545Z" fill="#FFFCF4"/>
<path d="M142.031 87.3545C140.645 89.4639 138.984 91.3584 137.051 93.0381C135.117 94.7178 133.193 96.0459 131.279 97.0225C131.65 98.0576 131.699 99.21 131.426 100.479C131.152 101.749 130.703 103.019 130.078 104.288C129.453 105.577 128.662 106.827 127.705 108.038C126.748 109.249 125.771 110.323 124.775 111.261C123.76 112.198 122.744 112.94 121.729 113.487C120.693 114.054 119.805 114.337 119.062 114.337C118.125 114.337 117.656 113.741 117.656 112.55C117.656 111.417 118.057 110.06 118.857 108.478C119.639 106.915 120.615 105.401 121.787 103.937C122.959 102.491 124.229 101.144 125.596 99.8936C126.963 98.6436 128.213 97.7158 129.346 97.1104C129.287 95.7432 128.779 94.8252 127.822 94.3564L127.764 93.7119C128.916 93.165 130.146 92.3252 131.455 91.1924C132.783 90.0596 133.965 88.8682 135 87.6182C136.035 86.3682 136.904 85.1182 137.607 83.8682C138.311 82.6182 138.662 81.5928 138.662 80.792C138.682 80.3818 138.613 80.0303 138.457 79.7373C138.301 79.4248 138.066 79.2686 137.754 79.2686C137.305 79.2686 136.797 79.4736 136.23 79.8838C135.684 80.2939 135.049 80.9287 134.326 81.7881C133.604 82.6279 132.959 83.4189 132.393 84.1611C131.826 84.9033 131.094 85.8994 130.195 87.1494C129.961 87.4814 129.785 87.7256 129.668 87.8818L128.76 87.9404C130.674 85.167 132.08 83.2432 132.979 82.1689C134.99 79.7666 136.67 78.5654 138.018 78.5654C139.561 78.5654 140.537 79.0928 140.947 80.1475C141.357 81.2021 141.113 82.667 140.215 84.542C139.688 85.6553 138.682 86.9053 137.197 88.292C135.732 89.6787 134.219 90.8994 132.656 91.9541C131.094 92.9893 129.785 93.7119 128.73 94.1221C129.766 94.6885 130.518 95.4307 130.986 96.3486C132.725 95.5088 134.502 94.3076 136.318 92.7451C138.154 91.1826 139.756 89.3857 141.123 87.3545H142.031ZM118.857 113.634C119.736 113.634 120.781 113.067 121.992 111.935C123.184 110.821 124.316 109.464 125.391 107.862C126.445 106.28 127.363 104.552 128.145 102.677C128.906 100.821 129.316 99.2002 129.375 97.8135C127.695 98.8682 126.006 100.313 124.307 102.149C122.607 104.005 121.201 105.909 120.088 107.862C118.975 109.835 118.418 111.485 118.418 112.813C118.418 113.36 118.564 113.634 118.857 113.634Z" fill="#FFFCF4"/>
<path d="M155.479 84.0439C155.205 84.0439 154.98 83.9561 154.805 83.7803C154.629 83.585 154.541 83.2725 154.541 82.8428C154.541 82.3936 154.678 81.9346 154.951 81.4658C155.244 80.9775 155.527 80.5771 155.801 80.2646C156.094 79.9326 156.24 79.7373 156.24 79.6787C156.24 79.5029 156.172 79.3271 156.035 79.1514C155.898 78.9756 155.713 78.8877 155.479 78.8877C155.107 78.8877 154.707 79.0439 154.277 79.3564C153.848 79.6689 153.408 80.0693 152.959 80.5576C152.51 81.0264 151.797 81.7393 150.82 82.6963C149.844 83.6338 148.799 84.5615 147.686 85.4795C149.326 85.5967 150.146 86.4463 150.146 88.0283C150.146 88.4971 149.922 89.2295 149.473 90.2256C149.023 91.2021 148.574 92.1396 148.125 93.0381C147.676 93.9365 147.451 94.5225 147.451 94.7959C147.451 95.3232 147.666 95.5869 148.096 95.5869C148.604 95.5869 149.229 95.2939 149.971 94.708C150.732 94.1221 151.514 93.3506 152.314 92.3936C153.115 91.4365 153.818 90.5576 154.424 89.7568C155.029 88.9561 155.596 88.1553 156.123 87.3545H157.002C156.631 87.9404 156.211 88.5557 155.742 89.2002C155.293 89.8447 154.707 90.6162 153.984 91.5146C153.281 92.4131 152.598 93.2041 151.934 93.8877C151.289 94.5518 150.605 95.1279 149.883 95.6162C149.16 96.1045 148.535 96.3486 148.008 96.3486C147.832 96.3486 147.637 96.3291 147.422 96.29C147.207 96.251 146.963 96.1729 146.689 96.0557C146.416 95.9189 146.172 95.7529 145.957 95.5576C145.762 95.3428 145.586 95.0498 145.43 94.6787C145.293 94.3076 145.225 93.8877 145.225 93.4189C145.225 92.9307 145.479 92.1885 145.986 91.1924C146.514 90.1963 147.031 89.2686 147.539 88.4092C148.047 87.5303 148.301 87.0029 148.301 86.8271C148.301 86.6123 148.223 86.4365 148.066 86.2998C147.91 86.1631 147.744 86.0947 147.568 86.0947C146.748 86.0947 145.898 86.417 145.02 87.0615L139.277 96.2021H135.85L146.777 78.624H150.615L145.752 85.9189C146.104 85.7432 146.445 85.6162 146.777 85.5381C147.148 85.167 147.656 84.6201 148.301 83.8975C148.945 83.1553 149.541 82.4912 150.088 81.9053C150.635 81.3193 151.221 80.7334 151.846 80.1475C152.471 79.542 153.096 79.0732 153.721 78.7412C154.346 78.3896 154.932 78.2139 155.479 78.2139C155.713 78.2139 155.938 78.2529 156.152 78.3311C156.367 78.4092 156.592 78.5459 156.826 78.7412C157.061 78.917 157.246 79.2002 157.383 79.5908C157.539 79.9814 157.617 80.4502 157.617 80.9971C157.617 81.6025 157.402 82.2666 156.973 82.9893C156.543 83.6924 156.045 84.0439 155.479 84.0439Z" fill="#FFFCF4"/>
<path d="M172.969 87.3545H173.848C173.691 87.6084 173.477 87.9404 173.203 88.3506C172.949 88.7412 172.441 89.4541 171.68 90.4893C170.938 91.5244 170.225 92.4424 169.541 93.2432C168.877 94.0244 168.125 94.7373 167.285 95.3818C166.465 96.0264 165.771 96.3486 165.205 96.3486C164.561 96.3486 163.984 95.9873 163.477 95.2646C162.969 94.542 162.715 93.5068 162.715 92.1592C162.715 91.7295 162.832 91.1729 163.066 90.4893C160.039 94.3955 157.969 96.3486 156.855 96.3486C156.23 96.3486 155.664 95.9873 155.156 95.2646C154.648 94.542 154.395 93.5068 154.395 92.1592C154.395 91.5537 154.639 90.6748 155.127 89.5225C155.615 88.3701 156.201 87.1982 156.885 86.0068C157.588 84.7959 158.291 83.6338 158.994 82.5205C159.697 81.4072 160.293 80.499 160.781 79.7959L161.514 78.7119H165.234C165 79.0635 164.688 79.5225 164.297 80.0889C163.906 80.6553 163.213 81.7197 162.217 83.2822C161.221 84.8252 160.342 86.251 159.58 87.5596C158.818 88.8682 158.125 90.2158 157.5 91.6025C156.875 92.9697 156.562 93.9854 156.562 94.6494C156.562 95.1572 156.768 95.4111 157.178 95.4111C158.057 95.4111 160.459 92.8037 164.385 87.5889C165.01 86.3779 165.771 85.04 166.67 83.5752C167.588 82.0908 168.34 80.9092 168.926 80.0303L169.834 78.7119H173.555C173.32 79.0635 172.998 79.5225 172.588 80.0889C172.197 80.6553 171.504 81.7197 170.508 83.2822C169.512 84.8252 168.633 86.251 167.871 87.5596C167.129 88.8682 166.445 90.2158 165.82 91.6025C165.195 92.9697 164.883 93.9854 164.883 94.6494C164.883 95.1572 165.088 95.4111 165.498 95.4111C165.85 95.4111 166.328 95.1572 166.934 94.6494C167.539 94.1416 168.125 93.5654 168.691 92.9209C169.258 92.2764 169.883 91.5146 170.566 90.6357C171.25 89.7568 171.748 89.0928 172.061 88.6436C172.393 88.1943 172.695 87.7646 172.969 87.3545Z" fill="#FFFCF4"/>
<path d="M175.547 95.5869C177.5 95.5869 180.576 92.8428 184.775 87.3545H185.684C184.766 88.5654 183.877 89.6689 183.018 90.665C182.178 91.6416 181.289 92.5791 180.352 93.4775C179.434 94.376 178.545 95.0791 177.686 95.5869C176.826 96.0947 176.055 96.3486 175.371 96.3486C174.336 96.3486 173.457 95.9775 172.734 95.2354C172.031 94.4932 171.68 93.3701 171.68 91.8662C171.68 90.5576 172.07 89.1123 172.852 87.5303C173.633 85.9287 174.6 84.4736 175.752 83.165C176.924 81.8564 178.223 80.7627 179.648 79.8838C181.074 79.0049 182.393 78.5654 183.604 78.5654C183.818 78.5654 184.033 78.6045 184.248 78.6826C184.482 78.7607 184.717 78.8975 184.951 79.0928C185.186 79.2686 185.371 79.5518 185.508 79.9424C185.664 80.3135 185.742 80.7822 185.742 81.3486C185.742 82.6377 185.215 83.8779 184.16 85.0693C183.105 86.2607 181.846 87.1299 180.381 87.6768C178.916 88.2041 177.627 88.2627 176.514 87.8525C175.146 90.3721 174.463 92.3252 174.463 93.7119C174.463 94.9619 174.824 95.5869 175.547 95.5869ZM183.428 79.1807C182.9 79.1807 181.934 80.04 180.527 81.7588C179.141 83.4775 177.871 85.3721 176.719 87.4424C177.441 87.5596 178.174 87.4424 178.916 87.0908C179.678 86.7393 180.342 86.2607 180.908 85.6553C181.494 85.0303 182.012 84.3564 182.461 83.6338C182.93 82.8916 183.281 82.1787 183.516 81.4951C183.77 80.8115 183.896 80.2451 183.896 79.7959C183.896 79.3857 183.74 79.1807 183.428 79.1807Z" fill="#FFFCF4"/>
<path d="M187.119 88.5557L201.006 60.3428H206.455L187.852 88.5557H187.119ZM184.658 96.3486C184.092 96.3486 183.672 96.1826 183.398 95.8506C183.105 95.499 182.969 95.0889 182.988 94.6201C183.027 94.0537 183.232 93.585 183.604 93.2139C183.975 92.8428 184.463 92.6572 185.068 92.6572C185.713 92.6572 186.162 92.8525 186.416 93.2432C186.67 93.6143 186.777 94.0146 186.738 94.4443C186.699 94.9521 186.494 95.4014 186.123 95.792C185.771 96.1631 185.283 96.3486 184.658 96.3486Z" fill="#FFFCF4"/>
</svg>
