<svg width="285" height="256" viewBox="0 0 285 256" fill="none" xmlns="http://www.w3.org/2000/svg">
<g clip-path="url(#clip0_79_676)">
<mask id="mask0_79_676" style="mask-type:luminance" maskUnits="userSpaceOnUse" x="0" y="0" width="285" height="256">
<path d="M284.86 0H0V255.428H284.86V0Z" fill="white"/>
</mask>
<g mask="url(#mask0_79_676)">
<path d="M109.629 121.589C108.002 119.518 105.93 116.855 103.416 113.6C100.901 110.346 98.3116 106.98 95.6487 103.504C93.0598 100.027 90.5448 96.6986 88.1038 93.518C85.6629 90.2634 83.7028 87.6375 82.2234 85.6403L79.4496 88.4142V112.602C79.4496 114.451 79.5976 115.893 79.8934 116.929C80.2633 117.89 80.818 118.63 81.5577 119.148C82.2974 119.592 83.2219 119.851 84.3314 119.925C85.5149 119.999 86.8834 120.036 88.4367 120.036V121.589H59.7V120.036C61.2533 120.036 62.5848 119.999 63.6943 119.925C64.8778 119.851 65.8394 119.592 66.5791 119.148C67.3188 118.63 67.8366 117.89 68.1324 116.929C68.5023 115.893 68.6872 114.451 68.6872 112.602V61.7855C68.6872 59.9363 68.5023 58.4939 68.1324 57.4583C67.8366 56.4227 67.3188 55.6831 66.5791 55.2392C65.9134 54.7215 64.9888 54.4256 63.8053 54.3516C62.6957 54.2777 61.3273 54.2407 59.7 54.2407V52.7983H88.4367V54.2407C86.8094 54.2407 85.4041 54.3146 84.2206 54.4626C83.1111 54.5365 82.1865 54.8324 81.4468 55.3502C80.7811 55.794 80.2633 56.5337 79.8934 57.5693C79.5976 58.5308 79.4496 59.9363 79.4496 61.7855V85.1965L101.196 63.1169C103.416 60.8978 104.525 58.9747 104.525 57.3473C104.525 56.6077 104.266 56.0529 103.748 55.6831C103.305 55.2392 102.713 54.9064 101.973 54.6845C101.233 54.4626 100.457 54.3516 99.6429 54.3516C98.9033 54.2777 98.2376 54.2407 97.6459 54.2407V52.7983H125.606V54.2407C121.612 54.2407 117.691 55.1653 113.845 57.0145C110.073 58.7897 106.781 61.0458 103.97 63.7826L89.8792 77.9846L106.189 99.6204C108.704 103.097 110.886 105.981 112.736 108.275C114.659 110.568 116.249 112.454 117.507 113.933C118.542 115.043 119.467 116.004 120.28 116.818C121.094 117.558 121.945 118.186 122.832 118.704C123.72 119.148 124.682 119.481 125.717 119.703C126.827 119.925 128.158 120.036 129.711 120.036V121.589H109.629Z" fill="#212844"/>
<path d="M221.058 146.221C220.91 147.182 220.614 148.625 220.17 150.548C219.8 152.471 219.43 154.394 219.06 156.318C218.691 158.167 218.321 159.831 217.951 161.31C217.655 162.716 217.507 163.419 217.507 163.419C216.25 164.38 214.622 165.231 212.625 165.97C210.85 166.636 208.557 167.228 205.746 167.746C202.935 168.337 199.422 168.633 195.206 168.633C189.584 168.633 184.258 167.857 179.228 166.303C174.272 164.75 169.945 162.494 166.247 159.535C162.548 156.502 159.627 152.767 157.482 148.329C155.337 143.817 154.264 138.639 154.264 132.796C154.264 127.026 155.226 121.922 157.149 117.484C159.072 112.972 161.772 109.2 165.248 106.167C168.799 103.06 173.015 100.693 177.897 99.066C182.779 97.4386 188.216 96.625 194.207 96.625C200.716 96.625 206.19 97.8455 210.628 100.286C211.22 100.508 211.701 100.619 212.07 100.619C212.884 100.619 213.55 100.249 214.068 99.5098C214.585 98.7701 214.844 97.8085 214.844 96.625H216.287L219.948 119.037L218.506 119.259C217.618 116.596 216.472 114.044 215.066 111.604C213.661 109.089 211.959 106.907 209.962 105.057C208.039 103.134 205.783 101.618 203.194 100.508C200.605 99.3248 197.647 98.7331 194.318 98.7331C189.362 98.7331 185.109 99.6577 181.558 101.507C178.082 103.282 175.197 105.723 172.904 108.83C170.685 111.862 169.058 115.413 168.022 119.481C166.987 123.475 166.469 127.692 166.469 132.13C166.469 136.42 167.061 140.636 168.244 144.778C169.502 148.921 171.351 152.619 173.792 155.874C176.233 159.054 179.228 161.643 182.779 163.64C186.403 165.564 190.546 166.525 195.206 166.525C201.271 166.525 206.338 164.713 210.406 161.089C214.474 157.464 217.544 152.471 219.615 146.11L221.058 146.221Z" fill="#212844"/>
<path d="M141.407 52.4722V183.494" stroke="#212844" stroke-miterlimit="10"/>
<path d="M144.603 52.4722V183.494" stroke="#212844" stroke-miterlimit="10"/>
<path d="M99.5114 255.428C99.5114 255.428 99.2238 255.365 99.128 255.269C98.9043 255.045 98.9043 254.693 99.128 254.502C105.743 248.047 113.86 243.349 122.616 240.952C129.071 239.163 135.143 239.195 141.566 239.227C144.123 239.227 146.743 239.227 149.395 239.131C177.805 237.884 205.287 228.393 224.781 213.086C244.626 197.491 257.728 174.674 264.918 143.389C265.717 139.938 266.42 136.295 267.027 132.556C271.565 104.977 269.776 80.4029 261.659 59.5353C252.104 34.9288 233.217 16.0425 211.103 9.01212C210.816 8.91625 210.656 8.59669 210.752 8.30908C210.848 8.02147 211.167 7.86169 211.455 7.95756C233.888 15.0839 253.062 34.2258 262.713 59.1199C270.894 80.1792 272.716 104.945 268.114 132.748C267.507 136.518 266.772 140.193 265.973 143.645C258.751 175.186 245.489 198.194 225.452 213.981C205.799 229.448 178.092 239.035 149.459 240.281C146.775 240.409 144.123 240.377 141.566 240.377C135.239 240.377 129.231 240.345 122.936 242.071C114.371 244.435 106.414 249.005 99.9588 255.333C99.863 255.429 99.7032 255.492 99.5753 255.492L99.5114 255.428Z" fill="#212844"/>
<path d="M103.762 247.727C103.506 247.727 103.282 247.567 103.218 247.311C103.154 247.024 103.346 246.704 103.634 246.64C107.628 245.713 110.057 244.914 112.613 244.052C114.531 243.412 116.512 242.741 119.26 242.006C119.548 241.911 119.868 242.102 119.932 242.39C120.027 242.677 119.836 242.997 119.548 243.061C116.832 243.796 114.85 244.467 112.965 245.106C110.377 245.969 107.916 246.8 103.857 247.727C103.825 247.727 103.762 247.727 103.73 247.727H103.762Z" fill="#212844"/>
<path d="M158.119 239.578C157.831 239.578 157.608 239.386 157.576 239.098C157.544 238.811 157.767 238.523 158.055 238.491C172.435 236.765 202.762 221.075 219.156 210.401C235.645 199.664 265.365 167.036 269.455 148.661C272.171 136.454 266.579 119.549 260.635 101.622C257.631 92.5778 254.532 83.1826 252.582 74.4266C252.518 74.139 252.71 73.8194 252.998 73.7555C253.317 73.6916 253.605 73.8833 253.669 74.1709C255.618 82.895 258.718 92.2583 261.69 101.27C267.666 119.325 273.322 136.39 270.542 148.885C266.387 167.484 236.412 200.463 219.763 211.296C203.273 222.034 172.723 237.82 158.183 239.578C158.183 239.578 158.151 239.578 158.119 239.578Z" fill="#212844"/>
<path d="M268.465 126.867C268.465 126.867 268.401 126.867 268.369 126.867C268.081 126.835 267.857 126.548 267.889 126.228C269.647 114.596 275.591 100.823 283.037 91.1078C283.228 90.8522 283.58 90.8202 283.804 91.0119C284.059 91.2037 284.091 91.5552 283.9 91.7789C276.582 101.366 270.702 114.947 268.976 126.42C268.944 126.707 268.688 126.899 268.433 126.899L268.465 126.867Z" fill="#212844"/>
<path d="M273.61 109.323C273.61 109.323 273.386 109.292 273.291 109.228C273.035 109.036 273.003 108.684 273.195 108.461C275.719 105.105 279.778 102.037 283.549 100.599C283.836 100.503 284.156 100.631 284.252 100.919C284.348 101.207 284.22 101.526 283.932 101.622C280.353 102.964 276.486 105.904 274.09 109.1C273.994 109.26 273.802 109.323 273.642 109.323H273.61Z" fill="#212844"/>
<path d="M276.454 103.603C276.454 103.603 276.454 103.603 276.39 103.603C276.07 103.603 275.847 103.315 275.879 102.996L276.518 95.9015C276.518 95.582 276.805 95.3583 277.125 95.3902C277.444 95.3902 277.668 95.6779 277.636 95.9974L276.997 103.092C276.997 103.379 276.741 103.603 276.454 103.603Z" fill="#212844"/>
<path d="M278.243 94.687C278.243 95.3262 277.732 95.8375 277.093 95.8375C276.454 95.8375 275.943 95.3262 275.943 94.687C275.943 94.0479 276.454 93.5366 277.093 93.5366C277.732 93.5366 278.243 94.0479 278.243 94.687Z" fill="#212844"/>
<path d="M284.827 91.0762C284.827 91.7153 284.315 92.2267 283.676 92.2267C283.037 92.2267 282.526 91.7153 282.526 91.0762C282.526 90.4371 283.037 89.9258 283.676 89.9258C284.315 89.9258 284.827 90.4371 284.827 91.0762Z" fill="#212844"/>
<path d="M284.859 101.109C284.859 101.749 284.348 102.26 283.709 102.26C283.07 102.26 282.559 101.749 282.559 101.109C282.559 100.47 283.07 99.959 283.709 99.959C284.348 99.959 284.859 100.47 284.859 101.109Z" fill="#212844"/>
<path d="M268.401 125.972C268.401 125.972 268.113 125.908 267.985 125.78C267.218 124.949 266.483 124.15 265.748 123.351C259.485 116.577 253.541 110.185 249.323 100.375C247.469 96.0925 246.287 92.8009 245.68 90.2764C245.616 90.0527 245.712 89.797 245.935 89.6692C246.127 89.5414 246.415 89.5733 246.575 89.7331C258.462 100.023 264.534 113.445 268.944 125.237C269.04 125.492 268.944 125.78 268.72 125.908C268.625 125.972 268.529 126.004 268.433 126.004L268.401 125.972ZM247.246 91.8103C247.917 93.9833 248.939 96.6677 250.345 99.9272C254.5 109.578 260.348 115.905 266.579 122.616C266.675 122.712 266.771 122.84 266.867 122.936C262.777 112.454 257.184 100.982 247.246 91.8103Z" fill="#212844"/>
<path d="M253.094 74.8092C252.935 74.8092 252.775 74.7453 252.647 74.5855C244.978 64.5512 243.156 52.7912 242.421 43.6836C242.421 43.428 242.549 43.2043 242.773 43.1084C242.996 43.0125 243.252 43.1084 243.412 43.3002C250.858 53.0149 254.596 64.3275 253.638 74.2979C253.638 74.5216 253.446 74.7134 253.254 74.7773C253.19 74.7773 253.158 74.7773 253.094 74.7773V74.8092ZM243.699 45.5691C244.498 53.8458 246.384 63.9121 252.647 72.7321C253.063 63.944 249.867 54.2293 243.699 45.5691Z" fill="#212844"/>
<path d="M261.339 100.408C261.083 100.408 260.892 100.248 260.828 99.9924C258.335 89.7983 258.367 79.029 260.892 68.8349C260.956 68.6112 261.147 68.4514 261.403 68.4194C261.627 68.4194 261.85 68.5792 261.914 68.8029C264.822 78.294 264.822 89.6705 261.85 99.9924C261.787 100.216 261.563 100.376 261.339 100.376V100.408ZM261.435 71.9666C259.518 81.0103 259.486 90.4374 261.371 99.4811C263.608 90.3096 263.64 80.499 261.435 71.9666Z" fill="#212844"/>
<path d="M232.067 208.355C231.875 208.355 231.683 208.259 231.588 208.068C231.46 207.844 231.492 207.588 231.683 207.397C242.581 196.276 256.194 187.967 271.086 183.429C271.341 183.365 271.597 183.429 271.725 183.685C271.853 183.909 271.821 184.196 271.629 184.356C266.037 189.853 260.061 194.199 253.925 198.513C247.853 202.795 240.535 206.086 232.227 208.291C232.195 208.291 232.131 208.291 232.099 208.291L232.067 208.355ZM269.104 185.251C255.938 189.629 243.859 197.011 233.952 206.726C241.302 204.584 247.79 201.549 253.286 197.682C258.751 193.815 264.087 189.948 269.136 185.283L269.104 185.251Z" fill="#212844"/>
<path d="M240.791 192.698C240.791 192.698 240.695 192.698 240.631 192.698C240.407 192.634 240.247 192.41 240.247 192.155C240.567 178.829 245.52 164.544 253.477 153.903C253.637 153.711 253.893 153.615 254.117 153.711C254.34 153.807 254.5 154.031 254.468 154.254C253.573 166.973 248.652 181.257 241.27 192.442C241.174 192.602 240.982 192.698 240.823 192.698H240.791ZM253.19 156.14C246.447 165.854 242.133 178.285 241.43 190.109C247.725 179.947 252.039 167.516 253.19 156.14Z" fill="#212844"/>
<path d="M263.033 164.704C263.033 164.704 262.778 164.672 262.682 164.576C262.49 164.384 262.426 164.097 262.554 163.873C263.129 162.946 263.672 161.988 264.216 161.029C265.877 158.121 267.603 155.149 270 152.848C272.237 150.739 274.889 148.981 277.382 147.415C277.957 147.064 278.66 146.617 279.459 146.457C280.418 146.265 281.376 146.521 281.92 147.16C282.687 148.023 282.559 149.237 282.079 150.1C281.824 150.547 281.504 150.931 281.153 151.25C281.6 151.41 282.047 151.634 282.431 152.017C283.198 152.784 283.422 153.935 283.006 154.797C282.559 155.692 281.568 156.172 280.034 156.267H279.842C279.012 156.331 278.149 156.395 277.637 156.875C277.318 157.194 277.158 157.674 276.998 158.217C276.838 158.76 276.647 159.303 276.263 159.783C275.368 160.933 273.835 161.029 273.004 160.997C272.524 160.997 272.045 160.901 271.566 160.837C271.022 160.773 270.511 160.709 269.968 160.677C267.731 160.677 266.005 162.243 264.312 163.745C264.024 164.001 263.736 164.289 263.449 164.512C263.353 164.608 263.225 164.64 263.097 164.64L263.033 164.704ZM270.799 153.647C268.498 155.82 266.836 158.696 265.238 161.508C266.58 160.454 268.114 159.591 269.936 159.591C270.543 159.591 271.118 159.655 271.693 159.751C272.141 159.815 272.588 159.879 273.036 159.91C273.515 159.91 274.761 159.91 275.368 159.112C275.624 158.792 275.752 158.345 275.912 157.897C276.103 157.29 276.327 156.619 276.838 156.108C277.637 155.341 278.756 155.245 279.747 155.181H279.938C281.057 155.085 281.76 154.797 282.015 154.286C282.239 153.839 282.079 153.2 281.664 152.784C281.153 152.273 280.418 152.145 279.874 152.113C279.651 152.113 279.459 151.953 279.395 151.73C279.331 151.506 279.395 151.282 279.587 151.122C280.162 150.675 280.801 150.164 281.153 149.557C281.44 149.045 281.504 148.31 281.153 147.895C280.865 147.575 280.29 147.415 279.747 147.543C279.139 147.671 278.564 148.023 278.021 148.342C275.56 149.876 273.004 151.602 270.799 153.647Z" fill="#212844"/>
<path d="M263.192 152.848C263.192 152.848 263.128 152.848 263.064 152.848C262.777 152.784 262.585 152.497 262.649 152.209C263.288 149.109 262.138 145.115 259.965 142.91L259.677 142.622C259.166 142.111 258.559 141.536 258.303 140.769C257.951 139.746 258.239 138.788 258.527 137.829C258.622 137.541 258.686 137.222 258.75 136.934C259.038 135.592 258.814 134.154 258.111 132.971C257.728 132.3 257.216 131.757 256.673 131.15C256.29 130.735 255.906 130.287 255.587 129.84C254.756 128.721 254.564 127.571 255.075 126.74C255.555 125.973 256.609 125.621 257.824 125.813C259.965 126.133 262.042 127.603 263.352 129.744C264.407 131.438 265.046 133.451 265.365 136.135C265.877 140.226 265.493 146.074 264.47 149.717C264.407 149.972 264.183 150.132 263.927 150.132C263.927 150.931 263.895 151.73 263.735 152.465C263.672 152.721 263.448 152.912 263.192 152.912V152.848ZM257.184 126.836C256.705 126.836 256.226 126.964 256.034 127.283C255.651 127.89 256.29 128.849 256.481 129.105C256.801 129.52 257.152 129.936 257.504 130.351C258.047 130.958 258.622 131.597 259.07 132.364C259.901 133.77 260.188 135.528 259.837 137.126C259.773 137.445 259.677 137.765 259.581 138.084C259.357 138.915 259.102 139.682 259.357 140.353C259.549 140.897 259.997 141.312 260.444 141.791L260.764 142.111C262.265 143.613 263.288 145.818 263.735 148.087C264.47 144.604 264.726 139.746 264.279 136.231C263.959 133.706 263.384 131.821 262.425 130.287C261.275 128.434 259.485 127.155 257.664 126.868C257.504 126.868 257.344 126.836 257.184 126.836Z" fill="#212844"/>
<path d="M269.903 100.407C269.583 100.407 269.359 100.152 269.359 99.8321C269.423 97.5313 269.583 95.2304 270.031 93.2491C269.967 93.2491 269.903 93.2811 269.839 93.313C269.519 93.345 269.264 93.1213 269.232 92.8017L269.168 92.1945C268.625 85.6754 268.049 78.9006 270.254 73.3722C270.766 72.0939 271.437 70.6878 272.779 69.9209C273.578 69.4415 274.6 69.3457 275.495 69.6652C276.198 69.9209 276.741 70.4002 276.997 71.0074C277.381 71.9022 277.189 72.9567 276.422 74.235L276.166 74.6185C275.751 75.2896 275.367 75.8967 275.335 76.5678C275.303 77.2389 275.591 77.91 275.911 78.645C276.006 78.8687 276.102 79.0924 276.198 79.3161C276.805 80.7861 276.678 82.1283 275.847 82.8952C275.623 83.087 275.399 83.2467 275.176 83.3746C274.984 83.5024 274.824 83.5983 274.696 83.7261C274.313 84.1415 274.313 84.7806 274.345 85.5796C274.345 86.1228 274.377 86.6661 274.281 87.2093C274.089 88.1041 273.514 88.8072 272.971 89.4782C272.811 89.67 272.651 89.8617 272.491 90.0854C270.702 92.5141 270.542 97.4993 270.446 99.8961C270.446 100.184 270.19 100.439 269.903 100.439V100.407ZM274.409 69.6652C274.025 69.6652 273.61 69.7611 273.29 69.9528C272.268 70.56 271.692 71.7424 271.245 72.8609C269.168 78.1337 269.711 84.7806 270.254 91.1719V91.2678C270.574 90.2132 270.989 89.2546 271.565 88.4876C271.724 88.2639 271.916 88.0402 272.076 87.8485C272.555 87.2413 273.035 86.698 273.162 86.0589C273.258 85.6754 273.226 85.1961 273.226 84.7167C273.194 83.8219 273.162 82.7993 273.897 82.0643C274.121 81.8406 274.377 81.6809 274.6 81.553C274.792 81.4572 274.952 81.3613 275.08 81.2335C275.623 80.7222 275.495 79.6676 275.144 78.8687C275.048 78.645 274.952 78.4533 274.856 78.2296C274.504 77.4307 274.121 76.5678 274.185 75.6411C274.249 74.6824 274.728 73.9154 275.176 73.1804L275.399 72.797C275.974 71.8383 276.134 71.1352 275.879 70.56C275.719 70.1446 275.335 69.9209 275.048 69.825C274.824 69.7611 274.6 69.7291 274.345 69.7291L274.409 69.6652Z" fill="#212844"/>
<path d="M269.137 83.4064C268.849 83.4064 268.594 83.1827 268.594 82.8951C268.083 76.7914 267.571 70.496 267.955 64.2645C268.402 57.266 270 51.1943 272.716 46.241C272.876 45.9854 273.196 45.8895 273.483 46.0173C273.739 46.1771 273.867 46.4967 273.707 46.7843C271.054 51.6097 269.521 57.5216 269.073 64.3603C268.69 70.496 269.201 76.7594 269.712 82.7992C269.712 83.1188 269.521 83.3744 269.201 83.4064C269.201 83.4064 269.201 83.4064 269.169 83.4064H269.137Z" fill="#212844"/>
<path d="M250.314 38.1565C250.314 38.1565 250.026 38.0926 249.898 37.9648C246.447 34.1619 240.024 30.6148 234.24 29.3046C228.743 28.0583 223.055 27.8665 217.75 27.8346C217.431 27.8346 217.207 27.5789 217.207 27.2913C217.207 26.9717 217.463 26.748 217.75 26.748C223.151 26.78 228.903 27.0037 234.463 28.25C240.439 29.5922 247.118 33.2991 250.697 37.2617C250.889 37.4854 250.889 37.8369 250.665 38.0287C250.57 38.1245 250.442 38.1565 250.282 38.1565H250.314Z" fill="#212844"/>
<path d="M165.565 237.915C165.565 237.915 165.278 237.852 165.182 237.756C164.99 237.596 164.958 237.308 165.086 237.085C172.18 223.535 184.867 212.542 199.088 207.685C199.311 207.621 199.567 207.685 199.695 207.876C199.855 208.068 199.855 208.324 199.727 208.515C196.052 214.332 191.354 219.285 184.516 224.59L184.324 224.717C178.444 229.255 172.372 233.953 165.853 237.82C165.757 237.883 165.661 237.883 165.565 237.883V237.915ZM197.905 209.282C185.219 214.076 173.906 223.791 167.067 235.774C172.851 232.131 178.348 227.913 183.653 223.823L183.844 223.695C190.044 218.933 194.422 214.427 197.905 209.282Z" fill="#212844"/>
<path d="M164.191 246.321C156.394 246.321 148.469 244.276 140.895 240.217C140.671 240.089 140.544 239.834 140.607 239.61C140.671 239.354 140.895 239.195 141.151 239.195C151.185 239.099 161.954 239.642 172.596 244.499C172.82 244.595 172.947 244.819 172.915 245.075C172.915 245.298 172.724 245.522 172.468 245.554C169.72 246.097 166.972 246.353 164.159 246.353L164.191 246.321ZM143.452 240.281C152.304 244.531 161.539 246.065 170.455 244.755C161.347 241.016 152.176 240.281 143.452 240.281Z" fill="#212844"/>
<path d="M201.164 228.266C200.973 228.266 200.749 228.138 200.653 227.946C200.525 227.659 200.653 227.339 200.909 227.211C205.574 225.006 210.24 221.395 215.161 216.186C219.412 211.712 222.224 206.759 223.31 201.838C223.374 201.55 223.662 201.359 223.981 201.422C224.269 201.486 224.461 201.774 224.397 202.094C223.246 207.207 220.338 212.352 215.96 216.985C210.943 222.29 206.182 225.965 201.388 228.234C201.324 228.266 201.228 228.298 201.164 228.298V228.266Z" fill="#212844"/>
<path d="M260.252 55.6681C260.029 55.6681 259.805 55.5084 259.741 55.2847C257.536 47.9986 258.175 39.9136 261.467 33.0749C261.563 32.8512 261.786 32.7234 262.042 32.7553C262.266 32.7553 262.457 32.9471 262.521 33.2027C264.151 40.7445 263.576 48.1903 260.796 55.3486C260.7 55.5723 260.508 55.7001 260.284 55.7001L260.252 55.6681ZM261.754 34.6727C259.422 40.361 258.942 46.8162 260.348 52.7921C262.33 46.9121 262.777 40.8084 261.754 34.6727Z" fill="#212844"/>
<path d="M249.482 37.2929C249.323 37.2929 249.163 37.229 249.035 37.0692C243.762 30.1027 238.969 17.9912 239.991 8.40423C239.991 8.18053 240.151 7.9888 240.375 7.92488C240.599 7.86097 240.822 7.92488 240.95 8.08466C247.182 15.0512 250.92 26.8431 250.026 36.7816C250.026 37.0053 249.834 37.197 249.642 37.2609C249.578 37.2609 249.546 37.2609 249.482 37.2609V37.2929ZM240.982 9.81031C240.535 18.3427 244.465 28.5368 249.003 35.1518C249.355 26.4277 246.095 16.2016 240.982 9.81031Z" fill="#212844"/>
<path d="M215.833 37.1328C215.609 37.1328 215.417 37.005 215.321 36.8133C215.225 36.5896 215.257 36.3339 215.449 36.1741C220.402 31.4446 227.145 28.5365 233.984 28.1211C234.208 28.1211 234.431 28.2489 234.527 28.4407C234.623 28.6644 234.559 28.888 234.399 29.0478C230.021 33.3939 223.95 36.0463 215.897 37.1009H215.833V37.1328ZM232.45 29.3994C227.049 30.0385 221.777 32.3074 217.59 35.7906C223.822 34.7361 228.711 32.6589 232.45 29.3994Z" fill="#212844"/>
<path d="M228.104 16.8723C228.104 16.8723 227.88 16.8404 227.784 16.7765C223.374 13.7406 220.019 9.04301 218.581 3.89802C218.517 3.67432 218.581 3.45063 218.772 3.3228C218.964 3.19498 219.188 3.16302 219.38 3.29085C224.78 6.29476 227.976 10.8006 228.647 16.2971C228.647 16.5208 228.583 16.7126 228.391 16.8404C228.295 16.9043 228.2 16.9363 228.104 16.9363V16.8723ZM220.083 4.98454C221.489 8.91519 224.045 12.4943 227.337 15.0828C226.474 10.9604 224.013 7.5091 220.083 4.98454Z" fill="#212844"/>
<path d="M209.794 9.01173C202.604 9.01173 195.765 6.23151 189.949 0.958694C189.789 0.798912 189.725 0.575217 189.789 0.351521C189.917 0.0319565 190.3 0 190.652 0C196.788 0 205.288 1.43804 211.583 8.05303C211.743 8.21281 211.775 8.43651 211.711 8.62825C211.615 8.81999 211.456 8.97977 211.232 8.97977C210.753 8.97977 210.241 9.01173 209.762 9.01173H209.794ZM191.834 0.958694C197.171 5.4326 203.339 7.73347 209.794 7.73347H209.922C204.361 2.52456 197.331 1.11848 191.834 0.958694Z" fill="#212844"/>
<path d="M220.37 21.4755C216.472 21.4755 212.509 20.6766 208.515 19.1108C208.291 19.0149 208.163 18.8231 208.163 18.5675C208.163 18.3438 208.323 18.1201 208.547 18.0562C215.928 15.8192 224.013 15.8831 231.363 18.216C231.587 18.2799 231.747 18.5036 231.747 18.7273C231.747 18.951 231.619 19.1747 231.395 19.2705C227.784 20.7405 224.077 21.4755 220.338 21.4755H220.37ZM210.56 18.6634C217.015 20.8684 223.374 20.9323 229.51 18.8231C223.374 17.1614 216.759 17.0975 210.56 18.6634Z" fill="#212844"/>
<path d="M263.959 64.6486C259.933 62.5395 256.577 59.1522 254.5 55.0938C258.718 57.2029 262.074 60.3026 263.959 64.6486Z" fill="#212844"/>
<path d="M263.959 65.1915C263.959 65.1915 263.768 65.1915 263.704 65.1276C259.581 62.9545 256.13 59.4713 253.989 55.3489C253.893 55.1252 253.925 54.8696 254.085 54.7098C254.245 54.55 254.5 54.4861 254.724 54.6139C259.326 56.9148 262.585 60.2382 264.439 64.4245C264.535 64.6482 264.471 64.9039 264.311 65.0637C264.215 65.1595 264.055 65.2234 263.927 65.2234L263.959 65.1915ZM255.97 56.5313C257.664 59.1837 259.965 61.4845 262.617 63.2102C261.083 60.5258 258.846 58.2889 255.97 56.5313Z" fill="#212844"/>
<path d="M237.34 23.1035C233.761 20.0037 231.268 15.6576 230.373 11.0239C234.176 13.8681 237.052 18.3739 237.34 23.1035Z" fill="#212844"/>
<path d="M237.34 23.6474C237.34 23.6474 237.084 23.6154 236.988 23.5196C233.313 20.3239 230.757 15.9139 229.83 11.1205C229.798 10.8968 229.894 10.6731 230.086 10.5452C230.278 10.4174 230.533 10.4494 230.725 10.5452C234.943 13.7089 237.628 18.3746 237.915 23.0402C237.915 23.2639 237.819 23.4876 237.596 23.5835C237.532 23.6154 237.436 23.6474 237.34 23.6474ZM231.268 12.4946C232.227 15.9459 234.08 19.1096 236.605 21.6661C235.998 18.3107 234.08 15.0511 231.268 12.4946Z" fill="#212844"/>
<path d="M259.741 162.69C256.514 157.641 255.139 151.41 256.002 145.466C258.878 150.707 260.38 156.746 259.741 162.69Z" fill="#212844"/>
<path d="M259.742 163.234C259.55 163.234 259.39 163.138 259.262 162.978C255.971 157.833 254.565 151.442 255.427 145.402C255.459 145.178 255.651 144.986 255.875 144.922C256.099 144.891 256.354 144.986 256.45 145.21C259.55 150.866 260.86 156.938 260.253 162.754C260.253 162.978 260.061 163.17 259.837 163.234C259.805 163.234 259.742 163.234 259.71 163.234H259.742ZM256.354 147.383C256.067 152.017 257.089 156.778 259.294 160.869C259.454 156.363 258.463 151.761 256.354 147.383Z" fill="#212844"/>
<path d="M268.242 170.232C262.49 170.36 256.897 173.428 253.67 178.189C259.038 176.655 264.12 174.003 268.242 170.232Z" fill="#212844"/>
<path d="M253.637 178.733C253.477 178.733 253.286 178.637 253.19 178.509C253.062 178.317 253.062 178.062 253.19 177.87C256.513 172.949 262.297 169.817 268.209 169.689C268.465 169.689 268.657 169.817 268.721 170.04C268.817 170.264 268.721 170.488 268.593 170.648C264.598 174.291 259.485 177.071 253.797 178.733C253.733 178.733 253.701 178.733 253.637 178.733ZM266.612 170.903C262.17 171.447 257.983 173.715 255.139 177.135C259.453 175.697 263.352 173.556 266.612 170.903Z" fill="#212844"/>
<path d="M236.637 185.156C231.428 189.662 228.52 195.893 228.84 203.179C233.697 198.258 235.678 191.994 236.637 185.156Z" fill="#212844"/>
<path d="M228.839 203.755C228.839 203.755 228.712 203.755 228.648 203.723C228.456 203.659 228.296 203.435 228.296 203.244C227.977 195.957 230.757 189.566 236.285 184.773C236.445 184.613 236.701 184.581 236.924 184.709C237.116 184.805 237.244 185.028 237.212 185.284C236.062 193.593 233.601 199.281 229.255 203.627C229.159 203.723 228.999 203.787 228.871 203.787L228.839 203.755ZM235.838 186.626C231.652 190.749 229.415 195.957 229.351 201.805C232.674 198.035 234.719 193.241 235.838 186.626Z" fill="#212844"/>
<path d="M206.087 212.062C201.709 214.331 198.386 218.582 197.267 223.407C201.837 220.946 204.617 217.048 206.087 212.062Z" fill="#212844"/>
<path d="M197.267 223.951C197.267 223.951 197.043 223.919 196.916 223.823C196.756 223.695 196.66 223.472 196.724 223.248C197.874 218.263 201.262 213.885 205.831 211.552C206.023 211.456 206.279 211.488 206.439 211.616C206.598 211.744 206.694 211.999 206.63 212.191C205.033 217.592 202.061 221.426 197.555 223.855C197.459 223.887 197.395 223.919 197.299 223.919L197.267 223.951ZM205.096 213.246C201.837 215.323 199.344 218.55 198.162 222.225C201.389 220.148 203.69 217.208 205.096 213.246Z" fill="#212844"/>
<path d="M110.504 254.15C110.344 250.571 111.878 246.96 114.531 244.595C114.435 248.238 113.284 251.849 110.504 254.15Z" fill="#212844"/>
<path d="M110.504 254.694C110.504 254.694 110.345 254.694 110.281 254.662C110.089 254.566 109.961 254.374 109.961 254.182C109.801 250.412 111.367 246.673 114.179 244.18C114.339 244.02 114.595 243.988 114.786 244.084C114.978 244.18 115.106 244.372 115.106 244.596C115.01 247.631 114.211 251.818 110.856 254.566C110.76 254.662 110.632 254.694 110.504 254.694ZM113.892 246.034C112.262 247.919 111.271 250.348 111.08 252.84C112.901 250.827 113.636 248.27 113.892 246.034Z" fill="#212844"/>
<path d="M197.458 237.181C192.185 234.561 186.017 233.794 180.265 235.072C185.538 236.957 191.961 238.332 197.458 237.181Z" fill="#212844"/>
<path d="M193.112 238.14C188.351 238.14 183.589 236.83 180.042 235.583C179.818 235.487 179.658 235.264 179.69 235.04C179.69 234.784 179.882 234.593 180.138 234.529C186.05 233.218 192.281 233.985 197.714 236.702C197.937 236.798 198.033 237.021 198.001 237.277C198.001 237.501 197.81 237.692 197.554 237.756C196.116 238.044 194.614 238.172 193.112 238.172V238.14ZM182.471 235.2C186.273 236.382 191.035 237.373 195.509 236.893C191.386 235.2 186.881 234.625 182.471 235.2Z" fill="#212844"/>
<path d="M236.414 222.289C226.827 219.765 216.345 220.627 207.302 224.718C216.793 228.009 227.722 227.306 236.414 222.289Z" fill="#212844"/>
<path d="M219.317 227.274C215.226 227.274 211.072 226.603 207.109 225.229C206.886 225.165 206.758 224.973 206.726 224.718C206.726 224.494 206.854 224.27 207.045 224.174C216.281 220.02 226.731 219.157 236.509 221.714C236.733 221.778 236.893 221.937 236.925 222.161C236.925 222.385 236.861 222.609 236.637 222.704C231.46 225.676 225.42 227.21 219.285 227.21L219.317 227.274ZM208.867 224.654C217.623 227.274 227.146 226.507 234.88 222.513C226.219 220.531 217.08 221.298 208.867 224.654Z" fill="#212844"/>
<path d="M185.316 255.428C185.316 255.428 185.028 255.365 184.932 255.269C178.477 248.941 170.52 244.34 161.956 242.007C155.628 240.281 149.652 240.313 143.325 240.313C140.768 240.313 138.116 240.313 135.432 240.217C106.799 238.971 79.0923 229.384 59.4391 213.917C39.4024 198.162 26.1404 175.154 18.9183 143.581C18.1194 140.129 17.4163 136.454 16.7772 132.684C12.2074 104.913 14.0289 80.1152 22.1778 59.0559C31.8287 34.1618 51.0026 15.0199 73.436 7.89359C73.7236 7.79772 74.0432 7.95751 74.1391 8.24511C74.2349 8.53272 74.0752 8.85229 73.7875 8.94816C51.6737 15.9786 32.7554 34.8649 23.2324 59.4713C15.1474 80.3389 13.3259 104.913 17.8637 132.492C18.4709 136.231 19.2059 139.874 19.9728 143.325C27.1311 174.611 40.2652 197.427 60.1102 213.022C79.6036 228.329 107.054 237.852 135.496 239.067C138.148 239.195 140.768 239.163 143.325 239.163C149.748 239.163 155.788 239.131 162.275 240.888C171.031 243.285 179.148 247.983 185.731 254.438C185.955 254.661 185.955 255.013 185.731 255.205C185.635 255.301 185.476 255.365 185.348 255.365L185.316 255.428Z" fill="#212844"/>
<path d="M181.097 247.727C181.097 247.727 181.001 247.727 180.969 247.727C176.911 246.8 174.45 245.969 171.862 245.106C169.976 244.467 167.995 243.796 165.279 243.061C164.991 242.997 164.799 242.677 164.895 242.39C164.959 242.102 165.279 241.911 165.566 242.006C168.315 242.773 170.296 243.412 172.213 244.052C174.77 244.914 177.199 245.713 181.193 246.64C181.481 246.704 181.672 246.992 181.609 247.311C181.545 247.567 181.321 247.727 181.065 247.727H181.097Z" fill="#212844"/>
<path d="M126.739 239.578C126.739 239.578 126.707 239.578 126.675 239.578C112.135 237.852 81.5841 222.034 65.0946 211.296C48.4453 200.463 18.4701 167.484 14.3158 148.885C11.5355 136.39 17.1918 119.325 23.1677 101.27C26.1716 92.2263 29.2394 82.895 31.1888 74.1709C31.2527 73.8833 31.5403 73.6916 31.8599 73.7555C32.1475 73.8194 32.3392 74.107 32.2753 74.4266C30.294 83.2146 27.1942 92.5778 24.2223 101.622C18.2784 119.549 12.686 136.454 15.4023 148.661C17.2558 157.034 24.6057 169.082 36.1101 182.567C46.0485 194.231 57.6487 205.16 65.7018 210.401C82.0954 221.075 112.454 236.797 126.803 238.491C127.122 238.523 127.314 238.811 127.282 239.098C127.25 239.386 126.994 239.578 126.739 239.578Z" fill="#212844"/>
<path d="M16.3617 126.867C16.106 126.867 15.8504 126.676 15.8184 126.388C14.0928 114.916 8.24477 101.334 0.894782 91.7472C0.703043 91.4915 0.766956 91.172 0.990651 90.9802C1.24631 90.7885 1.56587 90.8524 1.75761 91.0761C9.20347 100.791 15.1474 114.596 16.905 126.196C16.9369 126.484 16.7452 126.771 16.4256 126.835C16.4256 126.835 16.3617 126.835 16.3297 126.835L16.3617 126.867Z" fill="#212844"/>
<path d="M11.2475 109.323C11.0877 109.323 10.9279 109.26 10.8001 109.1C8.37139 105.904 4.50465 102.964 0.957485 101.622C0.669876 101.526 0.54205 101.207 0.63792 100.919C0.733789 100.631 1.05335 100.503 1.34096 100.599C5.07987 102.005 9.13834 105.073 11.6949 108.461C11.8866 108.716 11.8227 109.036 11.599 109.228C11.5032 109.292 11.3753 109.323 11.2795 109.323H11.2475Z" fill="#212844"/>
<path d="M8.37209 103.188C8.08448 103.188 7.86078 102.965 7.82883 102.677L7.1897 95.5829C7.1897 95.2633 7.38144 95.0076 7.701 94.9757C8.02057 94.9118 8.27622 95.1674 8.30817 95.487L8.9473 102.581C8.9473 102.901 8.75556 103.157 8.436 103.188C8.436 103.188 8.40404 103.188 8.37209 103.188Z" fill="#212844"/>
<path d="M6.61401 94.687C6.61401 95.3262 7.12531 95.8375 7.76444 95.8375C8.40357 95.8375 8.91487 95.3262 8.91487 94.687C8.91487 94.0479 8.40357 93.5366 7.76444 93.5366C7.12531 93.5366 6.61401 94.0479 6.61401 94.687Z" fill="#212844"/>
<path d="M-0.000488281 91.0762C-0.000488281 91.7153 0.510816 92.2267 1.14994 92.2267C1.78907 92.2267 2.30037 91.7153 2.30037 91.0762C2.30037 90.4371 1.78907 89.9258 1.14994 89.9258C0.510816 89.9258 -0.000488281 90.469 -0.000488281 91.0762Z" fill="#212844"/>
<path d="M-0.000488281 101.111C-0.000488281 101.75 0.510816 102.262 1.14994 102.262C1.78907 102.262 2.30037 101.75 2.30037 101.111C2.30037 100.472 1.78907 99.9609 1.14994 99.9609C0.510816 99.9609 -0.000488281 100.472 -0.000488281 101.111Z" fill="#212844"/>
<path d="M16.4575 125.972C16.4575 125.972 16.2657 125.972 16.1699 125.877C15.9462 125.749 15.8503 125.461 15.9462 125.206C20.3242 113.414 26.4279 99.9919 38.3157 89.7019C38.5075 89.5421 38.7631 89.5101 38.9548 89.638C39.1466 89.7658 39.2744 90.0214 39.2105 90.2451C38.6033 92.7697 37.389 96.0612 35.5675 100.343C31.3492 110.154 25.4053 116.545 19.1418 123.32C18.4068 124.119 17.6399 124.918 16.9049 125.749C16.809 125.877 16.6492 125.941 16.4894 125.941L16.4575 125.972ZM37.6127 91.811C27.7062 100.983 22.0818 112.455 17.9914 122.937C18.0873 122.841 18.1831 122.713 18.311 122.617C24.5105 115.906 30.3586 109.579 34.5129 99.9279C35.919 96.6684 36.9416 93.984 37.6127 91.811Z" fill="#212844"/>
<path d="M31.7639 74.8105C31.7639 74.8105 31.668 74.8105 31.6041 74.8105C31.3804 74.7466 31.2206 74.5549 31.2206 74.3312C30.2619 64.3607 34.0008 53.0482 41.4467 43.3334C41.6065 43.1416 41.8621 43.0777 42.0858 43.1416C42.3095 43.2375 42.4693 43.4612 42.4373 43.7169C41.7023 52.8245 39.9128 64.5844 32.2112 74.6188C32.1154 74.7466 31.9556 74.8425 31.7639 74.8425V74.8105ZM41.1271 45.5703C34.9595 54.1986 31.7639 63.9453 32.1793 72.7333C38.4428 63.9134 40.3282 53.8471 41.1271 45.5703Z" fill="#212844"/>
<path d="M23.52 103.603C23.2643 103.603 23.0406 103.443 22.9767 103.188C19.9089 92.4821 19.8769 80.6582 22.9128 70.8156C22.9767 70.5919 23.2004 70.4321 23.4561 70.4321C23.7117 70.4321 23.9034 70.6239 23.9674 70.8476C26.5878 81.4252 26.5878 92.6099 24.0313 103.188C23.9674 103.443 23.7437 103.603 23.52 103.603ZM23.4241 71.966C21.2191 80.4984 21.2511 90.309 23.488 99.4806C25.3734 90.4369 25.3415 81.0097 23.4241 71.966Z" fill="#212844"/>
<path d="M52.7923 208.357C52.7923 208.357 52.6964 208.357 52.6645 208.357C44.3558 206.152 37.0377 202.86 30.966 198.578C24.8304 194.232 18.8226 189.886 13.2621 184.421C13.0704 184.23 13.0384 183.974 13.1663 183.75C13.2941 183.526 13.5497 183.431 13.8054 183.495C28.6971 188.032 42.3106 196.309 53.2077 207.462C53.3675 207.654 53.4314 207.909 53.3036 208.133C53.2077 208.293 53.016 208.421 52.8242 208.421L52.7923 208.357ZM15.7228 185.252C20.7399 189.918 26.0767 193.785 31.5732 197.651C37.0378 201.518 43.5569 204.554 50.9069 206.695C40.9684 197.012 28.8888 189.63 15.7547 185.22L15.7228 185.252Z" fill="#212844"/>
<path d="M44.0349 192.698C43.8431 192.698 43.6833 192.602 43.5875 192.442C36.2055 181.257 31.2523 166.973 30.3894 154.254C30.3894 153.999 30.5173 153.775 30.741 153.711C30.9647 153.615 31.2203 153.711 31.3801 153.903C39.3373 164.544 44.2905 178.829 44.6101 192.155C44.6101 192.41 44.4503 192.634 44.2266 192.698C44.1627 192.698 44.1307 192.698 44.0668 192.698H44.0349ZM31.6357 156.14C32.7862 167.516 37.1003 179.915 43.3957 190.109C42.6927 178.285 38.3786 165.854 31.6357 156.14Z" fill="#212844"/>
<path d="M21.825 164.704C21.825 164.704 21.5694 164.672 21.4735 164.576C21.1859 164.321 20.8983 164.065 20.6107 163.809C18.917 162.307 17.1913 160.741 14.9544 160.741C14.4431 160.741 13.8998 160.805 13.3246 160.901C12.8453 160.965 12.3659 161.029 11.8866 161.061C11.0557 161.061 9.52178 160.965 8.627 159.847C8.24352 159.367 8.08374 158.824 7.892 158.281C7.73222 157.769 7.57244 157.258 7.25288 156.939C6.74158 156.459 5.87874 156.395 5.04787 156.331H4.85613C3.29027 156.236 2.33157 155.756 1.88418 154.861C1.43679 153.999 1.69245 152.816 2.42745 152.081C2.81093 151.698 3.25832 151.474 3.70571 151.314C3.35419 150.995 3.00266 150.611 2.77896 150.164C2.29962 149.301 2.17179 148.087 2.93875 147.224C3.48201 146.585 4.44071 146.329 5.39939 146.521C6.19831 146.681 6.90135 147.128 7.47657 147.479C9.96917 149.045 12.6216 150.803 14.8585 152.912C17.2872 155.181 18.9809 158.185 20.6426 161.093C21.1859 162.052 21.7292 163.01 22.3044 163.937C22.4322 164.161 22.4002 164.48 22.1766 164.64C22.0807 164.736 21.9529 164.768 21.825 164.768V164.704ZM14.8585 161.125H14.9224C16.7759 161.125 18.2779 161.988 19.62 163.042C18.0222 160.23 16.3285 157.322 14.0596 155.181C11.8866 153.136 9.29809 151.41 6.83745 149.876C6.32614 149.557 5.71896 149.173 5.11179 149.077C4.53657 148.949 3.99332 149.077 3.70571 149.429C3.32223 149.844 3.4181 150.611 3.70571 151.091C4.05723 151.73 4.69635 152.209 5.27157 152.656C5.46331 152.784 5.52723 153.04 5.46332 153.264C5.3994 153.487 5.20766 153.647 4.98396 153.647C4.4407 153.679 3.7057 153.839 3.1944 154.318C2.77896 154.734 2.61918 155.373 2.84288 155.82C3.09853 156.331 3.80157 156.619 4.92005 156.683H5.11179C6.10244 156.747 7.22092 156.843 8.01984 157.61C8.53114 158.121 8.75482 158.792 8.94656 159.399C9.10635 159.847 9.23418 160.294 9.48983 160.614C10.097 161.412 11.3433 161.444 11.8227 161.412C12.27 161.412 12.7174 161.317 13.1648 161.253C13.7081 161.189 14.2833 161.093 14.8905 161.093L14.8585 161.125Z" fill="#212844"/>
<path d="M21.6656 154.318C21.41 154.318 21.1863 154.126 21.1224 153.87C20.9626 153.135 20.8987 152.336 20.9306 151.537C20.675 151.537 20.4513 151.378 20.3874 151.122C19.3648 147.479 18.9813 141.663 19.4926 137.54C19.8121 134.856 20.4513 132.811 21.5058 131.149C22.848 128.976 24.8613 127.57 27.0343 127.218C28.2487 127.027 29.3032 127.378 29.7826 128.145C30.2939 128.976 30.1341 130.095 29.2713 131.245C28.9197 131.692 28.5682 132.14 28.1847 132.555C27.6415 133.162 27.1302 133.738 26.7467 134.377C26.0437 135.559 25.82 136.997 26.1076 138.339C26.1715 138.627 26.2674 138.915 26.3313 139.234C26.6189 140.193 26.9065 141.151 26.555 142.174C26.2993 142.973 25.6921 143.548 25.1808 144.028L24.8932 144.315C22.7202 146.52 21.5698 150.515 22.2089 153.614C22.2728 153.902 22.0811 154.222 21.7934 154.254C21.7615 154.254 21.7295 154.254 21.6656 154.254V154.318ZM27.6734 126.835C27.5137 126.835 27.3539 126.835 27.1941 126.867C25.3726 127.155 23.583 128.433 22.4326 130.286C21.4739 131.82 20.8987 133.706 20.5791 136.23C20.1637 139.745 20.3874 144.571 21.1224 148.086C21.5378 145.817 22.5924 143.612 24.0943 142.11L24.4139 141.791C24.8932 141.343 25.3406 140.896 25.5004 140.353C25.7241 139.681 25.5004 138.883 25.2767 138.084C25.1808 137.764 25.085 137.445 25.0211 137.125C24.6695 135.527 24.9571 133.801 25.788 132.363C26.2354 131.596 26.8106 130.957 27.3539 130.35C27.7054 129.967 28.0569 129.551 28.3765 129.136C28.5682 128.848 29.2073 127.921 28.8239 127.314C28.6002 126.963 28.1208 126.867 27.6734 126.867V126.835Z" fill="#212844"/>
<path d="M14.9556 100.407C14.668 100.407 14.4123 100.183 14.4123 99.8636C14.3484 97.4668 14.1886 92.4816 12.3671 90.0529C12.2073 89.8612 12.0476 89.6375 11.8878 89.4458C11.3445 88.7747 10.7693 88.1036 10.5776 87.1768C10.4497 86.6336 10.4817 86.0903 10.5137 85.5471C10.5137 84.7801 10.5776 84.109 10.1621 83.6936C10.0343 83.5658 9.87452 83.4699 9.68278 83.3421C9.45909 83.2142 9.23539 83.0864 9.0117 82.8627C8.21279 82.0958 8.08496 80.7536 8.66018 79.2836C8.75605 79.0599 8.85192 78.8362 8.94778 78.6125C9.26735 77.9095 9.58691 77.2064 9.523 76.5353C9.49104 75.8643 9.10757 75.2251 8.69213 74.586L8.43648 74.2025C7.70148 72.9243 7.50974 71.9016 7.86126 70.9749C8.11692 70.3358 8.66018 69.8564 9.36322 69.6327C10.226 69.3451 11.2806 69.441 12.0795 69.8884C13.3897 70.6554 14.0928 72.0614 14.6041 73.3397C16.7771 78.8682 16.2339 85.611 15.6906 92.1621L15.6267 92.7692C15.6267 93.0568 15.371 93.3125 15.0195 93.2805C14.9556 93.2805 14.8917 93.2805 14.8278 93.2166C15.2752 95.1979 15.403 97.4988 15.4989 99.7997C15.4989 100.119 15.2752 100.375 14.9556 100.375V100.407ZM10.4497 69.6647C10.226 69.6647 9.97039 69.6967 9.7467 69.7606C9.45909 69.8564 9.07561 70.0482 8.91583 70.4956C8.69213 71.0708 8.85192 71.7738 9.39518 72.7325L9.61887 73.116C10.0663 73.851 10.5456 74.6499 10.6095 75.5766C10.6734 76.5353 10.29 77.3662 9.93844 78.1651C9.84257 78.3888 9.7467 78.5806 9.65083 78.8042C9.33126 79.6032 9.17148 80.6258 9.7467 81.169C9.87452 81.2969 10.0343 81.3927 10.226 81.4886C10.4497 81.6164 10.7054 81.7762 10.9291 81.9999C11.6641 82.7349 11.6321 83.7575 11.6002 84.6523C11.6002 85.1316 11.5682 85.579 11.6641 85.9945C11.8239 86.6336 12.2713 87.2088 12.7506 87.784C12.9104 88.0077 13.1021 88.1995 13.2619 88.4231C13.8371 89.1901 14.2526 90.1488 14.5721 91.2034V91.1075C15.1154 84.6842 15.6586 78.0693 13.5815 72.7964C13.1341 71.7099 12.5589 70.4956 11.5363 69.8884C11.2167 69.6967 10.8332 69.6008 10.4178 69.6008L10.4497 69.6647Z" fill="#212844"/>
<path d="M15.7223 84.4304C15.7223 84.4304 15.7223 84.4304 15.6904 84.4304C15.3708 84.4304 15.1471 84.1428 15.1791 83.8232C15.6904 77.7835 16.2017 71.52 15.8182 65.3843C15.4028 58.5457 13.8369 52.6337 11.1845 47.8083C11.0247 47.5526 11.1526 47.2011 11.4082 47.0413C11.6639 46.8815 12.0154 46.9774 12.1752 47.265C14.8915 52.2183 16.4893 58.29 16.9367 65.2885C17.3202 71.52 16.8088 77.8154 16.2975 83.9191C16.2975 84.2067 16.0419 84.4304 15.7543 84.4304H15.7223Z" fill="#212844"/>
<path d="M34.5446 38.1565C34.5446 38.1565 34.289 38.1245 34.1611 38.0287C33.9375 37.8369 33.9055 37.4854 34.1292 37.2617C37.7083 33.2991 44.3872 29.5922 50.3631 28.25C55.9555 27.0037 61.7076 26.78 67.0763 26.748C67.3959 26.748 67.6196 27.0037 67.6196 27.2913C67.6196 27.6109 67.3639 27.8346 67.0763 27.8346C61.7396 27.8665 56.0833 28.0902 50.5868 29.3046C44.8027 30.6148 38.3794 34.1619 34.9281 37.9648C34.8322 38.0926 34.6725 38.1565 34.5127 38.1565H34.5446Z" fill="#212844"/>
<path d="M119.261 237.917C119.261 237.917 119.069 237.917 118.973 237.853C112.486 233.954 106.383 229.256 100.503 224.751L100.311 224.623C93.472 219.35 88.7744 214.397 85.0994 208.549C84.9716 208.357 85.0036 208.101 85.1314 207.91C85.2912 207.718 85.5149 207.654 85.7386 207.718C99.9272 212.575 112.646 223.568 119.74 237.118C119.868 237.341 119.804 237.597 119.644 237.789C119.549 237.885 119.389 237.949 119.261 237.949V237.917ZM86.9529 209.284C90.4362 214.429 94.8142 218.903 101.014 223.696L101.206 223.824C106.51 227.914 112.007 232.165 117.791 235.776C110.952 223.792 99.6396 214.045 86.9529 209.284Z" fill="#212844"/>
<path d="M120.667 246.321C117.887 246.321 115.107 246.066 112.359 245.522C112.135 245.49 111.943 245.299 111.911 245.043C111.911 244.819 112.007 244.564 112.231 244.468C122.872 239.642 133.642 239.067 143.676 239.163C143.932 239.163 144.155 239.355 144.219 239.578C144.283 239.834 144.155 240.09 143.932 240.186C136.358 244.212 128.433 246.289 120.635 246.289L120.667 246.321ZM114.404 244.755C123.32 246.066 132.555 244.532 141.407 240.282C132.683 240.282 123.511 241.017 114.404 244.755Z" fill="#212844"/>
<path d="M83.662 228.265C83.662 228.265 83.5021 228.265 83.4382 228.201C78.6447 225.932 73.8832 222.257 68.866 216.953C64.488 212.351 61.5799 207.174 60.4295 202.061C60.3656 201.773 60.5573 201.454 60.845 201.39C61.1645 201.326 61.4522 201.518 61.5161 201.805C62.6027 206.726 65.4148 211.68 69.665 216.154C74.5863 221.363 79.252 224.942 83.9176 227.179C84.2052 227.306 84.3011 227.626 84.1733 227.914C84.0774 228.105 83.8857 228.233 83.662 228.233V228.265Z" fill="#212844"/>
<path d="M24.5744 55.6689C24.3507 55.6689 24.127 55.541 24.0631 55.3173C21.3148 48.1591 20.7396 40.7132 22.3375 33.1715C22.4014 32.9478 22.5931 32.7561 22.8168 32.7241C23.0405 32.7241 23.2642 32.82 23.392 33.0437C26.6835 39.8824 27.2907 47.9993 25.1177 55.2534C25.0538 55.4771 24.8301 55.6369 24.6064 55.6369L24.5744 55.6689ZM23.1044 34.6735C22.0498 40.8411 22.5292 46.9128 24.5105 52.7928C25.9166 46.8169 25.4372 40.3617 23.1044 34.6735Z" fill="#212844"/>
<path d="M35.3755 37.2936C35.3755 37.2936 35.2796 37.2936 35.2157 37.2936C34.992 37.2297 34.8322 37.038 34.8322 36.8143C33.9375 26.8758 37.6764 15.0519 43.9079 8.11738C44.0677 7.9576 44.2914 7.89368 44.4831 7.9576C44.6748 8.02151 44.8346 8.21325 44.8666 8.43694C45.8892 18.0558 41.0957 30.1354 35.8229 37.1019C35.727 37.2297 35.5672 37.3256 35.3755 37.3256V37.2936ZM43.8759 9.81107C38.7309 16.2024 35.5033 26.3965 35.8549 35.1526C40.3927 28.5695 44.3233 18.3435 43.8759 9.81107Z" fill="#212844"/>
<path d="M68.9942 37.1336C68.9942 37.1336 68.9622 37.1336 68.9302 37.1336C60.8772 36.079 54.8055 33.4586 50.4274 29.0805C50.2677 28.9207 50.2038 28.6651 50.2996 28.4733C50.3955 28.2497 50.5872 28.1218 50.8429 28.1538C57.6816 28.5373 64.4244 31.4773 69.3776 36.2068C69.5374 36.3666 69.6013 36.6222 69.5055 36.8459C69.4096 37.0377 69.2179 37.1655 68.9942 37.1655V37.1336ZM52.3768 29.4001C56.1157 32.6277 61.005 34.7368 67.2366 35.7914C63.0503 32.3081 57.7774 30.0392 52.3768 29.4001Z" fill="#212844"/>
<path d="M56.7534 16.8734C56.7534 16.8734 56.5617 16.8734 56.4658 16.7775C56.2741 16.6497 56.1782 16.458 56.2101 16.2343C56.8812 10.7378 60.0769 6.23191 65.4775 3.228C65.6693 3.13214 65.9249 3.13214 66.0847 3.25996C66.2445 3.38779 66.3403 3.64344 66.2764 3.83518C64.8384 8.98017 61.483 13.6778 57.073 16.7136C56.9771 16.7775 56.8812 16.8095 56.7534 16.8095V16.8734ZM64.7745 4.98561C60.8758 7.51017 58.3832 10.9615 57.5204 15.0839C60.8119 12.4954 63.3684 8.91626 64.7745 4.98561Z" fill="#212844"/>
<path d="M75.0334 9.01235C74.5541 9.01235 74.0428 9.01235 73.5634 8.98039C73.3397 8.98039 73.148 8.82061 73.0841 8.62887C73.0202 8.43713 73.0521 8.21344 73.2119 8.05366C79.6351 1.31084 88.2953 -0.0632886 94.5269 0.000624303C94.7506 0.000624303 94.9423 0.12845 95.0382 0.352146C95.134 0.575841 95.0382 0.799536 94.8784 0.959319C89.0623 6.23214 82.2556 9.01235 75.0334 9.01235ZM74.9056 7.73409H75.0334C81.4886 7.73409 87.6562 5.40127 92.993 0.959319C87.4964 1.1191 80.4341 2.55714 74.9056 7.73409Z" fill="#212844"/>
<path d="M64.4561 21.4755C60.6852 21.4755 57.0102 20.7405 53.3992 19.2705C53.1755 19.1747 53.0476 18.9829 53.0476 18.7273C53.0476 18.5036 53.2074 18.2799 53.4311 18.216C60.7811 15.8831 68.8661 15.8192 76.248 18.0562C76.4717 18.1201 76.6315 18.3438 76.6315 18.5675C76.6315 18.7912 76.5037 19.0149 76.28 19.1108C72.2854 20.7086 68.3228 21.4755 64.4561 21.4755ZM55.3485 18.8231C61.4522 20.9323 67.8115 20.9003 74.2987 18.6634C68.1311 17.0975 61.5161 17.1614 55.3485 18.8231Z" fill="#212844"/>
<path d="M20.8994 64.6486C24.9259 62.5395 28.2814 59.1522 30.3585 55.0938C26.1403 57.2029 22.7849 60.3026 20.8994 64.6486Z" fill="#212844"/>
<path d="M20.8983 65.1923C20.8983 65.1923 20.6107 65.1284 20.5149 65.0325C20.3551 64.8727 20.2912 64.6171 20.387 64.3934C22.2405 60.2071 25.5001 56.8836 30.1018 54.5827C30.3255 54.4869 30.5812 54.5188 30.7409 54.6786C30.9007 54.8384 30.9646 55.094 30.8368 55.3177C28.6957 59.4401 25.2444 62.9234 21.122 65.0964C21.0262 65.1284 20.9623 65.1603 20.8664 65.1603L20.8983 65.1923ZM28.8875 56.5321C26.0114 58.2897 23.7744 60.5266 22.2405 63.211C24.8929 61.4853 27.1938 59.2164 28.8875 56.5321Z" fill="#212844"/>
<path d="M47.519 23.1049C51.0982 20.0052 53.5908 15.6591 54.4855 11.0254C50.6827 13.8695 47.8066 18.3754 47.519 23.1049Z" fill="#212844"/>
<path d="M47.5184 23.6478C47.5184 23.6478 47.3586 23.6478 47.2627 23.5839C47.071 23.4881 46.9431 23.2644 46.9431 23.0407C47.2308 18.375 49.9471 13.7094 54.1334 10.5457C54.3251 10.4179 54.5488 10.3859 54.7725 10.5457C54.9642 10.6735 55.0601 10.8972 55.0281 11.1209C54.1014 15.9144 51.5449 20.3244 47.8699 23.52C47.774 23.6159 47.6462 23.6478 47.5184 23.6478ZM53.5901 12.495C50.7779 15.0196 48.8605 18.3111 48.2534 21.6665C50.7779 19.142 52.6314 15.9463 53.5901 12.495Z" fill="#212844"/>
<path d="M25.1157 162.69C28.3433 157.641 29.7174 151.41 28.8546 145.466C25.9785 150.707 24.4766 156.746 25.1157 162.69Z" fill="#212844"/>
<path d="M25.1164 163.234C25.1164 163.234 25.0206 163.234 24.9886 163.234C24.7649 163.17 24.6051 162.978 24.5732 162.754C23.966 156.938 25.2762 150.866 28.376 145.21C28.5038 144.986 28.7275 144.891 28.9512 144.922C29.1749 144.954 29.3667 145.146 29.3986 145.402C30.2614 151.442 28.8554 157.865 25.5638 162.978C25.468 163.138 25.2762 163.234 25.0845 163.234H25.1164ZM28.4719 147.383C26.3628 151.793 25.3721 156.395 25.5319 160.869C27.7369 156.778 28.7914 152.017 28.4719 147.383Z" fill="#212844"/>
<path d="M16.6172 170.232C22.3694 170.36 27.9618 173.428 31.1894 178.189C25.8207 176.655 20.7396 174.003 16.6172 170.232Z" fill="#212844"/>
<path d="M31.189 178.733C31.189 178.733 31.0932 178.733 31.0292 178.733C25.341 177.103 20.196 174.291 16.2334 170.648C16.0736 170.488 16.0097 170.232 16.1056 170.04C16.2014 169.817 16.4251 169.721 16.6169 169.689C22.5608 169.817 28.3129 172.98 31.6364 177.87C31.7642 178.062 31.7642 178.317 31.6364 178.509C31.5405 178.669 31.3488 178.733 31.189 178.733ZM18.2467 170.903C21.5062 173.556 25.4049 175.697 29.719 177.135C26.8429 173.715 22.6566 171.447 18.2467 170.903Z" fill="#212844"/>
<path d="M48.2214 185.156C53.4303 189.662 56.3383 195.893 56.0187 203.179C51.1614 198.258 49.1801 191.994 48.2214 185.156Z" fill="#212844"/>
<path d="M56.0191 203.754C56.0191 203.754 55.7315 203.69 55.6357 203.594C51.2896 199.216 48.8289 193.56 47.6785 185.251C47.6466 185.028 47.7744 184.804 47.9661 184.676C48.1579 184.58 48.4135 184.58 48.6052 184.74C54.1657 189.534 56.9139 195.925 56.5944 203.211C56.5944 203.435 56.4346 203.626 56.2428 203.69C56.1789 203.69 56.115 203.722 56.0511 203.722L56.0191 203.754ZM48.9887 186.626C50.1072 193.273 52.1524 198.034 55.4759 201.805C55.412 195.925 53.175 190.748 48.9887 186.626Z" fill="#212844"/>
<path d="M78.772 212.064C83.15 214.333 86.4735 218.583 87.592 223.409C83.0222 220.948 80.242 217.049 78.772 212.064Z" fill="#212844"/>
<path d="M87.5918 223.951C87.5918 223.951 87.4001 223.951 87.3362 223.887C82.8303 221.459 79.8584 217.624 78.2605 212.223C78.1966 212 78.2605 211.776 78.4523 211.648C78.6121 211.52 78.8677 211.488 79.0595 211.584C83.5973 213.917 87.0166 218.295 88.167 223.28C88.231 223.504 88.167 223.728 87.9753 223.855C87.8794 223.919 87.7516 223.983 87.6238 223.983L87.5918 223.951ZM79.7625 213.246C81.1686 217.208 83.4694 220.148 86.697 222.226C85.5147 218.551 83.0221 215.323 79.7625 213.246Z" fill="#212844"/>
<path d="M174.355 254.15C174.515 250.571 172.981 246.96 170.329 244.595C170.424 248.238 171.575 251.849 174.355 254.15Z" fill="#212844"/>
<path d="M174.354 254.694C174.354 254.694 174.099 254.662 174.003 254.566C170.648 251.786 169.849 247.599 169.753 244.596C169.753 244.372 169.881 244.18 170.072 244.084C170.264 243.988 170.52 244.02 170.679 244.18C173.492 246.673 175.058 250.412 174.898 254.182C174.898 254.406 174.77 254.566 174.578 254.662C174.514 254.662 174.418 254.694 174.354 254.694ZM170.967 246.034C171.223 248.27 171.958 250.827 173.779 252.84C173.588 250.348 172.597 247.919 170.967 246.034Z" fill="#212844"/>
<path d="M87.4009 237.181C92.6737 234.561 98.8413 233.794 104.594 235.072C99.3207 236.957 92.8974 238.332 87.4009 237.181Z" fill="#212844"/>
<path d="M91.7142 238.14C90.2123 238.14 88.7423 238.012 87.2723 237.725C87.0486 237.693 86.8569 237.501 86.825 237.245C86.825 237.022 86.9207 236.798 87.1125 236.67C92.5451 233.986 98.7767 233.187 104.689 234.497C104.944 234.561 105.104 234.753 105.136 235.009C105.136 235.264 105.008 235.488 104.785 235.552C101.269 236.83 96.4757 238.108 91.7142 238.108V238.14ZM89.3176 236.894C93.7915 237.373 98.553 236.383 102.356 235.2C97.9458 234.625 93.44 235.2 89.3176 236.894Z" fill="#212844"/>
<path d="M48.446 222.291C58.033 219.766 68.5147 220.629 77.5584 224.719C68.0673 228.011 57.1382 227.308 48.446 222.291Z" fill="#212844"/>
<path d="M65.5431 227.276C59.3755 227.276 53.3357 225.742 48.1907 222.77C47.999 222.642 47.9031 222.45 47.9031 222.226C47.9031 222.003 48.0948 221.811 48.3185 221.779C58.0972 219.191 68.5789 220.085 77.7824 224.24C77.9741 224.336 78.1339 224.527 78.102 224.783C78.102 225.007 77.9422 225.198 77.7185 225.294C73.7559 226.668 69.6335 227.339 65.5111 227.339L65.5431 227.276ZM49.9483 222.482C57.6818 226.477 67.2048 227.276 75.9609 224.623C67.7481 221.236 58.6085 220.501 49.9483 222.482Z" fill="#212844"/>
</g>
</g>
<defs>
<clipPath id="clip0_79_676">
<rect width="285" height="256" fill="white"/>
</clipPath>
</defs>
</svg>
