<svg width="175" height="54" viewBox="0 0 175 54" fill="none" xmlns="http://www.w3.org/2000/svg">
<path d="M63.3246 4.80957C63.4418 4.80957 63.5883 4.84863 63.7641 4.92676C63.9399 4.98535 64.0668 5.05371 64.1449 5.13184C62.4653 6.32324 60.893 7.70996 59.4281 9.29199C61.6938 9.93652 63.8715 10.6396 65.9613 11.4014C68.0707 12.1436 70.0922 12.876 72.0258 13.5986C73.4321 14.126 74.7992 14.6338 76.1274 15.1221C77.475 15.5908 78.7543 16.001 79.9653 16.3525C81.1762 16.7041 82.3188 16.9678 83.393 17.1436C84.4867 17.3193 85.4926 17.3779 86.4106 17.3193C87.5238 17.2607 88.4711 16.9971 89.2524 16.5283C90.0531 16.04 90.6391 15.2686 91.0102 14.2139C90.893 13.8037 90.6977 13.3838 90.4242 12.9541C90.1703 12.5049 89.975 12.0947 89.8383 11.7236C89.7211 11.3525 89.7309 11.0498 89.8676 10.8154C90.0238 10.5811 90.4535 10.4541 91.1567 10.4346C91.6645 10.5127 92.0746 10.7959 92.3871 11.2842C92.7192 11.7529 92.9047 12.3096 92.9438 12.9541C92.768 13.7939 92.5238 14.5068 92.2113 15.0928C91.9184 15.6592 91.5766 16.1377 91.186 16.5283C90.7953 16.9189 90.3559 17.2412 89.8676 17.4951C89.3793 17.7295 88.8715 17.9346 88.3442 18.1104C87.2895 18.4619 86.059 18.6377 84.6528 18.6377C83.2465 18.6377 81.7035 18.5205 80.0238 18.2861C78.3637 18.0518 76.5863 17.7295 74.6918 17.3193C72.7973 16.8896 70.8344 16.4307 68.8031 15.9424C66.7914 15.4541 64.7309 14.9561 62.6215 14.4482C60.5121 13.9209 58.4125 13.4326 56.3227 12.9834C54.5844 15.2881 52.9828 17.7295 51.518 20.3076C50.0727 22.8857 48.6469 25.5029 47.2406 28.1592C46.2836 29.9561 45.3363 31.7432 44.3988 33.5205C43.4809 35.2783 42.5141 36.9775 41.4985 38.6182C40.5024 40.2393 39.4379 41.7822 38.3051 43.2471C37.1723 44.6924 35.9223 46.0107 34.5551 47.2021C33.2074 48.3936 31.7133 49.4287 30.0727 50.3076C28.4516 51.1865 26.6449 51.8701 24.6528 52.3584C23.5981 52.6318 22.436 52.8271 21.1664 52.9443C19.9164 53.0615 18.7543 53.1201 17.6801 53.1201C15.2582 53.1201 12.9535 52.8076 10.766 52.1826C8.57854 51.5576 6.67424 50.6592 5.05315 49.4873C3.43205 48.3154 2.16252 46.8896 1.24455 45.21C0.326585 43.5303 -0.0835712 41.6357 0.014085 39.5264C0.09221 38.042 0.453538 36.5283 1.09807 34.9854C1.7426 33.4229 2.7094 31.9482 3.99846 30.5615C5.30705 29.1748 6.95744 27.9248 8.94963 26.8115C10.9418 25.6787 13.3149 24.8096 16.0688 24.2041C16.4008 22.7979 16.9379 21.4404 17.6801 20.1318C18.4418 18.8037 19.3207 17.5635 20.3168 16.4111C21.3324 15.2393 22.4262 14.1748 23.5981 13.2178C24.7699 12.2607 25.9614 11.4404 27.1723 10.7568C29.7895 9.35059 32.4262 8.35449 35.0824 7.76855C37.7387 7.16309 40.4047 6.84082 43.0805 6.80176V6.59668C43.1391 5.81543 43.0903 5.08301 42.934 4.39941C42.7973 3.71582 42.5141 3.12012 42.0844 2.6123C41.6547 2.10449 41.059 1.7041 40.2973 1.41113C39.5356 1.09863 38.5688 0.922852 37.3969 0.883789L37.4262 0.50293C37.7192 0.327148 38.0024 0.200195 38.2758 0.12207C38.5688 0.0244141 38.8813 -0.0146484 39.2133 0.00488281C40.268 0.0439453 41.1274 0.239258 41.7914 0.59082C42.4555 0.922852 42.9731 1.37207 43.3442 1.93848C43.7153 2.48535 43.9594 3.12012 44.0766 3.84277C44.1938 4.56543 44.2231 5.32715 44.1645 6.12793C44.1449 6.24512 44.1352 6.3623 44.1352 6.47949C44.1352 6.57715 44.1254 6.68457 44.1059 6.80176C44.3793 6.80176 44.6528 6.80176 44.9262 6.80176C45.1996 6.80176 45.4731 6.81152 45.7465 6.83105C47.934 6.94824 50.0922 7.20215 52.2211 7.59277C54.35 7.9834 56.4496 8.46191 58.5199 9.02832C59.2817 8.22754 60.0531 7.47559 60.8344 6.77246C61.6352 6.06934 62.4653 5.41504 63.3246 4.80957ZM45.3363 11.3721L43.1391 11.2842C42.7289 12.6318 42.1332 14.0381 41.352 15.5029C40.5903 16.9678 39.6821 18.4131 38.6274 19.8389C37.5922 21.2451 36.4496 22.6025 35.1996 23.9111C33.9692 25.2197 32.6899 26.3916 31.3617 27.4268C32.0453 28.1689 32.5824 29.0283 32.9731 30.0049C33.3637 30.9814 33.5297 32.085 33.4711 33.3154C33.393 34.8193 32.934 36.2061 32.0942 37.4756C31.2738 38.7256 30.1899 39.7998 28.8422 40.6982C27.4946 41.5967 25.9321 42.2998 24.1547 42.8076C22.3969 43.2959 20.5512 43.54 18.6176 43.54C17.3481 43.54 16.1274 43.4229 14.9555 43.1885C13.7836 42.9541 12.7387 42.5732 11.8207 42.0459C10.9223 41.499 10.2094 40.7959 9.68205 39.9365C9.17424 39.0771 8.94963 38.0322 9.00823 36.8018C9.04729 35.9229 9.31096 35.0732 9.79924 34.2529C10.2875 33.4326 10.8735 32.7393 11.5571 32.1729C11.6547 32.0947 11.8012 32.0557 11.9965 32.0557C12.5043 32.0557 12.7485 32.2217 12.7289 32.5537C12.7289 32.6514 12.6996 32.7588 12.641 32.876C12.602 32.9736 12.5531 33.0713 12.4946 33.1689C11.7914 33.5596 11.225 34.0576 10.7953 34.6631C10.3656 35.2686 10.1313 35.9326 10.0922 36.6553C10.0336 37.749 10.2387 38.6768 10.7074 39.4385C11.1762 40.1807 11.811 40.7959 12.6117 41.2842C13.4321 41.7529 14.3696 42.0947 15.4242 42.3096C16.4985 42.5244 17.602 42.6318 18.7348 42.6318C20.6293 42.6318 22.3969 42.3877 24.0375 41.8994C25.6781 41.3916 27.1039 40.708 28.3149 39.8486C29.5453 38.9893 30.5219 37.9932 31.2446 36.8604C31.9672 35.708 32.3578 34.4873 32.4164 33.1982C32.4555 32.1436 32.2992 31.1963 31.9477 30.3564C31.5961 29.5166 31.0883 28.7744 30.4242 28.1299C29.1547 29.0479 27.8852 29.79 26.6156 30.3564C25.3656 30.9229 24.1449 31.2744 22.9535 31.4111C22.5629 31.4502 22.2016 31.4893 21.8696 31.5283C21.5571 31.5479 21.2641 31.5479 20.9906 31.5283C20.1313 31.5088 19.3696 31.3525 18.7055 31.0596C18.061 30.7666 17.5141 30.376 17.0649 29.8877C16.6156 29.3994 16.2739 28.8428 16.0395 28.2178C15.8246 27.5928 15.7367 26.9287 15.7758 26.2256C15.7758 25.9521 15.8051 25.6787 15.8637 25.4053C14.0473 25.8154 12.2602 26.4307 10.5024 27.251C8.76408 28.0713 7.20158 29.0771 5.81487 30.2686C4.44768 31.4404 3.3344 32.7881 2.47502 34.3115C1.59612 35.835 1.10784 37.4951 1.01018 39.292C0.932054 40.7178 1.05901 41.9775 1.39104 43.0713C1.70354 44.165 2.17229 45.1221 2.79729 45.9424C3.42229 46.7627 4.16448 47.4561 5.02385 48.0225C5.88323 48.5693 6.82073 49.0186 7.83635 49.3701C8.85198 49.7217 9.90666 49.9658 11.0004 50.1025C12.1137 50.2588 13.2172 50.3369 14.311 50.3369C17.5336 50.3369 20.4731 49.8682 23.1293 48.9307C25.7856 47.9736 28.2367 46.6846 30.4828 45.0635C32.7485 43.4229 34.8383 41.5088 36.7524 39.3213C38.686 37.1143 40.5317 34.751 42.2895 32.2314C43.3832 30.6494 44.4574 29.0283 45.5121 27.3682C46.5863 25.6885 47.6606 24.0186 48.7348 22.3584C49.809 20.6787 50.8832 19.0381 51.9574 17.4365C53.0512 15.8154 54.1742 14.2627 55.3266 12.7783C53.6078 12.4463 51.9086 12.1533 50.2289 11.8994C48.5492 11.6455 46.9184 11.4697 45.3363 11.3721ZM23.6274 16.0303C22.1039 16.9678 20.7856 18.0908 19.6723 19.3994C18.5785 20.708 17.7875 22.251 17.2992 24.0283C18.0219 23.9307 18.725 23.8623 19.4086 23.8232C20.0922 23.7646 20.766 23.7354 21.4301 23.7354C22.2114 23.7354 23.0121 23.7939 23.8324 23.9111C24.6723 24.0283 25.4926 24.2139 26.2934 24.4678C27.1137 24.7217 27.8949 25.0439 28.6371 25.4346C29.3793 25.8057 30.0531 26.2549 30.6586 26.7822C32.0258 25.708 33.3246 24.4971 34.5551 23.1494C35.7856 21.7822 36.8891 20.3955 37.8656 18.9893C38.8617 17.583 39.7211 16.2061 40.4438 14.8584C41.1664 13.5107 41.7035 12.3193 42.0551 11.2842C38.8324 11.2646 35.6586 11.6162 32.5336 12.3389C29.4086 13.042 26.4399 14.2725 23.6274 16.0303ZM64.643 17.583C63.7446 18.1689 62.8754 18.9014 62.0356 19.7803C61.2153 20.6592 60.4047 21.7236 59.6039 22.9736C58.8227 24.2041 58.0512 25.6299 57.2895 27.251C56.5278 28.8721 55.7563 30.7178 54.975 32.7881C54.311 34.5459 53.5688 36.2842 52.7485 38.0029C51.9281 39.7217 50.9711 41.333 49.8774 42.8369C48.8031 44.3408 47.5629 45.6982 46.1567 46.9092C44.7504 48.1006 43.1293 49.0479 41.2934 49.751L40.2094 49.6045C41.7328 48.7451 43.0121 47.7197 44.0473 46.5283C45.102 45.3174 46.0297 43.9697 46.8305 42.4854C47.6313 41.001 48.3735 39.3994 49.0571 37.6807C49.7406 35.9619 50.5024 34.165 51.3422 32.29C51.9867 30.8057 52.7192 29.3408 53.5395 27.8955C54.3793 26.4307 55.3168 25.0342 56.352 23.7061C57.4067 22.3779 58.5785 21.1377 59.8676 19.9854C61.1762 18.833 62.6313 17.8174 64.2328 16.9385C64.4281 16.8408 64.6039 16.792 64.7602 16.792C64.936 16.7725 65.0531 16.8018 65.1117 16.8799C65.1703 16.9385 65.1606 17.0361 65.0824 17.1729C65.0238 17.29 64.8774 17.4268 64.643 17.583ZM70.5903 21.7725C70.8637 21.5771 71.0981 21.46 71.2934 21.4209C71.4887 21.3818 71.6254 21.4014 71.7035 21.4795C71.7817 21.5576 71.7914 21.6748 71.7328 21.8311C71.6742 21.9678 71.5278 22.1143 71.2934 22.2705C70.3168 22.9346 69.3403 23.8623 68.3637 25.0537C67.4067 26.2256 66.4887 27.5439 65.6098 29.0088C64.7504 30.4736 63.9496 32.0264 63.2074 33.667C62.4848 35.3076 61.8598 36.9189 61.3324 38.501C60.8246 40.0635 60.4242 41.5479 60.1313 42.9541C59.8578 44.3604 59.7406 45.5713 59.7797 46.5869C59.8383 47.583 60.0727 48.335 60.4828 48.8428C60.893 49.3311 61.518 49.458 62.3578 49.2236C62.8266 49.0869 63.2953 48.7842 63.7641 48.3154C64.2524 47.8467 64.7211 47.2021 65.1703 46.3818L65.434 46.1768C65.9028 46.0986 66.1371 46.1963 66.1371 46.4697C65.6293 47.5244 65.0727 48.374 64.4672 49.0186C63.8617 49.6631 63.1196 50.1123 62.2406 50.3662C61.3227 50.6006 60.4633 50.6201 59.6625 50.4248C58.8813 50.249 58.2074 49.9268 57.641 49.458C57.0746 48.9893 56.6352 48.4033 56.3227 47.7002C56.0297 46.9775 55.9028 46.2061 55.9418 45.3857C55.9418 44.2529 56.1176 43.0127 56.4692 41.665C56.8403 40.3174 57.3481 38.9209 57.9926 37.4756C58.6371 36.0303 59.4086 34.5752 60.3071 33.1104C61.225 31.626 62.2211 30.2002 63.2953 28.833C64.3891 27.4658 65.5512 26.1768 66.7817 24.9658C68.0121 23.7549 69.2817 22.6904 70.5903 21.7725ZM16.9477 25.9326C16.9477 26.5186 17.0063 27.085 17.1235 27.6318C17.2602 28.1592 17.4946 28.6377 17.8266 29.0674C18.1586 29.4775 18.5883 29.8193 19.1156 30.0928C19.6625 30.3467 20.3461 30.4834 21.1664 30.5029C22.6313 30.5615 24.0766 30.3174 25.5024 29.7705C26.9477 29.2041 28.3442 28.4424 29.6918 27.4854C28.5395 26.5674 27.1723 25.8936 25.5903 25.4639C24.0082 25.0342 22.4067 24.8193 20.7856 24.8193C19.5356 24.8193 18.2856 24.9365 17.0356 25.1709C17.016 25.2881 16.9965 25.415 16.977 25.5518C16.977 25.6689 16.9672 25.7959 16.9477 25.9326Z" fill="#212844"/>
<path d="M85.3559 40.4053H86.2055C86.0492 40.6592 85.8344 40.9912 85.561 41.4014C85.3071 41.792 84.809 42.5049 84.0668 43.54C83.3246 44.5752 82.602 45.4932 81.8988 46.2939C81.2153 47.0752 80.4633 47.7881 79.643 48.4326C78.8227 49.0771 78.1196 49.3994 77.5336 49.3994C76.9281 49.3994 76.3617 49.0381 75.8344 48.3154C75.3266 47.5928 75.0727 46.5576 75.0727 45.21V45.0635C72.9047 47.9541 71.2543 49.3994 70.1215 49.3994C69.2426 49.3994 68.5883 48.999 68.1586 48.1982C67.7094 47.3975 67.4848 46.4014 67.4848 45.21C67.4848 44.0967 67.7875 42.8857 68.393 41.5771C68.9985 40.249 69.7797 39.0186 70.7367 37.8857C71.6938 36.7334 72.7192 35.6787 73.8129 34.7217C74.9067 33.7646 75.9809 33.0127 77.0356 32.4658C78.1098 31.8994 79.0082 31.6162 79.7309 31.6162C80.7074 31.6162 81.0199 32.4268 80.6684 34.0479L82.1918 31.7627H85.9125C85.6781 32.1143 85.3656 32.5732 84.975 33.1396C84.5844 33.7061 83.891 34.7705 82.8949 36.333C81.8988 37.876 81.0199 39.3018 80.2582 40.6104C79.4965 41.9189 78.8031 43.2666 78.1781 44.6533C77.5531 46.0205 77.2406 47.0361 77.2406 47.7002C77.2406 48.208 77.4457 48.4619 77.8559 48.4619C78.2074 48.4619 78.686 48.208 79.2914 47.7002C79.9164 47.1924 80.5121 46.6162 81.0785 45.9717C81.6449 45.3271 82.2602 44.5654 82.9242 43.6865C83.6078 42.8076 84.1059 42.1436 84.4184 41.6943C84.7504 41.2451 85.0629 40.8154 85.3559 40.4053ZM70.1215 48.6377C71.0785 48.6377 72.9242 46.7334 75.6586 42.9248C76.225 41.5186 77.2797 39.5361 78.8227 36.9775C78.9594 36.6846 79.1156 36.3037 79.2914 35.835C79.4867 35.3467 79.6723 34.8291 79.8481 34.2822C80.0238 33.7158 80.102 33.2373 80.0824 32.8467C80.0824 32.4365 79.9653 32.2314 79.7309 32.2314C78.8129 32.2314 77.7582 32.8662 76.5668 34.1357C75.3754 35.4053 74.2914 36.8994 73.3149 38.6182C72.3383 40.3174 71.5082 42.0654 70.8246 43.8623C70.141 45.6396 69.7992 47.0264 69.7992 48.0225C69.7992 48.4326 69.9067 48.6377 70.1215 48.6377Z" fill="#212844"/>
<path d="M102.114 40.4053H102.993C102.914 40.542 102.817 40.6885 102.7 40.8447C102.602 41.001 102.485 41.1865 102.348 41.4014C102.211 41.5967 102.016 41.8799 101.762 42.251C101.528 42.6025 101.215 43.0322 100.825 43.54C100.454 44.0479 100.082 44.5361 99.7113 45.0049C99.3598 45.4736 99.018 45.9033 98.686 46.2939C98.0024 47.0947 97.2504 47.8076 96.4301 48.4326C95.6098 49.0771 94.9164 49.3994 94.35 49.3994C93.7055 49.3994 93.1293 49.0381 92.6215 48.3154C92.1137 47.5928 91.8598 46.5576 91.8598 45.21C91.8598 44.7803 91.977 44.2236 92.2113 43.54C89.184 47.4463 87.1137 49.3994 86.0004 49.3994C85.6879 49.3994 85.3852 49.3115 85.0922 49.1357C84.7992 48.9404 84.5356 48.667 84.3012 48.3154C84.0668 47.9639 83.8813 47.5342 83.7446 47.0264C83.6078 46.499 83.5395 45.8936 83.5395 45.21C83.5395 44.5654 83.7836 43.6865 84.2719 42.5732C84.7602 41.4404 85.3461 40.2686 86.0297 39.0576C86.7328 37.8271 87.436 36.665 88.1391 35.5713C88.8422 34.458 89.4379 33.5498 89.9262 32.8467L90.6586 31.7627H94.3793C94.2621 31.9385 94.1254 32.1436 93.9692 32.3779C93.8129 32.6123 93.6371 32.8662 93.4418 33.1396C93.2465 33.4131 92.9731 33.8232 92.6215 34.3701C92.2895 34.8975 91.8696 35.5518 91.3617 36.333C90.8539 37.1143 90.3852 37.8564 89.9555 38.5596C89.5258 39.2627 89.1156 39.9463 88.725 40.6104C88.3344 41.2744 87.9633 41.9482 87.6117 42.6318C87.2797 43.2959 86.9574 43.9697 86.6449 44.6533C86.0199 46.0596 85.7074 47.0752 85.7074 47.7002C85.7074 48.208 85.9125 48.4619 86.3227 48.4619C87.2016 48.4619 89.6039 45.8545 93.5297 40.6396C93.8422 40.0342 94.184 39.3994 94.5551 38.7354C94.9457 38.0713 95.3656 37.3682 95.8149 36.626C96.2641 35.8838 96.6742 35.2197 97.0453 34.6338C97.436 34.0479 97.7778 33.5303 98.0707 33.0811L98.9789 31.7627H102.7C102.582 31.9385 102.446 32.1436 102.289 32.3779C102.133 32.6123 101.948 32.8662 101.733 33.1396C101.538 33.4131 101.264 33.8232 100.913 34.3701C100.58 34.8975 100.161 35.5518 99.6528 36.333C99.1449 37.1143 98.6762 37.8564 98.2465 38.5596C97.8168 39.2627 97.4067 39.9463 97.016 40.6104C96.6449 41.2744 96.2836 41.9482 95.9321 42.6318C95.6 43.2959 95.2778 43.9697 94.9653 44.6533C94.3403 46.0596 94.0278 47.0752 94.0278 47.7002C94.0278 48.208 94.2328 48.4619 94.643 48.4619C94.8188 48.4619 95.0238 48.3936 95.2582 48.2568C95.5121 48.1201 95.7758 47.9346 96.0492 47.7002C96.3422 47.4658 96.6352 47.2021 96.9281 46.9092C97.2406 46.6162 97.5434 46.3037 97.8363 45.9717C98.1098 45.6396 98.4028 45.2881 98.7153 44.917C99.0473 44.5459 99.3793 44.1357 99.7113 43.6865C100.063 43.2568 100.356 42.8857 100.59 42.5732C100.825 42.2412 101.03 41.9482 101.205 41.6943C101.401 41.4404 101.567 41.2158 101.704 41.0205C101.84 40.8252 101.977 40.6201 102.114 40.4053ZM105.336 21.3037C104.926 22.7295 104.37 23.9307 103.666 24.9072C102.983 25.8838 102.211 26.626 101.352 27.1338C100.493 27.6416 99.5746 27.9248 98.5981 27.9834C97.641 28.0225 96.6938 27.8174 95.7563 27.3682C95.2875 27.1143 94.8774 26.8018 94.5258 26.4307C94.1742 26.04 93.9106 25.6201 93.7348 25.1709C93.559 24.7217 93.4809 24.2529 93.5004 23.7646C93.5199 23.2764 93.6664 22.7881 93.9399 22.2998C94.2133 21.8115 94.5453 21.4697 94.936 21.2744C95.3266 21.0596 95.7172 20.9619 96.1078 20.9814C96.4985 20.9814 96.8598 21.0791 97.1918 21.2744C97.5434 21.4502 97.8071 21.6943 97.9828 22.0068C98.1781 22.2998 98.266 22.6416 98.2465 23.0322C98.227 23.4229 98.0512 23.8135 97.7192 24.2041C97.5434 24.3994 97.3481 24.6045 97.1332 24.8193C96.9184 25.0342 96.7426 25.2588 96.6059 25.4932C96.4887 25.708 96.4496 25.9326 96.4887 26.167C96.5473 26.3818 96.7621 26.5967 97.1332 26.8115C97.7582 27.124 98.4418 27.2217 99.184 27.1045C99.9262 26.9678 100.649 26.6553 101.352 26.167C102.075 25.6592 102.729 24.9951 103.315 24.1748C103.92 23.3545 104.389 22.3975 104.721 21.3037H105.336Z" fill="#212844"/>
<path d="M128.715 40.6982C128.149 41.4795 127.602 42.2314 127.075 42.9541C126.547 43.6572 126.03 44.3213 125.522 44.9463C125.034 45.5518 124.526 46.1377 123.998 46.7041C123.471 47.2705 122.963 47.7783 122.475 48.2275C121.987 48.6572 121.528 49.0088 121.098 49.2822C120.688 49.5557 120.356 49.6924 120.102 49.6924C119.809 49.6924 119.487 49.6436 119.135 49.5459C118.784 49.4482 118.481 49.2627 118.227 48.9893C117.875 48.6182 117.651 48.1494 117.553 47.583C117.455 47.0166 117.446 46.4209 117.524 45.7959C117.602 45.1709 117.748 44.5361 117.963 43.8916C118.178 43.2275 118.422 42.6123 118.696 42.0459C119.067 41.2451 119.487 40.415 119.955 39.5557C120.444 38.6768 120.932 37.8271 121.42 37.0068C121.928 36.1865 122.407 35.4248 122.856 34.7217C123.325 33.999 123.715 33.4033 124.028 32.9346L124.086 32.8174C123.344 33.1299 122.573 33.7451 121.772 34.6631C120.971 35.5615 120.161 36.6162 119.34 37.8271C118.539 39.0186 117.729 40.2783 116.909 41.6064C116.088 42.915 115.288 44.1357 114.506 45.2686C113.745 46.4014 113.002 47.3584 112.28 48.1396C111.577 48.9209 110.922 49.3701 110.317 49.4873C109.633 49.624 109.145 49.4678 108.852 49.0186C108.579 48.5693 108.452 47.9541 108.471 47.1729C108.51 46.3916 108.676 45.5225 108.969 44.5654C109.262 43.6084 109.643 42.6904 110.112 41.8115C110.522 41.0498 110.971 40.249 111.459 39.4092C111.948 38.5498 112.426 37.71 112.895 36.8896C113.383 36.0693 113.852 35.3076 114.301 34.6045C114.75 33.9014 115.131 33.3154 115.444 32.8467L115.502 32.7588C114.799 32.9541 114.145 33.2764 113.539 33.7256C112.954 34.1553 112.397 34.6826 111.87 35.3076C111.342 35.9326 110.844 36.626 110.375 37.3877C109.907 38.1494 109.457 38.9404 109.028 39.7607C108.403 40.9912 107.788 42.1826 107.182 43.335C106.596 44.4678 105.991 45.4932 105.366 46.4111C104.838 47.251 104.233 47.9736 103.549 48.5791C102.866 49.1846 102.075 49.5068 101.176 49.5459C100.395 49.4482 99.8383 49.1943 99.5063 48.7842C99.1742 48.374 98.9789 47.915 98.9203 47.4072C98.8227 47.0361 98.8227 46.6357 98.9203 46.2061C98.9985 45.7764 99.1352 45.3662 99.3305 44.9756C99.5258 44.585 99.7699 44.2334 100.063 43.9209C100.356 43.6084 100.659 43.3936 100.971 43.2764C101.538 43.1201 102.045 43.1299 102.495 43.3057C102.944 43.4814 103.217 43.8037 103.315 44.2725C103.393 44.7412 103.334 45.2197 103.139 45.708C102.944 46.1768 102.709 46.6162 102.436 47.0264C102.182 47.4365 101.938 47.8076 101.704 48.1396C101.469 48.4521 101.362 48.6865 101.381 48.8428C101.342 48.9404 101.352 48.96 101.411 48.9014C101.489 48.8232 101.625 48.8037 101.821 48.8428C102.27 48.6865 102.709 48.4326 103.139 48.0811C103.588 47.71 104.028 47.1924 104.457 46.5283C105.082 45.5518 105.678 44.5068 106.245 43.3936C106.811 42.2607 107.407 41.1377 108.032 40.0244C108.598 38.9893 109.164 38.0029 109.731 37.0654C110.317 36.1084 110.932 35.2686 111.577 34.5459C112.221 33.8037 112.914 33.1982 113.657 32.7295C114.399 32.2412 115.229 31.9385 116.147 31.8213L116.176 31.7627H119.897C119.838 31.8408 119.653 32.1338 119.34 32.6416C119.028 33.1299 118.627 33.7842 118.139 34.6045C117.651 35.4248 117.084 36.3721 116.44 37.4463C115.815 38.5205 115.151 39.6631 114.448 40.874C114.077 41.499 113.696 42.1826 113.305 42.9248C112.914 43.6475 112.553 44.3604 112.221 45.0635C111.889 45.7471 111.616 46.3721 111.401 46.9385C111.186 47.5049 111.079 47.9443 111.079 48.2568C111.586 47.8857 112.163 47.2607 112.807 46.3818C113.452 45.4834 114.135 44.4678 114.858 43.335C115.6 42.1826 116.372 40.9814 117.172 39.7314C117.973 38.4814 118.793 37.3193 119.633 36.2451C120.473 35.1514 121.313 34.2139 122.153 33.4326C123.012 32.6318 123.862 32.1338 124.702 31.9385L124.76 31.8506H128.481C128.422 31.9287 128.227 32.2217 127.895 32.7295C127.563 33.2178 127.133 33.8721 126.606 34.6924C126.098 35.4932 125.512 36.4307 124.848 37.5049C124.204 38.5596 123.53 39.6924 122.827 40.9033C122.455 41.5283 122.084 42.1924 121.713 42.8955C121.362 43.5986 121.039 44.2822 120.747 44.9463C120.473 45.5908 120.248 46.1865 120.073 46.7334C119.897 47.2607 119.809 47.6807 119.809 47.9932C119.809 48.501 120.014 48.7549 120.424 48.7549C120.659 48.7549 121.02 48.54 121.508 48.1104C122.016 47.6807 122.602 47.1045 123.266 46.3818C123.93 45.6396 124.653 44.7803 125.434 43.8037C126.215 42.8271 127.016 41.792 127.836 40.6982H128.715Z" fill="#212844"/>
<path d="M144.477 40.4053H145.356C145.2 40.6592 144.985 40.9912 144.711 41.4014C144.457 41.792 143.95 42.5049 143.188 43.54C142.446 44.5752 141.733 45.4932 141.049 46.2939C140.385 47.0752 139.633 47.7881 138.793 48.4326C137.973 49.0771 137.28 49.3994 136.713 49.3994C136.069 49.3994 135.493 49.0381 134.985 48.3154C134.477 47.5928 134.223 46.5576 134.223 45.21C134.223 44.7803 134.34 44.2236 134.575 43.54C131.547 47.4463 129.477 49.3994 128.364 49.3994C127.739 49.3994 127.172 49.0381 126.664 48.3154C126.157 47.5928 125.903 46.5576 125.903 45.21C125.903 44.6045 126.147 43.7256 126.635 42.5732C127.123 41.4209 127.709 40.249 128.393 39.0576C129.096 37.8467 129.799 36.6846 130.502 35.5713C131.205 34.458 131.801 33.5498 132.289 32.8467L133.022 31.7627H136.743C136.508 32.1143 136.196 32.5732 135.805 33.1396C135.414 33.7061 134.721 34.7705 133.725 36.333C132.729 37.876 131.85 39.3018 131.088 40.6104C130.327 41.9189 129.633 43.2666 129.008 44.6533C128.383 46.0205 128.071 47.0361 128.071 47.7002C128.071 48.208 128.276 48.4619 128.686 48.4619C129.565 48.4619 131.967 45.8545 135.893 40.6396C136.518 39.4287 137.28 38.0908 138.178 36.626C139.096 35.1416 139.848 33.96 140.434 33.0811L141.342 31.7627H145.063C144.829 32.1143 144.506 32.5732 144.096 33.1396C143.705 33.7061 143.012 34.7705 142.016 36.333C141.02 37.876 140.141 39.3018 139.379 40.6104C138.637 41.9189 137.954 43.2666 137.329 44.6533C136.704 46.0205 136.391 47.0361 136.391 47.7002C136.391 48.208 136.596 48.4619 137.006 48.4619C137.358 48.4619 137.836 48.208 138.442 47.7002C139.047 47.1924 139.633 46.6162 140.2 45.9717C140.766 45.3271 141.391 44.5654 142.075 43.6865C142.758 42.8076 143.256 42.1436 143.569 41.6943C143.901 41.2451 144.204 40.8154 144.477 40.4053Z" fill="#212844"/>
<path d="M151.039 43.54C151.293 42.9346 151.567 42.3193 151.86 41.6943C152.153 41.0693 152.465 40.4443 152.797 39.8193H148.608L143.217 49.3994H139.643L149.604 31.7627H153.149L149.018 39.0576H153.207C153.93 37.71 154.672 36.4111 155.434 35.1611C156.196 33.8916 156.87 32.7588 157.455 31.7627H161.176C161.137 31.8213 160.893 32.2119 160.444 32.9346C159.995 33.6377 159.418 34.5752 158.715 35.7471C158.012 36.9189 157.231 38.2764 156.372 39.8193C155.512 41.3428 154.653 42.9541 153.793 44.6533C153.461 45.3369 153.159 45.9326 152.885 46.4404C152.631 46.9482 152.504 47.3682 152.504 47.7002C152.504 48.208 152.709 48.4619 153.12 48.4619C153.452 48.4619 153.852 48.2861 154.321 47.9346C154.789 47.5635 155.278 47.1045 155.786 46.5576C156.313 46.0107 156.84 45.415 157.368 44.7705C157.895 44.1064 158.383 43.4814 158.832 42.8955C159.282 42.29 159.663 41.7627 159.975 41.3135C160.288 40.8447 160.493 40.542 160.59 40.4053H161.469C161.43 40.4639 161.303 40.6592 161.088 40.9912C160.893 41.3037 160.61 41.7236 160.239 42.251C159.887 42.7783 159.448 43.3936 158.92 44.0967C158.413 44.7803 157.827 45.5127 157.163 46.2939C156.85 46.665 156.498 47.0361 156.108 47.4072C155.717 47.7783 155.327 48.1104 154.936 48.4033C154.545 48.6963 154.164 48.9404 153.793 49.1357C153.422 49.3115 153.1 49.3994 152.827 49.3994C152.397 49.3994 151.987 49.2627 151.596 48.9893C151.205 48.7158 150.903 48.335 150.688 47.8467C150.493 47.3389 150.405 46.7236 150.424 46.001C150.444 45.2783 150.649 44.458 151.039 43.54Z" fill="#212844"/>
<path d="M169.643 31.6162C170.463 31.5771 171.079 31.7432 171.489 32.1143C171.918 32.4854 172.163 32.9834 172.221 33.6084C172.299 34.2139 172.221 34.8975 171.987 35.6592C171.752 36.4209 171.401 37.1533 170.932 37.8564C169.877 39.4189 168.754 40.8936 167.563 42.2803C166.391 43.667 165.336 45.0146 164.399 46.3232C163.891 47.0264 163.647 47.6318 163.666 48.1396C163.686 48.6475 163.989 48.8818 164.575 48.8428C165.297 48.7256 166.088 48.3545 166.948 47.7295C167.807 47.1045 168.647 46.3721 169.467 45.5322C170.307 44.6729 171.079 43.7842 171.782 42.8662C172.504 41.9287 173.08 41.1084 173.51 40.4053H174.301C173.715 41.2256 173.041 42.1631 172.28 43.2178C171.538 44.2529 170.717 45.249 169.819 46.2061C168.92 47.1436 167.944 47.9541 166.889 48.6377C165.854 49.3213 164.75 49.7021 163.579 49.7803C163.032 49.8193 162.582 49.751 162.231 49.5752C161.879 49.3994 161.586 49.1455 161.352 48.8135C160.942 48.2275 160.766 47.6025 160.825 46.9385C160.903 46.2744 161.118 45.5908 161.469 44.8877C161.84 44.1846 162.319 43.4717 162.905 42.749C163.491 42.0264 164.106 41.3135 164.75 40.6104C165.395 39.9072 166.02 39.2334 166.625 38.5889C167.25 37.9248 167.778 37.2998 168.207 36.7139C168.754 36.0693 169.194 35.4834 169.526 34.9561C169.858 34.4092 170.073 33.9502 170.17 33.5791C170.288 33.208 170.268 32.9346 170.112 32.7588C169.955 32.5635 169.653 32.4951 169.204 32.5537C168.754 32.6709 168.286 32.9053 167.797 33.2568C167.309 33.5889 166.801 33.999 166.274 34.4873C165.766 34.9756 165.248 35.5225 164.721 36.1279C164.194 36.7334 163.676 37.3584 163.168 38.0029C162.68 38.6475 162.202 39.292 161.733 39.9365C161.264 40.5811 160.825 41.1768 160.414 41.7236L159.653 41.6357C160.454 40.2881 161.313 39.0088 162.231 37.7979C163.168 36.5869 164.086 35.5225 164.985 34.6045C165.883 33.6865 166.733 32.9639 167.534 32.4365C168.354 31.8896 169.057 31.6162 169.643 31.6162Z" fill="#212844"/>
</svg>
