<svg width="169" height="61" viewBox="0 0 169 61" fill="none" xmlns="http://www.w3.org/2000/svg">
<path d="M53.2617 3.14941C52.3828 3.40332 51.5332 3.77441 50.7129 4.2627C49.8926 4.73145 49.1113 5.30762 48.3691 5.99121C49.7363 7.33887 50.8789 8.85254 51.7969 10.5322C52.7148 12.1924 53.3691 13.9697 53.7598 15.8643C54.1504 17.7588 54.248 19.7314 54.0527 21.7822C53.877 23.833 53.3789 25.9033 52.5586 27.9932C51.582 30.415 50.2539 32.5732 48.5742 34.4678C46.9141 36.3428 45 37.9443 42.832 39.2725C40.6836 40.5811 38.3398 41.5967 35.8008 42.3193C33.2617 43.0225 30.6445 43.4033 27.9492 43.4619C26.4844 43.4619 25.0684 43.335 23.7012 43.0811C22.3535 42.8467 21.0156 42.5537 19.6875 42.2021C19.2969 42.3584 18.8867 42.5049 18.457 42.6416C18.0469 42.7783 17.627 42.915 17.1973 43.0518C16.8262 43.1494 16.2891 43.2666 15.5859 43.4033C14.9023 43.54 14.1211 43.667 13.2422 43.7842C12.3828 43.9014 11.4551 43.999 10.459 44.0771C9.46289 44.1553 8.4668 44.1943 7.4707 44.1943C6.49414 44.1943 5.55664 44.1455 4.6582 44.0479C3.75977 43.9697 2.95898 43.8135 2.25586 43.5791C1.57227 43.3447 1.02539 43.0225 0.615234 42.6123C0.205078 42.2217 0 41.7334 0 41.1475C0 40.6592 0.185547 40.2393 0.556641 39.8877C0.947266 39.5361 1.39648 39.2432 1.9043 39.0088C2.43164 38.7744 2.95898 38.5986 3.48633 38.4814C4.0332 38.3643 4.47266 38.3057 4.80469 38.3057H6.00586C7.19727 38.3057 8.34961 38.4033 9.46289 38.5986C10.5957 38.7939 11.6992 39.0381 12.7734 39.3311C13.8477 39.624 14.9121 39.9463 15.9668 40.2979C17.0215 40.6299 18.0762 40.9521 19.1309 41.2646C21.0059 40.4248 22.6172 39.4092 23.9648 38.2178C25.332 37.0068 26.5723 35.6592 27.6855 34.1748C28.7988 32.6709 29.8535 31.04 30.8496 29.2822C31.8457 27.5244 32.9004 25.6592 34.0137 23.6865C34.7559 22.3779 35.5566 20.9717 36.416 19.4678C37.2949 17.9639 38.252 16.4502 39.2871 14.9268C40.3223 13.3838 41.4453 11.8799 42.6562 10.415C43.8672 8.9502 45.1953 7.60254 46.6406 6.37207C45.5469 5.06348 44.1699 3.98926 42.5098 3.14941C40.2051 2.05566 37.7637 1.41113 35.1855 1.21582C32.627 1.02051 30.0684 1.20605 27.5098 1.77246C24.9707 2.33887 22.5 3.24707 20.0977 4.49707C17.7148 5.72754 15.5566 7.23145 13.623 9.00879C11.6895 10.7666 10.0488 12.749 8.70117 14.9561C7.35352 17.1436 6.45508 19.4873 6.00586 21.9873C5.81055 23.1006 5.69336 24.1748 5.6543 25.21C5.63477 26.2451 5.72266 27.2217 5.91797 28.1396C6.11328 29.0576 6.43555 29.8975 6.88477 30.6592C7.33398 31.4209 7.92969 32.0752 8.67188 32.6221C9.84375 33.501 11.0938 34.0674 12.4219 34.3213C13.7695 34.5557 15.127 34.5459 16.4941 34.292C17.8809 34.0381 19.2578 33.5693 20.625 32.8857C21.9922 32.2021 23.291 31.3818 24.5215 30.4248C25.7715 29.4482 26.9141 28.3545 27.9492 27.1436C29.0039 25.9326 29.8926 24.6826 30.6152 23.3936C31.3379 22.1045 31.875 20.8057 32.2266 19.4971C32.5977 18.1885 32.7148 16.9287 32.5781 15.7178C32.5195 14.8389 32.3438 14.0088 32.0508 13.2275C31.7773 12.4268 31.3672 11.7334 30.8203 11.1475C30.2734 10.5615 29.5996 10.1025 28.7988 9.77051C27.998 9.43848 27.041 9.28223 25.9277 9.30176C24.5996 9.32129 23.3594 9.59473 22.207 10.1221C21.0547 10.6299 20.0293 11.3135 19.1309 12.1729C18.2324 13.0127 17.4805 13.9697 16.875 15.0439C16.2695 16.1182 15.8496 17.2119 15.6152 18.3252C15.5176 18.4814 15.459 18.6377 15.4395 18.7939C15.4395 18.9502 15.4395 19.126 15.4395 19.3213C15.459 19.6924 15.3711 19.9756 15.1758 20.1709C14.9805 20.3467 14.7852 20.415 14.5898 20.376C14.4141 20.3174 14.2871 20.1416 14.209 19.8486C14.1309 19.5361 14.2188 19.0869 14.4727 18.501C14.8242 17.1338 15.3613 15.8447 16.084 14.6338C16.8066 13.4033 17.6758 12.3193 18.6914 11.3818C19.707 10.4443 20.8594 9.70215 22.1484 9.15527C23.4375 8.6084 24.834 8.3252 26.3379 8.30566C27.002 8.28613 27.7344 8.39355 28.5352 8.62793C29.3555 8.8623 30.1172 9.2627 30.8203 9.8291C31.543 10.3955 32.1582 11.1475 32.666 12.085C33.1934 13.0225 33.5059 14.1943 33.6035 15.6006C33.7207 16.9287 33.5645 18.3252 33.1348 19.79C32.7246 21.2549 32.1094 22.7002 31.2891 24.126C30.4688 25.5518 29.4824 26.9189 28.3301 28.2275C27.1777 29.5361 25.9277 30.7178 24.5801 31.7725C23.2324 32.8076 21.8066 33.667 20.3027 34.3506C18.8184 35.0342 17.3242 35.4736 15.8203 35.6689C14.3359 35.8447 12.8711 35.7275 11.4258 35.3174C9.98047 34.9072 8.63281 34.126 7.38281 32.9736C6.64062 32.29 6.05469 31.4307 5.625 30.3955C5.21484 29.3604 4.93164 28.2373 4.77539 27.0264C4.63867 25.8154 4.62891 24.5752 4.74609 23.3057C4.86328 22.0361 5.09766 20.8252 5.44922 19.6729C5.97656 17.9346 6.72852 16.2549 7.70508 14.6338C8.68164 13.0127 9.82422 11.499 11.1328 10.0928C12.4609 8.66699 13.9258 7.36816 15.5273 6.19629C17.1289 5.00488 18.8184 3.96973 20.5957 3.09082C22.373 2.21191 24.209 1.50879 26.1035 0.981445C28.0176 0.454102 29.9316 0.141602 31.8457 0.0439453C33.7793 -0.0732422 35.6836 0.0439453 37.5586 0.395508C39.4531 0.727539 41.2793 1.33301 43.0371 2.21191C43.916 2.66113 44.7559 3.15918 45.5566 3.70605C46.3574 4.2334 47.0996 4.81934 47.7832 5.46387C48.6621 4.78027 49.5605 4.16504 50.4785 3.61816C51.416 3.05176 52.4121 2.56348 53.4668 2.15332C53.5254 2.11426 53.5742 2.13379 53.6133 2.21191C53.6719 2.29004 53.7207 2.3877 53.7598 2.50488C53.7598 2.62207 53.7207 2.74902 53.6426 2.88574C53.584 3.00293 53.457 3.09082 53.2617 3.14941ZM37.0312 23.7451C36.0547 25.6201 35.0195 27.4463 33.9258 29.2236C32.832 31.001 31.6309 32.6709 30.3223 34.2334C29.0137 35.7764 27.5684 37.1924 25.9863 38.4814C24.4238 39.751 22.6953 40.8252 20.8008 41.7041C21.9922 42.0166 23.2031 42.2412 24.4336 42.3779C25.6641 42.5146 26.9531 42.5146 28.3008 42.3779C30.3711 42.1631 32.3242 41.6455 34.1602 40.8252C36.0156 40.0049 37.7344 38.9697 39.3164 37.7197C40.8984 36.4502 42.3242 35.0049 43.5938 33.3838C44.8828 31.7432 45.9863 30.0244 46.9043 28.2275C47.8223 26.4111 48.5352 24.5459 49.043 22.6318C49.5703 20.7178 49.8633 18.8428 49.9219 17.0068C49.9805 15.1709 49.7852 13.4131 49.3359 11.7334C48.9062 10.0342 48.2031 8.50098 47.2266 7.13379C46.2695 8.12988 45.3516 9.2627 44.4727 10.5322C43.6133 11.8018 42.7637 13.1494 41.9238 14.5752C41.1035 16.001 40.2832 17.4951 39.4629 19.0576C38.6621 20.6006 37.8516 22.1631 37.0312 23.7451ZM5.15625 39.3311C4.66797 39.3506 4.18945 39.3994 3.7207 39.4775C3.27148 39.5361 2.86133 39.6436 2.49023 39.7998C2.11914 39.9561 1.79688 40.1611 1.52344 40.415C1.26953 40.6689 1.10352 40.9814 1.02539 41.3525C1.2793 41.958 1.74805 42.4268 2.43164 42.7588C3.11523 43.0908 3.92578 43.3154 4.86328 43.4326C5.82031 43.5693 6.8457 43.6182 7.93945 43.5791C9.0332 43.54 10.1074 43.4521 11.1621 43.3154C12.2168 43.1787 13.2129 43.0127 14.1504 42.8174C15.0879 42.6221 15.8594 42.4365 16.4648 42.2607C16.9922 42.085 17.5195 41.8994 18.0469 41.7041C17.0312 41.4111 16.0059 41.1182 14.9707 40.8252C13.9551 40.5322 12.9199 40.2686 11.8652 40.0342C10.8105 39.7998 9.72656 39.624 8.61328 39.5068C7.5 39.3701 6.34766 39.3115 5.15625 39.3311Z" fill="#212844"/>
<path d="M70.6934 33.3545H71.5723C71.1816 33.9795 70.7715 34.5947 70.3418 35.2002C69.9121 35.8057 69.3359 36.5674 68.6133 37.4854C67.8906 38.4033 67.207 39.2041 66.5625 39.8877C65.9375 40.5518 65.2637 41.1279 64.541 41.6162C63.8184 42.1045 63.1934 42.3486 62.666 42.3486C62.4707 42.3486 62.2754 42.3291 62.0801 42.29C61.8848 42.2314 61.6504 42.124 61.377 41.9678C61.123 41.8115 60.8984 41.6064 60.7031 41.3525C60.5273 41.0986 60.3711 40.7373 60.2344 40.2686C60.0977 39.7998 60.0293 39.2529 60.0293 38.6279C60.0293 37.9834 60.2832 37.1729 60.791 36.1963C61.3184 35.2197 61.9531 34.2432 62.6953 33.2666C63.4375 32.2705 64.1797 31.3135 64.9219 30.3955C65.6641 29.458 66.2891 28.5986 66.7969 27.8174C67.3242 27.0361 67.5879 26.4697 67.5879 26.1182C67.5879 25.708 67.4414 25.5029 67.1484 25.5029C66.543 25.5029 65.752 25.874 64.7754 26.6162C63.8184 27.3389 62.8711 28.2178 61.9336 29.2529C60.9961 30.2881 60.0977 31.333 59.2383 32.3877C58.3789 33.4229 57.6855 34.3018 57.1582 35.0244L56.3672 36.1377L41.1328 60.6006H37.8809L52.002 38.0713L54.4922 33.4131L59.9121 24.7119H63.2227L63.1641 24.7998C62.4805 25.9912 61.2598 27.9932 59.502 30.8057C62.7246 26.6455 65.4199 24.5654 67.5879 24.5654C68.2129 24.5654 68.7305 24.7607 69.1406 25.1514C69.5703 25.542 69.7852 26.167 69.7852 27.0264C69.7852 27.749 69.5117 28.6279 68.9648 29.6631C68.4375 30.6982 67.793 31.7334 67.0312 32.7686C66.2891 33.8037 65.5371 34.8193 64.7754 35.8154C64.0137 36.8115 63.3691 37.749 62.8418 38.6279C62.3145 39.4873 62.0508 40.1611 62.0508 40.6494C62.0508 41.2744 62.2559 41.5869 62.666 41.5869C63.1738 41.5869 63.7988 41.2939 64.541 40.708C65.2832 40.1221 66.0547 39.3506 66.8555 38.3936C67.6758 37.4365 68.3789 36.5674 68.9648 35.7861C69.5703 34.9854 70.1465 34.1748 70.6934 33.3545Z" fill="#212844"/>
<path d="M73.2422 41.5869C75.1953 41.5869 78.2715 38.8428 82.4707 33.3545H83.3789C82.4609 34.5654 81.5723 35.6689 80.7129 36.665C79.873 37.6416 78.9844 38.5791 78.0469 39.4775C77.1289 40.376 76.2402 41.0791 75.3809 41.5869C74.5215 42.0947 73.75 42.3486 73.0664 42.3486C72.0312 42.3486 71.1523 41.9775 70.4297 41.2354C69.7266 40.4932 69.375 39.3701 69.375 37.8662C69.375 36.5576 69.7656 35.1123 70.5469 33.5303C71.3281 31.9287 72.2949 30.4736 73.4473 29.165C74.6191 27.8564 75.918 26.7627 77.3438 25.8838C78.7695 25.0049 80.0879 24.5654 81.2988 24.5654C81.5137 24.5654 81.7285 24.6045 81.9434 24.6826C82.1777 24.7607 82.4121 24.8975 82.6465 25.0928C82.8809 25.2686 83.0664 25.5518 83.2031 25.9424C83.3594 26.3135 83.4375 26.7822 83.4375 27.3486C83.4375 28.6377 82.9102 29.8779 81.8555 31.0693C80.8008 32.2607 79.541 33.1299 78.0762 33.6768C76.6113 34.2041 75.3223 34.2627 74.209 33.8525C72.8418 36.3721 72.1582 38.3252 72.1582 39.7119C72.1582 40.9619 72.5195 41.5869 73.2422 41.5869ZM81.123 25.1807C80.5957 25.1807 79.6289 26.04 78.2227 27.7588C76.8359 29.4775 75.5664 31.3721 74.4141 33.4424C75.1367 33.5596 75.8691 33.4424 76.6113 33.0908C77.373 32.7393 78.0371 32.2607 78.6035 31.6553C79.1895 31.0303 79.707 30.3564 80.1562 29.6338C80.625 28.8916 80.9766 28.1787 81.2109 27.4951C81.4648 26.8115 81.5918 26.2451 81.5918 25.7959C81.5918 25.3857 81.4355 25.1807 81.123 25.1807Z" fill="#212844"/>
<path d="M94.9219 33.3545C94.3945 34.1553 93.877 34.9072 93.3691 35.6104C92.8613 36.3135 92.2266 37.0947 91.4648 37.9541C90.7227 38.8135 90 39.5557 89.2969 40.1807C88.5938 40.7861 87.832 41.3037 87.0117 41.7334C86.1914 42.1436 85.4199 42.3486 84.6973 42.3486C83.6621 42.3486 82.7832 41.9873 82.0605 41.2646C81.3574 40.542 81.0059 39.4385 81.0059 37.9541C81.0059 36.9189 81.2598 35.7764 81.7676 34.5264C82.2559 33.2764 82.9102 32.0752 83.7305 30.9229C84.5703 29.7705 85.4883 28.7158 86.4844 27.7588C87.5 26.8018 88.5645 26.0303 89.6777 25.4443C90.791 24.8584 91.8262 24.5654 92.7832 24.5654C92.998 24.5654 93.2129 24.6045 93.4277 24.6826C93.6426 24.7607 93.8672 24.8975 94.1016 25.0928C94.3555 25.2686 94.5508 25.5518 94.6875 25.9424C94.8438 26.3135 94.9219 26.7725 94.9219 27.3193C94.9219 27.9443 94.6973 28.6084 94.248 29.3115C93.8184 30.0146 93.3301 30.3662 92.7832 30.3662C92.5098 30.3662 92.2852 30.2686 92.1094 30.0732C91.9336 29.8779 91.8457 29.5654 91.8457 29.1357C91.8457 28.7061 91.9824 28.2471 92.2559 27.7588C92.5488 27.2705 92.832 26.8604 93.1055 26.5283C93.3984 26.1963 93.5449 26.001 93.5449 25.9424C93.5449 25.7861 93.4668 25.6201 93.3105 25.4443C93.1543 25.2686 92.9785 25.1807 92.7832 25.1807C92.3145 25.1807 91.5625 25.7666 90.5273 26.9385C89.4922 28.0908 88.4668 29.458 87.4512 31.04C86.4355 32.6025 85.5371 34.2529 84.7559 35.9912C83.9941 37.7295 83.6133 39.0967 83.6133 40.0928C83.6133 40.5811 83.7109 40.9521 83.9062 41.2061C84.1211 41.46 84.4824 41.5869 84.9902 41.5869C87.2363 41.5869 90.2441 38.8428 94.0137 33.3545H94.9219Z" fill="#212844"/>
<path d="M106.465 33.3545C105.938 34.1553 105.42 34.9072 104.912 35.6104C104.404 36.3135 103.77 37.0947 103.008 37.9541C102.266 38.8135 101.543 39.5557 100.84 40.1807C100.137 40.7861 99.375 41.3037 98.5547 41.7334C97.7344 42.1436 96.9629 42.3486 96.2402 42.3486C95.2051 42.3486 94.3262 41.9873 93.6035 41.2646C92.9004 40.542 92.5488 39.4385 92.5488 37.9541C92.5488 36.9189 92.8027 35.7764 93.3105 34.5264C93.7988 33.2764 94.4531 32.0752 95.2734 30.9229C96.1133 29.7705 97.0312 28.7158 98.0273 27.7588C99.043 26.8018 100.107 26.0303 101.221 25.4443C102.334 24.8584 103.369 24.5654 104.326 24.5654C104.541 24.5654 104.756 24.6045 104.971 24.6826C105.186 24.7607 105.41 24.8975 105.645 25.0928C105.898 25.2686 106.094 25.5518 106.23 25.9424C106.387 26.3135 106.465 26.7725 106.465 27.3193C106.465 27.9443 106.24 28.6084 105.791 29.3115C105.361 30.0146 104.873 30.3662 104.326 30.3662C104.053 30.3662 103.828 30.2686 103.652 30.0732C103.477 29.8779 103.389 29.5654 103.389 29.1357C103.389 28.7061 103.525 28.2471 103.799 27.7588C104.092 27.2705 104.375 26.8604 104.648 26.5283C104.941 26.1963 105.088 26.001 105.088 25.9424C105.088 25.7861 105.01 25.6201 104.854 25.4443C104.697 25.2686 104.521 25.1807 104.326 25.1807C103.857 25.1807 103.105 25.7666 102.07 26.9385C101.035 28.0908 100.01 29.458 98.9941 31.04C97.9785 32.6025 97.0801 34.2529 96.2988 35.9912C95.5371 37.7295 95.1562 39.0967 95.1562 40.0928C95.1562 40.5811 95.2539 40.9521 95.4492 41.2061C95.6641 41.46 96.0254 41.5869 96.5332 41.5869C98.7793 41.5869 101.787 38.8428 105.557 33.3545H106.465Z" fill="#212844"/>
<path d="M111.592 28.6963V27.9639H121.23V28.6963H111.592Z" fill="#212844"/>
<path d="M138.955 30.0439C138.682 30.0439 138.457 29.9561 138.281 29.7803C138.105 29.585 138.018 29.2725 138.018 28.8428C138.018 28.3936 138.154 27.9346 138.428 27.4658C138.721 26.9775 139.004 26.5771 139.277 26.2646C139.57 25.9326 139.717 25.7373 139.717 25.6787C139.717 25.5029 139.648 25.3271 139.512 25.1514C139.375 24.9756 139.189 24.8877 138.955 24.8877C138.584 24.8877 138.184 25.0439 137.754 25.3564C137.324 25.6689 136.885 26.0693 136.436 26.5576C135.986 27.0264 135.273 27.7393 134.297 28.6963C133.32 29.6338 132.275 30.5615 131.162 31.4795C132.803 31.5967 133.623 32.4463 133.623 34.0283C133.623 34.4971 133.398 35.2295 132.949 36.2256C132.5 37.2021 132.051 38.1396 131.602 39.0381C131.152 39.9365 130.928 40.5225 130.928 40.7959C130.928 41.3232 131.143 41.5869 131.572 41.5869C132.08 41.5869 132.705 41.2939 133.447 40.708C134.209 40.1221 134.99 39.3506 135.791 38.3936C136.592 37.4365 137.295 36.5576 137.9 35.7568C138.506 34.9561 139.072 34.1553 139.6 33.3545H140.479C140.107 33.9404 139.688 34.5557 139.219 35.2002C138.77 35.8447 138.184 36.6162 137.461 37.5146C136.758 38.4131 136.074 39.2041 135.41 39.8877C134.766 40.5518 134.082 41.1279 133.359 41.6162C132.637 42.1045 132.012 42.3486 131.484 42.3486C131.309 42.3486 131.113 42.3291 130.898 42.29C130.684 42.251 130.439 42.1729 130.166 42.0557C129.893 41.9189 129.648 41.7529 129.434 41.5576C129.238 41.3428 129.062 41.0498 128.906 40.6787C128.77 40.3076 128.701 39.8877 128.701 39.4189C128.701 38.9307 128.955 38.1885 129.463 37.1924C129.99 36.1963 130.508 35.2686 131.016 34.4092C131.523 33.5303 131.777 33.0029 131.777 32.8271C131.777 32.6123 131.699 32.4365 131.543 32.2998C131.387 32.1631 131.221 32.0947 131.045 32.0947C130.225 32.0947 129.375 32.417 128.496 33.0615L122.754 42.2021H119.326L130.254 24.624H134.092L129.229 31.9189C129.58 31.7432 129.922 31.6162 130.254 31.5381C130.625 31.167 131.133 30.6201 131.777 29.8975C132.422 29.1553 133.018 28.4912 133.564 27.9053C134.111 27.3193 134.697 26.7334 135.322 26.1475C135.947 25.542 136.572 25.0732 137.197 24.7412C137.822 24.3896 138.408 24.2139 138.955 24.2139C139.189 24.2139 139.414 24.2529 139.629 24.3311C139.844 24.4092 140.068 24.5459 140.303 24.7412C140.537 24.917 140.723 25.2002 140.859 25.5908C141.016 25.9814 141.094 26.4502 141.094 26.9971C141.094 27.6025 140.879 28.2666 140.449 28.9893C140.02 29.6924 139.521 30.0439 138.955 30.0439Z" fill="#212844"/>
<path d="M156.035 28.0811L156.533 28.7549C155.576 29.5752 154.766 30.1904 154.102 30.6006C153.457 30.9912 152.881 31.2646 152.373 31.4209C152.139 31.4795 151.963 31.5283 151.846 31.5674C151.729 31.6064 151.562 31.6357 151.348 31.6553C151.25 31.6748 151.162 31.6846 151.084 31.6846C151.025 31.6846 150.977 31.6846 150.938 31.6846H150.117C149.941 32.1143 149.746 32.5439 149.531 32.9736C149.316 33.4033 149.082 33.8428 148.828 34.292C147.461 36.7334 145.947 38.6963 144.287 40.1807C142.666 41.626 141.289 42.3486 140.156 42.3486C139.277 42.3486 138.623 41.9482 138.193 41.1475C137.744 40.3467 137.52 39.3506 137.52 38.1592C137.52 37.6123 137.598 37.0264 137.754 36.4014C137.91 35.7764 138.135 35.1514 138.428 34.5264C138.721 33.8818 139.062 33.2471 139.453 32.6221C139.863 31.9971 140.303 31.4014 140.771 30.835C141.455 29.9756 142.207 29.165 143.027 28.4033C143.848 27.6416 144.668 26.9775 145.488 26.4111C146.309 25.8252 147.09 25.3662 147.832 25.0342C148.574 24.7021 149.219 24.5459 149.766 24.5654C150.137 24.5654 150.439 24.7217 150.674 25.0342C150.928 25.3271 151.094 25.7471 151.172 26.2939C151.25 26.8408 151.23 27.5049 151.113 28.2861C150.996 29.0674 150.762 29.9365 150.41 30.8936C151.895 30.835 153.77 29.8975 156.035 28.0811ZM148.008 33.999C148.281 33.5107 148.516 33.0615 148.711 32.6514C148.926 32.2217 149.111 31.8311 149.268 31.4795C148.779 31.2451 148.447 30.874 148.271 30.3662C148.096 29.8389 148.037 29.3311 148.096 28.8428C148.154 28.2764 148.438 27.6904 148.945 27.085C149.453 26.499 149.961 26.1572 150.469 26.0596C150.312 25.4736 150.078 25.1807 149.766 25.1807C148.867 25.1807 147.812 25.8154 146.602 27.085C145.391 28.3545 144.307 29.8486 143.35 31.5674C142.861 32.4268 142.402 33.2959 141.973 34.1748C141.562 35.0342 141.191 35.9131 140.859 36.8115C140.176 38.6279 139.834 40.0146 139.834 40.9717C139.834 41.3818 139.941 41.5869 140.156 41.5869C141.074 41.5869 142.314 40.8545 143.877 39.3896C145.439 37.9053 146.816 36.1084 148.008 33.999Z" fill="#212844"/>
<path d="M156.299 44.7803C158.721 44.8779 160.283 45.7178 160.986 47.2998L160.488 47.5928C160.117 46.9092 159.59 46.3721 158.906 45.9814C158.223 45.6104 157.236 45.4053 155.947 45.3662L150.645 54.1846C149.902 55.3369 149.15 56.333 148.389 57.1729C147.627 58.0322 146.963 58.667 146.396 59.0771C145.83 59.5068 145.273 59.8389 144.727 60.0732C144.16 60.3271 143.74 60.4736 143.467 60.5127C143.193 60.5713 142.949 60.6006 142.734 60.6006C141.797 60.6006 141.328 60.0049 141.328 58.8135C141.328 57.7002 141.689 56.4502 142.412 55.0635C143.135 53.6963 144.053 52.3975 145.166 51.167C146.279 49.9365 147.529 48.7939 148.916 47.7393C150.283 46.7041 151.602 45.9229 152.871 45.3955L156.68 39.2432C154.785 41.3135 153.467 42.3486 152.725 42.3486C151.846 42.3486 151.191 41.9482 150.762 41.1475C150.312 40.3467 150.088 39.3506 150.088 38.1592C150.088 37.2217 150.312 36.2158 150.762 35.1416C151.191 34.0479 151.768 33.0127 152.49 32.0361C153.213 31.04 154.023 30.083 154.922 29.165C155.84 28.2471 156.748 27.4561 157.646 26.792C158.564 26.1084 159.453 25.5713 160.312 25.1807C161.191 24.7705 161.934 24.5654 162.539 24.5654C163.418 24.5654 163.779 25.3467 163.623 26.9092L164.854 24.7119H168.369L156.299 44.7803ZM152.725 41.5576C153.232 41.5576 154.033 41.0107 155.127 39.917C156.221 38.8037 157.295 37.5732 158.35 36.2256L158.789 35.4346L162.715 28.5498C162.793 28.1592 162.861 27.7783 162.92 27.4072C162.979 27.0166 163.018 26.6455 163.037 26.2939C163.057 25.9424 163.018 25.6689 162.92 25.4736C162.842 25.2588 162.715 25.1514 162.539 25.1514C161.621 25.1514 160.557 25.7861 159.346 27.0557C158.135 28.3252 157.031 29.8193 156.035 31.5381C155.039 33.2568 154.189 35.0049 153.486 36.7822C152.783 38.5596 152.432 39.9463 152.432 40.9424C152.432 41.3525 152.529 41.5576 152.725 41.5576ZM142.559 59.8682C143.008 59.8682 143.594 59.4873 144.316 58.7256C145.039 57.9834 145.762 57.0654 146.484 55.9717C147.188 54.8975 147.871 53.8232 148.535 52.749C149.18 51.6748 149.707 50.7666 150.117 50.0244L150.732 48.8818L152.285 46.333C150.723 47.1143 149.15 48.2764 147.568 49.8193C145.967 51.3623 144.658 52.9834 143.643 54.6826C142.607 56.3818 142.09 57.8369 142.09 59.0479C142.09 59.5557 142.246 59.8291 142.559 59.8682Z" fill="#212844"/>
</svg>
