<svg width="289" height="62" viewBox="0 0 289 62" fill="none" xmlns="http://www.w3.org/2000/svg">
<path d="M69.0656 2.69897C66.3703 4.22241 63.9484 5.97046 61.8 7.94312C59.6711 9.89624 57.7082 11.9763 55.9113 14.1833C54.1145 16.3708 52.4348 18.6267 50.8723 20.9509C49.3293 23.2751 47.8059 25.5505 46.302 27.7771C44.798 29.9841 43.2551 32.0935 41.673 34.1052C40.091 36.1169 38.3723 37.9138 36.5168 39.4958C34.6613 41.0779 32.6203 42.3865 30.3937 43.4216C28.1672 44.4763 25.6477 45.1501 22.8352 45.4431C20.9602 45.6384 19.1242 45.6775 17.3273 45.5603C15.5305 45.4431 13.8117 45.1501 12.1711 44.6814C10.55 44.2126 9.03633 43.5681 7.63008 42.7478C6.22383 41.9275 4.98359 40.9216 3.90937 39.7302C2.85469 38.5193 1.98555 37.113 1.30195 35.5115C0.637891 33.9099 0.217969 32.1033 0.0421875 30.0916C-0.075 28.5486 0.0519531 27.074 0.423047 25.6677C0.794141 24.2615 1.35078 22.9529 2.09297 21.7419C2.85469 20.531 3.75313 19.447 4.78828 18.49C5.84297 17.5134 6.99531 16.6833 8.24531 15.9998C9.51484 15.2966 10.843 14.7595 12.2297 14.3884C13.6164 13.9978 15.0129 13.8025 16.4191 13.8025C17.6691 13.6462 18.9289 13.6365 20.1984 13.7732C21.4875 13.8904 22.7277 14.1443 23.9191 14.5349C25.1301 14.9255 26.2531 15.4333 27.2883 16.0583C28.343 16.6833 29.2609 17.4353 30.0422 18.3142C30.8234 19.1736 31.4387 20.1501 31.8879 21.2439C32.3371 22.3376 32.5617 23.5291 32.5617 24.8181C32.4836 26.3806 32.0734 27.8259 31.3312 29.1541C30.6086 30.4626 29.6613 31.6052 28.4895 32.5818C27.3371 33.5388 26.0187 34.2908 24.5344 34.8376C23.05 35.3845 21.5168 35.658 19.9348 35.658C18.9191 35.6384 17.8937 35.5505 16.8586 35.3943C15.8234 35.238 14.8469 34.9939 13.9289 34.6619C13.0109 34.3298 12.1809 33.8904 11.4387 33.3435C10.6965 32.7771 10.1203 32.074 9.71016 31.2341C9.31953 30.4138 9.10469 29.5447 9.06563 28.6267C9.04609 27.6892 9.18281 26.7908 9.47578 25.9314C9.76875 25.072 10.2082 24.281 10.7941 23.5583C11.3996 22.8357 12.132 22.2498 12.9914 21.8005C13.2453 21.8396 13.3918 21.9568 13.4309 22.1521C13.4699 22.3279 13.4895 22.533 13.4895 22.7673C12.6691 23.1775 11.9953 23.6951 11.468 24.3201C10.9602 24.9451 10.5891 25.6189 10.3547 26.3416C10.1203 27.0642 10.0227 27.8162 10.0617 28.5974C10.1008 29.3591 10.2766 30.072 10.5891 30.7361C11.0188 31.5759 11.6145 32.2498 12.3762 32.7576C13.1379 33.2458 13.9875 33.6267 14.925 33.9001C15.8625 34.1541 16.8488 34.3298 17.884 34.4275C18.9191 34.5056 19.9152 34.5544 20.8723 34.574C22.3371 34.4373 23.7336 34.0662 25.0617 33.4607C26.4094 32.8357 27.5812 32.0349 28.5773 31.0583C29.5734 30.0623 30.3352 28.9294 30.8625 27.6599C31.3898 26.3708 31.5754 25.0037 31.4191 23.5583C31.2824 22.1521 30.8234 20.9021 30.0422 19.8083C29.2805 18.6951 28.2941 17.7576 27.0832 16.9958C25.8723 16.2341 24.4953 15.658 22.9523 15.2673C21.4094 14.8572 19.798 14.6521 18.1184 14.6521C16.341 14.6521 14.5441 14.8767 12.7277 15.3259C10.9113 15.7751 9.18281 16.5173 7.54219 17.5525C6.60469 18.158 5.73555 18.8708 4.93477 19.6912C4.13398 20.4919 3.44062 21.4099 2.85469 22.4451C2.26875 23.4607 1.80977 24.5837 1.47773 25.8142C1.1457 27.0447 0.979688 28.3923 0.979688 29.8572C0.979688 31.7517 1.30195 33.4509 1.94648 34.9548C2.61055 36.4587 3.48945 37.7869 4.5832 38.9392C5.67695 40.072 6.94648 41.0291 8.3918 41.8103C9.83711 42.5916 11.341 43.2068 12.9035 43.656C14.466 44.1052 16.0383 44.3787 17.6203 44.4763C19.2219 44.574 20.7258 44.5154 22.132 44.3005C24.3586 43.9685 26.4191 43.363 28.3137 42.4841C30.2082 41.5857 31.9855 40.4919 33.6457 39.2029C35.3254 37.9138 36.8977 36.4587 38.3625 34.8376C39.8469 33.2166 41.2824 31.4978 42.6691 29.6814C44.0754 27.865 45.4621 25.99 46.8293 24.0564C48.216 22.1228 49.632 20.199 51.0773 18.2849C52.5227 16.3708 54.0266 14.5056 55.5891 12.6892C57.1516 10.8533 58.8312 9.14429 60.6281 7.56226C62.4445 5.98022 64.3879 4.55444 66.4582 3.28491C68.548 1.99585 70.8234 0.931396 73.2844 0.0915527C73.5969 -0.00610352 73.8215 -0.0256348 73.9582 0.032959C74.0949 0.0915527 74.1242 0.198975 74.0461 0.355225C73.968 0.491943 73.7824 0.657959 73.4895 0.853271C73.216 1.02905 72.8254 1.19507 72.3176 1.35132C70.9309 2.60132 69.7102 3.90991 68.6555 5.2771C67.6008 6.64429 66.6438 8.07007 65.7844 9.55444C64.9445 11.0193 64.1633 12.533 63.4406 14.0955C62.7375 15.6384 62.0246 17.2205 61.302 18.8416C60.5988 20.4431 59.8566 22.0642 59.0754 23.7048C58.3137 25.3455 57.4445 26.9861 56.468 28.6267C55.4914 30.2673 54.3781 31.908 53.1281 33.5486C51.8977 35.1892 50.4621 36.8005 48.8215 38.3826C49.5441 37.8943 50.4133 37.1326 51.4289 36.0974C52.4445 35.0427 53.5676 33.8123 54.798 32.406C56.048 30.9998 57.3957 29.4568 58.841 27.7771C60.2863 26.0779 61.7902 24.3298 63.3527 22.533C64.9348 20.7361 66.5559 18.9197 68.216 17.0837C69.8957 15.2478 71.5852 13.49 73.2844 11.8103C74.9836 10.1306 76.673 8.56812 78.3527 7.1228C80.052 5.67749 81.7023 4.42749 83.3039 3.3728C84.925 2.31812 86.4777 1.51733 87.9621 0.970459C89.466 0.404053 90.882 0.169678 92.2102 0.267334C92.5031 0.169678 92.6496 0.159912 92.6496 0.238037C92.6691 0.316162 92.6789 0.462646 92.6789 0.67749C92.6789 0.775146 92.6203 0.853271 92.5031 0.911865C92.4055 0.950928 92.3371 1.01929 92.298 1.11694C90.9113 1.80054 89.4953 2.78687 88.05 4.07593C86.6047 5.34546 85.1594 6.8396 83.7141 8.55835C82.2688 10.2576 80.8332 12.1228 79.4074 14.1541C77.9816 16.1658 76.5949 18.2458 75.2473 20.3943C73.8996 22.5232 72.6008 24.6716 71.3508 26.8396C70.1008 28.988 68.9289 31.0583 67.8352 33.0505C66.7609 35.0232 65.7648 36.8591 64.8469 38.5583C63.9484 40.2576 63.1574 41.7224 62.4738 42.9529L54.6516 43.0115C55.7844 41.6833 57.0246 40.1404 58.3723 38.3826C59.7199 36.6052 61.1457 34.7205 62.6496 32.7283C64.1535 30.7361 65.7063 28.6658 67.3078 26.5173C68.9094 24.3689 70.5207 22.2498 72.1418 20.1599C73.7629 18.0505 75.3645 16.0095 76.9465 14.0369C78.548 12.0642 80.091 10.2576 81.5754 8.61694C83.0598 6.97632 84.4563 5.54077 85.7648 4.3103C87.093 3.07983 88.3039 2.1521 89.3977 1.5271C88.2844 1.60522 87.0441 2.06421 85.677 2.90405C84.3293 3.72437 82.8742 4.82788 81.3117 6.2146C79.7688 7.58179 78.1379 9.17358 76.4191 10.99C74.7004 12.7869 72.9328 14.7009 71.1164 16.7322C69.3195 18.7439 67.4738 20.8142 65.5793 22.9431C63.7043 25.072 61.8195 27.1521 59.925 29.1833C58.05 31.1951 56.175 33.1091 54.3 34.9255C52.4445 36.7224 50.6281 38.3044 48.8508 39.6716C47.093 41.0388 45.384 42.1228 43.7238 42.9236C42.0637 43.7439 40.4914 44.1833 39.007 44.2419L38.5969 43.8025C40.0812 43.3533 41.4582 42.6208 42.7277 41.6052C44.0168 40.5701 45.218 39.3689 46.3312 38.0017C47.4445 36.6345 48.4699 35.1501 49.4074 33.5486C50.3645 31.947 51.2531 30.3357 52.0734 28.7146C52.8937 27.074 53.6555 25.4822 54.3586 23.9392C55.0617 22.3767 55.7258 20.9705 56.3508 19.7205C57.132 18.1775 57.923 16.6931 58.7238 15.2673C59.5246 13.8416 60.4133 12.4353 61.3898 11.0486C62.3859 9.66187 63.4992 8.28491 64.7297 6.91772C65.9797 5.55054 67.425 4.14429 69.0656 2.69897Z" fill="#212844"/>
<path d="M74.3977 42.0447C76.3508 42.0447 79.427 39.3005 83.6262 33.8123H84.5344C83.6164 35.0232 82.7277 36.1267 81.8684 37.1228C81.0285 38.0994 80.1398 39.0369 79.2023 39.9353C78.2844 40.8337 77.3957 41.5369 76.5363 42.0447C75.677 42.5525 74.9055 42.8064 74.2219 42.8064C73.1867 42.8064 72.3078 42.4353 71.5852 41.6931C70.882 40.9509 70.5305 39.8279 70.5305 38.324C70.5305 37.0154 70.9211 35.5701 71.7023 33.988C72.4836 32.3865 73.4504 30.9314 74.6027 29.6228C75.7746 28.3142 77.0734 27.2205 78.4992 26.3416C79.925 25.4626 81.2434 25.0232 82.4543 25.0232C82.6691 25.0232 82.884 25.0623 83.0988 25.1404C83.3332 25.2185 83.5676 25.3552 83.802 25.5505C84.0363 25.7263 84.2219 26.0095 84.3586 26.4001C84.5148 26.7712 84.593 27.24 84.593 27.8064C84.593 29.0955 84.0656 30.3357 83.0109 31.5271C81.9563 32.7185 80.6965 33.5876 79.2316 34.1345C77.7668 34.6619 76.4777 34.7205 75.3645 34.3103C73.9973 36.8298 73.3137 38.783 73.3137 40.1697C73.3137 41.4197 73.675 42.0447 74.3977 42.0447ZM82.2785 25.6384C81.7512 25.6384 80.7844 26.4978 79.3781 28.2166C77.9914 29.9353 76.7219 31.8298 75.5695 33.9001C76.2922 34.0173 77.0246 33.9001 77.7668 33.5486C78.5285 33.197 79.1926 32.7185 79.759 32.113C80.3449 31.488 80.8625 30.8142 81.3117 30.0916C81.7805 29.3494 82.132 28.6365 82.3664 27.9529C82.6203 27.2693 82.7473 26.7029 82.7473 26.2537C82.7473 25.8435 82.591 25.6384 82.2785 25.6384Z" fill="#212844"/>
<path d="M96.0773 33.8123C95.55 34.613 95.0324 35.365 94.5246 36.0681C94.0168 36.7712 93.382 37.5525 92.6203 38.4119C91.8781 39.2712 91.1555 40.0134 90.4523 40.6384C89.7492 41.2439 88.9875 41.7615 88.1672 42.1912C87.3469 42.6013 86.5754 42.8064 85.8527 42.8064C84.8176 42.8064 83.9387 42.4451 83.216 41.7224C82.5129 40.9998 82.1613 39.8962 82.1613 38.4119C82.1613 37.3767 82.4152 36.2341 82.923 34.9841C83.4113 33.7341 84.0656 32.533 84.8859 31.3806C85.7258 30.2283 86.6438 29.1736 87.6398 28.2166C88.6555 27.2595 89.7199 26.488 90.8332 25.9021C91.9465 25.3162 92.9816 25.0232 93.9387 25.0232C94.1535 25.0232 94.3684 25.0623 94.5832 25.1404C94.798 25.2185 95.0227 25.3552 95.257 25.5505C95.5109 25.7263 95.7063 26.0095 95.843 26.4001C95.9992 26.7712 96.0773 27.2302 96.0773 27.7771C96.0773 28.4021 95.8527 29.0662 95.4035 29.7693C94.9738 30.4724 94.4855 30.824 93.9387 30.824C93.6652 30.824 93.4406 30.7263 93.2648 30.531C93.0891 30.3357 93.0012 30.0232 93.0012 29.5935C93.0012 29.1638 93.1379 28.7048 93.4113 28.2166C93.7043 27.7283 93.9875 27.3181 94.2609 26.9861C94.5539 26.6541 94.7004 26.4587 94.7004 26.4001C94.7004 26.2439 94.6223 26.0779 94.466 25.9021C94.3098 25.7263 94.134 25.6384 93.9387 25.6384C93.4699 25.6384 92.718 26.2244 91.6828 27.3962C90.6477 28.5486 89.6223 29.9158 88.6066 31.4978C87.591 33.0603 86.6926 34.7107 85.9113 36.449C85.1496 38.1873 84.7688 39.5544 84.7688 40.5505C84.7688 41.0388 84.8664 41.4099 85.0617 41.6638C85.2766 41.9177 85.6379 42.0447 86.1457 42.0447C88.3918 42.0447 91.3996 39.3005 95.1691 33.8123H96.0773Z" fill="#212844"/>
<path d="M118.607 33.8123H119.486C119.095 34.4373 118.685 35.0525 118.255 35.658C117.825 36.2634 117.249 37.0251 116.527 37.9431C115.804 38.8611 115.12 39.6619 114.476 40.3455C113.851 41.0095 113.177 41.5857 112.454 42.074C111.751 42.5623 111.126 42.8064 110.579 42.8064C110.404 42.8064 110.208 42.7869 109.993 42.7478C109.798 42.6892 109.573 42.5818 109.32 42.4255C109.066 42.2693 108.841 42.0642 108.646 41.8103C108.45 41.5564 108.284 41.1951 108.148 40.7263C108.011 40.2576 107.943 39.7107 107.943 39.0857C107.943 38.4412 108.206 37.6306 108.734 36.6541C109.261 35.6775 109.896 34.7009 110.638 33.7244C111.38 32.7283 112.113 31.7712 112.835 30.8533C113.577 29.9158 114.212 29.0564 114.739 28.2751C115.267 27.4939 115.53 26.9275 115.53 26.5759C115.53 26.1658 115.374 25.9607 115.062 25.9607C114.632 25.9607 114.046 26.2634 113.304 26.8689C112.562 27.4548 111.8 28.197 111.019 29.0955C110.238 29.9744 109.368 31.0388 108.411 32.2888C107.454 33.5193 106.595 34.6521 105.833 35.6873C105.091 36.7224 104.329 37.8064 103.548 38.9392C102.552 40.5017 101.712 41.7419 101.029 42.6599H97.8645C98.1965 42.074 99.2121 40.4724 100.911 37.8552C102.611 35.238 104.066 32.8748 105.277 30.7654C106.488 28.6365 107.093 27.24 107.093 26.5759C107.093 26.1658 106.966 25.9607 106.712 25.9607C106.38 25.9607 105.872 26.2537 105.189 26.8396C104.525 27.406 103.841 28.0798 103.138 28.8611C102.435 29.6423 101.654 30.5798 100.794 31.6736C99.9348 32.7478 99.2219 33.656 98.6555 34.3982C98.1086 35.1208 97.5617 35.8533 97.0148 36.5955L93.4406 42.6599H90.0129L92.7082 38.5291L95.1398 33.8708L100.501 25.1697H103.87C103.792 25.3064 103.587 25.6287 103.255 26.1365C102.943 26.6443 102.581 27.2205 102.171 27.865C101.78 28.5095 101.507 28.9587 101.351 29.2126C100.726 30.2283 100.247 30.99 99.9152 31.4978C103.138 27.1814 105.56 25.0232 107.181 25.0232C107.767 25.0232 108.255 25.2283 108.646 25.6384C109.056 26.0291 109.261 26.6443 109.261 27.4841C109.261 28.4021 108.607 30.0916 107.298 32.5525C110.794 27.533 113.538 25.0232 115.53 25.0232C116.155 25.0232 116.673 25.2185 117.083 25.6091C117.493 25.9998 117.698 26.6248 117.698 27.4841C117.698 28.2068 117.425 29.0857 116.878 30.1208C116.351 31.156 115.706 32.1912 114.945 33.2263C114.202 34.2615 113.45 35.2771 112.689 36.2732C111.927 37.2693 111.282 38.2068 110.755 39.0857C110.228 39.9451 109.964 40.6189 109.964 41.1072C109.964 41.7322 110.169 42.0447 110.579 42.0447C110.989 42.0447 111.488 41.8396 112.073 41.4294C112.679 40.9998 113.265 40.4919 113.831 39.906C114.398 39.3005 115.003 38.5974 115.648 37.7966C116.312 36.9958 116.859 36.2927 117.288 35.6873C117.738 35.0623 118.177 34.4373 118.607 33.8123Z" fill="#212844"/>
<path d="M135.042 28.5388L135.54 29.2126C134.583 30.033 133.773 30.6482 133.109 31.0583C132.464 31.449 131.888 31.7224 131.38 31.8787C131.146 31.9373 130.97 31.9861 130.853 32.0251C130.736 32.0642 130.57 32.0935 130.355 32.113C130.257 32.1326 130.169 32.1423 130.091 32.1423C130.032 32.1423 129.984 32.1423 129.945 32.1423H129.124C128.948 32.572 128.753 33.0017 128.538 33.4314C128.323 33.8611 128.089 34.3005 127.835 34.7498C126.468 37.1912 124.954 39.1541 123.294 40.6384C121.673 42.0837 120.296 42.8064 119.163 42.8064C118.284 42.8064 117.63 42.406 117.2 41.6052C116.751 40.8044 116.527 39.8083 116.527 38.6169C116.527 38.0701 116.605 37.4841 116.761 36.8591C116.917 36.2341 117.142 35.6091 117.435 34.9841C117.728 34.3396 118.07 33.7048 118.46 33.0798C118.87 32.4548 119.31 31.8591 119.779 31.2927C120.462 30.4333 121.214 29.6228 122.034 28.8611C122.855 28.0994 123.675 27.4353 124.495 26.8689C125.316 26.283 126.097 25.824 126.839 25.4919C127.581 25.1599 128.226 25.0037 128.773 25.0232C129.144 25.0232 129.446 25.1794 129.681 25.4919C129.935 25.7849 130.101 26.2048 130.179 26.7517C130.257 27.2986 130.238 27.9626 130.12 28.7439C130.003 29.5251 129.769 30.3943 129.417 31.3513C130.902 31.2927 132.777 30.3552 135.042 28.5388ZM127.015 34.4568C127.288 33.9685 127.523 33.5193 127.718 33.1091C127.933 32.6794 128.118 32.2888 128.275 31.9373C127.786 31.7029 127.454 31.3318 127.279 30.824C127.103 30.2966 127.044 29.7888 127.103 29.3005C127.161 28.7341 127.445 28.1482 127.952 27.5427C128.46 26.9568 128.968 26.615 129.476 26.5173C129.32 25.9314 129.085 25.6384 128.773 25.6384C127.874 25.6384 126.82 26.2732 125.609 27.5427C124.398 28.8123 123.314 30.3064 122.357 32.0251C121.868 32.8845 121.409 33.7537 120.98 34.6326C120.57 35.4919 120.198 36.3708 119.866 37.2693C119.183 39.0857 118.841 40.4724 118.841 41.4294C118.841 41.8396 118.948 42.0447 119.163 42.0447C120.081 42.0447 121.321 41.3123 122.884 39.8474C124.446 38.363 125.823 36.5662 127.015 34.4568Z" fill="#212844"/>
<path d="M156.78 33.8123H157.659C157.249 34.4373 156.839 35.0525 156.429 35.658C156.019 36.2634 155.452 37.0251 154.73 37.9431C154.007 38.8611 153.323 39.6619 152.679 40.3455C152.054 41.0095 151.38 41.5857 150.657 42.074C149.935 42.5623 149.31 42.8064 148.782 42.8064C148.587 42.8064 148.392 42.7869 148.196 42.7478C148.001 42.6892 147.767 42.5818 147.493 42.4255C147.239 42.2693 147.015 42.0642 146.82 41.8103C146.644 41.5564 146.488 41.1951 146.351 40.7263C146.214 40.2576 146.146 39.7107 146.146 39.0857C146.146 38.4412 146.4 37.6306 146.907 36.6541C147.435 35.6775 148.07 34.7009 148.812 33.7244C149.554 32.7283 150.296 31.7712 151.038 30.8533C151.78 29.9158 152.405 29.0564 152.913 28.2751C153.441 27.4939 153.704 26.9275 153.704 26.5759C153.704 26.1658 153.558 25.9607 153.265 25.9607C152.659 25.9607 151.868 26.3318 150.892 27.074C149.935 27.7966 148.988 28.6755 148.05 29.7107C147.113 30.7458 146.214 31.7908 145.355 32.8455C144.495 33.8806 143.802 34.7595 143.275 35.4822L142.484 36.5955L138.909 42.6599H135.482L138.177 38.5291L140.609 33.8708L145.97 25.1697H149.339C149.261 25.3064 149.056 25.6287 148.724 26.1365C148.411 26.6443 148.05 27.2205 147.64 27.865C147.249 28.5095 146.976 28.9587 146.82 29.2126C146.058 30.4431 145.452 31.4001 145.003 32.0837C148.499 27.3767 151.4 25.0232 153.704 25.0232C154.329 25.0232 154.847 25.2185 155.257 25.6091C155.687 25.9998 155.902 26.6248 155.902 27.4841C155.902 28.2068 155.628 29.0857 155.081 30.1208C154.554 31.156 153.909 32.1912 153.148 33.2263C152.405 34.2615 151.654 35.2771 150.892 36.2732C150.13 37.2693 149.486 38.2068 148.958 39.0857C148.431 39.9451 148.167 40.6189 148.167 41.1072C148.167 41.7322 148.372 42.0447 148.782 42.0447C149.193 42.0447 149.691 41.8396 150.277 41.4294C150.863 40.9998 151.439 40.4919 152.005 39.906C152.591 39.3005 153.206 38.5974 153.851 37.7966C154.495 36.9958 155.042 36.2927 155.491 35.6873C155.941 35.0623 156.37 34.4373 156.78 33.8123Z" fill="#212844"/>
<path d="M172.923 33.8123H173.802C173.411 34.4373 173.001 35.0525 172.571 35.658C172.142 36.2634 171.566 37.0251 170.843 37.9431C170.12 38.8611 169.437 39.6619 168.792 40.3455C168.167 41.0095 167.493 41.5857 166.771 42.074C166.048 42.5623 165.423 42.8064 164.896 42.8064C164.7 42.8064 164.505 42.7869 164.31 42.7478C164.114 42.6892 163.88 42.5818 163.607 42.4255C163.353 42.2693 163.128 42.0642 162.933 41.8103C162.757 41.5564 162.601 41.1951 162.464 40.7263C162.327 40.2576 162.259 39.7107 162.259 39.0857C162.259 38.4412 162.513 37.6306 163.021 36.6541C163.548 35.6775 164.183 34.7009 164.925 33.7244C165.667 32.7283 166.409 31.7712 167.152 30.8533C167.894 29.9158 168.519 29.0564 169.027 28.2751C169.554 27.4939 169.818 26.9275 169.818 26.5759C169.818 26.1658 169.671 25.9607 169.378 25.9607C168.773 25.9607 167.982 26.3318 167.005 27.074C166.048 27.7966 165.101 28.6755 164.163 29.7107C163.226 30.7458 162.327 31.7908 161.468 32.8455C160.609 33.8806 159.915 34.7595 159.388 35.4822L158.597 36.5955L143.363 61.0583H140.111L154.232 38.5291L156.722 33.8708L162.142 25.1697H165.452L165.394 25.2576C164.71 26.449 163.489 28.4509 161.732 31.2634C164.954 27.1033 167.65 25.0232 169.818 25.0232C170.443 25.0232 170.96 25.2185 171.37 25.6091C171.8 25.9998 172.015 26.6248 172.015 27.4841C172.015 28.2068 171.741 29.0857 171.195 30.1208C170.667 31.156 170.023 32.1912 169.261 33.2263C168.519 34.2615 167.767 35.2771 167.005 36.2732C166.243 37.2693 165.599 38.2068 165.071 39.0857C164.544 39.9451 164.28 40.6189 164.28 41.1072C164.28 41.7322 164.486 42.0447 164.896 42.0447C165.404 42.0447 166.029 41.7517 166.771 41.1658C167.513 40.5798 168.284 39.8083 169.085 38.8513C169.905 37.8943 170.609 37.0251 171.195 36.2439C171.8 35.4431 172.376 34.6326 172.923 33.8123Z" fill="#212844"/>
<path d="M189.3 28.5388L189.798 29.2126C188.841 30.033 188.03 30.6482 187.366 31.0583C186.722 31.449 186.146 31.7224 185.638 31.8787C185.404 31.9373 185.228 31.9861 185.111 32.0251C184.993 32.0642 184.827 32.0935 184.613 32.113C184.515 32.1326 184.427 32.1423 184.349 32.1423C184.29 32.1423 184.241 32.1423 184.202 32.1423H183.382C183.206 32.572 183.011 33.0017 182.796 33.4314C182.581 33.8611 182.347 34.3005 182.093 34.7498C180.726 37.1912 179.212 39.1541 177.552 40.6384C175.931 42.0837 174.554 42.8064 173.421 42.8064C172.542 42.8064 171.888 42.406 171.458 41.6052C171.009 40.8044 170.784 39.8083 170.784 38.6169C170.784 38.0701 170.863 37.4841 171.019 36.8591C171.175 36.2341 171.4 35.6091 171.693 34.9841C171.986 34.3396 172.327 33.7048 172.718 33.0798C173.128 32.4548 173.568 31.8591 174.036 31.2927C174.72 30.4333 175.472 29.6228 176.292 28.8611C177.113 28.0994 177.933 27.4353 178.753 26.8689C179.573 26.283 180.355 25.824 181.097 25.4919C181.839 25.1599 182.484 25.0037 183.03 25.0232C183.402 25.0232 183.704 25.1794 183.939 25.4919C184.193 25.7849 184.359 26.2048 184.437 26.7517C184.515 27.2986 184.495 27.9626 184.378 28.7439C184.261 29.5251 184.027 30.3943 183.675 31.3513C185.159 31.2927 187.034 30.3552 189.3 28.5388ZM181.273 34.4568C181.546 33.9685 181.78 33.5193 181.976 33.1091C182.191 32.6794 182.376 32.2888 182.532 31.9373C182.044 31.7029 181.712 31.3318 181.536 30.824C181.361 30.2966 181.302 29.7888 181.361 29.3005C181.419 28.7341 181.702 28.1482 182.21 27.5427C182.718 26.9568 183.226 26.615 183.734 26.5173C183.577 25.9314 183.343 25.6384 183.03 25.6384C182.132 25.6384 181.077 26.2732 179.866 27.5427C178.655 28.8123 177.571 30.3064 176.614 32.0251C176.126 32.8845 175.667 33.7537 175.238 34.6326C174.827 35.4919 174.456 36.3708 174.124 37.2693C173.441 39.0857 173.099 40.4724 173.099 41.4294C173.099 41.8396 173.206 42.0447 173.421 42.0447C174.339 42.0447 175.579 41.3123 177.142 39.8474C178.704 38.363 180.081 36.5662 181.273 34.4568Z" fill="#212844"/>
<path d="M193.05 26.0486C194.027 25.365 194.896 25.0232 195.657 25.0232C196.029 25.0232 196.331 25.1794 196.566 25.4919C196.82 25.7849 196.976 26.2048 197.034 26.7517C197.113 27.2986 197.093 27.9626 196.976 28.7439C196.859 29.5251 196.634 30.3943 196.302 31.3513C197.786 31.2927 199.661 30.3552 201.927 28.5388L202.425 29.2126C200.882 30.4041 199.632 31.1951 198.675 31.5857C197.757 31.9568 196.898 32.1423 196.097 32.1423H195.98C195.823 32.572 195.638 33.0017 195.423 33.4314C195.208 33.8611 194.964 34.3005 194.691 34.7498C193.323 37.1912 191.81 39.1541 190.15 40.6384C188.529 42.0837 187.161 42.8064 186.048 42.8064C185.169 42.8064 184.515 42.406 184.085 41.6052C183.636 40.8044 183.411 39.8181 183.411 38.6462C183.411 37.1619 183.9 35.5505 184.876 33.8123C185.853 32.113 186.722 30.5798 187.484 29.2126C188.245 27.8259 188.948 26.5564 189.593 25.4041C190.257 24.2517 190.882 23.1775 191.468 22.1814C192.073 21.1658 192.689 20.1794 193.314 19.2224C194.154 17.9333 195.032 16.6931 195.95 15.5017C196.868 14.2908 197.796 13.2263 198.734 12.3083C199.691 11.3904 200.628 10.6873 201.546 10.199C202.464 9.69116 203.343 9.49585 204.183 9.61304C204.827 9.71069 205.228 10.0818 205.384 10.7263C205.54 11.3708 205.521 12.113 205.325 12.9529C205.169 13.5779 204.876 14.281 204.446 15.0623C204.036 15.824 203.519 16.6248 202.894 17.4646C202.269 18.3044 201.556 19.1443 200.755 19.9841C199.974 20.824 199.154 21.6345 198.294 22.4158C197.435 23.1775 196.556 23.8708 195.657 24.4958C194.759 25.1208 193.89 25.6384 193.05 26.0486ZM193.87 34.4568C194.124 34.0076 194.359 33.5779 194.573 33.1677C194.788 32.738 194.974 32.3279 195.13 31.9373C194.661 31.7029 194.339 31.3318 194.163 30.824C193.988 30.2966 193.929 29.7888 193.988 29.3005C194.046 28.7341 194.329 28.1482 194.837 27.5427C195.306 26.9568 195.814 26.615 196.361 26.5173C196.204 25.9314 195.96 25.6384 195.628 25.6384C195.452 25.6384 195.218 25.697 194.925 25.8142C194.652 25.9314 194.349 26.0974 194.017 26.3123C193.685 26.5076 193.333 26.7419 192.962 27.0154C192.611 27.2888 192.269 27.5818 191.937 27.8943C191.839 28.0896 191.693 28.3337 191.497 28.6267C191.321 28.9197 191.107 29.2712 190.853 29.6814C190.599 30.072 190.374 30.4138 190.179 30.7068C190.003 30.9998 189.866 31.2244 189.769 31.3806C189.554 31.7322 189.32 32.113 189.066 32.5232C188.812 32.9333 188.538 33.363 188.245 33.8123C187.855 34.574 187.503 35.3259 187.191 36.0681C186.898 36.7908 186.634 37.4841 186.4 38.1482C186.185 38.7927 186.019 39.3982 185.902 39.9646C185.784 40.531 185.726 41.0193 185.726 41.4294C185.726 41.8396 185.833 42.0447 186.048 42.0447C186.946 42.0447 188.177 41.3123 189.739 39.8474C191.341 38.363 192.718 36.5662 193.87 34.4568ZM192.64 25.5798C193.597 24.9744 194.573 24.2712 195.57 23.4705C196.566 22.6697 197.523 21.8201 198.441 20.9216C199.378 20.0232 200.238 19.0955 201.019 18.1384C201.8 17.1619 202.435 16.2048 202.923 15.2673C203.431 14.3103 203.773 13.3826 203.948 12.4841C204.124 11.5857 204.066 10.7556 203.773 9.9939C203.304 9.87671 202.816 9.98413 202.308 10.3162C201.8 10.6482 201.282 11.1365 200.755 11.781C200.247 12.406 199.73 13.1384 199.202 13.9783C198.695 14.7986 198.196 15.6384 197.708 16.4978C197.239 17.3572 196.79 18.1873 196.361 18.988C195.95 19.7693 195.579 20.4333 195.247 20.9802C194.759 21.8591 194.3 22.6599 193.87 23.3826C193.441 24.0857 193.03 24.8181 192.64 25.5798Z" fill="#212844"/>
<path d="M200.316 42.0447C202.269 42.0447 205.345 39.3005 209.544 33.8123H210.452C209.534 35.0232 208.646 36.1267 207.786 37.1228C206.946 38.0994 206.058 39.0369 205.12 39.9353C204.202 40.8337 203.314 41.5369 202.454 42.0447C201.595 42.5525 200.823 42.8064 200.14 42.8064C199.105 42.8064 198.226 42.4353 197.503 41.6931C196.8 40.9509 196.448 39.8279 196.448 38.324C196.448 37.0154 196.839 35.5701 197.62 33.988C198.402 32.3865 199.368 30.9314 200.521 29.6228C201.693 28.3142 202.991 27.2205 204.417 26.3416C205.843 25.4626 207.161 25.0232 208.372 25.0232C208.587 25.0232 208.802 25.0623 209.017 25.1404C209.251 25.2185 209.486 25.3552 209.72 25.5505C209.954 25.7263 210.14 26.0095 210.277 26.4001C210.433 26.7712 210.511 27.24 210.511 27.8064C210.511 29.0955 209.984 30.3357 208.929 31.5271C207.874 32.7185 206.614 33.5876 205.15 34.1345C203.685 34.6619 202.396 34.7205 201.282 34.3103C199.915 36.8298 199.232 38.783 199.232 40.1697C199.232 41.4197 199.593 42.0447 200.316 42.0447ZM208.196 25.6384C207.669 25.6384 206.702 26.4978 205.296 28.2166C203.909 29.9353 202.64 31.8298 201.488 33.9001C202.21 34.0173 202.943 33.9001 203.685 33.5486C204.446 33.197 205.111 32.7185 205.677 32.113C206.263 31.488 206.78 30.8142 207.23 30.0916C207.698 29.3494 208.05 28.6365 208.284 27.9529C208.538 27.2693 208.665 26.7029 208.665 26.2537C208.665 25.8435 208.509 25.6384 208.196 25.6384Z" fill="#212844"/>
<path d="M214.232 45.238C216.654 45.3357 218.216 46.1755 218.919 47.7576L218.421 48.0505C218.05 47.3669 217.523 46.8298 216.839 46.4392C216.155 46.0681 215.169 45.863 213.88 45.824L208.577 54.6423C207.835 55.7947 207.083 56.7908 206.321 57.6306C205.56 58.49 204.896 59.1248 204.329 59.5349C203.763 59.9646 203.206 60.2966 202.659 60.531C202.093 60.7849 201.673 60.9314 201.4 60.9705C201.126 61.0291 200.882 61.0583 200.667 61.0583C199.73 61.0583 199.261 60.4626 199.261 59.2712C199.261 58.158 199.622 56.908 200.345 55.5212C201.068 54.1541 201.986 52.8552 203.099 51.6248C204.212 50.3943 205.462 49.2517 206.849 48.197C208.216 47.1619 209.534 46.3806 210.804 45.8533L214.613 39.7009C212.718 41.7712 211.4 42.8064 210.657 42.8064C209.779 42.8064 209.124 42.406 208.695 41.6052C208.245 40.8044 208.021 39.8083 208.021 38.6169C208.021 37.6794 208.245 36.6736 208.695 35.5994C209.124 34.5056 209.7 33.4705 210.423 32.4939C211.146 31.4978 211.956 30.5408 212.855 29.6228C213.773 28.7048 214.681 27.9138 215.579 27.2498C216.497 26.5662 217.386 26.0291 218.245 25.6384C219.124 25.2283 219.866 25.0232 220.472 25.0232C221.351 25.0232 221.712 25.8044 221.556 27.3669L222.786 25.1697H226.302L214.232 45.238ZM210.657 42.0154C211.165 42.0154 211.966 41.4685 213.06 40.3748C214.154 39.2615 215.228 38.031 216.282 36.6833L216.722 35.8923L220.648 29.0076C220.726 28.6169 220.794 28.2361 220.853 27.865C220.911 27.4744 220.95 27.1033 220.97 26.7517C220.989 26.4001 220.95 26.1267 220.853 25.9314C220.775 25.7166 220.648 25.6091 220.472 25.6091C219.554 25.6091 218.489 26.2439 217.279 27.5134C216.068 28.783 214.964 30.2771 213.968 31.9958C212.972 33.7146 212.122 35.4626 211.419 37.24C210.716 39.0173 210.364 40.4041 210.364 41.4001C210.364 41.8103 210.462 42.0154 210.657 42.0154ZM200.491 60.3259C200.941 60.3259 201.527 59.9451 202.249 59.1833C202.972 58.4412 203.695 57.5232 204.417 56.4294C205.12 55.3552 205.804 54.281 206.468 53.2068C207.113 52.1326 207.64 51.2244 208.05 50.4822L208.665 49.3396L210.218 46.7908C208.655 47.572 207.083 48.7341 205.501 50.2771C203.9 51.8201 202.591 53.4412 201.575 55.1404C200.54 56.8396 200.023 58.2947 200.023 59.5056C200.023 60.0134 200.179 60.2869 200.491 60.3259Z" fill="#212844"/>
<path d="M226.917 42.0447C228.87 42.0447 231.946 39.3005 236.146 33.8123H237.054C236.136 35.0232 235.247 36.1267 234.388 37.1228C233.548 38.0994 232.659 39.0369 231.722 39.9353C230.804 40.8337 229.915 41.5369 229.056 42.0447C228.196 42.5525 227.425 42.8064 226.741 42.8064C225.706 42.8064 224.827 42.4353 224.105 41.6931C223.402 40.9509 223.05 39.8279 223.05 38.324C223.05 37.0154 223.441 35.5701 224.222 33.988C225.003 32.3865 225.97 30.9314 227.122 29.6228C228.294 28.3142 229.593 27.2205 231.019 26.3416C232.445 25.4626 233.763 25.0232 234.974 25.0232C235.189 25.0232 235.404 25.0623 235.618 25.1404C235.853 25.2185 236.087 25.3552 236.321 25.5505C236.556 25.7263 236.741 26.0095 236.878 26.4001C237.034 26.7712 237.113 27.24 237.113 27.8064C237.113 29.0955 236.585 30.3357 235.53 31.5271C234.476 32.7185 233.216 33.5876 231.751 34.1345C230.286 34.6619 228.997 34.7205 227.884 34.3103C226.517 36.8298 225.833 38.783 225.833 40.1697C225.833 41.4197 226.195 42.0447 226.917 42.0447ZM234.798 25.6384C234.271 25.6384 233.304 26.4978 231.898 28.2166C230.511 29.9353 229.241 31.8298 228.089 33.9001C228.812 34.0173 229.544 33.9001 230.286 33.5486C231.048 33.197 231.712 32.7185 232.279 32.113C232.864 31.488 233.382 30.8142 233.831 30.0916C234.3 29.3494 234.652 28.6365 234.886 27.9529C235.14 27.2693 235.267 26.7029 235.267 26.2537C235.267 25.8435 235.111 25.6384 234.798 25.6384Z" fill="#212844"/>
<path d="M242.738 36.947C242.991 36.3416 243.265 35.7263 243.558 35.1013C243.851 34.4763 244.163 33.8513 244.495 33.2263H240.306L234.915 42.8064H231.341L241.302 25.1697H244.847L240.716 32.4646H244.905C245.628 31.1169 246.37 29.8181 247.132 28.5681C247.894 27.2986 248.568 26.1658 249.154 25.1697H252.874C252.835 25.2283 252.591 25.6189 252.142 26.3416C251.693 27.0447 251.116 27.9822 250.413 29.1541C249.71 30.3259 248.929 31.6833 248.07 33.2263C247.21 34.7498 246.351 36.3611 245.491 38.0603C245.159 38.7439 244.857 39.3396 244.583 39.8474C244.329 40.3552 244.202 40.7751 244.202 41.1072C244.202 41.615 244.407 41.8689 244.818 41.8689C245.15 41.8689 245.55 41.6931 246.019 41.3416C246.488 40.9705 246.976 40.5115 247.484 39.9646C248.011 39.4177 248.538 38.822 249.066 38.1775C249.593 37.5134 250.081 36.8884 250.53 36.3025C250.98 35.697 251.361 35.1697 251.673 34.7205C251.986 34.2517 252.191 33.949 252.288 33.8123H253.167C253.128 33.8708 253.001 34.0662 252.786 34.3982C252.591 34.7107 252.308 35.1306 251.937 35.658C251.585 36.1853 251.146 36.8005 250.618 37.5037C250.111 38.1873 249.525 38.9197 248.861 39.7009C248.548 40.072 248.196 40.4431 247.806 40.8142C247.415 41.1853 247.025 41.5173 246.634 41.8103C246.243 42.1033 245.863 42.3474 245.491 42.5427C245.12 42.7185 244.798 42.8064 244.525 42.8064C244.095 42.8064 243.685 42.6697 243.294 42.3962C242.904 42.1228 242.601 41.7419 242.386 41.2537C242.191 40.7458 242.103 40.1306 242.122 39.408C242.142 38.6853 242.347 37.865 242.738 36.947Z" fill="#212844"/>
<path d="M268.577 33.8123H269.456C269.3 34.0662 269.085 34.3982 268.812 34.8083C268.558 35.199 268.05 35.9119 267.288 36.947C266.546 37.9822 265.833 38.9001 265.15 39.7009C264.486 40.4822 263.734 41.1951 262.894 41.8396C262.073 42.4841 261.38 42.8064 260.814 42.8064C260.169 42.8064 259.593 42.4451 259.085 41.7224C258.577 40.9998 258.323 39.9646 258.323 38.6169C258.323 38.1873 258.441 37.6306 258.675 36.947C255.648 40.8533 253.577 42.8064 252.464 42.8064C251.839 42.8064 251.273 42.4451 250.765 41.7224C250.257 40.9998 250.003 39.9646 250.003 38.6169C250.003 38.0115 250.247 37.1326 250.736 35.9802C251.224 34.8279 251.81 33.656 252.493 32.4646C253.196 31.2537 253.9 30.0916 254.603 28.9783C255.306 27.865 255.902 26.9568 256.39 26.2537L257.122 25.1697H260.843C260.609 25.5212 260.296 25.9802 259.905 26.5466C259.515 27.113 258.821 28.1775 257.825 29.74C256.829 31.283 255.95 32.7087 255.189 34.0173C254.427 35.3259 253.734 36.6736 253.109 38.0603C252.484 39.4275 252.171 40.4431 252.171 41.1072C252.171 41.615 252.376 41.8689 252.786 41.8689C253.665 41.8689 256.068 39.2615 259.993 34.0466C260.618 32.8357 261.38 31.4978 262.279 30.033C263.196 28.5486 263.948 27.3669 264.534 26.488L265.443 25.1697H269.163C268.929 25.5212 268.607 25.9802 268.196 26.5466C267.806 27.113 267.112 28.1775 266.116 29.74C265.12 31.283 264.241 32.7087 263.48 34.0173C262.737 35.3259 262.054 36.6736 261.429 38.0603C260.804 39.4275 260.491 40.4431 260.491 41.1072C260.491 41.615 260.696 41.8689 261.107 41.8689C261.458 41.8689 261.937 41.615 262.542 41.1072C263.148 40.5994 263.734 40.0232 264.3 39.3787C264.866 38.7341 265.491 37.9724 266.175 37.0935C266.859 36.2146 267.357 35.5505 267.669 35.1013C268.001 34.6521 268.304 34.2224 268.577 33.8123Z" fill="#212844"/>
<path d="M288.177 33.8123C287.611 34.5935 287.064 35.3455 286.536 36.0681C286.009 36.7712 285.491 37.4353 284.984 38.0603C284.495 38.6658 283.987 39.2517 283.46 39.8181C282.933 40.3845 282.425 40.8923 281.937 41.3416C281.448 41.7712 280.989 42.1228 280.56 42.3962C280.15 42.6697 279.818 42.8064 279.564 42.8064C279.251 42.8064 278.919 42.7576 278.568 42.6599C278.216 42.5427 277.904 42.3279 277.63 42.0154C277.376 41.7029 277.191 41.2732 277.073 40.7263C276.956 40.1794 276.966 39.4763 277.103 38.6169C277.083 38.1091 277.22 37.4744 277.513 36.7126C277.825 35.9314 278.206 35.0916 278.655 34.1931C278.343 34.3103 278.03 34.3982 277.718 34.4568C277.405 34.4958 277.093 34.5154 276.78 34.5154C276.331 35.199 275.814 35.99 275.228 36.8884C274.642 37.7869 273.997 38.656 273.294 39.4958C272.611 40.3357 271.878 41.0779 271.097 41.7224C270.316 42.3669 269.505 42.7771 268.665 42.9529C267.845 42.9138 267.259 42.6892 266.907 42.2791C266.536 41.8494 266.302 41.3513 266.204 40.7849C266.107 40.3943 266.097 39.9646 266.175 39.4958C266.253 39.0271 266.39 38.5779 266.585 38.1482C266.78 37.699 267.025 37.2986 267.318 36.947C267.611 36.5955 267.923 36.3416 268.255 36.1853C268.782 35.9705 269.29 35.9509 269.779 36.1267C270.267 36.283 270.57 36.615 270.687 37.1228C270.804 37.6111 270.765 38.1189 270.57 38.6462C270.374 39.1541 270.14 39.6326 269.866 40.0818C269.612 40.531 269.368 40.9412 269.134 41.3123C268.9 41.6638 268.792 41.9177 268.812 42.074C268.812 42.1716 268.831 42.1912 268.87 42.1326C268.909 42.0544 269.036 42.0251 269.251 42.0447C269.798 41.8298 270.384 41.4392 271.009 40.8728C271.634 40.2869 272.239 39.6326 272.825 38.9099C273.431 38.1677 274.007 37.406 274.554 36.6248C275.101 35.824 275.57 35.1013 275.96 34.4568C275.335 34.3591 274.759 34.1541 274.232 33.8416C273.704 33.5095 273.275 33.0994 272.943 32.6111C272.63 32.1033 272.435 31.5271 272.357 30.8826C272.298 30.2185 272.415 29.4958 272.708 28.7146C273.216 27.2693 274.046 26.1951 275.198 25.4919C276.351 24.7888 277.904 24.4958 279.857 24.613C280.482 24.7107 281.077 24.9646 281.644 25.3748C282.23 25.7654 282.659 26.3318 282.933 27.074C283.03 26.9177 283.118 26.7712 283.196 26.6345C283.294 26.4978 283.392 26.3708 283.489 26.2537L284.222 25.1697H287.943C287.884 25.2478 287.689 25.531 287.357 26.0193C287.025 26.488 286.595 27.113 286.068 27.8943C285.56 28.6755 284.974 29.5935 284.31 30.6482C283.665 31.6833 282.991 32.8064 282.288 34.0173C281.917 34.6423 281.546 35.3064 281.175 36.0095C280.823 36.7126 280.501 37.3962 280.208 38.0603C279.935 38.7048 279.71 39.3005 279.534 39.8474C279.359 40.3748 279.271 40.7947 279.271 41.1072C279.271 41.615 279.476 41.8689 279.886 41.8689C280.12 41.8689 280.482 41.6541 280.97 41.2244C281.478 40.7947 282.064 40.2185 282.728 39.4958C283.392 38.7537 284.114 37.8943 284.896 36.9177C285.677 35.9412 286.478 34.906 287.298 33.8123H288.177ZM277.279 33.783C277.747 33.8416 278.421 33.5779 279.3 32.9919C279.788 32.113 280.296 31.2537 280.823 30.4138C281.351 29.5544 281.839 28.7634 282.288 28.0408C282.093 27.2986 281.79 26.7322 281.38 26.3416C280.97 25.9314 280.521 25.7263 280.032 25.7263C279.036 25.7654 278.226 26.1267 277.601 26.8103C276.976 27.4939 276.448 28.3044 276.019 29.2419C275.589 30.2966 275.423 31.2341 275.521 32.0544C275.618 32.8552 276.038 33.3923 276.78 33.6658L277.279 33.783Z" fill="#212844"/>
</svg>
