<svg width="145" height="47" viewBox="0 0 145 47" fill="none" xmlns="http://www.w3.org/2000/svg">
<path d="M81.2824 0.0813802C81.5754 -0.016276 81.7219 -0.0260417 81.7219 0.0520833C81.7414 0.130208 81.7512 0.276693 81.7512 0.491536C81.7512 0.589193 81.7316 0.696615 81.6926 0.813802C81.6535 0.911458 81.6145 1.00911 81.5754 1.10677C79.9934 2.02474 78.4992 3.13802 77.093 4.44661C75.6867 5.75521 74.3098 7.23958 72.9621 8.89974C71.6145 10.5404 70.2766 12.3568 68.9484 14.349C67.6398 16.3411 66.2922 18.4701 64.9055 20.7357C63.6555 22.7474 62.4348 24.7786 61.2434 26.8294C60.052 28.8607 58.9094 30.8333 57.8156 32.7474C56.7219 34.6419 55.6867 36.429 54.7102 38.1087C53.7336 39.7884 52.8352 41.2728 52.0148 42.5618L43.7238 42.6204C44.4465 42.1322 45.052 41.6634 45.5402 41.2142C46.048 40.765 46.4777 40.3451 46.8293 39.9544C47.1809 39.5443 47.4836 39.1732 47.7375 38.8411C47.9914 38.5091 48.2551 38.2064 48.5285 37.9329C49.7785 36.0579 50.6477 33.9974 51.1359 31.7513C51.6242 29.4857 51.7609 27.2103 51.5461 24.9251C50.6672 25.9212 49.8176 26.8978 48.9973 27.8548C48.177 28.7923 47.3957 29.7298 46.6535 30.6673C44.6809 33.1478 42.7473 35.3255 40.8527 37.2005C38.9582 39.056 37.0832 40.6283 35.2277 41.9173C33.3918 43.2064 31.5656 44.222 29.7492 44.9642C27.9328 45.7259 26.1066 46.224 24.2707 46.4583C22.4152 46.6927 20.55 46.7611 18.675 46.6634C16.8 46.5658 14.9934 46.2826 13.2551 45.8138C11.5168 45.3451 9.87617 44.6908 8.3332 43.8509C6.80977 43.0306 5.46211 42.015 4.29023 40.804C3.11836 39.5736 2.16133 38.1576 1.41914 36.556C0.676953 34.9349 0.217969 33.1185 0.0421875 31.1068C-0.075 29.5638 0.0519531 28.0892 0.423047 26.6829C0.794141 25.2767 1.35078 23.9779 2.09297 22.7865C2.85469 21.5755 3.75313 20.4915 4.78828 19.5345C5.84297 18.5775 6.99531 17.7572 8.24531 17.0736C9.51484 16.39 10.843 15.8626 12.2297 15.4915C13.6164 15.1204 15.0129 14.9251 16.4191 14.9056C17.7668 14.7493 19.134 14.7493 20.5207 14.9056C21.9074 15.0618 23.2355 15.3646 24.5051 15.8138C24.8762 14.6419 25.384 13.5677 26.0285 12.5911C26.6926 11.6146 27.4836 10.765 28.4016 10.0423C29.3195 9.31966 30.3645 8.75325 31.5363 8.3431C32.7277 7.91341 34.0266 7.67904 35.4328 7.63997C37.6984 7.58138 39.7687 7.94271 41.6437 8.72396C43.5383 9.50521 45.1984 10.5892 46.6242 11.9759C48.0695 13.3431 49.2707 14.9447 50.2277 16.7806C51.1848 18.597 51.8781 20.5208 52.3078 22.5521C53.5578 21.224 54.9055 19.8177 56.3508 18.3333C57.8156 16.849 59.3391 15.3646 60.9211 13.8802C62.5227 12.3763 64.173 10.9115 65.8723 9.48568C67.5715 8.04036 69.2805 6.70247 70.9992 5.47201C72.7375 4.24154 74.466 3.16732 76.1848 2.24935C77.923 1.31185 79.6223 0.589193 81.2824 0.0813802ZM32.5617 25.8333C32.5031 26.888 32.298 27.8841 31.9465 28.8216C32.6496 28.9388 33.3723 28.9974 34.1145 28.9974C35.2863 28.9974 36.3605 28.7826 37.3371 28.3529C38.3332 27.9232 39.2414 27.3372 40.0617 26.5951L41.4973 24.9251H42.0539C42.1516 25.0228 42.1906 25.14 42.1711 25.2767C42.1711 25.4134 42.1711 25.5599 42.1711 25.7161C42.0539 25.8529 41.927 25.9993 41.7902 26.1556C41.673 26.2923 41.5363 26.4486 41.3801 26.6243C41.2434 26.7806 41.0871 26.9368 40.9113 27.0931C40.6379 27.347 40.3352 27.6009 40.0031 27.8548C39.6906 28.0892 39.3977 28.304 39.1242 28.4993C38.7922 28.7337 38.4602 28.9583 38.1281 29.1732C36.9172 29.6419 35.7551 29.9251 34.6418 30.0228C33.548 30.1204 32.5031 30.0618 31.507 29.847C30.9992 30.8822 30.3352 31.8197 29.5148 32.6595C28.6945 33.4798 27.7766 34.1927 26.7609 34.7982C25.7453 35.4036 24.6516 35.8724 23.4797 36.2044C22.3273 36.5169 21.1457 36.6732 19.9348 36.6732C18.9191 36.6536 17.8937 36.5658 16.8586 36.4095C15.8234 36.2533 14.8469 36.0091 13.9289 35.6771C13.0109 35.3451 12.1809 34.9056 11.4387 34.3587C10.6965 33.7923 10.1203 33.0892 9.71016 32.2493C9.31953 31.429 9.10469 30.5599 9.06563 29.6419C9.04609 28.7044 9.18281 27.806 9.47578 26.9466C9.76875 26.0872 10.2082 25.2962 10.7941 24.5736C11.3996 23.8509 12.132 23.265 12.9914 22.8158C13.2453 22.8548 13.3918 22.972 13.4309 23.1673C13.4699 23.3431 13.4895 23.5482 13.4895 23.7826C12.6691 24.1927 11.9953 24.7103 11.468 25.3353C10.9602 25.9603 10.5891 26.6341 10.3547 27.3568C10.1203 28.0794 10.0227 28.8314 10.0617 29.6126C10.1008 30.3743 10.2766 31.0872 10.5891 31.7513C11.0188 32.5911 11.6145 33.265 12.3762 33.7728C13.1379 34.2611 13.9875 34.6419 14.925 34.9154C15.8625 35.1693 16.8488 35.3451 17.884 35.4427C18.9191 35.5208 19.9152 35.5697 20.8723 35.5892C21.8879 35.5111 22.8742 35.306 23.8312 34.974C24.7883 34.6419 25.677 34.222 26.4973 33.7142C27.3371 33.1868 28.0891 32.5716 28.7531 31.8685C29.4172 31.1654 29.9738 30.4036 30.423 29.5833C29.5637 29.3099 28.7727 28.9486 28.05 28.4993C27.3273 28.0306 26.6926 27.5033 26.1457 26.9173C25.5988 26.3118 25.1496 25.6576 24.798 24.9544C24.4465 24.2513 24.2121 23.5286 24.0949 22.7865C23.7434 20.5794 23.802 18.5189 24.2707 16.6048C23.3527 16.2728 22.3859 16.0286 21.3703 15.8724C20.3547 15.6966 19.3098 15.6087 18.2355 15.6087C16.4582 15.6087 14.6418 15.8431 12.7863 16.3118C10.9309 16.7806 9.18281 17.5326 7.54219 18.5677C6.60469 19.1732 5.73555 19.8861 4.93477 20.7064C4.13398 21.5072 3.45039 22.4251 2.88398 23.4603C2.31758 24.4759 1.86836 25.599 1.53633 26.8294C1.22383 28.0599 1.06758 29.4076 1.06758 30.8724C1.06758 32.181 1.29219 33.3822 1.74141 34.4759C2.21016 35.5501 2.81562 36.5267 3.55781 37.4056C4.31953 38.2845 5.17891 39.056 6.13594 39.7201C7.1125 40.3841 8.11836 40.9505 9.15352 41.4193C11.4387 42.2786 13.7434 42.7962 16.0676 42.972C18.3918 43.1673 20.6867 43.0794 22.9523 42.7083C25.218 42.3568 27.4348 41.7611 29.6027 40.9212C31.7902 40.0618 33.8801 39.0267 35.8723 37.8158C37.884 36.5853 39.7785 35.1986 41.5559 33.6556C43.3527 32.1126 44.9934 30.4818 46.4777 28.763C47.0637 28.1576 47.7668 27.4154 48.5871 26.5365C49.427 25.638 50.3547 24.6419 51.3703 23.5482C51.1555 22.2591 50.843 21.0189 50.4328 19.8275C50.0227 18.6165 49.5051 17.474 48.8801 16.3997C48.0012 14.9154 46.9367 13.597 45.6867 12.4447C44.4562 11.2728 43.0793 10.3646 41.5559 9.72005C40.052 9.05599 38.4309 8.6849 36.6926 8.60677C34.9738 8.52865 33.1965 8.83138 31.3605 9.51497C29.8762 10.0618 28.6359 10.931 27.6398 12.1224C26.6437 13.3138 25.9016 14.6615 25.4133 16.1654C26.4289 16.5951 27.3664 17.1224 28.2258 17.7474C29.1047 18.3724 29.8664 19.0951 30.5109 19.9154C31.1555 20.7161 31.6535 21.6146 32.0051 22.6107C32.3762 23.6068 32.5617 24.681 32.5617 25.8333ZM52.2492 32.2493C53.5578 30.4134 54.9836 28.4896 56.5266 26.4779C58.0695 24.4661 59.632 22.4642 61.2141 20.472C62.8156 18.4603 64.3977 16.5169 65.9602 14.6419C67.5227 12.7669 68.9777 11.0579 70.3254 9.51497C71.673 7.95247 72.8645 6.60482 73.8996 5.47201C74.9543 4.33919 75.7746 3.51888 76.3605 3.01107C74.3879 4.22201 72.3664 5.62826 70.2961 7.22982C68.2453 8.81185 66.2043 10.5111 64.173 12.3275C62.1418 14.1243 60.1398 16.0091 58.1672 17.9818C56.2141 19.9349 54.3391 21.888 52.5422 23.8411C52.757 25.2474 52.8449 26.6634 52.8059 28.0892C52.7668 29.4954 52.5812 30.8822 52.2492 32.2493ZM31.4191 24.5736C31.2434 22.8158 30.5891 21.2923 29.4562 20.0033C28.343 18.7142 26.9172 17.6986 25.1789 16.9564C24.925 17.9525 24.7883 18.9583 24.7687 19.974C24.7492 20.9701 24.8469 21.9368 25.0617 22.8743C25.3937 24.3783 26.0871 25.6087 27.1418 26.5658C28.1965 27.5228 29.4367 28.1966 30.8625 28.5872C31.3703 27.2982 31.5559 25.9603 31.4191 24.5736Z" fill="#212844"/>
<path d="M68.4504 36.7025C68.7043 36.097 68.9777 35.4818 69.2707 34.8568C69.5637 34.2318 69.8762 33.6068 70.2082 32.9818H66.0188L60.6281 42.5618H57.0539L67.0148 24.9251H70.5598L66.4289 32.2201H70.6184C71.341 30.8724 72.0832 29.5736 72.8449 28.3236C73.6066 27.054 74.2805 25.9212 74.8664 24.9251H78.5871C78.548 24.9837 78.3039 25.3743 77.8547 26.097C77.4055 26.8001 76.8293 27.7376 76.1262 28.9095C75.423 30.0814 74.6418 31.4388 73.7824 32.9818C72.923 34.5052 72.0637 36.1165 71.2043 37.8158C70.8723 38.4993 70.5695 39.0951 70.2961 39.6029C70.0422 40.1107 69.9152 40.5306 69.9152 40.8626C69.9152 41.3704 70.1203 41.6243 70.5305 41.6243C70.8625 41.6243 71.2629 41.4486 71.7316 41.097C72.2004 40.7259 72.6887 40.2669 73.1965 39.7201C73.7238 39.1732 74.2512 38.5775 74.7785 37.9329C75.3059 37.2689 75.7941 36.6439 76.2434 36.0579C76.6926 35.4525 77.0734 34.9251 77.3859 34.4759C77.6984 34.0072 77.9035 33.7044 78.0012 33.5677H78.8801C78.841 33.6263 78.7141 33.8216 78.4992 34.1536C78.3039 34.4661 78.0207 34.8861 77.6496 35.4134C77.298 35.9408 76.8586 36.556 76.3313 37.2591C75.8234 37.9427 75.2375 38.6751 74.5734 39.4564C74.2609 39.8275 73.9094 40.1986 73.5188 40.5697C73.1281 40.9408 72.7375 41.2728 72.3469 41.5658C71.9563 41.8587 71.5754 42.1029 71.2043 42.2982C70.8332 42.474 70.5109 42.5618 70.2375 42.5618C69.8078 42.5618 69.3977 42.4251 69.007 42.1517C68.6164 41.8783 68.3137 41.4974 68.0988 41.0091C67.9035 40.5013 67.8156 39.8861 67.8352 39.1634C67.8547 38.4408 68.0598 37.6204 68.4504 36.7025Z" fill="#212844"/>
<path d="M91.8 30.2572C91.5266 30.2572 91.302 30.1693 91.1262 29.9935C90.9504 29.7982 90.8625 29.4857 90.8625 29.056C90.8625 28.6068 90.9992 28.1478 91.2727 27.679C91.5656 27.1908 91.8488 26.7904 92.1223 26.4779C92.4152 26.1458 92.5617 25.9505 92.5617 25.8919C92.5617 25.7161 92.4934 25.5404 92.3566 25.3646C92.2199 25.1888 92.0344 25.1009 91.8 25.1009C91.4289 25.1009 91.0285 25.2572 90.5988 25.5697C90.1691 25.8822 89.7297 26.2826 89.2805 26.7708C88.8313 27.2396 88.1184 27.9525 87.1418 28.9095C86.1652 29.847 85.1203 30.7747 84.007 31.6927C85.6477 31.8099 86.468 32.6595 86.468 34.2415C86.468 34.7103 86.2434 35.4427 85.7941 36.4388C85.3449 37.4154 84.8957 38.3529 84.4465 39.2513C83.9973 40.1497 83.7727 40.7357 83.7727 41.0091C83.7727 41.5365 83.9875 41.8001 84.4172 41.8001C84.925 41.8001 85.55 41.5072 86.2922 40.9212C87.0539 40.3353 87.8352 39.5638 88.6359 38.6068C89.4367 37.6497 90.1398 36.7708 90.7453 35.9701C91.3508 35.1693 91.9172 34.3685 92.4445 33.5677H93.3234C92.9523 34.1536 92.5324 34.7689 92.0637 35.4134C91.6145 36.0579 91.0285 36.8294 90.3059 37.7279C89.6027 38.6263 88.9191 39.4173 88.2551 40.1009C87.6105 40.765 86.927 41.3411 86.2043 41.8294C85.4816 42.3177 84.8566 42.5618 84.3293 42.5618C84.1535 42.5618 83.9582 42.5423 83.7434 42.5033C83.5285 42.4642 83.2844 42.3861 83.0109 42.2689C82.7375 42.1322 82.4934 41.9661 82.2785 41.7708C82.0832 41.556 81.9074 41.263 81.7512 40.8919C81.6145 40.5208 81.5461 40.1009 81.5461 39.6322C81.5461 39.1439 81.8 38.4017 82.3078 37.4056C82.8352 36.4095 83.3527 35.4818 83.8605 34.6224C84.3684 33.7435 84.6223 33.2161 84.6223 33.0404C84.6223 32.8255 84.5441 32.6497 84.3879 32.513C84.2316 32.3763 84.0656 32.3079 83.8898 32.3079C83.0695 32.3079 82.2199 32.6302 81.341 33.2747L75.5988 42.4154H72.1711L83.0988 24.8372H86.9367L82.0734 32.1322C82.425 31.9564 82.7668 31.8294 83.0988 31.7513C83.4699 31.3802 83.9777 30.8333 84.6223 30.1107C85.2668 29.3685 85.8625 28.7044 86.4094 28.1185C86.9563 27.5326 87.5422 26.9466 88.1672 26.3607C88.7922 25.7552 89.4172 25.2865 90.0422 24.9544C90.6672 24.6029 91.2531 24.4271 91.8 24.4271C92.0344 24.4271 92.259 24.4661 92.4738 24.5443C92.6887 24.6224 92.9133 24.7591 93.1477 24.9544C93.382 25.1302 93.5676 25.4134 93.7043 25.804C93.8605 26.1947 93.9387 26.6634 93.9387 27.2103C93.9387 27.8158 93.7238 28.4798 93.2941 29.2025C92.8645 29.9056 92.3664 30.2572 91.8 30.2572Z" fill="#212844"/>
<path d="M95.052 41.8001C97.0051 41.8001 100.081 39.056 104.28 33.5677H105.189C104.271 34.7786 103.382 35.8822 102.523 36.8783C101.683 37.8548 100.794 38.7923 99.8566 39.6908C98.9387 40.5892 98.05 41.2923 97.1906 41.8001C96.3313 42.3079 95.5598 42.5618 94.8762 42.5618C93.841 42.5618 92.9621 42.1908 92.2395 41.4486C91.5363 40.7064 91.1848 39.5833 91.1848 38.0794C91.1848 36.7708 91.5754 35.3255 92.3566 33.7435C93.1379 32.1419 94.1047 30.6868 95.257 29.3783C96.4289 28.0697 97.7277 26.9759 99.1535 26.097C100.579 25.2181 101.898 24.7786 103.109 24.7786C103.323 24.7786 103.538 24.8177 103.753 24.8958C103.988 24.974 104.222 25.1107 104.456 25.306C104.691 25.4818 104.876 25.765 105.013 26.1556C105.169 26.5267 105.247 26.9954 105.247 27.5618C105.247 28.8509 104.72 30.0911 103.665 31.2826C102.611 32.474 101.351 33.3431 99.8859 33.89C98.4211 34.4173 97.132 34.4759 96.0188 34.0658C94.6516 36.5853 93.968 38.5384 93.968 39.9251C93.968 41.1751 94.3293 41.8001 95.052 41.8001ZM102.933 25.3939C102.405 25.3939 101.439 26.2533 100.032 27.972C98.6457 29.6908 97.3762 31.5853 96.2238 33.6556C96.9465 33.7728 97.6789 33.6556 98.4211 33.304C99.1828 32.9525 99.8469 32.474 100.413 31.8685C100.999 31.2435 101.517 30.5697 101.966 29.847C102.435 29.1048 102.786 28.3919 103.021 27.7083C103.275 27.0247 103.402 26.4583 103.402 26.0091C103.402 25.599 103.245 25.3939 102.933 25.3939Z" fill="#212844"/>
<path d="M127.718 33.5677H128.597C128.206 34.1927 127.796 34.8079 127.366 35.4134C126.937 36.0189 126.361 36.7806 125.638 37.6986C124.915 38.6165 124.232 39.4173 123.587 40.1009C122.962 40.765 122.288 41.3411 121.566 41.8294C120.863 42.3177 120.238 42.5618 119.691 42.5618C119.515 42.5618 119.32 42.5423 119.105 42.5033C118.909 42.4447 118.685 42.3372 118.431 42.181C118.177 42.0247 117.952 41.8197 117.757 41.5658C117.562 41.3118 117.396 40.9505 117.259 40.4818C117.122 40.013 117.054 39.4661 117.054 38.8411C117.054 38.1966 117.318 37.3861 117.845 36.4095C118.372 35.4329 119.007 34.4564 119.749 33.4798C120.491 32.4837 121.224 31.5267 121.946 30.6087C122.689 29.6712 123.323 28.8118 123.851 28.0306C124.378 27.2493 124.642 26.6829 124.642 26.3314C124.642 25.9212 124.486 25.7161 124.173 25.7161C123.743 25.7161 123.157 26.0189 122.415 26.6243C121.673 27.2103 120.911 27.9525 120.13 28.8509C119.349 29.7298 118.48 30.7943 117.523 32.0443C116.566 33.2747 115.706 34.4076 114.945 35.4427C114.202 36.4779 113.441 37.5618 112.659 38.6947C111.663 40.2572 110.823 41.4974 110.14 42.4154H106.976C107.308 41.8294 108.323 40.2279 110.023 37.6107C111.722 34.9935 113.177 32.6302 114.388 30.5208C115.599 28.3919 116.204 26.9954 116.204 26.3314C116.204 25.9212 116.077 25.7161 115.823 25.7161C115.491 25.7161 114.984 26.0091 114.3 26.5951C113.636 27.1615 112.952 27.8353 112.249 28.6165C111.546 29.3978 110.765 30.3353 109.905 31.429C109.046 32.5033 108.333 33.4115 107.767 34.1536C107.22 34.8763 106.673 35.6087 106.126 36.3509L102.552 42.4154H99.1242L101.82 38.2845L104.251 33.6263L109.613 24.9251H112.982C112.904 25.0618 112.698 25.3841 112.366 25.8919C112.054 26.3997 111.693 26.9759 111.282 27.6204C110.892 28.265 110.618 28.7142 110.462 28.9681C109.837 29.9837 109.359 30.7454 109.027 31.2533C112.249 26.9368 114.671 24.7786 116.292 24.7786C116.878 24.7786 117.366 24.9837 117.757 25.3939C118.167 25.7845 118.372 26.3997 118.372 27.2396C118.372 28.1576 117.718 29.847 116.409 32.3079C119.905 27.2884 122.65 24.7786 124.642 24.7786C125.267 24.7786 125.784 24.974 126.195 25.3646C126.605 25.7552 126.81 26.3802 126.81 27.2396C126.81 27.9622 126.536 28.8411 125.989 29.8763C125.462 30.9115 124.818 31.9466 124.056 32.9818C123.314 34.0169 122.562 35.0326 121.8 36.0286C121.038 37.0247 120.394 37.9622 119.866 38.8411C119.339 39.7005 119.075 40.3743 119.075 40.8626C119.075 41.4876 119.28 41.8001 119.691 41.8001C120.101 41.8001 120.599 41.5951 121.185 41.1849C121.79 40.7552 122.376 40.2474 122.943 39.6615C123.509 39.056 124.114 38.3529 124.759 37.5521C125.423 36.7513 125.97 36.0482 126.4 35.4427C126.849 34.8177 127.288 34.1927 127.718 33.5677Z" fill="#212844"/>
<path d="M143.509 33.5677H144.359C144.202 33.8216 143.988 34.1536 143.714 34.5638C143.46 34.9544 142.962 35.6673 142.22 36.7025C141.478 37.7376 140.755 38.6556 140.052 39.4564C139.368 40.2376 138.616 40.9505 137.796 41.5951C136.976 42.2396 136.273 42.5618 135.687 42.5618C135.081 42.5618 134.515 42.2005 133.988 41.4779C133.48 40.7552 133.226 39.7201 133.226 38.3724V38.2259C131.058 41.1165 129.407 42.5618 128.275 42.5618C127.396 42.5618 126.741 42.1615 126.312 41.3607C125.863 40.5599 125.638 39.5638 125.638 38.3724C125.638 37.2591 125.941 36.0482 126.546 34.7396C127.152 33.4115 127.933 32.181 128.89 31.0482C129.847 29.8958 130.872 28.8411 131.966 27.8841C133.06 26.9271 134.134 26.1751 135.189 25.6283C136.263 25.0618 137.161 24.7786 137.884 24.7786C138.861 24.7786 139.173 25.5892 138.821 27.2103L140.345 24.9251H144.066C143.831 25.2767 143.519 25.7357 143.128 26.3021C142.738 26.8685 142.044 27.9329 141.048 29.4954C140.052 31.0384 139.173 32.4642 138.411 33.7728C137.65 35.0814 136.956 36.429 136.331 37.8158C135.706 39.1829 135.394 40.1986 135.394 40.8626C135.394 41.3704 135.599 41.6243 136.009 41.6243C136.361 41.6243 136.839 41.3704 137.445 40.8626C138.07 40.3548 138.665 39.7786 139.232 39.1341C139.798 38.4896 140.413 37.7279 141.077 36.849C141.761 35.9701 142.259 35.306 142.571 34.8568C142.904 34.4076 143.216 33.9779 143.509 33.5677ZM128.275 41.8001C129.232 41.8001 131.077 39.8958 133.812 36.0872C134.378 34.681 135.433 32.6986 136.976 30.14C137.113 29.847 137.269 29.4661 137.445 28.9974C137.64 28.5091 137.825 27.9915 138.001 27.4447C138.177 26.8783 138.255 26.3997 138.236 26.0091C138.236 25.599 138.118 25.3939 137.884 25.3939C136.966 25.3939 135.911 26.0286 134.72 27.2982C133.529 28.5677 132.445 30.0618 131.468 31.7806C130.491 33.4798 129.661 35.2279 128.978 37.0247C128.294 38.8021 127.952 40.1888 127.952 41.1849C127.952 41.5951 128.06 41.8001 128.275 41.8001Z" fill="#212844"/>
</svg>
