<svg width="350" height="132" viewBox="0 0 350 132" fill="none" xmlns="http://www.w3.org/2000/svg">
<path d="M62.8464 4.35059C62.8464 4.18945 62.9897 4.04622 63.2761 3.9209C63.5447 3.81348 63.8043 3.79557 64.0549 3.86719C64.3056 3.9388 64.5383 4.08203 64.7532 4.29688C64.968 4.49382 65.156 4.74447 65.3171 5.04883C65.4783 5.35319 65.5857 5.68441 65.6394 6.04248C65.6215 6.88395 65.523 7.60905 65.344 8.21777C65.1829 8.80859 64.9591 9.31885 64.6726 9.74854C64.404 10.1782 64.0907 10.5452 63.7327 10.8496C63.3746 11.1361 62.9897 11.4046 62.5779 11.6553C61.2709 12.4609 59.588 12.8817 57.529 12.9175C55.488 12.9533 53.08 12.7384 50.3049 12.2729C47.7089 11.8612 45.0323 11.4225 42.2751 10.957C39.518 10.4915 36.725 10.1335 33.8962 9.88281C33.6993 11.4046 33.4128 12.8548 33.0369 14.2334C32.6788 15.5941 32.2222 16.8921 31.6672 18.1274C30.9869 19.6134 30.1007 21.0547 29.0085 22.4512C27.9164 23.8477 26.6632 25.092 25.2488 26.1841C23.8523 27.2583 22.3036 28.1266 20.6028 28.7891C18.9198 29.4336 17.1384 29.7559 15.2585 29.7559C13.4324 29.7559 11.9822 29.2725 10.908 28.3057C9.83373 27.321 9.22501 25.9603 9.08178 24.2236C9.02807 23.3822 9.07283 22.4512 9.21606 21.4307C9.35929 20.4102 9.61889 19.3628 9.99486 18.2886C10.3708 17.2144 10.8811 16.1491 11.5256 15.0928C12.1881 14.0365 13.0116 13.0339 13.9963 12.085C15.357 10.778 16.7983 9.66797 18.3201 8.75488C19.8598 7.8418 21.4442 7.10775 23.0735 6.55273C24.7206 5.97982 26.4125 5.57699 28.1492 5.34424C29.8858 5.09359 31.6404 4.98617 33.4128 5.02197V3.75977C33.4128 3.25846 33.3502 2.87354 33.2248 2.60498C33.0995 2.31852 32.9652 2.08577 32.822 1.90674C32.6788 1.7277 32.5445 1.57552 32.4192 1.4502C32.3118 1.30697 32.258 1.11003 32.258 0.859375C32.258 0.716146 32.3207 0.537109 32.446 0.322266C32.5714 0.107422 32.7235 0 32.9026 0C33.1353 0 33.3323 0.152181 33.4934 0.456543C33.6724 0.760905 33.8157 1.12793 33.9231 1.55762C34.0305 1.9694 34.1021 2.39909 34.1379 2.84668C34.1916 3.29427 34.2185 3.65234 34.2185 3.9209V5.07568C36.2416 5.1652 38.2647 5.41585 40.2878 5.82764C42.3288 6.23942 44.352 6.78548 46.3572 7.46582C46.8227 7.62695 47.4582 7.86865 48.2639 8.19092C49.0696 8.49528 49.9558 8.8265 50.9226 9.18457C51.8894 9.54264 52.9099 9.88281 53.9841 10.2051C55.0583 10.5094 56.1057 10.7511 57.1262 10.9302C58.1467 11.1092 59.1046 11.1808 59.9997 11.145C60.8949 11.0913 61.6558 10.8765 62.2825 10.5005C62.7659 10.214 63.1508 9.82015 63.4372 9.31885C63.7237 8.79964 63.8669 8.13721 63.8669 7.33154C63.8669 7.00928 63.8132 6.71387 63.7058 6.44531C63.5984 6.15885 63.482 5.8903 63.3567 5.63965C63.2314 5.389 63.115 5.1652 63.0076 4.96826C62.9001 4.75342 62.8464 4.54753 62.8464 4.35059ZM30.029 9.66797C28.7042 9.65007 27.2808 9.73063 25.759 9.90967C24.2551 10.0708 22.7602 10.3662 21.2742 10.7959C19.7882 11.2077 18.3648 11.7627 17.0041 12.4609C15.6435 13.1592 14.435 14.0275 13.3787 15.0659C12.3402 16.1043 11.5077 17.3218 10.8811 18.7183C10.2724 20.1147 9.96801 21.7261 9.96801 23.5522C9.96801 24.4653 10.1381 25.2889 10.4783 26.0229C10.8363 26.757 11.3197 27.3568 11.9285 27.8223C12.5372 28.2878 13.2533 28.61 14.0769 28.7891C14.9184 28.9502 15.8225 28.9233 16.7893 28.7085C18.2753 28.5653 19.7165 28.1982 21.113 27.6074C22.5095 26.9987 23.8165 26.202 25.0339 25.2173C26.2514 24.2326 27.3614 23.0688 28.364 21.7261C29.3845 20.3833 30.2618 18.9062 30.9958 17.2949C31.9984 15.0212 32.6877 12.5326 33.0637 9.8291C32.0432 9.75749 31.0316 9.70378 30.029 9.66797ZM6.28881 44.1235C8.31192 44.6248 10.2813 44.7233 12.197 44.4189C14.1127 44.1146 15.9657 43.5059 17.7561 42.5928C19.5644 41.6618 21.2921 40.4801 22.9392 39.0479C24.6042 37.5977 26.1887 35.9953 27.6926 34.2407C29.2144 32.4683 30.6467 30.5884 31.9895 28.6011C33.3323 26.6138 34.5855 24.6175 35.7493 22.6123C36.734 20.8757 37.7455 19.1569 38.7839 17.4561C39.8223 15.7373 41.0308 14.1707 42.4094 12.7563C42.5347 12.6131 42.6601 12.4788 42.7854 12.3535C42.9107 12.2282 43.045 12.1118 43.1882 12.0044C43.4747 11.7716 43.6806 11.6553 43.8059 11.6553C43.9312 11.6553 44.0028 11.7 44.0207 11.7896C44.0386 11.8791 44.0118 11.9954 43.9402 12.1387C43.8686 12.2819 43.779 12.3804 43.6716 12.4341C43.5463 12.5057 43.4389 12.6042 43.3494 12.7295C43.2598 12.8369 43.1703 12.9443 43.0808 13.0518C41.8813 14.3766 40.7981 15.8895 39.8313 17.5903C38.8645 19.2733 37.8977 21.0457 36.9309 22.9077C36.6802 23.3732 36.4386 23.8298 36.2058 24.2773C35.991 24.7249 35.7672 25.1815 35.5344 25.647C36.537 24.5549 37.6112 23.6328 38.7571 22.8809C39.9029 22.1289 41.0398 21.556 42.1677 21.1621C43.3136 20.7503 44.4057 20.5176 45.4441 20.4639C46.4825 20.3923 47.3866 20.4818 48.1565 20.7324C49.3381 21.1263 50.3676 21.7798 51.2449 22.6929C52.14 23.606 52.8204 24.6981 53.2859 25.9692C53.7514 27.2404 53.9752 28.6548 53.9573 30.2124C53.9573 31.77 53.6619 33.3903 53.071 35.0732C51.9968 38.0811 50.3676 40.4354 48.1833 42.1362C46.017 43.8371 43.4568 44.777 40.5027 44.9561C39.5359 45.0277 38.5601 45.0366 37.5754 44.9829C36.5907 44.9292 35.6776 44.7412 34.8362 44.4189C34.0126 44.1146 33.3144 43.6312 32.7414 42.9688C32.1685 42.3242 31.8105 41.438 31.6672 40.3101C31.5061 39.3433 31.5419 38.3407 31.7747 37.3022C32.0253 36.2459 32.4102 35.2254 32.9294 34.2407C33.4486 33.256 34.0663 32.3519 34.7825 31.5283C35.5165 30.6868 36.2864 29.9976 37.092 29.4604C38.0767 28.6727 39.0346 28.1266 39.9656 27.8223C40.9145 27.5 41.7738 27.3836 42.5437 27.4731C43.3315 27.5627 44.0118 27.8312 44.5847 28.2788C45.1576 28.7085 45.5694 29.2814 45.8201 29.9976C46.0886 30.6958 46.1602 31.5104 46.0349 32.4414C45.9275 33.3545 45.5784 34.3392 44.9875 35.3955C44.898 35.5387 44.7369 35.7536 44.5041 36.04C44.2714 36.3086 43.967 36.5861 43.5911 36.8726C43.233 37.159 42.8033 37.4097 42.302 37.6245C41.8007 37.8394 41.2278 37.9468 40.5832 37.9468C40.3505 37.9468 40.1894 37.911 40.0998 37.8394C40.0103 37.7677 39.9656 37.6872 39.9656 37.5977C39.9835 37.4902 40.0461 37.4007 40.1536 37.3291C40.261 37.2396 40.3953 37.1769 40.5564 37.1411C40.9324 37.2306 41.3083 37.2217 41.6843 37.1143C42.0603 37.0068 42.4094 36.8368 42.7317 36.604C43.0719 36.3713 43.3762 36.1027 43.6448 35.7983C43.9312 35.4761 44.1729 35.1538 44.3699 34.8315C44.7637 34.2228 45.0323 33.5067 45.1755 32.6831C45.3188 31.8416 45.2919 31.0628 45.095 30.3467C44.9159 29.6305 44.531 29.0487 43.9402 28.6011C43.3673 28.1535 42.5437 28.0103 41.4695 28.1714C40.8608 28.3146 40.261 28.5205 39.6702 28.7891C39.0793 29.0576 38.4975 29.3799 37.9246 29.7559C37.101 30.3288 36.3311 31.0002 35.615 31.77C34.9167 32.5399 34.308 33.3724 33.7888 34.2676C33.2875 35.1449 32.9026 36.0669 32.634 37.0337C32.3834 37.9826 32.2849 38.9225 32.3386 39.8535C32.4102 40.874 32.7056 41.7065 33.2248 42.3511C33.7441 42.9777 34.3796 43.4521 35.1316 43.7744C35.9014 44.0967 36.734 44.2668 37.6291 44.2847C38.5422 44.3026 39.4106 44.1862 40.2341 43.9355C41.2367 43.6491 42.1677 43.1925 43.0271 42.5659C43.9044 41.9214 44.7011 41.1605 45.4172 40.2832C46.1513 39.388 46.8137 38.4123 47.4045 37.356C47.9954 36.2996 48.5146 35.2165 48.9622 34.1064C49.6783 32.334 50.1527 30.7406 50.3855 29.3262C50.6361 27.9118 50.6809 26.6854 50.5198 25.647C50.3765 24.5907 50.0453 23.7313 49.5261 23.0688C49.0248 22.3885 48.3713 21.8962 47.5657 21.5918C46.6884 21.2695 45.6231 21.2069 44.3699 21.4038C43.1345 21.6007 41.8455 22.0662 40.5027 22.8003C39.1778 23.5164 37.8798 24.4922 36.6086 25.7275C35.3375 26.9629 34.2454 28.4668 33.3323 30.2393C32.4729 32.0117 31.5956 33.7126 30.7004 35.3418C29.8052 36.9531 28.7758 38.4302 27.6121 39.7729C26.4483 41.0978 25.0966 42.2616 23.5569 43.2642C22.0172 44.2847 20.182 45.0814 18.0515 45.6543C15.9389 46.2272 13.8173 46.46 11.6868 46.3525C9.55623 46.2451 7.56892 45.8423 5.72484 45.144C4.22094 44.4458 3.02139 43.6222 2.12621 42.6733C1.24893 41.7244 0.64021 40.7487 0.30004 39.7461C-0.0222252 38.7256 -0.084888 37.723 0.112052 36.7383C0.308992 35.7357 0.747631 34.8584 1.42797 34.1064C2.10831 33.3366 3.01244 32.7279 4.14037 32.2803C5.2683 31.8148 6.60212 31.5999 8.14184 31.6357C8.35668 31.6536 8.6879 31.7074 9.13549 31.7969C9.60098 31.8864 10.1023 32.0565 10.6394 32.3071C11.1944 32.5578 11.7494 32.9248 12.3044 33.4082C12.8594 33.8737 13.3339 34.5003 13.7278 35.2881C13.8889 35.5924 13.9516 35.8252 13.9158 35.9863C13.8979 36.1475 13.8352 36.2549 13.7278 36.3086C13.6204 36.3444 13.4861 36.3265 13.3249 36.2549C13.1638 36.1833 13.0206 36.0579 12.8953 35.8789C12.752 35.3418 12.5014 34.8763 12.1433 34.4824C11.7852 34.0885 11.3734 33.7663 10.908 33.5156C10.4425 33.2471 9.95011 33.0412 9.4309 32.8979C8.91169 32.7547 8.41039 32.6652 7.92699 32.6294C6.9602 32.5578 6.07397 32.6383 5.2683 32.8711C4.46264 33.0859 3.75544 33.4082 3.14672 33.8379C2.538 34.2497 2.04565 34.751 1.66967 35.3418C1.3116 35.9326 1.0878 36.5592 0.998283 37.2217C0.908764 37.8304 0.944572 38.457 1.1057 39.1016C1.26684 39.7461 1.56225 40.3727 1.99193 40.9814C2.42162 41.5902 2.98559 42.172 3.68383 42.7271C4.39998 43.2642 5.2683 43.7297 6.28881 44.1235Z" fill="#212844"/>
<path d="M60.9665 45.1709C63.1866 45.2604 64.6189 46.0303 65.2634 47.4805L64.8069 47.749C64.4667 47.1224 63.9833 46.63 63.3567 46.272C62.7301 45.9318 61.8259 45.7438 60.6443 45.708L55.7834 53.7915C55.1031 54.8478 54.4138 55.7609 53.7156 56.5308C53.0173 57.3185 52.4086 57.9004 51.8894 58.2764C51.3702 58.6702 50.8599 58.9746 50.3586 59.1895C49.8394 59.4222 49.4545 59.5565 49.2038 59.5923C48.9532 59.646 48.7294 59.6729 48.5325 59.6729C47.6731 59.6729 47.2434 59.1268 47.2434 58.0347C47.2434 57.0142 47.5746 55.8683 48.2371 54.5972C48.8995 53.3439 49.741 52.1533 50.7615 51.0254C51.782 49.8975 52.9278 48.8501 54.199 47.8833C55.4522 46.9344 56.6607 46.2183 57.8245 45.7349L61.6111 39.6387L62.0676 38.7793C59.7939 41.5544 58.2183 42.9419 57.3411 42.9419C56.7681 42.9419 56.2489 42.6196 55.7834 41.9751C55.3 41.3127 55.0583 40.3548 55.0583 39.1016C55.0583 38.5465 55.2821 37.7498 55.7297 36.7114C56.1773 35.6551 56.7234 34.5719 57.3679 33.4619C58.0124 32.3519 58.648 31.2866 59.2747 30.2661C59.9192 29.2456 60.4652 28.4041 60.9128 27.7417L61.6111 26.7749H64.9949C64.78 27.0793 64.4936 27.491 64.1355 28.0103C63.7774 28.5295 63.1418 29.5052 62.2288 30.9375C61.3157 32.3519 60.51 33.6678 59.8118 34.8853C59.1135 36.0848 58.4779 37.3201 57.905 38.5913C57.3321 39.8446 57.0456 40.7756 57.0456 41.3843C57.0456 41.8677 57.2336 42.1094 57.6096 42.1094C58.4153 42.1094 60.5995 39.7371 64.1623 34.9927L68.8083 26.7749H72.031L60.9665 45.1709ZM48.3713 59.0015C48.7831 59.0015 49.3202 58.6523 49.9827 57.9541C50.6451 57.2738 51.3075 56.4323 51.97 55.4297C52.6145 54.445 53.2411 53.4603 53.8498 52.4756C54.4407 51.4909 54.9241 50.6584 55.3 49.978L55.864 48.9307L57.2873 46.5942C55.8551 47.3104 54.4138 48.3757 52.9636 49.79C51.4955 51.2044 50.296 52.6904 49.365 54.248C48.4161 55.8057 47.9416 57.1395 47.9416 58.2495C47.9416 58.715 48.0849 58.9657 48.3713 59.0015Z" fill="#212844"/>
<path d="M74.072 45.1709C76.2921 45.2604 77.7244 46.0303 78.3689 47.4805L77.9123 47.749C77.5722 47.1224 77.0888 46.63 76.4622 46.272C75.8355 45.9318 74.9314 45.7438 73.7497 45.708L68.8889 53.7915C68.2086 54.8478 67.5193 55.7609 66.821 56.5308C66.1228 57.3185 65.5141 57.9004 64.9949 58.2764C64.4757 58.6702 63.9654 58.9746 63.4641 59.1895C62.9449 59.4222 62.56 59.5565 62.3093 59.5923C62.0587 59.646 61.8349 59.6729 61.6379 59.6729C60.7786 59.6729 60.3489 59.1268 60.3489 58.0347C60.3489 57.0142 60.6801 55.8683 61.3425 54.5972C62.005 53.3439 62.8464 52.1533 63.8669 51.0254C64.8874 49.8975 66.0333 48.8501 67.3044 47.8833C68.5577 46.9344 69.7662 46.2183 70.9299 45.7349L74.4211 40.0952C72.6845 41.993 71.476 42.9419 70.7956 42.9419C69.99 42.9419 69.3902 42.5749 68.9963 41.8408C68.5845 41.1068 68.3787 40.1937 68.3787 39.1016C68.3787 38.2422 68.5845 37.3201 68.9963 36.3354C69.3902 35.3328 69.9184 34.384 70.5808 33.4888C71.2432 32.5757 71.9862 31.6984 72.8098 30.8569C73.6513 30.0155 74.4838 29.2904 75.3074 28.6816C76.1488 28.055 76.9635 27.5627 77.7512 27.2046C78.5569 26.8286 79.2372 26.6406 79.7922 26.6406C80.5979 26.6406 80.9291 27.3568 80.7859 28.7891L81.9138 26.7749H85.1365L74.072 45.1709ZM70.7956 42.2168C71.2611 42.2168 71.9952 41.7155 72.9978 40.7129C74.0004 39.6924 74.9851 38.5645 75.9519 37.3291L76.3547 36.604L79.9534 30.293C80.025 29.9349 80.0876 29.5858 80.1413 29.2456C80.1951 28.8875 80.2309 28.5474 80.2488 28.2251C80.2667 27.9028 80.2309 27.6522 80.1413 27.4731C80.0697 27.2762 79.9534 27.1777 79.7922 27.1777C78.9508 27.1777 77.975 27.7596 76.865 28.9233C75.755 30.0871 74.7434 31.4567 73.8303 33.0322C72.9172 34.6077 72.1384 36.2101 71.4939 37.8394C70.8494 39.4686 70.5271 40.7397 70.5271 41.6528C70.5271 42.0288 70.6166 42.2168 70.7956 42.2168ZM61.4768 59.0015C61.8886 59.0015 62.4257 58.6523 63.0881 57.9541C63.7506 57.2738 64.413 56.4323 65.0754 55.4297C65.72 54.445 66.3466 53.4603 66.9553 52.4756C67.5461 51.4909 68.0295 50.6584 68.4055 49.978L68.9695 48.9307L70.3928 46.5942C68.9605 47.3104 67.5193 48.3757 66.0691 49.79C64.601 51.2044 63.4014 52.6904 62.4705 54.248C61.5216 55.8057 61.0471 57.1395 61.0471 58.2495C61.0471 58.715 61.1903 58.9657 61.4768 59.0015Z" fill="#212844"/>
<path d="M85.7004 42.2437C87.4908 42.2437 90.3106 39.7282 94.1599 34.6973H94.9924C94.151 35.8073 93.3363 36.8188 92.5486 37.7319C91.7787 38.6271 90.9641 39.4865 90.1047 40.3101C89.2633 41.1336 88.4486 41.7782 87.6609 42.2437C86.8731 42.7091 86.1659 42.9419 85.5393 42.9419C84.5904 42.9419 83.7847 42.6017 83.1223 41.9214C82.4778 41.241 82.1555 40.2116 82.1555 38.833C82.1555 37.6335 82.5136 36.3086 83.2297 34.8584C83.9459 33.3903 84.8321 32.0565 85.8884 30.8569C86.9626 29.6574 88.1532 28.6548 89.4602 27.8491C90.7672 27.0435 91.9757 26.6406 93.0857 26.6406C93.2826 26.6406 93.4796 26.6764 93.6765 26.748C93.8913 26.8197 94.1062 26.945 94.321 27.124C94.5359 27.2852 94.706 27.5448 94.8313 27.9028C94.9745 28.243 95.0461 28.6727 95.0461 29.1919C95.0461 30.3735 94.5627 31.5104 93.5959 32.6025C92.6291 33.6947 91.4744 34.4914 90.1316 34.9927C88.7888 35.4761 87.6072 35.5298 86.5867 35.1538C85.3334 37.4634 84.7068 39.2537 84.7068 40.5249C84.7068 41.6707 85.038 42.2437 85.7004 42.2437ZM92.9246 27.2046C92.4412 27.2046 91.5549 27.9924 90.2659 29.5679C88.9947 31.1434 87.831 32.88 86.7747 34.7778C87.4371 34.8853 88.1085 34.7778 88.7888 34.4556C89.4871 34.1333 90.0958 33.6947 90.615 33.1396C91.1521 32.5667 91.6265 31.9491 92.0383 31.2866C92.468 30.6063 92.7903 29.9528 93.0051 29.3262C93.2379 28.6995 93.3542 28.1803 93.3542 27.7686C93.3542 27.3926 93.211 27.2046 92.9246 27.2046Z" fill="#212844"/>
<path d="M118.948 34.9658C118.428 35.682 117.927 36.3713 117.444 37.0337C116.96 37.6782 116.486 38.2869 116.02 38.8599C115.573 39.4149 115.107 39.952 114.624 40.4712C114.14 40.9904 113.675 41.4559 113.227 41.8677C112.78 42.2616 112.359 42.5838 111.965 42.8345C111.589 43.0851 111.285 43.2104 111.052 43.2104C110.783 43.2104 110.488 43.1657 110.166 43.0762C109.843 42.9867 109.566 42.8166 109.333 42.5659C109.011 42.2257 108.805 41.7961 108.716 41.2769C108.626 40.7576 108.617 40.2116 108.689 39.6387C108.76 39.0658 108.895 38.4839 109.092 37.8931C109.288 37.2843 109.512 36.7204 109.763 36.2012C110.103 35.4671 110.488 34.7062 110.918 33.9185C111.365 33.1128 111.813 32.334 112.26 31.582C112.726 30.8301 113.165 30.1318 113.576 29.4873C114.006 28.8249 114.364 28.2788 114.651 27.8491L114.704 27.7417C114.024 28.0282 113.317 28.5921 112.583 29.4336C111.849 30.2572 111.106 31.224 110.354 32.334C109.62 33.4261 108.877 34.5809 108.125 35.7983C107.373 36.9979 106.639 38.1169 105.923 39.1553C105.224 40.1937 104.544 41.071 103.882 41.7871C103.237 42.5033 102.637 42.915 102.082 43.0225C101.456 43.1478 101.008 43.0046 100.739 42.5928C100.489 42.181 100.372 41.617 100.39 40.9009C100.426 40.1847 100.578 39.388 100.847 38.5107C101.115 37.6335 101.465 36.792 101.894 35.9863C102.27 35.2881 102.682 34.554 103.13 33.7842C103.577 32.9964 104.016 32.2266 104.446 31.4746C104.893 30.7227 105.323 30.0244 105.735 29.3799C106.146 28.7354 106.496 28.1982 106.782 27.7686L106.836 27.688C106.191 27.867 105.591 28.1624 105.036 28.5742C104.499 28.9681 103.989 29.4515 103.506 30.0244C103.022 30.5973 102.566 31.2329 102.136 31.9312C101.706 32.6294 101.295 33.3545 100.901 34.1064C100.328 35.2344 99.7637 36.3265 99.2087 37.3828C98.6716 38.4212 98.1166 39.3612 97.5437 40.2026C97.0603 40.9725 96.5053 41.6349 95.8787 42.1899C95.252 42.745 94.5269 43.0404 93.7034 43.0762C92.9872 42.9867 92.477 42.7539 92.1726 42.3779C91.8682 42.002 91.6892 41.5812 91.6355 41.1157C91.546 40.7756 91.546 40.4085 91.6355 40.0146C91.7071 39.6208 91.8324 39.2448 92.0115 38.8867C92.1905 38.5286 92.4143 38.2064 92.6829 37.9199C92.9514 37.6335 93.2289 37.4365 93.5154 37.3291C94.0346 37.1859 94.5001 37.1948 94.9119 37.356C95.3236 37.5171 95.5743 37.8125 95.6638 38.2422C95.7354 38.6719 95.6817 39.1105 95.5027 39.5581C95.3236 39.9878 95.1088 40.3906 94.8581 40.7666C94.6254 41.1426 94.4016 41.4827 94.1868 41.7871C93.9719 42.0736 93.8734 42.2884 93.8913 42.4316C93.8555 42.5212 93.8645 42.5391 93.9182 42.4854C93.9898 42.4137 94.1151 42.3958 94.2942 42.4316C94.706 42.2884 95.1088 42.0557 95.5027 41.7334C95.9145 41.3932 96.3173 40.9188 96.7112 40.3101C97.2841 39.4149 97.8302 38.457 98.3494 37.4365C98.8686 36.3981 99.4146 35.3687 99.9875 34.3481C100.507 33.3993 101.026 32.4951 101.545 31.6357C102.082 30.7585 102.646 29.9886 103.237 29.3262C103.828 28.6458 104.463 28.0908 105.144 27.6611C105.824 27.2135 106.585 26.936 107.427 26.8286L107.453 26.7749H110.864C110.81 26.8465 110.64 27.1151 110.354 27.5806C110.067 28.0282 109.7 28.6279 109.253 29.3799C108.805 30.1318 108.286 31.0002 107.695 31.9849C107.122 32.9696 106.513 34.0169 105.869 35.127C105.529 35.6999 105.18 36.3265 104.822 37.0068C104.463 37.6693 104.132 38.3228 103.828 38.9673C103.524 39.5939 103.273 40.1668 103.076 40.686C102.879 41.2052 102.781 41.6081 102.781 41.8945C103.246 41.5544 103.774 40.9814 104.365 40.1758C104.956 39.3522 105.582 38.4212 106.245 37.3828C106.925 36.3265 107.632 35.2254 108.366 34.0796C109.1 32.9338 109.852 31.8685 110.622 30.8838C111.392 29.8812 112.162 29.0218 112.932 28.3057C113.72 27.5716 114.498 27.1151 115.268 26.936L115.322 26.8555H118.733C118.679 26.9271 118.5 27.1956 118.196 27.6611C117.891 28.1087 117.497 28.7085 117.014 29.4604C116.548 30.1945 116.011 31.0539 115.403 32.0386C114.812 33.0054 114.194 34.0438 113.55 35.1538C113.209 35.7267 112.869 36.3354 112.529 36.98C112.207 37.6245 111.911 38.2511 111.643 38.8599C111.392 39.4507 111.186 39.9967 111.025 40.498C110.864 40.9814 110.783 41.3664 110.783 41.6528C110.783 42.1183 110.971 42.3511 111.347 42.3511C111.562 42.3511 111.893 42.1541 112.341 41.7603C112.807 41.3664 113.344 40.8382 113.952 40.1758C114.561 39.4954 115.224 38.7077 115.94 37.8125C116.656 36.9173 117.39 35.9684 118.142 34.9658H118.948Z" fill="#212844"/>
<path d="M141.963 34.6973H142.768C142.41 35.2702 142.034 35.8341 141.64 36.3892C141.246 36.9442 140.718 37.6424 140.056 38.4839C139.393 39.3254 138.767 40.0594 138.176 40.686C137.603 41.2948 136.985 41.8229 136.323 42.2705C135.661 42.7181 135.088 42.9419 134.604 42.9419C134.425 42.9419 134.246 42.924 134.067 42.8882C133.888 42.8345 133.673 42.736 133.423 42.5928C133.19 42.4495 132.984 42.2616 132.805 42.0288C132.644 41.7961 132.501 41.4648 132.375 41.0352C132.25 40.6055 132.187 40.1042 132.187 39.5312C132.187 38.9404 132.42 38.1974 132.885 37.3022C133.369 36.4071 133.951 35.5119 134.631 34.6167C135.311 33.7036 135.992 32.8263 136.672 31.9849C137.352 31.1255 137.925 30.3377 138.391 29.6216C138.874 28.9054 139.116 28.3862 139.116 28.064C139.116 27.688 138.982 27.5 138.713 27.5C138.158 27.5 137.433 27.8402 136.538 28.5205C135.661 29.1829 134.792 29.9886 133.933 30.9375C133.073 31.8864 132.25 32.8442 131.462 33.811C130.674 34.7599 130.039 35.5656 129.555 36.228L128.83 37.2485L114.865 59.6729H111.885L124.829 39.021L127.112 34.751L132.08 26.7749H135.114L135.061 26.8555C134.434 27.9476 133.315 29.7827 131.704 32.3608C134.658 28.5474 137.129 26.6406 139.116 26.6406C139.689 26.6406 140.163 26.8197 140.539 27.1777C140.933 27.5358 141.13 28.1087 141.13 28.8965C141.13 29.5589 140.879 30.3646 140.378 31.3135C139.895 32.2624 139.304 33.2113 138.606 34.1602C137.925 35.109 137.236 36.04 136.538 36.9531C135.84 37.8662 135.249 38.7256 134.765 39.5312C134.282 40.319 134.04 40.9367 134.04 41.3843C134.04 41.9572 134.228 42.2437 134.604 42.2437C135.07 42.2437 135.643 41.9751 136.323 41.438C137.003 40.9009 137.711 40.1937 138.445 39.3164C139.197 38.4391 139.841 37.6424 140.378 36.9263C140.933 36.1922 141.461 35.4492 141.963 34.6973Z" fill="#212844"/>
<path d="M156.384 34.6973H157.163C157.02 34.93 156.823 35.2344 156.572 35.6104C156.339 35.9684 155.883 36.6219 155.202 37.5708C154.522 38.5197 153.86 39.3612 153.215 40.0952C152.588 40.8114 151.899 41.4648 151.147 42.0557C150.395 42.6465 149.751 42.9419 149.214 42.9419C148.659 42.9419 148.139 42.6107 147.656 41.9482C147.19 41.2858 146.958 40.3369 146.958 39.1016V38.9673C144.97 41.617 143.458 42.9419 142.419 42.9419C141.614 42.9419 141.014 42.5749 140.62 41.8408C140.208 41.1068 140.002 40.1937 140.002 39.1016C140.002 38.0811 140.28 36.971 140.835 35.7715C141.39 34.554 142.106 33.4261 142.983 32.3877C143.86 31.3314 144.8 30.3646 145.803 29.4873C146.806 28.61 147.79 27.9207 148.757 27.4194C149.742 26.9002 150.565 26.6406 151.228 26.6406C152.123 26.6406 152.409 27.3836 152.087 28.8696L153.484 26.7749H156.894C156.679 27.0972 156.393 27.5179 156.035 28.0371C155.677 28.5563 155.041 29.5321 154.128 30.9644C153.215 32.3787 152.409 33.6857 151.711 34.8853C151.013 36.0848 150.377 37.3201 149.804 38.5913C149.232 39.8446 148.945 40.7756 148.945 41.3843C148.945 41.8498 149.133 42.0825 149.509 42.0825C149.831 42.0825 150.27 41.8498 150.825 41.3843C151.398 40.9188 151.944 40.3906 152.463 39.7998C152.982 39.209 153.546 38.5107 154.155 37.7051C154.782 36.8994 155.238 36.2907 155.525 35.8789C155.829 35.4671 156.115 35.0732 156.384 34.6973ZM142.419 42.2437C143.296 42.2437 144.988 40.498 147.495 37.0068C148.014 35.7178 148.981 33.9006 150.395 31.5552C150.521 31.2866 150.664 30.9375 150.825 30.5078C151.004 30.0602 151.174 29.5858 151.335 29.0845C151.496 28.5653 151.568 28.1266 151.55 27.7686C151.55 27.3926 151.443 27.2046 151.228 27.2046C150.386 27.2046 149.419 27.7865 148.327 28.9502C147.235 30.1139 146.242 31.4836 145.346 33.0591C144.451 34.6167 143.69 36.2191 143.064 37.8662C142.437 39.4954 142.124 40.7666 142.124 41.6797C142.124 42.0557 142.222 42.2437 142.419 42.2437Z" fill="#212844"/>
<path d="M160.6 45.1709C162.82 45.2604 164.253 46.0303 164.897 47.4805L164.441 47.749C164.1 47.1224 163.617 46.63 162.99 46.272C162.364 45.9318 161.46 45.7438 160.278 45.708L155.417 53.7915C154.737 54.8478 154.048 55.7609 153.349 56.5308C152.651 57.3185 152.042 57.9004 151.523 58.2764C151.004 58.6702 150.494 58.9746 149.992 59.1895C149.473 59.4222 149.088 59.5565 148.838 59.5923C148.587 59.646 148.363 59.6729 148.166 59.6729C147.307 59.6729 146.877 59.1268 146.877 58.0347C146.877 57.0142 147.208 55.8683 147.871 54.5972C148.533 53.3439 149.375 52.1533 150.395 51.0254C151.416 49.8975 152.562 48.8501 153.833 47.8833C155.086 46.9344 156.294 46.2183 157.458 45.7349L160.949 40.0952C159.213 41.993 158.004 42.9419 157.324 42.9419C156.518 42.9419 155.919 42.5749 155.525 41.8408C155.113 41.1068 154.907 40.1937 154.907 39.1016C154.907 38.2422 155.113 37.3201 155.525 36.3354C155.919 35.3328 156.447 34.384 157.109 33.4888C157.772 32.5757 158.515 31.6984 159.338 30.8569C160.18 30.0155 161.012 29.2904 161.836 28.6816C162.677 28.055 163.492 27.5627 164.28 27.2046C165.085 26.8286 165.766 26.6406 166.321 26.6406C167.126 26.6406 167.457 27.3568 167.314 28.7891L168.442 26.7749H171.665L160.6 45.1709ZM157.324 42.2168C157.789 42.2168 158.524 41.7155 159.526 40.7129C160.529 39.6924 161.513 38.5645 162.48 37.3291L162.883 36.604L166.482 30.293C166.553 29.9349 166.616 29.5858 166.67 29.2456C166.723 28.8875 166.759 28.5474 166.777 28.2251C166.795 27.9028 166.759 27.6522 166.67 27.4731C166.598 27.2762 166.482 27.1777 166.321 27.1777C165.479 27.1777 164.503 27.7596 163.393 28.9233C162.283 30.0871 161.272 31.4567 160.359 33.0322C159.446 34.6077 158.667 36.2101 158.022 37.8394C157.378 39.4686 157.055 40.7397 157.055 41.6528C157.055 42.0288 157.145 42.2168 157.324 42.2168ZM148.005 59.0015C148.417 59.0015 148.954 58.6523 149.616 57.9541C150.279 57.2738 150.941 56.4323 151.604 55.4297C152.248 54.445 152.875 53.4603 153.484 52.4756C154.074 51.4909 154.558 50.6584 154.934 49.978L155.498 48.9307L156.921 46.5942C155.489 47.3104 154.048 48.3757 152.597 49.79C151.129 51.2044 149.93 52.6904 148.999 54.248C148.05 55.8057 147.575 57.1395 147.575 58.2495C147.575 58.715 147.719 58.9657 148.005 59.0015Z" fill="#212844"/>
<path d="M190.544 34.7778C190.025 35.494 189.524 36.1833 189.04 36.8457C188.557 37.4902 188.082 38.099 187.617 38.6719C187.151 39.2448 186.677 39.7819 186.194 40.2832C185.728 40.7845 185.263 41.259 184.797 41.7065C183.866 42.5838 183.15 43.0225 182.649 43.0225C182.362 43.0225 182.085 42.9419 181.816 42.7808C181.548 42.6017 181.306 42.3511 181.091 42.0288C180.876 41.7065 180.706 41.3127 180.581 40.8472C180.455 40.3638 180.393 39.8088 180.393 39.1821C180.393 38.5913 180.617 37.7856 181.064 36.7651C181.512 35.7267 182.049 34.6525 182.676 33.5425C182.819 33.3097 182.944 33.0859 183.051 32.8711C183.177 32.6383 183.311 32.4146 183.454 32.1997C182.971 32.5578 182.452 32.8621 181.897 33.1128C181.342 33.3634 180.751 33.5246 180.124 33.5962C180.267 34.2586 180.232 35.0285 180.017 35.9058C179.766 36.9442 179.345 37.902 178.755 38.7793C178.182 39.6566 177.501 40.4175 176.714 41.062C175.926 41.6886 175.075 42.1899 174.162 42.5659C173.249 42.924 172.345 43.103 171.45 43.103C170.788 43.1746 170.259 43.103 169.865 42.8882C169.472 42.6733 169.167 42.369 168.952 41.9751C168.738 41.5812 168.612 41.1336 168.576 40.6323C168.523 40.1131 168.523 39.6029 168.576 39.1016C168.63 38.5824 168.729 38.09 168.872 37.6245C168.997 37.159 169.131 36.7741 169.275 36.4697C170.044 34.5361 170.904 32.7905 171.853 31.2329C172.802 29.6574 173.706 28.1714 174.565 26.7749H177.734C177.663 26.8644 177.331 27.4015 176.74 28.3862C176.15 29.353 175.308 30.839 174.216 32.8442C174.843 32.2892 175.451 31.8864 176.042 31.6357C176.651 31.3851 177.206 31.2777 177.707 31.3135C178.226 31.3314 178.674 31.4836 179.05 31.77C179.444 32.0386 179.739 32.4146 179.936 32.8979C180.814 32.8621 181.655 32.5936 182.461 32.0923C183.266 31.5731 183.974 31.0091 184.582 30.4004C184.887 29.8812 185.182 29.4157 185.468 29.0039C185.755 28.5742 186.015 28.1893 186.247 27.8491L186.919 26.8555H190.329C190.222 27.0166 190.097 27.2046 189.953 27.4194C189.81 27.6343 189.649 27.867 189.47 28.1177C189.291 28.3683 189.04 28.7443 188.718 29.2456C188.414 29.729 188.029 30.3288 187.563 31.0449C187.098 31.7611 186.668 32.4414 186.274 33.0859C185.88 33.7305 185.504 34.3571 185.146 34.9658C184.788 35.5745 184.448 36.1922 184.126 36.8188C183.821 37.4276 183.526 38.0452 183.239 38.6719C182.667 39.9609 182.38 40.8919 182.38 41.4648C182.38 41.9303 182.568 42.1631 182.944 42.1631C183.41 42.1631 184.269 41.4559 185.522 40.0415C186.811 38.5913 188.217 36.8368 189.739 34.7778H190.544ZM172.524 36.0669C172.238 36.6219 171.96 37.2843 171.692 38.0542C171.423 38.8062 171.226 39.5223 171.101 40.2026C170.993 40.883 170.993 41.4469 171.101 41.8945C171.208 42.3421 171.495 42.5391 171.96 42.4854C172.444 42.4316 172.936 42.1989 173.437 41.7871C173.956 41.3574 174.449 40.8293 174.914 40.2026C175.398 39.576 175.836 38.8867 176.23 38.1348C176.642 37.3649 176.982 36.604 177.251 35.8521C177.394 35.4761 177.528 35.0285 177.654 34.5093C177.797 33.9722 177.868 33.5067 177.868 33.1128C177.85 32.6473 177.707 32.3429 177.439 32.1997C177.17 32.0386 176.821 32.0117 176.391 32.1191C175.98 32.2266 175.523 32.4504 175.022 32.7905C174.538 33.1307 174.055 33.5604 173.572 34.0796C173.392 34.384 173.213 34.7062 173.034 35.0464C172.873 35.3687 172.703 35.7088 172.524 36.0669Z" fill="#212844"/>
<path d="M206.174 27.5806C207.069 26.9539 207.866 26.6406 208.564 26.6406C208.904 26.6406 209.182 26.7839 209.397 27.0703C209.629 27.3389 209.773 27.7238 209.826 28.2251C209.898 28.7264 209.88 29.3351 209.773 30.0513C209.665 30.7674 209.459 31.5641 209.155 32.4414C210.516 32.3877 212.234 31.5283 214.311 29.8633L214.768 30.481C213.353 31.5731 212.208 32.2982 211.33 32.6562C210.489 32.9964 209.701 33.1665 208.967 33.1665H208.86C208.716 33.5604 208.546 33.9543 208.349 34.3481C208.152 34.742 207.929 35.1449 207.678 35.5566C206.425 37.7946 205.037 39.5939 203.515 40.9546C202.029 42.2795 200.776 42.9419 199.756 42.9419C198.95 42.9419 198.35 42.5749 197.956 41.8408C197.544 41.1068 197.339 40.2026 197.339 39.1284C197.339 37.7677 197.786 36.2907 198.681 34.6973C199.577 33.1396 200.373 31.7342 201.072 30.481C201.77 29.2098 202.414 28.0461 203.005 26.9897C203.614 25.9334 204.187 24.9487 204.724 24.0356C205.279 23.1047 205.843 22.2005 206.416 21.3232C207.186 20.1416 207.991 19.0047 208.833 17.9126C209.674 16.8026 210.525 15.8268 211.384 14.9854C212.261 14.1439 213.121 13.4993 213.962 13.0518C214.804 12.5863 215.609 12.4072 216.379 12.5146C216.97 12.6042 217.337 12.9443 217.48 13.5352C217.623 14.126 217.606 14.8063 217.426 15.5762C217.283 16.1491 217.015 16.7936 216.621 17.5098C216.245 18.208 215.77 18.9421 215.197 19.7119C214.625 20.4818 213.971 21.2516 213.237 22.0215C212.521 22.7913 211.769 23.5343 210.981 24.2505C210.193 24.9487 209.388 25.5843 208.564 26.1572C207.741 26.7301 206.944 27.2046 206.174 27.5806ZM206.926 35.2881C207.159 34.8763 207.374 34.4824 207.571 34.1064C207.767 33.7126 207.938 33.3366 208.081 32.9785C207.651 32.7637 207.356 32.4235 207.195 31.958C207.033 31.4746 206.98 31.0091 207.033 30.5615C207.087 30.0423 207.347 29.5052 207.812 28.9502C208.242 28.4131 208.707 28.0998 209.209 28.0103C209.065 27.4731 208.842 27.2046 208.537 27.2046C208.376 27.2046 208.161 27.2583 207.893 27.3657C207.642 27.4731 207.365 27.6253 207.06 27.8223C206.756 28.0013 206.434 28.2161 206.093 28.4668C205.771 28.7174 205.458 28.986 205.154 29.2725C205.064 29.4515 204.93 29.6753 204.751 29.9438C204.59 30.2124 204.393 30.5347 204.16 30.9106C203.927 31.2687 203.721 31.582 203.542 31.8506C203.381 32.1191 203.256 32.325 203.166 32.4683C202.969 32.7905 202.754 33.1396 202.522 33.5156C202.289 33.8916 202.038 34.2855 201.77 34.6973C201.412 35.3955 201.089 36.0848 200.803 36.7651C200.534 37.4276 200.293 38.0632 200.078 38.6719C199.881 39.2627 199.729 39.8177 199.621 40.3369C199.514 40.8561 199.46 41.3037 199.46 41.6797C199.46 42.0557 199.559 42.2437 199.756 42.2437C200.579 42.2437 201.707 41.5723 203.139 40.2295C204.607 38.8688 205.87 37.2217 206.926 35.2881ZM205.798 27.1509C206.675 26.5959 207.571 25.9513 208.484 25.2173C209.397 24.4832 210.274 23.7044 211.115 22.8809C211.975 22.0573 212.763 21.2069 213.479 20.3296C214.195 19.4344 214.777 18.5571 215.224 17.6978C215.69 16.8205 216.003 15.9701 216.164 15.1465C216.325 14.3229 216.272 13.562 216.003 12.8638C215.573 12.7563 215.126 12.8548 214.66 13.1592C214.195 13.4635 213.72 13.9111 213.237 14.502C212.772 15.0749 212.297 15.7463 211.814 16.5161C211.348 17.2681 210.892 18.0379 210.444 18.8257C210.014 19.6134 209.603 20.3743 209.209 21.1084C208.833 21.8245 208.493 22.4333 208.188 22.9346C207.741 23.7402 207.32 24.4743 206.926 25.1367C206.532 25.7812 206.156 26.4526 205.798 27.1509Z" fill="#212844"/>
<path d="M225.886 34.6973H226.692C226.548 34.93 226.351 35.2344 226.101 35.6104C225.868 35.9684 225.403 36.6219 224.704 37.5708C224.024 38.5197 223.371 39.3612 222.744 40.0952C222.135 40.8114 221.446 41.4648 220.676 42.0557C219.924 42.6465 219.288 42.9419 218.769 42.9419C218.178 42.9419 217.65 42.6107 217.185 41.9482C216.719 41.2858 216.487 40.3369 216.487 39.1016C216.487 38.7077 216.594 38.1974 216.809 37.5708C214.034 41.1515 212.136 42.9419 211.115 42.9419C210.543 42.9419 210.023 42.6107 209.558 41.9482C209.092 41.2858 208.86 40.3369 208.86 39.1016C208.86 38.5465 209.083 37.7409 209.531 36.6846C209.979 35.6283 210.516 34.554 211.142 33.4619C211.787 32.3519 212.431 31.2866 213.076 30.2661C213.72 29.2456 214.267 28.4131 214.714 27.7686L215.385 26.7749H218.796C218.581 27.0972 218.295 27.5179 217.937 28.0371C217.579 28.5563 216.943 29.5321 216.03 30.9644C215.117 32.3787 214.311 33.6857 213.613 34.8853C212.915 36.0848 212.279 37.3201 211.706 38.5913C211.133 39.8446 210.847 40.7756 210.847 41.3843C210.847 41.8498 211.035 42.0825 211.411 42.0825C212.217 42.0825 214.419 39.6924 218.017 34.9121C218.59 33.8021 219.288 32.5757 220.112 31.2329C220.954 29.8722 221.643 28.7891 222.18 27.9834L223.012 26.7749H226.423C226.208 27.0972 225.913 27.5179 225.537 28.0371C225.179 28.5563 224.543 29.5321 223.63 30.9644C222.717 32.3787 221.911 33.6857 221.213 34.8853C220.533 36.0848 219.906 37.3201 219.333 38.5913C218.76 39.8446 218.474 40.7756 218.474 41.3843C218.474 41.8498 218.662 42.0825 219.038 42.0825C219.36 42.0825 219.799 41.8498 220.354 41.3843C220.909 40.9188 221.446 40.3906 221.965 39.7998C222.484 39.209 223.057 38.5107 223.684 37.7051C224.31 36.8994 224.767 36.2907 225.053 35.8789C225.358 35.4671 225.635 35.0732 225.886 34.6973Z" fill="#212844"/>
<path d="M230.156 45.1709C232.376 45.2604 233.808 46.0303 234.453 47.4805L233.996 47.749C233.656 47.1224 233.173 46.63 232.546 46.272C231.919 45.9318 231.015 45.7438 229.834 45.708L224.973 53.7915C224.293 54.8478 223.603 55.7609 222.905 56.5308C222.207 57.3185 221.598 57.9004 221.079 58.2764C220.56 58.6702 220.049 58.9746 219.548 59.1895C219.029 59.4222 218.644 59.5565 218.393 59.5923C218.143 59.646 217.919 59.6729 217.722 59.6729C216.863 59.6729 216.433 59.1268 216.433 58.0347C216.433 57.0142 216.764 55.8683 217.426 54.5972C218.089 53.3439 218.93 52.1533 219.951 51.0254C220.971 49.8975 222.117 48.8501 223.388 47.8833C224.642 46.9344 225.85 46.2183 227.014 45.7349L230.505 40.0952C228.768 41.993 227.56 42.9419 226.88 42.9419C226.074 42.9419 225.474 42.5749 225.08 41.8408C224.669 41.1068 224.463 40.1937 224.463 39.1016C224.463 38.2422 224.669 37.3201 225.08 36.3354C225.474 35.3328 226.002 34.384 226.665 33.4888C227.327 32.5757 228.07 31.6984 228.894 30.8569C229.735 30.0155 230.568 29.2904 231.391 28.6816C232.233 28.055 233.047 27.5627 233.835 27.2046C234.641 26.8286 235.321 26.6406 235.876 26.6406C236.682 26.6406 237.013 27.3568 236.87 28.7891L237.998 26.7749H241.22L230.156 45.1709ZM226.88 42.2168C227.345 42.2168 228.079 41.7155 229.082 40.7129C230.084 39.6924 231.069 38.5645 232.036 37.3291L232.439 36.604L236.037 30.293C236.109 29.9349 236.172 29.5858 236.225 29.2456C236.279 28.8875 236.315 28.5474 236.333 28.2251C236.351 27.9028 236.315 27.6522 236.225 27.4731C236.154 27.2762 236.037 27.1777 235.876 27.1777C235.035 27.1777 234.059 27.7596 232.949 28.9233C231.839 30.0871 230.827 31.4567 229.914 33.0322C229.001 34.6077 228.222 36.2101 227.578 37.8394C226.933 39.4686 226.611 40.7397 226.611 41.6528C226.611 42.0288 226.701 42.2168 226.88 42.2168ZM217.561 59.0015C217.973 59.0015 218.51 58.6523 219.172 57.9541C219.835 57.2738 220.497 56.4323 221.159 55.4297C221.804 54.445 222.431 53.4603 223.039 52.4756C223.63 51.4909 224.114 50.6584 224.489 49.978L225.053 48.9307L226.477 46.5942C225.044 47.3104 223.603 48.3757 222.153 49.79C220.685 51.2044 219.485 52.6904 218.554 54.248C217.606 55.8057 217.131 57.1395 217.131 58.2495C217.131 58.715 217.274 58.9657 217.561 59.0015Z" fill="#212844"/>
<path d="M241.784 42.2437C243.575 42.2437 246.395 39.7282 250.244 34.6973H251.076C250.235 35.8073 249.42 36.8188 248.633 37.7319C247.863 38.6271 247.048 39.4865 246.189 40.3101C245.347 41.1336 244.533 41.7782 243.745 42.2437C242.957 42.7091 242.25 42.9419 241.623 42.9419C240.674 42.9419 239.869 42.6017 239.206 41.9214C238.562 41.241 238.239 40.2116 238.239 38.833C238.239 37.6335 238.598 36.3086 239.314 34.8584C240.03 33.3903 240.916 32.0565 241.972 30.8569C243.047 29.6574 244.237 28.6548 245.544 27.8491C246.851 27.0435 248.06 26.6406 249.17 26.6406C249.367 26.6406 249.564 26.6764 249.76 26.748C249.975 26.8197 250.19 26.945 250.405 27.124C250.62 27.2852 250.79 27.5448 250.915 27.9028C251.058 28.243 251.13 28.6727 251.13 29.1919C251.13 30.3735 250.647 31.5104 249.68 32.6025C248.713 33.6947 247.558 34.4914 246.216 34.9927C244.873 35.4761 243.691 35.5298 242.671 35.1538C241.417 37.4634 240.791 39.2537 240.791 40.5249C240.791 41.6707 241.122 42.2437 241.784 42.2437ZM249.009 27.2046C248.525 27.2046 247.639 27.9924 246.35 29.5679C245.079 31.1434 243.915 32.88 242.859 34.7778C243.521 34.8853 244.192 34.7778 244.873 34.4556C245.571 34.1333 246.18 33.6947 246.699 33.1396C247.236 32.5667 247.711 31.9491 248.122 31.2866C248.552 30.6063 248.874 29.9528 249.089 29.3262C249.322 28.6995 249.438 28.1803 249.438 27.7686C249.438 27.3926 249.295 27.2046 249.009 27.2046Z" fill="#212844"/>
<path d="M271.728 34.6973H272.534C272.176 35.2702 271.8 35.8341 271.406 36.3892C271.012 36.9442 270.484 37.6424 269.822 38.4839C269.159 39.3254 268.532 40.0594 267.942 40.686C267.369 41.2948 266.751 41.8229 266.089 42.2705C265.444 42.7181 264.871 42.9419 264.37 42.9419C264.209 42.9419 264.03 42.924 263.833 42.8882C263.654 42.8345 263.448 42.736 263.215 42.5928C262.982 42.4495 262.776 42.2616 262.597 42.0288C262.418 41.7961 262.266 41.4648 262.141 41.0352C262.016 40.6055 261.953 40.1042 261.953 39.5312C261.953 38.9404 262.195 38.1974 262.678 37.3022C263.161 36.4071 263.743 35.5119 264.424 34.6167C265.104 33.7036 265.775 32.8263 266.438 31.9849C267.118 31.1255 267.7 30.3377 268.183 29.6216C268.667 28.9054 268.908 28.3862 268.908 28.064C268.908 27.688 268.765 27.5 268.479 27.5C268.085 27.5 267.548 27.7775 266.867 28.3325C266.187 28.8696 265.489 29.55 264.773 30.3735C264.057 31.1792 263.26 32.1549 262.383 33.3008C261.505 34.4287 260.718 35.4671 260.019 36.416C259.339 37.3649 258.641 38.3586 257.925 39.397C257.011 40.8293 256.242 41.9661 255.615 42.8076H252.715C253.019 42.2705 253.95 40.8024 255.508 38.4033C257.065 36.0042 258.399 33.8379 259.509 31.9043C260.619 29.9528 261.174 28.6727 261.174 28.064C261.174 27.688 261.058 27.5 260.825 27.5C260.521 27.5 260.055 27.7686 259.428 28.3057C258.82 28.8249 258.193 29.4425 257.549 30.1587C256.904 30.8748 256.188 31.7342 255.4 32.7368C254.612 33.7215 253.959 34.554 253.44 35.2344C252.938 35.8968 252.437 36.5682 251.936 37.2485L248.659 42.8076H245.517L247.988 39.021L250.217 34.751L255.132 26.7749H258.22C258.148 26.9002 257.96 27.1956 257.656 27.6611C257.37 28.1266 257.038 28.6548 256.662 29.2456C256.304 29.8364 256.054 30.2482 255.91 30.481C255.337 31.4119 254.899 32.1102 254.594 32.5757C257.549 28.619 259.769 26.6406 261.255 26.6406C261.792 26.6406 262.239 26.8286 262.597 27.2046C262.973 27.5627 263.161 28.1266 263.161 28.8965C263.161 29.738 262.562 31.2866 261.362 33.5425C264.567 28.9412 267.082 26.6406 268.908 26.6406C269.481 26.6406 269.956 26.8197 270.332 27.1777C270.708 27.5358 270.896 28.1087 270.896 28.8965C270.896 29.5589 270.645 30.3646 270.144 31.3135C269.66 32.2624 269.07 33.2113 268.371 34.1602C267.691 35.109 267.002 36.04 266.303 36.9531C265.605 37.8662 265.014 38.7256 264.531 39.5312C264.048 40.319 263.806 40.9367 263.806 41.3843C263.806 41.9572 263.994 42.2437 264.37 42.2437C264.746 42.2437 265.202 42.0557 265.74 41.6797C266.295 41.2858 266.832 40.8203 267.351 40.2832C267.87 39.7282 268.425 39.0837 269.016 38.3496C269.625 37.6156 270.126 36.971 270.52 36.416C270.932 35.8431 271.334 35.2702 271.728 34.6973Z" fill="#212844"/>
<path d="M271.164 36.4697C271.934 34.5361 272.794 32.7905 273.742 31.2329C274.691 29.6574 275.595 28.1714 276.455 26.7749H279.624C279.552 26.8644 279.221 27.4015 278.63 28.3862C278.039 29.353 277.198 30.839 276.106 32.8442C276.84 32.1818 277.556 31.7342 278.254 31.5015C278.952 31.2687 279.579 31.224 280.134 31.3672C280.689 31.5104 281.137 31.8237 281.477 32.3071C281.835 32.7726 282.041 33.3724 282.094 34.1064C282.417 34.0527 282.775 33.9632 283.169 33.8379C283.563 33.7126 283.956 33.5514 284.35 33.3545C284.744 33.1576 285.12 32.9159 285.478 32.6294C285.854 32.3429 286.185 32.0207 286.472 31.6626L286.928 32.0923C285.747 33.5425 284.127 34.4466 282.068 34.8047C282.032 35.1628 281.978 35.5298 281.906 35.9058C281.656 36.9442 281.235 37.902 280.644 38.7793C280.071 39.6566 279.391 40.4175 278.603 41.062C277.816 41.6886 276.965 42.1899 276.052 42.5659C275.139 42.924 274.235 43.103 273.34 43.103C272.677 43.1746 272.149 43.103 271.755 42.8882C271.361 42.6733 271.057 42.369 270.842 41.9751C270.627 41.5812 270.502 41.1336 270.466 40.6323C270.412 40.1131 270.412 39.6029 270.466 39.1016C270.52 38.5824 270.618 38.09 270.761 37.6245C270.887 37.159 271.021 36.7741 271.164 36.4697ZM274.414 36.0669C274.127 36.6219 273.85 37.2843 273.581 38.0542C273.313 38.8062 273.116 39.5223 272.99 40.2026C272.883 40.883 272.883 41.4469 272.99 41.8945C273.098 42.3421 273.384 42.5391 273.85 42.4854C274.333 42.4316 274.826 42.1989 275.327 41.7871C275.846 41.3574 276.338 40.8293 276.804 40.2026C277.287 39.576 277.726 38.8867 278.12 38.1348C278.532 37.3649 278.872 36.604 279.14 35.8521C279.284 35.4761 279.418 35.0285 279.543 34.5093C279.686 33.9722 279.758 33.5067 279.758 33.1128C279.74 32.6473 279.597 32.3429 279.328 32.1997C279.06 32.0386 278.711 32.0117 278.281 32.1191C277.869 32.2266 277.413 32.4504 276.911 32.7905C276.428 33.1307 275.945 33.5604 275.461 34.0796C275.282 34.384 275.103 34.7062 274.924 35.0464C274.763 35.3687 274.593 35.7088 274.414 36.0669Z" fill="#212844"/>
<path d="M300.759 27.5806C301.654 26.9539 302.451 26.6406 303.149 26.6406C303.489 26.6406 303.767 26.7839 303.982 27.0703C304.214 27.3389 304.358 27.7238 304.411 28.2251C304.483 28.7264 304.465 29.3351 304.358 30.0513C304.25 30.7674 304.044 31.5641 303.74 32.4414C305.101 32.3877 306.819 31.5283 308.896 29.8633L309.353 30.481C307.938 31.5731 306.793 32.2982 305.915 32.6562C305.074 32.9964 304.286 33.1665 303.552 33.1665H303.445C303.301 33.5604 303.131 33.9543 302.934 34.3481C302.737 34.742 302.514 35.1449 302.263 35.5566C301.01 37.7946 299.622 39.5939 298.1 40.9546C296.614 42.2795 295.361 42.9419 294.341 42.9419C293.535 42.9419 292.935 42.5749 292.541 41.8408C292.129 41.1068 291.924 40.2026 291.924 39.1284C291.924 37.7677 292.371 36.2907 293.266 34.6973C294.162 33.1396 294.958 31.7342 295.656 30.481C296.355 29.2098 296.999 28.0461 297.59 26.9897C298.199 25.9334 298.772 24.9487 299.309 24.0356C299.864 23.1047 300.428 22.2005 301.001 21.3232C301.771 20.1416 302.576 19.0047 303.418 17.9126C304.259 16.8026 305.11 15.8268 305.969 14.9854C306.846 14.1439 307.706 13.4993 308.547 13.0518C309.389 12.5863 310.194 12.4072 310.964 12.5146C311.555 12.6042 311.922 12.9443 312.065 13.5352C312.208 14.126 312.191 14.8063 312.011 15.5762C311.868 16.1491 311.6 16.7936 311.206 17.5098C310.83 18.208 310.355 18.9421 309.782 19.7119C309.21 20.4818 308.556 21.2516 307.822 22.0215C307.106 22.7913 306.354 23.5343 305.566 24.2505C304.778 24.9487 303.973 25.5843 303.149 26.1572C302.326 26.7301 301.529 27.2046 300.759 27.5806ZM301.511 35.2881C301.744 34.8763 301.959 34.4824 302.156 34.1064C302.352 33.7126 302.523 33.3366 302.666 32.9785C302.236 32.7637 301.941 32.4235 301.78 31.958C301.618 31.4746 301.565 31.0091 301.618 30.5615C301.672 30.0423 301.932 29.5052 302.397 28.9502C302.827 28.4131 303.292 28.0998 303.794 28.0103C303.65 27.4731 303.427 27.2046 303.122 27.2046C302.961 27.2046 302.746 27.2583 302.478 27.3657C302.227 27.4731 301.95 27.6253 301.645 27.8223C301.341 28.0013 301.019 28.2161 300.678 28.4668C300.356 28.7174 300.043 28.986 299.739 29.2725C299.649 29.4515 299.515 29.6753 299.336 29.9438C299.175 30.2124 298.978 30.5347 298.745 30.9106C298.512 31.2687 298.306 31.582 298.127 31.8506C297.966 32.1191 297.841 32.325 297.751 32.4683C297.554 32.7905 297.339 33.1396 297.107 33.5156C296.874 33.8916 296.623 34.2855 296.355 34.6973C295.997 35.3955 295.674 36.0848 295.388 36.7651C295.119 37.4276 294.878 38.0632 294.663 38.6719C294.466 39.2627 294.314 39.8177 294.206 40.3369C294.099 40.8561 294.045 41.3037 294.045 41.6797C294.045 42.0557 294.144 42.2437 294.341 42.2437C295.164 42.2437 296.292 41.5723 297.724 40.2295C299.192 38.8688 300.455 37.2217 301.511 35.2881ZM300.383 27.1509C301.26 26.5959 302.156 25.9513 303.069 25.2173C303.982 24.4832 304.859 23.7044 305.7 22.8809C306.56 22.0573 307.348 21.2069 308.064 20.3296C308.78 19.4344 309.362 18.5571 309.809 17.6978C310.275 16.8205 310.588 15.9701 310.749 15.1465C310.91 14.3229 310.857 13.562 310.588 12.8638C310.158 12.7563 309.711 12.8548 309.245 13.1592C308.78 13.4635 308.305 13.9111 307.822 14.502C307.357 15.0749 306.882 15.7463 306.399 16.5161C305.933 17.2681 305.477 18.0379 305.029 18.8257C304.599 19.6134 304.188 20.3743 303.794 21.1084C303.418 21.8245 303.078 22.4333 302.773 22.9346C302.326 23.7402 301.905 24.4743 301.511 25.1367C301.117 25.7812 300.741 26.4526 300.383 27.1509Z" fill="#212844"/>
<path d="M319.504 34.6973H320.283C320.14 34.93 319.943 35.2344 319.692 35.6104C319.459 35.9684 319.003 36.6219 318.323 37.5708C317.642 38.5197 316.98 39.3612 316.335 40.0952C315.709 40.8114 315.019 41.4648 314.267 42.0557C313.515 42.6465 312.871 42.9419 312.334 42.9419C311.779 42.9419 311.26 42.6107 310.776 41.9482C310.311 41.2858 310.078 40.3369 310.078 39.1016V38.9673C308.091 41.617 306.578 42.9419 305.539 42.9419C304.734 42.9419 304.134 42.5749 303.74 41.8408C303.328 41.1068 303.122 40.1937 303.122 39.1016C303.122 38.0811 303.4 36.971 303.955 35.7715C304.51 34.554 305.226 33.4261 306.103 32.3877C306.981 31.3314 307.92 30.3646 308.923 29.4873C309.926 28.61 310.91 27.9207 311.877 27.4194C312.862 26.9002 313.685 26.6406 314.348 26.6406C315.243 26.6406 315.53 27.3836 315.207 28.8696L316.604 26.7749H320.014C319.8 27.0972 319.513 27.5179 319.155 28.0371C318.797 28.5563 318.161 29.5321 317.248 30.9644C316.335 32.3787 315.53 33.6857 314.831 34.8853C314.133 36.0848 313.497 37.3201 312.925 38.5913C312.352 39.8446 312.065 40.7756 312.065 41.3843C312.065 41.8498 312.253 42.0825 312.629 42.0825C312.951 42.0825 313.39 41.8498 313.945 41.3843C314.518 40.9188 315.064 40.3906 315.583 39.7998C316.102 39.209 316.666 38.5107 317.275 37.7051C317.902 36.8994 318.358 36.2907 318.645 35.8789C318.949 35.4671 319.236 35.0732 319.504 34.6973ZM305.539 42.2437C306.417 42.2437 308.108 40.498 310.615 37.0068C311.134 35.7178 312.101 33.9006 313.515 31.5552C313.641 31.2866 313.784 30.9375 313.945 30.5078C314.124 30.0602 314.294 29.5858 314.455 29.0845C314.616 28.5653 314.688 28.1266 314.67 27.7686C314.67 27.3926 314.563 27.2046 314.348 27.2046C313.506 27.2046 312.54 27.7865 311.448 28.9502C310.355 30.1139 309.362 31.4836 308.467 33.0591C307.571 34.6167 306.81 36.2191 306.184 37.8662C305.557 39.4954 305.244 40.7666 305.244 41.6797C305.244 42.0557 305.342 42.2437 305.539 42.2437Z" fill="#212844"/>
<path d="M330.837 34.6973C330.354 35.4313 329.879 36.1206 329.414 36.7651C328.948 37.4097 328.366 38.1258 327.668 38.9136C326.988 39.7013 326.325 40.3817 325.681 40.9546C325.036 41.5096 324.338 41.984 323.586 42.3779C322.834 42.7539 322.127 42.9419 321.465 42.9419C320.516 42.9419 319.71 42.6107 319.048 41.9482C318.403 41.2858 318.081 40.2743 318.081 38.9136C318.081 37.9647 318.314 36.9173 318.779 35.7715C319.227 34.6257 319.826 33.5246 320.578 32.4683C321.348 31.4119 322.19 30.4451 323.103 29.5679C324.034 28.6906 325.01 27.9834 326.03 27.4463C327.051 26.9092 327.999 26.6406 328.877 26.6406C329.074 26.6406 329.271 26.6764 329.468 26.748C329.664 26.8197 329.87 26.945 330.085 27.124C330.318 27.2852 330.497 27.5448 330.622 27.9028C330.766 28.243 330.837 28.6637 330.837 29.165C330.837 29.738 330.631 30.3467 330.219 30.9912C329.826 31.6357 329.378 31.958 328.877 31.958C328.626 31.958 328.42 31.8685 328.259 31.6895C328.098 31.5104 328.017 31.224 328.017 30.8301C328.017 30.4362 328.143 30.0155 328.393 29.5679C328.662 29.1203 328.921 28.7443 329.172 28.4399C329.441 28.1356 329.575 27.9565 329.575 27.9028C329.575 27.7596 329.503 27.6074 329.36 27.4463C329.217 27.2852 329.056 27.2046 328.877 27.2046C328.447 27.2046 327.758 27.7417 326.809 28.8159C325.86 29.8722 324.92 31.1255 323.989 32.5757C323.058 34.008 322.234 35.5208 321.518 37.1143C320.82 38.7077 320.471 39.9609 320.471 40.874C320.471 41.3216 320.56 41.6618 320.74 41.8945C320.936 42.1273 321.268 42.2437 321.733 42.2437C323.792 42.2437 326.549 39.7282 330.005 34.6973H330.837Z" fill="#212844"/>
<path d="M332.153 35.7983L344.883 9.93652H349.878L332.824 35.7983H332.153ZM329.897 42.9419C329.378 42.9419 328.993 42.7897 328.742 42.4854C328.474 42.1631 328.349 41.7871 328.366 41.3574C328.402 40.8382 328.59 40.4085 328.93 40.0684C329.271 39.7282 329.718 39.5581 330.273 39.5581C330.864 39.5581 331.276 39.7371 331.509 40.0952C331.741 40.4354 331.84 40.8024 331.804 41.1963C331.768 41.6618 331.58 42.0736 331.24 42.4316C330.918 42.7718 330.47 42.9419 329.897 42.9419Z" fill="#212844"/>
<path d="M127.287 79.0093C126.481 79.242 125.702 79.5822 124.95 80.0298C124.198 80.4595 123.482 80.9876 122.802 81.6143C124.055 82.8496 125.103 84.2371 125.944 85.7769C126.786 87.2987 127.385 88.9279 127.743 90.6646C128.101 92.4012 128.191 94.2095 128.012 96.0894C127.851 97.9692 127.394 99.867 126.642 101.783C125.747 104.003 124.53 105.981 122.99 107.718C121.468 109.437 119.714 110.905 117.726 112.122C115.757 113.322 113.608 114.253 111.281 114.915C108.954 115.56 106.554 115.909 104.084 115.962C102.741 115.962 101.443 115.846 100.19 115.613C98.9543 115.398 97.7279 115.13 96.5105 114.808C96.1524 114.951 95.7764 115.085 95.3826 115.21C95.0066 115.336 94.6217 115.461 94.2278 115.586C93.8876 115.676 93.3953 115.783 92.7507 115.909C92.1241 116.034 91.408 116.15 90.6023 116.258C89.8145 116.365 88.9641 116.455 88.051 116.526C87.1379 116.598 86.2248 116.634 85.3118 116.634C84.4166 116.634 83.5572 116.589 82.7336 116.5C81.9101 116.428 81.176 116.285 80.5315 116.07C79.9049 115.855 79.4036 115.56 79.0276 115.184C78.6516 114.826 78.4636 114.378 78.4636 113.841C78.4636 113.393 78.6337 113.008 78.9739 112.686C79.3319 112.364 79.7437 112.095 80.2092 111.88C80.6926 111.666 81.176 111.504 81.6594 111.397C82.1607 111.29 82.5636 111.236 82.8679 111.236H83.969C85.0611 111.236 86.1174 111.325 87.1379 111.504C88.1763 111.683 89.1879 111.907 90.1726 112.176C91.1573 112.444 92.133 112.74 93.0998 113.062C94.0666 113.366 95.0334 113.662 96.0002 113.948C97.719 113.178 99.196 112.247 100.431 111.155C101.685 110.045 102.822 108.81 103.842 107.449C104.863 106.071 105.829 104.576 106.742 102.964C107.656 101.353 108.622 99.6432 109.643 97.835C110.323 96.6354 111.057 95.3464 111.845 93.9678C112.651 92.5892 113.528 91.2017 114.477 89.8052C115.426 88.3908 116.455 87.0122 117.565 85.6694C118.675 84.3267 119.893 83.0913 121.218 81.9634C120.215 80.7638 118.953 79.7791 117.431 79.0093C115.318 78.0067 113.08 77.4159 110.717 77.2368C108.372 77.0578 106.026 77.2279 103.681 77.7471C101.353 78.2663 99.0886 79.0988 96.8865 80.2446C94.7022 81.3726 92.7239 82.7511 90.9514 84.3804C89.1789 85.9917 87.675 87.8089 86.4397 89.832C85.2043 91.8372 84.3808 93.9857 83.969 96.2773C83.79 97.2979 83.6825 98.2826 83.6467 99.2314C83.6288 100.18 83.7094 101.076 83.8884 101.917C84.0675 102.758 84.3629 103.528 84.7747 104.227C85.1864 104.925 85.7325 105.525 86.4128 106.026C87.4871 106.832 88.6329 107.351 89.8503 107.583C91.0857 107.798 92.33 107.789 93.5832 107.557C94.8544 107.324 96.1166 106.894 97.3699 106.268C98.6231 105.641 99.8137 104.889 100.942 104.012C102.087 103.117 103.135 102.114 104.084 101.004C105.051 99.8939 105.865 98.748 106.528 97.5664C107.19 96.3848 107.682 95.1942 108.005 93.9946C108.345 92.7951 108.452 91.6403 108.327 90.5303C108.273 89.7246 108.112 88.9637 107.843 88.2476C107.593 87.5135 107.217 86.8779 106.716 86.3408C106.214 85.8037 105.597 85.383 104.863 85.0786C104.128 84.7743 103.251 84.631 102.231 84.6489C101.013 84.6668 99.8764 84.9175 98.8201 85.4009C97.7637 85.8664 96.8238 86.493 96.0002 87.2808C95.1767 88.0506 94.4874 88.9279 93.9324 89.9126C93.3774 90.8973 92.9924 91.8999 92.7776 92.9204C92.6881 93.0636 92.6344 93.2069 92.6164 93.3501C92.6164 93.4933 92.6164 93.6545 92.6164 93.8335C92.6344 94.1737 92.5538 94.4333 92.3747 94.6123C92.1957 94.7734 92.0167 94.8361 91.8376 94.8003C91.6765 94.7466 91.5601 94.5854 91.4885 94.3169C91.4169 94.0304 91.4975 93.6187 91.7302 93.0815C92.0525 91.8283 92.5448 90.6466 93.2073 89.5366C93.8697 88.4087 94.6664 87.415 95.5974 86.5557C96.5284 85.6963 97.5847 85.016 98.7663 84.5146C99.948 84.0133 101.228 83.7537 102.607 83.7358C103.215 83.7179 103.887 83.8164 104.621 84.0312C105.373 84.2461 106.071 84.6131 106.716 85.1323C107.378 85.6515 107.942 86.3408 108.407 87.2002C108.891 88.0596 109.177 89.1338 109.267 90.4229C109.374 91.6403 109.231 92.9204 108.837 94.2632C108.461 95.606 107.897 96.9308 107.145 98.2378C106.393 99.5448 105.489 100.798 104.433 101.998C103.377 103.197 102.231 104.28 100.995 105.247C99.76 106.196 98.453 106.984 97.0745 107.61C95.7138 108.237 94.3441 108.64 92.9656 108.819C91.6049 108.98 90.2621 108.873 88.9372 108.497C87.6124 108.121 86.377 107.404 85.2312 106.348C84.5509 105.722 84.0137 104.934 83.6199 103.985C83.2439 103.036 82.9843 102.007 82.8411 100.896C82.7157 99.7865 82.7068 98.6496 82.8142 97.4858C82.9216 96.3221 83.1365 95.2121 83.4587 94.1558C83.9421 92.5623 84.6314 91.0226 85.5266 89.5366C86.4218 88.0506 87.4691 86.6631 88.6687 85.374C89.8861 84.0671 91.2289 82.8765 92.697 81.8022C94.1651 80.7101 95.7138 79.7612 97.343 78.9556C98.9722 78.1499 100.655 77.5054 102.392 77.022C104.146 76.5386 105.901 76.2521 107.656 76.1626C109.428 76.0552 111.174 76.1626 112.892 76.4849C114.629 76.7892 116.303 77.3442 117.914 78.1499C118.72 78.5617 119.49 79.0182 120.224 79.5195C120.958 80.0029 121.638 80.54 122.265 81.1309C123.071 80.5042 123.894 79.9403 124.736 79.439C125.595 78.9198 126.508 78.4722 127.475 78.0962C127.529 78.0604 127.573 78.0783 127.609 78.1499C127.663 78.2215 127.708 78.311 127.743 78.4185C127.743 78.5259 127.708 78.6423 127.636 78.7676C127.582 78.875 127.466 78.9556 127.287 79.0093ZM112.409 97.8887C111.514 99.6074 110.565 101.281 109.562 102.911C108.56 104.54 107.459 106.071 106.259 107.503C105.059 108.917 103.735 110.215 102.284 111.397C100.852 112.561 99.2677 113.545 97.531 114.351C98.6231 114.638 99.7331 114.843 100.861 114.969C101.989 115.094 103.171 115.094 104.406 114.969C106.304 114.772 108.094 114.297 109.777 113.545C111.478 112.793 113.053 111.845 114.504 110.699C115.954 109.535 117.261 108.21 118.425 106.724C119.606 105.22 120.618 103.645 121.459 101.998C122.301 100.333 122.954 98.6227 123.42 96.8682C123.903 95.1136 124.172 93.3949 124.225 91.7119C124.279 90.029 124.1 88.4176 123.688 86.8779C123.294 85.3203 122.65 83.9149 121.755 82.6616C120.877 83.5747 120.036 84.6131 119.23 85.7769C118.442 86.9406 117.664 88.1759 116.894 89.4829C116.142 90.7899 115.39 92.1595 114.638 93.5918C113.904 95.0062 113.161 96.4385 112.409 97.8887ZM83.1902 112.176C82.7426 112.194 82.3039 112.238 81.8743 112.31C81.4625 112.364 81.0865 112.462 80.7463 112.605C80.4062 112.749 80.1108 112.937 79.8601 113.169C79.6274 113.402 79.4752 113.689 79.4036 114.029C79.6363 114.584 80.066 115.014 80.6926 115.318C81.3192 115.622 82.0622 115.828 82.9216 115.936C83.7989 116.061 84.7388 116.106 85.7414 116.07C86.7441 116.034 87.7288 115.953 88.6955 115.828C89.6623 115.703 90.5754 115.551 91.4348 115.372C92.2942 115.193 93.0014 115.022 93.5564 114.861C94.0398 114.7 94.5232 114.53 95.0066 114.351C94.0756 114.083 93.1357 113.814 92.1868 113.545C91.2558 113.277 90.3069 113.035 89.3401 112.82C88.3733 112.605 87.3796 112.444 86.3591 112.337C85.3386 112.212 84.2823 112.158 83.1902 112.176Z" fill="#212844"/>
<path d="M143.508 101.863L143.964 102.481C143.087 103.233 142.344 103.797 141.735 104.173C141.144 104.531 140.616 104.782 140.151 104.925C139.936 104.979 139.775 105.023 139.667 105.059C139.56 105.095 139.408 105.122 139.211 105.14C139.121 105.158 139.041 105.167 138.969 105.167C138.915 105.167 138.871 105.167 138.835 105.167H138.083C137.922 105.56 137.743 105.954 137.546 106.348C137.349 106.742 137.134 107.145 136.901 107.557C135.648 109.795 134.26 111.594 132.739 112.955C131.253 114.279 129.99 114.942 128.952 114.942C128.146 114.942 127.546 114.575 127.153 113.841C126.741 113.107 126.535 112.194 126.535 111.102C126.535 110.6 126.607 110.063 126.75 109.49C126.893 108.917 127.099 108.344 127.367 107.771C127.636 107.181 127.949 106.599 128.307 106.026C128.683 105.453 129.086 104.907 129.516 104.388C130.142 103.6 130.832 102.857 131.584 102.159C132.336 101.46 133.088 100.852 133.84 100.333C134.592 99.7954 135.308 99.3747 135.988 99.0703C136.668 98.766 137.259 98.6227 137.76 98.6406C138.101 98.6406 138.378 98.7839 138.593 99.0703C138.826 99.3389 138.978 99.7238 139.05 100.225C139.121 100.726 139.103 101.335 138.996 102.051C138.888 102.767 138.674 103.564 138.351 104.441C139.712 104.388 141.431 103.528 143.508 101.863ZM136.149 107.288C136.4 106.84 136.615 106.429 136.794 106.053C136.991 105.659 137.161 105.301 137.304 104.979C136.856 104.764 136.552 104.424 136.391 103.958C136.23 103.475 136.176 103.009 136.23 102.562C136.283 102.042 136.543 101.505 137.009 100.95C137.474 100.413 137.94 100.1 138.405 100.01C138.262 99.4731 138.047 99.2046 137.76 99.2046C136.937 99.2046 135.97 99.7865 134.86 100.95C133.75 102.114 132.756 103.484 131.879 105.059C131.432 105.847 131.011 106.644 130.617 107.449C130.241 108.237 129.901 109.043 129.596 109.866C128.97 111.531 128.656 112.802 128.656 113.68C128.656 114.056 128.755 114.244 128.952 114.244C129.793 114.244 130.93 113.572 132.363 112.229C133.795 110.869 135.057 109.222 136.149 107.288Z" fill="#212844"/>
<path d="M156.13 99.5806C157.025 98.9539 157.822 98.6406 158.52 98.6406C158.86 98.6406 159.137 98.7839 159.352 99.0703C159.585 99.3389 159.728 99.7238 159.782 100.225C159.854 100.726 159.836 101.335 159.728 102.051C159.621 102.767 159.415 103.564 159.111 104.441C160.471 104.388 162.19 103.528 164.267 101.863L164.723 102.481C163.309 103.573 162.163 104.298 161.286 104.656C160.444 104.996 159.657 105.167 158.923 105.167H158.815C158.672 105.56 158.502 105.954 158.305 106.348C158.108 106.742 157.884 107.145 157.634 107.557C156.38 109.795 154.993 111.594 153.471 112.955C151.985 114.279 150.732 114.942 149.711 114.942C148.906 114.942 148.306 114.575 147.912 113.841C147.5 113.107 147.294 112.203 147.294 111.128C147.294 109.768 147.742 108.291 148.637 106.697C149.532 105.14 150.329 103.734 151.027 102.481C151.725 101.21 152.37 100.046 152.961 98.9897C153.569 97.9334 154.142 96.9487 154.679 96.0356C155.234 95.1047 155.798 94.2005 156.371 93.3232C157.141 92.1416 157.947 91.0047 158.788 89.9126C159.63 88.8026 160.48 87.8268 161.34 86.9854C162.217 86.1439 163.076 85.4993 163.918 85.0518C164.759 84.5863 165.565 84.4072 166.335 84.5146C166.926 84.6042 167.293 84.9443 167.436 85.5352C167.579 86.126 167.561 86.8063 167.382 87.5762C167.239 88.1491 166.97 88.7936 166.576 89.5098C166.2 90.208 165.726 90.9421 165.153 91.7119C164.58 92.4818 163.927 93.2516 163.193 94.0215C162.476 94.7913 161.725 95.5343 160.937 96.2505C160.149 96.9487 159.343 97.5843 158.52 98.1572C157.696 98.7301 156.899 99.2046 156.13 99.5806ZM156.882 107.288C157.114 106.876 157.329 106.482 157.526 106.106C157.723 105.713 157.893 105.337 158.036 104.979C157.607 104.764 157.311 104.424 157.15 103.958C156.989 103.475 156.935 103.009 156.989 102.562C157.043 102.042 157.302 101.505 157.768 100.95C158.197 100.413 158.663 100.1 159.164 100.01C159.021 99.4731 158.797 99.2046 158.493 99.2046C158.332 99.2046 158.117 99.2583 157.848 99.3657C157.598 99.4731 157.32 99.6253 157.016 99.8223C156.711 100.001 156.389 100.216 156.049 100.467C155.727 100.717 155.413 100.986 155.109 101.272C155.02 101.451 154.885 101.675 154.706 101.944C154.545 102.212 154.348 102.535 154.115 102.911C153.883 103.269 153.677 103.582 153.498 103.851C153.337 104.119 153.211 104.325 153.122 104.468C152.925 104.791 152.71 105.14 152.477 105.516C152.245 105.892 151.994 106.285 151.725 106.697C151.367 107.396 151.045 108.085 150.759 108.765C150.49 109.428 150.248 110.063 150.033 110.672C149.836 111.263 149.684 111.818 149.577 112.337C149.469 112.856 149.416 113.304 149.416 113.68C149.416 114.056 149.514 114.244 149.711 114.244C150.535 114.244 151.663 113.572 153.095 112.229C154.563 110.869 155.825 109.222 156.882 107.288ZM155.754 99.1509C156.631 98.5959 157.526 97.9513 158.439 97.2173C159.352 96.4832 160.23 95.7044 161.071 94.8809C161.93 94.0573 162.718 93.2069 163.434 92.3296C164.15 91.4344 164.732 90.5571 165.18 89.6978C165.645 88.8205 165.959 87.9701 166.12 87.1465C166.281 86.3229 166.227 85.562 165.959 84.8638C165.529 84.7563 165.081 84.8548 164.616 85.1592C164.15 85.4635 163.676 85.9111 163.193 86.502C162.727 87.0749 162.253 87.7463 161.769 88.5161C161.304 89.2681 160.847 90.0379 160.4 90.8257C159.97 91.6134 159.558 92.3743 159.164 93.1084C158.788 93.8245 158.448 94.4333 158.144 94.9346C157.696 95.7402 157.275 96.4743 156.882 97.1367C156.488 97.7812 156.112 98.4526 155.754 99.1509Z" fill="#212844"/>
<path d="M171.813 106.697C171.33 107.431 170.855 108.121 170.39 108.765C169.924 109.41 169.343 110.126 168.644 110.914C167.964 111.701 167.301 112.382 166.657 112.955C166.012 113.51 165.314 113.984 164.562 114.378C163.81 114.754 163.103 114.942 162.441 114.942C161.492 114.942 160.686 114.611 160.024 113.948C159.379 113.286 159.057 112.274 159.057 110.914C159.057 109.965 159.29 108.917 159.755 107.771C160.203 106.626 160.802 105.525 161.554 104.468C162.324 103.412 163.166 102.445 164.079 101.568C165.01 100.691 165.986 99.9834 167.006 99.4463C168.027 98.9092 168.975 98.6406 169.853 98.6406C170.05 98.6406 170.247 98.6764 170.444 98.748C170.641 98.8197 170.846 98.945 171.061 99.124C171.294 99.2852 171.473 99.5448 171.598 99.9028C171.742 100.243 171.813 100.664 171.813 101.165C171.813 101.738 171.607 102.347 171.196 102.991C170.802 103.636 170.354 103.958 169.853 103.958C169.602 103.958 169.396 103.868 169.235 103.689C169.074 103.51 168.993 103.224 168.993 102.83C168.993 102.436 169.119 102.015 169.369 101.568C169.638 101.12 169.898 100.744 170.148 100.44C170.417 100.136 170.551 99.9565 170.551 99.9028C170.551 99.7596 170.479 99.6074 170.336 99.4463C170.193 99.2852 170.032 99.2046 169.853 99.2046C169.423 99.2046 168.734 99.7417 167.785 100.816C166.836 101.872 165.896 103.125 164.965 104.576C164.034 106.008 163.211 107.521 162.494 109.114C161.796 110.708 161.447 111.961 161.447 112.874C161.447 113.322 161.537 113.662 161.716 113.895C161.913 114.127 162.244 114.244 162.709 114.244C164.768 114.244 167.525 111.728 170.981 106.697H171.813Z" fill="#212844"/>
<path d="M192.465 106.697H193.271C192.913 107.27 192.537 107.834 192.143 108.389C191.749 108.944 191.221 109.642 190.558 110.484C189.896 111.325 189.269 112.059 188.678 112.686C188.106 113.295 187.488 113.823 186.825 114.271C186.181 114.718 185.608 114.942 185.107 114.942C184.946 114.942 184.767 114.924 184.57 114.888C184.391 114.834 184.185 114.736 183.952 114.593C183.719 114.45 183.513 114.262 183.334 114.029C183.155 113.796 183.003 113.465 182.878 113.035C182.752 112.605 182.69 112.104 182.69 111.531C182.69 110.94 182.931 110.197 183.415 109.302C183.898 108.407 184.48 107.512 185.16 106.617C185.841 105.704 186.512 104.826 187.175 103.985C187.855 103.125 188.437 102.338 188.92 101.622C189.404 100.905 189.645 100.386 189.645 100.064C189.645 99.688 189.502 99.5 189.216 99.5C188.822 99.5 188.285 99.7775 187.604 100.333C186.924 100.87 186.226 101.55 185.51 102.374C184.793 103.179 183.997 104.155 183.119 105.301C182.242 106.429 181.454 107.467 180.756 108.416C180.076 109.365 179.378 110.359 178.661 111.397C177.748 112.829 176.978 113.966 176.352 114.808H173.451C173.756 114.271 174.687 112.802 176.244 110.403C177.802 108.004 179.136 105.838 180.246 103.904C181.356 101.953 181.911 100.673 181.911 100.064C181.911 99.688 181.794 99.5 181.562 99.5C181.257 99.5 180.792 99.7686 180.165 100.306C179.557 100.825 178.93 101.443 178.285 102.159C177.641 102.875 176.925 103.734 176.137 104.737C175.349 105.722 174.696 106.554 174.176 107.234C173.675 107.897 173.174 108.568 172.673 109.249L169.396 114.808H166.254L168.725 111.021L170.954 106.751L175.868 98.7749H178.957C178.885 98.9002 178.697 99.1956 178.393 99.6611C178.106 100.127 177.775 100.655 177.399 101.246C177.041 101.836 176.79 102.248 176.647 102.481C176.074 103.412 175.636 104.11 175.331 104.576C178.285 100.619 180.505 98.6406 181.991 98.6406C182.529 98.6406 182.976 98.8286 183.334 99.2046C183.71 99.5627 183.898 100.127 183.898 100.896C183.898 101.738 183.298 103.287 182.099 105.542C185.304 100.941 187.819 98.6406 189.645 98.6406C190.218 98.6406 190.693 98.8197 191.069 99.1777C191.445 99.5358 191.633 100.109 191.633 100.896C191.633 101.559 191.382 102.365 190.881 103.313C190.397 104.262 189.806 105.211 189.108 106.16C188.428 107.109 187.739 108.04 187.04 108.953C186.342 109.866 185.751 110.726 185.268 111.531C184.784 112.319 184.543 112.937 184.543 113.384C184.543 113.957 184.731 114.244 185.107 114.244C185.483 114.244 185.939 114.056 186.476 113.68C187.031 113.286 187.568 112.82 188.088 112.283C188.607 111.728 189.162 111.084 189.753 110.35C190.361 109.616 190.863 108.971 191.257 108.416C191.668 107.843 192.071 107.27 192.465 106.697Z" fill="#212844"/>
<path d="M207.289 106.697H208.095C207.737 107.27 207.361 107.834 206.967 108.389C206.573 108.944 206.045 109.642 205.383 110.484C204.72 111.325 204.093 112.059 203.503 112.686C202.93 113.295 202.312 113.823 201.65 114.271C200.987 114.718 200.414 114.942 199.931 114.942C199.752 114.942 199.573 114.924 199.394 114.888C199.215 114.834 199 114.736 198.749 114.593C198.517 114.45 198.311 114.262 198.132 114.029C197.97 113.796 197.827 113.465 197.702 113.035C197.577 112.605 197.514 112.104 197.514 111.531C197.514 110.94 197.747 110.197 198.212 109.302C198.696 108.407 199.277 107.512 199.958 106.617C200.638 105.704 201.318 104.826 201.999 103.985C202.679 103.125 203.252 102.338 203.718 101.622C204.201 100.905 204.443 100.386 204.443 100.064C204.443 99.688 204.308 99.5 204.04 99.5C203.485 99.5 202.76 99.8402 201.864 100.521C200.987 101.183 200.119 101.989 199.26 102.938C198.4 103.886 197.577 104.844 196.789 105.811C196.001 106.76 195.365 107.566 194.882 108.228L194.157 109.249L180.192 131.673H177.211L190.156 111.021L192.438 106.751L197.406 98.7749H200.441L200.387 98.8555C199.761 99.9476 198.642 101.783 197.031 104.361C199.985 100.547 202.455 98.6406 204.443 98.6406C205.016 98.6406 205.49 98.8197 205.866 99.1777C206.26 99.5358 206.457 100.109 206.457 100.896C206.457 101.559 206.206 102.365 205.705 103.313C205.221 104.262 204.631 105.211 203.932 106.16C203.252 107.109 202.563 108.04 201.864 108.953C201.166 109.866 200.575 110.726 200.092 111.531C199.609 112.319 199.367 112.937 199.367 113.384C199.367 113.957 199.555 114.244 199.931 114.244C200.396 114.244 200.969 113.975 201.65 113.438C202.33 112.901 203.037 112.194 203.771 111.316C204.523 110.439 205.168 109.642 205.705 108.926C206.26 108.192 206.788 107.449 207.289 106.697Z" fill="#212844"/>
<path d="M209.626 114.244C211.416 114.244 214.236 111.728 218.085 106.697H218.918C218.076 107.807 217.262 108.819 216.474 109.732C215.704 110.627 214.889 111.486 214.03 112.31C213.189 113.134 212.374 113.778 211.586 114.244C210.798 114.709 210.091 114.942 209.465 114.942C208.516 114.942 207.71 114.602 207.048 113.921C206.403 113.241 206.081 112.212 206.081 110.833C206.081 109.633 206.439 108.309 207.155 106.858C207.871 105.39 208.757 104.056 209.814 102.857C210.888 101.657 212.079 100.655 213.385 99.8491C214.692 99.0435 215.901 98.6406 217.011 98.6406C217.208 98.6406 217.405 98.6764 217.602 98.748C217.817 98.8197 218.031 98.945 218.246 99.124C218.461 99.2852 218.631 99.5448 218.757 99.9028C218.9 100.243 218.971 100.673 218.971 101.192C218.971 102.374 218.488 103.51 217.521 104.603C216.554 105.695 215.4 106.491 214.057 106.993C212.714 107.476 211.532 107.53 210.512 107.154C209.259 109.463 208.632 111.254 208.632 112.525C208.632 113.671 208.963 114.244 209.626 114.244ZM216.85 99.2046C216.366 99.2046 215.48 99.9924 214.191 101.568C212.92 103.143 211.756 104.88 210.7 106.778C211.362 106.885 212.034 106.778 212.714 106.456C213.412 106.133 214.021 105.695 214.54 105.14C215.077 104.567 215.552 103.949 215.964 103.287C216.393 102.606 216.716 101.953 216.93 101.326C217.163 100.7 217.28 100.18 217.28 99.7686C217.28 99.3926 217.136 99.2046 216.85 99.2046Z" fill="#212844"/>
<path d="M229.418 106.697H230.251C229.32 107.968 228.505 109.052 227.807 109.947C227.109 110.842 226.518 111.549 226.034 112.068C224.28 113.984 222.857 114.942 221.764 114.942C220.977 114.942 220.269 114.602 219.643 113.921C219.016 113.241 218.703 112.229 218.703 110.887C218.703 110.188 218.864 109.463 219.186 108.711C219.509 107.942 219.938 107.181 220.475 106.429C221.012 105.659 221.621 104.916 222.301 104.2C223 103.466 223.707 102.794 224.423 102.186C225.157 101.559 225.882 101.013 226.598 100.547C227.315 100.064 227.959 99.688 228.532 99.4194L223.779 99.4463C223.206 100.359 222.516 101.416 221.711 102.615C220.923 103.815 219.992 105.175 218.918 106.697H218.112C220.046 103.958 221.791 101.326 223.349 98.8018C223.403 98.569 223.456 98.3094 223.51 98.0229C223.582 97.7365 223.707 97.3605 223.886 96.895C224.011 96.5728 224.155 96.2505 224.316 95.9282C224.477 95.606 224.665 95.3285 224.88 95.0957C225.112 94.8451 225.363 94.6481 225.632 94.5049C225.918 94.3438 226.231 94.2632 226.572 94.2632C227.001 94.2632 227.216 94.5049 227.216 94.9883C227.216 95.7939 226.213 97.0562 224.208 98.7749L224.181 98.8018L229.552 98.7749L229.499 99.3926C229.141 99.4105 228.478 99.9565 227.511 101.031C226.563 102.087 225.623 103.322 224.692 104.737C224.226 105.435 223.779 106.151 223.349 106.885C222.919 107.619 222.525 108.38 222.167 109.168C221.451 110.743 221.093 111.988 221.093 112.901C221.093 113.814 221.397 114.271 222.006 114.271C222.382 114.271 222.812 114.109 223.295 113.787C223.796 113.447 224.423 112.838 225.175 111.961C225.569 111.513 225.9 111.128 226.169 110.806C226.437 110.484 226.661 110.215 226.84 110C227.019 109.786 227.27 109.472 227.592 109.061C227.932 108.649 228.335 108.13 228.801 107.503C228.944 107.324 229.06 107.172 229.15 107.046C229.257 106.903 229.347 106.787 229.418 106.697Z" fill="#212844"/>
<path d="M244.86 106.697H245.666C245.523 106.93 245.326 107.234 245.075 107.61C244.842 107.968 244.377 108.622 243.678 109.571C242.998 110.52 242.345 111.361 241.718 112.095C241.109 112.811 240.42 113.465 239.65 114.056C238.898 114.646 238.263 114.942 237.743 114.942C237.153 114.942 236.624 114.611 236.159 113.948C235.693 113.286 235.461 112.337 235.461 111.102C235.461 110.708 235.568 110.197 235.783 109.571C233.008 113.152 231.11 114.942 230.09 114.942C229.517 114.942 228.997 114.611 228.532 113.948C228.066 113.286 227.834 112.337 227.834 111.102C227.834 110.547 228.058 109.741 228.505 108.685C228.953 107.628 229.49 106.554 230.116 105.462C230.761 104.352 231.406 103.287 232.05 102.266C232.695 101.246 233.241 100.413 233.688 99.7686L234.36 98.7749H237.77C237.555 99.0972 237.269 99.5179 236.911 100.037C236.553 100.556 235.917 101.532 235.004 102.964C234.091 104.379 233.285 105.686 232.587 106.885C231.889 108.085 231.253 109.32 230.68 110.591C230.107 111.845 229.821 112.776 229.821 113.384C229.821 113.85 230.009 114.083 230.385 114.083C231.191 114.083 233.393 111.692 236.991 106.912C237.564 105.802 238.263 104.576 239.086 103.233C239.928 101.872 240.617 100.789 241.154 99.9834L241.987 98.7749H245.397C245.182 99.0972 244.887 99.5179 244.511 100.037C244.153 100.556 243.517 101.532 242.604 102.964C241.691 104.379 240.885 105.686 240.187 106.885C239.507 108.085 238.88 109.32 238.307 110.591C237.734 111.845 237.448 112.776 237.448 113.384C237.448 113.85 237.636 114.083 238.012 114.083C238.334 114.083 238.773 113.85 239.328 113.384C239.883 112.919 240.42 112.391 240.939 111.8C241.458 111.209 242.031 110.511 242.658 109.705C243.285 108.899 243.741 108.291 244.028 107.879C244.332 107.467 244.609 107.073 244.86 106.697Z" fill="#212844"/>
<path d="M246.982 107.798L259.711 81.9365H264.706L247.653 107.798H246.982ZM244.726 114.942C244.207 114.942 243.822 114.79 243.571 114.485C243.302 114.163 243.177 113.787 243.195 113.357C243.231 112.838 243.419 112.409 243.759 112.068C244.099 111.728 244.547 111.558 245.102 111.558C245.693 111.558 246.104 111.737 246.337 112.095C246.57 112.435 246.668 112.802 246.633 113.196C246.597 113.662 246.409 114.074 246.069 114.432C245.746 114.772 245.299 114.942 244.726 114.942Z" fill="#212844"/>
</svg>
