<svg width="126" height="30" viewBox="0 0 126 30" fill="none" xmlns="http://www.w3.org/2000/svg">
<path d="M15.375 24.3074C14.1417 24.3074 12.6 23.9158 10.75 23.1324C9.45 22.5824 8.425 22.1908 7.675 21.9574C6.94167 21.7074 6.18333 21.5824 5.4 21.5824C4.5 21.5824 3.65 21.7741 2.85 22.1574C2.06667 22.5241 1.25833 22.9824 0.425 23.5324C0.358333 23.5824 0.3 23.6074 0.25 23.6074C0.2 23.6074 0.141667 23.5824 0.0750002 23.5324C0.0250001 23.4824 0 23.4408 0 23.4074C0 23.3741 0.0166667 23.3324 0.0500001 23.2824C0.6 22.5324 1.4 21.8241 2.45 21.1574C3.51667 20.4741 4.73333 20.1324 6.1 20.1324C7.35 20.1324 8.9 20.5241 10.75 21.3074L11.3 21.5324C12.4333 21.9991 13.3333 22.3408 14 22.5574C14.6667 22.7741 15.3583 22.8824 16.075 22.8824C16.975 22.8824 17.8167 22.6991 18.6 22.3324C19.3833 21.9491 20.2 21.4741 21.05 20.9074C21.1333 20.8574 21.1917 20.8324 21.225 20.8324C21.275 20.8324 21.325 20.8574 21.375 20.9074C21.4417 20.9574 21.475 20.9991 21.475 21.0324C21.475 21.0658 21.4583 21.1074 21.425 21.1574C20.875 21.9074 20.0667 22.6241 19 23.3074C17.95 23.9741 16.7417 24.3074 15.375 24.3074Z" fill="#212844"/>
<path d="M63.707 2.09961C63.1211 2.26888 62.5547 2.51628 62.0078 2.8418C61.4609 3.1543 60.9401 3.53841 60.4453 3.99414C61.3568 4.89258 62.1185 5.90169 62.7305 7.02148C63.3424 8.12826 63.7786 9.31315 64.0391 10.5762C64.2995 11.8392 64.3646 13.1543 64.2344 14.5215C64.1172 15.8887 63.7852 17.2689 63.2383 18.6621C62.5872 20.2767 61.7018 21.7155 60.582 22.9785C59.4753 24.2285 58.1992 25.2962 56.7539 26.1816C55.3216 27.054 53.7591 27.7311 52.0664 28.2129C50.3737 28.6816 48.6289 28.9355 46.832 28.9746C45.8555 28.9746 44.9115 28.89 44 28.7207C43.1016 28.5645 42.2096 28.3691 41.3242 28.1348C41.0638 28.2389 40.7904 28.3366 40.5039 28.4277C40.2305 28.5189 39.9505 28.61 39.6641 28.7012C39.4167 28.7663 39.0586 28.8444 38.5898 28.9355C38.1341 29.0267 37.6133 29.1113 37.0273 29.1895C36.4544 29.2676 35.8359 29.3327 35.1719 29.3848C34.5078 29.4368 33.8438 29.4629 33.1797 29.4629C32.5286 29.4629 31.9036 29.4303 31.3047 29.3652C30.7057 29.3132 30.1719 29.209 29.7031 29.0527C29.2474 28.8965 28.8828 28.6816 28.6094 28.4082C28.3359 28.1478 28.1992 27.8223 28.1992 27.4316C28.1992 27.1061 28.3229 26.8262 28.5703 26.5918C28.8307 26.3574 29.1302 26.1621 29.4688 26.0059C29.8203 25.8496 30.1719 25.7324 30.5234 25.6543C30.888 25.5762 31.181 25.5371 31.4023 25.5371H32.2031C32.9974 25.5371 33.7656 25.6022 34.5078 25.7324C35.263 25.8626 35.9987 26.0254 36.7148 26.2207C37.431 26.416 38.1406 26.6309 38.8438 26.8652C39.5469 27.0866 40.25 27.3014 40.9531 27.5098C42.2031 26.9499 43.2773 26.2728 44.1758 25.4785C45.0872 24.6712 45.9141 23.7728 46.6562 22.7832C47.3984 21.7806 48.1016 20.6934 48.7656 19.5215C49.4297 18.3496 50.1328 17.1061 50.875 15.791C51.3698 14.9186 51.9036 13.9811 52.4766 12.9785C53.0625 11.9759 53.7005 10.9668 54.3906 9.95117C55.0807 8.92253 55.8294 7.91992 56.6367 6.94336C57.444 5.9668 58.3294 5.06836 59.293 4.24805C58.5638 3.37565 57.6458 2.65951 56.5391 2.09961C55.0026 1.37044 53.375 0.940755 51.6562 0.810547C49.9505 0.680339 48.2448 0.804036 46.5391 1.18164C44.8464 1.55924 43.1992 2.16471 41.5977 2.99805C40.0091 3.81836 38.5703 4.82096 37.2812 6.00586C35.9922 7.17773 34.8984 8.49935 34 9.9707C33.1016 11.429 32.5026 12.9915 32.2031 14.6582C32.0729 15.4004 31.9948 16.1165 31.9688 16.8066C31.9557 17.4967 32.0143 18.1478 32.1445 18.7598C32.2747 19.3717 32.4896 19.9316 32.7891 20.4395C33.0885 20.9473 33.4857 21.3835 33.9805 21.748C34.7617 22.334 35.5951 22.7116 36.4805 22.8809C37.3789 23.0371 38.2839 23.0306 39.1953 22.8613C40.1198 22.6921 41.0378 22.3796 41.9492 21.9238C42.8607 21.4681 43.7266 20.9212 44.5469 20.2832C45.3802 19.6322 46.1419 18.903 46.832 18.0957C47.5352 17.2884 48.1276 16.4551 48.6094 15.5957C49.0911 14.7363 49.4492 13.8704 49.6836 12.998C49.931 12.1257 50.0091 11.2858 49.918 10.4785C49.8789 9.89258 49.7617 9.33919 49.5664 8.81836C49.3841 8.28451 49.1107 7.82227 48.7461 7.43164C48.3815 7.04102 47.9323 6.73503 47.3984 6.51367C46.8646 6.29232 46.2266 6.18815 45.4844 6.20117C44.599 6.21419 43.7721 6.39648 43.0039 6.74805C42.2357 7.08659 41.5521 7.54232 40.9531 8.11523C40.3542 8.67513 39.8529 9.31315 39.4492 10.0293C39.0456 10.7454 38.7656 11.4746 38.6094 12.2168C38.5443 12.321 38.5052 12.4251 38.4922 12.5293C38.4922 12.6335 38.4922 12.7507 38.4922 12.8809C38.5052 13.1283 38.4466 13.3171 38.3164 13.4473C38.1862 13.5645 38.056 13.61 37.9258 13.584C37.8086 13.5449 37.724 13.4277 37.6719 13.2324C37.6198 13.0241 37.6784 12.7246 37.8477 12.334C38.082 11.4225 38.4401 10.5632 38.9219 9.75586C39.4036 8.93555 39.9831 8.21289 40.6602 7.58789C41.3372 6.96289 42.1055 6.4681 42.9648 6.10352C43.8242 5.73893 44.7552 5.55013 45.7578 5.53711C46.2005 5.52409 46.6888 5.5957 47.2227 5.75195C47.7695 5.9082 48.2773 6.17513 48.7461 6.55273C49.2279 6.93034 49.638 7.43164 49.9766 8.05664C50.3281 8.68164 50.5365 9.46289 50.6016 10.4004C50.6797 11.2858 50.5755 12.2168 50.2891 13.1934C50.0156 14.1699 49.6055 15.1335 49.0586 16.084C48.5117 17.0345 47.8542 17.946 47.0859 18.8184C46.3177 19.6908 45.4844 20.4785 44.5859 21.1816C43.6875 21.8717 42.737 22.4447 41.7344 22.9004C40.7448 23.3561 39.7487 23.6491 38.7461 23.7793C37.7565 23.8965 36.7799 23.8184 35.8164 23.5449C34.8529 23.2715 33.9544 22.7507 33.1211 21.9824C32.6263 21.5267 32.2357 20.9538 31.9492 20.2637C31.6758 19.5736 31.487 18.8249 31.3828 18.0176C31.2917 17.2103 31.2852 16.3835 31.3633 15.5371C31.4414 14.6908 31.5977 13.8835 31.832 13.1152C32.1836 11.9564 32.6849 10.8366 33.3359 9.75586C33.987 8.67513 34.7487 7.66602 35.6211 6.72852C36.5065 5.77799 37.4831 4.91211 38.5508 4.13086C39.6185 3.33659 40.7448 2.64648 41.9297 2.06055C43.1146 1.47461 44.3385 1.00586 45.6016 0.654297C46.8776 0.302734 48.1536 0.094401 49.4297 0.0292969C50.7188 -0.0488281 51.9883 0.0292969 53.2383 0.263672C54.5013 0.485026 55.7188 0.888672 56.8906 1.47461C57.4766 1.77409 58.0365 2.10612 58.5703 2.4707C59.1042 2.82227 59.599 3.21289 60.0547 3.64258C60.6406 3.18685 61.2396 2.77669 61.8516 2.41211C62.4766 2.03451 63.1406 1.70898 63.8438 1.43555C63.8828 1.40951 63.9154 1.42253 63.9414 1.47461C63.9805 1.52669 64.013 1.5918 64.0391 1.66992C64.0391 1.74805 64.013 1.83268 63.9609 1.92383C63.9219 2.00195 63.8372 2.06055 63.707 2.09961ZM52.8867 15.8301C52.2357 17.0801 51.5456 18.2975 50.8164 19.4824C50.0872 20.6673 49.2865 21.7806 48.4141 22.8223C47.5417 23.8509 46.5781 24.7949 45.5234 25.6543C44.4818 26.5007 43.3294 27.2168 42.0664 27.8027C42.8607 28.0111 43.668 28.1608 44.4883 28.252C45.3086 28.3431 46.168 28.3431 47.0664 28.252C48.4466 28.1087 49.7487 27.7637 50.9727 27.2168C52.2096 26.6699 53.3555 25.9798 54.4102 25.1465C55.4648 24.3001 56.4154 23.3366 57.2617 22.2559C58.1211 21.1621 58.8568 20.0163 59.4688 18.8184C60.0807 17.6074 60.556 16.3639 60.8945 15.0879C61.2461 13.8118 61.4414 12.5618 61.4805 11.3379C61.5195 10.1139 61.3893 8.94206 61.0898 7.82227C60.8034 6.68945 60.3346 5.66732 59.6836 4.75586C59.0456 5.41992 58.4336 6.17513 57.8477 7.02148C57.2747 7.86784 56.7083 8.76628 56.1484 9.7168C55.6016 10.6673 55.0547 11.6634 54.5078 12.7051C53.974 13.7337 53.4336 14.7754 52.8867 15.8301ZM31.6367 26.2207C31.3112 26.2337 30.9922 26.2663 30.6797 26.3184C30.3802 26.3574 30.1068 26.429 29.8594 26.5332C29.612 26.6374 29.3971 26.7741 29.2148 26.9434C29.0456 27.1126 28.9349 27.321 28.8828 27.5684C29.0521 27.972 29.3646 28.2845 29.8203 28.5059C30.276 28.7272 30.8164 28.877 31.4414 28.9551C32.0794 29.0462 32.763 29.0788 33.4922 29.0527C34.2214 29.0267 34.9375 28.9681 35.6406 28.877C36.3438 28.7858 37.0078 28.6751 37.6328 28.5449C38.2578 28.4147 38.7721 28.291 39.1758 28.1738C39.5273 28.0566 39.8789 27.9329 40.2305 27.8027C39.5534 27.6074 38.8698 27.4121 38.1797 27.2168C37.5026 27.0215 36.8125 26.8457 36.1094 26.6895C35.4062 26.5332 34.6836 26.416 33.9414 26.3379C33.1992 26.2467 32.431 26.2077 31.6367 26.2207Z" fill="#212844"/>
<path d="M66.2852 27.7246C67.5872 27.7246 69.638 25.8952 72.4375 22.2363H73.043C72.431 23.0436 71.8385 23.7793 71.2656 24.4434C70.7057 25.0944 70.1133 25.7194 69.4883 26.3184C68.8763 26.9173 68.2839 27.3861 67.7109 27.7246C67.138 28.0632 66.6237 28.2324 66.168 28.2324C65.4779 28.2324 64.8919 27.985 64.4102 27.4902C63.9414 26.9954 63.707 26.2467 63.707 25.2441C63.707 24.3717 63.9674 23.4082 64.4883 22.3535C65.0091 21.2858 65.6536 20.3158 66.4219 19.4434C67.2031 18.571 68.069 17.8418 69.0195 17.2559C69.9701 16.6699 70.849 16.377 71.6562 16.377C71.7995 16.377 71.9427 16.403 72.0859 16.4551C72.2422 16.5072 72.3984 16.5983 72.5547 16.7285C72.7109 16.8457 72.8346 17.0345 72.9258 17.2949C73.0299 17.5423 73.082 17.8548 73.082 18.2324C73.082 19.0918 72.7305 19.9186 72.0273 20.7129C71.3242 21.5072 70.4844 22.0866 69.5078 22.4512C68.5312 22.8027 67.6719 22.8418 66.9297 22.5684C66.0182 24.248 65.5625 25.5501 65.5625 26.4746C65.5625 27.3079 65.8034 27.7246 66.2852 27.7246ZM71.5391 16.7871C71.1875 16.7871 70.543 17.36 69.6055 18.5059C68.681 19.6517 67.8346 20.9147 67.0664 22.2949C67.5482 22.373 68.0365 22.2949 68.5312 22.0605C69.0391 21.8262 69.4818 21.5072 69.8594 21.1035C70.25 20.6868 70.5951 20.2376 70.8945 19.7559C71.207 19.2611 71.4414 18.7858 71.5977 18.3301C71.7669 17.8743 71.8516 17.4967 71.8516 17.1973C71.8516 16.9238 71.7474 16.7871 71.5391 16.7871Z" fill="#212844"/>
<path d="M88.0625 22.2363H88.6484C88.388 22.653 88.1146 23.0632 87.8281 23.4668C87.5417 23.8704 87.1576 24.3783 86.6758 24.9902C86.194 25.6022 85.7383 26.1361 85.3086 26.5918C84.8919 27.0345 84.4427 27.4186 83.9609 27.7441C83.4922 28.0697 83.0755 28.2324 82.7109 28.2324C82.5938 28.2324 82.4635 28.2194 82.3203 28.1934C82.1901 28.1543 82.0404 28.0827 81.8711 27.9785C81.7018 27.8743 81.5521 27.7376 81.4219 27.5684C81.2917 27.3991 81.181 27.1582 81.0898 26.8457C80.9987 26.5332 80.9531 26.1686 80.9531 25.752C80.9531 25.3223 81.1289 24.7819 81.4805 24.1309C81.832 23.4798 82.2552 22.8288 82.75 22.1777C83.2448 21.5137 83.7331 20.8757 84.2148 20.2637C84.7096 19.6387 85.1328 19.0658 85.4844 18.5449C85.8359 18.0241 86.0117 17.6465 86.0117 17.4121C86.0117 17.1387 85.9076 17.002 85.6992 17.002C85.4128 17.002 85.0221 17.2038 84.5273 17.6074C84.0326 17.998 83.5247 18.4928 83.0039 19.0918C82.4831 19.6777 81.9036 20.3874 81.2656 21.2207C80.6276 22.041 80.0547 22.7962 79.5469 23.4863C79.0521 24.1764 78.5443 24.8991 78.0234 25.6543C77.3594 26.696 76.7995 27.5228 76.3438 28.1348H74.2344C74.4557 27.7441 75.1328 26.6764 76.2656 24.9316C77.3984 23.1868 78.3685 21.6113 79.1758 20.2051C79.9831 18.7858 80.3867 17.8548 80.3867 17.4121C80.3867 17.1387 80.3021 17.002 80.1328 17.002C79.9115 17.002 79.5729 17.1973 79.1172 17.5879C78.6745 17.9655 78.2188 18.4147 77.75 18.9355C77.2812 19.4564 76.7604 20.0814 76.1875 20.8105C75.6146 21.5267 75.1393 22.1322 74.7617 22.627C74.3971 23.1087 74.0326 23.597 73.668 24.0918L71.2852 28.1348H69L70.7969 25.3809L72.418 22.2754L75.9922 16.4746H78.2383C78.1862 16.5658 78.0495 16.7806 77.8281 17.1191C77.6198 17.4577 77.3789 17.8418 77.1055 18.2715C76.8451 18.7012 76.6628 19.0007 76.5586 19.1699C76.1419 19.847 75.8229 20.3548 75.6016 20.6934C77.75 17.8158 79.3646 16.377 80.4453 16.377C80.8359 16.377 81.1615 16.5137 81.4219 16.7871C81.6953 17.0475 81.832 17.4577 81.832 18.0176C81.832 18.6296 81.3958 19.7559 80.5234 21.3965C82.8542 18.0501 84.6836 16.377 86.0117 16.377C86.4284 16.377 86.7734 16.5072 87.0469 16.7676C87.3203 17.028 87.457 17.4447 87.457 18.0176C87.457 18.4993 87.2747 19.0853 86.9102 19.7754C86.5586 20.4655 86.1289 21.1556 85.6211 21.8457C85.1263 22.5358 84.625 23.2129 84.1172 23.877C83.6094 24.541 83.1797 25.166 82.8281 25.752C82.4766 26.3249 82.3008 26.7741 82.3008 27.0996C82.3008 27.5163 82.4375 27.7246 82.7109 27.7246C82.9844 27.7246 83.3164 27.5879 83.707 27.3145C84.1107 27.028 84.5013 26.6895 84.8789 26.2988C85.2565 25.8952 85.6602 25.4264 86.0898 24.8926C86.5326 24.3587 86.8971 23.89 87.1836 23.4863C87.4831 23.0697 87.776 22.653 88.0625 22.2363Z" fill="#212844"/>
<path d="M99.293 22.2363H99.8789C99.7747 22.4056 99.6315 22.627 99.4492 22.9004C99.2799 23.1608 98.9414 23.6361 98.4336 24.3262C97.9388 25.0163 97.4635 25.6283 97.0078 26.1621C96.5651 26.6829 96.0638 27.1582 95.5039 27.5879C94.957 28.0176 94.4948 28.2324 94.1172 28.2324C93.6875 28.2324 93.3034 27.9915 92.9648 27.5098C92.6263 27.028 92.457 26.3379 92.457 25.4395C92.457 25.153 92.5352 24.7819 92.6914 24.3262C90.6732 26.9303 89.293 28.2324 88.5508 28.2324C88.1341 28.2324 87.7565 27.9915 87.418 27.5098C87.0794 27.028 86.9102 26.3379 86.9102 25.4395C86.9102 25.0358 87.0729 24.4499 87.3984 23.6816C87.724 22.9134 88.1146 22.1322 88.5703 21.3379C89.0391 20.5306 89.5078 19.7559 89.9766 19.0137C90.4453 18.2715 90.8424 17.666 91.168 17.1973L91.6562 16.4746H94.1367C93.9805 16.709 93.7721 17.015 93.5117 17.3926C93.2513 17.7702 92.7891 18.4798 92.125 19.5215C91.4609 20.5501 90.875 21.5007 90.3672 22.373C89.8594 23.2454 89.3971 24.1439 88.9805 25.0684C88.5638 25.9798 88.3555 26.6569 88.3555 27.0996C88.3555 27.4382 88.4922 27.6074 88.7656 27.6074C89.3516 27.6074 90.9531 25.8691 93.5703 22.3926C93.987 21.5853 94.4948 20.6934 95.0938 19.7168C95.7057 18.7272 96.207 17.9395 96.5977 17.3535L97.2031 16.4746H99.6836C99.5273 16.709 99.3125 17.015 99.0391 17.3926C98.7786 17.7702 98.3164 18.4798 97.6523 19.5215C96.9883 20.5501 96.4023 21.5007 95.8945 22.373C95.3997 23.2454 94.944 24.1439 94.5273 25.0684C94.1107 25.9798 93.9023 26.6569 93.9023 27.0996C93.9023 27.4382 94.0391 27.6074 94.3125 27.6074C94.5469 27.6074 94.8659 27.4382 95.2695 27.0996C95.6732 26.7611 96.0638 26.377 96.4414 25.9473C96.819 25.5176 97.2357 25.0098 97.6914 24.4238C98.1471 23.8379 98.4792 23.3952 98.6875 23.0957C98.9089 22.7962 99.1107 22.5098 99.293 22.2363Z" fill="#212844"/>
<path d="M119.375 24.3074C118.142 24.3074 116.6 23.9158 114.75 23.1324C113.45 22.5824 112.425 22.1908 111.675 21.9574C110.942 21.7074 110.183 21.5824 109.4 21.5824C108.5 21.5824 107.65 21.7741 106.85 22.1574C106.067 22.5241 105.258 22.9824 104.425 23.5324C104.358 23.5824 104.3 23.6074 104.25 23.6074C104.2 23.6074 104.142 23.5824 104.075 23.5324C104.025 23.4824 104 23.4408 104 23.4074C104 23.3741 104.017 23.3324 104.05 23.2824C104.6 22.5324 105.4 21.8241 106.45 21.1574C107.517 20.4741 108.733 20.1324 110.1 20.1324C111.35 20.1324 112.9 20.5241 114.75 21.3074L115.3 21.5324C116.433 21.9991 117.333 22.3408 118 22.5574C118.667 22.7741 119.358 22.8824 120.075 22.8824C120.975 22.8824 121.817 22.6991 122.6 22.3324C123.383 21.9491 124.2 21.4741 125.05 20.9074C125.133 20.8574 125.192 20.8324 125.225 20.8324C125.275 20.8324 125.325 20.8574 125.375 20.9074C125.442 20.9574 125.475 20.9991 125.475 21.0324C125.475 21.0658 125.458 21.1074 125.425 21.1574C124.875 21.9074 124.067 22.6241 123 23.3074C121.95 23.9741 120.742 24.3074 119.375 24.3074Z" fill="#212844"/>
</svg>
