<svg width="268" height="112" viewBox="0 0 268 112" fill="none" xmlns="http://www.w3.org/2000/svg">
<path d="M1.50806 54.1945C1.50806 52.0681 1.79954 50.1135 2.38251 48.3307C2.96548 46.5128 3.78849 44.9528 4.85154 43.6497C5.9489 42.3466 7.25199 41.335 8.76083 40.6148C10.2697 39.8604 11.95 39.4832 13.8018 39.4832C15.6536 39.4832 17.3167 39.8604 18.7913 40.6148C20.2659 41.3692 21.5176 42.4152 22.5463 43.7526C23.6094 45.0557 24.4153 46.6158 24.9639 48.4338C25.5469 50.2509 25.8384 52.2231 25.8384 54.3487C25.8384 56.4408 25.5469 58.4122 24.9639 60.2645C24.4153 62.0817 23.6094 63.6591 22.5463 64.9968C21.5176 66.3337 20.2487 67.3973 18.7399 68.186C17.2653 68.9404 15.6021 69.3175 13.7503 69.3175C11.8986 69.3175 10.2182 68.9404 8.70944 68.186C7.20056 67.3973 5.9146 66.3337 4.85154 64.9968C3.78849 63.6591 2.96548 62.0649 2.38251 60.2126C1.79954 58.361 1.50806 56.3553 1.50806 54.1945ZM22.0319 55.1207C22.0319 53.4402 21.8776 51.7253 21.569 49.9768C21.2947 48.1933 20.8146 46.5815 20.1287 45.1414C19.4428 43.7011 18.5341 42.518 17.4025 41.5922C16.3052 40.6663 14.9163 40.2033 13.236 40.2033C11.7271 40.2033 10.4583 40.632 9.42952 41.4893C8.40076 42.3123 7.56065 43.3925 6.90907 44.7299C6.29182 46.033 5.84602 47.4901 5.57168 49.1019C5.29734 50.6793 5.16017 52.2399 5.16017 53.783C5.16017 55.5322 5.33164 57.2807 5.67456 59.0299C6.01748 60.7784 6.54901 62.3733 7.26914 63.8133C8.02358 65.2197 8.98378 66.3681 10.1497 67.2599C11.3156 68.1173 12.7216 68.5456 14.3677 68.5456C15.9451 68.5456 17.231 68.1341 18.2255 67.311C19.22 66.4879 19.9915 65.4427 20.5402 64.1737C21.1232 62.8704 21.5175 61.4304 21.7233 59.8529C21.9291 58.2412 22.0319 56.6637 22.0319 55.1207ZM49.6696 60.7784C49.6696 62.2191 49.3438 63.4881 48.6922 64.5852C48.0407 65.6481 47.1662 66.5399 46.0689 67.2599C45.0058 67.9455 43.7884 68.4601 42.4167 68.8029C41.0451 69.1801 39.6391 69.3687 38.1988 69.3687C36.8957 69.3687 35.6097 69.1801 34.3409 68.8029C33.1064 68.4601 31.992 67.9287 30.9975 67.2087C30.003 66.4879 29.1971 65.5969 28.5799 64.5333C27.9969 63.4362 27.7054 62.1672 27.7054 60.7272C27.7054 59.6987 27.894 58.7558 28.2713 57.8983C28.6827 57.0409 29.2143 56.2522 29.8658 55.5322C30.5174 54.8115 31.2718 54.1777 32.1291 53.6288C32.9864 53.0454 33.878 52.5316 34.8039 52.0857C34.2209 51.7085 33.6551 51.3138 33.1064 50.9022C32.5577 50.4907 32.0776 50.0455 31.6662 49.5653C31.2546 49.0507 30.9117 48.5017 30.6374 47.9192C30.3974 47.3358 30.2773 46.6845 30.2773 45.9644C30.2773 44.8328 30.5688 43.8726 31.1518 43.0839C31.7347 42.2609 32.4549 41.5922 33.3122 41.0778C34.2038 40.5634 35.1639 40.1862 36.1927 39.9461C37.2557 39.7061 38.2674 39.586 39.2276 39.586C40.0849 39.586 40.9593 39.689 41.8509 39.8947C42.7425 40.1004 43.5484 40.4262 44.2685 40.872C45.0229 41.3178 45.6231 41.9008 46.0689 42.6209C46.549 43.3067 46.789 44.1469 46.789 45.1414C46.789 45.9987 46.6004 46.7876 46.2232 47.5076C45.8459 48.1933 45.3659 48.8277 44.7829 49.4111C44.2342 49.9593 43.617 50.4395 42.9311 50.8511C42.2453 51.2282 41.5938 51.5543 40.9764 51.8284C41.9709 52.343 42.9826 52.8744 44.0114 53.4226C45.0401 53.9372 45.966 54.5373 46.789 55.223C47.6463 55.9094 48.3322 56.6981 48.8466 57.5891C49.3952 58.4809 49.6696 59.5445 49.6696 60.7784ZM33.2093 44.2155C33.2093 45.21 33.4494 46.0844 33.9295 46.8388C34.4439 47.5931 35.0611 48.262 35.7812 48.8453C36.5357 49.4279 37.3415 49.9425 38.1988 50.3884C39.0561 50.7999 39.8277 51.1939 40.5135 51.5711C41.6452 50.9885 42.4682 50.2341 42.9826 49.308C43.5313 48.3819 43.8056 47.3534 43.8056 46.2216C43.8056 45.2957 43.6341 44.4727 43.2912 43.7526C42.9826 42.9981 42.554 42.3809 42.0052 41.9008C41.4908 41.4207 40.8736 41.0606 40.1535 40.8206C39.4333 40.5462 38.6618 40.4091 37.8388 40.4091C36.5357 40.4091 35.4383 40.7005 34.5467 41.2836C33.6551 41.8665 33.2093 42.8438 33.2093 44.2155ZM46.326 62.116C46.326 60.8471 45.966 59.7667 45.2459 58.8756C44.5257 57.9495 43.617 57.1264 42.5196 56.4064C41.4223 55.6864 40.2392 55.0176 38.9704 54.4007C37.7016 53.783 36.5185 53.1317 35.4212 52.4453C33.8094 53.3371 32.712 54.4006 32.1291 55.6345C31.5461 56.8348 31.2546 58.1381 31.2546 59.5445C31.2546 60.8127 31.4432 61.9961 31.8205 63.0933C32.2319 64.1905 32.7978 65.151 33.5179 65.9741C34.2724 66.7972 35.1639 67.4484 36.1927 67.9287C37.2215 68.3746 38.3703 68.5975 39.6391 68.5975C40.7021 68.5975 41.6452 68.4257 42.4682 68.0829C43.2912 67.7057 43.9771 67.2087 44.5257 66.591C45.1087 65.9741 45.5545 65.2877 45.8631 64.5333C46.1717 63.7446 46.326 62.9391 46.326 62.116Z" fill="#212844"/>
<path d="M60.738 33.3213V71.0287" stroke="#212844" stroke-width="0.81973"/>
<path d="M62.3774 33.3749V71.0828" stroke="#212844" stroke-width="0.81973"/>
<path d="M108.944 86.89C111.401 86.7146 113.464 86.276 115.131 85.5735C116.798 84.8718 118.159 83.9501 119.212 82.809C120.353 81.6687 121.23 80.3961 121.845 78.9919C122.547 77.5 123.117 75.9642 123.556 74.3846L125.136 74.5162L121.186 93.8671H75.6391L75.1128 92.4191C79.6762 88.2942 83.3618 84.828 86.1702 82.0196C88.9785 79.1235 91.5238 76.5344 93.8051 74.253C96.1749 71.7955 98.6324 69.1187 101.177 66.2226C103.81 63.3265 106.18 60.3427 108.286 57.2712C110.48 54.1119 112.279 50.9965 113.683 47.925C115.087 44.7653 115.833 41.7376 115.921 38.8415C115.921 36.6475 115.701 34.5413 115.263 32.5228C114.912 30.5043 114.166 28.7052 113.025 27.1256C111.884 25.5459 110.348 24.3172 108.417 23.4396C106.487 22.4743 104.029 21.9916 101.045 21.9916C98.5009 21.9916 96.1311 22.7376 93.9367 24.2295C91.8308 25.7214 89.9003 27.6521 88.1452 30.0216C86.4772 32.3034 85.0291 34.8046 83.8011 37.5251C82.66 40.2457 81.826 42.8346 81.2997 45.2919L79.5885 44.897L84.0642 19.4905H85.6439C85.6439 19.5782 85.6439 19.666 85.6439 19.7537C85.6439 20.1048 85.7316 20.6313 85.907 21.3334C86.0824 22.0355 86.6972 22.3865 87.7498 22.3865C88.9785 22.3865 90.1634 22.2548 91.3045 21.9916C92.4448 21.6405 93.6736 21.2895 94.99 20.9384C96.3065 20.5874 97.7545 20.2803 99.3342 20.017C101.002 19.666 102.933 19.4905 105.126 19.4905C111.621 19.4905 116.535 21.2457 119.87 24.756C123.293 28.2664 125.004 32.7422 125.004 38.1833C125.004 40.9916 124.39 43.8439 123.161 46.7401C121.933 49.6362 120.309 52.4884 118.29 55.2968C116.272 58.0168 113.99 60.6497 111.445 63.1949C108.9 65.6525 106.355 67.9338 103.81 70.0405C101.529 72.0587 98.6324 74.4723 95.1216 77.2807C91.6115 80.0014 87.8814 83.2045 83.9327 86.89L84.3274 87.417C90.2073 87.417 95.1655 87.3732 99.2026 87.2855C103.24 87.197 106.487 87.0655 108.944 86.89ZM148.166 59.9041C142.9 59.9041 138.6 58.4999 135.265 55.6915C131.93 52.7954 130.262 48.5829 130.262 43.054C130.262 39.4558 131.052 36.2087 132.632 33.3126C134.299 30.3288 136.406 27.8276 138.95 25.8092C141.583 23.7907 144.523 22.2548 147.77 21.2017C151.106 20.0608 154.44 19.4905 157.775 19.4905C162.251 19.4905 166.156 20.4558 169.491 22.3865C172.914 24.3172 175.766 26.8623 178.048 30.0216C180.33 33.0932 182.041 36.6475 183.182 40.6845C184.322 44.6337 184.893 48.6706 184.893 52.7954C184.893 59.641 183.708 65.8717 181.339 71.4885C178.97 77.1053 175.679 81.9757 171.466 86.1006C167.341 90.2254 162.471 93.5601 156.854 96.1053C151.325 98.7376 145.401 100.449 139.083 101.239L138.95 99.9225C145.533 98.7814 151.15 96.9825 155.801 94.525C160.54 92.0682 164.358 88.9967 167.254 85.3104C170.237 81.5371 172.387 77.1491 173.704 72.1464C175.108 67.1444 175.81 61.5715 175.81 55.4284C175.81 52.4446 175.371 49.0215 174.494 45.1603C173.616 41.2988 172.256 37.6568 170.413 34.2341C168.57 30.7237 166.288 27.7837 163.567 25.4142C160.847 23.0447 157.644 21.86 153.958 21.86C151.5 21.86 149.351 22.3865 147.507 23.4396C145.752 24.405 144.304 25.7214 143.163 27.3889C142.023 29.0563 141.189 30.987 140.662 33.181C140.135 35.2872 139.872 37.4374 139.872 39.6314C139.872 41.7376 140.092 43.8 140.531 45.8184C141.057 47.7488 141.803 49.5046 142.768 51.0842C143.822 52.6639 145.182 53.9365 146.849 54.9014C148.517 55.7793 150.535 56.2178 152.905 56.2178C154.835 56.2178 156.546 56.0424 158.038 55.6915C159.531 55.253 160.847 54.7259 161.988 54.1119C163.129 53.4972 164.094 52.8393 164.884 52.1368C165.762 51.3474 166.507 50.6449 167.122 50.0309L168.175 51.0842C165.893 53.9803 163.041 56.174 159.619 57.6659C156.195 59.1578 152.378 59.9041 148.166 59.9041Z" fill="#212844"/>
<path d="M197.606 33.3213V71.0287" stroke="#212844" stroke-width="0.81973"/>
<path d="M199.246 33.3749V71.0828" stroke="#212844" stroke-width="0.81973"/>
<path d="M223.677 65.9222C224.637 65.8542 225.443 65.6824 226.094 65.4083C226.746 65.1335 227.278 64.7738 227.689 64.3279C228.135 63.882 228.478 63.385 228.718 62.836C228.992 62.2534 229.215 61.6533 229.386 61.0356L230.003 61.0875L228.46 68.6487H210.663L210.457 68.0829C212.24 66.4711 213.681 65.1166 214.778 64.0195C215.875 62.8879 216.87 61.8763 217.761 60.9845C218.687 60.024 219.648 58.978 220.642 57.8464C221.671 56.7149 222.596 55.549 223.42 54.3487C224.277 53.1141 224.98 51.8971 225.528 50.6968C226.077 49.4622 226.369 48.2788 226.403 47.1472C226.403 46.2902 226.317 45.4672 226.146 44.6785C226.009 43.8898 225.717 43.1867 225.271 42.5695C224.826 41.9523 224.226 41.4721 223.471 41.1292C222.716 40.752 221.757 40.5634 220.591 40.5634C219.596 40.5634 218.67 40.8548 217.813 41.4379C216.99 42.0208 216.236 42.7752 215.55 43.7011C214.898 44.5927 214.332 45.57 213.852 46.6334C213.406 47.6962 213.081 48.7079 212.875 49.6676L212.206 49.5134L213.955 39.586H214.572C214.572 39.6204 214.572 39.6547 214.572 39.689C214.572 39.8261 214.606 40.0318 214.675 40.3062C214.744 40.5805 214.983 40.7177 215.395 40.7177C215.875 40.7177 216.339 40.6663 216.784 40.5634C217.23 40.4262 217.71 40.2891 218.225 40.1519C218.738 40.0147 219.305 39.8947 219.922 39.7918C220.573 39.6547 221.328 39.586 222.185 39.586C224.723 39.586 226.643 40.2719 227.946 41.6436C229.283 43.0153 229.952 44.7642 229.952 46.8899C229.952 47.9879 229.712 49.1019 229.232 50.2341C228.752 51.3657 228.117 52.4797 227.329 53.5776C226.54 54.6404 225.648 55.6689 224.654 56.6637C223.66 57.6235 222.665 58.5153 221.671 59.3383C220.779 60.1271 219.648 61.07 218.276 62.1672C216.904 63.2308 215.447 64.4822 213.904 65.9222L214.058 66.1283C216.355 66.1283 218.293 66.1108 219.871 66.0764C221.448 66.0428 222.716 65.9909 223.677 65.9222ZM246.307 53.6287C248.365 53.6287 250.044 54.1945 251.348 55.3261C252.651 56.4232 253.302 58.0526 253.302 60.2126C253.302 61.619 252.977 62.8879 252.325 64.0195C251.708 65.151 250.885 66.1283 249.856 66.9514C248.862 67.7401 247.713 68.3402 246.41 68.7518C245.141 69.1976 243.855 69.4206 242.552 69.4206C240.803 69.4206 239.26 69.0434 237.923 68.2883C236.585 67.534 235.47 66.5398 234.579 65.3052C233.687 64.0706 233.019 62.6818 232.573 61.1387C232.127 59.5613 231.904 57.9839 231.904 56.4064C231.904 53.7318 232.367 51.297 233.293 49.1019C234.253 46.9075 235.539 45.0043 237.151 43.3925C238.763 41.7465 240.648 40.4262 242.809 39.4317C245.004 38.4373 247.335 37.7857 249.805 37.4771L249.908 37.9915C247.301 38.4373 245.089 39.1403 243.272 40.1004C241.455 41.0263 239.963 42.2266 238.797 43.7011C237.665 45.1414 236.825 46.8388 236.277 48.7934C235.762 50.748 235.505 52.9431 235.505 55.378C235.505 56.5438 235.676 57.8808 236.019 59.3895C236.362 60.899 236.877 62.3214 237.562 63.6591C238.282 64.9968 239.174 66.1283 240.237 67.0544C241.334 67.9799 242.603 68.4433 244.044 68.4433C245.004 68.4433 245.827 68.254 246.512 67.8768C247.233 67.4652 247.816 66.9338 248.262 66.2825C248.707 65.6312 249.033 64.8937 249.239 64.0706C249.444 63.2476 249.547 62.4077 249.547 61.5503C249.547 60.7272 249.444 59.9385 249.239 59.1841C249.067 58.3954 248.776 57.6922 248.365 57.0753C247.987 56.4576 247.473 55.9781 246.822 55.6345C246.169 55.2573 245.381 55.0687 244.455 55.0687C242.946 55.0687 241.746 55.3604 240.855 55.9437C239.997 56.492 239.328 57.0066 238.848 57.4868L238.437 57.0753C239.363 55.9437 240.494 55.0863 241.832 54.503C243.169 53.9204 244.661 53.6287 246.307 53.6287Z" fill="#212844"/>
</svg>
