<svg width="132" height="42" viewBox="0 0 132 42" fill="none" xmlns="http://www.w3.org/2000/svg">
<path d="M15.375 28.2039C14.1417 28.2039 12.6 27.8122 10.75 27.0289C9.45 26.4789 8.425 26.0872 7.675 25.8539C6.94167 25.6039 6.18333 25.4789 5.4 25.4789C4.5 25.4789 3.65 25.6706 2.85 26.0539C2.06667 26.4206 1.25833 26.8789 0.425 27.4289C0.358333 27.4789 0.3 27.5039 0.25 27.5039C0.2 27.5039 0.141667 27.4789 0.0750002 27.4289C0.0250001 27.3789 0 27.3372 0 27.3039C0 27.2706 0.0166667 27.2289 0.0500001 27.1789C0.6 26.4289 1.4 25.7206 2.45 25.0539C3.51667 24.3706 4.73333 24.0289 6.1 24.0289C7.35 24.0289 8.9 24.4206 10.75 25.2039L11.3 25.4289C12.4333 25.8956 13.3333 26.2372 14 26.4539C14.6667 26.6706 15.3583 26.7789 16.075 26.7789C16.975 26.7789 17.8167 26.5956 18.6 26.2289C19.3833 25.8456 20.2 25.3706 21.05 24.8039C21.1333 24.7539 21.1917 24.7289 21.225 24.7289C21.275 24.7289 21.325 24.7539 21.375 24.8039C21.4417 24.8539 21.475 24.8956 21.475 24.9289C21.475 24.9622 21.4583 25.0039 21.425 25.0539C20.875 25.8039 20.0667 26.5206 19 27.2039C17.95 27.8706 16.7417 28.2039 15.375 28.2039Z" fill="#212844"/>
<path d="M55.9258 29.5703C55.8997 30.1172 55.8086 30.7227 55.6523 31.3867C55.4961 32.0378 55.2812 32.7018 55.0078 33.3789C54.7344 34.056 54.3958 34.7135 53.9922 35.3516C53.5885 35.9896 53.1198 36.556 52.5859 37.0508C52.0651 37.5456 51.4727 37.9492 50.8086 38.2617C50.1576 38.5742 49.4414 38.737 48.6602 38.75C48.0091 38.763 47.3906 38.6719 46.8047 38.4766C46.2188 38.2943 45.6523 38.0664 45.1055 37.793C44.5586 37.5326 44.0312 37.2526 43.5234 36.9531C43.0156 36.6536 42.5143 36.3997 42.0195 36.1914C41.5378 35.9961 41.056 35.8659 40.5742 35.8008C40.0924 35.7487 39.6107 35.8333 39.1289 36.0547C38.5951 36.2891 38.1979 36.6081 37.9375 37.0117C37.6901 37.4284 37.5469 37.8581 37.5078 38.3008C37.4818 38.7565 37.5534 39.1992 37.7227 39.6289C37.8919 40.0586 38.1393 40.4036 38.4648 40.6641C38.8034 40.9375 39.2005 41.0872 39.6562 41.1133C40.125 41.1523 40.6393 41.0026 41.1992 40.6641L41.0234 41.5234C40.5026 41.7318 40.0143 41.8229 39.5586 41.7969C39.1159 41.7708 38.7188 41.6536 38.3672 41.4453C38.0156 41.25 37.7227 40.9831 37.4883 40.6445C37.2539 40.319 37.0846 39.9479 36.9805 39.5312C36.8372 38.9583 36.8307 38.4115 36.9609 37.8906C37.1042 37.3828 37.332 36.9076 37.6445 36.4648C37.9701 36.0221 38.3607 35.6185 38.8164 35.2539C39.2852 34.9023 39.7669 34.6029 40.2617 34.3555C40.7695 34.1211 41.2708 33.9453 41.7656 33.8281C42.2604 33.7109 42.7096 33.6719 43.1133 33.7109C43.7643 33.763 44.3893 33.9128 44.9883 34.1602C45.6003 34.4206 46.2057 34.7005 46.8047 35C47.4036 35.3125 48.0091 35.6055 48.6211 35.8789C49.2461 36.1654 49.8906 36.3672 50.5547 36.4844C50.9583 36.5495 51.362 36.4974 51.7656 36.3281C52.1823 36.1589 52.5729 35.8854 52.9375 35.5078C53.3021 35.1432 53.6341 34.681 53.9336 34.1211C54.2331 33.5612 54.4805 32.9167 54.6758 32.1875C54.207 32.8255 53.6406 33.2487 52.9766 33.457C52.4167 33.6133 51.9154 33.6328 51.4727 33.5156C51.043 33.3984 50.6719 33.1901 50.3594 32.8906C50.0599 32.5911 49.8255 32.207 49.6562 31.7383C49.487 31.2695 49.4023 30.7617 49.4023 30.2148C49.3763 29.9805 49.3698 29.7266 49.3828 29.4531C49.3958 29.1797 49.4219 28.8932 49.4609 28.5938C48.5104 29.2969 47.5599 29.9414 46.6094 30.5273C45.6719 31.1003 44.7474 31.5885 43.8359 31.9922C42.9375 32.3958 42.0586 32.7018 41.1992 32.9102C40.3529 33.1185 39.5456 33.2096 38.7773 33.1836C38.0742 33.1576 37.4753 33.0078 36.9805 32.7344C36.4857 32.474 36.082 32.1419 35.7695 31.7383C35.457 31.3216 35.2292 30.8659 35.0859 30.3711C34.9557 29.8633 34.8906 29.3555 34.8906 28.8477C34.8906 27.7669 35.099 26.7513 35.5156 25.8008C35.9323 24.8372 36.4661 23.9258 37.1172 23.0664C37.7682 22.207 38.4844 21.3997 39.2656 20.6445C40.0599 19.8893 40.8346 19.1732 41.5898 18.4961C42.306 17.8581 42.9701 17.2526 43.582 16.6797C44.194 16.0938 44.7474 15.5078 45.2422 14.9219C45.737 14.3359 46.1667 13.724 46.5312 13.0859C46.9089 12.4349 47.2148 11.7253 47.4492 10.957C47.7096 10.0716 47.7617 9.20573 47.6055 8.35938C47.4622 7.5 47.0586 6.77083 46.3945 6.17188C46.1341 5.9375 45.8281 5.72917 45.4766 5.54688C45.138 5.36458 44.7539 5.22135 44.3242 5.11719C44.2852 5.11719 44.2591 5.11068 44.2461 5.09766C44.2201 5.34505 44.1875 5.58594 44.1484 5.82031C44.1224 6.05469 44.0833 6.28906 44.0312 6.52344C43.849 7.4349 43.5299 8.39193 43.0742 9.39453C42.6315 10.3841 42.0846 11.3672 41.4336 12.3438C40.7826 13.3073 40.0469 14.2383 39.2266 15.1367C38.4062 16.0221 37.5339 16.8099 36.6094 17.5C35.6849 18.1771 34.7214 18.724 33.7188 19.1406C32.7161 19.5573 31.707 19.7852 30.6914 19.8242C30.1055 19.8503 29.5651 19.7786 29.0703 19.6094C28.5885 19.4271 28.1979 19.1927 27.8984 18.9062C27.5208 18.6068 27.2409 18.2487 27.0586 17.832C26.8893 17.4154 26.7917 16.9727 26.7656 16.5039C26.7135 15.7357 26.7852 15 26.9805 14.2969C27.1888 13.5938 27.4818 12.9232 27.8594 12.2852C28.237 11.6341 28.6862 11.0221 29.207 10.4492C29.7409 9.8763 30.3008 9.33594 30.8867 8.82812C31.4857 8.32031 32.1042 7.84505 32.7422 7.40234C33.3802 6.95964 33.9987 6.55599 34.5977 6.19141C35.1836 5.82682 35.8346 5.5013 36.5508 5.21484C37.2799 4.91536 38.0352 4.67448 38.8164 4.49219C39.6107 4.29688 40.4115 4.17318 41.2188 4.12109C42.0391 4.05599 42.8268 4.06901 43.582 4.16016C43.569 3.66536 43.4909 3.20964 43.3477 2.79297C43.2044 2.3763 42.9766 2.01823 42.6641 1.71875C42.3516 1.40625 41.9414 1.16536 41.4336 0.996094C40.9258 0.826823 40.3008 0.742188 39.5586 0.742188C39.4935 0.742188 39.4414 0.735677 39.4023 0.722656V0.371094C39.7279 0.123698 40.0859 0 40.4766 0C41.2057 0 41.8177 0.117188 42.3125 0.351562C42.8073 0.585938 43.1979 0.898438 43.4844 1.28906C43.7839 1.67969 43.9922 2.13542 44.1094 2.65625C44.2266 3.17708 44.2852 3.72396 44.2852 4.29688C44.4935 4.33594 44.6953 4.38802 44.8906 4.45312C45.0859 4.50521 45.2747 4.5638 45.457 4.62891C45.9909 4.83724 46.4792 5.11068 46.9219 5.44922C47.3776 5.77474 47.7617 6.1849 48.0742 6.67969C48.3997 7.16146 48.6536 7.72786 48.8359 8.37891C49.0182 9.01693 49.1094 9.74609 49.1094 10.5664C49.1094 11.569 48.9531 12.5391 48.6406 13.4766C48.3281 14.401 47.9115 15.2995 47.3906 16.1719C46.8828 17.0312 46.2969 17.8711 45.6328 18.6914C44.9688 19.5117 44.2917 20.3125 43.6016 21.0938C43.263 21.4714 42.8724 21.8945 42.4297 22.3633C41.987 22.832 41.5247 23.3268 41.043 23.8477C40.5742 24.3685 40.112 24.9089 39.6562 25.4688C39.2005 26.0156 38.7904 26.569 38.4258 27.1289C38.0612 27.6888 37.7617 28.2422 37.5273 28.7891C37.306 29.3359 37.1888 29.8633 37.1758 30.3711C37.1628 30.8919 37.306 31.3151 37.6055 31.6406C37.918 31.9531 38.2956 32.181 38.7383 32.3242C39.194 32.4674 39.6758 32.526 40.1836 32.5C40.7044 32.474 41.1732 32.3698 41.5898 32.1875C42.9701 31.6536 44.3242 31.0091 45.6523 30.2539C46.9935 29.4987 48.3151 28.6393 49.6172 27.6758C49.8125 26.7773 50.112 25.8008 50.5156 24.7461C50.9193 23.6784 51.3945 22.5846 51.9414 21.4648C52.4883 20.332 53.1003 19.1992 53.7773 18.0664C54.4544 16.9206 55.1641 15.8203 55.9062 14.7656C56.6484 13.6979 57.4036 12.7018 58.1719 11.7773C58.9531 10.8398 59.7214 10.0195 60.4766 9.31641C61.2448 8.61328 61.9805 8.04688 62.6836 7.61719C63.3997 7.1875 64.0638 6.9401 64.6758 6.875C65.0794 6.96615 65.3594 7.16146 65.5156 7.46094C65.6719 7.7474 65.7435 8.08594 65.7305 8.47656C65.7305 8.86719 65.6654 9.29036 65.5352 9.74609C65.418 10.2018 65.2747 10.638 65.1055 11.0547C64.9362 11.4583 64.7669 11.8229 64.5977 12.1484C64.4284 12.474 64.3047 12.7083 64.2266 12.8516C63.7318 13.6979 63.1068 14.6354 62.3516 15.6641C61.5964 16.6797 60.7435 17.7474 59.793 18.8672C58.8424 19.974 57.8073 21.1003 56.6875 22.2461C55.5807 23.3789 54.4284 24.4727 53.2305 25.5273C53.0872 25.957 52.957 26.4062 52.8398 26.875C52.7357 27.3307 52.638 27.7799 52.5469 28.2227C52.4688 28.6523 52.3971 29.0755 52.332 29.4922C52.2799 29.8958 52.2409 30.2604 52.2148 30.5859C52.1758 30.9245 52.1432 31.2435 52.1172 31.543C52.0911 31.8294 52.1042 32.0768 52.1562 32.2852C52.2083 32.4935 52.3125 32.6367 52.4688 32.7148C52.625 32.806 52.8529 32.7995 53.1523 32.6953C53.4388 32.6042 53.7188 32.4023 53.9922 32.0898C54.2786 31.7773 54.5456 31.3477 54.793 30.8008L54.9492 30.6641H54.9883C55.0143 30.5208 55.0339 30.3776 55.0469 30.2344C55.0599 30.0781 55.0729 29.9219 55.0859 29.7656L55.9258 29.5703ZM35.1836 6.64062C33.7253 7.44792 32.4232 8.39844 31.2773 9.49219C30.1445 10.5729 29.194 11.6667 28.4258 12.7734C27.7617 13.9974 27.4232 15.0521 27.4102 15.9375C27.4102 16.8229 27.6185 17.513 28.0352 18.0078C28.3346 18.3594 28.7057 18.6133 29.1484 18.7695C29.5911 18.9258 30.099 19.0104 30.6719 19.0234C31.7266 19.0365 32.7487 18.8216 33.7383 18.3789C34.7409 17.9362 35.6849 17.3503 36.5703 16.6211C37.4557 15.8919 38.276 15.0716 39.0312 14.1602C39.7865 13.2357 40.457 12.3112 41.043 11.3867C41.6289 10.4622 42.1107 9.57031 42.4883 8.71094C42.8789 7.85156 43.1458 7.1224 43.2891 6.52344C43.3542 6.26302 43.4062 6.0026 43.4453 5.74219C43.4844 5.48177 43.5169 5.22786 43.543 4.98047C42.8529 4.8763 42.1432 4.84375 41.4141 4.88281C40.6849 4.90885 39.9622 4.99349 39.2461 5.13672C38.5299 5.27995 37.8268 5.48177 37.1367 5.74219C36.4596 6.0026 35.8086 6.30208 35.1836 6.64062ZM63.3672 8.49609C62.7682 8.97786 62.1562 9.58333 61.5312 10.3125C60.9193 11.0417 60.3073 11.849 59.6953 12.7344C59.0833 13.6198 58.4844 14.5573 57.8984 15.5469C57.3125 16.5365 56.7591 17.5391 56.2383 18.5547C55.7174 19.5573 55.2357 20.5534 54.793 21.543C54.3503 22.5195 53.9661 23.444 53.6406 24.3164C54.0443 23.9518 54.4414 23.5807 54.832 23.2031C55.2227 22.8125 55.6068 22.4154 55.9844 22.0117C56.4922 21.4779 57.0456 20.8919 57.6445 20.2539C58.2435 19.6159 58.849 18.9518 59.4609 18.2617C60.0859 17.5586 60.6914 16.8294 61.2773 16.0742C61.8763 15.319 62.4232 14.5573 62.918 13.7891C63.4258 13.0208 63.862 12.2526 64.2266 11.4844C64.5911 10.7031 64.8516 9.9349 65.0078 9.17969C65.0729 8.84115 65.0599 8.55469 64.9688 8.32031C64.8906 8.08594 64.7214 7.92969 64.4609 7.85156C64.2656 7.91667 64.0703 8.02083 63.875 8.16406C63.6927 8.29427 63.5234 8.40495 63.3672 8.49609ZM64.9297 6.85547C64.9427 6.85547 64.9232 6.85547 64.8711 6.85547C64.819 6.84245 64.7539 6.83594 64.6758 6.83594C64.6107 6.83594 64.5521 6.83594 64.5 6.83594C64.4479 6.83594 64.4284 6.83594 64.4414 6.83594C64.4805 6.84896 64.5195 6.85547 64.5586 6.85547C64.5977 6.85547 64.6367 6.86198 64.6758 6.875C64.7148 6.875 64.7539 6.875 64.793 6.875C64.8451 6.86198 64.8906 6.85547 64.9297 6.85547Z" fill="#212844"/>
<path d="M64.6367 20.957C65.2878 20.5013 65.8672 20.2734 66.375 20.2734C66.6224 20.2734 66.8242 20.3776 66.9805 20.5859C67.1497 20.7812 67.2539 21.0612 67.293 21.4258C67.3451 21.7904 67.332 22.2331 67.2539 22.7539C67.1758 23.2747 67.026 23.8542 66.8047 24.4922C67.7943 24.4531 69.0443 23.8281 70.5547 22.6172L70.8867 23.0664C69.8581 23.8607 69.0247 24.388 68.3867 24.6484C67.7747 24.8958 67.2018 25.0195 66.668 25.0195H66.5898C66.4857 25.306 66.362 25.5924 66.2188 25.8789C66.0755 26.1654 65.9128 26.4583 65.7305 26.7578C64.819 28.3854 63.8099 29.694 62.7031 30.6836C61.6224 31.6471 60.7109 32.1289 59.9688 32.1289C59.3828 32.1289 58.9466 31.862 58.6602 31.3281C58.3607 30.7943 58.2109 30.1367 58.2109 29.3555C58.2109 28.3659 58.5365 27.2917 59.1875 26.1328C59.8385 25 60.418 23.9779 60.9258 23.0664C61.4336 22.1419 61.9023 21.2956 62.332 20.5273C62.7747 19.7591 63.1914 19.043 63.582 18.3789C63.9857 17.7018 64.3958 17.0443 64.8125 16.4062C65.3724 15.5469 65.9583 14.7201 66.5703 13.9258C67.1823 13.1185 67.8008 12.4089 68.4258 11.7969C69.0638 11.1849 69.6888 10.7161 70.3008 10.3906C70.9128 10.0521 71.4987 9.92188 72.0586 10C72.4883 10.0651 72.7552 10.3125 72.8594 10.7422C72.9635 11.1719 72.9505 11.6667 72.8203 12.2266C72.7161 12.6432 72.5208 13.112 72.2344 13.6328C71.9609 14.1406 71.6159 14.6745 71.1992 15.2344C70.7826 15.7943 70.3073 16.3542 69.7734 16.9141C69.2526 17.474 68.7057 18.0143 68.1328 18.5352C67.5599 19.043 66.974 19.5052 66.375 19.9219C65.776 20.3385 65.1966 20.6836 64.6367 20.957ZM65.1836 26.5625C65.3529 26.263 65.5091 25.9766 65.6523 25.7031C65.7956 25.4167 65.9193 25.1432 66.0234 24.8828C65.7109 24.7266 65.4961 24.4792 65.3789 24.1406C65.2617 23.7891 65.2227 23.4505 65.2617 23.125C65.3008 22.7474 65.4896 22.3568 65.8281 21.9531C66.1406 21.5625 66.4792 21.3346 66.8438 21.2695C66.7396 20.8789 66.5768 20.6836 66.3555 20.6836C66.2383 20.6836 66.082 20.7227 65.8867 20.8008C65.7044 20.8789 65.5026 20.9896 65.2812 21.1328C65.0599 21.263 64.8255 21.4193 64.5781 21.6016C64.3438 21.7839 64.1159 21.9792 63.8945 22.1875C63.8294 22.3177 63.7318 22.4805 63.6016 22.6758C63.4844 22.8711 63.3411 23.1055 63.1719 23.3789C63.0026 23.6393 62.8529 23.8672 62.7227 24.0625C62.6055 24.2578 62.5143 24.4076 62.4492 24.5117C62.306 24.7461 62.1497 25 61.9805 25.2734C61.8112 25.5469 61.6289 25.8333 61.4336 26.1328C61.1732 26.6406 60.9388 27.1419 60.7305 27.6367C60.5352 28.1185 60.3594 28.5807 60.2031 29.0234C60.0599 29.4531 59.9492 29.8568 59.8711 30.2344C59.793 30.612 59.7539 30.9375 59.7539 31.2109C59.7539 31.4844 59.8255 31.6211 59.9688 31.6211C60.5677 31.6211 61.388 31.1328 62.4297 30.1562C63.4974 29.1667 64.4154 27.9688 65.1836 26.5625ZM64.3633 20.6445C65.0013 20.2409 65.6523 19.7721 66.3164 19.2383C66.9805 18.7044 67.6185 18.138 68.2305 17.5391C68.8555 16.9401 69.4284 16.3216 69.9492 15.6836C70.4701 15.0326 70.8932 14.3945 71.2188 13.7695C71.5573 13.1315 71.7852 12.513 71.9023 11.9141C72.0195 11.3151 71.9805 10.7617 71.7852 10.2539C71.4727 10.1758 71.1471 10.2474 70.8086 10.4688C70.4701 10.6901 70.125 11.0156 69.7734 11.4453C69.4349 11.862 69.0898 12.3503 68.7383 12.9102C68.3997 13.457 68.0677 14.0169 67.7422 14.5898C67.4297 15.1628 67.1302 15.7161 66.8438 16.25C66.5703 16.7708 66.3229 17.2135 66.1016 17.5781C65.776 18.1641 65.4701 18.6979 65.1836 19.1797C64.8971 19.6484 64.6237 20.1367 64.3633 20.6445Z" fill="#212844"/>
<path d="M69.4805 31.6211C70.7826 31.6211 72.8333 29.7917 75.6328 26.1328H76.2383C75.6263 26.9401 75.0339 27.6758 74.4609 28.3398C73.901 28.9909 73.3086 29.6159 72.6836 30.2148C72.0716 30.8138 71.4792 31.2826 70.9062 31.6211C70.3333 31.9596 69.819 32.1289 69.3633 32.1289C68.6732 32.1289 68.0872 31.8815 67.6055 31.3867C67.1367 30.8919 66.9023 30.1432 66.9023 29.1406C66.9023 28.2682 67.1628 27.3047 67.6836 26.25C68.2044 25.1823 68.849 24.2122 69.6172 23.3398C70.3984 22.4674 71.2643 21.7383 72.2148 21.1523C73.1654 20.5664 74.0443 20.2734 74.8516 20.2734C74.9948 20.2734 75.138 20.2995 75.2812 20.3516C75.4375 20.4036 75.5938 20.4948 75.75 20.625C75.9062 20.7422 76.0299 20.931 76.1211 21.1914C76.2253 21.4388 76.2773 21.7513 76.2773 22.1289C76.2773 22.9883 75.9258 23.8151 75.2227 24.6094C74.5195 25.4036 73.6797 25.9831 72.7031 26.3477C71.7266 26.6992 70.8672 26.7383 70.125 26.4648C69.2135 28.1445 68.7578 29.4466 68.7578 30.3711C68.7578 31.2044 68.9987 31.6211 69.4805 31.6211ZM74.7344 20.6836C74.3828 20.6836 73.7383 21.2565 72.8008 22.4023C71.8763 23.5482 71.0299 24.8112 70.2617 26.1914C70.7435 26.2695 71.2318 26.1914 71.7266 25.957C72.2344 25.7227 72.6771 25.4036 73.0547 25C73.4453 24.5833 73.7904 24.1341 74.0898 23.6523C74.4023 23.1576 74.6367 22.6823 74.793 22.2266C74.9622 21.7708 75.0469 21.3932 75.0469 21.0938C75.0469 20.8203 74.9427 20.6836 74.7344 20.6836Z" fill="#212844"/>
<path d="M91.2578 26.1328H91.8438C91.5833 26.5495 91.3099 26.9596 91.0234 27.3633C90.737 27.7669 90.3529 28.2747 89.8711 28.8867C89.3893 29.4987 88.9336 30.0326 88.5039 30.4883C88.0872 30.931 87.638 31.3151 87.1562 31.6406C86.6875 31.9661 86.2708 32.1289 85.9062 32.1289C85.7891 32.1289 85.6589 32.1159 85.5156 32.0898C85.3854 32.0508 85.2357 31.9792 85.0664 31.875C84.8971 31.7708 84.7474 31.6341 84.6172 31.4648C84.487 31.2956 84.3763 31.0547 84.2852 30.7422C84.194 30.4297 84.1484 30.0651 84.1484 29.6484C84.1484 29.2188 84.3242 28.6784 84.6758 28.0273C85.0273 27.3763 85.4505 26.7253 85.9453 26.0742C86.4401 25.4102 86.9284 24.7721 87.4102 24.1602C87.9049 23.5352 88.3281 22.9622 88.6797 22.4414C89.0312 21.9206 89.207 21.543 89.207 21.3086C89.207 21.0352 89.1029 20.8984 88.8945 20.8984C88.6081 20.8984 88.2174 21.1003 87.7227 21.5039C87.2279 21.8945 86.7201 22.3893 86.1992 22.9883C85.6784 23.5742 85.099 24.2839 84.4609 25.1172C83.8229 25.9375 83.25 26.6927 82.7422 27.3828C82.2474 28.0729 81.7396 28.7956 81.2188 29.5508C80.5547 30.5924 79.9948 31.4193 79.5391 32.0312H77.4297C77.651 31.6406 78.3281 30.5729 79.4609 28.8281C80.5938 27.0833 81.5638 25.5078 82.3711 24.1016C83.1784 22.6823 83.582 21.7513 83.582 21.3086C83.582 21.0352 83.4974 20.8984 83.3281 20.8984C83.1068 20.8984 82.7682 21.0938 82.3125 21.4844C81.8698 21.862 81.4141 22.3112 80.9453 22.832C80.4766 23.3529 79.9557 23.9779 79.3828 24.707C78.8099 25.4232 78.3346 26.0286 77.957 26.5234C77.5924 27.0052 77.2279 27.4935 76.8633 27.9883L74.4805 32.0312H72.1953L73.9922 29.2773L75.6133 26.1719L79.1875 20.3711H81.4336C81.3815 20.4622 81.2448 20.6771 81.0234 21.0156C80.8151 21.3542 80.5742 21.7383 80.3008 22.168C80.0404 22.5977 79.8581 22.8971 79.7539 23.0664C79.3372 23.7435 79.0182 24.2513 78.7969 24.5898C80.9453 21.7122 82.5599 20.2734 83.6406 20.2734C84.0312 20.2734 84.3568 20.4102 84.6172 20.6836C84.8906 20.944 85.0273 21.3542 85.0273 21.9141C85.0273 22.526 84.5911 23.6523 83.7188 25.293C86.0495 21.9466 87.8789 20.2734 89.207 20.2734C89.6237 20.2734 89.9688 20.4036 90.2422 20.6641C90.5156 20.9245 90.6523 21.3411 90.6523 21.9141C90.6523 22.3958 90.4701 22.9818 90.1055 23.6719C89.7539 24.362 89.3242 25.0521 88.8164 25.7422C88.3216 26.4323 87.8203 27.1094 87.3125 27.7734C86.8047 28.4375 86.375 29.0625 86.0234 29.6484C85.6719 30.2214 85.4961 30.6706 85.4961 30.9961C85.4961 31.4128 85.6328 31.6211 85.9062 31.6211C86.1797 31.6211 86.5117 31.4844 86.9023 31.2109C87.306 30.9245 87.6966 30.5859 88.0742 30.1953C88.4518 29.7917 88.8555 29.3229 89.2852 28.7891C89.7279 28.2552 90.0924 27.7865 90.3789 27.3828C90.6784 26.9661 90.9714 26.5495 91.2578 26.1328Z" fill="#212844"/>
<path d="M106.316 26.1914C105.939 26.7122 105.574 27.2135 105.223 27.6953C104.871 28.1641 104.526 28.6068 104.188 29.0234C103.849 29.4401 103.504 29.8307 103.152 30.1953C102.814 30.5599 102.475 30.9049 102.137 31.2305C101.46 31.8685 100.939 32.1875 100.574 32.1875C100.366 32.1875 100.164 32.1289 99.9688 32.0117C99.7734 31.8815 99.5977 31.6992 99.4414 31.4648C99.2852 31.2305 99.1615 30.944 99.0703 30.6055C98.9792 30.2539 98.9336 29.8503 98.9336 29.3945C98.9336 28.9648 99.0964 28.3789 99.4219 27.6367C99.7474 26.8815 100.138 26.1003 100.594 25.293C100.698 25.1237 100.789 24.9609 100.867 24.8047C100.958 24.6354 101.056 24.4727 101.16 24.3164C100.809 24.5768 100.431 24.7982 100.027 24.9805C99.6237 25.1628 99.194 25.2799 98.7383 25.332C98.8424 25.8138 98.8164 26.3737 98.6602 27.0117C98.4779 27.7669 98.1719 28.4635 97.7422 29.1016C97.3255 29.7396 96.8307 30.293 96.2578 30.7617C95.6849 31.2174 95.0664 31.582 94.4023 31.8555C93.7383 32.1159 93.0807 32.2461 92.4297 32.2461C91.9479 32.2982 91.5638 32.2461 91.2773 32.0898C90.9909 31.9336 90.7695 31.7122 90.6133 31.4258C90.457 31.1393 90.3659 30.8138 90.3398 30.4492C90.3008 30.0716 90.3008 29.7005 90.3398 29.3359C90.3789 28.9583 90.4505 28.6003 90.5547 28.2617C90.6458 27.9232 90.7435 27.6432 90.8477 27.4219C91.4076 26.0156 92.0326 24.7461 92.7227 23.6133C93.4128 22.4674 94.0703 21.3867 94.6953 20.3711H97C96.9479 20.4362 96.707 20.8268 96.2773 21.543C95.8477 22.2461 95.2357 23.3268 94.4414 24.7852C94.8971 24.3815 95.3398 24.0885 95.7695 23.9062C96.2122 23.724 96.6159 23.6458 96.9805 23.6719C97.3581 23.6849 97.6836 23.7956 97.957 24.0039C98.2435 24.1992 98.4583 24.4727 98.6016 24.8242C99.2396 24.7982 99.8516 24.6029 100.438 24.2383C101.023 23.8607 101.538 23.4505 101.98 23.0078C102.202 22.6302 102.417 22.2917 102.625 21.9922C102.833 21.6797 103.022 21.3997 103.191 21.1523L103.68 20.4297H106.16C106.082 20.5469 105.991 20.6836 105.887 20.8398C105.783 20.9961 105.665 21.1654 105.535 21.3477C105.405 21.5299 105.223 21.8034 104.988 22.168C104.767 22.5195 104.487 22.9557 104.148 23.4766C103.81 23.9974 103.497 24.4922 103.211 24.9609C102.924 25.4297 102.651 25.8854 102.391 26.3281C102.13 26.7708 101.883 27.2201 101.648 27.6758C101.427 28.1185 101.212 28.5677 101.004 29.0234C100.587 29.9609 100.379 30.638 100.379 31.0547C100.379 31.3932 100.516 31.5625 100.789 31.5625C101.128 31.5625 101.753 31.0482 102.664 30.0195C103.602 28.9648 104.624 27.6888 105.73 26.1914H106.316ZM93.2109 27.1289C93.0026 27.5326 92.8008 28.0143 92.6055 28.5742C92.4102 29.1211 92.2669 29.6419 92.1758 30.1367C92.0977 30.6315 92.0977 31.0417 92.1758 31.3672C92.2539 31.6927 92.4622 31.8359 92.8008 31.7969C93.1523 31.7578 93.5104 31.5885 93.875 31.2891C94.2526 30.9766 94.6107 30.5924 94.9492 30.1367C95.3008 29.681 95.6198 29.1797 95.9062 28.6328C96.2057 28.0729 96.4531 27.5195 96.6484 26.9727C96.7526 26.6992 96.8503 26.3737 96.9414 25.9961C97.0456 25.6055 97.0977 25.2669 97.0977 24.9805C97.0846 24.6419 96.9805 24.4206 96.7852 24.3164C96.5898 24.1992 96.3359 24.1797 96.0234 24.2578C95.724 24.3359 95.3919 24.4987 95.0273 24.7461C94.6758 24.9935 94.3242 25.306 93.9727 25.6836C93.8424 25.9049 93.7122 26.1393 93.582 26.3867C93.4648 26.6211 93.3411 26.8685 93.2109 27.1289Z" fill="#212844"/>
<path d="M125.375 28.2039C124.142 28.2039 122.6 27.8122 120.75 27.0289C119.45 26.4789 118.425 26.0872 117.675 25.8539C116.942 25.6039 116.183 25.4789 115.4 25.4789C114.5 25.4789 113.65 25.6706 112.85 26.0539C112.067 26.4206 111.258 26.8789 110.425 27.4289C110.358 27.4789 110.3 27.5039 110.25 27.5039C110.2 27.5039 110.142 27.4789 110.075 27.4289C110.025 27.3789 110 27.3372 110 27.3039C110 27.2706 110.017 27.2289 110.05 27.1789C110.6 26.4289 111.4 25.7206 112.45 25.0539C113.517 24.3706 114.733 24.0289 116.1 24.0289C117.35 24.0289 118.9 24.4206 120.75 25.2039L121.3 25.4289C122.433 25.8956 123.333 26.2372 124 26.4539C124.667 26.6706 125.358 26.7789 126.075 26.7789C126.975 26.7789 127.817 26.5956 128.6 26.2289C129.383 25.8456 130.2 25.3706 131.05 24.8039C131.133 24.7539 131.192 24.7289 131.225 24.7289C131.275 24.7289 131.325 24.7539 131.375 24.8039C131.442 24.8539 131.475 24.8956 131.475 24.9289C131.475 24.9622 131.458 25.0039 131.425 25.0539C130.875 25.8039 130.067 26.5206 129 27.2039C127.95 27.8706 126.742 28.2039 125.375 28.2039Z" fill="#212844"/>
</svg>
