<svg width="210" height="46" viewBox="0 0 210 46" fill="none" xmlns="http://www.w3.org/2000/svg">
<path d="M15.375 29.1455C14.1417 29.1455 12.6 28.7539 10.75 27.9705C9.45 27.4205 8.425 27.0289 7.675 26.7955C6.94167 26.5455 6.18333 26.4205 5.4 26.4205C4.5 26.4205 3.65 26.6122 2.85 26.9955C2.06667 27.3622 1.25833 27.8205 0.425 28.3705C0.358333 28.4205 0.3 28.4455 0.25 28.4455C0.2 28.4455 0.141667 28.4205 0.0750002 28.3705C0.0250001 28.3205 0 28.2789 0 28.2455C0 28.2122 0.0166667 28.1705 0.0500001 28.1205C0.6 27.3705 1.4 26.6622 2.45 25.9955C3.51667 25.3122 4.73333 24.9705 6.1 24.9705C7.35 24.9705 8.9 25.3622 10.75 26.1455L11.3 26.3705C12.4333 26.8372 13.3333 27.1789 14 27.3955C14.6667 27.6122 15.3583 27.7205 16.075 27.7205C16.975 27.7205 17.8167 27.5372 18.6 27.1705C19.3833 26.7872 20.2 26.3122 21.05 25.7455C21.1333 25.6955 21.1917 25.6705 21.225 25.6705C21.275 25.6705 21.325 25.6955 21.375 25.7455C21.4417 25.7955 21.475 25.8372 21.475 25.8705C21.475 25.9039 21.4583 25.9455 21.425 25.9955C20.875 26.7455 20.0667 27.4622 19 28.1455C17.95 28.8122 16.7417 29.1455 15.375 29.1455Z" fill="#212844"/>
<path d="M48.6172 7.21114C49.151 8.01843 49.4831 8.83875 49.6133 9.67208C49.7435 10.5054 49.7109 11.3713 49.5156 12.2697C49.3333 13.1682 49.0013 14.1122 48.5195 15.1018C48.0508 16.0783 47.4844 17.12 46.8203 18.2268C46.4948 18.7606 46.1628 19.314 45.8242 19.8869C45.4987 20.4598 45.1992 21.0197 44.9258 21.5666C44.6654 22.1005 44.457 22.6083 44.3008 23.09C44.1445 23.5588 44.0859 23.9624 44.125 24.301C44.1771 24.8348 44.3984 25.1929 44.7891 25.3752C45.1927 25.5445 45.7331 25.538 46.4102 25.3557C47.1003 25.1734 47.9206 24.8088 48.8711 24.2619C49.8346 23.715 50.9089 22.9794 52.0938 22.0549C52.6667 20.883 53.2982 19.7046 53.9883 18.5197C54.6914 17.3348 55.4206 16.1955 56.1758 15.1018C56.931 14.008 57.7057 12.9859 58.5 12.0354C59.2943 11.0718 60.0755 10.232 60.8438 9.51583C61.625 8.78666 62.3737 8.20073 63.0898 7.75802C63.819 7.31531 64.4961 7.06791 65.1211 7.01583C65.5117 7.10698 65.7656 7.26323 65.8828 7.48458C66 7.69291 66.0195 7.94682 65.9414 8.2463C65.8763 8.53276 65.7396 8.84526 65.5312 9.1838C65.3359 9.50932 65.1211 9.82833 64.8867 10.1408C64.6523 10.4533 64.431 10.7463 64.2227 11.0197C64.0143 11.2802 63.8646 11.4885 63.7734 11.6447C63.4219 12.0484 62.9792 12.5562 62.4453 13.1682C61.9115 13.7802 61.2995 14.4572 60.6094 15.1994C59.9323 15.9416 59.1901 16.7229 58.3828 17.5432C57.5885 18.3635 56.7552 19.1773 55.8828 19.9846C54.9453 21.9768 54.1706 23.9755 53.5586 25.9807C52.9466 27.9859 52.5104 29.9455 52.25 31.8596C52.1979 32.2111 52.1589 32.5432 52.1328 32.8557C52.1198 33.1682 52.1393 33.4286 52.1914 33.6369C52.2435 33.8583 52.3477 34.008 52.5039 34.0861C52.6602 34.1773 52.8945 34.1708 53.207 34.0666C53.5065 33.9755 53.7995 33.7671 54.0859 33.4416C54.3724 33.1161 54.6458 32.6669 54.9062 32.094L55.0625 31.9377C55.362 31.8726 55.5182 31.9442 55.5312 32.1525C54.9453 33.6109 54.112 34.5158 53.0312 34.8674C52.4583 35.0236 51.944 35.0432 51.4883 34.926C51.0326 34.8218 50.6419 34.607 50.3164 34.2815C50.0039 33.9559 49.763 33.5523 49.5938 33.0705C49.4245 32.5887 49.3398 32.0549 49.3398 31.469C49.2878 31.0002 49.2943 30.4794 49.3594 29.9065C49.4375 29.3205 49.5612 28.6955 49.7305 28.0315C49.9128 27.3674 50.1406 26.6708 50.4141 25.9416C50.6875 25.1994 50.9935 24.4377 51.332 23.6565C50.4987 24.2294 49.6589 24.7372 48.8125 25.1799C47.9792 25.6096 47.1458 25.9481 46.3125 26.1955C45.8698 26.3257 45.4336 26.4104 45.0039 26.4494C44.5872 26.4755 44.1836 26.4494 43.793 26.3713C43.4154 26.2802 43.0638 26.1304 42.7383 25.9221C42.4258 25.7007 42.1589 25.4012 41.9375 25.0236C41.599 24.4768 41.3906 23.9234 41.3125 23.3635C41.2344 22.8036 41.2474 22.2437 41.3516 21.6838C41.4557 21.1239 41.638 20.5575 41.8984 19.9846C42.1719 19.4117 42.4844 18.8387 42.8359 18.2658C43.2005 17.6929 43.5846 17.1135 43.9883 16.5275C44.4049 15.9416 44.8086 15.3557 45.1992 14.7697C45.7331 13.9755 46.2214 13.1942 46.6641 12.426C47.1068 11.6447 47.4193 10.8895 47.6016 10.1604C47.7839 9.4312 47.7904 8.73458 47.6211 8.07052C47.4648 7.40646 47.0417 6.79448 46.3516 6.23458C46.0781 5.98718 45.7591 5.77885 45.3945 5.60958C45.0299 5.42729 44.6198 5.29708 44.1641 5.21896C44.125 5.21896 44.099 5.21245 44.0859 5.19942C44.0729 5.44682 44.0534 5.69422 44.0273 5.94161C44.0013 6.18901 43.9753 6.4364 43.9492 6.6838C43.806 7.64734 43.5326 8.66297 43.1289 9.73067C42.7253 10.7984 42.2109 11.8596 41.5859 12.9143C40.974 13.9559 40.2643 14.9585 39.457 15.9221C38.6628 16.8856 37.8034 17.7515 36.8789 18.5197C35.9674 19.2749 35.0039 19.8934 33.9883 20.3752C32.9857 20.857 31.9635 21.1369 30.9219 21.215C30.3099 21.2671 29.7435 21.215 29.2227 21.0588C28.7148 20.9025 28.3047 20.6812 27.9922 20.3947C27.5885 20.0953 27.2826 19.7307 27.0742 19.301C26.8659 18.8583 26.7357 18.3895 26.6836 17.8947C26.5924 17.1005 26.6315 16.3322 26.8008 15.59C26.9701 14.8348 27.2305 14.1122 27.582 13.4221C27.9466 12.732 28.3763 12.0744 28.8711 11.4494C29.3789 10.8244 29.9258 10.2385 30.5117 9.69161C31.0977 9.13172 31.7031 8.61088 32.3281 8.12911C32.9661 7.63432 33.5846 7.17859 34.1836 6.76192C34.7695 6.35828 35.4271 5.98718 36.1562 5.64864C36.8984 5.3101 37.6667 5.03015 38.4609 4.8088C39.2552 4.57442 40.069 4.40515 40.9023 4.30099C41.7357 4.19682 42.543 4.17729 43.3242 4.24239C43.2852 3.72156 43.181 3.2463 43.0117 2.81661C42.8424 2.38692 42.5885 2.02234 42.25 1.72286C41.9115 1.41036 41.4753 1.17599 40.9414 1.01974C40.4076 0.863487 39.763 0.798383 39.0078 0.824424H38.832V0.453331C39.1706 0.166872 39.5286 0.0171327 39.9062 0.00411184C40.6615 -0.0219298 41.2995 0.0757264 41.8203 0.297081C42.3411 0.518435 42.7578 0.830935 43.0703 1.23458C43.3958 1.62521 43.6367 2.08745 43.793 2.6213C43.9492 3.15515 44.0404 3.72156 44.0664 4.32052C44.5221 4.39864 44.9388 4.50281 45.3164 4.63302C45.9284 4.85437 46.5208 5.17989 47.0938 5.60958C47.6797 6.02625 48.1875 6.5601 48.6172 7.21114ZM34.8281 7.19161C33.3828 8.11609 32.0938 9.17078 30.9609 10.3557C29.8411 11.5275 28.9167 12.719 28.1875 13.9299C27.5755 15.245 27.2891 16.3713 27.3281 17.3088C27.3672 18.2333 27.6081 18.9364 28.0508 19.4182C28.3893 19.7958 28.793 20.0562 29.2617 20.1994C29.7435 20.3427 30.2773 20.4012 30.8633 20.3752C31.944 20.3492 32.9792 20.0822 33.9688 19.5744C34.9714 19.0536 35.9089 18.396 36.7812 17.6018C37.6536 16.7945 38.4544 15.896 39.1836 14.9065C39.9128 13.9169 40.5508 12.9208 41.0977 11.9182C41.6576 10.9156 42.1133 9.95854 42.4648 9.04708C42.8164 8.1226 43.0508 7.34135 43.168 6.70333C43.2591 6.15646 43.3177 5.6226 43.3438 5.10177C42.6276 5.02364 41.8984 5.01713 41.1562 5.08224C40.4141 5.14734 39.6719 5.27104 38.9297 5.45333C38.2005 5.63562 37.4909 5.87651 36.8008 6.17599C36.1107 6.47547 35.4531 6.81401 34.8281 7.19161ZM64.2812 9.71114C64.4766 9.47677 64.6523 9.25541 64.8086 9.04708C64.9648 8.82573 65.082 8.63041 65.1602 8.46114C65.2383 8.27885 65.2578 8.13562 65.2188 8.03146C65.1797 7.92729 65.0625 7.87521 64.8672 7.87521C64.4375 7.88823 63.9883 8.0575 63.5195 8.38302C63.0508 8.69552 62.5755 9.1187 62.0938 9.65255C61.612 10.1734 61.1302 10.7723 60.6484 11.4494C60.1797 12.1265 59.724 12.8296 59.2812 13.5588C58.8516 14.288 58.4349 15.0171 58.0312 15.7463C57.6406 16.4755 57.2826 17.1525 56.957 17.7775C58.1029 16.6708 59.2812 15.4533 60.4922 14.1252C61.7161 12.7841 62.9792 11.3127 64.2812 9.71114ZM65.375 6.9963C65.388 6.9963 65.362 6.9963 65.2969 6.9963C65.2448 6.98328 65.1862 6.97677 65.1211 6.97677C65.056 6.97677 64.9909 6.97677 64.9258 6.97677C64.8737 6.97677 64.8542 6.97677 64.8672 6.97677C64.9193 6.98979 64.9648 6.9963 65.0039 6.9963C65.043 6.9963 65.082 7.00281 65.1211 7.01583C65.1602 7.01583 65.1992 7.01583 65.2383 7.01583C65.2904 7.00281 65.3359 6.9963 65.375 6.9963Z" fill="#212844"/>
<path d="M74.7109 27.0744H75.2969C75.0365 27.4911 74.763 27.9012 74.4766 28.3049C74.1901 28.7085 73.806 29.2164 73.3242 29.8283C72.8424 30.4403 72.3867 30.9742 71.957 31.4299C71.5404 31.8726 71.0911 32.2567 70.6094 32.5822C70.1406 32.9078 69.724 33.0705 69.3594 33.0705C69.2422 33.0705 69.112 33.0575 68.9688 33.0315C68.8385 32.9924 68.6888 32.9208 68.5195 32.8166C68.3503 32.7124 68.2005 32.5757 68.0703 32.4065C67.9401 32.2372 67.8294 31.9963 67.7383 31.6838C67.6471 31.3713 67.6016 31.0067 67.6016 30.59C67.6016 30.1604 67.7773 29.62 68.1289 28.969C68.4805 28.3179 68.9036 27.6669 69.3984 27.0158C69.8932 26.3518 70.3815 25.7137 70.8633 25.1018C71.3581 24.4768 71.7812 23.9039 72.1328 23.383C72.4844 22.8622 72.6602 22.4846 72.6602 22.2502C72.6602 21.9768 72.556 21.84 72.3477 21.84C72.0612 21.84 71.6706 22.0419 71.1758 22.4455C70.681 22.8361 70.1732 23.3309 69.6523 23.9299C69.1315 24.5158 68.5521 25.2255 67.9141 26.0588C67.276 26.8791 66.7031 27.6343 66.1953 28.3244C65.7005 29.0145 65.1927 29.7372 64.6719 30.4924C64.0078 31.5341 63.4479 32.3609 62.9922 32.9729H60.8828C61.1042 32.5822 61.7812 31.5145 62.9141 29.7697C64.0469 28.0249 65.0169 26.4494 65.8242 25.0432C66.6315 23.6239 67.0352 22.6929 67.0352 22.2502C67.0352 21.9768 66.9505 21.84 66.7812 21.84C66.5599 21.84 66.2214 22.0354 65.7656 22.426C65.3229 22.8036 64.8672 23.2528 64.3984 23.7736C63.9297 24.2945 63.4089 24.9195 62.8359 25.6486C62.263 26.3648 61.7878 26.9703 61.4102 27.465C61.0456 27.9468 60.681 28.4351 60.3164 28.9299L57.9336 32.9729H55.6484L57.4453 30.219L59.0664 27.1135L62.6406 21.3127H64.8867C64.8346 21.4039 64.6979 21.6187 64.4766 21.9572C64.2682 22.2958 64.0273 22.6799 63.7539 23.1096C63.4935 23.5393 63.3112 23.8387 63.207 24.008C62.7904 24.6851 62.4714 25.1929 62.25 25.5315C64.3984 22.6539 66.013 21.215 67.0938 21.215C67.4844 21.215 67.8099 21.3518 68.0703 21.6252C68.3438 21.8856 68.4805 22.2958 68.4805 22.8557C68.4805 23.4677 68.0443 24.594 67.1719 26.2346C69.5026 22.8882 71.332 21.215 72.6602 21.215C73.0768 21.215 73.4219 21.3453 73.6953 21.6057C73.9688 21.8661 74.1055 22.2828 74.1055 22.8557C74.1055 23.3374 73.9232 23.9234 73.5586 24.6135C73.207 25.3036 72.7773 25.9937 72.2695 26.6838C71.7747 27.3739 71.2734 28.051 70.7656 28.715C70.2578 29.3791 69.8281 30.0041 69.4766 30.59C69.125 31.163 68.9492 31.6122 68.9492 31.9377C68.9492 32.3544 69.0859 32.5627 69.3594 32.5627C69.6328 32.5627 69.9648 32.426 70.3555 32.1525C70.7591 31.8661 71.1497 31.5275 71.5273 31.1369C71.9049 30.7333 72.3086 30.2645 72.7383 29.7307C73.181 29.1968 73.5456 28.7281 73.832 28.3244C74.1315 27.9078 74.4245 27.4911 74.7109 27.0744Z" fill="#212844"/>
<path d="M85.668 23.5588L86 24.008C85.362 24.5549 84.8216 24.965 84.3789 25.2385C83.9492 25.4989 83.5651 25.6812 83.2266 25.7854C83.0703 25.8244 82.9531 25.857 82.875 25.883C82.7969 25.9091 82.6862 25.9286 82.543 25.9416C82.4779 25.9546 82.4193 25.9611 82.3672 25.9611C82.3281 25.9611 82.2956 25.9611 82.2695 25.9611H81.7227C81.6055 26.2476 81.4753 26.5341 81.332 26.8205C81.1888 27.107 81.0326 27.3999 80.8633 27.6994C79.9518 29.327 78.9427 30.6356 77.8359 31.6252C76.7552 32.5887 75.8372 33.0705 75.082 33.0705C74.4961 33.0705 74.0599 32.8036 73.7734 32.2697C73.474 31.7359 73.3242 31.0718 73.3242 30.2775C73.3242 29.913 73.3763 29.5223 73.4805 29.1057C73.5846 28.689 73.7344 28.2723 73.9297 27.8557C74.125 27.426 74.3529 27.0028 74.6133 26.5861C74.8867 26.1695 75.1797 25.7723 75.4922 25.3947C75.9479 24.8218 76.4492 24.2815 76.9961 23.7736C77.543 23.2658 78.0898 22.8231 78.6367 22.4455C79.1836 22.0549 79.7044 21.7489 80.1992 21.5275C80.694 21.3062 81.1237 21.202 81.4883 21.215C81.7357 21.215 81.9375 21.3192 82.0938 21.5275C82.263 21.7229 82.3737 22.0028 82.4258 22.3674C82.4779 22.732 82.4648 23.1747 82.3867 23.6955C82.3086 24.2164 82.1523 24.7958 81.918 25.4338C82.9076 25.3947 84.1576 24.7697 85.668 23.5588ZM80.3164 27.5041C80.4987 27.1786 80.6549 26.8791 80.7852 26.6057C80.9284 26.3192 81.0521 26.0588 81.1562 25.8244C80.8307 25.6682 80.6094 25.4208 80.4922 25.0822C80.375 24.7307 80.3359 24.3921 80.375 24.0666C80.4141 23.689 80.6029 23.2984 80.9414 22.8947C81.2799 22.5041 81.6185 22.2762 81.957 22.2111C81.8529 21.8205 81.6966 21.6252 81.4883 21.6252C80.8893 21.6252 80.1862 22.0484 79.3789 22.8947C78.5716 23.7411 77.849 24.7372 77.2109 25.883C76.8854 26.4559 76.5794 27.0354 76.293 27.6213C76.0195 28.1942 75.7721 28.7802 75.5508 29.3791C75.0951 30.59 74.8672 31.5145 74.8672 32.1525C74.8672 32.426 74.9388 32.5627 75.082 32.5627C75.694 32.5627 76.5208 32.0744 77.5625 31.0979C78.6042 30.1083 79.5221 28.9104 80.3164 27.5041Z" fill="#212844"/>
<path d="M100.16 27.0744H100.746C100.473 27.4911 100.199 27.9012 99.9258 28.3049C99.6523 28.7085 99.2747 29.2164 98.793 29.8283C98.3112 30.4403 97.8555 30.9742 97.4258 31.4299C97.0091 31.8726 96.5599 32.2567 96.0781 32.5822C95.5964 32.9078 95.1797 33.0705 94.8281 33.0705C94.6979 33.0705 94.5677 33.0575 94.4375 33.0315C94.3073 32.9924 94.151 32.9208 93.9688 32.8166C93.7995 32.7124 93.6497 32.5757 93.5195 32.4065C93.4023 32.2372 93.2982 31.9963 93.207 31.6838C93.1159 31.3713 93.0703 31.0067 93.0703 30.59C93.0703 30.1604 93.2396 29.62 93.5781 28.969C93.9297 28.3179 94.3529 27.6669 94.8477 27.0158C95.3424 26.3518 95.8372 25.7137 96.332 25.1018C96.8268 24.4768 97.2435 23.9039 97.582 23.383C97.9336 22.8622 98.1094 22.4846 98.1094 22.2502C98.1094 21.9768 98.0117 21.84 97.8164 21.84C97.4128 21.84 96.8854 22.0874 96.2344 22.5822C95.5964 23.064 94.9648 23.6499 94.3398 24.34C93.7148 25.0302 93.1159 25.7268 92.543 26.4299C91.9701 27.12 91.5078 27.7059 91.1562 28.1877L90.6289 28.9299L88.2461 32.9729H85.9609L87.7578 30.219L89.3789 27.1135L92.9531 21.3127H95.1992C95.1471 21.4039 95.0104 21.6187 94.7891 21.9572C94.5807 22.2958 94.3398 22.6799 94.0664 23.1096C93.806 23.5393 93.6237 23.8387 93.5195 24.008C93.0117 24.8283 92.6081 25.4664 92.3086 25.9221C94.6393 22.7841 96.5729 21.215 98.1094 21.215C98.526 21.215 98.8711 21.3453 99.1445 21.6057C99.431 21.8661 99.5742 22.2828 99.5742 22.8557C99.5742 23.3374 99.3919 23.9234 99.0273 24.6135C98.6758 25.3036 98.2461 25.9937 97.7383 26.6838C97.2435 27.3739 96.7422 28.051 96.2344 28.715C95.7266 29.3791 95.2969 30.0041 94.9453 30.59C94.5938 31.163 94.418 31.6122 94.418 31.9377C94.418 32.3544 94.5547 32.5627 94.8281 32.5627C95.1016 32.5627 95.4336 32.426 95.8242 32.1525C96.2148 31.8661 96.599 31.5275 96.9766 31.1369C97.3672 30.7333 97.7773 30.2645 98.207 29.7307C98.6367 29.1968 99.0013 28.7281 99.3008 28.3244C99.6003 27.9078 99.8867 27.4911 100.16 27.0744Z" fill="#212844"/>
<path d="M111.098 23.5588L111.43 24.008C110.792 24.5549 110.251 24.965 109.809 25.2385C109.379 25.4989 108.995 25.6812 108.656 25.7854C108.5 25.8244 108.383 25.857 108.305 25.883C108.227 25.9091 108.116 25.9286 107.973 25.9416C107.908 25.9546 107.849 25.9611 107.797 25.9611C107.758 25.9611 107.725 25.9611 107.699 25.9611H107.152C107.035 26.2476 106.905 26.5341 106.762 26.8205C106.618 27.107 106.462 27.3999 106.293 27.6994C105.382 29.327 104.372 30.6356 103.266 31.6252C102.185 32.5887 101.267 33.0705 100.512 33.0705C99.9258 33.0705 99.4896 32.8036 99.2031 32.2697C98.9036 31.7359 98.7539 31.0718 98.7539 30.2775C98.7539 29.913 98.806 29.5223 98.9102 29.1057C99.0143 28.689 99.1641 28.2723 99.3594 27.8557C99.5547 27.426 99.7826 27.0028 100.043 26.5861C100.316 26.1695 100.609 25.7723 100.922 25.3947C101.378 24.8218 101.879 24.2815 102.426 23.7736C102.973 23.2658 103.52 22.8231 104.066 22.4455C104.613 22.0549 105.134 21.7489 105.629 21.5275C106.124 21.3062 106.553 21.202 106.918 21.215C107.165 21.215 107.367 21.3192 107.523 21.5275C107.693 21.7229 107.803 22.0028 107.855 22.3674C107.908 22.732 107.895 23.1747 107.816 23.6955C107.738 24.2164 107.582 24.7958 107.348 25.4338C108.337 25.3947 109.587 24.7697 111.098 23.5588ZM105.746 27.5041C105.928 27.1786 106.085 26.8791 106.215 26.6057C106.358 26.3192 106.482 26.0588 106.586 25.8244C106.26 25.6682 106.039 25.4208 105.922 25.0822C105.805 24.7307 105.766 24.3921 105.805 24.0666C105.844 23.689 106.033 23.2984 106.371 22.8947C106.71 22.5041 107.048 22.2762 107.387 22.2111C107.283 21.8205 107.126 21.6252 106.918 21.6252C106.319 21.6252 105.616 22.0484 104.809 22.8947C104.001 23.7411 103.279 24.7372 102.641 25.883C102.315 26.4559 102.009 27.0354 101.723 27.6213C101.449 28.1942 101.202 28.7802 100.98 29.3791C100.525 30.59 100.297 31.5145 100.297 32.1525C100.297 32.426 100.368 32.5627 100.512 32.5627C101.124 32.5627 101.951 32.0744 102.992 31.0979C104.034 30.1083 104.952 28.9104 105.746 27.5041Z" fill="#212844"/>
<path d="M111.273 34.6916C112.888 34.7567 113.93 35.3166 114.398 36.3713L114.066 36.5666C113.819 36.1109 113.467 35.7528 113.012 35.4924C112.556 35.245 111.898 35.1083 111.039 35.0822L107.504 40.9611C107.009 41.7294 106.508 42.3934 106 42.9533C105.492 43.5262 105.049 43.9494 104.672 44.2229C104.294 44.5093 103.923 44.7307 103.559 44.8869C103.181 45.0562 102.901 45.1539 102.719 45.1799C102.536 45.219 102.374 45.2385 102.23 45.2385C101.605 45.2385 101.293 44.8414 101.293 44.0471C101.293 43.3049 101.534 42.4716 102.016 41.5471C102.497 40.6356 103.109 39.7697 103.852 38.9494C104.594 38.1291 105.427 37.3674 106.352 36.6643C107.263 35.9742 108.142 35.4533 108.988 35.1018L111.527 31.0002C110.264 32.3804 109.385 33.0705 108.891 33.0705C108.305 33.0705 107.868 32.8036 107.582 32.2697C107.283 31.7359 107.133 31.0718 107.133 30.2775C107.133 29.6525 107.283 28.982 107.582 28.2658C107.868 27.5367 108.253 26.8466 108.734 26.1955C109.216 25.5315 109.757 24.8934 110.355 24.2815C110.967 23.6695 111.573 23.1421 112.172 22.6994C112.784 22.2437 113.376 21.8856 113.949 21.6252C114.535 21.3518 115.03 21.215 115.434 21.215C116.02 21.215 116.26 21.7359 116.156 22.7775L116.977 21.3127H119.32L111.273 34.6916ZM108.891 32.5432C109.229 32.5432 109.763 32.1786 110.492 31.4494C111.221 30.7072 111.938 29.8869 112.641 28.9885L112.934 28.4611L115.551 23.8713C115.603 23.6109 115.648 23.357 115.688 23.1096C115.727 22.8492 115.753 22.6018 115.766 22.3674C115.779 22.133 115.753 21.9507 115.688 21.8205C115.635 21.6773 115.551 21.6057 115.434 21.6057C114.822 21.6057 114.112 22.0289 113.305 22.8752C112.497 23.7216 111.762 24.7177 111.098 25.8635C110.434 27.0093 109.867 28.1747 109.398 29.3596C108.93 30.5445 108.695 31.469 108.695 32.133C108.695 32.4065 108.76 32.5432 108.891 32.5432ZM102.113 44.7502C102.413 44.7502 102.803 44.4963 103.285 43.9885C103.767 43.4937 104.249 42.8817 104.73 42.1525C105.199 41.4364 105.655 40.7203 106.098 40.0041C106.527 39.288 106.879 38.6825 107.152 38.1877L107.562 37.426L108.598 35.7268C107.556 36.2476 106.508 37.0223 105.453 38.051C104.385 39.0796 103.513 40.1604 102.836 41.2932C102.146 42.426 101.801 43.396 101.801 44.2033C101.801 44.5419 101.905 44.7242 102.113 44.7502Z" fill="#212844"/>
<path d="M128.52 27.0744H129.086C128.982 27.2437 128.839 27.465 128.656 27.7385C128.487 27.9989 128.155 28.4742 127.66 29.1643C127.165 29.8544 126.684 30.4664 126.215 31.0002C125.759 31.521 125.258 31.9963 124.711 32.426C124.164 32.8557 123.695 33.0705 123.305 33.0705C122.901 33.0705 122.523 32.8296 122.172 32.3479C121.833 31.8661 121.664 31.176 121.664 30.2775V30.1799C120.219 32.107 119.118 33.0705 118.363 33.0705C117.777 33.0705 117.341 32.8036 117.055 32.2697C116.755 31.7359 116.605 31.0718 116.605 30.2775C116.605 29.5354 116.807 28.7281 117.211 27.8557C117.615 26.9703 118.135 26.1499 118.773 25.3947C119.411 24.6265 120.095 23.9234 120.824 23.2854C121.553 22.6473 122.27 22.146 122.973 21.7815C123.689 21.4039 124.288 21.215 124.77 21.215C125.421 21.215 125.629 21.7554 125.395 22.8361L126.41 21.3127H128.891C128.734 21.5471 128.526 21.8531 128.266 22.2307C128.005 22.6083 127.543 23.3179 126.879 24.3596C126.215 25.3882 125.629 26.3387 125.121 27.2111C124.613 28.0835 124.151 28.982 123.734 29.9065C123.318 30.8179 123.109 31.495 123.109 31.9377C123.109 32.2762 123.246 32.4455 123.52 32.4455C123.754 32.4455 124.073 32.2762 124.477 31.9377C124.893 31.5992 125.29 31.215 125.668 30.7854C126.046 30.3557 126.456 29.8479 126.898 29.2619C127.354 28.676 127.686 28.2333 127.895 27.9338C128.116 27.6343 128.324 27.3479 128.52 27.0744ZM118.363 32.5627C119.001 32.5627 120.232 31.2932 122.055 28.7541C122.432 27.8166 123.135 26.495 124.164 24.7893C124.255 24.594 124.359 24.34 124.477 24.0275C124.607 23.702 124.73 23.357 124.848 22.9924C124.965 22.6148 125.017 22.2958 125.004 22.0354C125.004 21.7619 124.926 21.6252 124.77 21.6252C124.158 21.6252 123.454 22.0484 122.66 22.8947C121.866 23.7411 121.143 24.7372 120.492 25.883C119.841 27.0158 119.288 28.1812 118.832 29.3791C118.376 30.564 118.148 31.4885 118.148 32.1525C118.148 32.426 118.22 32.5627 118.363 32.5627Z" fill="#212844"/>
<path d="M139.242 27.0744H139.828C139.568 27.4911 139.294 27.9012 139.008 28.3049C138.721 28.7085 138.337 29.2164 137.855 29.8283C137.374 30.4403 136.918 30.9742 136.488 31.4299C136.072 31.8726 135.622 32.2567 135.141 32.5822C134.659 32.9078 134.242 33.0705 133.891 33.0705C133.76 33.0705 133.63 33.0575 133.5 33.0315C133.37 32.9924 133.214 32.9208 133.031 32.8166C132.862 32.7124 132.712 32.5757 132.582 32.4065C132.465 32.2372 132.361 31.9963 132.27 31.6838C132.178 31.3713 132.133 31.0067 132.133 30.59C132.133 30.1604 132.302 29.62 132.641 28.969C132.992 28.3179 133.415 27.6669 133.91 27.0158C134.405 26.3518 134.9 25.7137 135.395 25.1018C135.889 24.4768 136.306 23.9039 136.645 23.383C136.996 22.8622 137.172 22.4846 137.172 22.2502C137.172 21.9768 137.074 21.84 136.879 21.84C136.475 21.84 135.948 22.0874 135.297 22.5822C134.659 23.064 134.027 23.6499 133.402 24.34C132.777 25.0302 132.178 25.7268 131.605 26.4299C131.033 27.12 130.57 27.7059 130.219 28.1877L129.691 28.9299L119.535 45.2385H117.367L126.781 30.219L128.441 27.1135L132.055 21.3127H134.262L134.223 21.3713C133.767 22.1656 132.953 23.5002 131.781 25.3752C133.93 22.6018 135.727 21.215 137.172 21.215C137.589 21.215 137.934 21.3453 138.207 21.6057C138.493 21.8661 138.637 22.2828 138.637 22.8557C138.637 23.3374 138.454 23.9234 138.09 24.6135C137.738 25.3036 137.309 25.9937 136.801 26.6838C136.306 27.3739 135.805 28.051 135.297 28.715C134.789 29.3791 134.359 30.0041 134.008 30.59C133.656 31.163 133.48 31.6122 133.48 31.9377C133.48 32.3544 133.617 32.5627 133.891 32.5627C134.229 32.5627 134.646 32.3674 135.141 31.9768C135.635 31.5861 136.15 31.0718 136.684 30.4338C137.23 29.7958 137.699 29.2164 138.09 28.6955C138.493 28.1617 138.878 27.6213 139.242 27.0744Z" fill="#212844"/>
<path d="M150.434 27.0744H151.02C150.915 27.2437 150.772 27.465 150.59 27.7385C150.421 27.9989 150.082 28.4742 149.574 29.1643C149.079 29.8544 148.604 30.4664 148.148 31.0002C147.706 31.521 147.204 31.9963 146.645 32.426C146.098 32.8557 145.635 33.0705 145.258 33.0705C144.828 33.0705 144.444 32.8296 144.105 32.3479C143.767 31.8661 143.598 31.176 143.598 30.2775C143.598 29.9911 143.676 29.62 143.832 29.1643C141.814 31.7684 140.434 33.0705 139.691 33.0705C139.275 33.0705 138.897 32.8296 138.559 32.3479C138.22 31.8661 138.051 31.176 138.051 30.2775C138.051 29.8739 138.214 29.288 138.539 28.5197C138.865 27.7515 139.255 26.9703 139.711 26.176C140.18 25.3687 140.648 24.594 141.117 23.8518C141.586 23.1096 141.983 22.5041 142.309 22.0354L142.797 21.3127H145.277C145.121 21.5471 144.913 21.8531 144.652 22.2307C144.392 22.6083 143.93 23.3179 143.266 24.3596C142.602 25.3882 142.016 26.3387 141.508 27.2111C141 28.0835 140.538 28.982 140.121 29.9065C139.704 30.8179 139.496 31.495 139.496 31.9377C139.496 32.2762 139.633 32.4455 139.906 32.4455C140.492 32.4455 142.094 30.7072 144.711 27.2307C145.128 26.4234 145.635 25.5315 146.234 24.5549C146.846 23.5653 147.348 22.7775 147.738 22.1916L148.344 21.3127H150.824C150.668 21.5471 150.453 21.8531 150.18 22.2307C149.919 22.6083 149.457 23.3179 148.793 24.3596C148.129 25.3882 147.543 26.3387 147.035 27.2111C146.54 28.0835 146.085 28.982 145.668 29.9065C145.251 30.8179 145.043 31.495 145.043 31.9377C145.043 32.2762 145.18 32.4455 145.453 32.4455C145.688 32.4455 146.007 32.2762 146.41 31.9377C146.814 31.5992 147.204 31.215 147.582 30.7854C147.96 30.3557 148.376 29.8479 148.832 29.2619C149.288 28.676 149.62 28.2333 149.828 27.9338C150.049 27.6343 150.251 27.3479 150.434 27.0744Z" fill="#212844"/>
<path d="M166.039 27.0744H166.625C166.365 27.4911 166.091 27.9012 165.805 28.3049C165.518 28.7085 165.134 29.2164 164.652 29.8283C164.171 30.4403 163.715 30.9742 163.285 31.4299C162.868 31.8726 162.419 32.2567 161.938 32.5822C161.469 32.9078 161.052 33.0705 160.688 33.0705C160.57 33.0705 160.44 33.0575 160.297 33.0315C160.167 32.9924 160.017 32.9208 159.848 32.8166C159.678 32.7124 159.529 32.5757 159.398 32.4065C159.268 32.2372 159.158 31.9963 159.066 31.6838C158.975 31.3713 158.93 31.0067 158.93 30.59C158.93 30.1604 159.105 29.62 159.457 28.969C159.809 28.3179 160.232 27.6669 160.727 27.0158C161.221 26.3518 161.71 25.7137 162.191 25.1018C162.686 24.4768 163.109 23.9039 163.461 23.383C163.812 22.8622 163.988 22.4846 163.988 22.2502C163.988 21.9768 163.884 21.84 163.676 21.84C163.389 21.84 162.999 22.0419 162.504 22.4455C162.009 22.8361 161.501 23.3309 160.98 23.9299C160.46 24.5158 159.88 25.2255 159.242 26.0588C158.604 26.8791 158.031 27.6343 157.523 28.3244C157.029 29.0145 156.521 29.7372 156 30.4924C155.336 31.5341 154.776 32.3609 154.32 32.9729H152.211C152.432 32.5822 153.109 31.5145 154.242 29.7697C155.375 28.0249 156.345 26.4494 157.152 25.0432C157.96 23.6239 158.363 22.6929 158.363 22.2502C158.363 21.9768 158.279 21.84 158.109 21.84C157.888 21.84 157.549 22.0354 157.094 22.426C156.651 22.8036 156.195 23.2528 155.727 23.7736C155.258 24.2945 154.737 24.9195 154.164 25.6486C153.591 26.3648 153.116 26.9703 152.738 27.465C152.374 27.9468 152.009 28.4351 151.645 28.9299L149.262 32.9729H146.977L148.773 30.219L150.395 27.1135L153.969 21.3127H156.215C156.163 21.4039 156.026 21.6187 155.805 21.9572C155.596 22.2958 155.355 22.6799 155.082 23.1096C154.822 23.5393 154.639 23.8387 154.535 24.008C154.118 24.6851 153.799 25.1929 153.578 25.5315C155.727 22.6539 157.341 21.215 158.422 21.215C158.812 21.215 159.138 21.3518 159.398 21.6252C159.672 21.8856 159.809 22.2958 159.809 22.8557C159.809 23.4677 159.372 24.594 158.5 26.2346C160.831 22.8882 162.66 21.215 163.988 21.215C164.405 21.215 164.75 21.3453 165.023 21.6057C165.297 21.8661 165.434 22.2828 165.434 22.8557C165.434 23.3374 165.251 23.9234 164.887 24.6135C164.535 25.3036 164.105 25.9937 163.598 26.6838C163.103 27.3739 162.602 28.051 162.094 28.715C161.586 29.3791 161.156 30.0041 160.805 30.59C160.453 31.163 160.277 31.6122 160.277 31.9377C160.277 32.3544 160.414 32.5627 160.688 32.5627C160.961 32.5627 161.293 32.426 161.684 32.1525C162.087 31.8661 162.478 31.5275 162.855 31.1369C163.233 30.7333 163.637 30.2645 164.066 29.7307C164.509 29.1968 164.874 28.7281 165.16 28.3244C165.46 27.9078 165.753 27.4911 166.039 27.0744Z" fill="#212844"/>
<path d="M165.629 28.3635C166.189 26.9572 166.814 25.6877 167.504 24.5549C168.194 23.4091 168.852 22.3283 169.477 21.3127H171.781C171.729 21.3778 171.488 21.7684 171.059 22.4846C170.629 23.1877 170.017 24.2684 169.223 25.7268C169.757 25.245 170.277 24.9195 170.785 24.7502C171.293 24.5809 171.749 24.5484 172.152 24.6525C172.556 24.7567 172.882 24.9846 173.129 25.3361C173.389 25.6747 173.539 26.1109 173.578 26.6447C173.812 26.6057 174.073 26.5406 174.359 26.4494C174.646 26.3583 174.932 26.2411 175.219 26.0979C175.505 25.9546 175.779 25.7789 176.039 25.5705C176.312 25.3622 176.553 25.1278 176.762 24.8674L177.094 25.1799C176.234 26.2346 175.056 26.8921 173.559 27.1525C173.533 27.413 173.493 27.6799 173.441 27.9533C173.259 28.7085 172.953 29.4052 172.523 30.0432C172.107 30.6812 171.612 31.2346 171.039 31.7033C170.466 32.1591 169.848 32.5236 169.184 32.7971C168.52 33.0575 167.862 33.1877 167.211 33.1877C166.729 33.2398 166.345 33.1877 166.059 33.0315C165.772 32.8752 165.551 32.6539 165.395 32.3674C165.238 32.0809 165.147 31.7554 165.121 31.3908C165.082 31.0132 165.082 30.6421 165.121 30.2775C165.16 29.8999 165.232 29.5419 165.336 29.2033C165.427 28.8648 165.525 28.5848 165.629 28.3635ZM167.992 28.0705C167.784 28.4742 167.582 28.9559 167.387 29.5158C167.191 30.0627 167.048 30.5835 166.957 31.0783C166.879 31.5731 166.879 31.9833 166.957 32.3088C167.035 32.6343 167.243 32.7775 167.582 32.7385C167.934 32.6994 168.292 32.5302 168.656 32.2307C169.034 31.9182 169.392 31.5341 169.73 31.0783C170.082 30.6226 170.401 30.1213 170.688 29.5744C170.987 29.0145 171.234 28.4611 171.43 27.9143C171.534 27.6408 171.632 27.3153 171.723 26.9377C171.827 26.5471 171.879 26.2085 171.879 25.9221C171.866 25.5835 171.762 25.3622 171.566 25.258C171.371 25.1408 171.117 25.1213 170.805 25.1994C170.505 25.2775 170.173 25.4403 169.809 25.6877C169.457 25.9351 169.105 26.2476 168.754 26.6252C168.624 26.8466 168.493 27.0809 168.363 27.3283C168.246 27.5627 168.122 27.8101 167.992 28.0705Z" fill="#212844"/>
<path d="M176.273 28.8713C176.521 28.1291 176.924 27.3348 177.484 26.4885C178.057 25.6291 178.702 24.8088 179.418 24.0275C180.134 23.2333 180.896 22.426 181.703 21.6057C182.523 20.7723 183.311 19.952 184.066 19.1447C184.835 18.3374 185.525 17.5497 186.137 16.7815C186.762 16.0132 187.263 15.2385 187.641 14.4572C188.018 13.676 188.207 12.9468 188.207 12.2697C188.207 12.0223 188.188 11.788 188.148 11.5666C188.109 11.3322 188.018 11.0718 187.875 10.7854C187.745 10.4859 187.562 10.232 187.328 10.0236C187.107 9.80229 186.781 9.62 186.352 9.47677C185.935 9.32052 185.447 9.24239 184.887 9.24239C184.171 9.24239 183.5 9.3726 182.875 9.63302C182.25 9.89344 181.716 10.2385 181.273 10.6682C180.844 11.0979 180.453 11.5666 180.102 12.0744C179.75 12.5692 179.477 13.0705 179.281 13.5783C179.086 14.0861 178.936 14.5419 178.832 14.9455C178.728 15.3492 178.676 15.6747 178.676 15.9221C178.676 16.0914 178.676 16.2411 178.676 16.3713C178.689 16.5015 178.721 16.6773 178.773 16.8986C178.839 17.107 178.923 17.2762 179.027 17.4065C179.132 17.5367 179.288 17.6539 179.496 17.758C179.717 17.8622 179.978 17.9143 180.277 17.9143C180.733 17.9143 181.215 17.7385 181.723 17.3869C182.23 17.0354 182.667 16.6187 183.031 16.1369C183.409 15.6552 183.708 15.1604 183.93 14.6525C184.151 14.1447 184.229 13.7281 184.164 13.4025L184.34 13.3244C184.509 13.6499 184.581 14.0015 184.555 14.3791C184.529 14.7437 184.451 15.1148 184.32 15.4924C184.19 15.857 183.988 16.2085 183.715 16.5471C183.441 16.8856 183.135 17.1851 182.797 17.4455C182.458 17.7059 182.068 17.9143 181.625 18.0705C181.195 18.2268 180.753 18.3049 180.297 18.3049C179.516 18.3049 178.878 18.0445 178.383 17.5236C177.888 17.0028 177.641 16.2802 177.641 15.3557C177.641 14.4572 177.862 13.5979 178.305 12.7775C178.747 11.9572 179.32 11.2671 180.023 10.7072C180.727 10.1343 181.501 9.6851 182.348 9.35958C183.207 9.02104 184.053 8.85177 184.887 8.85177C185.316 8.85177 185.733 8.89083 186.137 8.96896C186.553 9.04708 186.977 9.1838 187.406 9.37911C187.836 9.57442 188.207 9.82833 188.52 10.1408C188.845 10.4533 189.112 10.87 189.32 11.3908C189.529 11.8986 189.633 12.4846 189.633 13.1486C189.633 13.9039 189.451 14.6786 189.086 15.4729C188.734 16.2671 188.292 16.9898 187.758 17.6408C187.224 18.2789 186.586 18.9429 185.844 19.633C185.102 20.3231 184.405 20.9221 183.754 21.4299C183.116 21.9247 182.439 22.452 181.723 23.0119C181.02 23.5718 180.492 24.021 180.141 24.3596C179.659 24.8153 179.203 25.2841 178.773 25.7658C178.357 26.2346 178.018 26.6512 177.758 27.0158C177.51 27.3674 177.289 27.6864 177.094 27.9729C176.911 28.2593 176.781 28.4807 176.703 28.6369L176.586 28.8713H176.273ZM175.707 33.0705C175.355 33.0705 175.082 32.9598 174.887 32.7385C174.691 32.5041 174.594 32.2372 174.594 31.9377C174.594 31.5861 174.698 31.2867 174.906 31.0393C175.128 30.7919 175.427 30.6682 175.805 30.6682C176.208 30.6682 176.495 30.7919 176.664 31.0393C176.846 31.2867 176.938 31.5471 176.938 31.8205C176.938 32.1591 176.827 32.452 176.605 32.6994C176.384 32.9468 176.085 33.0705 175.707 33.0705Z" fill="#212844"/>
<path d="M203.375 29.1455C202.142 29.1455 200.6 28.7539 198.75 27.9705C197.45 27.4205 196.425 27.0289 195.675 26.7955C194.942 26.5455 194.183 26.4205 193.4 26.4205C192.5 26.4205 191.65 26.6122 190.85 26.9955C190.067 27.3622 189.258 27.8205 188.425 28.3705C188.358 28.4205 188.3 28.4455 188.25 28.4455C188.2 28.4455 188.142 28.4205 188.075 28.3705C188.025 28.3205 188 28.2789 188 28.2455C188 28.2122 188.017 28.1705 188.05 28.1205C188.6 27.3705 189.4 26.6622 190.45 25.9955C191.517 25.3122 192.733 24.9705 194.1 24.9705C195.35 24.9705 196.9 25.3622 198.75 26.1455L199.3 26.3705C200.433 26.8372 201.333 27.1789 202 27.3955C202.667 27.6122 203.358 27.7205 204.075 27.7205C204.975 27.7205 205.817 27.5372 206.6 27.1705C207.383 26.7872 208.2 26.3122 209.05 25.7455C209.133 25.6955 209.192 25.6705 209.225 25.6705C209.275 25.6705 209.325 25.6955 209.375 25.7455C209.442 25.7955 209.475 25.8372 209.475 25.8705C209.475 25.9039 209.458 25.9455 209.425 25.9955C208.875 26.7455 208.067 27.4622 207 28.1455C205.95 28.8122 204.742 29.1455 203.375 29.1455Z" fill="#212844"/>
</svg>
