<svg width="236" height="103" viewBox="0 0 236 103" fill="none" xmlns="http://www.w3.org/2000/svg">
<path d="M45.9919 26.7369C46.5235 27.2373 46.9769 27.6594 47.3522 28.0034C47.7274 28.3161 48.1183 28.5663 48.5248 28.7539C48.9314 28.9416 49.3692 29.0667 49.8382 29.1292C50.3386 29.1917 50.9484 29.223 51.6676 29.223V29.7859H43.9749C43.8185 29.567 43.4276 29.0823 42.8022 28.3318C42.1768 27.55 41.4419 26.6119 40.5976 25.5174C39.7532 24.4229 38.8464 23.2502 37.877 21.9993C36.9076 20.7485 35.9694 19.5602 35.0626 18.4344C34.187 17.2774 33.3895 16.2454 32.6703 15.3386C31.9823 14.4317 31.4976 13.7906 31.2162 13.4154H30.278V26.0333C30.278 26.8464 30.3562 27.4718 30.5126 27.9096C30.7002 28.3474 30.966 28.6601 31.31 28.8478C31.654 29.0354 32.0761 29.1448 32.5765 29.1761C33.0768 29.2074 33.671 29.223 34.3589 29.223V29.7859H22.9606V29.223C23.7111 29.223 24.3365 29.2074 24.8368 29.1761C25.3685 29.1448 25.7906 29.0354 26.1033 28.8478C26.4473 28.6289 26.6818 28.3005 26.8069 27.8627C26.9633 27.4249 27.0415 26.8151 27.0415 26.0333V4.50306C27.0415 3.75255 26.9633 3.1584 26.8069 2.7206C26.6818 2.2828 26.4473 1.95446 26.1033 1.73556C25.7906 1.51666 25.3841 1.37594 24.8838 1.31339C24.3834 1.25085 23.758 1.21958 23.0075 1.21958V0.703606H34.312V1.21958C33.5615 1.21958 32.9361 1.25085 32.4358 1.31339C31.9354 1.37594 31.5133 1.51666 31.1693 1.73556C30.8566 1.95446 30.622 2.2828 30.4657 2.7206C30.3406 3.1584 30.278 3.75255 30.278 4.50306V12.4303H31.3569L39.3311 4.40925C40.363 3.3773 40.879 2.61115 40.879 2.11081C40.879 1.86064 40.7539 1.67301 40.5038 1.54793C40.2849 1.42284 40.019 1.34467 39.7063 1.31339C39.3936 1.25085 39.0809 1.21958 38.7682 1.21958C38.4555 1.21958 38.221 1.21958 38.0646 1.21958V0.703606H48.8063V1.21958C45.5541 1.21958 42.7709 2.37662 40.4568 4.69069L33.6553 11.3984L40.7852 20.5452C43.0993 23.4847 44.8348 25.5486 45.9919 26.7369Z" fill="white"/>
<path d="M81.3813 25.9395C81.3813 26.7213 81.4595 27.3467 81.6158 27.8158C81.8035 28.2536 82.0536 28.5819 82.3663 28.8008C82.7103 28.9885 83.1481 29.1136 83.6797 29.1761C84.2113 29.2074 84.8211 29.223 85.5091 29.223V29.7859H74.1107V29.223C74.8612 29.223 75.4867 29.2074 75.987 29.1761C76.5186 29.1136 76.9408 28.9728 77.2535 28.7539C77.5975 28.535 77.8476 28.2067 78.004 27.7689C78.1604 27.3311 78.2385 26.7213 78.2385 25.9395V4.69069L58.0217 30.4895L56.849 29.9735V4.50306C56.849 3.72128 56.7708 3.11149 56.6144 2.6737C56.4581 2.2359 56.2079 1.90755 55.8639 1.68865C55.5512 1.46975 55.1291 1.34467 54.5974 1.31339C54.0971 1.25085 53.4717 1.21958 52.7212 1.21958V0.656697H64.1196V1.21958C63.369 1.21958 62.728 1.25085 62.1964 1.31339C61.696 1.34467 61.2739 1.46975 60.9299 1.68865C60.6172 1.90755 60.3826 2.2359 60.2263 2.6737C60.0699 3.11149 59.9917 3.72128 59.9917 4.50306V26.1741L80.4432 0L81.3813 0.375256V25.9395Z" fill="white"/>
<path d="M98.2964 16.8865C99.4534 16.8865 100.47 16.6832 101.345 16.2767C102.252 15.8702 103.003 15.3229 103.597 14.635C104.222 13.9157 104.691 13.087 105.004 12.1489C105.348 11.1795 105.52 10.1475 105.52 9.05303C105.52 7.95854 105.364 6.94222 105.051 6.00409C104.77 5.03468 104.332 4.19035 103.738 3.47111C103.143 2.75187 102.393 2.18899 101.486 1.78246C100.61 1.34467 99.5785 1.12577 98.3902 1.12577C97.6397 1.12577 97.0142 1.15704 96.5139 1.21958C96.0448 1.28212 95.6696 1.43848 95.3881 1.68865C95.1067 1.90755 94.9034 2.2359 94.7784 2.6737C94.6845 3.11149 94.6376 3.70565 94.6376 4.45616V25.9864C94.6376 26.8308 94.7784 27.4718 95.0598 27.9096C95.3725 28.3474 95.779 28.6758 96.2794 28.8947C96.811 29.0823 97.4364 29.1917 98.1557 29.223C98.8749 29.223 99.641 29.223 100.454 29.223V29.7859H87.3202V29.223C88.0081 29.223 88.6023 29.2074 89.1026 29.1761C89.6342 29.1448 90.072 29.0354 90.416 28.8478C90.7913 28.6601 91.0571 28.3474 91.2134 27.9096C91.4011 27.4718 91.4949 26.8464 91.4949 26.0333V4.36234C91.4949 3.58056 91.4167 2.98641 91.2603 2.57988C91.1352 2.14208 90.9007 1.82937 90.5567 1.64174C90.244 1.42284 89.8219 1.29776 89.2902 1.26649C88.7899 1.23522 88.1645 1.21958 87.414 1.21958V0.703606H92.5268C93.4337 0.703606 94.3093 0.672334 95.1536 0.60979L96.9361 0.515978C97.8117 0.453434 98.6873 0.422162 99.5629 0.422162C100.845 0.422162 102.065 0.562883 103.222 0.844325C104.379 1.12577 105.395 1.5792 106.271 2.20463C107.146 2.79878 107.834 3.5962 108.334 4.59688C108.866 5.56629 109.132 6.77023 109.132 8.20871C109.132 9.64719 108.85 10.9606 108.288 12.1489C107.756 13.3059 107.021 14.291 106.083 15.104C105.176 15.8858 104.097 16.4956 102.846 16.9334C101.595 17.3712 100.266 17.5901 98.8593 17.5901C98.1087 17.5901 97.4051 17.5119 96.7484 17.3556C96.0917 17.1679 95.5914 16.949 95.2474 16.6989V16.0891C95.4663 16.2142 95.8416 16.3861 96.3732 16.605C96.9361 16.7927 97.5771 16.8865 98.2964 16.8865Z" fill="white"/>
<path d="M139.145 25.9395C139.145 26.7213 139.223 27.3467 139.379 27.8158C139.567 28.2536 139.817 28.5819 140.13 28.8008C140.474 28.9885 140.911 29.1136 141.443 29.1761C141.975 29.2074 142.584 29.223 143.272 29.223V29.7859H131.874V29.223C132.625 29.223 133.25 29.2074 133.75 29.1761C134.282 29.1136 134.704 28.9728 135.017 28.7539C135.361 28.535 135.611 28.2067 135.767 27.7689C135.924 27.3311 136.002 26.7213 136.002 25.9395V4.69069L115.785 30.4895L114.612 29.9735V4.50306C114.612 3.72128 114.534 3.11149 114.378 2.6737C114.221 2.2359 113.971 1.90755 113.627 1.68865C113.315 1.46975 112.892 1.34467 112.361 1.31339C111.86 1.25085 111.235 1.21958 110.484 1.21958V0.656697H121.883V1.21958C121.132 1.21958 120.491 1.25085 119.96 1.31339C119.459 1.34467 119.037 1.46975 118.693 1.68865C118.38 1.90755 118.146 2.2359 117.99 2.6737C117.833 3.11149 117.755 3.72128 117.755 4.50306V26.1741L138.206 0L139.145 0.375256V25.9395Z" fill="white"/>
<path d="M174.541 27.3467C174.854 27.7845 175.276 28.2067 175.807 28.6132C176.37 29.0197 177.152 29.223 178.153 29.223V29.7859H167.177V29.223C168.49 29.223 169.397 29.1136 169.897 28.8947C170.398 28.6758 170.648 28.3318 170.648 27.8627C170.648 27.4562 170.429 26.7838 169.991 25.8457L159.953 4.64379L151.791 23.9225C151.572 24.4229 151.4 24.8919 151.275 25.3297C151.15 25.7675 151.088 26.1741 151.088 26.5493C151.088 27.4249 151.463 28.0972 152.213 28.5663C152.964 29.0041 154.152 29.223 155.778 29.223V29.7859H144.239V29.223C145.302 29.223 146.178 29.0823 146.866 28.8008C147.554 28.5194 148.132 28.1285 148.601 27.6282C149.071 27.0966 149.461 26.4868 149.774 25.7988C150.118 25.0796 150.462 24.2978 150.806 23.4535L160.75 0.0469091H161.266L172.43 23.4535C172.837 24.3603 173.212 25.1265 173.556 25.7519C173.931 26.3773 174.26 26.9089 174.541 27.3467Z" fill="white"/>
<path d="M209.309 27.3467C209.622 27.7845 210.044 28.2067 210.575 28.6132C211.138 29.0197 211.92 29.223 212.921 29.223V29.7859H201.945V29.223C203.258 29.223 204.165 29.1136 204.665 28.8947C205.165 28.6758 205.416 28.3318 205.416 27.8627C205.416 27.4562 205.197 26.7838 204.759 25.8457L194.721 4.64379L186.559 23.9225C186.34 24.4229 186.168 24.8919 186.043 25.3297C185.918 25.7675 185.855 26.1741 185.855 26.5493C185.855 27.4249 186.231 28.0972 186.981 28.5663C187.732 29.0041 188.92 29.223 190.546 29.223V29.7859H179.007V29.223C180.07 29.223 180.946 29.0823 181.634 28.8008C182.322 28.5194 182.9 28.1285 183.369 27.6282C183.838 27.0966 184.229 26.4868 184.542 25.7988C184.886 25.0796 185.23 24.2978 185.574 23.4535L195.518 0.0469091H196.034L207.198 23.4535C207.605 24.3603 207.98 25.1265 208.324 25.7519C208.699 26.3773 209.027 26.9089 209.309 27.3467Z" fill="white"/>
<path d="M112.96 38.8526C114.711 38.8526 116.074 39.3029 117.05 40.2036C118.026 41.0792 118.514 42.1549 118.514 43.4307C118.514 44.7066 118.076 45.9199 117.2 47.0707C116.325 48.2215 115.086 49.0971 113.485 49.6975L118.176 56.302L120.127 51.3111H118.213V50.6357H123.955V51.3111H121.591C121.365 51.3111 121.19 51.4862 121.065 51.8365L118.889 57.2777L122.304 62.0059C122.429 62.206 122.604 62.3061 122.829 62.3061H124.18V62.9816H122.078C120.853 62.9816 119.94 63.0566 119.339 63.2067L117.313 60.3172C115.812 62.3937 113.76 63.4319 111.159 63.4319C109.007 63.4319 107.306 62.7814 106.055 61.4805C104.829 60.1546 104.216 58.6661 104.216 57.015C104.216 55.3389 104.717 53.8879 105.717 52.662C106.743 51.4362 108.219 50.5356 110.145 49.9602L108.982 48.2715C107.931 46.7955 107.406 45.3195 107.406 43.8435C107.406 42.3675 107.894 41.1667 108.869 40.2411C109.87 39.3155 111.234 38.8526 112.96 38.8526ZM111.909 61.9684C113.86 61.9684 115.461 61.1178 116.712 59.4166L110.746 50.8233C108.494 52.0241 107.368 53.9879 107.368 56.7148C107.368 58.4159 107.806 59.7168 108.682 60.6174C109.557 61.5181 110.633 61.9684 111.909 61.9684ZM112.922 39.8283C110.821 39.8283 109.77 40.8665 109.77 42.9429C109.77 43.9686 110.208 45.0944 111.083 46.3202L112.922 48.947C113.948 48.4467 114.736 47.7212 115.286 46.7705C115.837 45.7949 116.112 44.7692 116.112 43.6934C116.112 42.5927 115.824 41.6796 115.249 40.9541C114.698 40.2036 113.923 39.8283 112.922 39.8283Z" fill="white"/>
<path d="M27.9096 91.5948C27.8471 91.9388 27.7376 92.5016 27.5813 93.2834C27.4249 94.0339 27.2529 94.8157 27.0653 95.6288C26.9089 96.4105 26.7682 97.1142 26.6431 97.7396C26.518 98.3337 26.4555 98.6308 26.4555 98.6308C25.9864 99.0999 25.3297 99.5064 24.4854 99.8504C23.7662 100.163 22.7968 100.445 21.5772 100.695C20.3889 100.945 18.8722 101.07 17.0272 101.07C14.6819 101.07 12.4772 100.742 10.4133 100.085C8.34943 99.397 6.5357 98.3963 4.97213 97.0829C3.43984 95.7695 2.22026 94.159 1.31339 92.2515C0.437798 90.3127 0 88.108 0 85.6376C0 83.2297 0.437798 81.1033 1.31339 79.2583C2.18899 77.382 3.3773 75.8184 4.87832 74.5676C6.41061 73.2854 8.19307 72.316 10.2257 71.6593C12.2896 70.9714 14.4942 70.6274 16.8396 70.6274C18.5908 70.6274 19.9667 70.7681 20.9674 71.0495C21.9993 71.331 22.9531 71.6906 23.8287 72.1284C24.0163 72.2222 24.1883 72.2691 24.3447 72.2691C24.5636 72.2691 24.7981 72.144 25.0483 71.8939C25.2985 71.6124 25.4235 71.1903 25.4235 70.6274H25.9864L27.5344 80.1026L26.9715 80.1964C26.6275 79.0394 26.1741 77.9292 25.6112 76.866C25.0796 75.8028 24.4072 74.8646 23.5942 74.0516C22.7811 73.2385 21.8274 72.5975 20.7329 72.1284C19.6384 71.6281 18.3562 71.3779 16.8865 71.3779C14.7288 71.3779 12.8212 71.7375 11.1638 72.4567C9.53774 73.176 8.17744 74.1767 7.08294 75.4588C5.98845 76.7096 5.15976 78.195 4.59688 79.915C4.03399 81.6349 3.75255 83.4955 3.75255 85.4969C3.75255 87.4044 4.06527 89.2494 4.69069 91.0319C5.34739 92.8144 6.25426 94.3936 7.41129 95.7695C8.5996 97.1454 10.0068 98.2555 11.6329 99.0999C13.2903 99.9129 15.104 100.319 17.0741 100.319C18.3562 100.319 19.5445 100.116 20.639 99.7097C21.7335 99.2719 22.7029 98.6621 23.5473 97.8803C24.4229 97.0985 25.1734 96.176 25.7988 95.1128C26.4242 94.0496 26.9246 92.8613 27.2998 91.5479L27.9096 91.5948Z" fill="white"/>
<path d="M44.8866 84.5118C46.2 84.6682 47.3101 85.0122 48.217 85.5438C49.1239 86.0441 49.8588 86.6383 50.4216 87.3262C50.9845 88.0142 51.391 88.7647 51.6412 89.5778C51.8914 90.3908 52.0165 91.1882 52.0165 91.97C52.0165 93.3147 51.7663 94.5343 51.266 95.6288C50.7656 96.692 50.0776 97.6145 49.2021 98.3963C48.3265 99.1468 47.3258 99.7409 46.2 100.179C45.0742 100.585 43.8703 100.789 42.5882 100.789C41.9315 100.789 41.3373 100.773 40.8057 100.742C40.3054 100.71 39.7894 100.679 39.2578 100.648C38.7574 100.617 38.2258 100.585 37.663 100.554C37.1001 100.523 36.4434 100.507 35.6929 100.507H29.9702V99.9442C30.6582 99.9442 31.2523 99.9286 31.7527 99.8973C32.2843 99.8348 32.7221 99.7097 33.0661 99.522C33.4413 99.3031 33.7071 98.9904 33.8635 98.5839C34.0511 98.1461 34.1449 97.5363 34.1449 96.7545V75.0835C34.1449 74.2705 34.0511 73.6607 33.8635 73.2542C33.7071 72.8164 33.4413 72.5037 33.0661 72.316C32.7221 72.1284 32.2843 72.0189 31.7527 71.9877C31.2523 71.9564 30.6582 71.9408 29.9702 71.9408V71.4248H35.6929C36.8186 71.4248 37.7724 71.3779 38.5542 71.2841C39.336 71.1903 40.1959 71.1434 41.1341 71.1434C41.2592 71.1434 41.3842 71.1434 41.5093 71.1434C42.51 71.1434 43.4638 71.2528 44.3706 71.4717C45.3088 71.6906 46.1531 72.0815 46.9036 72.6444C47.6541 73.176 48.2326 73.8796 48.6392 74.7552C49.077 75.5995 49.2959 76.6315 49.2959 77.851C49.2959 79.3521 48.9362 80.728 48.217 81.9789C47.4978 83.2297 46.3876 84.074 44.8866 84.5118ZM41.9315 99.9442C46.4033 99.9442 48.6392 97.677 48.6392 93.1427C48.6392 92.0169 48.5141 90.985 48.2639 90.0468C48.045 89.0774 47.6854 88.2331 47.1851 87.5139C46.716 86.7946 46.0906 86.2318 45.3088 85.8252C44.5583 85.4187 43.667 85.2154 42.6351 85.2154C42.0722 85.2154 41.5406 85.2936 41.0403 85.45C40.5399 85.6063 40.1021 85.7783 39.7269 85.9659C39.3516 86.1536 39.0545 86.3256 38.8356 86.4819C38.6167 86.6383 38.5073 86.7165 38.5073 86.7165L38.0851 86.2005C38.2415 86.0754 38.476 85.919 38.7887 85.7314C39.1014 85.5125 39.4611 85.3092 39.8676 85.1216C40.3054 84.934 40.7901 84.762 41.3217 84.6056C41.8846 84.4493 42.4631 84.3711 43.0572 84.3711C43.6201 84.3711 44.0892 84.1991 44.4645 83.8551C44.871 83.5111 45.1993 83.0577 45.4495 82.4948C45.7309 81.9007 45.9186 81.244 46.0124 80.5247C46.1375 79.7742 46.2 78.9924 46.2 78.1794C46.2 76.1468 45.6997 74.5832 44.699 73.4887C43.6983 72.3942 42.1817 71.847 40.149 71.847C39.5236 71.847 39.0233 71.9095 38.648 72.0346C38.2727 72.1284 37.9913 72.3004 37.8037 72.5506C37.616 72.8007 37.491 73.1447 37.4284 73.5825C37.3659 74.0203 37.3346 74.5519 37.3346 75.1774V96.8014C37.3346 97.5519 37.4597 98.1461 37.7099 98.5839C37.96 98.9904 38.2884 99.3031 38.6949 99.522C39.1327 99.7097 39.6174 99.8348 40.149 99.8973C40.7119 99.9286 41.3061 99.9442 41.9315 99.9442Z" fill="white"/>
<path d="M73.2415 93.7994C73.1164 94.5499 72.96 95.3942 72.7724 96.3324C72.6161 97.2392 72.4597 98.1148 72.3033 98.9592L71.8343 101.305C71.6779 101.992 71.5685 102.477 71.5059 102.759L71.0838 102.712C71.0838 102.618 71.0838 102.508 71.0838 102.383C71.0838 101.977 70.9587 101.633 70.7085 101.351C70.4896 101.101 70.1769 100.898 69.7704 100.742C69.3951 100.617 68.9886 100.538 68.5508 100.507C68.113 100.507 67.7221 100.507 67.3781 100.507H52.3679V99.9442C53.1184 99.9442 53.7438 99.9129 54.2442 99.8504C54.7758 99.7878 55.1823 99.6628 55.4638 99.4751C55.7765 99.2562 55.9954 98.9279 56.1205 98.4901C56.2768 98.0523 56.355 97.4581 56.355 96.7076V75.1774C56.355 74.4268 56.2768 73.8483 56.1205 73.4418C55.9954 73.004 55.7765 72.6756 55.4638 72.4567C55.151 72.2378 54.7445 72.0971 54.2442 72.0346C53.7438 71.972 53.1184 71.9408 52.3679 71.9408V71.4248H65.2673C65.924 71.4248 66.5494 71.3935 67.1436 71.331C67.7377 71.2684 68.2694 71.159 68.7384 71.0026C69.2075 70.8463 69.5671 70.643 69.8173 70.3928C70.0674 70.1114 70.1925 69.7674 70.1925 69.3609C70.1925 69.3296 70.1925 69.2827 70.1925 69.2202L70.6616 69.1264L72.3503 78.1325L71.7874 78.1794C71.631 77.3976 71.4277 76.6627 71.1776 75.9748C70.9274 75.2555 70.5522 74.6301 70.0518 74.0985C69.5515 73.5356 68.8948 73.0978 68.0817 72.7851C67.2687 72.4724 66.2211 72.316 64.939 72.316H63.2503C62.5936 72.316 62.0151 72.3473 61.5148 72.4098C61.0457 72.4724 60.6548 72.6131 60.3421 72.832C60.0606 73.0196 59.8417 73.3167 59.6854 73.7232C59.5603 74.0985 59.4978 74.6301 59.4978 75.3181V84.7933H65.1266C66.4087 84.7933 67.4407 84.59 68.2224 84.1835C69.0042 83.7769 69.3951 82.8701 69.3951 81.4629H69.958L70.0049 89.6716H69.3951C69.3951 88.1393 69.0355 87.1073 68.3163 86.5757C67.597 86.0441 66.4869 85.7783 64.9859 85.7783H59.4978V96.5669C59.4978 97.2549 59.5603 97.8021 59.6854 98.2086C59.8417 98.5839 60.0763 98.881 60.389 99.0999C60.7017 99.2875 61.077 99.4126 61.5148 99.4751C61.9838 99.5377 62.5154 99.5689 63.1096 99.5689H66.8152C68.5977 99.5689 69.9111 99.0373 70.7554 97.9741C71.631 96.8796 72.2721 95.4568 72.6786 93.7056L73.2415 93.7994Z" fill="white"/>
<path d="M98.2102 69.1264L99.8989 78.1325L99.3829 78.1794C99.1953 77.3976 98.9764 76.6627 98.7262 75.9748C98.5073 75.2555 98.1477 74.6301 97.6474 74.0985C97.1783 73.5356 96.5372 73.0978 95.7242 72.7851C94.9424 72.4724 93.9104 72.316 92.6283 72.316H92.0654C90.8146 72.316 89.9703 72.5193 89.5325 72.9258C89.1259 73.3323 88.9227 74.1298 88.9227 75.3181V96.7545C88.9227 97.5676 89.0009 98.193 89.1572 98.6308C89.3448 99.0686 89.6107 99.3813 89.9546 99.5689C90.2986 99.7566 90.7208 99.866 91.2211 99.8973C91.7215 99.9286 92.3156 99.9442 93.0036 99.9442V100.507H81.6521V99.9442C82.3401 99.9442 82.9342 99.9286 83.4346 99.8973C83.9349 99.866 84.3571 99.7566 84.7011 99.5689C85.045 99.3813 85.2952 99.0686 85.4516 98.6308C85.6392 98.193 85.733 97.5676 85.733 96.7545V75.3181C85.733 74.1298 85.5141 73.3323 85.0763 72.9258C84.6698 72.5193 83.8411 72.316 82.5902 72.316H81.9805C80.6983 72.316 79.6508 72.4724 78.8377 72.7851C78.0559 73.0978 77.4305 73.5356 76.9614 74.0985C76.4923 74.6301 76.1327 75.2555 75.8826 75.9748C75.6324 76.6627 75.4291 77.3976 75.2728 78.1794L74.7099 78.1325L76.4454 69.1264L76.9145 69.2202C76.9145 69.2827 76.9145 69.3296 76.9145 69.3609C76.9145 69.7674 77.0396 70.1114 77.2898 70.3928C77.5399 70.643 77.8839 70.8463 78.3217 71.0026C78.7908 71.159 79.3224 71.2684 79.9166 71.331C80.542 71.3935 81.183 71.4248 81.8397 71.4248H92.816C93.4727 71.4248 94.0981 71.3935 94.6922 71.331C95.3177 71.2684 95.8493 71.159 96.2871 71.0026C96.7561 70.8463 97.1158 70.643 97.3659 70.3928C97.6161 70.1114 97.7412 69.7674 97.7412 69.3609C97.7412 69.3296 97.7412 69.2827 97.7412 69.2202L98.2102 69.1264Z" fill="white"/>
<path d="M127.405 98.0679C127.718 98.5057 128.14 98.9279 128.672 99.3344C129.234 99.7409 130.016 99.9442 131.017 99.9442V100.507H120.041V99.9442C121.354 99.9442 122.261 99.8348 122.761 99.6159C123.262 99.397 123.512 99.053 123.512 98.5839C123.512 98.1774 123.293 97.505 122.855 96.5669L112.817 75.365L104.655 94.6437C104.436 95.1441 104.264 95.6131 104.139 96.0509C104.014 96.4887 103.952 96.8953 103.952 97.2705C103.952 98.1461 104.327 98.8184 105.077 99.2875C105.828 99.7253 107.016 99.9442 108.642 99.9442V100.507H97.1032V99.9442C98.1664 99.9442 99.042 99.8035 99.73 99.522C100.418 99.2406 100.996 98.8497 101.466 98.3494C101.935 97.8178 102.325 97.208 102.638 96.52C102.982 95.8008 103.326 95.019 103.67 94.1746L113.614 70.7681H114.13L125.294 94.1746C125.701 95.0815 126.076 95.8477 126.42 96.4731C126.795 97.0985 127.124 97.6301 127.405 98.0679Z" fill="white"/>
<path d="M142.238 87.8422L139.376 94.6437C139.157 95.1441 138.985 95.6131 138.86 96.0509C138.735 96.4887 138.673 96.8953 138.673 97.2705C138.673 98.1461 139.048 98.8184 139.798 99.2875C140.549 99.7253 141.737 99.9442 143.363 99.9442V100.507H131.777V99.9442C133.247 99.9442 134.31 99.7253 134.967 99.2875C135.655 98.8497 136.171 98.365 136.515 97.8334C136.796 97.3956 137.093 96.8796 137.406 96.2855C137.719 95.6913 138.047 94.9877 138.391 94.1746L148.335 70.7681H148.851L160.015 94.1746C160.422 95.0815 160.797 95.8477 161.141 96.4731C161.485 97.0985 161.813 97.6301 162.126 98.0679C162.439 98.5057 162.861 98.9279 163.393 99.3344C163.955 99.7409 164.737 99.9442 165.738 99.9442V100.507H154.715V99.9442C156.059 99.9442 156.966 99.8348 157.435 99.6159C157.936 99.397 158.186 99.053 158.186 98.5839C158.186 98.0836 157.983 97.4112 157.576 96.5669L153.448 87.8422H142.238ZM147.538 75.365L142.613 86.9979H153.026L147.538 75.365Z" fill="white"/>
<path d="M195.817 96.7545C195.817 97.5676 195.895 98.193 196.052 98.6308C196.239 99.0686 196.505 99.3813 196.849 99.5689C197.193 99.7566 197.615 99.866 198.116 99.8973C198.616 99.9286 199.21 99.9442 199.898 99.9442V100.507H188.453V99.9442C189.172 99.9442 189.798 99.9286 190.329 99.8973C190.861 99.866 191.299 99.7566 191.643 99.5689C191.987 99.35 192.237 99.0217 192.393 98.5839C192.549 98.1461 192.628 97.5363 192.628 96.7545V85.8721H174.803V96.7545C174.803 97.5676 174.881 98.193 175.038 98.6308C175.225 99.0686 175.491 99.3813 175.835 99.5689C176.179 99.7566 176.601 99.866 177.101 99.8973C177.602 99.9286 178.196 99.9442 178.884 99.9442V100.507H167.439V99.9442C168.095 99.9442 168.689 99.9286 169.221 99.8973C169.753 99.866 170.191 99.7566 170.534 99.5689C170.878 99.3813 171.144 99.0686 171.332 98.6308C171.52 98.193 171.613 97.5676 171.613 96.7545V75.1774C171.613 74.3956 171.535 73.7858 171.379 73.348C171.222 72.9102 170.972 72.5975 170.628 72.4098C170.284 72.1909 169.847 72.0659 169.315 72.0346C168.783 71.972 168.158 71.9408 167.439 71.9408V71.4248H178.837V71.9408C178.118 71.9408 177.492 71.972 176.961 72.0346C176.46 72.0971 176.038 72.2378 175.694 72.4567C175.382 72.6756 175.147 73.004 174.991 73.4418C174.866 73.8796 174.803 74.4737 174.803 75.2243V84.8402H192.628V75.1774C192.628 74.3956 192.549 73.7858 192.393 73.348C192.237 72.9102 191.987 72.5975 191.643 72.4098C191.33 72.1909 190.908 72.0659 190.376 72.0346C189.876 71.972 189.266 71.9408 188.547 71.9408V71.4248H199.898V71.9408C199.21 71.9408 198.6 71.972 198.069 72.0346C197.568 72.0659 197.146 72.1909 196.802 72.4098C196.49 72.5975 196.239 72.9102 196.052 73.348C195.895 73.7858 195.817 74.4112 195.817 75.2243V96.7545Z" fill="white"/>
<path d="M211.957 87.8422L209.095 94.6437C208.876 95.1441 208.704 95.6131 208.579 96.0509C208.454 96.4887 208.392 96.8953 208.392 97.2705C208.392 98.1461 208.767 98.8184 209.517 99.2875C210.268 99.7253 211.456 99.9442 213.082 99.9442V100.507H201.496V99.9442C202.966 99.9442 204.029 99.7253 204.686 99.2875C205.374 98.8497 205.89 98.365 206.234 97.8334C206.515 97.3956 206.812 96.8796 207.125 96.2855C207.438 95.6913 207.766 94.9877 208.11 94.1746L218.054 70.7681H218.57L229.734 94.1746C230.141 95.0815 230.516 95.8477 230.86 96.4731C231.204 97.0985 231.532 97.6301 231.845 98.0679C232.158 98.5057 232.58 98.9279 233.112 99.3344C233.674 99.7409 234.456 99.9442 235.457 99.9442V100.507H224.434V99.9442C225.778 99.9442 226.685 99.8348 227.154 99.6159C227.655 99.397 227.905 99.053 227.905 98.5839C227.905 98.0836 227.702 97.4112 227.295 96.5669L223.167 87.8422H211.957ZM217.257 75.365L212.332 86.9979H222.745L217.257 75.365Z" fill="white"/>
</svg>
