<svg width="160" height="39" viewBox="0 0 160 39" fill="none" xmlns="http://www.w3.org/2000/svg">
<path d="M15.375 22.7547C14.1417 22.7547 12.6 22.363 10.75 21.5797C9.45 21.0297 8.425 20.638 7.675 20.4047C6.94167 20.1547 6.18333 20.0297 5.4 20.0297C4.5 20.0297 3.65 20.2214 2.85 20.6047C2.06667 20.9714 1.25833 21.4297 0.425 21.9797C0.358333 22.0297 0.3 22.0547 0.25 22.0547C0.2 22.0547 0.141667 22.0297 0.0750002 21.9797C0.0250001 21.9297 0 21.888 0 21.8547C0 21.8214 0.0166667 21.7797 0.0500001 21.7297C0.6 20.9797 1.4 20.2714 2.45 19.6047C3.51667 18.9214 4.73333 18.5797 6.1 18.5797C7.35 18.5797 8.9 18.9714 10.75 19.7547L11.3 19.9797C12.4333 20.4464 13.3333 20.788 14 21.0047C14.6667 21.2214 15.3583 21.3297 16.075 21.3297C16.975 21.3297 17.8167 21.1464 18.6 20.7797C19.3833 20.3964 20.2 19.9214 21.05 19.3547C21.1333 19.3047 21.1917 19.2797 21.225 19.2797C21.275 19.2797 21.325 19.3047 21.375 19.3547C21.4417 19.4047 21.475 19.4464 21.475 19.4797C21.475 19.513 21.4583 19.5547 21.425 19.6047C20.875 20.3547 20.0667 21.0714 19 21.7547C17.95 22.4214 16.7417 22.7547 15.375 22.7547Z" fill="#212844"/>
<path d="M37.2891 22.3242C36.9896 23.3398 36.8529 24.2057 36.8789 24.9219C36.9049 25.625 37.0547 26.2109 37.3281 26.6797C37.6146 27.1354 38.0117 27.474 38.5195 27.6953C39.0273 27.9297 39.6068 28.0664 40.2578 28.1055C39.9974 27.2721 39.8802 26.3737 39.9062 25.4102C39.9453 24.4466 40.082 23.5026 40.3164 22.5781C40.5508 21.6406 40.8633 20.7617 41.2539 19.9414C41.6576 19.1211 42.1068 18.431 42.6016 17.8711C43.0703 17.3503 43.5781 16.875 44.125 16.4453C44.6849 16.0026 45.2643 15.625 45.8633 15.3125C46.4753 14.987 47.1003 14.7331 47.7383 14.5508C48.3893 14.3685 49.0273 14.2773 49.6523 14.2773C50.1992 14.2773 50.6875 14.375 51.1172 14.5703C51.5469 14.7526 51.9049 15 52.1914 15.3125C52.4909 15.625 52.7122 15.9961 52.8555 16.4258C53.0117 16.8424 53.0898 17.2852 53.0898 17.7539C53.0898 18.5091 52.9661 19.2904 52.7188 20.0977C52.4844 20.9049 52.1393 21.7057 51.6836 22.5C51.2279 23.2812 50.681 24.0299 50.043 24.7461C49.4049 25.4622 48.6823 26.1068 47.875 26.6797C47.0677 27.2396 46.1888 27.7018 45.2383 28.0664C44.3008 28.444 43.3047 28.6719 42.25 28.75C42.1068 28.763 41.9635 28.7695 41.8203 28.7695C41.6771 28.7826 41.5339 28.7956 41.3906 28.8086C41.651 29.2904 41.9961 29.7135 42.4258 30.0781C42.8555 30.4427 43.3828 30.7227 44.0078 30.918L43.7344 31.6406C42.9141 31.3932 42.2435 31.0221 41.7227 30.5273C41.2018 30.0326 40.7982 29.4531 40.5117 28.7891C39.6523 28.75 38.8385 28.5938 38.0703 28.3203C37.3021 28.0469 36.625 27.6432 36.0391 27.1094C35.4531 26.5755 34.9844 25.8919 34.6328 25.0586C34.2943 24.2122 34.125 23.2031 34.125 22.0312C34.125 20.8333 34.3529 19.6289 34.8086 18.418C35.2773 17.194 35.9219 15.9831 36.7422 14.7852C35.2578 15.0065 33.9492 15.0391 32.8164 14.8828C31.6966 14.7266 30.7526 14.4466 29.9844 14.043C29.2161 13.6263 28.6237 13.112 28.207 12.5C27.7904 11.888 27.5495 11.237 27.4844 10.5469C27.4193 9.84375 27.5299 9.13411 27.8164 8.41797C28.1029 7.6888 28.5586 7.00521 29.1836 6.36719C29.8086 5.72917 30.6029 5.16927 31.5664 4.6875C32.5299 4.19271 33.6628 3.82812 34.9648 3.59375C35.9674 3.41146 37.0156 3.30729 38.1094 3.28125C39.2161 3.24219 40.3294 3.27474 41.4492 3.37891C42.582 3.48307 43.7018 3.65234 44.8086 3.88672C45.9284 4.10807 46.9961 4.38802 48.0117 4.72656C49.2096 4.01042 50.4141 3.35938 51.625 2.77344C52.8359 2.1875 54.0143 1.69271 55.1602 1.28906C56.319 0.872396 57.4323 0.553385 58.5 0.332031C59.5677 0.110677 60.5508 0 61.4492 0C62.1133 0 62.582 0.15625 62.8555 0.46875C63.1419 0.78125 63.2982 1.1849 63.3242 1.67969V1.875C63.3242 2.55208 63.0312 3.29427 62.4453 4.10156C61.8594 4.89583 61.0521 5.70964 60.0234 6.54297C59.0078 7.36328 57.8034 8.17708 56.4102 8.98438C55.0299 9.79167 53.5391 10.5339 51.9375 11.2109C50.349 11.875 48.6888 12.4544 46.957 12.9492C45.2253 13.444 43.5065 13.7891 41.8008 13.9844C40.7721 15.3646 39.8542 16.7708 39.0469 18.2031C38.2526 19.6224 37.6667 20.9961 37.2891 22.3242ZM47.2109 5.23438C46.2865 4.98698 45.3034 4.77214 44.2617 4.58984C43.2201 4.39453 42.1589 4.2513 41.0781 4.16016C40.0104 4.05599 38.9427 4.01042 37.875 4.02344C36.8203 4.03646 35.8112 4.12109 34.8477 4.27734C33.6497 4.48568 32.582 4.8763 31.6445 5.44922C30.7201 6.00911 29.9779 6.66016 29.418 7.40234C28.8581 8.14453 28.513 8.91927 28.3828 9.72656C28.2526 10.5339 28.3828 11.276 28.7734 11.9531C29.1771 12.6302 29.8737 13.1901 30.8633 13.6328C31.8659 14.0625 33.207 14.2773 34.8867 14.2773C35.2643 14.2773 35.6484 14.2578 36.0391 14.2188C36.4427 14.1797 36.8529 14.1276 37.2695 14.0625C37.8815 13.2422 38.5586 12.4349 39.3008 11.6406C40.056 10.8464 40.8568 10.0781 41.7031 9.33594C42.5625 8.58073 43.4544 7.86458 44.3789 7.1875C45.3034 6.4974 46.2474 5.84635 47.2109 5.23438ZM43.7344 27.7148C44.5677 27.5065 45.362 27.2005 46.1172 26.7969C46.8854 26.3932 47.5951 25.9245 48.2461 25.3906C48.8971 24.8438 49.4896 24.2448 50.0234 23.5938C50.5573 22.9427 51.013 22.2786 51.3906 21.6016C51.7682 20.9245 52.0547 20.2474 52.25 19.5703C52.4583 18.8802 52.5625 18.2227 52.5625 17.5977C52.4974 16.6992 52.237 16.0352 51.7812 15.6055C51.3255 15.1758 50.6549 14.9609 49.7695 14.9609C49.1836 14.9609 48.5977 15.0456 48.0117 15.2148C47.4388 15.3841 46.8789 15.625 46.332 15.9375C45.7982 16.25 45.2773 16.6211 44.7695 17.0508C44.2617 17.4674 43.7799 17.9297 43.3242 18.4375C42.8034 19.0365 42.3411 19.7396 41.9375 20.5469C41.5339 21.3411 41.2214 22.181 41 23.0664C40.7786 23.9388 40.668 24.8112 40.668 25.6836C40.668 26.556 40.8047 27.3633 41.0781 28.1055C41.8854 28.0924 42.7708 27.9622 43.7344 27.7148ZM62.4062 1.83594C62.3672 1.35417 62.237 1.01562 62.0156 0.820312C61.7943 0.625 61.4753 0.527344 61.0586 0.527344C60.2773 0.527344 59.444 0.651042 58.5586 0.898438C57.6732 1.13281 56.7617 1.47135 55.8242 1.91406C54.8997 2.34375 53.9492 2.87109 52.9727 3.49609C52.0091 4.10807 51.0521 4.78516 50.1016 5.52734C50.6484 5.77474 51.1693 6.03516 51.6641 6.30859C52.1589 6.58203 52.6146 6.86849 53.0312 7.16797C53.0182 7.18099 52.9922 7.20703 52.9531 7.24609C52.9141 7.28516 52.875 7.33073 52.8359 7.38281C52.7969 7.42188 52.7578 7.46094 52.7188 7.5C52.6927 7.52604 52.6732 7.53255 52.6602 7.51953C52.3737 7.25911 51.9635 6.9987 51.4297 6.73828C50.8958 6.47786 50.2708 6.21745 49.5547 5.95703C48.3698 6.90755 47.2174 7.9362 46.0977 9.04297C44.9909 10.1497 43.9492 11.2956 42.9727 12.4805C42.8685 12.6237 42.7578 12.7604 42.6406 12.8906C42.5365 13.0078 42.4323 13.138 42.3281 13.2812C44.151 13.0208 45.9023 12.6432 47.582 12.1484C49.2617 11.6406 50.8307 11.0612 52.2891 10.4102C53.7474 9.75911 55.0755 9.0625 56.2734 8.32031C57.4844 7.5651 58.526 6.8099 59.3984 6.05469C60.2839 5.28646 60.9805 4.54427 61.4883 3.82812C62.0091 3.09896 62.3151 2.4349 62.4062 1.83594Z" fill="#212844"/>
<path d="M70.9805 17.168L71.3125 17.6172C70.6745 18.1641 70.1341 18.5742 69.6914 18.8477C69.2617 19.1081 68.8776 19.2904 68.5391 19.3945C68.3828 19.4336 68.2656 19.4661 68.1875 19.4922C68.1094 19.5182 67.9987 19.5378 67.8555 19.5508C67.7904 19.5638 67.7318 19.5703 67.6797 19.5703C67.6406 19.5703 67.6081 19.5703 67.582 19.5703H67.0352C66.918 19.8568 66.7878 20.1432 66.6445 20.4297C66.5013 20.7161 66.3451 21.0091 66.1758 21.3086C65.2643 22.9362 64.2552 24.2448 63.1484 25.2344C62.0677 26.1979 61.1497 26.6797 60.3945 26.6797C59.8086 26.6797 59.3659 26.4128 59.0664 25.8789C58.7799 25.3451 58.6367 24.681 58.6367 23.8867C58.6367 23.3398 58.7409 22.7604 58.9492 22.1484C59.1706 21.5234 59.4701 20.9049 59.8477 20.293H58.1875L54.5938 26.6797H52.2109L58.8516 14.9219H61.2148L58.4609 19.7852H60.1992C60.3034 19.6549 60.401 19.5247 60.4922 19.3945C60.5964 19.2643 60.7005 19.1341 60.8047 19.0039C61.2604 18.431 61.7617 17.8906 62.3086 17.3828C62.8555 16.875 63.4023 16.4323 63.9492 16.0547C64.4961 15.6641 65.0169 15.3581 65.5117 15.1367C66.0065 14.9154 66.4362 14.8112 66.8008 14.8242C67.0482 14.8242 67.25 14.9284 67.4062 15.1367C67.5755 15.332 67.6862 15.612 67.7383 15.9766C67.7904 16.3411 67.7773 16.7839 67.6992 17.3047C67.6211 17.8255 67.4648 18.4049 67.2305 19.043C68.2201 19.0039 69.4701 18.3789 70.9805 17.168ZM65.6289 21.1133C65.8112 20.7878 65.9674 20.4883 66.0977 20.2148C66.2409 19.9284 66.3646 19.668 66.4688 19.4336C66.1432 19.2773 65.9219 19.0299 65.8047 18.6914C65.6875 18.3398 65.6484 18.0013 65.6875 17.6758C65.7266 17.2982 65.9154 16.9076 66.2539 16.5039C66.5924 16.1133 66.931 15.8854 67.2695 15.8203C67.1654 15.4297 67.0091 15.2344 66.8008 15.2344C66.2018 15.2344 65.4987 15.6576 64.6914 16.5039C63.8841 17.3503 63.1615 18.3464 62.5234 19.4922C62.1979 20.0651 61.8919 20.6445 61.6055 21.2305C61.332 21.8034 61.0846 22.3893 60.8633 22.9883C60.4076 24.1992 60.1797 25.1237 60.1797 25.7617C60.1797 26.0352 60.2513 26.1719 60.3945 26.1719C61.0065 26.1719 61.8333 25.6836 62.875 24.707C63.9167 23.7174 64.8346 22.5195 65.6289 21.1133Z" fill="#212844"/>
<path d="M78.5781 20.6836H79.1641C78.9036 21.1003 78.6302 21.5104 78.3438 21.9141C78.0573 22.3177 77.6732 22.8255 77.1914 23.4375C76.7096 24.0495 76.2539 24.5833 75.8242 25.0391C75.4076 25.4818 74.9583 25.8659 74.4766 26.1914C73.9948 26.5169 73.5781 26.6797 73.2266 26.6797C73.0964 26.6797 72.9661 26.6667 72.8359 26.6406C72.7057 26.6016 72.5495 26.5299 72.3672 26.4258C72.1979 26.3216 72.0482 26.1849 71.918 26.0156C71.8008 25.8464 71.6966 25.6055 71.6055 25.293C71.5143 24.9805 71.4688 24.6159 71.4688 24.1992C71.4688 23.7695 71.638 23.2292 71.9766 22.5781C72.3281 21.9271 72.7513 21.276 73.2461 20.625C73.7409 19.9609 74.2357 19.3229 74.7305 18.7109C75.2253 18.0859 75.6419 17.513 75.9805 16.9922C76.332 16.4714 76.5078 16.0938 76.5078 15.8594C76.5078 15.5859 76.4102 15.4492 76.2148 15.4492C75.8112 15.4492 75.2839 15.6966 74.6328 16.1914C73.9948 16.6732 73.3633 17.2591 72.7383 17.9492C72.1133 18.6393 71.5143 19.3359 70.9414 20.0391C70.3685 20.7292 69.9062 21.3151 69.5547 21.7969L69.0273 22.5391L58.8711 38.8477H56.7031L66.1172 23.8281L67.7773 20.7227L71.3906 14.9219H73.5977L73.5586 14.9805C73.1029 15.7747 72.2891 17.1094 71.1172 18.9844C73.2656 16.2109 75.0625 14.8242 76.5078 14.8242C76.9245 14.8242 77.2695 14.9544 77.543 15.2148C77.8294 15.4753 77.9727 15.8919 77.9727 16.4648C77.9727 16.9466 77.7904 17.5326 77.4258 18.2227C77.0742 18.9128 76.6445 19.6029 76.1367 20.293C75.6419 20.9831 75.1406 21.6602 74.6328 22.3242C74.125 22.9883 73.6953 23.6133 73.3438 24.1992C72.9922 24.7721 72.8164 25.2214 72.8164 25.5469C72.8164 25.9635 72.9531 26.1719 73.2266 26.1719C73.5651 26.1719 73.9818 25.9766 74.4766 25.5859C74.9714 25.1953 75.4857 24.681 76.0195 24.043C76.5664 23.4049 77.0352 22.8255 77.4258 22.3047C77.8294 21.7708 78.2135 21.2305 78.5781 20.6836Z" fill="#212844"/>
<path d="M89.3008 20.6836H89.8867C89.6133 21.1003 89.3398 21.5104 89.0664 21.9141C88.793 22.3177 88.4154 22.8255 87.9336 23.4375C87.4518 24.0495 86.9961 24.5833 86.5664 25.0391C86.1497 25.4818 85.7005 25.8659 85.2188 26.1914C84.737 26.5169 84.3203 26.6797 83.9688 26.6797C83.8385 26.6797 83.7083 26.6667 83.5781 26.6406C83.4479 26.6016 83.2917 26.5299 83.1094 26.4258C82.9401 26.3216 82.7904 26.1849 82.6602 26.0156C82.543 25.8464 82.4388 25.6055 82.3477 25.293C82.2565 24.9805 82.2109 24.6159 82.2109 24.1992C82.2109 23.7695 82.3802 23.2292 82.7188 22.5781C83.0703 21.9271 83.4935 21.276 83.9883 20.625C84.4831 19.9609 84.9779 19.3229 85.4727 18.7109C85.9674 18.0859 86.3841 17.513 86.7227 16.9922C87.0742 16.4714 87.25 16.0938 87.25 15.8594C87.25 15.5859 87.1523 15.4492 86.957 15.4492C86.5534 15.4492 86.026 15.6966 85.375 16.1914C84.737 16.6732 84.1055 17.2591 83.4805 17.9492C82.8555 18.6393 82.2565 19.3359 81.6836 20.0391C81.1107 20.7292 80.6484 21.3151 80.2969 21.7969L79.7695 22.5391L77.3867 26.582H75.1016L76.8984 23.8281L78.5195 20.7227L82.0938 14.9219H84.3398C84.2878 15.013 84.151 15.2279 83.9297 15.5664C83.7214 15.9049 83.4805 16.2891 83.207 16.7188C82.9466 17.1484 82.7643 17.4479 82.6602 17.6172C82.1523 18.4375 81.7487 19.0755 81.4492 19.5312C83.7799 16.3932 85.7135 14.8242 87.25 14.8242C87.6667 14.8242 88.0117 14.9544 88.2852 15.2148C88.5716 15.4753 88.7148 15.8919 88.7148 16.4648C88.7148 16.9466 88.5326 17.5326 88.168 18.2227C87.8164 18.9128 87.3867 19.6029 86.8789 20.293C86.3841 20.9831 85.8828 21.6602 85.375 22.3242C84.8672 22.9883 84.4375 23.6133 84.0859 24.1992C83.7344 24.7721 83.5586 25.2214 83.5586 25.5469C83.5586 25.9635 83.6953 26.1719 83.9688 26.1719C84.2422 26.1719 84.5742 26.0352 84.9648 25.7617C85.3555 25.4753 85.7396 25.1367 86.1172 24.7461C86.5078 24.3424 86.918 23.8737 87.3477 23.3398C87.7773 22.806 88.1419 22.3372 88.4414 21.9336C88.7409 21.5169 89.0273 21.1003 89.3008 20.6836Z" fill="#212844"/>
<path d="M100.062 20.6836H100.648C100.388 21.1003 100.115 21.5104 99.8281 21.9141C99.5417 22.3177 99.1576 22.8255 98.6758 23.4375C98.194 24.0495 97.7383 24.5833 97.3086 25.0391C96.8919 25.4818 96.4427 25.8659 95.9609 26.1914C95.4792 26.5169 95.0625 26.6797 94.7109 26.6797C94.5807 26.6797 94.4505 26.6667 94.3203 26.6406C94.1901 26.6016 94.0339 26.5299 93.8516 26.4258C93.6823 26.3216 93.5326 26.1849 93.4023 26.0156C93.2852 25.8464 93.181 25.6055 93.0898 25.293C92.9987 24.9805 92.9531 24.6159 92.9531 24.1992C92.9531 23.7695 93.1224 23.2292 93.4609 22.5781C93.8125 21.9271 94.2357 21.276 94.7305 20.625C95.2253 19.9609 95.7201 19.3229 96.2148 18.7109C96.7096 18.0859 97.1263 17.513 97.4648 16.9922C97.8164 16.4714 97.9922 16.0938 97.9922 15.8594C97.9922 15.5859 97.8945 15.4492 97.6992 15.4492C97.2956 15.4492 96.7682 15.6966 96.1172 16.1914C95.4792 16.6732 94.8477 17.2591 94.2227 17.9492C93.5977 18.6393 92.9987 19.3359 92.4258 20.0391C91.8529 20.7292 91.3906 21.3151 91.0391 21.7969L90.5117 22.5391L80.3555 38.8477H78.1875L87.6016 23.8281L89.2617 20.7227L92.875 14.9219H95.082L95.043 14.9805C94.5872 15.7747 93.7734 17.1094 92.6016 18.9844C94.75 16.2109 96.5469 14.8242 97.9922 14.8242C98.4089 14.8242 98.7539 14.9544 99.0273 15.2148C99.3138 15.4753 99.457 15.8919 99.457 16.4648C99.457 16.9466 99.2747 17.5326 98.9102 18.2227C98.5586 18.9128 98.1289 19.6029 97.6211 20.293C97.1263 20.9831 96.625 21.6602 96.1172 22.3242C95.6094 22.9883 95.1797 23.6133 94.8281 24.1992C94.4766 24.7721 94.3008 25.2214 94.3008 25.5469C94.3008 25.9635 94.4375 26.1719 94.7109 26.1719C95.0495 26.1719 95.4661 25.9766 95.9609 25.5859C96.4557 25.1953 96.9701 24.681 97.5039 24.043C98.0508 23.4049 98.5195 22.8255 98.9102 22.3047C99.3138 21.7708 99.6979 21.2305 100.062 20.6836Z" fill="#212844"/>
<path d="M111.254 20.6836H111.84C111.736 20.8529 111.592 21.0742 111.41 21.3477C111.241 21.6081 110.902 22.0833 110.395 22.7734C109.9 23.4635 109.424 24.0755 108.969 24.6094C108.526 25.1302 108.025 25.6055 107.465 26.0352C106.918 26.4648 106.456 26.6797 106.078 26.6797C105.648 26.6797 105.264 26.4388 104.926 25.957C104.587 25.4753 104.418 24.7852 104.418 23.8867C104.418 23.6003 104.496 23.2292 104.652 22.7734C102.634 25.3776 101.254 26.6797 100.512 26.6797C100.095 26.6797 99.7174 26.4388 99.3789 25.957C99.0404 25.4753 98.8711 24.7852 98.8711 23.8867C98.8711 23.4831 99.0339 22.8971 99.3594 22.1289C99.6849 21.3607 100.076 20.5794 100.531 19.7852C101 18.9779 101.469 18.2031 101.938 17.4609C102.406 16.7188 102.803 16.1133 103.129 15.6445L103.617 14.9219H106.098C105.941 15.1562 105.733 15.4622 105.473 15.8398C105.212 16.2174 104.75 16.9271 104.086 17.9688C103.422 18.9974 102.836 19.9479 102.328 20.8203C101.82 21.6927 101.358 22.5911 100.941 23.5156C100.525 24.4271 100.316 25.1042 100.316 25.5469C100.316 25.8854 100.453 26.0547 100.727 26.0547C101.312 26.0547 102.914 24.3164 105.531 20.8398C105.948 20.0326 106.456 19.1406 107.055 18.1641C107.667 17.1745 108.168 16.3867 108.559 15.8008L109.164 14.9219H111.645C111.488 15.1562 111.273 15.4622 111 15.8398C110.74 16.2174 110.277 16.9271 109.613 17.9688C108.949 18.9974 108.363 19.9479 107.855 20.8203C107.361 21.6927 106.905 22.5911 106.488 23.5156C106.072 24.4271 105.863 25.1042 105.863 25.5469C105.863 25.8854 106 26.0547 106.273 26.0547C106.508 26.0547 106.827 25.8854 107.23 25.5469C107.634 25.2083 108.025 24.8242 108.402 24.3945C108.78 23.9648 109.197 23.457 109.652 22.8711C110.108 22.2852 110.44 21.8424 110.648 21.543C110.87 21.2435 111.072 20.957 111.254 20.6836Z" fill="#212844"/>
<path d="M119.848 20.6836C118.923 22.0898 117.816 23.3529 116.527 24.4727C115.238 25.5924 113.956 26.4779 112.68 27.1289C112.927 27.819 112.96 28.5872 112.777 29.4336C112.595 30.2799 112.296 31.1263 111.879 31.9727C111.462 32.832 110.935 33.6654 110.297 34.4727C109.659 35.2799 109.008 35.9961 108.344 36.6211C107.667 37.2461 106.99 37.7409 106.312 38.1055C105.622 38.4831 105.03 38.6719 104.535 38.6719C103.91 38.6719 103.598 38.2747 103.598 37.4805C103.598 36.7253 103.865 35.8203 104.398 34.7656C104.919 33.724 105.57 32.7148 106.352 31.7383C107.133 30.7747 107.979 29.8763 108.891 29.043C109.802 28.2096 110.635 27.5911 111.391 27.1875C111.352 26.276 111.013 25.6641 110.375 25.3516L110.336 24.9219C111.104 24.5573 111.924 23.9974 112.797 23.2422C113.682 22.487 114.47 21.6927 115.16 20.8594C115.85 20.026 116.43 19.1927 116.898 18.3594C117.367 17.526 117.602 16.8424 117.602 16.3086C117.615 16.0352 117.569 15.8008 117.465 15.6055C117.361 15.3971 117.204 15.293 116.996 15.293C116.697 15.293 116.358 15.4297 115.98 15.7031C115.616 15.9766 115.193 16.3997 114.711 16.9727C114.229 17.5326 113.799 18.0599 113.422 18.5547C113.044 19.0495 112.556 19.7135 111.957 20.5469C111.801 20.7682 111.684 20.931 111.605 21.0352L111 21.0742C112.276 19.2253 113.214 17.9427 113.812 17.2266C115.154 15.625 116.273 14.8242 117.172 14.8242C118.201 14.8242 118.852 15.1758 119.125 15.8789C119.398 16.582 119.236 17.5586 118.637 18.8086C118.285 19.5508 117.615 20.3841 116.625 21.3086C115.648 22.2331 114.639 23.0469 113.598 23.75C112.556 24.4401 111.684 24.9219 110.98 25.1953C111.671 25.5729 112.172 26.0677 112.484 26.6797C113.643 26.1198 114.828 25.319 116.039 24.2773C117.263 23.2357 118.331 22.0378 119.242 20.6836H119.848ZM104.398 38.2031C104.984 38.2031 105.681 37.8255 106.488 37.0703C107.283 36.3281 108.038 35.4232 108.754 34.3555C109.457 33.3008 110.069 32.1484 110.59 30.8984C111.098 29.6615 111.371 28.5807 111.41 27.6562C110.29 28.3594 109.164 29.3229 108.031 30.5469C106.898 31.7839 105.961 33.0534 105.219 34.3555C104.477 35.6706 104.105 36.7708 104.105 37.6562C104.105 38.0208 104.203 38.2031 104.398 38.2031Z" fill="#212844"/>
<path d="M134.301 20.7422C133.923 21.263 133.559 21.7643 133.207 22.2461C132.855 22.7148 132.51 23.1576 132.172 23.5742C131.833 23.9909 131.488 24.3815 131.137 24.7461C130.798 25.1107 130.46 25.4557 130.121 25.7812C129.444 26.4193 128.923 26.7383 128.559 26.7383C128.35 26.7383 128.148 26.6797 127.953 26.5625C127.758 26.4323 127.582 26.25 127.426 26.0156C127.27 25.7812 127.146 25.4948 127.055 25.1562C126.964 24.8047 126.918 24.401 126.918 23.9453C126.918 23.5156 127.081 22.9297 127.406 22.1875C127.732 21.4323 128.122 20.651 128.578 19.8438C128.682 19.6745 128.773 19.5117 128.852 19.3555C128.943 19.1862 129.04 19.0234 129.145 18.8672C128.793 19.1276 128.415 19.349 128.012 19.5312C127.608 19.7135 127.178 19.8307 126.723 19.8828C126.827 20.3646 126.801 20.9245 126.645 21.5625C126.462 22.3177 126.156 23.0143 125.727 23.6523C125.31 24.2904 124.815 24.8438 124.242 25.3125C123.669 25.7682 123.051 26.1328 122.387 26.4062C121.723 26.6667 121.065 26.7969 120.414 26.7969C119.932 26.849 119.548 26.7969 119.262 26.6406C118.975 26.4844 118.754 26.263 118.598 25.9766C118.441 25.6901 118.35 25.3646 118.324 25C118.285 24.6224 118.285 24.2513 118.324 23.8867C118.363 23.5091 118.435 23.151 118.539 22.8125C118.63 22.474 118.728 22.194 118.832 21.9727C119.392 20.5664 120.017 19.2969 120.707 18.1641C121.397 17.0182 122.055 15.9375 122.68 14.9219H124.984C124.932 14.987 124.691 15.3776 124.262 16.0938C123.832 16.7969 123.22 17.8776 122.426 19.3359C122.882 18.9323 123.324 18.6393 123.754 18.457C124.197 18.2747 124.6 18.1966 124.965 18.2227C125.342 18.2357 125.668 18.3464 125.941 18.5547C126.228 18.75 126.443 19.0234 126.586 19.375C127.224 19.349 127.836 19.1536 128.422 18.7891C129.008 18.4115 129.522 18.0013 129.965 17.5586C130.186 17.181 130.401 16.8424 130.609 16.543C130.818 16.2305 131.007 15.9505 131.176 15.7031L131.664 14.9805H134.145C134.066 15.0977 133.975 15.2344 133.871 15.3906C133.767 15.5469 133.65 15.7161 133.52 15.8984C133.389 16.0807 133.207 16.3542 132.973 16.7188C132.751 17.0703 132.471 17.5065 132.133 18.0273C131.794 18.5482 131.482 19.043 131.195 19.5117C130.909 19.9805 130.635 20.4362 130.375 20.8789C130.115 21.3216 129.867 21.7708 129.633 22.2266C129.411 22.6693 129.197 23.1185 128.988 23.5742C128.572 24.5117 128.363 25.1888 128.363 25.6055C128.363 25.944 128.5 26.1133 128.773 26.1133C129.112 26.1133 129.737 25.599 130.648 24.5703C131.586 23.5156 132.608 22.2396 133.715 20.7422H134.301ZM121.195 21.6797C120.987 22.0833 120.785 22.5651 120.59 23.125C120.395 23.6719 120.251 24.1927 120.16 24.6875C120.082 25.1823 120.082 25.5924 120.16 25.918C120.238 26.2435 120.447 26.3867 120.785 26.3477C121.137 26.3086 121.495 26.1393 121.859 25.8398C122.237 25.5273 122.595 25.1432 122.934 24.6875C123.285 24.2318 123.604 23.7305 123.891 23.1836C124.19 22.6237 124.438 22.0703 124.633 21.5234C124.737 21.25 124.835 20.9245 124.926 20.5469C125.03 20.1562 125.082 19.8177 125.082 19.5312C125.069 19.1927 124.965 18.9714 124.77 18.8672C124.574 18.75 124.32 18.7305 124.008 18.8086C123.708 18.8867 123.376 19.0495 123.012 19.2969C122.66 19.5443 122.309 19.8568 121.957 20.2344C121.827 20.4557 121.697 20.6901 121.566 20.9375C121.449 21.1719 121.326 21.4193 121.195 21.6797Z" fill="#212844"/>
<path d="M153.375 22.7547C152.142 22.7547 150.6 22.363 148.75 21.5797C147.45 21.0297 146.425 20.638 145.675 20.4047C144.942 20.1547 144.183 20.0297 143.4 20.0297C142.5 20.0297 141.65 20.2214 140.85 20.6047C140.067 20.9714 139.258 21.4297 138.425 21.9797C138.358 22.0297 138.3 22.0547 138.25 22.0547C138.2 22.0547 138.142 22.0297 138.075 21.9797C138.025 21.9297 138 21.888 138 21.8547C138 21.8214 138.017 21.7797 138.05 21.7297C138.6 20.9797 139.4 20.2714 140.45 19.6047C141.517 18.9214 142.733 18.5797 144.1 18.5797C145.35 18.5797 146.9 18.9714 148.75 19.7547L149.3 19.9797C150.433 20.4464 151.333 20.788 152 21.0047C152.667 21.2214 153.358 21.3297 154.075 21.3297C154.975 21.3297 155.817 21.1464 156.6 20.7797C157.383 20.3964 158.2 19.9214 159.05 19.3547C159.133 19.3047 159.192 19.2797 159.225 19.2797C159.275 19.2797 159.325 19.3047 159.375 19.3547C159.442 19.4047 159.475 19.4464 159.475 19.4797C159.475 19.513 159.458 19.5547 159.425 19.6047C158.875 20.3547 158.067 21.0714 157 21.7547C155.95 22.4214 154.742 22.7547 153.375 22.7547Z" fill="#212844"/>
</svg>
