<svg width="149" height="28" viewBox="0 0 149 28" fill="none" xmlns="http://www.w3.org/2000/svg">
<path d="M15.375 17.733C14.1417 17.733 12.6 17.3413 10.75 16.558C9.45 16.008 8.425 15.6163 7.675 15.383C6.94167 15.133 6.18333 15.008 5.4 15.008C4.5 15.008 3.65 15.1997 2.85 15.583C2.06667 15.9497 1.25833 16.408 0.425 16.958C0.358333 17.008 0.3 17.033 0.25 17.033C0.2 17.033 0.141667 17.008 0.0750002 16.958C0.0250001 16.908 0 16.8663 0 16.833C0 16.7997 0.0166667 16.758 0.0500001 16.708C0.6 15.958 1.4 15.2497 2.45 14.583C3.51667 13.8997 4.73333 13.558 6.1 13.558C7.35 13.558 8.9 13.9497 10.75 14.733L11.3 14.958C12.4333 15.4247 13.3333 15.7663 14 15.983C14.6667 16.1997 15.3583 16.308 16.075 16.308C16.975 16.308 17.8167 16.1247 18.6 15.758C19.3833 15.3747 20.2 14.8997 21.05 14.333C21.1333 14.283 21.1917 14.258 21.225 14.258C21.275 14.258 21.325 14.283 21.375 14.333C21.4417 14.383 21.475 14.4247 21.475 14.458C21.475 14.4913 21.4583 14.533 21.425 14.583C20.875 15.333 20.0667 16.0497 19 16.733C17.95 17.3997 16.7417 17.733 15.375 17.733Z" fill="#212844"/>
<path d="M39.06 21.756C39.06 22.512 39.144 23.1 39.312 23.52C39.508 23.912 39.774 24.192 40.11 24.36C40.474 24.528 40.908 24.626 41.412 24.654C41.916 24.654 42.476 24.654 43.092 24.654V25.158H32.466V24.654C33.11 24.654 33.684 24.64 34.188 24.612C34.692 24.584 35.112 24.486 35.448 24.318C35.784 24.122 36.036 23.828 36.204 23.436C36.4 23.044 36.498 22.484 36.498 21.756V6.762C36.498 6.51 36.484 6.23 36.456 5.922C36.428 5.586 36.372 5.278 36.288 4.998C36.204 4.69 36.092 4.438 35.952 4.242C35.812 4.046 35.616 3.948 35.364 3.948C34.972 3.948 34.482 4.074 33.894 4.326C33.306 4.578 32.83 4.788 32.466 4.956L32.214 4.452L38.64 1.47L39.06 1.722V21.756Z" fill="#212844"/>
<path d="M60.4767 2.058L60.9387 2.604L51.4887 25.746L48.2967 27.468L48.0027 27.174L59.5107 4.494L59.3427 4.284C57.0747 4.284 55.1007 4.298 53.4207 4.326C51.7407 4.354 50.4527 4.396 49.5567 4.452C48.1007 4.48 47.0507 4.788 46.4067 5.376C45.7907 5.964 45.2867 6.874 44.8947 8.106L44.3907 8.064L45.9447 0L46.3647 0.0840014C46.3647 0.168 46.3647 0.238 46.3647 0.294001C46.3647 0.966001 46.6027 1.428 47.0787 1.68C47.5547 1.932 48.1287 2.058 48.8007 2.058H60.4767Z" fill="#212844"/>
<path d="M65.7635 13.734C65.2035 13.734 64.7415 13.566 64.3775 13.23C64.0415 12.894 63.8735 12.432 63.8735 11.844C63.8735 11.284 64.0415 10.85 64.3775 10.542C64.7415 10.234 65.2035 10.08 65.7635 10.08C66.3235 10.08 66.7715 10.234 67.1075 10.542C67.4435 10.85 67.6115 11.284 67.6115 11.844C67.6115 12.432 67.4435 12.894 67.1075 13.23C66.7995 13.566 66.3515 13.734 65.7635 13.734ZM65.7635 21.882C66.3235 21.882 66.7715 22.036 67.1075 22.344C67.4435 22.652 67.6115 23.086 67.6115 23.646C67.6115 24.234 67.4435 24.696 67.1075 25.032C66.7995 25.368 66.3515 25.536 65.7635 25.536C65.2035 25.536 64.7415 25.368 64.3775 25.032C64.0415 24.696 63.8735 24.234 63.8735 23.646C63.8735 23.086 64.0415 22.652 64.3775 22.344C64.7415 22.036 65.2035 21.882 65.7635 21.882Z" fill="#212844"/>
<path d="M71.0666 13.356C71.0666 11.62 71.3046 10.024 71.7806 8.568C72.2566 7.084 72.9286 5.81 73.7966 4.746C74.6926 3.682 75.7566 2.856 76.9886 2.268C78.2206 1.652 79.5926 1.344 81.1046 1.344C82.6166 1.344 83.9746 1.652 85.1786 2.268C86.3826 2.884 87.4046 3.738 88.2446 4.83C89.1126 5.894 89.7706 7.168 90.2186 8.652C90.6946 10.136 90.9326 11.746 90.9326 13.482C90.9326 15.19 90.6946 16.8 90.2186 18.312C89.7706 19.796 89.1126 21.084 88.2446 22.176C87.4046 23.268 86.3686 24.136 85.1366 24.78C83.9326 25.396 82.5746 25.704 81.0626 25.704C79.5506 25.704 78.1786 25.396 76.9466 24.78C75.7146 24.136 74.6646 23.268 73.7966 22.176C72.9286 21.084 72.2566 19.782 71.7806 18.27C71.3046 16.758 71.0666 15.12 71.0666 13.356ZM87.8246 14.112C87.8246 12.74 87.6986 11.34 87.4466 9.912C87.2226 8.456 86.8306 7.14 86.2706 5.964C85.7106 4.788 84.9686 3.822 84.0446 3.066C83.1486 2.31 82.0146 1.932 80.6426 1.932C79.4106 1.932 78.3746 2.282 77.5346 2.982C76.6946 3.654 76.0086 4.536 75.4766 5.628C74.9726 6.692 74.6086 7.882 74.3846 9.198C74.1606 10.486 74.0486 11.76 74.0486 13.02C74.0486 14.448 74.1886 15.876 74.4686 17.304C74.7486 18.732 75.1826 20.034 75.7706 21.21C76.3866 22.358 77.1706 23.296 78.1226 24.024C79.0746 24.724 80.2226 25.074 81.5666 25.074C82.8546 25.074 83.9046 24.738 84.7166 24.066C85.5286 23.394 86.1586 22.54 86.6066 21.504C87.0826 20.44 87.4046 19.264 87.5726 17.976C87.7406 16.66 87.8246 15.372 87.8246 14.112Z" fill="#212844"/>
<path d="M93.2971 13.356C93.2971 11.62 93.5351 10.024 94.0111 8.568C94.4871 7.084 95.1591 5.81 96.0271 4.746C96.9231 3.682 97.9871 2.856 99.2191 2.268C100.451 1.652 101.823 1.344 103.335 1.344C104.847 1.344 106.205 1.652 107.409 2.268C108.613 2.884 109.635 3.738 110.475 4.83C111.343 5.894 112.001 7.168 112.449 8.652C112.925 10.136 113.163 11.746 113.163 13.482C113.163 15.19 112.925 16.8 112.449 18.312C112.001 19.796 111.343 21.084 110.475 22.176C109.635 23.268 108.599 24.136 107.367 24.78C106.163 25.396 104.805 25.704 103.293 25.704C101.781 25.704 100.409 25.396 99.1771 24.78C97.9451 24.136 96.8951 23.268 96.0271 22.176C95.1591 21.084 94.4871 19.782 94.0111 18.27C93.5351 16.758 93.2971 15.12 93.2971 13.356ZM110.055 14.112C110.055 12.74 109.929 11.34 109.677 9.912C109.453 8.456 109.061 7.14 108.501 5.964C107.941 4.788 107.199 3.822 106.275 3.066C105.379 2.31 104.245 1.932 102.873 1.932C101.641 1.932 100.605 2.282 99.7651 2.982C98.9251 3.654 98.2391 4.536 97.7071 5.628C97.2031 6.692 96.8391 7.882 96.6151 9.198C96.3911 10.486 96.2791 11.76 96.2791 13.02C96.2791 14.448 96.4191 15.876 96.6991 17.304C96.9791 18.732 97.4131 20.034 98.0011 21.21C98.6171 22.358 99.4011 23.296 100.353 24.024C101.305 24.724 102.453 25.074 103.797 25.074C105.085 25.074 106.135 24.738 106.947 24.066C107.759 23.394 108.389 22.54 108.837 21.504C109.313 20.44 109.635 19.264 109.803 17.976C109.971 16.66 110.055 15.372 110.055 14.112Z" fill="#212844"/>
<path d="M142.727 17.733C141.493 17.733 139.952 17.3413 138.102 16.558C136.802 16.008 135.777 15.6163 135.027 15.383C134.293 15.133 133.535 15.008 132.752 15.008C131.852 15.008 131.002 15.1997 130.202 15.583C129.418 15.9497 128.61 16.408 127.777 16.958C127.71 17.008 127.652 17.033 127.602 17.033C127.552 17.033 127.493 17.008 127.427 16.958C127.377 16.908 127.352 16.8663 127.352 16.833C127.352 16.7997 127.368 16.758 127.402 16.708C127.952 15.958 128.752 15.2497 129.802 14.583C130.868 13.8997 132.085 13.558 133.452 13.558C134.702 13.558 136.252 13.9497 138.102 14.733L138.652 14.958C139.785 15.4247 140.685 15.7663 141.352 15.983C142.018 16.1997 142.71 16.308 143.427 16.308C144.327 16.308 145.168 16.1247 145.952 15.758C146.735 15.3747 147.552 14.8997 148.402 14.333C148.485 14.283 148.543 14.258 148.577 14.258C148.627 14.258 148.677 14.283 148.727 14.333C148.793 14.383 148.827 14.4247 148.827 14.458C148.827 14.4913 148.81 14.533 148.777 14.583C148.227 15.333 147.418 16.0497 146.352 16.733C145.302 17.3997 144.093 17.733 142.727 17.733Z" fill="#212844"/>
</svg>
