<svg width="151" height="27" viewBox="0 0 151 27" fill="none" xmlns="http://www.w3.org/2000/svg">
<path d="M15.375 18.027C14.1417 18.027 12.6 17.6353 10.75 16.852C9.45 16.302 8.425 15.9103 7.675 15.677C6.94167 15.427 6.18333 15.302 5.4 15.302C4.5 15.302 3.65 15.4937 2.85 15.877C2.06667 16.2437 1.25833 16.702 0.425 17.252C0.358333 17.302 0.3 17.327 0.25 17.327C0.2 17.327 0.141667 17.302 0.0750002 17.252C0.0250001 17.202 0 17.1603 0 17.127C0 17.0937 0.0166667 17.052 0.0500001 17.002C0.6 16.252 1.4 15.5437 2.45 14.877C3.51667 14.1937 4.73333 13.852 6.1 13.852C7.35 13.852 8.9 14.2437 10.75 15.027L11.3 15.252C12.4333 15.7187 13.3333 16.0603 14 16.277C14.6667 16.4937 15.3583 16.602 16.075 16.602C16.975 16.602 17.8167 16.4187 18.6 16.052C19.3833 15.6687 20.2 15.1937 21.05 14.627C21.1333 14.577 21.1917 14.552 21.225 14.552C21.275 14.552 21.325 14.577 21.375 14.627C21.4417 14.677 21.475 14.7187 21.475 14.752C21.475 14.7853 21.4583 14.827 21.425 14.877C20.875 15.627 20.0667 16.3437 19 17.027C17.95 17.6937 16.7417 18.027 15.375 18.027Z" fill="#212844"/>
<path d="M39.06 22.05C39.06 22.806 39.144 23.394 39.312 23.814C39.508 24.206 39.774 24.486 40.11 24.654C40.474 24.822 40.908 24.92 41.412 24.948C41.916 24.948 42.476 24.948 43.092 24.948V25.452H32.466V24.948C33.11 24.948 33.684 24.934 34.188 24.906C34.692 24.878 35.112 24.78 35.448 24.612C35.784 24.416 36.036 24.122 36.204 23.73C36.4 23.338 36.498 22.778 36.498 22.05V7.056C36.498 6.804 36.484 6.524 36.456 6.216C36.428 5.88 36.372 5.572 36.288 5.292C36.204 4.984 36.092 4.732 35.952 4.536C35.812 4.34 35.616 4.242 35.364 4.242C34.972 4.242 34.482 4.368 33.894 4.62C33.306 4.872 32.83 5.082 32.466 5.25L32.214 4.746L38.64 1.764L39.06 2.016V22.05Z" fill="#212844"/>
<path d="M56.3607 13.188C58.0407 13.188 59.4127 13.65 60.4767 14.574C61.5407 15.47 62.0727 16.8 62.0727 18.564C62.0727 19.712 61.8067 20.748 61.2747 21.672C60.7707 22.596 60.0987 23.394 59.2587 24.066C58.4467 24.71 57.5087 25.2 56.4447 25.536C55.4087 25.9 54.3587 26.082 53.2947 26.082C51.8667 26.082 50.6067 25.774 49.5147 25.158C48.4227 24.542 47.5127 23.73 46.7847 22.722C46.0567 21.714 45.5107 20.58 45.1467 19.32C44.7827 18.032 44.6007 16.744 44.6007 15.456C44.6007 13.272 44.9787 11.284 45.7347 9.492C46.5187 7.7 47.5687 6.146 48.8847 4.83C50.2007 3.486 51.7407 2.408 53.5047 1.596C55.2967 0.784 57.2007 0.252 59.2167 0L59.3007 0.42C57.1727 0.784 55.3667 1.358 53.8827 2.142C52.3987 2.898 51.1807 3.878 50.2287 5.082C49.3047 6.258 48.6187 7.644 48.1707 9.24C47.7507 10.836 47.5407 12.628 47.5407 14.616C47.5407 15.568 47.6807 16.66 47.9607 17.892C48.2407 19.124 48.6607 20.286 49.2207 21.378C49.8087 22.47 50.5367 23.394 51.4047 24.15C52.3007 24.906 53.3367 25.284 54.5127 25.284C55.2967 25.284 55.9687 25.13 56.5287 24.822C57.1167 24.486 57.5927 24.052 57.9567 23.52C58.3207 22.988 58.5867 22.386 58.7547 21.714C58.9227 21.042 59.0067 20.356 59.0067 19.656C59.0067 18.984 58.9227 18.34 58.7547 17.724C58.6147 17.08 58.3767 16.506 58.0407 16.002C57.7327 15.498 57.3127 15.106 56.7807 14.826C56.2487 14.518 55.6047 14.364 54.8487 14.364C53.6167 14.364 52.6367 14.602 51.9087 15.078C51.2087 15.526 50.6627 15.946 50.2707 16.338L49.9347 16.002C50.6907 15.078 51.6147 14.378 52.7067 13.902C53.7987 13.426 55.0167 13.188 56.3607 13.188Z" fill="#212844"/>
<path d="M67.076 14.028C66.516 14.028 66.054 13.86 65.69 13.524C65.354 13.188 65.186 12.726 65.186 12.138C65.186 11.578 65.354 11.144 65.69 10.836C66.054 10.528 66.516 10.374 67.076 10.374C67.636 10.374 68.084 10.528 68.42 10.836C68.756 11.144 68.924 11.578 68.924 12.138C68.924 12.726 68.756 13.188 68.42 13.524C68.112 13.86 67.664 14.028 67.076 14.028ZM67.076 22.176C67.636 22.176 68.084 22.33 68.42 22.638C68.756 22.946 68.924 23.38 68.924 23.94C68.924 24.528 68.756 24.99 68.42 25.326C68.112 25.662 67.664 25.83 67.076 25.83C66.516 25.83 66.054 25.662 65.69 25.326C65.354 24.99 65.186 24.528 65.186 23.94C65.186 23.38 65.354 22.946 65.69 22.638C66.054 22.33 66.516 22.176 67.076 22.176Z" fill="#212844"/>
<path d="M72.3791 13.65C72.3791 11.914 72.6171 10.318 73.0931 8.862C73.5691 7.378 74.2411 6.104 75.1091 5.04C76.0051 3.976 77.0691 3.15 78.3011 2.562C79.5331 1.946 80.9051 1.638 82.4171 1.638C83.9291 1.638 85.2871 1.946 86.4911 2.562C87.6951 3.178 88.7171 4.032 89.5571 5.124C90.4251 6.188 91.0831 7.462 91.5311 8.946C92.0071 10.43 92.2451 12.04 92.2451 13.776C92.2451 15.484 92.0071 17.094 91.5311 18.606C91.0831 20.09 90.4251 21.378 89.5571 22.47C88.7171 23.562 87.6811 24.43 86.4491 25.074C85.2451 25.69 83.8871 25.998 82.3751 25.998C80.8631 25.998 79.4911 25.69 78.2591 25.074C77.0271 24.43 75.9771 23.562 75.1091 22.47C74.2411 21.378 73.5691 20.076 73.0931 18.564C72.6171 17.052 72.3791 15.414 72.3791 13.65ZM89.1371 14.406C89.1371 13.034 89.0111 11.634 88.7591 10.206C88.5351 8.75 88.1431 7.434 87.5831 6.258C87.0231 5.082 86.2811 4.116 85.3571 3.36C84.4611 2.604 83.3271 2.226 81.9551 2.226C80.7231 2.226 79.6871 2.576 78.8471 3.276C78.0071 3.948 77.3211 4.83 76.7891 5.922C76.2851 6.986 75.9211 8.176 75.6971 9.492C75.4731 10.78 75.3611 12.054 75.3611 13.314C75.3611 14.742 75.5011 16.17 75.7811 17.598C76.0611 19.026 76.4951 20.328 77.0831 21.504C77.6991 22.652 78.4831 23.59 79.4351 24.318C80.3871 25.018 81.5351 25.368 82.8791 25.368C84.1671 25.368 85.2171 25.032 86.0291 24.36C86.8411 23.688 87.4711 22.834 87.9191 21.798C88.3951 20.734 88.7171 19.558 88.8851 18.27C89.0531 16.954 89.1371 15.666 89.1371 14.406Z" fill="#212844"/>
<path d="M94.6096 13.65C94.6096 11.914 94.8476 10.318 95.3236 8.862C95.7996 7.378 96.4716 6.104 97.3396 5.04C98.2356 3.976 99.2996 3.15 100.532 2.562C101.764 1.946 103.136 1.638 104.648 1.638C106.16 1.638 107.518 1.946 108.722 2.562C109.926 3.178 110.948 4.032 111.788 5.124C112.656 6.188 113.314 7.462 113.762 8.946C114.238 10.43 114.476 12.04 114.476 13.776C114.476 15.484 114.238 17.094 113.762 18.606C113.314 20.09 112.656 21.378 111.788 22.47C110.948 23.562 109.912 24.43 108.68 25.074C107.476 25.69 106.118 25.998 104.606 25.998C103.094 25.998 101.722 25.69 100.49 25.074C99.2576 24.43 98.2076 23.562 97.3396 22.47C96.4716 21.378 95.7996 20.076 95.3236 18.564C94.8476 17.052 94.6096 15.414 94.6096 13.65ZM111.368 14.406C111.368 13.034 111.242 11.634 110.99 10.206C110.766 8.75 110.374 7.434 109.814 6.258C109.254 5.082 108.512 4.116 107.588 3.36C106.692 2.604 105.558 2.226 104.186 2.226C102.954 2.226 101.918 2.576 101.078 3.276C100.238 3.948 99.5516 4.83 99.0196 5.922C98.5156 6.986 98.1516 8.176 97.9276 9.492C97.7036 10.78 97.5916 12.054 97.5916 13.314C97.5916 14.742 97.7316 16.17 98.0116 17.598C98.2916 19.026 98.7256 20.328 99.3136 21.504C99.9296 22.652 100.714 23.59 101.666 24.318C102.618 25.018 103.766 25.368 105.11 25.368C106.398 25.368 107.448 25.032 108.26 24.36C109.072 23.688 109.702 22.834 110.15 21.798C110.626 20.734 110.948 19.558 111.116 18.27C111.284 16.954 111.368 15.666 111.368 14.406Z" fill="#212844"/>
<path d="M144.039 18.027C142.806 18.027 141.264 17.6353 139.414 16.852C138.114 16.302 137.089 15.9103 136.339 15.677C135.606 15.427 134.847 15.302 134.064 15.302C133.164 15.302 132.314 15.4937 131.514 15.877C130.731 16.2437 129.922 16.702 129.089 17.252C129.022 17.302 128.964 17.327 128.914 17.327C128.864 17.327 128.806 17.302 128.739 17.252C128.689 17.202 128.664 17.1603 128.664 17.127C128.664 17.0937 128.681 17.052 128.714 17.002C129.264 16.252 130.064 15.5437 131.114 14.877C132.181 14.1937 133.397 13.852 134.764 13.852C136.014 13.852 137.564 14.2437 139.414 15.027L139.964 15.252C141.097 15.7187 141.997 16.0603 142.664 16.277C143.331 16.4937 144.022 16.602 144.739 16.602C145.639 16.602 146.481 16.4187 147.264 16.052C148.047 15.6687 148.864 15.1937 149.714 14.627C149.797 14.577 149.856 14.552 149.889 14.552C149.939 14.552 149.989 14.577 150.039 14.627C150.106 14.677 150.139 14.7187 150.139 14.752C150.139 14.7853 150.122 14.827 150.089 14.877C149.539 15.627 148.731 16.3437 147.664 17.027C146.614 17.6937 145.406 18.027 144.039 18.027Z" fill="#212844"/>
</svg>
