<svg width="149" height="26" viewBox="0 0 149 26" fill="none" xmlns="http://www.w3.org/2000/svg">
<path d="M15.375 17.691C14.1417 17.691 12.6 17.2993 10.75 16.516C9.45 15.966 8.425 15.5743 7.675 15.341C6.94167 15.091 6.18333 14.966 5.4 14.966C4.5 14.966 3.65 15.1577 2.85 15.541C2.06667 15.9077 1.25833 16.366 0.425 16.916C0.358333 16.966 0.3 16.991 0.25 16.991C0.2 16.991 0.141667 16.966 0.0750002 16.916C0.0250001 16.866 0 16.8243 0 16.791C0 16.7577 0.0166667 16.716 0.0500001 16.666C0.6 15.916 1.4 15.2077 2.45 14.541C3.51667 13.8577 4.73333 13.516 6.1 13.516C7.35 13.516 8.9 13.9077 10.75 14.691L11.3 14.916C12.4333 15.3827 13.3333 15.7243 14 15.941C14.6667 16.1577 15.3583 16.266 16.075 16.266C16.975 16.266 17.8167 16.0827 18.6 15.716C19.3833 15.3327 20.2 14.8577 21.05 14.291C21.1333 14.241 21.1917 14.216 21.225 14.216C21.275 14.216 21.325 14.241 21.375 14.291C21.4417 14.341 21.475 14.3827 21.475 14.416C21.475 14.4493 21.4583 14.491 21.425 14.541C20.875 15.291 20.0667 16.0077 19 16.691C17.95 17.3577 16.7417 17.691 15.375 17.691Z" fill="#212844"/>
<path d="M39.06 21.714C39.06 22.47 39.144 23.058 39.312 23.478C39.508 23.87 39.774 24.15 40.11 24.318C40.474 24.486 40.908 24.584 41.412 24.612C41.916 24.612 42.476 24.612 43.092 24.612V25.116H32.466V24.612C33.11 24.612 33.684 24.598 34.188 24.57C34.692 24.542 35.112 24.444 35.448 24.276C35.784 24.08 36.036 23.786 36.204 23.394C36.4 23.002 36.498 22.442 36.498 21.714V6.72C36.498 6.468 36.484 6.188 36.456 5.88C36.428 5.544 36.372 5.236 36.288 4.956C36.204 4.648 36.092 4.396 35.952 4.2C35.812 4.004 35.616 3.906 35.364 3.906C34.972 3.906 34.482 4.032 33.894 4.284C33.306 4.536 32.83 4.746 32.466 4.914L32.214 4.41L38.64 1.428L39.06 1.68V21.714Z" fill="#212844"/>
<path d="M52.6647 11.382C53.8687 11.382 54.9467 11.564 55.8987 11.928C56.8507 12.264 57.6627 12.74 58.3347 13.356C59.0067 13.972 59.5247 14.714 59.8887 15.582C60.2527 16.45 60.4347 17.416 60.4347 18.48C60.4347 19.348 60.2387 20.23 59.8467 21.126C59.4827 22.022 58.9227 22.82 58.1667 23.52C57.4387 24.192 56.5567 24.724 55.5207 25.116C54.4847 25.536 53.3227 25.746 52.0347 25.746C51.8667 25.746 51.6987 25.746 51.5307 25.746C50.5787 25.718 49.7107 25.536 48.9267 25.2C48.1707 24.864 47.4987 24.444 46.9107 23.94C46.3227 23.408 45.8187 22.82 45.3987 22.176C45.0067 21.532 44.6987 20.902 44.4747 20.286L44.9787 20.076C45.5387 21.448 46.3647 22.624 47.4567 23.604C48.5487 24.556 49.8787 25.032 51.4467 25.032C52.4827 25.032 53.3647 24.85 54.0927 24.486C54.8487 24.122 55.4647 23.66 55.9407 23.1C56.4167 22.512 56.7667 21.854 56.9907 21.126C57.2147 20.398 57.3267 19.67 57.3267 18.942C57.3267 18.214 57.2427 17.486 57.0747 16.758C56.9067 16.002 56.6127 15.33 56.1927 14.742C55.8007 14.154 55.2827 13.664 54.6387 13.272C54.0227 12.88 53.2527 12.67 52.3287 12.642C52.1327 12.642 51.9367 12.642 51.7407 12.642C51.0127 12.642 50.2427 12.74 49.4307 12.936C48.6467 13.104 47.7227 13.384 46.6587 13.776L46.1967 13.482L48.0867 2.016H53.5047C54.9607 2.016 55.9687 1.848 56.5287 1.512C57.1167 1.176 57.4387 0.686002 57.4947 0.042002L57.8727 0L59.4267 8.022L58.9227 8.106C58.8107 7.63 58.6567 7.168 58.4607 6.72C58.2647 6.244 57.9707 5.838 57.5787 5.502C57.1867 5.138 56.6687 4.858 56.0247 4.662C55.4087 4.438 54.6107 4.326 53.6307 4.326L48.6327 4.2L47.2047 12.768C48.1567 12.264 49.0947 11.914 50.0187 11.718C50.9707 11.494 51.8527 11.382 52.6647 11.382Z" fill="#212844"/>
<path d="M65.5994 13.692C65.0394 13.692 64.5774 13.524 64.2134 13.188C63.8774 12.852 63.7094 12.39 63.7094 11.802C63.7094 11.242 63.8774 10.808 64.2134 10.5C64.5774 10.192 65.0394 10.038 65.5994 10.038C66.1594 10.038 66.6074 10.192 66.9434 10.5C67.2794 10.808 67.4474 11.242 67.4474 11.802C67.4474 12.39 67.2794 12.852 66.9434 13.188C66.6354 13.524 66.1874 13.692 65.5994 13.692ZM65.5994 21.84C66.1594 21.84 66.6074 21.994 66.9434 22.302C67.2794 22.61 67.4474 23.044 67.4474 23.604C67.4474 24.192 67.2794 24.654 66.9434 24.99C66.6354 25.326 66.1874 25.494 65.5994 25.494C65.0394 25.494 64.5774 25.326 64.2134 24.99C63.8774 24.654 63.7094 24.192 63.7094 23.604C63.7094 23.044 63.8774 22.61 64.2134 22.302C64.5774 21.994 65.0394 21.84 65.5994 21.84Z" fill="#212844"/>
<path d="M70.9026 13.314C70.9026 11.578 71.1406 9.982 71.6166 8.526C72.0926 7.042 72.7646 5.768 73.6326 4.704C74.5286 3.64 75.5926 2.814 76.8246 2.226C78.0566 1.61 79.4286 1.302 80.9406 1.302C82.4526 1.302 83.8106 1.61 85.0146 2.226C86.2186 2.842 87.2406 3.696 88.0806 4.788C88.9486 5.852 89.6066 7.126 90.0546 8.61C90.5306 10.094 90.7686 11.704 90.7686 13.44C90.7686 15.148 90.5306 16.758 90.0546 18.27C89.6066 19.754 88.9486 21.042 88.0806 22.134C87.2406 23.226 86.2046 24.094 84.9726 24.738C83.7686 25.354 82.4106 25.662 80.8986 25.662C79.3866 25.662 78.0146 25.354 76.7826 24.738C75.5506 24.094 74.5006 23.226 73.6326 22.134C72.7646 21.042 72.0926 19.74 71.6166 18.228C71.1406 16.716 70.9026 15.078 70.9026 13.314ZM87.6606 14.07C87.6606 12.698 87.5346 11.298 87.2826 9.87C87.0586 8.414 86.6666 7.098 86.1066 5.922C85.5466 4.746 84.8046 3.78 83.8806 3.024C82.9846 2.268 81.8506 1.89 80.4786 1.89C79.2466 1.89 78.2106 2.24 77.3706 2.94C76.5306 3.612 75.8446 4.494 75.3126 5.586C74.8086 6.65 74.4446 7.84 74.2206 9.156C73.9966 10.444 73.8846 11.718 73.8846 12.978C73.8846 14.406 74.0246 15.834 74.3046 17.262C74.5846 18.69 75.0186 19.992 75.6066 21.168C76.2226 22.316 77.0066 23.254 77.9586 23.982C78.9106 24.682 80.0586 25.032 81.4026 25.032C82.6906 25.032 83.7406 24.696 84.5526 24.024C85.3646 23.352 85.9946 22.498 86.4426 21.462C86.9186 20.398 87.2406 19.222 87.4086 17.934C87.5766 16.618 87.6606 15.33 87.6606 14.07Z" fill="#212844"/>
<path d="M93.133 13.314C93.133 11.578 93.371 9.982 93.847 8.526C94.323 7.042 94.995 5.768 95.863 4.704C96.759 3.64 97.823 2.814 99.055 2.226C100.287 1.61 101.659 1.302 103.171 1.302C104.683 1.302 106.041 1.61 107.245 2.226C108.449 2.842 109.471 3.696 110.311 4.788C111.179 5.852 111.837 7.126 112.285 8.61C112.761 10.094 112.999 11.704 112.999 13.44C112.999 15.148 112.761 16.758 112.285 18.27C111.837 19.754 111.179 21.042 110.311 22.134C109.471 23.226 108.435 24.094 107.203 24.738C105.999 25.354 104.641 25.662 103.129 25.662C101.617 25.662 100.245 25.354 99.013 24.738C97.781 24.094 96.731 23.226 95.863 22.134C94.995 21.042 94.323 19.74 93.847 18.228C93.371 16.716 93.133 15.078 93.133 13.314ZM109.891 14.07C109.891 12.698 109.765 11.298 109.513 9.87C109.289 8.414 108.897 7.098 108.337 5.922C107.777 4.746 107.035 3.78 106.111 3.024C105.215 2.268 104.081 1.89 102.709 1.89C101.477 1.89 100.441 2.24 99.601 2.94C98.761 3.612 98.075 4.494 97.543 5.586C97.039 6.65 96.675 7.84 96.451 9.156C96.227 10.444 96.115 11.718 96.115 12.978C96.115 14.406 96.255 15.834 96.535 17.262C96.815 18.69 97.249 19.992 97.837 21.168C98.453 22.316 99.237 23.254 100.189 23.982C101.141 24.682 102.289 25.032 103.633 25.032C104.921 25.032 105.971 24.696 106.783 24.024C107.595 23.352 108.225 22.498 108.673 21.462C109.149 20.398 109.471 19.222 109.639 17.934C109.807 16.618 109.891 15.33 109.891 14.07Z" fill="#212844"/>
<path d="M142.562 17.691C141.329 17.691 139.788 17.2993 137.938 16.516C136.638 15.966 135.613 15.5743 134.863 15.341C134.129 15.091 133.371 14.966 132.587 14.966C131.687 14.966 130.838 15.1577 130.038 15.541C129.254 15.9077 128.446 16.366 127.613 16.916C127.546 16.966 127.487 16.991 127.438 16.991C127.388 16.991 127.329 16.966 127.262 16.916C127.212 16.866 127.188 16.8243 127.188 16.791C127.188 16.7577 127.204 16.716 127.238 16.666C127.788 15.916 128.587 15.2077 129.637 14.541C130.704 13.8577 131.921 13.516 133.288 13.516C134.538 13.516 136.088 13.9077 137.938 14.691L138.488 14.916C139.621 15.3827 140.521 15.7243 141.188 15.941C141.854 16.1577 142.546 16.266 143.262 16.266C144.162 16.266 145.004 16.0827 145.788 15.716C146.571 15.3327 147.388 14.8577 148.238 14.291C148.321 14.241 148.379 14.216 148.413 14.216C148.463 14.216 148.512 14.241 148.562 14.291C148.629 14.341 148.663 14.3827 148.663 14.416C148.663 14.4493 148.646 14.491 148.613 14.541C148.063 15.291 147.254 16.0077 146.188 16.691C145.137 17.3577 143.929 17.691 142.562 17.691Z" fill="#212844"/>
</svg>
