<svg width="198" height="59" viewBox="0 0 198 59" fill="none" xmlns="http://www.w3.org/2000/svg">
<path d="M15.375 42.5398C14.1417 42.5398 12.6 42.1482 10.75 41.3648C9.45 40.8148 8.425 40.4232 7.675 40.1898C6.94167 39.9398 6.18333 39.8148 5.4 39.8148C4.5 39.8148 3.65 40.0065 2.85 40.3898C2.06667 40.7565 1.25833 41.2148 0.425 41.7648C0.358333 41.8148 0.3 41.8398 0.25 41.8398C0.2 41.8398 0.141667 41.8148 0.0750002 41.7648C0.0250001 41.7148 0 41.6732 0 41.6398C0 41.6065 0.0166667 41.5648 0.0500001 41.5148C0.6 40.7648 1.4 40.0565 2.45 39.3898C3.51667 38.7065 4.73333 38.3648 6.1 38.3648C7.35 38.3648 8.9 38.7565 10.75 39.5398L11.3 39.7648C12.4333 40.2315 13.3333 40.5732 14 40.7898C14.6667 41.0065 15.3583 41.1148 16.075 41.1148C16.975 41.1148 17.8167 40.9315 18.6 40.5648C19.3833 40.1815 20.2 39.7065 21.05 39.1398C21.1333 39.0898 21.1917 39.0648 21.225 39.0648C21.275 39.0648 21.325 39.0898 21.375 39.1398C21.4417 39.1898 21.475 39.2315 21.475 39.2648C21.475 39.2982 21.4583 39.3398 21.425 39.3898C20.875 40.1398 20.0667 40.8565 19 41.5398C17.95 42.2065 16.7417 42.5398 15.375 42.5398Z" fill="#212844"/>
<path d="M100.664 4.19922C99.4922 4.53776 98.3594 5.03255 97.2656 5.68359C96.1719 6.30859 95.1302 7.07682 94.1406 7.98828C95.9635 9.78516 97.487 11.8034 98.7109 14.043C99.9349 16.2565 100.807 18.6263 101.328 21.1523C101.849 23.6784 101.979 26.3086 101.719 29.043C101.484 31.7773 100.82 34.5378 99.7266 37.3242C98.4245 40.5534 96.6536 43.431 94.4141 45.957C92.2005 48.457 89.6484 50.5924 86.7578 52.3633C83.8932 54.1081 80.7682 55.4622 77.3828 56.4258C73.9974 57.3633 70.5078 57.8711 66.9141 57.9492C64.9609 57.9492 63.0729 57.7799 61.25 57.4414C59.4531 57.1289 57.6693 56.7383 55.8984 56.2695C55.3776 56.4779 54.8307 56.6732 54.2578 56.8555C53.7109 57.0378 53.151 57.2201 52.5781 57.4023C52.0833 57.5326 51.3672 57.6888 50.4297 57.8711C49.5182 58.0534 48.4766 58.2227 47.3047 58.3789C46.1589 58.5352 44.9219 58.6654 43.5938 58.7695C42.2656 58.8737 40.9375 58.9258 39.6094 58.9258C38.3073 58.9258 37.0573 58.8607 35.8594 58.7305C34.6615 58.6263 33.5938 58.418 32.6562 58.1055C31.7448 57.793 31.0156 57.3633 30.4688 56.8164C29.9219 56.2956 29.6484 55.6445 29.6484 54.8633C29.6484 54.2122 29.8958 53.6523 30.3906 53.1836C30.9115 52.7148 31.5104 52.3242 32.1875 52.0117C32.8906 51.6992 33.5938 51.4648 34.2969 51.3086C35.026 51.1523 35.612 51.0742 36.0547 51.0742H37.6562C39.2448 51.0742 40.7812 51.2044 42.2656 51.4648C43.776 51.7253 45.2474 52.0508 46.6797 52.4414C48.112 52.832 49.5312 53.2617 50.9375 53.7305C52.3438 54.1732 53.75 54.6029 55.1562 55.0195C57.6562 53.8997 59.8047 52.5456 61.6016 50.957C63.4245 49.3424 65.0781 47.5456 66.5625 45.5664C68.0469 43.5612 69.4531 41.3867 70.7812 39.043C72.1094 36.6992 73.5156 34.2122 75 31.582C75.9896 29.8372 77.0573 27.9622 78.2031 25.957C79.375 23.9518 80.651 21.9336 82.0312 19.9023C83.4115 17.8451 84.9089 15.8398 86.5234 13.8867C88.138 11.9336 89.9089 10.1367 91.8359 8.49609C90.3776 6.7513 88.5417 5.31901 86.3281 4.19922C83.2552 2.74089 80 1.88151 76.5625 1.62109C73.151 1.36068 69.7396 1.60807 66.3281 2.36328C62.9427 3.11849 59.6484 4.32943 56.4453 5.99609C53.2682 7.63672 50.3906 9.64193 47.8125 12.0117C45.2344 14.3555 43.0469 16.9987 41.25 19.9414C39.4531 22.8581 38.2552 25.9831 37.6562 29.3164C37.3958 30.8008 37.2396 32.2331 37.1875 33.6133C37.1615 34.9935 37.2786 36.2956 37.5391 37.5195C37.7995 38.7435 38.2292 39.8633 38.8281 40.8789C39.4271 41.8945 40.2214 42.7669 41.2109 43.4961C42.7734 44.668 44.4401 45.4232 46.2109 45.7617C48.0078 46.0742 49.8177 46.0612 51.6406 45.7227C53.4896 45.3841 55.3255 44.7591 57.1484 43.8477C58.9714 42.9362 60.7031 41.8424 62.3438 40.5664C64.0104 39.2643 65.5339 37.806 66.9141 36.1914C68.3203 34.5768 69.5052 32.9102 70.4688 31.1914C71.4323 29.4727 72.1484 27.7409 72.6172 25.9961C73.112 24.2513 73.2682 22.5716 73.0859 20.957C73.0078 19.7852 72.7734 18.6784 72.3828 17.6367C72.0182 16.569 71.4714 15.6445 70.7422 14.8633C70.013 14.082 69.1146 13.4701 68.0469 13.0273C66.9792 12.5846 65.7031 12.3763 64.2188 12.4023C62.4479 12.4284 60.7943 12.793 59.2578 13.4961C57.7214 14.1732 56.3542 15.0846 55.1562 16.2305C53.9583 17.3503 52.9557 18.6263 52.1484 20.0586C51.3411 21.4909 50.7812 22.9492 50.4688 24.4336C50.3385 24.6419 50.2604 24.8503 50.2344 25.0586C50.2344 25.2669 50.2344 25.5013 50.2344 25.7617C50.2604 26.2565 50.1432 26.6341 49.8828 26.8945C49.6224 27.1289 49.362 27.2201 49.1016 27.168C48.8672 27.0898 48.6979 26.8555 48.5938 26.4648C48.4896 26.0482 48.6068 25.4492 48.9453 24.668C49.4141 22.8451 50.1302 21.1263 51.0938 19.5117C52.0573 17.8711 53.2161 16.4258 54.5703 15.1758C55.9245 13.9258 57.4609 12.9362 59.1797 12.207C60.8984 11.4779 62.7604 11.1003 64.7656 11.0742C65.651 11.0482 66.6276 11.1914 67.6953 11.5039C68.7891 11.8164 69.8047 12.3503 70.7422 13.1055C71.7057 13.8607 72.526 14.8633 73.2031 16.1133C73.9062 17.3633 74.3229 18.9258 74.4531 20.8008C74.6094 22.5716 74.401 24.4336 73.8281 26.3867C73.2812 28.3398 72.4609 30.2669 71.3672 32.168C70.2734 34.069 68.9583 35.8919 67.4219 37.6367C65.8854 39.3815 64.2188 40.957 62.4219 42.3633C60.625 43.7435 58.724 44.8893 56.7188 45.8008C54.7396 46.7122 52.7474 47.2982 50.7422 47.5586C48.763 47.793 46.8099 47.6367 44.8828 47.0898C42.9557 46.543 41.1589 45.5013 39.4922 43.9648C38.5026 43.0534 37.7214 41.9076 37.1484 40.5273C36.6016 39.1471 36.224 37.6497 36.0156 36.0352C35.8333 34.4206 35.8203 32.7669 35.9766 31.0742C36.1328 29.3815 36.4453 27.7669 36.9141 26.2305C37.6172 23.9128 38.6198 21.6732 39.9219 19.5117C41.224 17.3503 42.7474 15.332 44.4922 13.457C46.263 11.556 48.2161 9.82422 50.3516 8.26172C52.487 6.67318 54.7396 5.29297 57.1094 4.12109C59.4792 2.94922 61.9271 2.01172 64.4531 1.30859C67.0052 0.605469 69.5573 0.188802 72.1094 0.0585938C74.6875 -0.0976562 77.2266 0.0585938 79.7266 0.527344C82.2526 0.970052 84.6875 1.77734 87.0312 2.94922C88.2031 3.54818 89.3229 4.21224 90.3906 4.94141C91.4583 5.64453 92.4479 6.42578 93.3594 7.28516C94.5312 6.3737 95.7292 5.55339 96.9531 4.82422C98.2031 4.06901 99.5312 3.41797 100.938 2.87109C101.016 2.81901 101.081 2.84505 101.133 2.94922C101.211 3.05339 101.276 3.18359 101.328 3.33984C101.328 3.49609 101.276 3.66536 101.172 3.84766C101.094 4.00391 100.924 4.12109 100.664 4.19922ZM79.0234 31.6602C77.7214 34.1602 76.3411 36.5951 74.8828 38.9648C73.4245 41.3346 71.8229 43.5612 70.0781 45.6445C68.3333 47.7018 66.4062 49.5898 64.2969 51.3086C62.2135 53.0013 59.9089 54.4336 57.3828 55.6055C58.9714 56.0221 60.5859 56.3216 62.2266 56.5039C63.8672 56.6862 65.5859 56.6862 67.3828 56.5039C70.1432 56.2174 72.7474 55.5273 75.1953 54.4336C77.6693 53.3398 79.9609 51.9596 82.0703 50.293C84.1797 48.6003 86.0807 46.6732 87.7734 44.5117C89.4922 42.3242 90.9635 40.0326 92.1875 37.6367C93.4115 35.2148 94.362 32.7279 95.0391 30.1758C95.7422 27.6237 96.1328 25.1237 96.2109 22.6758C96.2891 20.2279 96.0286 17.8841 95.4297 15.6445C94.8568 13.3789 93.9193 11.3346 92.6172 9.51172C91.3411 10.8398 90.1172 12.3503 88.9453 14.043C87.7995 15.7357 86.6667 17.5326 85.5469 19.4336C84.4531 21.3346 83.3594 23.3268 82.2656 25.4102C81.1979 27.4674 80.1172 29.5508 79.0234 31.6602ZM36.5234 52.4414C35.8724 52.4674 35.2344 52.5326 34.6094 52.6367C34.0104 52.7148 33.4635 52.8581 32.9688 53.0664C32.474 53.2747 32.0443 53.5482 31.6797 53.8867C31.3411 54.2253 31.1198 54.6419 31.0156 55.1367C31.3542 55.944 31.9792 56.569 32.8906 57.0117C33.8021 57.4544 34.8828 57.7539 36.1328 57.9102C37.4089 58.0924 38.776 58.1576 40.2344 58.1055C41.6927 58.0534 43.125 57.9362 44.5312 57.7539C45.9375 57.5716 47.2656 57.3503 48.5156 57.0898C49.7656 56.8294 50.7943 56.582 51.6016 56.3477C52.3047 56.1133 53.0078 55.8659 53.7109 55.6055C52.3568 55.2148 50.9896 54.8242 49.6094 54.4336C48.2552 54.043 46.875 53.6914 45.4688 53.3789C44.0625 53.0664 42.6172 52.832 41.1328 52.6758C39.6484 52.4935 38.112 52.4154 36.5234 52.4414Z" fill="#212844"/>
<path d="M105.82 55.4492C108.424 55.4492 112.526 51.7904 118.125 44.4727H119.336C118.112 46.0872 116.927 47.5586 115.781 48.8867C114.661 50.1888 113.477 51.4388 112.227 52.6367C111.003 53.8346 109.818 54.7721 108.672 55.4492C107.526 56.1263 106.497 56.4648 105.586 56.4648C104.206 56.4648 103.034 55.9701 102.07 54.9805C101.133 53.9909 100.664 52.4935 100.664 50.4883C100.664 48.7435 101.185 46.8164 102.227 44.707C103.268 42.5716 104.557 40.6315 106.094 38.8867C107.656 37.1419 109.388 35.6836 111.289 34.5117C113.19 33.3398 114.948 32.7539 116.562 32.7539C116.849 32.7539 117.135 32.806 117.422 32.9102C117.734 33.0143 118.047 33.1966 118.359 33.457C118.672 33.6914 118.919 34.069 119.102 34.5898C119.31 35.0846 119.414 35.7096 119.414 36.4648C119.414 38.1836 118.711 39.8372 117.305 41.4258C115.898 43.0143 114.219 44.1732 112.266 44.9023C110.312 45.6055 108.594 45.6836 107.109 45.1367C105.286 48.4961 104.375 51.1003 104.375 52.9492C104.375 54.6159 104.857 55.4492 105.82 55.4492ZM116.328 33.5742C115.625 33.5742 114.336 34.7201 112.461 37.0117C110.612 39.3034 108.919 41.8294 107.383 44.5898C108.346 44.7461 109.323 44.5898 110.312 44.1211C111.328 43.6523 112.214 43.0143 112.969 42.207C113.75 41.3737 114.44 40.4753 115.039 39.5117C115.664 38.5221 116.133 37.5716 116.445 36.6602C116.784 35.7487 116.953 34.9935 116.953 34.3945C116.953 33.8477 116.745 33.5742 116.328 33.5742Z" fill="#212844"/>
<path d="M149.375 44.4727H150.547C150.026 45.306 149.479 46.1263 148.906 46.9336C148.333 47.7409 147.565 48.7565 146.602 49.9805C145.638 51.2044 144.727 52.2721 143.867 53.1836C143.034 54.069 142.135 54.8372 141.172 55.4883C140.234 56.1393 139.401 56.4648 138.672 56.4648C138.438 56.4648 138.177 56.4388 137.891 56.3867C137.63 56.3086 137.331 56.1654 136.992 55.957C136.654 55.7487 136.354 55.4753 136.094 55.1367C135.833 54.7982 135.612 54.3164 135.43 53.6914C135.247 53.0664 135.156 52.3372 135.156 51.5039C135.156 50.6445 135.508 49.5638 136.211 48.2617C136.914 46.9596 137.76 45.6576 138.75 44.3555C139.74 43.0273 140.716 41.7513 141.68 40.5273C142.669 39.2773 143.516 38.1315 144.219 37.0898C144.922 36.0482 145.273 35.293 145.273 34.8242C145.273 34.2773 145.065 34.0039 144.648 34.0039C144.076 34.0039 143.294 34.4076 142.305 35.2148C141.315 35.9961 140.299 36.9857 139.258 38.1836C138.216 39.3555 137.057 40.7747 135.781 42.4414C134.505 44.082 133.359 45.5924 132.344 46.9727C131.354 48.3529 130.339 49.7982 129.297 51.3086C127.969 53.3919 126.849 55.0456 125.938 56.2695H121.719C122.161 55.4883 123.516 53.3529 125.781 49.8633C128.047 46.3737 129.987 43.2227 131.602 40.4102C133.216 37.5716 134.023 35.7096 134.023 34.8242C134.023 34.2773 133.854 34.0039 133.516 34.0039C133.073 34.0039 132.396 34.3945 131.484 35.1758C130.599 35.931 129.688 36.8294 128.75 37.8711C127.812 38.9128 126.771 40.1628 125.625 41.6211C124.479 43.0534 123.529 44.2643 122.773 45.2539C122.044 46.2174 121.315 47.194 120.586 48.1836L115.82 56.2695H111.25L114.844 50.7617L118.086 44.5508L125.234 32.9492H129.727C129.622 33.1315 129.349 33.5612 128.906 34.2383C128.49 34.9154 128.008 35.6836 127.461 36.543C126.94 37.4023 126.576 38.0013 126.367 38.3398C125.534 39.694 124.896 40.7096 124.453 41.3867C128.75 35.6315 131.979 32.7539 134.141 32.7539C134.922 32.7539 135.573 33.0273 136.094 33.5742C136.641 34.0951 136.914 34.9154 136.914 36.0352C136.914 37.2591 136.042 39.5117 134.297 42.793C138.958 36.1003 142.617 32.7539 145.273 32.7539C146.107 32.7539 146.797 33.0143 147.344 33.5352C147.891 34.056 148.164 34.8893 148.164 36.0352C148.164 36.9987 147.799 38.1706 147.07 39.5508C146.367 40.931 145.508 42.3112 144.492 43.6914C143.503 45.0716 142.5 46.4258 141.484 47.7539C140.469 49.082 139.609 50.332 138.906 51.5039C138.203 52.6497 137.852 53.5482 137.852 54.1992C137.852 55.0326 138.125 55.4492 138.672 55.4492C139.219 55.4492 139.883 55.1758 140.664 54.6289C141.471 54.056 142.253 53.3789 143.008 52.5977C143.763 51.7904 144.57 50.8529 145.43 49.7852C146.315 48.7174 147.044 47.7799 147.617 46.9727C148.216 46.1393 148.802 45.306 149.375 44.4727Z" fill="#212844"/>
<path d="M171.836 44.4727H173.008C172.799 44.8112 172.513 45.2539 172.148 45.8008C171.81 46.3216 171.133 47.2721 170.117 48.6523C169.128 50.0326 168.177 51.2565 167.266 52.3242C166.38 53.3659 165.378 54.3164 164.258 55.1758C163.164 56.0352 162.24 56.4648 161.484 56.4648C160.625 56.4648 159.857 55.9831 159.18 55.0195C158.503 54.056 158.164 52.6758 158.164 50.8789C158.164 50.306 158.32 49.5638 158.633 48.6523C154.596 53.8607 151.836 56.4648 150.352 56.4648C149.518 56.4648 148.763 55.9831 148.086 55.0195C147.409 54.056 147.07 52.6758 147.07 50.8789C147.07 50.0716 147.396 48.8997 148.047 47.3633C148.698 45.8268 149.479 44.2643 150.391 42.6758C151.328 41.0612 152.266 39.5117 153.203 38.0273C154.141 36.543 154.935 35.332 155.586 34.3945L156.562 32.9492H161.523C161.211 33.418 160.794 34.0299 160.273 34.7852C159.753 35.5404 158.828 36.9596 157.5 39.043C156.172 41.1003 155 43.0013 153.984 44.7461C152.969 46.4909 152.044 48.2878 151.211 50.1367C150.378 51.9596 149.961 53.3138 149.961 54.1992C149.961 54.8763 150.234 55.2148 150.781 55.2148C151.953 55.2148 155.156 51.7383 160.391 44.7852C161.224 43.1706 162.24 41.3867 163.438 39.4336C164.661 37.4544 165.664 35.8789 166.445 34.707L167.656 32.9492H172.617C172.305 33.418 171.875 34.0299 171.328 34.7852C170.807 35.5404 169.883 36.9596 168.555 39.043C167.227 41.1003 166.055 43.0013 165.039 44.7461C164.049 46.4909 163.138 48.2878 162.305 50.1367C161.471 51.9596 161.055 53.3138 161.055 54.1992C161.055 54.8763 161.328 55.2148 161.875 55.2148C162.344 55.2148 162.982 54.8763 163.789 54.1992C164.596 53.5221 165.378 52.7539 166.133 51.8945C166.888 51.0352 167.721 50.0195 168.633 48.8477C169.544 47.6758 170.208 46.7904 170.625 46.1914C171.068 45.5924 171.471 45.0195 171.836 44.4727Z" fill="#212844"/>
<path d="M191.375 42.5398C190.142 42.5398 188.6 42.1482 186.75 41.3648C185.45 40.8148 184.425 40.4232 183.675 40.1898C182.942 39.9398 182.183 39.8148 181.4 39.8148C180.5 39.8148 179.65 40.0065 178.85 40.3898C178.067 40.7565 177.258 41.2148 176.425 41.7648C176.358 41.8148 176.3 41.8398 176.25 41.8398C176.2 41.8398 176.142 41.8148 176.075 41.7648C176.025 41.7148 176 41.6732 176 41.6398C176 41.6065 176.017 41.5648 176.05 41.5148C176.6 40.7648 177.4 40.0565 178.45 39.3898C179.517 38.7065 180.733 38.3648 182.1 38.3648C183.35 38.3648 184.9 38.7565 186.75 39.5398L187.3 39.7648C188.433 40.2315 189.333 40.5732 190 40.7898C190.667 41.0065 191.358 41.1148 192.075 41.1148C192.975 41.1148 193.817 40.9315 194.6 40.5648C195.383 40.1815 196.2 39.7065 197.05 39.1398C197.133 39.0898 197.192 39.0648 197.225 39.0648C197.275 39.0648 197.325 39.0898 197.375 39.1398C197.442 39.1898 197.475 39.2315 197.475 39.2648C197.475 39.2982 197.458 39.3398 197.425 39.3898C196.875 40.1398 196.067 40.8565 195 41.5398C193.95 42.2065 192.742 42.5398 191.375 42.5398Z" fill="#212844"/>
</svg>
