<svg width="367" height="91" viewBox="0 0 367 91" fill="none" xmlns="http://www.w3.org/2000/svg">
<path d="M15.375 52.216C14.1417 52.216 12.6 51.8244 10.75 51.041C9.45 50.491 8.425 50.0994 7.675 49.866C6.94167 49.616 6.18333 49.491 5.4 49.491C4.5 49.491 3.65 49.6827 2.85 50.066C2.06667 50.4327 1.25833 50.891 0.425 51.441C0.358333 51.491 0.3 51.516 0.25 51.516C0.2 51.516 0.141667 51.491 0.0750002 51.441C0.0250001 51.391 0 51.3494 0 51.316C0 51.2827 0.0166667 51.241 0.0500001 51.191C0.6 50.441 1.4 49.7327 2.45 49.066C3.51667 48.3827 4.73333 48.041 6.1 48.041C7.35 48.041 8.9 48.4327 10.75 49.216L11.3 49.441C12.4333 49.9077 13.3333 50.2494 14 50.466C14.6667 50.6827 15.3583 50.791 16.075 50.791C16.975 50.791 17.8167 50.6077 18.6 50.241C19.3833 49.8577 20.2 49.3827 21.05 48.816C21.1333 48.766 21.1917 48.741 21.225 48.741C21.275 48.741 21.325 48.766 21.375 48.816C21.4417 48.866 21.475 48.9077 21.475 48.941C21.475 48.9744 21.4583 49.016 21.425 49.066C20.875 49.816 20.0667 50.5327 19 51.216C17.95 51.8827 16.7417 52.216 15.375 52.216Z" fill="#212844"/>
<path d="M70.9844 14.4223C72.0521 16.0369 72.7161 17.6775 72.9766 19.3442C73.237 21.0108 73.1719 22.7426 72.7812 24.5395C72.4167 26.3363 71.7526 28.2244 70.7891 30.2035C69.8516 32.1567 68.7188 34.24 67.3906 36.4535C66.7396 37.5212 66.0755 38.628 65.3984 39.7738C64.7474 40.9197 64.1484 42.0395 63.6016 43.1332C63.0807 44.2009 62.6641 45.2166 62.3516 46.1801C62.0391 47.1176 61.9219 47.9249 62 48.602C62.1042 49.6697 62.5469 50.3858 63.3281 50.7504C64.1354 51.089 65.2161 51.0759 66.5703 50.7113C67.9505 50.3468 69.5911 49.6176 71.4922 48.5238C73.4193 47.4301 75.5677 45.9587 77.9375 44.1098C79.0833 41.766 80.3464 39.4093 81.7266 37.0395C83.1328 34.6697 84.5911 32.391 86.1016 30.2035C87.612 28.016 89.1615 25.9718 90.75 24.0707C92.3385 22.1436 93.901 20.464 95.4375 19.0317C97 17.5733 98.4974 16.4015 99.9297 15.516C101.388 14.6306 102.742 14.1358 103.992 14.0317C104.773 14.214 105.281 14.5265 105.516 14.9692C105.75 15.3858 105.789 15.8936 105.633 16.4926C105.503 17.0655 105.229 17.6905 104.812 18.3676C104.422 19.0186 103.992 19.6567 103.523 20.2817C103.055 20.9067 102.612 21.4926 102.195 22.0395C101.779 22.5603 101.479 22.977 101.297 23.2895C100.594 24.0968 99.7083 25.1124 98.6406 26.3363C97.5729 27.5603 96.349 28.9145 94.9688 30.3988C93.6146 31.8832 92.1302 33.4457 90.5156 35.0863C88.9271 36.727 87.2604 38.3546 85.5156 39.9692C83.6406 43.9535 82.0911 47.9509 80.8672 51.9613C79.6432 55.9718 78.7708 59.891 78.25 63.7192C78.1458 64.4223 78.0677 65.0863 78.0156 65.7113C77.9896 66.3363 78.0286 66.8572 78.1328 67.2738C78.237 67.7166 78.4453 68.016 78.7578 68.1723C79.0703 68.3546 79.5391 68.3416 80.1641 68.1332C80.763 67.9509 81.349 67.5343 81.9219 66.8832C82.4948 66.2322 83.0417 65.3337 83.5625 64.1879L83.875 63.8754C84.474 63.7452 84.7865 63.8884 84.8125 64.3051C83.6406 67.2218 81.974 69.0317 79.8125 69.7348C78.6667 70.0473 77.638 70.0863 76.7266 69.852C75.8151 69.6436 75.0339 69.214 74.3828 68.5629C73.7578 67.9119 73.276 67.1046 72.9375 66.141C72.599 65.1775 72.4297 64.1098 72.4297 62.9379C72.3255 62.0004 72.3385 60.9587 72.4688 59.8129C72.625 58.641 72.8724 57.391 73.2109 56.0629C73.5755 54.7348 74.0312 53.3416 74.5781 51.8832C75.125 50.3988 75.737 48.8754 76.4141 47.3129C74.7474 48.4587 73.0677 49.4744 71.375 50.3598C69.7083 51.2192 68.0417 51.8962 66.375 52.391C65.4896 52.6515 64.6172 52.8207 63.7578 52.8988C62.9245 52.9509 62.1172 52.8988 61.3359 52.7426C60.5807 52.5603 59.8776 52.2608 59.2266 51.8442C58.6016 51.4015 58.0677 50.8025 57.625 50.0473C56.9479 48.9535 56.5312 47.8468 56.375 46.727C56.2188 45.6072 56.2448 44.4874 56.4531 43.3676C56.6615 42.2478 57.026 41.115 57.5469 39.9692C58.0938 38.8233 58.7188 37.6775 59.4219 36.5317C60.151 35.3858 60.9193 34.227 61.7266 33.0551C62.5599 31.8832 63.3672 30.7113 64.1484 29.5395C65.2161 27.9509 66.1927 26.3884 67.0781 24.852C67.9635 23.2895 68.5885 21.7791 68.9531 20.3207C69.3177 18.8624 69.3307 17.4692 68.9922 16.141C68.6797 14.8129 67.8333 13.589 66.4531 12.4692C65.9062 11.9744 65.2682 11.5577 64.5391 11.2192C63.8099 10.8546 62.9896 10.5942 62.0781 10.4379C62 10.4379 61.9479 10.4249 61.9219 10.3988C61.8958 10.8936 61.8568 11.3884 61.8047 11.8832C61.7526 12.378 61.7005 12.8728 61.6484 13.3676C61.362 15.2947 60.8151 17.3259 60.0078 19.4613C59.2005 21.5968 58.1719 23.7192 56.9219 25.8285C55.6979 27.9119 54.2786 29.9171 52.6641 31.8442C51.0755 33.7712 49.3568 35.503 47.5078 37.0395C45.6849 38.5499 43.7578 39.7869 41.7266 40.7504C39.7214 41.714 37.6771 42.2738 35.5938 42.4301C34.3698 42.5343 33.237 42.4301 32.1953 42.1176C31.1797 41.8051 30.3594 41.3624 29.7344 40.7895C28.9271 40.1905 28.3151 39.4613 27.8984 38.602C27.4818 37.7166 27.2214 36.7791 27.1172 35.7895C26.9349 34.2009 27.013 32.6645 27.3516 31.1801C27.6901 29.6697 28.2109 28.2244 28.9141 26.8442C29.6432 25.464 30.5026 24.1488 31.4922 22.8988C32.5078 21.6488 33.6016 20.477 34.7734 19.3832C35.9453 18.2634 37.1562 17.2218 38.4062 16.2582C39.6823 15.2686 40.9193 14.3572 42.1172 13.5238C43.2891 12.7166 44.6042 11.9744 46.0625 11.2973C47.5469 10.6202 49.0833 10.0603 50.6719 9.6176C52.2604 9.14885 53.888 8.81031 55.5547 8.60197C57.2214 8.39364 58.8359 8.35458 60.3984 8.48479C60.3203 7.44312 60.112 6.4926 59.7734 5.63322C59.4349 4.77385 58.9271 4.04468 58.25 3.44572C57.5729 2.82072 56.7005 2.35197 55.6328 2.03947C54.5651 1.72697 53.276 1.59677 51.7656 1.64885H51.4141V0.906661C52.0911 0.333745 52.8073 0.0342654 53.5625 0.00822368C55.0729 -0.0438596 56.349 0.151453 57.3906 0.594161C58.4323 1.03687 59.2656 1.66187 59.8906 2.46916C60.5417 3.25041 61.0234 4.17489 61.3359 5.2426C61.6484 6.31031 61.8307 7.44312 61.8828 8.64104C62.7943 8.79729 63.6276 9.00562 64.3828 9.26604C65.6068 9.70874 66.7917 10.3598 67.9375 11.2192C69.1094 12.0525 70.125 13.1202 70.9844 14.4223ZM43.4062 14.3832C40.5156 16.2322 37.9375 18.3416 35.6719 20.7113C33.4323 23.0551 31.5833 25.4379 30.125 27.8598C28.901 30.49 28.3281 32.7426 28.4062 34.6176C28.4844 36.4666 28.9661 37.8728 29.8516 38.8363C30.5286 39.5916 31.3359 40.1124 32.2734 40.3988C33.237 40.6853 34.3047 40.8025 35.4766 40.7504C37.638 40.6983 39.7083 40.1645 41.6875 39.1488C43.6927 38.1072 45.5677 36.7921 47.3125 35.2035C49.0573 33.589 50.6589 31.7921 52.1172 29.8129C53.5755 27.8337 54.8516 25.8416 55.9453 23.8363C57.0651 21.8311 57.9766 19.9171 58.6797 18.0942C59.3828 16.2452 59.8516 14.6827 60.0859 13.4067C60.2682 12.3129 60.3854 11.2452 60.4375 10.2035C59.0052 10.0473 57.5469 10.0343 56.0625 10.1645C54.5781 10.2947 53.0938 10.5421 51.6094 10.9067C50.151 11.2712 48.7318 11.753 47.3516 12.352C45.9714 12.9509 44.6562 13.628 43.4062 14.3832ZM102.312 19.4223C102.703 18.9535 103.055 18.5108 103.367 18.0942C103.68 17.6515 103.914 17.2608 104.07 16.9223C104.227 16.5577 104.266 16.2712 104.188 16.0629C104.109 15.8546 103.875 15.7504 103.484 15.7504C102.625 15.7765 101.727 16.115 100.789 16.766C99.8516 17.391 98.901 18.2374 97.9375 19.3051C96.974 20.3468 96.0104 21.5447 95.0469 22.8988C94.1094 24.253 93.1979 25.6593 92.3125 27.1176C91.4531 28.5759 90.6198 30.0343 89.8125 31.4926C89.0312 32.9509 88.3151 34.3051 87.6641 35.5551C89.9557 33.3416 92.3125 30.9067 94.7344 28.2504C97.1823 25.5681 99.7083 22.6254 102.312 19.4223ZM104.5 13.9926C104.526 13.9926 104.474 13.9926 104.344 13.9926C104.24 13.9666 104.122 13.9535 103.992 13.9535C103.862 13.9535 103.732 13.9535 103.602 13.9535C103.497 13.9535 103.458 13.9535 103.484 13.9535C103.589 13.9796 103.68 13.9926 103.758 13.9926C103.836 13.9926 103.914 14.0056 103.992 14.0317C104.07 14.0317 104.148 14.0317 104.227 14.0317C104.331 14.0056 104.422 13.9926 104.5 13.9926Z" fill="#212844"/>
<path d="M123.172 54.1488H124.344C123.823 54.9822 123.276 55.8025 122.703 56.6098C122.13 57.4171 121.362 58.4327 120.398 59.6567C119.435 60.8806 118.523 61.9483 117.664 62.8598C116.831 63.7452 115.932 64.5134 114.969 65.1645C114.031 65.8155 113.198 66.141 112.469 66.141C112.234 66.141 111.974 66.115 111.688 66.0629C111.427 65.9848 111.128 65.8416 110.789 65.6332C110.451 65.4249 110.151 65.1515 109.891 64.8129C109.63 64.4744 109.409 63.9926 109.227 63.3676C109.044 62.7426 108.953 62.0134 108.953 61.1801C108.953 60.3207 109.305 59.24 110.008 57.9379C110.711 56.6358 111.557 55.3337 112.547 54.0317C113.536 52.7035 114.513 51.4275 115.477 50.2035C116.466 48.9535 117.312 47.8077 118.016 46.766C118.719 45.7244 119.07 44.9692 119.07 44.5004C119.07 43.9535 118.862 43.6801 118.445 43.6801C117.872 43.6801 117.091 44.0837 116.102 44.891C115.112 45.6723 114.096 46.6619 113.055 47.8598C112.013 49.0317 110.854 50.4509 109.578 52.1176C108.302 53.7582 107.156 55.2686 106.141 56.6488C105.151 58.0291 104.135 59.4744 103.094 60.9848C101.766 63.0681 100.646 64.7218 99.7344 65.9457H95.5156C95.9583 65.1645 97.3125 63.0291 99.5781 59.5395C101.844 56.0499 103.784 52.8988 105.398 50.0863C107.013 47.2478 107.82 45.3858 107.82 44.5004C107.82 43.9535 107.651 43.6801 107.312 43.6801C106.87 43.6801 106.193 44.0707 105.281 44.852C104.396 45.6072 103.484 46.5056 102.547 47.5473C101.609 48.589 100.568 49.839 99.4219 51.2973C98.276 52.7296 97.3255 53.9405 96.5703 54.9301C95.8411 55.8936 95.112 56.8702 94.3828 57.8598L89.6172 65.9457H85.0469L88.6406 60.4379L91.8828 54.227L99.0312 42.6254H103.523C103.419 42.8077 103.146 43.2374 102.703 43.9145C102.286 44.5916 101.805 45.3598 101.258 46.2192C100.737 47.0785 100.372 47.6775 100.164 48.016C99.3307 49.3702 98.6927 50.3858 98.25 51.0629C102.547 45.3077 105.776 42.4301 107.938 42.4301C108.719 42.4301 109.37 42.7035 109.891 43.2504C110.438 43.7712 110.711 44.5916 110.711 45.7113C110.711 46.9353 109.839 49.1879 108.094 52.4692C112.755 45.7765 116.414 42.4301 119.07 42.4301C119.904 42.4301 120.594 42.6905 121.141 43.2113C121.688 43.7322 121.961 44.5655 121.961 45.7113C121.961 46.6749 121.596 47.8468 120.867 49.227C120.164 50.6072 119.305 51.9874 118.289 53.3676C117.299 54.7478 116.297 56.102 115.281 57.4301C114.266 58.7582 113.406 60.0082 112.703 61.1801C112 62.3259 111.648 63.2244 111.648 63.8754C111.648 64.7087 111.922 65.1254 112.469 65.1254C113.016 65.1254 113.68 64.852 114.461 64.3051C115.268 63.7322 116.049 63.0551 116.805 62.2738C117.56 61.4666 118.367 60.5291 119.227 59.4613C120.112 58.3936 120.841 57.4561 121.414 56.6488C122.013 55.8155 122.599 54.9822 123.172 54.1488Z" fill="#212844"/>
<path d="M145.086 47.1176L145.75 48.016C144.474 49.1098 143.393 49.9301 142.508 50.477C141.648 50.9978 140.88 51.3624 140.203 51.5707C139.891 51.6488 139.656 51.714 139.5 51.766C139.344 51.8181 139.122 51.8572 138.836 51.8832C138.706 51.9093 138.589 51.9223 138.484 51.9223C138.406 51.9223 138.341 51.9223 138.289 51.9223H137.195C136.961 52.4952 136.701 53.0681 136.414 53.641C136.128 54.214 135.815 54.7999 135.477 55.3988C133.654 58.6541 131.635 61.2712 129.422 63.2504C127.26 65.1775 125.424 66.141 123.914 66.141C122.742 66.141 121.87 65.6072 121.297 64.5395C120.698 63.4718 120.398 62.1436 120.398 60.5551C120.398 59.8259 120.503 59.0447 120.711 58.2113C120.919 57.378 121.219 56.5447 121.609 55.7113C122 54.852 122.456 54.0056 122.977 53.1723C123.523 52.339 124.109 51.5447 124.734 50.7895C125.646 49.6436 126.648 48.5629 127.742 47.5473C128.836 46.5317 129.93 45.6462 131.023 44.891C132.117 44.1098 133.159 43.4978 134.148 43.0551C135.138 42.6124 135.997 42.4041 136.727 42.4301C137.221 42.4301 137.625 42.6384 137.938 43.0551C138.276 43.4457 138.497 44.0056 138.602 44.7348C138.706 45.464 138.68 46.3494 138.523 47.391C138.367 48.4327 138.055 49.5916 137.586 50.8676C139.565 50.7895 142.065 49.5395 145.086 47.1176ZM134.383 55.0082C134.747 54.3572 135.06 53.7582 135.32 53.2113C135.607 52.6384 135.854 52.1176 136.062 51.6488C135.411 51.3363 134.969 50.8416 134.734 50.1645C134.5 49.4613 134.422 48.7843 134.5 48.1332C134.578 47.378 134.956 46.5968 135.633 45.7895C136.31 45.0082 136.987 44.5525 137.664 44.4223C137.456 43.641 137.143 43.2504 136.727 43.2504C135.529 43.2504 134.122 44.0968 132.508 45.7895C130.893 47.4822 129.448 49.4744 128.172 51.766C127.521 52.9119 126.909 54.0707 126.336 55.2426C125.789 56.3884 125.294 57.5603 124.852 58.7582C123.94 61.1801 123.484 63.0291 123.484 64.3051C123.484 64.852 123.628 65.1254 123.914 65.1254C125.138 65.1254 126.792 64.1488 128.875 62.1957C130.958 60.2166 132.794 57.8207 134.383 55.0082Z" fill="#212844"/>
<path d="M174.07 54.1488H175.242C174.695 54.9822 174.148 55.8025 173.602 56.6098C173.055 57.4171 172.299 58.4327 171.336 59.6567C170.372 60.8806 169.461 61.9483 168.602 62.8598C167.768 63.7452 166.87 64.5134 165.906 65.1645C164.943 65.8155 164.109 66.141 163.406 66.141C163.146 66.141 162.885 66.115 162.625 66.0629C162.365 65.9848 162.052 65.8416 161.688 65.6332C161.349 65.4249 161.049 65.1515 160.789 64.8129C160.555 64.4744 160.346 63.9926 160.164 63.3676C159.982 62.7426 159.891 62.0134 159.891 61.1801C159.891 60.3207 160.229 59.24 160.906 57.9379C161.609 56.6358 162.456 55.3337 163.445 54.0317C164.435 52.7035 165.424 51.4275 166.414 50.2035C167.404 48.9535 168.237 47.8077 168.914 46.766C169.617 45.7244 169.969 44.9692 169.969 44.5004C169.969 43.9535 169.773 43.6801 169.383 43.6801C168.576 43.6801 167.521 44.1749 166.219 45.1645C164.943 46.128 163.68 47.2999 162.43 48.6801C161.18 50.0603 159.982 51.4535 158.836 52.8598C157.69 54.24 156.766 55.4119 156.062 56.3754L155.008 57.8598L150.242 65.9457H145.672L149.266 60.4379L152.508 54.227L159.656 42.6254H164.148C164.044 42.8077 163.771 43.2374 163.328 43.9145C162.911 44.5916 162.43 45.3598 161.883 46.2192C161.362 47.0785 160.997 47.6775 160.789 48.016C159.773 49.6567 158.966 50.9327 158.367 51.8442C163.029 45.5681 166.896 42.4301 169.969 42.4301C170.802 42.4301 171.492 42.6905 172.039 43.2113C172.612 43.7322 172.898 44.5655 172.898 45.7113C172.898 46.6749 172.534 47.8468 171.805 49.227C171.102 50.6072 170.242 51.9874 169.227 53.3676C168.237 54.7478 167.234 56.102 166.219 57.4301C165.203 58.7582 164.344 60.0082 163.641 61.1801C162.938 62.3259 162.586 63.2244 162.586 63.8754C162.586 64.7087 162.859 65.1254 163.406 65.1254C163.953 65.1254 164.617 64.852 165.398 64.3051C166.18 63.7322 166.948 63.0551 167.703 62.2738C168.484 61.4666 169.305 60.5291 170.164 59.4613C171.023 58.3936 171.753 57.4561 172.352 56.6488C172.951 55.8155 173.523 54.9822 174.07 54.1488Z" fill="#212844"/>
<path d="M195.945 47.1176L196.609 48.016C195.333 49.1098 194.253 49.9301 193.367 50.477C192.508 50.9978 191.74 51.3624 191.062 51.5707C190.75 51.6488 190.516 51.714 190.359 51.766C190.203 51.8181 189.982 51.8572 189.695 51.8832C189.565 51.9093 189.448 51.9223 189.344 51.9223C189.266 51.9223 189.201 51.9223 189.148 51.9223H188.055C187.82 52.4952 187.56 53.0681 187.273 53.641C186.987 54.214 186.674 54.7999 186.336 55.3988C184.513 58.6541 182.495 61.2712 180.281 63.2504C178.12 65.1775 176.284 66.141 174.773 66.141C173.602 66.141 172.729 65.6072 172.156 64.5395C171.557 63.4718 171.258 62.1436 171.258 60.5551C171.258 59.8259 171.362 59.0447 171.57 58.2113C171.779 57.378 172.078 56.5447 172.469 55.7113C172.859 54.852 173.315 54.0056 173.836 53.1723C174.383 52.339 174.969 51.5447 175.594 50.7895C176.505 49.6436 177.508 48.5629 178.602 47.5473C179.695 46.5317 180.789 45.6462 181.883 44.891C182.977 44.1098 184.018 43.4978 185.008 43.0551C185.997 42.6124 186.857 42.4041 187.586 42.4301C188.081 42.4301 188.484 42.6384 188.797 43.0551C189.135 43.4457 189.357 44.0056 189.461 44.7348C189.565 45.464 189.539 46.3494 189.383 47.391C189.227 48.4327 188.914 49.5916 188.445 50.8676C190.424 50.7895 192.924 49.5395 195.945 47.1176ZM185.242 55.0082C185.607 54.3572 185.919 53.7582 186.18 53.2113C186.466 52.6384 186.714 52.1176 186.922 51.6488C186.271 51.3363 185.828 50.8416 185.594 50.1645C185.359 49.4613 185.281 48.7843 185.359 48.1332C185.438 47.378 185.815 46.5968 186.492 45.7895C187.169 45.0082 187.846 44.5525 188.523 44.4223C188.315 43.641 188.003 43.2504 187.586 43.2504C186.388 43.2504 184.982 44.0968 183.367 45.7895C181.753 47.4822 180.307 49.4744 179.031 51.766C178.38 52.9119 177.768 54.0707 177.195 55.2426C176.648 56.3884 176.154 57.5603 175.711 58.7582C174.799 61.1801 174.344 63.0291 174.344 64.3051C174.344 64.852 174.487 65.1254 174.773 65.1254C175.997 65.1254 177.651 64.1488 179.734 62.1957C181.818 60.2166 183.654 57.8207 185.242 55.0082Z" fill="#212844"/>
<path d="M196.297 69.3832C199.526 69.5134 201.609 70.6332 202.547 72.7426L201.883 73.1332C201.388 72.2218 200.685 71.5056 199.773 70.9848C198.862 70.49 197.547 70.2166 195.828 70.1645L188.758 81.9223C187.768 83.4587 186.766 84.7869 185.75 85.9067C184.734 87.0525 183.849 87.8988 183.094 88.4457C182.339 89.0186 181.596 89.4613 180.867 89.7738C180.112 90.1124 179.552 90.3077 179.188 90.3598C178.823 90.4379 178.497 90.477 178.211 90.477C176.961 90.477 176.336 89.6827 176.336 88.0942C176.336 86.6098 176.818 84.9431 177.781 83.0942C178.745 81.2712 179.969 79.5395 181.453 77.8988C182.938 76.2582 184.604 74.7348 186.453 73.3285C188.276 71.9483 190.034 70.9067 191.727 70.2035L196.805 62.0004C194.279 64.7608 192.521 66.141 191.531 66.141C190.359 66.141 189.487 65.6072 188.914 64.5395C188.315 63.4718 188.016 62.1436 188.016 60.5551C188.016 59.3051 188.315 57.964 188.914 56.5317C189.487 55.0733 190.255 53.6931 191.219 52.391C192.182 51.0629 193.263 49.7869 194.461 48.5629C195.685 47.339 196.896 46.2843 198.094 45.3988C199.318 44.4874 200.503 43.7712 201.648 43.2504C202.82 42.7035 203.81 42.4301 204.617 42.4301C205.789 42.4301 206.271 43.4718 206.062 45.5551L207.703 42.6254H212.391L196.297 69.3832ZM191.531 65.0863C192.208 65.0863 193.276 64.3572 194.734 62.8988C196.193 61.4145 197.625 59.7738 199.031 57.977L199.617 56.9223L204.852 47.7426C204.956 47.2218 205.047 46.714 205.125 46.2192C205.203 45.6983 205.255 45.2035 205.281 44.7348C205.307 44.266 205.255 43.9015 205.125 43.641C205.021 43.3546 204.852 43.2113 204.617 43.2113C203.393 43.2113 201.974 44.0577 200.359 45.7504C198.745 47.4431 197.273 49.4353 195.945 51.727C194.617 54.0186 193.484 56.3494 192.547 58.7192C191.609 61.089 191.141 62.9379 191.141 64.266C191.141 64.8129 191.271 65.0863 191.531 65.0863ZM177.977 89.5004C178.576 89.5004 179.357 88.9926 180.32 87.977C181.284 86.9874 182.247 85.7634 183.211 84.3051C184.148 82.8728 185.06 81.4405 185.945 80.0082C186.805 78.5759 187.508 77.365 188.055 76.3754L188.875 74.852L190.945 71.4535C188.862 72.4952 186.766 74.0447 184.656 76.102C182.521 78.1593 180.776 80.3207 179.422 82.5863C178.042 84.852 177.352 86.7921 177.352 88.4067C177.352 89.0837 177.56 89.4483 177.977 89.5004Z" fill="#212844"/>
<path d="M230.789 54.1488H231.922C231.714 54.4874 231.427 54.9301 231.062 55.477C230.724 55.9978 230.06 56.9483 229.07 58.3285C228.081 59.7087 227.117 60.9327 226.18 62.0004C225.268 63.0421 224.266 63.9926 223.172 64.852C222.078 65.7113 221.141 66.141 220.359 66.141C219.552 66.141 218.797 65.6593 218.094 64.6957C217.417 63.7322 217.078 62.352 217.078 60.5551V60.3598C214.188 64.214 211.987 66.141 210.477 66.141C209.305 66.141 208.432 65.6072 207.859 64.5395C207.26 63.4718 206.961 62.1436 206.961 60.5551C206.961 59.0707 207.365 57.4561 208.172 55.7113C208.979 53.9405 210.021 52.2999 211.297 50.7895C212.573 49.253 213.94 47.8468 215.398 46.5707C216.857 45.2947 218.289 44.2921 219.695 43.5629C221.128 42.8077 222.326 42.4301 223.289 42.4301C224.591 42.4301 225.008 43.5108 224.539 45.6723L226.57 42.6254H231.531C231.219 43.0942 230.802 43.7061 230.281 44.4613C229.76 45.2166 228.836 46.6358 227.508 48.7192C226.18 50.7765 225.008 52.6775 223.992 54.4223C222.977 56.1671 222.052 57.964 221.219 59.8129C220.385 61.6358 219.969 62.99 219.969 63.8754C219.969 64.5525 220.242 64.891 220.789 64.891C221.258 64.891 221.896 64.5525 222.703 63.8754C223.536 63.1983 224.331 62.4301 225.086 61.5707C225.841 60.7113 226.661 59.6957 227.547 58.5238C228.458 57.352 229.122 56.4666 229.539 55.8676C229.982 55.2686 230.398 54.6957 230.789 54.1488ZM210.477 65.1254C211.753 65.1254 214.214 62.5863 217.859 57.5082C218.615 55.6332 220.021 52.99 222.078 49.5785C222.26 49.1879 222.469 48.6801 222.703 48.0551C222.964 47.4041 223.211 46.714 223.445 45.9848C223.68 45.2296 223.784 44.5916 223.758 44.0707C223.758 43.5238 223.602 43.2504 223.289 43.2504C222.065 43.2504 220.659 44.0968 219.07 45.7895C217.482 47.4822 216.036 49.4744 214.734 51.766C213.432 54.0317 212.326 56.3624 211.414 58.7582C210.503 61.128 210.047 62.977 210.047 64.3051C210.047 64.852 210.19 65.1254 210.477 65.1254Z" fill="#212844"/>
<path d="M252.234 54.1488H253.406C252.885 54.9822 252.339 55.8025 251.766 56.6098C251.193 57.4171 250.424 58.4327 249.461 59.6567C248.497 60.8806 247.586 61.9483 246.727 62.8598C245.893 63.7452 244.995 64.5134 244.031 65.1645C243.068 65.8155 242.234 66.141 241.531 66.141C241.271 66.141 241.01 66.115 240.75 66.0629C240.49 65.9848 240.177 65.8416 239.812 65.6332C239.474 65.4249 239.174 65.1515 238.914 64.8129C238.68 64.4744 238.471 63.9926 238.289 63.3676C238.107 62.7426 238.016 62.0134 238.016 61.1801C238.016 60.3207 238.354 59.24 239.031 57.9379C239.734 56.6358 240.581 55.3337 241.57 54.0317C242.56 52.7035 243.549 51.4275 244.539 50.2035C245.529 48.9535 246.362 47.8077 247.039 46.766C247.742 45.7244 248.094 44.9692 248.094 44.5004C248.094 43.9535 247.898 43.6801 247.508 43.6801C246.701 43.6801 245.646 44.1749 244.344 45.1645C243.068 46.128 241.805 47.2999 240.555 48.6801C239.305 50.0603 238.107 51.4535 236.961 52.8598C235.815 54.24 234.891 55.4119 234.188 56.3754L233.133 57.8598L212.82 90.477H208.484L227.312 60.4379L230.633 54.227L237.859 42.6254H242.273L242.195 42.7426C241.284 44.3311 239.656 47.0004 237.312 50.7504C241.609 45.2035 245.203 42.4301 248.094 42.4301C248.927 42.4301 249.617 42.6905 250.164 43.2113C250.737 43.7322 251.023 44.5655 251.023 45.7113C251.023 46.6749 250.659 47.8468 249.93 49.227C249.227 50.6072 248.367 51.9874 247.352 53.3676C246.362 54.7478 245.359 56.102 244.344 57.4301C243.328 58.7582 242.469 60.0082 241.766 61.1801C241.062 62.3259 240.711 63.2244 240.711 63.8754C240.711 64.7087 240.984 65.1254 241.531 65.1254C242.208 65.1254 243.042 64.7348 244.031 63.9535C245.021 63.1723 246.049 62.1436 247.117 60.8676C248.211 59.5916 249.148 58.4327 249.93 57.391C250.737 56.3233 251.505 55.2426 252.234 54.1488Z" fill="#212844"/>
<path d="M274.617 54.1488H275.789C275.581 54.4874 275.294 54.9301 274.93 55.477C274.591 55.9978 273.914 56.9483 272.898 58.3285C271.909 59.7087 270.958 60.9327 270.047 62.0004C269.161 63.0421 268.159 63.9926 267.039 64.852C265.945 65.7113 265.021 66.141 264.266 66.141C263.406 66.141 262.638 65.6593 261.961 64.6957C261.284 63.7322 260.945 62.352 260.945 60.5551C260.945 59.9822 261.102 59.24 261.414 58.3285C257.378 63.5369 254.617 66.141 253.133 66.141C252.299 66.141 251.544 65.6593 250.867 64.6957C250.19 63.7322 249.852 62.352 249.852 60.5551C249.852 59.7478 250.177 58.5759 250.828 57.0395C251.479 55.503 252.26 53.9405 253.172 52.352C254.109 50.7374 255.047 49.1879 255.984 47.7035C256.922 46.2192 257.716 45.0082 258.367 44.0707L259.344 42.6254H264.305C263.992 43.0942 263.576 43.7061 263.055 44.4613C262.534 45.2166 261.609 46.6358 260.281 48.7192C258.953 50.7765 257.781 52.6775 256.766 54.4223C255.75 56.1671 254.826 57.964 253.992 59.8129C253.159 61.6358 252.742 62.99 252.742 63.8754C252.742 64.5525 253.016 64.891 253.562 64.891C254.734 64.891 257.938 61.4145 263.172 54.4613C264.005 52.8468 265.021 51.0629 266.219 49.1098C267.443 47.1306 268.445 45.5551 269.227 44.3832L270.438 42.6254H275.398C275.086 43.0942 274.656 43.7061 274.109 44.4613C273.589 45.2166 272.664 46.6358 271.336 48.7192C270.008 50.7765 268.836 52.6775 267.82 54.4223C266.831 56.1671 265.919 57.964 265.086 59.8129C264.253 61.6358 263.836 62.99 263.836 63.8754C263.836 64.5525 264.109 64.891 264.656 64.891C265.125 64.891 265.763 64.5525 266.57 63.8754C267.378 63.1983 268.159 62.4301 268.914 61.5707C269.669 60.7113 270.503 59.6957 271.414 58.5238C272.326 57.352 272.99 56.4666 273.406 55.8676C273.849 55.2686 274.253 54.6957 274.617 54.1488Z" fill="#212844"/>
<path d="M305.828 54.1488H307C306.479 54.9822 305.932 55.8025 305.359 56.6098C304.786 57.4171 304.018 58.4327 303.055 59.6567C302.091 60.8806 301.18 61.9483 300.32 62.8598C299.487 63.7452 298.589 64.5134 297.625 65.1645C296.688 65.8155 295.854 66.141 295.125 66.141C294.891 66.141 294.63 66.115 294.344 66.0629C294.083 65.9848 293.784 65.8416 293.445 65.6332C293.107 65.4249 292.807 65.1515 292.547 64.8129C292.286 64.4744 292.065 63.9926 291.883 63.3676C291.701 62.7426 291.609 62.0134 291.609 61.1801C291.609 60.3207 291.961 59.24 292.664 57.9379C293.367 56.6358 294.214 55.3337 295.203 54.0317C296.193 52.7035 297.169 51.4275 298.133 50.2035C299.122 48.9535 299.969 47.8077 300.672 46.766C301.375 45.7244 301.727 44.9692 301.727 44.5004C301.727 43.9535 301.518 43.6801 301.102 43.6801C300.529 43.6801 299.747 44.0837 298.758 44.891C297.768 45.6723 296.753 46.6619 295.711 47.8598C294.669 49.0317 293.51 50.4509 292.234 52.1176C290.958 53.7582 289.812 55.2686 288.797 56.6488C287.807 58.0291 286.792 59.4744 285.75 60.9848C284.422 63.0681 283.302 64.7218 282.391 65.9457H278.172C278.615 65.1645 279.969 63.0291 282.234 59.5395C284.5 56.0499 286.44 52.8988 288.055 50.0863C289.669 47.2478 290.477 45.3858 290.477 44.5004C290.477 43.9535 290.307 43.6801 289.969 43.6801C289.526 43.6801 288.849 44.0707 287.938 44.852C287.052 45.6072 286.141 46.5056 285.203 47.5473C284.266 48.589 283.224 49.839 282.078 51.2973C280.932 52.7296 279.982 53.9405 279.227 54.9301C278.497 55.8936 277.768 56.8702 277.039 57.8598L272.273 65.9457H267.703L271.297 60.4379L274.539 54.227L281.688 42.6254H286.18C286.076 42.8077 285.802 43.2374 285.359 43.9145C284.943 44.5916 284.461 45.3598 283.914 46.2192C283.393 47.0785 283.029 47.6775 282.82 48.016C281.987 49.3702 281.349 50.3858 280.906 51.0629C285.203 45.3077 288.432 42.4301 290.594 42.4301C291.375 42.4301 292.026 42.7035 292.547 43.2504C293.094 43.7712 293.367 44.5916 293.367 45.7113C293.367 46.9353 292.495 49.1879 290.75 52.4692C295.411 45.7765 299.07 42.4301 301.727 42.4301C302.56 42.4301 303.25 42.6905 303.797 43.2113C304.344 43.7322 304.617 44.5655 304.617 45.7113C304.617 46.6749 304.253 47.8468 303.523 49.227C302.82 50.6072 301.961 51.9874 300.945 53.3676C299.956 54.7478 298.953 56.102 297.938 57.4301C296.922 58.7582 296.062 60.0082 295.359 61.1801C294.656 62.3259 294.305 63.2244 294.305 63.8754C294.305 64.7087 294.578 65.1254 295.125 65.1254C295.672 65.1254 296.336 64.852 297.117 64.3051C297.924 63.7322 298.706 63.0551 299.461 62.2738C300.216 61.4666 301.023 60.5291 301.883 59.4613C302.768 58.3936 303.497 57.4561 304.07 56.6488C304.669 55.8155 305.255 54.9822 305.828 54.1488Z" fill="#212844"/>
<path d="M305.008 56.727C306.128 53.9145 307.378 51.3754 308.758 49.1098C310.138 46.8181 311.453 44.6567 312.703 42.6254H317.312C317.208 42.7556 316.727 43.5369 315.867 44.9692C315.008 46.3754 313.784 48.5369 312.195 51.4535C313.263 50.49 314.305 49.839 315.32 49.5004C316.336 49.1619 317.247 49.0968 318.055 49.3051C318.862 49.5134 319.513 49.9692 320.008 50.6723C320.529 51.3494 320.828 52.2218 320.906 53.2895C321.375 53.2113 321.896 53.0811 322.469 52.8988C323.042 52.7166 323.615 52.4822 324.188 52.1957C324.76 51.9093 325.307 51.5577 325.828 51.141C326.375 50.7244 326.857 50.2556 327.273 49.7348L327.938 50.3598C326.219 52.4692 323.862 53.7843 320.867 54.3051C320.815 54.8259 320.737 55.3598 320.633 55.9067C320.268 57.4171 319.656 58.8103 318.797 60.0863C317.964 61.3624 316.974 62.4692 315.828 63.4067C314.682 64.3181 313.445 65.0473 312.117 65.5942C310.789 66.115 309.474 66.3754 308.172 66.3754C307.208 66.4796 306.44 66.3754 305.867 66.0629C305.294 65.7504 304.852 65.3077 304.539 64.7348C304.227 64.1619 304.044 63.5108 303.992 62.7817C303.914 62.0265 303.914 61.2843 303.992 60.5551C304.07 59.7999 304.214 59.0837 304.422 58.4067C304.604 57.7296 304.799 57.1697 305.008 56.727ZM309.734 56.141C309.318 56.9483 308.914 57.9119 308.523 59.0317C308.133 60.1254 307.846 61.1671 307.664 62.1567C307.508 63.1462 307.508 63.9666 307.664 64.6176C307.82 65.2686 308.237 65.5551 308.914 65.477C309.617 65.3988 310.333 65.0603 311.062 64.4613C311.818 63.8363 312.534 63.0681 313.211 62.1567C313.914 61.2452 314.552 60.2426 315.125 59.1488C315.724 58.0291 316.219 56.9223 316.609 55.8285C316.818 55.2817 317.013 54.6306 317.195 53.8754C317.404 53.0942 317.508 52.4171 317.508 51.8442C317.482 51.1671 317.273 50.7244 316.883 50.516C316.492 50.2817 315.984 50.2426 315.359 50.3988C314.76 50.5551 314.096 50.8806 313.367 51.3754C312.664 51.8702 311.961 52.4952 311.258 53.2504C310.997 53.6931 310.737 54.1619 310.477 54.6567C310.242 55.1254 309.995 55.6202 309.734 56.141Z" fill="#212844"/>
<path d="M326.297 57.7426C326.792 56.2582 327.599 54.6697 328.719 52.977C329.865 51.2582 331.154 49.6176 332.586 48.0551C334.018 46.4666 335.542 44.852 337.156 43.2113C338.797 41.5447 340.372 39.9041 341.883 38.2895C343.419 36.6749 344.799 35.0994 346.023 33.5629C347.273 32.0265 348.276 30.477 349.031 28.9145C349.786 27.352 350.164 25.8936 350.164 24.5395C350.164 24.0447 350.125 23.5759 350.047 23.1332C349.969 22.6645 349.786 22.1436 349.5 21.5707C349.24 20.9718 348.875 20.464 348.406 20.0473C347.964 19.6046 347.312 19.24 346.453 18.9535C345.62 18.641 344.643 18.4848 343.523 18.4848C342.091 18.4848 340.75 18.7452 339.5 19.266C338.25 19.7869 337.182 20.477 336.297 21.3363C335.438 22.1957 334.656 23.1332 333.953 24.1488C333.25 25.1384 332.703 26.141 332.312 27.1567C331.922 28.1723 331.622 29.0837 331.414 29.891C331.206 30.6983 331.102 31.3494 331.102 31.8442C331.102 32.1827 331.102 32.4822 331.102 32.7426C331.128 33.003 331.193 33.3546 331.297 33.7973C331.427 34.214 331.596 34.5525 331.805 34.8129C332.013 35.0733 332.326 35.3077 332.742 35.516C333.185 35.7244 333.706 35.8285 334.305 35.8285C335.216 35.8285 336.18 35.477 337.195 34.7738C338.211 34.0707 339.083 33.2374 339.812 32.2738C340.568 31.3103 341.167 30.3207 341.609 29.3051C342.052 28.2895 342.208 27.4561 342.078 26.8051L342.43 26.6488C342.768 27.2999 342.911 28.003 342.859 28.7582C342.807 29.4874 342.651 30.2296 342.391 30.9848C342.13 31.714 341.727 32.4171 341.18 33.0942C340.633 33.7712 340.021 34.3702 339.344 34.891C338.667 35.4119 337.885 35.8285 337 36.141C336.141 36.4535 335.255 36.6098 334.344 36.6098C332.781 36.6098 331.505 36.089 330.516 35.0473C329.526 34.0056 329.031 32.5603 329.031 30.7113C329.031 28.9145 329.474 27.1957 330.359 25.5551C331.245 23.9145 332.391 22.5343 333.797 21.4145C335.203 20.2686 336.753 19.3702 338.445 18.7192C340.164 18.0421 341.857 17.7035 343.523 17.7035C344.383 17.7035 345.216 17.7817 346.023 17.9379C346.857 18.0942 347.703 18.3676 348.562 18.7582C349.422 19.1488 350.164 19.6567 350.789 20.2817C351.44 20.9067 351.974 21.74 352.391 22.7817C352.807 23.7973 353.016 24.9692 353.016 26.2973C353.016 27.8077 352.651 29.3572 351.922 30.9457C351.219 32.5343 350.333 33.9796 349.266 35.2817C348.198 36.5577 346.922 37.8858 345.438 39.266C343.953 40.6462 342.56 41.8442 341.258 42.8598C339.982 43.8494 338.628 44.9041 337.195 46.0238C335.789 47.1436 334.734 48.0421 334.031 48.7192C333.068 49.6306 332.156 50.5681 331.297 51.5317C330.464 52.4692 329.786 53.3025 329.266 54.0317C328.771 54.7348 328.328 55.3728 327.938 55.9457C327.573 56.5186 327.312 56.9613 327.156 57.2738L326.922 57.7426H326.297ZM325.164 66.141C324.461 66.141 323.914 65.9197 323.523 65.477C323.133 65.0082 322.938 64.4744 322.938 63.8754C322.938 63.1723 323.146 62.5733 323.562 62.0785C324.005 61.5837 324.604 61.3363 325.359 61.3363C326.167 61.3363 326.74 61.5837 327.078 62.0785C327.443 62.5733 327.625 63.0942 327.625 63.641C327.625 64.3181 327.404 64.9041 326.961 65.3988C326.518 65.8936 325.919 66.141 325.164 66.141Z" fill="#212844"/>
<path d="M360.375 52.216C359.142 52.216 357.6 51.8244 355.75 51.041C354.45 50.491 353.425 50.0994 352.675 49.866C351.942 49.616 351.183 49.491 350.4 49.491C349.5 49.491 348.65 49.6827 347.85 50.066C347.067 50.4327 346.258 50.891 345.425 51.441C345.358 51.491 345.3 51.516 345.25 51.516C345.2 51.516 345.142 51.491 345.075 51.441C345.025 51.391 345 51.3494 345 51.316C345 51.2827 345.017 51.241 345.05 51.191C345.6 50.441 346.4 49.7327 347.45 49.066C348.517 48.3827 349.733 48.041 351.1 48.041C352.35 48.041 353.9 48.4327 355.75 49.216L356.3 49.441C357.433 49.9077 358.333 50.2494 359 50.466C359.667 50.6827 360.358 50.791 361.075 50.791C361.975 50.791 362.817 50.6077 363.6 50.241C364.383 49.8577 365.2 49.3827 366.05 48.816C366.133 48.766 366.192 48.741 366.225 48.741C366.275 48.741 366.325 48.766 366.375 48.816C366.442 48.866 366.475 48.9077 366.475 48.941C366.475 48.9744 366.458 49.016 366.425 49.066C365.875 49.816 365.067 50.5327 364 51.216C362.95 51.8827 361.742 52.216 360.375 52.216Z" fill="#212844"/>
</svg>
