<svg width="267" height="92" viewBox="0 0 267 92" fill="none" xmlns="http://www.w3.org/2000/svg">
<path d="M15.375 51.4344C14.1417 51.4344 12.6 51.0427 10.75 50.2594C9.45 49.7094 8.425 49.3177 7.675 49.0844C6.94167 48.8344 6.18333 48.7094 5.4 48.7094C4.5 48.7094 3.65 48.901 2.85 49.2844C2.06667 49.651 1.25833 50.1094 0.425 50.6594C0.358333 50.7094 0.3 50.7344 0.25 50.7344C0.2 50.7344 0.141667 50.7094 0.0750002 50.6594C0.0250001 50.6094 0 50.5677 0 50.5344C0 50.501 0.0166667 50.4594 0.0500001 50.4094C0.6 49.6594 1.4 48.951 2.45 48.2844C3.51667 47.601 4.73333 47.2594 6.1 47.2594C7.35 47.2594 8.9 47.651 10.75 48.4344L11.3 48.6594C12.4333 49.126 13.3333 49.4677 14 49.6844C14.6667 49.901 15.3583 50.0094 16.075 50.0094C16.975 50.0094 17.8167 49.826 18.6 49.4594C19.3833 49.076 20.2 48.601 21.05 48.0344C21.1333 47.9844 21.1917 47.9594 21.225 47.9594C21.275 47.9594 21.325 47.9844 21.375 48.0344C21.4417 48.0844 21.475 48.126 21.475 48.1594C21.475 48.1927 21.4583 48.2344 21.425 48.2844C20.875 49.0344 20.0667 49.751 19 50.4344C17.95 51.101 16.7417 51.4344 15.375 51.4344Z" fill="#212844"/>
<path d="M48.3281 56.6484C47.7292 58.6797 47.4557 60.4115 47.5078 61.8438C47.5599 63.25 47.8594 64.4219 48.4062 65.3594C48.9792 66.2708 49.7734 66.9479 50.7891 67.3906C51.8047 67.8594 52.9635 68.1328 54.2656 68.2109C53.7448 66.5443 53.5104 64.7474 53.5625 62.8203C53.6406 60.8932 53.9141 59.0052 54.3828 57.1562C54.8516 55.2812 55.4766 53.5234 56.2578 51.8828C57.0651 50.2422 57.9635 48.862 58.9531 47.7422C59.8906 46.7005 60.9062 45.75 62 44.8906C63.1198 44.0052 64.2786 43.25 65.4766 42.625C66.7005 41.974 67.9505 41.4661 69.2266 41.1016C70.5286 40.737 71.8047 40.5547 73.0547 40.5547C74.1484 40.5547 75.125 40.75 75.9844 41.1406C76.8438 41.5052 77.5599 42 78.1328 42.625C78.7318 43.25 79.1745 43.9922 79.4609 44.8516C79.7734 45.6849 79.9297 46.5703 79.9297 47.5078C79.9297 49.0182 79.6823 50.5807 79.1875 52.1953C78.7188 53.8099 78.0286 55.4115 77.1172 57C76.2057 58.5625 75.112 60.0599 73.8359 61.4922C72.5599 62.9245 71.1146 64.2135 69.5 65.3594C67.8854 66.4792 66.1276 67.4036 64.2266 68.1328C62.3516 68.888 60.3594 69.3438 58.25 69.5C57.9635 69.526 57.6771 69.5391 57.3906 69.5391C57.1042 69.5651 56.8177 69.5911 56.5312 69.6172C57.0521 70.5807 57.7422 71.4271 58.6016 72.1562C59.4609 72.8854 60.5156 73.4453 61.7656 73.8359L61.2188 75.2812C59.5781 74.7865 58.237 74.0443 57.1953 73.0547C56.1536 72.0651 55.3464 70.9062 54.7734 69.5781C53.0547 69.5 51.4271 69.1875 49.8906 68.6406C48.3542 68.0938 47 67.2865 45.8281 66.2188C44.6562 65.151 43.7188 63.7839 43.0156 62.1172C42.3385 60.4245 42 58.4062 42 56.0625C42 53.6667 42.4557 51.2578 43.3672 48.8359C44.3047 46.388 45.5938 43.9661 47.2344 41.5703C44.2656 42.013 41.6484 42.0781 39.3828 41.7656C37.1432 41.4531 35.2552 40.8932 33.7188 40.0859C32.1823 39.2526 30.9974 38.224 30.1641 37C29.3307 35.776 28.849 34.474 28.7188 33.0938C28.5885 31.6875 28.8099 30.2682 29.3828 28.8359C29.9557 27.3776 30.8672 26.0104 32.1172 24.7344C33.3672 23.4583 34.9557 22.3385 36.8828 21.375C38.8099 20.3854 41.0755 19.6562 43.6797 19.1875C45.6849 18.8229 47.7812 18.6146 49.9688 18.5625C52.1823 18.4844 54.4089 18.5495 56.6484 18.7578C58.9141 18.9661 61.1536 19.3047 63.3672 19.7734C65.6068 20.2161 67.7422 20.776 69.7734 21.4531C72.1693 20.0208 74.5781 18.7188 77 17.5469C79.4219 16.375 81.7786 15.3854 84.0703 14.5781C86.388 13.7448 88.6146 13.1068 90.75 12.6641C92.8854 12.2214 94.8516 12 96.6484 12C97.9766 12 98.9141 12.3125 99.4609 12.9375C100.034 13.5625 100.346 14.3698 100.398 15.3594V15.75C100.398 17.1042 99.8125 18.5885 98.6406 20.2031C97.4688 21.7917 95.8542 23.4193 93.7969 25.0859C91.7656 26.7266 89.3568 28.3542 86.5703 29.9688C83.8099 31.5833 80.8281 33.0677 77.625 34.4219C74.4479 35.75 71.1276 36.9089 67.6641 37.8984C64.2005 38.888 60.763 39.5781 57.3516 39.9688C55.2943 42.7292 53.4583 45.5417 51.8438 48.4062C50.2552 51.2448 49.0833 53.9922 48.3281 56.6484ZM68.1719 22.4688C66.3229 21.974 64.3568 21.5443 62.2734 21.1797C60.1901 20.7891 58.0677 20.5026 55.9062 20.3203C53.7708 20.112 51.6354 20.0208 49.5 20.0469C47.3906 20.0729 45.3724 20.2422 43.4453 20.5547C41.0495 20.9714 38.9141 21.7526 37.0391 22.8984C35.1901 24.0182 33.7057 25.3203 32.5859 26.8047C31.4661 28.2891 30.776 29.8385 30.5156 31.4531C30.2552 33.0677 30.5156 34.5521 31.2969 35.9062C32.1042 37.2604 33.4974 38.3802 35.4766 39.2656C37.4818 40.125 40.1641 40.5547 43.5234 40.5547C44.2786 40.5547 45.0469 40.5156 45.8281 40.4375C46.6354 40.3594 47.4557 40.2552 48.2891 40.125C49.513 38.4844 50.8672 36.8698 52.3516 35.2812C53.862 33.6927 55.4635 32.1562 57.1562 30.6719C58.875 29.1615 60.6589 27.7292 62.5078 26.375C64.3568 24.9948 66.2448 23.6927 68.1719 22.4688ZM61.2188 67.4297C62.8854 67.013 64.474 66.401 65.9844 65.5938C67.5208 64.7865 68.9401 63.849 70.2422 62.7812C71.5443 61.6875 72.7292 60.4896 73.7969 59.1875C74.8646 57.8854 75.776 56.5573 76.5312 55.2031C77.2865 53.849 77.8594 52.4948 78.25 51.1406C78.6667 49.7604 78.875 48.4453 78.875 47.1953C78.7448 45.3984 78.224 44.0703 77.3125 43.2109C76.401 42.3516 75.0599 41.9219 73.2891 41.9219C72.1172 41.9219 70.9453 42.0911 69.7734 42.4297C68.6276 42.7682 67.5078 43.25 66.4141 43.875C65.3464 44.5 64.3047 45.2422 63.2891 46.1016C62.2734 46.9349 61.3099 47.8594 60.3984 48.875C59.3568 50.0729 58.4323 51.4792 57.625 53.0938C56.8177 54.6823 56.1927 56.362 55.75 58.1328C55.3073 59.8776 55.0859 61.6224 55.0859 63.3672C55.0859 65.112 55.3594 66.7266 55.9062 68.2109C57.5208 68.1849 59.2917 67.9245 61.2188 67.4297ZM98.5625 15.6719C98.4844 14.7083 98.224 14.0312 97.7812 13.6406C97.3385 13.25 96.7005 13.0547 95.8672 13.0547C94.3047 13.0547 92.638 13.3021 90.8672 13.7969C89.0964 14.2656 87.2734 14.9427 85.3984 15.8281C83.5495 16.6875 81.6484 17.7422 79.6953 18.9922C77.7682 20.2161 75.8542 21.5703 73.9531 23.0547C75.0469 23.5495 76.0885 24.0703 77.0781 24.6172C78.0677 25.1641 78.9792 25.737 79.8125 26.3359C79.7865 26.362 79.7344 26.4141 79.6562 26.4922C79.5781 26.5703 79.5 26.6615 79.4219 26.7656C79.3438 26.8438 79.2656 26.9219 79.1875 27C79.1354 27.0521 79.0964 27.0651 79.0703 27.0391C78.4974 26.5182 77.6771 25.9974 76.6094 25.4766C75.5417 24.9557 74.2917 24.4349 72.8594 23.9141C70.4896 25.8151 68.1849 27.8724 65.9453 30.0859C63.7318 32.2995 61.6484 34.5911 59.6953 36.9609C59.487 37.2474 59.2656 37.5208 59.0312 37.7812C58.8229 38.0156 58.6146 38.276 58.4062 38.5625C62.0521 38.0417 65.5547 37.2865 68.9141 36.2969C72.2734 35.2812 75.4115 34.1224 78.3281 32.8203C81.2448 31.5182 83.901 30.125 86.2969 28.6406C88.7188 27.1302 90.8021 25.6198 92.5469 24.1094C94.3177 22.5729 95.7109 21.0885 96.7266 19.6562C97.7682 18.1979 98.3802 16.8698 98.5625 15.6719Z" fill="#212844"/>
<path d="M115.711 46.3359L116.375 47.2344C115.099 48.3281 114.018 49.1484 113.133 49.6953C112.273 50.2161 111.505 50.5807 110.828 50.7891C110.516 50.8672 110.281 50.9323 110.125 50.9844C109.969 51.0365 109.747 51.0755 109.461 51.1016C109.331 51.1276 109.214 51.1406 109.109 51.1406C109.031 51.1406 108.966 51.1406 108.914 51.1406H107.82C107.586 51.7135 107.326 52.2865 107.039 52.8594C106.753 53.4323 106.44 54.0182 106.102 54.6172C104.279 57.8724 102.26 60.4896 100.047 62.4688C97.8854 64.3958 96.0495 65.3594 94.5391 65.3594C93.3672 65.3594 92.4818 64.8255 91.8828 63.7578C91.3099 62.6901 91.0234 61.362 91.0234 59.7734C91.0234 58.6797 91.2318 57.5208 91.6484 56.2969C92.0911 55.0469 92.6901 53.8099 93.4453 52.5859H90.125L82.9375 65.3594H78.1719L91.4531 41.8438H96.1797L90.6719 51.5703H94.1484C94.3568 51.3099 94.5521 51.0495 94.7344 50.7891C94.9427 50.5286 95.151 50.2682 95.3594 50.0078C96.2708 48.862 97.2734 47.7812 98.3672 46.7656C99.4609 45.75 100.555 44.8646 101.648 44.1094C102.742 43.3281 103.784 42.7161 104.773 42.2734C105.763 41.8307 106.622 41.6224 107.352 41.6484C107.846 41.6484 108.25 41.8568 108.562 42.2734C108.901 42.6641 109.122 43.224 109.227 43.9531C109.331 44.6823 109.305 45.5677 109.148 46.6094C108.992 47.651 108.68 48.8099 108.211 50.0859C110.19 50.0078 112.69 48.7578 115.711 46.3359ZM105.008 54.2266C105.372 53.5755 105.685 52.9766 105.945 52.4297C106.232 51.8568 106.479 51.3359 106.688 50.8672C106.036 50.5547 105.594 50.0599 105.359 49.3828C105.125 48.6797 105.047 48.0026 105.125 47.3516C105.203 46.5964 105.581 45.8151 106.258 45.0078C106.935 44.2266 107.612 43.7708 108.289 43.6406C108.081 42.8594 107.768 42.4688 107.352 42.4688C106.154 42.4688 104.747 43.3151 103.133 45.0078C101.518 46.7005 100.073 48.6927 98.7969 50.9844C98.1458 52.1302 97.5339 53.2891 96.9609 54.4609C96.4141 55.6068 95.9193 56.7786 95.4766 57.9766C94.5651 60.3984 94.1094 62.2474 94.1094 63.5234C94.1094 64.0703 94.2526 64.3438 94.5391 64.3438C95.763 64.3438 97.4167 63.3672 99.5 61.4141C101.583 59.4349 103.419 57.0391 105.008 54.2266Z" fill="#212844"/>
<path d="M130.906 53.3672H132.078C131.557 54.2005 131.01 55.0208 130.438 55.8281C129.865 56.6354 129.096 57.651 128.133 58.875C127.169 60.099 126.258 61.1667 125.398 62.0781C124.565 62.9635 123.667 63.7318 122.703 64.3828C121.74 65.0339 120.906 65.3594 120.203 65.3594C119.943 65.3594 119.682 65.3333 119.422 65.2812C119.161 65.2031 118.849 65.0599 118.484 64.8516C118.146 64.6432 117.846 64.3698 117.586 64.0312C117.352 63.6927 117.143 63.2109 116.961 62.5859C116.779 61.9609 116.688 61.2318 116.688 60.3984C116.688 59.5391 117.026 58.4583 117.703 57.1562C118.406 55.8542 119.253 54.5521 120.242 53.25C121.232 51.9219 122.221 50.6458 123.211 49.4219C124.201 48.1719 125.034 47.026 125.711 45.9844C126.414 44.9427 126.766 44.1875 126.766 43.7188C126.766 43.1719 126.57 42.8984 126.18 42.8984C125.372 42.8984 124.318 43.3932 123.016 44.3828C121.74 45.3464 120.477 46.5182 119.227 47.8984C117.977 49.2786 116.779 50.6719 115.633 52.0781C114.487 53.4583 113.562 54.6302 112.859 55.5938L111.805 57.0781L91.4922 89.6953H87.1562L105.984 59.6562L109.305 53.4453L116.531 41.8438H120.945L120.867 41.9609C119.956 43.5495 118.328 46.2188 115.984 49.9688C120.281 44.4219 123.875 41.6484 126.766 41.6484C127.599 41.6484 128.289 41.9089 128.836 42.4297C129.409 42.9505 129.695 43.7839 129.695 44.9297C129.695 45.8932 129.331 47.0651 128.602 48.4453C127.898 49.8255 127.039 51.2057 126.023 52.5859C125.034 53.9661 124.031 55.3203 123.016 56.6484C122 57.9766 121.141 59.2266 120.438 60.3984C119.734 61.5443 119.383 62.4427 119.383 63.0938C119.383 63.9271 119.656 64.3438 120.203 64.3438C120.88 64.3438 121.714 63.9531 122.703 63.1719C123.693 62.3906 124.721 61.362 125.789 60.0859C126.883 58.8099 127.82 57.651 128.602 56.6094C129.409 55.5417 130.177 54.4609 130.906 53.3672Z" fill="#212844"/>
<path d="M152.352 53.3672H153.523C152.977 54.2005 152.43 55.0208 151.883 55.8281C151.336 56.6354 150.581 57.651 149.617 58.875C148.654 60.099 147.742 61.1667 146.883 62.0781C146.049 62.9635 145.151 63.7318 144.188 64.3828C143.224 65.0339 142.391 65.3594 141.688 65.3594C141.427 65.3594 141.167 65.3333 140.906 65.2812C140.646 65.2031 140.333 65.0599 139.969 64.8516C139.63 64.6432 139.331 64.3698 139.07 64.0312C138.836 63.6927 138.628 63.2109 138.445 62.5859C138.263 61.9609 138.172 61.2318 138.172 60.3984C138.172 59.5391 138.51 58.4583 139.188 57.1562C139.891 55.8542 140.737 54.5521 141.727 53.25C142.716 51.9219 143.706 50.6458 144.695 49.4219C145.685 48.1719 146.518 47.026 147.195 45.9844C147.898 44.9427 148.25 44.1875 148.25 43.7188C148.25 43.1719 148.055 42.8984 147.664 42.8984C146.857 42.8984 145.802 43.3932 144.5 44.3828C143.224 45.3464 141.961 46.5182 140.711 47.8984C139.461 49.2786 138.263 50.6719 137.117 52.0781C135.971 53.4583 135.047 54.6302 134.344 55.5938L133.289 57.0781L128.523 65.1641H123.953L127.547 59.6562L130.789 53.4453L137.938 41.8438H142.43C142.326 42.026 142.052 42.4557 141.609 43.1328C141.193 43.8099 140.711 44.5781 140.164 45.4375C139.643 46.2969 139.279 46.8958 139.07 47.2344C138.055 48.875 137.247 50.151 136.648 51.0625C141.31 44.7865 145.177 41.6484 148.25 41.6484C149.083 41.6484 149.773 41.9089 150.32 42.4297C150.893 42.9505 151.18 43.7839 151.18 44.9297C151.18 45.8932 150.815 47.0651 150.086 48.4453C149.383 49.8255 148.523 51.2057 147.508 52.5859C146.518 53.9661 145.516 55.3203 144.5 56.6484C143.484 57.9766 142.625 59.2266 141.922 60.3984C141.219 61.5443 140.867 62.4427 140.867 63.0938C140.867 63.9271 141.141 64.3438 141.688 64.3438C142.234 64.3438 142.898 64.0703 143.68 63.5234C144.461 62.9505 145.229 62.2734 145.984 61.4922C146.766 60.6849 147.586 59.7474 148.445 58.6797C149.305 57.612 150.034 56.6745 150.633 55.8672C151.232 55.0339 151.805 54.2005 152.352 53.3672Z" fill="#212844"/>
<path d="M173.875 53.3672H175.047C174.526 54.2005 173.979 55.0208 173.406 55.8281C172.833 56.6354 172.065 57.651 171.102 58.875C170.138 60.099 169.227 61.1667 168.367 62.0781C167.534 62.9635 166.635 63.7318 165.672 64.3828C164.708 65.0339 163.875 65.3594 163.172 65.3594C162.911 65.3594 162.651 65.3333 162.391 65.2812C162.13 65.2031 161.818 65.0599 161.453 64.8516C161.115 64.6432 160.815 64.3698 160.555 64.0312C160.32 63.6927 160.112 63.2109 159.93 62.5859C159.747 61.9609 159.656 61.2318 159.656 60.3984C159.656 59.5391 159.995 58.4583 160.672 57.1562C161.375 55.8542 162.221 54.5521 163.211 53.25C164.201 51.9219 165.19 50.6458 166.18 49.4219C167.169 48.1719 168.003 47.026 168.68 45.9844C169.383 44.9427 169.734 44.1875 169.734 43.7188C169.734 43.1719 169.539 42.8984 169.148 42.8984C168.341 42.8984 167.286 43.3932 165.984 44.3828C164.708 45.3464 163.445 46.5182 162.195 47.8984C160.945 49.2786 159.747 50.6719 158.602 52.0781C157.456 53.4583 156.531 54.6302 155.828 55.5938L154.773 57.0781L134.461 89.6953H130.125L148.953 59.6562L152.273 53.4453L159.5 41.8438H163.914L163.836 41.9609C162.924 43.5495 161.297 46.2188 158.953 49.9688C163.25 44.4219 166.844 41.6484 169.734 41.6484C170.568 41.6484 171.258 41.9089 171.805 42.4297C172.378 42.9505 172.664 43.7839 172.664 44.9297C172.664 45.8932 172.299 47.0651 171.57 48.4453C170.867 49.8255 170.008 51.2057 168.992 52.5859C168.003 53.9661 167 55.3203 165.984 56.6484C164.969 57.9766 164.109 59.2266 163.406 60.3984C162.703 61.5443 162.352 62.4427 162.352 63.0938C162.352 63.9271 162.625 64.3438 163.172 64.3438C163.849 64.3438 164.682 63.9531 165.672 63.1719C166.661 62.3906 167.69 61.362 168.758 60.0859C169.852 58.8099 170.789 57.651 171.57 56.6094C172.378 55.5417 173.146 54.4609 173.875 53.3672Z" fill="#212844"/>
<path d="M196.258 53.3672H197.43C197.221 53.7057 196.935 54.1484 196.57 54.6953C196.232 55.2161 195.555 56.1667 194.539 57.5469C193.549 58.9271 192.599 60.151 191.688 61.2188C190.802 62.2604 189.799 63.2109 188.68 64.0703C187.586 64.9297 186.661 65.3594 185.906 65.3594C185.047 65.3594 184.279 64.8776 183.602 63.9141C182.924 62.9505 182.586 61.5703 182.586 59.7734C182.586 59.2005 182.742 58.4583 183.055 57.5469C179.018 62.7552 176.258 65.3594 174.773 65.3594C173.94 65.3594 173.185 64.8776 172.508 63.9141C171.831 62.9505 171.492 61.5703 171.492 59.7734C171.492 58.9661 171.818 57.7943 172.469 56.2578C173.12 54.7214 173.901 53.1589 174.812 51.5703C175.75 49.9557 176.688 48.4062 177.625 46.9219C178.562 45.4375 179.357 44.2266 180.008 43.2891L180.984 41.8438H185.945C185.633 42.3125 185.216 42.9245 184.695 43.6797C184.174 44.4349 183.25 45.8542 181.922 47.9375C180.594 49.9948 179.422 51.8958 178.406 53.6406C177.391 55.3854 176.466 57.1823 175.633 59.0312C174.799 60.8542 174.383 62.2083 174.383 63.0938C174.383 63.7708 174.656 64.1094 175.203 64.1094C176.375 64.1094 179.578 60.6328 184.812 53.6797C185.646 52.0651 186.661 50.2812 187.859 48.3281C189.083 46.349 190.086 44.7734 190.867 43.6016L192.078 41.8438H197.039C196.727 42.3125 196.297 42.9245 195.75 43.6797C195.229 44.4349 194.305 45.8542 192.977 47.9375C191.648 49.9948 190.477 51.8958 189.461 53.6406C188.471 55.3854 187.56 57.1823 186.727 59.0312C185.893 60.8542 185.477 62.2083 185.477 63.0938C185.477 63.7708 185.75 64.1094 186.297 64.1094C186.766 64.1094 187.404 63.7708 188.211 63.0938C189.018 62.4167 189.799 61.6484 190.555 60.7891C191.31 59.9297 192.143 58.9141 193.055 57.7422C193.966 56.5703 194.63 55.6849 195.047 55.0859C195.49 54.487 195.893 53.9141 196.258 53.3672Z" fill="#212844"/>
<path d="M213.445 53.3672C211.596 56.1797 209.383 58.7057 206.805 60.9453C204.227 63.1849 201.661 64.9557 199.109 66.2578C199.604 67.638 199.669 69.1745 199.305 70.8672C198.94 72.5599 198.341 74.2526 197.508 75.9453C196.674 77.6641 195.62 79.3307 194.344 80.9453C193.068 82.5599 191.766 83.9922 190.438 85.2422C189.083 86.4922 187.729 87.4818 186.375 88.2109C184.995 88.9661 183.81 89.3438 182.82 89.3438C181.57 89.3438 180.945 88.5495 180.945 86.9609C180.945 85.4505 181.479 83.6406 182.547 81.5312C183.589 79.4479 184.891 77.4297 186.453 75.4766C188.016 73.5495 189.708 71.7526 191.531 70.0859C193.354 68.4193 195.021 67.1823 196.531 66.375C196.453 64.5521 195.776 63.3281 194.5 62.7031L194.422 61.8438C195.958 61.1146 197.599 59.9948 199.344 58.4844C201.115 56.974 202.69 55.3854 204.07 53.7188C205.451 52.0521 206.609 50.3854 207.547 48.7188C208.484 47.0521 208.953 45.6849 208.953 44.6172C208.979 44.0703 208.888 43.6016 208.68 43.2109C208.471 42.7943 208.159 42.5859 207.742 42.5859C207.143 42.5859 206.466 42.8594 205.711 43.4062C204.982 43.9531 204.135 44.7995 203.172 45.9453C202.208 47.0651 201.349 48.1198 200.594 49.1094C199.839 50.099 198.862 51.4271 197.664 53.0938C197.352 53.5365 197.117 53.862 196.961 54.0703L195.75 54.1484C198.302 50.4505 200.177 47.8854 201.375 46.4531C204.057 43.25 206.297 41.6484 208.094 41.6484C210.151 41.6484 211.453 42.3516 212 43.7578C212.547 45.1641 212.221 47.1172 211.023 49.6172C210.32 51.1016 208.979 52.7682 207 54.6172C205.047 56.4661 203.029 58.0938 200.945 59.5C198.862 60.8802 197.117 61.8438 195.711 62.3906C197.091 63.1458 198.094 64.1354 198.719 65.3594C201.036 64.2396 203.406 62.638 205.828 60.5547C208.276 58.4714 210.411 56.0755 212.234 53.3672H213.445ZM182.547 88.4062C183.719 88.4062 185.112 87.651 186.727 86.1406C188.315 84.6562 189.826 82.8464 191.258 80.7109C192.664 78.6016 193.888 76.2969 194.93 73.7969C195.945 71.3229 196.492 69.1615 196.57 67.3125C194.331 68.7188 192.078 70.6458 189.812 73.0938C187.547 75.5677 185.672 78.1068 184.188 80.7109C182.703 83.3411 181.961 85.5417 181.961 87.3125C181.961 88.0417 182.156 88.4062 182.547 88.4062Z" fill="#212844"/>
<path d="M242.352 53.4844C241.596 54.526 240.867 55.5286 240.164 56.4922C239.461 57.4297 238.771 58.3151 238.094 59.1484C237.417 59.9818 236.727 60.763 236.023 61.4922C235.346 62.2214 234.669 62.9115 233.992 63.5625C232.638 64.8385 231.596 65.4766 230.867 65.4766C230.451 65.4766 230.047 65.3594 229.656 65.125C229.266 64.8646 228.914 64.5 228.602 64.0312C228.289 63.5625 228.042 62.9896 227.859 62.3125C227.677 61.6094 227.586 60.8021 227.586 59.8906C227.586 59.0312 227.911 57.8594 228.562 56.375C229.214 54.8646 229.995 53.3021 230.906 51.6875C231.115 51.349 231.297 51.0234 231.453 50.7109C231.635 50.3724 231.831 50.0469 232.039 49.7344C231.336 50.2552 230.581 50.6979 229.773 51.0625C228.966 51.4271 228.107 51.6615 227.195 51.7656C227.404 52.7292 227.352 53.849 227.039 55.125C226.674 56.6354 226.062 58.0286 225.203 59.3047C224.37 60.5807 223.38 61.6875 222.234 62.625C221.089 63.5365 219.852 64.2656 218.523 64.8125C217.195 65.3333 215.88 65.5938 214.578 65.5938C213.615 65.6979 212.846 65.5938 212.273 65.2812C211.701 64.9688 211.258 64.526 210.945 63.9531C210.633 63.3802 210.451 62.7292 210.398 62C210.32 61.2448 210.32 60.5026 210.398 59.7734C210.477 59.0182 210.62 58.3021 210.828 57.625C211.01 56.9479 211.206 56.388 211.414 55.9453C212.534 53.1328 213.784 50.5938 215.164 48.3281C216.544 46.0365 217.859 43.875 219.109 41.8438H223.719C223.615 41.974 223.133 42.7552 222.273 44.1875C221.414 45.5938 220.19 47.7552 218.602 50.6719C219.513 49.8646 220.398 49.2786 221.258 48.9141C222.143 48.5495 222.951 48.3932 223.68 48.4453C224.435 48.4714 225.086 48.6927 225.633 49.1094C226.206 49.5 226.635 50.0469 226.922 50.75C228.198 50.6979 229.422 50.3073 230.594 49.5781C231.766 48.8229 232.794 48.0026 233.68 47.1172C234.122 46.362 234.552 45.6849 234.969 45.0859C235.385 44.4609 235.763 43.901 236.102 43.4062L237.078 41.9609H242.039C241.883 42.1953 241.701 42.4688 241.492 42.7812C241.284 43.0938 241.049 43.4323 240.789 43.7969C240.529 44.1615 240.164 44.7083 239.695 45.4375C239.253 46.1406 238.693 47.013 238.016 48.0547C237.339 49.0964 236.714 50.0859 236.141 51.0234C235.568 51.9609 235.021 52.8724 234.5 53.7578C233.979 54.6432 233.484 55.5417 233.016 56.4531C232.573 57.3385 232.143 58.237 231.727 59.1484C230.893 61.0234 230.477 62.3776 230.477 63.2109C230.477 63.888 230.75 64.2266 231.297 64.2266C231.974 64.2266 233.224 63.1979 235.047 61.1406C236.922 59.0312 238.966 56.4792 241.18 53.4844H242.352ZM216.141 55.3594C215.724 56.1667 215.32 57.1302 214.93 58.25C214.539 59.3438 214.253 60.3854 214.07 61.375C213.914 62.3646 213.914 63.1849 214.07 63.8359C214.227 64.487 214.643 64.7734 215.32 64.6953C216.023 64.6172 216.74 64.2786 217.469 63.6797C218.224 63.0547 218.94 62.2865 219.617 61.375C220.32 60.4635 220.958 59.4609 221.531 58.3672C222.13 57.2474 222.625 56.1406 223.016 55.0469C223.224 54.5 223.419 53.849 223.602 53.0938C223.81 52.3125 223.914 51.6354 223.914 51.0625C223.888 50.3854 223.68 49.9427 223.289 49.7344C222.898 49.5 222.391 49.4609 221.766 49.6172C221.167 49.7734 220.503 50.099 219.773 50.5938C219.07 51.0885 218.367 51.7135 217.664 52.4688C217.404 52.9115 217.143 53.3802 216.883 53.875C216.648 54.3438 216.401 54.8385 216.141 55.3594Z" fill="#212844"/>
<path d="M260.375 51.4344C259.142 51.4344 257.6 51.0427 255.75 50.2594C254.45 49.7094 253.425 49.3177 252.675 49.0844C251.942 48.8344 251.183 48.7094 250.4 48.7094C249.5 48.7094 248.65 48.901 247.85 49.2844C247.067 49.651 246.258 50.1094 245.425 50.6594C245.358 50.7094 245.3 50.7344 245.25 50.7344C245.2 50.7344 245.142 50.7094 245.075 50.6594C245.025 50.6094 245 50.5677 245 50.5344C245 50.501 245.017 50.4594 245.05 50.4094C245.6 49.6594 246.4 48.951 247.45 48.2844C248.517 47.601 249.733 47.2594 251.1 47.2594C252.35 47.2594 253.9 47.651 255.75 48.4344L256.3 48.6594C257.433 49.126 258.333 49.4677 259 49.6844C259.667 49.901 260.358 50.0094 261.075 50.0094C261.975 50.0094 262.817 49.826 263.6 49.4594C264.383 49.076 265.2 48.601 266.05 48.0344C266.133 47.9844 266.192 47.9594 266.225 47.9594C266.275 47.9594 266.325 47.9844 266.375 48.0344C266.442 48.0844 266.475 48.126 266.475 48.1594C266.475 48.1927 266.458 48.2344 266.425 48.2844C265.875 49.0344 265.067 49.751 264 50.4344C262.95 51.101 261.742 51.4344 260.375 51.4344Z" fill="#212844"/>
</svg>
