<svg width="533" height="81" viewBox="0 0 533 81" fill="none" xmlns="http://www.w3.org/2000/svg">
<path d="M71.0156 4.19922C69.8438 4.53776 68.7109 5.03255 67.6172 5.68359C66.5234 6.30859 65.4818 7.07682 64.4922 7.98828C66.3151 9.78516 67.8385 11.8034 69.0625 14.043C70.2865 16.2565 71.1589 18.6263 71.6797 21.1523C72.2005 23.6784 72.3307 26.3086 72.0703 29.043C71.8359 31.7773 71.1719 34.5378 70.0781 37.3242C68.776 40.5534 67.0052 43.431 64.7656 45.957C62.5521 48.457 60 50.5924 57.1094 52.3633C54.2448 54.1081 51.1198 55.4622 47.7344 56.4258C44.349 57.3633 40.8594 57.8711 37.2656 57.9492C35.3125 57.9492 33.4245 57.7799 31.6016 57.4414C29.8047 57.1289 28.0208 56.7383 26.25 56.2695C25.7292 56.4779 25.1823 56.6732 24.6094 56.8555C24.0625 57.0378 23.5026 57.2201 22.9297 57.4023C22.4349 57.5326 21.7188 57.6888 20.7812 57.8711C19.8698 58.0534 18.8281 58.2227 17.6562 58.3789C16.5104 58.5352 15.2734 58.6654 13.9453 58.7695C12.6172 58.8737 11.2891 58.9258 9.96094 58.9258C8.65885 58.9258 7.40885 58.8607 6.21094 58.7305C5.01302 58.6263 3.94531 58.418 3.00781 58.1055C2.09635 57.793 1.36719 57.3633 0.820312 56.8164C0.273438 56.2956 0 55.6445 0 54.8633C0 54.2122 0.247396 53.6523 0.742188 53.1836C1.26302 52.7148 1.86198 52.3242 2.53906 52.0117C3.24219 51.6992 3.94531 51.4648 4.64844 51.3086C5.3776 51.1523 5.96354 51.0742 6.40625 51.0742H8.00781C9.59635 51.0742 11.1328 51.2044 12.6172 51.4648C14.1276 51.7253 15.599 52.0508 17.0312 52.4414C18.4635 52.832 19.8828 53.2617 21.2891 53.7305C22.6953 54.1732 24.1016 54.6029 25.5078 55.0195C28.0078 53.8997 30.1562 52.5456 31.9531 50.957C33.776 49.3424 35.4297 47.5456 36.9141 45.5664C38.3984 43.5612 39.8047 41.3867 41.1328 39.043C42.4609 36.6992 43.8672 34.2122 45.3516 31.582C46.3411 29.8372 47.4089 27.9622 48.5547 25.957C49.7266 23.9518 51.0026 21.9336 52.3828 19.9023C53.763 17.8451 55.2604 15.8398 56.875 13.8867C58.4896 11.9336 60.2604 10.1367 62.1875 8.49609C60.7292 6.7513 58.8932 5.31901 56.6797 4.19922C53.6068 2.74089 50.3516 1.88151 46.9141 1.62109C43.5026 1.36068 40.0911 1.60807 36.6797 2.36328C33.2943 3.11849 30 4.32943 26.7969 5.99609C23.6198 7.63672 20.7422 9.64193 18.1641 12.0117C15.5859 14.3555 13.3984 16.9987 11.6016 19.9414C9.80469 22.8581 8.60677 25.9831 8.00781 29.3164C7.7474 30.8008 7.59115 32.2331 7.53906 33.6133C7.51302 34.9935 7.63021 36.2956 7.89062 37.5195C8.15104 38.7435 8.58073 39.8633 9.17969 40.8789C9.77865 41.8945 10.5729 42.7669 11.5625 43.4961C13.125 44.668 14.7917 45.4232 16.5625 45.7617C18.3594 46.0742 20.1693 46.0612 21.9922 45.7227C23.8411 45.3841 25.6771 44.7591 27.5 43.8477C29.3229 42.9362 31.0547 41.8424 32.6953 40.5664C34.362 39.2643 35.8854 37.806 37.2656 36.1914C38.6719 34.5768 39.8568 32.9102 40.8203 31.1914C41.7839 29.4727 42.5 27.7409 42.9688 25.9961C43.4635 24.2513 43.6198 22.5716 43.4375 20.957C43.3594 19.7852 43.125 18.6784 42.7344 17.6367C42.3698 16.569 41.8229 15.6445 41.0938 14.8633C40.3646 14.082 39.4661 13.4701 38.3984 13.0273C37.3307 12.5846 36.0547 12.3763 34.5703 12.4023C32.7995 12.4284 31.1458 12.793 29.6094 13.4961C28.0729 14.1732 26.7057 15.0846 25.5078 16.2305C24.3099 17.3503 23.3073 18.6263 22.5 20.0586C21.6927 21.4909 21.1328 22.9492 20.8203 24.4336C20.6901 24.6419 20.612 24.8503 20.5859 25.0586C20.5859 25.2669 20.5859 25.5013 20.5859 25.7617C20.612 26.2565 20.4948 26.6341 20.2344 26.8945C19.974 27.1289 19.7135 27.2201 19.4531 27.168C19.2188 27.0898 19.0495 26.8555 18.9453 26.4648C18.8411 26.0482 18.9583 25.4492 19.2969 24.668C19.7656 22.8451 20.4818 21.1263 21.4453 19.5117C22.4089 17.8711 23.5677 16.4258 24.9219 15.1758C26.276 13.9258 27.8125 12.9362 29.5312 12.207C31.25 11.4779 33.112 11.1003 35.1172 11.0742C36.0026 11.0482 36.9792 11.1914 38.0469 11.5039C39.1406 11.8164 40.1562 12.3503 41.0938 13.1055C42.0573 13.8607 42.8776 14.8633 43.5547 16.1133C44.2578 17.3633 44.6745 18.9258 44.8047 20.8008C44.9609 22.5716 44.7526 24.4336 44.1797 26.3867C43.6328 28.3398 42.8125 30.2669 41.7188 32.168C40.625 34.069 39.3099 35.8919 37.7734 37.6367C36.237 39.3815 34.5703 40.957 32.7734 42.3633C30.9766 43.7435 29.0755 44.8893 27.0703 45.8008C25.0911 46.7122 23.099 47.2982 21.0938 47.5586C19.1146 47.793 17.1615 47.6367 15.2344 47.0898C13.3073 46.543 11.5104 45.5013 9.84375 43.9648C8.85417 43.0534 8.07292 41.9076 7.5 40.5273C6.95312 39.1471 6.57552 37.6497 6.36719 36.0352C6.1849 34.4206 6.17188 32.7669 6.32812 31.0742C6.48438 29.3815 6.79688 27.7669 7.26562 26.2305C7.96875 23.9128 8.97135 21.6732 10.2734 19.5117C11.5755 17.3503 13.099 15.332 14.8438 13.457C16.6146 11.556 18.5677 9.82422 20.7031 8.26172C22.8385 6.67318 25.0911 5.29297 27.4609 4.12109C29.8307 2.94922 32.2786 2.01172 34.8047 1.30859C37.3568 0.605469 39.9089 0.188802 42.4609 0.0585938C45.0391 -0.0976562 47.5781 0.0585938 50.0781 0.527344C52.6042 0.970052 55.0391 1.77734 57.3828 2.94922C58.5547 3.54818 59.6745 4.21224 60.7422 4.94141C61.8099 5.64453 62.7995 6.42578 63.7109 7.28516C64.8828 6.3737 66.0807 5.55339 67.3047 4.82422C68.5547 4.06901 69.8828 3.41797 71.2891 2.87109C71.3672 2.81901 71.4323 2.84505 71.4844 2.94922C71.5625 3.05339 71.6276 3.18359 71.6797 3.33984C71.6797 3.49609 71.6276 3.66536 71.5234 3.84766C71.4453 4.00391 71.276 4.12109 71.0156 4.19922ZM49.375 31.6602C48.0729 34.1602 46.6927 36.5951 45.2344 38.9648C43.776 41.3346 42.1745 43.5612 40.4297 45.6445C38.6849 47.7018 36.7578 49.5898 34.6484 51.3086C32.5651 53.0013 30.2604 54.4336 27.7344 55.6055C29.3229 56.0221 30.9375 56.3216 32.5781 56.5039C34.2188 56.6862 35.9375 56.6862 37.7344 56.5039C40.4948 56.2174 43.099 55.5273 45.5469 54.4336C48.0208 53.3398 50.3125 51.9596 52.4219 50.293C54.5312 48.6003 56.4323 46.6732 58.125 44.5117C59.8438 42.3242 61.3151 40.0326 62.5391 37.6367C63.763 35.2148 64.7135 32.7279 65.3906 30.1758C66.0938 27.6237 66.4844 25.1237 66.5625 22.6758C66.6406 20.2279 66.3802 17.8841 65.7812 15.6445C65.2083 13.3789 64.2708 11.3346 62.9688 9.51172C61.6927 10.8398 60.4688 12.3503 59.2969 14.043C58.151 15.7357 57.0182 17.5326 55.8984 19.4336C54.8047 21.3346 53.7109 23.3268 52.6172 25.4102C51.5495 27.4674 50.4688 29.5508 49.375 31.6602ZM6.875 52.4414C6.22396 52.4674 5.58594 52.5326 4.96094 52.6367C4.36198 52.7148 3.8151 52.8581 3.32031 53.0664C2.82552 53.2747 2.39583 53.5482 2.03125 53.8867C1.69271 54.2253 1.47135 54.6419 1.36719 55.1367C1.70573 55.944 2.33073 56.569 3.24219 57.0117C4.15365 57.4544 5.23438 57.7539 6.48438 57.9102C7.76042 58.0924 9.1276 58.1576 10.5859 58.1055C12.0443 58.0534 13.4766 57.9362 14.8828 57.7539C16.2891 57.5716 17.6172 57.3503 18.8672 57.0898C20.1172 56.8294 21.1458 56.582 21.9531 56.3477C22.6562 56.1133 23.3594 55.8659 24.0625 55.6055C22.7083 55.2148 21.3411 54.8242 19.9609 54.4336C18.6068 54.043 17.2266 53.6914 15.8203 53.3789C14.4141 53.0664 12.9688 52.832 11.4844 52.6758C10 52.4935 8.46354 52.4154 6.875 52.4414Z" fill="#FFFCF4"/>
<path d="M94.6094 37.4414L95.2734 38.3398C93.9974 39.4336 92.9167 40.2539 92.0312 40.8008C91.1719 41.3216 90.4036 41.6862 89.7266 41.8945C89.4141 41.9727 89.1797 42.0378 89.0234 42.0898C88.8672 42.1419 88.6458 42.181 88.3594 42.207C88.2292 42.2331 88.112 42.2461 88.0078 42.2461C87.9297 42.2461 87.8646 42.2461 87.8125 42.2461H86.7188C86.4844 42.819 86.224 43.3919 85.9375 43.9648C85.651 44.5378 85.3385 45.1237 85 45.7227C83.1771 48.9779 81.1589 51.5951 78.9453 53.5742C76.7839 55.5013 74.9479 56.4648 73.4375 56.4648C72.2656 56.4648 71.3932 55.931 70.8203 54.8633C70.2214 53.7956 69.9219 52.4674 69.9219 50.8789C69.9219 50.1497 70.026 49.3685 70.2344 48.5352C70.4427 47.7018 70.7422 46.8685 71.1328 46.0352C71.5234 45.1758 71.9792 44.3294 72.5 43.4961C73.0469 42.6628 73.6328 41.8685 74.2578 41.1133C75.1693 39.9674 76.1719 38.8867 77.2656 37.8711C78.3594 36.8555 79.4531 35.9701 80.5469 35.2148C81.6406 34.4336 82.6823 33.8216 83.6719 33.3789C84.6615 32.9362 85.5208 32.7279 86.25 32.7539C86.7448 32.7539 87.1484 32.9622 87.4609 33.3789C87.7995 33.7695 88.0208 34.3294 88.125 35.0586C88.2292 35.7878 88.2031 36.6732 88.0469 37.7148C87.8906 38.7565 87.5781 39.9154 87.1094 41.1914C89.0885 41.1133 91.5885 39.8633 94.6094 37.4414ZM83.9062 45.332C84.2708 44.681 84.5833 44.082 84.8438 43.5352C85.1302 42.9622 85.3776 42.4414 85.5859 41.9727C84.9349 41.6602 84.4922 41.1654 84.2578 40.4883C84.0234 39.7852 83.9453 39.1081 84.0234 38.457C84.1016 37.7018 84.4792 36.9206 85.1562 36.1133C85.8333 35.332 86.5104 34.8763 87.1875 34.7461C86.9792 33.9648 86.6667 33.5742 86.25 33.5742C85.0521 33.5742 83.6458 34.4206 82.0312 36.1133C80.4167 37.806 78.9714 39.7982 77.6953 42.0898C77.0443 43.2357 76.4323 44.3945 75.8594 45.5664C75.3125 46.7122 74.8177 47.8841 74.375 49.082C73.4635 51.5039 73.0078 53.3529 73.0078 54.6289C73.0078 55.1758 73.151 55.4492 73.4375 55.4492C74.6615 55.4492 76.3151 54.4727 78.3984 52.5195C80.4818 50.5404 82.3177 48.1445 83.9062 45.332Z" fill="#FFFCF4"/>
<path d="M110.273 44.4727H111.445C110.924 45.306 110.378 46.1263 109.805 46.9336C109.232 47.7409 108.464 48.7565 107.5 49.9805C106.536 51.2044 105.625 52.2721 104.766 53.1836C103.932 54.069 103.034 54.8372 102.07 55.4883C101.107 56.1393 100.273 56.4648 99.5703 56.4648C99.3099 56.4648 99.0495 56.4388 98.7891 56.3867C98.5286 56.3086 98.2161 56.1654 97.8516 55.957C97.513 55.7487 97.2135 55.4753 96.9531 55.1367C96.7188 54.7982 96.5104 54.3164 96.3281 53.6914C96.1458 53.0664 96.0547 52.3372 96.0547 51.5039C96.0547 50.6445 96.3932 49.5638 97.0703 48.2617C97.7734 46.9596 98.6198 45.6576 99.6094 44.3555C100.599 43.0273 101.589 41.7513 102.578 40.5273C103.568 39.2773 104.401 38.1315 105.078 37.0898C105.781 36.0482 106.133 35.293 106.133 34.8242C106.133 34.2773 105.938 34.0039 105.547 34.0039C104.74 34.0039 103.685 34.4987 102.383 35.4883C101.107 36.4518 99.8438 37.6237 98.5938 39.0039C97.3438 40.3841 96.1458 41.7773 95 43.1836C93.8542 44.5638 92.9297 45.7357 92.2266 46.6992L91.1719 48.1836L70.8594 80.8008H66.5234L85.3516 50.7617L88.6719 44.5508L95.8984 32.9492H100.312L100.234 33.0664C99.3229 34.6549 97.6953 37.3242 95.3516 41.0742C99.6484 35.5273 103.242 32.7539 106.133 32.7539C106.966 32.7539 107.656 33.0143 108.203 33.5352C108.776 34.056 109.062 34.8893 109.062 36.0352C109.062 36.9987 108.698 38.1706 107.969 39.5508C107.266 40.931 106.406 42.3112 105.391 43.6914C104.401 45.0716 103.398 46.4258 102.383 47.7539C101.367 49.082 100.508 50.332 99.8047 51.5039C99.1016 52.6497 98.75 53.5482 98.75 54.1992C98.75 55.0326 99.0234 55.4492 99.5703 55.4492C100.247 55.4492 101.081 55.0586 102.07 54.2773C103.06 53.4961 104.089 52.4674 105.156 51.1914C106.25 49.9154 107.188 48.7565 107.969 47.7148C108.776 46.6471 109.544 45.5664 110.273 44.4727Z" fill="#FFFCF4"/>
<path d="M132.109 37.4414L132.773 38.3398C131.497 39.4336 130.417 40.2539 129.531 40.8008C128.672 41.3216 127.904 41.6862 127.227 41.8945C126.914 41.9727 126.68 42.0378 126.523 42.0898C126.367 42.1419 126.146 42.181 125.859 42.207C125.729 42.2331 125.612 42.2461 125.508 42.2461C125.43 42.2461 125.365 42.2461 125.312 42.2461H124.219C123.984 42.819 123.724 43.3919 123.438 43.9648C123.151 44.5378 122.839 45.1237 122.5 45.7227C120.677 48.9779 118.659 51.5951 116.445 53.5742C114.284 55.5013 112.448 56.4648 110.938 56.4648C109.766 56.4648 108.893 55.931 108.32 54.8633C107.721 53.7956 107.422 52.4674 107.422 50.8789C107.422 50.1497 107.526 49.3685 107.734 48.5352C107.943 47.7018 108.242 46.8685 108.633 46.0352C109.023 45.1758 109.479 44.3294 110 43.4961C110.547 42.6628 111.133 41.8685 111.758 41.1133C112.669 39.9674 113.672 38.8867 114.766 37.8711C115.859 36.8555 116.953 35.9701 118.047 35.2148C119.141 34.4336 120.182 33.8216 121.172 33.3789C122.161 32.9362 123.021 32.7279 123.75 32.7539C124.245 32.7539 124.648 32.9622 124.961 33.3789C125.299 33.7695 125.521 34.3294 125.625 35.0586C125.729 35.7878 125.703 36.6732 125.547 37.7148C125.391 38.7565 125.078 39.9154 124.609 41.1914C126.589 41.1133 129.089 39.8633 132.109 37.4414ZM121.406 45.332C121.771 44.681 122.083 44.082 122.344 43.5352C122.63 42.9622 122.878 42.4414 123.086 41.9727C122.435 41.6602 121.992 41.1654 121.758 40.4883C121.523 39.7852 121.445 39.1081 121.523 38.457C121.602 37.7018 121.979 36.9206 122.656 36.1133C123.333 35.332 124.01 34.8763 124.688 34.7461C124.479 33.9648 124.167 33.5742 123.75 33.5742C122.552 33.5742 121.146 34.4206 119.531 36.1133C117.917 37.806 116.471 39.7982 115.195 42.0898C114.544 43.2357 113.932 44.3945 113.359 45.5664C112.812 46.7122 112.318 47.8841 111.875 49.082C110.964 51.5039 110.508 53.3529 110.508 54.6289C110.508 55.1758 110.651 55.4492 110.938 55.4492C112.161 55.4492 113.815 54.4727 115.898 52.5195C117.982 50.5404 119.818 48.1445 121.406 45.332Z" fill="#FFFCF4"/>
<path d="M139.023 32.7539C140.117 32.7018 140.938 32.9232 141.484 33.418C142.057 33.9128 142.383 34.5768 142.461 35.4102C142.565 36.2174 142.461 37.1289 142.148 38.1445C141.836 39.1602 141.367 40.1367 140.742 41.0742C139.336 43.1576 137.839 45.1237 136.25 46.9727C134.688 48.8216 133.281 50.6185 132.031 52.3633C131.354 53.3008 131.029 54.1081 131.055 54.7852C131.081 55.4622 131.484 55.7747 132.266 55.7227C133.229 55.5664 134.284 55.0716 135.43 54.2383C136.576 53.4049 137.695 52.4284 138.789 51.3086C139.909 50.1628 140.938 48.9779 141.875 47.7539C142.839 46.5039 143.607 45.4102 144.18 44.4727H145.234C144.453 45.5664 143.555 46.8164 142.539 48.2227C141.549 49.6029 140.456 50.931 139.258 52.207C138.06 53.457 136.758 54.5378 135.352 55.4492C133.971 56.3607 132.5 56.8685 130.938 56.9727C130.208 57.0247 129.609 56.9336 129.141 56.6992C128.672 56.4648 128.281 56.1263 127.969 55.6836C127.422 54.9023 127.188 54.069 127.266 53.1836C127.37 52.2982 127.656 51.3867 128.125 50.4492C128.62 49.5117 129.258 48.5612 130.039 47.5977C130.82 46.6341 131.641 45.6836 132.5 44.7461C133.359 43.8086 134.193 42.9102 135 42.0508C135.833 41.1654 136.536 40.332 137.109 39.5508C137.839 38.6914 138.424 37.9102 138.867 37.207C139.31 36.4779 139.596 35.8659 139.727 35.3711C139.883 34.8763 139.857 34.5117 139.648 34.2773C139.44 34.0169 139.036 33.9258 138.438 34.0039C137.839 34.1602 137.214 34.4727 136.562 34.9414C135.911 35.3841 135.234 35.931 134.531 36.582C133.854 37.2331 133.164 37.9622 132.461 38.7695C131.758 39.5768 131.068 40.4102 130.391 41.2695C129.74 42.1289 129.102 42.9883 128.477 43.8477C127.852 44.707 127.266 45.5013 126.719 46.2305L125.703 46.1133C126.771 44.3164 127.917 42.6107 129.141 40.9961C130.391 39.3815 131.615 37.9622 132.812 36.7383C134.01 35.5143 135.143 34.5508 136.211 33.8477C137.305 33.1185 138.242 32.7539 139.023 32.7539Z" fill="#FFFCF4"/>
<path d="M166.641 44.4727H167.812C167.604 44.8112 167.318 45.2539 166.953 45.8008C166.615 46.3216 165.938 47.2721 164.922 48.6523C163.932 50.0326 162.982 51.2565 162.07 52.3242C161.185 53.3659 160.182 54.3164 159.062 55.1758C157.969 56.0352 157.044 56.4648 156.289 56.4648C155.43 56.4648 154.661 55.9831 153.984 55.0195C153.307 54.056 152.969 52.6758 152.969 50.8789C152.969 50.306 153.125 49.5638 153.438 48.6523C149.401 53.8607 146.641 56.4648 145.156 56.4648C144.323 56.4648 143.568 55.9831 142.891 55.0195C142.214 54.056 141.875 52.6758 141.875 50.8789C141.875 50.0716 142.201 48.8997 142.852 47.3633C143.503 45.8268 144.284 44.2643 145.195 42.6758C146.133 41.0612 147.07 39.5117 148.008 38.0273C148.945 36.543 149.74 35.332 150.391 34.3945L151.367 32.9492H156.328C156.016 33.418 155.599 34.0299 155.078 34.7852C154.557 35.5404 153.633 36.9596 152.305 39.043C150.977 41.1003 149.805 43.0013 148.789 44.7461C147.773 46.4909 146.849 48.2878 146.016 50.1367C145.182 51.9596 144.766 53.3138 144.766 54.1992C144.766 54.8763 145.039 55.2148 145.586 55.2148C146.758 55.2148 149.961 51.7383 155.195 44.7852C156.029 43.1706 157.044 41.3867 158.242 39.4336C159.466 37.4544 160.469 35.8789 161.25 34.707L162.461 32.9492H167.422C167.109 33.418 166.68 34.0299 166.133 34.7852C165.612 35.5404 164.688 36.9596 163.359 39.043C162.031 41.1003 160.859 43.0013 159.844 44.7461C158.854 46.4909 157.943 48.2878 157.109 50.1367C156.276 51.9596 155.859 53.3138 155.859 54.1992C155.859 54.8763 156.133 55.2148 156.68 55.2148C157.148 55.2148 157.786 54.8763 158.594 54.1992C159.401 53.5221 160.182 52.7539 160.938 51.8945C161.693 51.0352 162.526 50.0195 163.438 48.8477C164.349 47.6758 165.013 46.7904 165.43 46.1914C165.872 45.5924 166.276 45.0195 166.641 44.4727Z" fill="#FFFCF4"/>
<path d="M170.078 55.4492C172.682 55.4492 176.784 51.7904 182.383 44.4727H183.594C182.37 46.0872 181.185 47.5586 180.039 48.8867C178.919 50.1888 177.734 51.4388 176.484 52.6367C175.26 53.8346 174.076 54.7721 172.93 55.4492C171.784 56.1263 170.755 56.4648 169.844 56.4648C168.464 56.4648 167.292 55.9701 166.328 54.9805C165.391 53.9909 164.922 52.4935 164.922 50.4883C164.922 48.7435 165.443 46.8164 166.484 44.707C167.526 42.5716 168.815 40.6315 170.352 38.8867C171.914 37.1419 173.646 35.6836 175.547 34.5117C177.448 33.3398 179.206 32.7539 180.82 32.7539C181.107 32.7539 181.393 32.806 181.68 32.9102C181.992 33.0143 182.305 33.1966 182.617 33.457C182.93 33.6914 183.177 34.069 183.359 34.5898C183.568 35.0846 183.672 35.7096 183.672 36.4648C183.672 38.1836 182.969 39.8372 181.562 41.4258C180.156 43.0143 178.477 44.1732 176.523 44.9023C174.57 45.6055 172.852 45.6836 171.367 45.1367C169.544 48.4961 168.633 51.1003 168.633 52.9492C168.633 54.6159 169.115 55.4492 170.078 55.4492ZM180.586 33.5742C179.883 33.5742 178.594 34.7201 176.719 37.0117C174.87 39.3034 173.177 41.8294 171.641 44.5898C172.604 44.7461 173.581 44.5898 174.57 44.1211C175.586 43.6523 176.471 43.0143 177.227 42.207C178.008 41.3737 178.698 40.4753 179.297 39.5117C179.922 38.5221 180.391 37.5716 180.703 36.6602C181.042 35.7487 181.211 34.9935 181.211 34.3945C181.211 33.8477 181.003 33.5742 180.586 33.5742Z" fill="#FFFCF4"/>
<path d="M217.305 44.4727H218.477C217.956 45.306 217.409 46.1263 216.836 46.9336C216.263 47.7409 215.495 48.7565 214.531 49.9805C213.568 51.2044 212.656 52.2721 211.797 53.1836C210.964 54.069 210.065 54.8372 209.102 55.4883C208.138 56.1393 207.305 56.4648 206.602 56.4648C206.341 56.4648 206.081 56.4388 205.82 56.3867C205.56 56.3086 205.247 56.1654 204.883 55.957C204.544 55.7487 204.245 55.4753 203.984 55.1367C203.75 54.7982 203.542 54.3164 203.359 53.6914C203.177 53.0664 203.086 52.3372 203.086 51.5039C203.086 50.6445 203.424 49.5638 204.102 48.2617C204.805 46.9596 205.651 45.6576 206.641 44.3555C207.63 43.0273 208.62 41.7513 209.609 40.5273C210.599 39.2773 211.432 38.1315 212.109 37.0898C212.812 36.0482 213.164 35.293 213.164 34.8242C213.164 34.2773 212.969 34.0039 212.578 34.0039C211.771 34.0039 210.716 34.4987 209.414 35.4883C208.138 36.4518 206.875 37.6237 205.625 39.0039C204.375 40.3841 203.177 41.7773 202.031 43.1836C200.885 44.5638 199.961 45.7357 199.258 46.6992L198.203 48.1836L177.891 80.8008H173.555L192.383 50.7617L195.703 44.5508L202.93 32.9492H207.344L207.266 33.0664C206.354 34.6549 204.727 37.3242 202.383 41.0742C206.68 35.5273 210.273 32.7539 213.164 32.7539C213.997 32.7539 214.688 33.0143 215.234 33.5352C215.807 34.056 216.094 34.8893 216.094 36.0352C216.094 36.9987 215.729 38.1706 215 39.5508C214.297 40.931 213.438 42.3112 212.422 43.6914C211.432 45.0716 210.43 46.4258 209.414 47.7539C208.398 49.082 207.539 50.332 206.836 51.5039C206.133 52.6497 205.781 53.5482 205.781 54.1992C205.781 55.0326 206.055 55.4492 206.602 55.4492C207.279 55.4492 208.112 55.0586 209.102 54.2773C210.091 53.4961 211.12 52.4674 212.188 51.1914C213.281 49.9154 214.219 48.7565 215 47.7148C215.807 46.6471 216.576 45.5664 217.305 44.4727Z" fill="#FFFCF4"/>
<path d="M239.141 37.4414L239.805 38.3398C238.529 39.4336 237.448 40.2539 236.562 40.8008C235.703 41.3216 234.935 41.6862 234.258 41.8945C233.945 41.9727 233.711 42.0378 233.555 42.0898C233.398 42.1419 233.177 42.181 232.891 42.207C232.76 42.2331 232.643 42.2461 232.539 42.2461C232.461 42.2461 232.396 42.2461 232.344 42.2461H231.25C231.016 42.819 230.755 43.3919 230.469 43.9648C230.182 44.5378 229.87 45.1237 229.531 45.7227C227.708 48.9779 225.69 51.5951 223.477 53.5742C221.315 55.5013 219.479 56.4648 217.969 56.4648C216.797 56.4648 215.924 55.931 215.352 54.8633C214.753 53.7956 214.453 52.4674 214.453 50.8789C214.453 50.1497 214.557 49.3685 214.766 48.5352C214.974 47.7018 215.273 46.8685 215.664 46.0352C216.055 45.1758 216.51 44.3294 217.031 43.4961C217.578 42.6628 218.164 41.8685 218.789 41.1133C219.701 39.9674 220.703 38.8867 221.797 37.8711C222.891 36.8555 223.984 35.9701 225.078 35.2148C226.172 34.4336 227.214 33.8216 228.203 33.3789C229.193 32.9362 230.052 32.7279 230.781 32.7539C231.276 32.7539 231.68 32.9622 231.992 33.3789C232.331 33.7695 232.552 34.3294 232.656 35.0586C232.76 35.7878 232.734 36.6732 232.578 37.7148C232.422 38.7565 232.109 39.9154 231.641 41.1914C233.62 41.1133 236.12 39.8633 239.141 37.4414ZM228.438 45.332C228.802 44.681 229.115 44.082 229.375 43.5352C229.661 42.9622 229.909 42.4414 230.117 41.9727C229.466 41.6602 229.023 41.1654 228.789 40.4883C228.555 39.7852 228.477 39.1081 228.555 38.457C228.633 37.7018 229.01 36.9206 229.688 36.1133C230.365 35.332 231.042 34.8763 231.719 34.7461C231.51 33.9648 231.198 33.5742 230.781 33.5742C229.583 33.5742 228.177 34.4206 226.562 36.1133C224.948 37.806 223.503 39.7982 222.227 42.0898C221.576 43.2357 220.964 44.3945 220.391 45.5664C219.844 46.7122 219.349 47.8841 218.906 49.082C217.995 51.5039 217.539 53.3529 217.539 54.6289C217.539 55.1758 217.682 55.4492 217.969 55.4492C219.193 55.4492 220.846 54.4727 222.93 52.5195C225.013 50.5404 226.849 48.1445 228.438 45.332Z" fill="#FFFCF4"/>
<path d="M239.492 59.707C242.721 59.8372 244.805 60.957 245.742 63.0664L245.078 63.457C244.583 62.5456 243.88 61.8294 242.969 61.3086C242.057 60.8138 240.742 60.5404 239.023 60.4883L231.953 72.2461C230.964 73.7826 229.961 75.1107 228.945 76.2305C227.93 77.3763 227.044 78.2227 226.289 78.7695C225.534 79.3424 224.792 79.7852 224.062 80.0977C223.307 80.4362 222.747 80.6315 222.383 80.6836C222.018 80.7617 221.693 80.8008 221.406 80.8008C220.156 80.8008 219.531 80.0065 219.531 78.418C219.531 76.9336 220.013 75.2669 220.977 73.418C221.94 71.5951 223.164 69.8633 224.648 68.2227C226.133 66.582 227.799 65.0586 229.648 63.6523C231.471 62.2721 233.229 61.2305 234.922 60.5273L240 52.3242C237.474 55.0846 235.716 56.4648 234.727 56.4648C233.555 56.4648 232.682 55.931 232.109 54.8633C231.51 53.7956 231.211 52.4674 231.211 50.8789C231.211 49.6289 231.51 48.2878 232.109 46.8555C232.682 45.3971 233.451 44.0169 234.414 42.7148C235.378 41.3867 236.458 40.1107 237.656 38.8867C238.88 37.6628 240.091 36.6081 241.289 35.7227C242.513 34.8112 243.698 34.0951 244.844 33.5742C246.016 33.0273 247.005 32.7539 247.812 32.7539C248.984 32.7539 249.466 33.7956 249.258 35.8789L250.898 32.9492H255.586L239.492 59.707ZM234.727 55.4102C235.404 55.4102 236.471 54.681 237.93 53.2227C239.388 51.7383 240.82 50.0977 242.227 48.3008L242.812 47.2461L248.047 38.0664C248.151 37.5456 248.242 37.0378 248.32 36.543C248.398 36.0221 248.451 35.5273 248.477 35.0586C248.503 34.5898 248.451 34.2253 248.32 33.9648C248.216 33.6784 248.047 33.5352 247.812 33.5352C246.589 33.5352 245.169 34.3815 243.555 36.0742C241.94 37.7669 240.469 39.7591 239.141 42.0508C237.812 44.3424 236.68 46.6732 235.742 49.043C234.805 51.4128 234.336 53.2617 234.336 54.5898C234.336 55.1367 234.466 55.4102 234.727 55.4102ZM221.172 79.8242C221.771 79.8242 222.552 79.3164 223.516 78.3008C224.479 77.3112 225.443 76.0872 226.406 74.6289C227.344 73.1966 228.255 71.7643 229.141 70.332C230 68.8997 230.703 67.6888 231.25 66.6992L232.07 65.1758L234.141 61.7773C232.057 62.819 229.961 64.3685 227.852 66.4258C225.716 68.4831 223.971 70.6445 222.617 72.9102C221.237 75.1758 220.547 77.1159 220.547 78.7305C220.547 79.4076 220.755 79.7721 221.172 79.8242Z" fill="#FFFCF4"/>
<path d="M261.719 48.6523C262.057 47.8451 262.422 47.0247 262.812 46.1914C263.203 45.3581 263.62 44.5247 264.062 43.6914H258.477L251.289 56.4648H246.523L259.805 32.9492H264.531L259.023 42.6758H264.609C265.573 40.8789 266.562 39.1471 267.578 37.4805C268.594 35.7878 269.492 34.2773 270.273 32.9492H275.234C275.182 33.0273 274.857 33.5482 274.258 34.5117C273.659 35.4492 272.891 36.6992 271.953 38.2617C271.016 39.8242 269.974 41.6341 268.828 43.6914C267.682 45.7227 266.536 47.8711 265.391 50.1367C264.948 51.0482 264.544 51.8424 264.18 52.5195C263.841 53.1966 263.672 53.7565 263.672 54.1992C263.672 54.8763 263.945 55.2148 264.492 55.2148C264.935 55.2148 265.469 54.9805 266.094 54.5117C266.719 54.0169 267.37 53.4049 268.047 52.6758C268.75 51.9466 269.453 51.1523 270.156 50.293C270.859 49.4076 271.51 48.5742 272.109 47.793C272.708 46.9857 273.216 46.2826 273.633 45.6836C274.049 45.0586 274.323 44.6549 274.453 44.4727H275.625C275.573 44.5508 275.404 44.8112 275.117 45.2539C274.857 45.6706 274.479 46.2305 273.984 46.9336C273.516 47.6367 272.93 48.457 272.227 49.3945C271.549 50.306 270.768 51.2826 269.883 52.3242C269.466 52.819 268.997 53.3138 268.477 53.8086C267.956 54.3034 267.435 54.7461 266.914 55.1367C266.393 55.5273 265.885 55.8529 265.391 56.1133C264.896 56.3477 264.466 56.4648 264.102 56.4648C263.529 56.4648 262.982 56.2826 262.461 55.918C261.94 55.5534 261.536 55.0456 261.25 54.3945C260.99 53.7174 260.872 52.8971 260.898 51.9336C260.924 50.9701 261.198 49.8763 261.719 48.6523Z" fill="#FFFCF4"/>
<path d="M303.828 44.5898C303.073 45.6315 302.344 46.6341 301.641 47.5977C300.938 48.5352 300.247 49.4206 299.57 50.2539C298.893 51.0872 298.203 51.8685 297.5 52.5977C296.823 53.3268 296.146 54.0169 295.469 54.668C294.115 55.944 293.073 56.582 292.344 56.582C291.927 56.582 291.523 56.4648 291.133 56.2305C290.742 55.9701 290.391 55.6055 290.078 55.1367C289.766 54.668 289.518 54.0951 289.336 53.418C289.154 52.7148 289.062 51.9076 289.062 50.9961C289.062 50.1367 289.388 48.9648 290.039 47.4805C290.69 45.9701 291.471 44.4076 292.383 42.793C292.591 42.4544 292.773 42.1289 292.93 41.8164C293.112 41.4779 293.307 41.1523 293.516 40.8398C292.812 41.3607 292.057 41.8034 291.25 42.168C290.443 42.5326 289.583 42.7669 288.672 42.8711C288.88 43.8346 288.828 44.9544 288.516 46.2305C288.151 47.7409 287.539 49.1341 286.68 50.4102C285.846 51.6862 284.857 52.793 283.711 53.7305C282.565 54.6419 281.328 55.3711 280 55.918C278.672 56.4388 277.357 56.6992 276.055 56.6992C275.091 56.8034 274.323 56.6992 273.75 56.3867C273.177 56.0742 272.734 55.6315 272.422 55.0586C272.109 54.4857 271.927 53.8346 271.875 53.1055C271.797 52.3503 271.797 51.6081 271.875 50.8789C271.953 50.1237 272.096 49.4076 272.305 48.7305C272.487 48.0534 272.682 47.4935 272.891 47.0508C274.01 44.2383 275.26 41.6992 276.641 39.4336C278.021 37.1419 279.336 34.9805 280.586 32.9492H285.195C285.091 33.0794 284.609 33.8607 283.75 35.293C282.891 36.6992 281.667 38.8607 280.078 41.7773C280.99 40.9701 281.875 40.3841 282.734 40.0195C283.62 39.6549 284.427 39.4987 285.156 39.5508C285.911 39.5768 286.562 39.7982 287.109 40.2148C287.682 40.6055 288.112 41.1523 288.398 41.8555C289.674 41.8034 290.898 41.4128 292.07 40.6836C293.242 39.9284 294.271 39.1081 295.156 38.2227C295.599 37.4674 296.029 36.7904 296.445 36.1914C296.862 35.5664 297.24 35.0065 297.578 34.5117L298.555 33.0664H303.516C303.359 33.3008 303.177 33.5742 302.969 33.8867C302.76 34.1992 302.526 34.5378 302.266 34.9023C302.005 35.2669 301.641 35.8138 301.172 36.543C300.729 37.2461 300.169 38.1185 299.492 39.1602C298.815 40.2018 298.19 41.1914 297.617 42.1289C297.044 43.0664 296.497 43.9779 295.977 44.8633C295.456 45.7487 294.961 46.6471 294.492 47.5586C294.049 48.444 293.62 49.3424 293.203 50.2539C292.37 52.1289 291.953 53.4831 291.953 54.3164C291.953 54.9935 292.227 55.332 292.773 55.332C293.451 55.332 294.701 54.3034 296.523 52.2461C298.398 50.1367 300.443 47.5846 302.656 44.5898H303.828ZM277.617 46.4648C277.201 47.2721 276.797 48.2357 276.406 49.3555C276.016 50.4492 275.729 51.4909 275.547 52.4805C275.391 53.4701 275.391 54.2904 275.547 54.9414C275.703 55.5924 276.12 55.8789 276.797 55.8008C277.5 55.7227 278.216 55.3841 278.945 54.7852C279.701 54.1602 280.417 53.3919 281.094 52.4805C281.797 51.569 282.435 50.5664 283.008 49.4727C283.607 48.3529 284.102 47.2461 284.492 46.1523C284.701 45.6055 284.896 44.9544 285.078 44.1992C285.286 43.418 285.391 42.7409 285.391 42.168C285.365 41.4909 285.156 41.0482 284.766 40.8398C284.375 40.6055 283.867 40.5664 283.242 40.7227C282.643 40.8789 281.979 41.2044 281.25 41.6992C280.547 42.194 279.844 42.819 279.141 43.5742C278.88 44.0169 278.62 44.4857 278.359 44.9805C278.125 45.4492 277.878 45.944 277.617 46.4648Z" fill="#FFFCF4"/>
<path d="M305.781 55.4492C308.385 55.4492 312.487 51.7904 318.086 44.4727H319.297C318.073 46.0872 316.888 47.5586 315.742 48.8867C314.622 50.1888 313.438 51.4388 312.188 52.6367C310.964 53.8346 309.779 54.7721 308.633 55.4492C307.487 56.1263 306.458 56.4648 305.547 56.4648C304.167 56.4648 302.995 55.9701 302.031 54.9805C301.094 53.9909 300.625 52.4935 300.625 50.4883C300.625 48.7435 301.146 46.8164 302.188 44.707C303.229 42.5716 304.518 40.6315 306.055 38.8867C307.617 37.1419 309.349 35.6836 311.25 34.5117C313.151 33.3398 314.909 32.7539 316.523 32.7539C316.81 32.7539 317.096 32.806 317.383 32.9102C317.695 33.0143 318.008 33.1966 318.32 33.457C318.633 33.6914 318.88 34.069 319.062 34.5898C319.271 35.0846 319.375 35.7096 319.375 36.4648C319.375 38.1836 318.672 39.8372 317.266 41.4258C315.859 43.0143 314.18 44.1732 312.227 44.9023C310.273 45.6055 308.555 45.6836 307.07 45.1367C305.247 48.4961 304.336 51.1003 304.336 52.9492C304.336 54.6159 304.818 55.4492 305.781 55.4492ZM316.289 33.5742C315.586 33.5742 314.297 34.7201 312.422 37.0117C310.573 39.3034 308.88 41.8294 307.344 44.5898C308.307 44.7461 309.284 44.5898 310.273 44.1211C311.289 43.6523 312.174 43.0143 312.93 42.207C313.711 41.3737 314.401 40.4753 315 39.5117C315.625 38.5221 316.094 37.5716 316.406 36.6602C316.745 35.7487 316.914 34.9935 316.914 34.3945C316.914 33.8477 316.706 33.5742 316.289 33.5742Z" fill="#FFFCF4"/>
<path d="M353.906 44.4727H355.078C354.87 44.8112 354.583 45.2539 354.219 45.8008C353.88 46.3216 353.203 47.2721 352.188 48.6523C351.198 50.0326 350.247 51.2565 349.336 52.3242C348.451 53.3659 347.448 54.3164 346.328 55.1758C345.234 56.0352 344.31 56.4648 343.555 56.4648C342.695 56.4648 341.927 55.9831 341.25 55.0195C340.573 54.056 340.234 52.6758 340.234 50.8789C340.234 50.306 340.391 49.5638 340.703 48.6523C336.667 53.8607 333.906 56.4648 332.422 56.4648C331.589 56.4648 330.833 55.9831 330.156 55.0195C329.479 54.056 329.141 52.6758 329.141 50.8789C329.141 50.0716 329.466 48.8997 330.117 47.3633C330.768 45.8268 331.549 44.2643 332.461 42.6758C333.398 41.0612 334.336 39.5117 335.273 38.0273C336.211 36.543 337.005 35.332 337.656 34.3945L338.633 32.9492H343.594C343.281 33.418 342.865 34.0299 342.344 34.7852C341.823 35.5404 340.898 36.9596 339.57 39.043C338.242 41.1003 337.07 43.0013 336.055 44.7461C335.039 46.4909 334.115 48.2878 333.281 50.1367C332.448 51.9596 332.031 53.3138 332.031 54.1992C332.031 54.8763 332.305 55.2148 332.852 55.2148C334.023 55.2148 337.227 51.7383 342.461 44.7852C343.294 43.1706 344.31 41.3867 345.508 39.4336C346.732 37.4544 347.734 35.8789 348.516 34.707L349.727 32.9492H354.688C354.375 33.418 353.945 34.0299 353.398 34.7852C352.878 35.5404 351.953 36.9596 350.625 39.043C349.297 41.1003 348.125 43.0013 347.109 44.7461C346.12 46.4909 345.208 48.2878 344.375 50.1367C343.542 51.9596 343.125 53.3138 343.125 54.1992C343.125 54.8763 343.398 55.2148 343.945 55.2148C344.414 55.2148 345.052 54.8763 345.859 54.1992C346.667 53.5221 347.448 52.7539 348.203 51.8945C348.958 51.0352 349.792 50.0195 350.703 48.8477C351.615 47.6758 352.279 46.7904 352.695 46.1914C353.138 45.5924 353.542 45.0195 353.906 44.4727Z" fill="#FFFCF4"/>
<path d="M389.141 37.4414L389.805 38.3398C388.529 39.4336 387.448 40.2539 386.562 40.8008C385.703 41.3216 384.935 41.6862 384.258 41.8945C383.945 41.9727 383.711 42.0378 383.555 42.0898C383.398 42.1419 383.177 42.181 382.891 42.207C382.76 42.2331 382.643 42.2461 382.539 42.2461C382.461 42.2461 382.396 42.2461 382.344 42.2461H381.25C381.016 42.819 380.755 43.3919 380.469 43.9648C380.182 44.5378 379.87 45.1237 379.531 45.7227C377.708 48.9779 375.69 51.5951 373.477 53.5742C371.315 55.5013 369.479 56.4648 367.969 56.4648C366.797 56.4648 365.924 55.931 365.352 54.8633C364.753 53.7956 364.453 52.4674 364.453 50.8789C364.453 50.1497 364.557 49.3685 364.766 48.5352C364.974 47.7018 365.273 46.8685 365.664 46.0352C366.055 45.1758 366.51 44.3294 367.031 43.4961C367.578 42.6628 368.164 41.8685 368.789 41.1133C369.701 39.9674 370.703 38.8867 371.797 37.8711C372.891 36.8555 373.984 35.9701 375.078 35.2148C376.172 34.4336 377.214 33.8216 378.203 33.3789C379.193 32.9362 380.052 32.7279 380.781 32.7539C381.276 32.7539 381.706 32.9753 382.07 33.418C382.174 31.7253 382.174 30.1107 382.07 28.5742C381.966 27.0378 381.836 25.6315 381.68 24.3555C381.523 23.0794 381.393 21.9727 381.289 21.0352C381.185 20.0977 381.185 19.3685 381.289 18.8477C381.289 18.5352 381.328 18.1706 381.406 17.7539C381.51 17.3112 381.693 16.8945 381.953 16.5039C382.214 16.0872 382.552 15.6966 382.969 15.332C383.411 14.9674 383.984 14.681 384.688 14.4727C385.339 14.2904 386.016 14.1732 386.719 14.1211C387.448 14.043 388.177 14.0039 388.906 14.0039C389.635 13.9779 390.352 13.9648 391.055 13.9648C391.758 13.9648 392.422 13.9388 393.047 13.8867C393.672 13.8346 394.258 13.7565 394.805 13.6523C395.352 13.5221 395.82 13.3268 396.211 13.0664C396.602 12.7799 396.901 12.4154 397.109 11.9727C397.344 11.5299 397.461 10.9701 397.461 10.293L397.93 10.332C397.826 12.181 397.37 13.7826 396.562 15.1367C395.781 16.4909 394.766 17.4154 393.516 17.9102C392.812 18.2227 392.031 18.431 391.172 18.5352C390.339 18.6393 389.479 18.7174 388.594 18.7695C387.734 18.7956 386.888 18.8216 386.055 18.8477C385.247 18.8477 384.505 18.8997 383.828 19.0039L383.555 19.1211C383.06 19.1732 382.721 19.4206 382.539 19.8633C382.383 20.2799 382.305 20.8659 382.305 21.6211C382.331 22.3503 382.409 23.2357 382.539 24.2773C382.669 25.293 382.786 26.4388 382.891 27.7148C382.995 28.9648 383.047 30.319 383.047 31.7773C383.047 33.2357 382.93 34.7591 382.695 36.3477C382.643 37.7018 382.292 39.3164 381.641 41.1914C383.62 41.1133 386.12 39.8633 389.141 37.4414ZM378.516 45.4883C379.089 44.4987 379.609 43.418 380.078 42.2461C380.573 41.0742 380.964 39.9284 381.25 38.8086C381.302 38.6784 381.341 38.5482 381.367 38.418C381.393 38.2878 381.419 38.1576 381.445 38.0273C381.497 37.819 381.523 37.6888 381.523 37.6367C381.576 37.5065 381.602 37.3763 381.602 37.2461C381.628 37.0898 381.654 36.9466 381.68 36.8164C381.732 36.4518 381.758 36.1003 381.758 35.7617C381.784 35.3971 381.771 35.0586 381.719 34.7461C381.51 33.9648 381.198 33.5742 380.781 33.5742C379.583 33.5742 378.177 34.4206 376.562 36.1133C374.948 37.806 373.503 39.7982 372.227 42.0898C371.576 43.2357 370.964 44.3945 370.391 45.5664C369.844 46.7122 369.349 47.8841 368.906 49.082C367.995 51.5039 367.539 53.3529 367.539 54.6289C367.539 55.1758 367.682 55.4492 367.969 55.4492C369.193 55.4492 370.846 54.4727 372.93 52.5195C373.971 51.5299 374.961 50.4753 375.898 49.3555C376.836 48.2096 377.708 46.9206 378.516 45.4883Z" fill="#FFFCF4"/>
<path d="M407.852 44.4727C407.096 45.5143 406.367 46.5169 405.664 47.4805C404.961 48.418 404.271 49.3034 403.594 50.1367C402.943 50.944 402.266 51.7253 401.562 52.4805C400.859 53.2357 400.182 53.9128 399.531 54.5117C398.88 55.0846 398.268 55.5534 397.695 55.918C397.148 56.2826 396.706 56.4648 396.367 56.4648C395.951 56.4648 395.547 56.3477 395.156 56.1133C394.766 55.8529 394.414 55.4883 394.102 55.0195C393.789 54.5508 393.542 53.9779 393.359 53.3008C393.177 52.5977 393.086 51.7904 393.086 50.8789C393.086 50.2799 393.229 49.5508 393.516 48.6914C393.828 47.806 394.232 46.8555 394.727 45.8398C395.221 44.7982 395.781 43.7305 396.406 42.6367C397.031 41.543 397.656 40.4883 398.281 39.4727C398.932 38.457 399.544 37.5065 400.117 36.6211C400.69 35.7357 401.185 34.9935 401.602 34.3945L401.68 34.2773C400.742 34.5378 399.87 34.9674 399.062 35.5664C398.281 36.1393 397.539 36.8424 396.836 37.6758C396.133 38.5091 395.469 39.4336 394.844 40.4492C394.219 41.4648 393.62 42.5195 393.047 43.6133C392.214 45.2539 391.393 46.8424 390.586 48.3789C389.805 49.8893 388.997 51.2565 388.164 52.4805C387.461 53.6003 386.654 54.5638 385.742 55.3711C384.831 56.1784 383.776 56.6081 382.578 56.6602C381.536 56.5299 380.794 56.1914 380.352 55.6445C379.909 55.0977 379.648 54.4857 379.57 53.8086C379.44 53.3138 379.44 52.7799 379.57 52.207C379.674 51.6341 379.857 51.0872 380.117 50.5664C380.378 50.0456 380.703 49.5768 381.094 49.1602C381.484 48.7435 381.888 48.457 382.305 48.3008C383.06 48.0924 383.737 48.1055 384.336 48.3398C384.935 48.5742 385.299 49.0039 385.43 49.6289C385.534 50.2539 385.456 50.8919 385.195 51.543C384.935 52.168 384.622 52.7539 384.258 53.3008C383.919 53.8477 383.594 54.3424 383.281 54.7852C382.969 55.2018 382.826 55.5143 382.852 55.7227C382.799 55.8529 382.812 55.8789 382.891 55.8008C382.995 55.6966 383.177 55.6706 383.438 55.7227C384.036 55.5143 384.622 55.1758 385.195 54.707C385.794 54.2122 386.38 53.5221 386.953 52.6367C387.786 51.3346 388.581 49.9414 389.336 48.457C390.091 46.9466 390.885 45.4492 391.719 43.9648C392.474 42.5846 393.229 41.2695 393.984 40.0195C394.766 38.7435 395.586 37.6237 396.445 36.6602C397.305 35.6706 398.229 34.8633 399.219 34.2383C400.208 33.5872 401.315 33.1836 402.539 33.0273L402.578 32.9492H407.539C407.461 33.0534 407.201 33.431 406.758 34.082C406.315 34.707 405.742 35.5404 405.039 36.582C404.362 37.6237 403.581 38.8477 402.695 40.2539C401.836 41.6341 400.938 43.1315 400 44.7461C399.505 45.5794 399.01 46.4648 398.516 47.4023C398.047 48.3398 397.617 49.2513 397.227 50.1367C396.862 50.9961 396.562 51.7904 396.328 52.5195C396.094 53.2227 395.977 53.7826 395.977 54.1992C395.977 54.8763 396.25 55.2148 396.797 55.2148C397.109 55.2148 397.591 54.9284 398.242 54.3555C398.919 53.7826 399.701 53.0143 400.586 52.0508C401.471 51.0612 402.435 49.9154 403.477 48.6133C404.518 47.3112 405.586 45.931 406.68 44.4727H407.852Z" fill="#FFFCF4"/>
<path d="M429.062 44.4727H430.234C430.026 44.8112 429.74 45.2539 429.375 45.8008C429.036 46.3216 428.359 47.2721 427.344 48.6523C426.354 50.0326 425.404 51.2565 424.492 52.3242C423.607 53.3659 422.604 54.3164 421.484 55.1758C420.391 56.0352 419.466 56.4648 418.711 56.4648C417.852 56.4648 417.083 55.9831 416.406 55.0195C415.729 54.056 415.391 52.6758 415.391 50.8789C415.391 50.306 415.547 49.5638 415.859 48.6523C411.823 53.8607 409.062 56.4648 407.578 56.4648C406.745 56.4648 405.99 55.9831 405.312 55.0195C404.635 54.056 404.297 52.6758 404.297 50.8789C404.297 50.0716 404.622 48.8997 405.273 47.3633C405.924 45.8268 406.706 44.2643 407.617 42.6758C408.555 41.0612 409.492 39.5117 410.43 38.0273C411.367 36.543 412.161 35.332 412.812 34.3945L413.789 32.9492H418.75C418.438 33.418 418.021 34.0299 417.5 34.7852C416.979 35.5404 416.055 36.9596 414.727 39.043C413.398 41.1003 412.227 43.0013 411.211 44.7461C410.195 46.4909 409.271 48.2878 408.438 50.1367C407.604 51.9596 407.188 53.3138 407.188 54.1992C407.188 54.8763 407.461 55.2148 408.008 55.2148C409.18 55.2148 412.383 51.7383 417.617 44.7852C418.451 43.1706 419.466 41.3867 420.664 39.4336C421.888 37.4544 422.891 35.8789 423.672 34.707L424.883 32.9492H429.844C429.531 33.418 429.102 34.0299 428.555 34.7852C428.034 35.5404 427.109 36.9596 425.781 39.043C424.453 41.1003 423.281 43.0013 422.266 44.7461C421.276 46.4909 420.365 48.2878 419.531 50.1367C418.698 51.9596 418.281 53.3138 418.281 54.1992C418.281 54.8763 418.555 55.2148 419.102 55.2148C419.57 55.2148 420.208 54.8763 421.016 54.1992C421.823 53.5221 422.604 52.7539 423.359 51.8945C424.115 51.0352 424.948 50.0195 425.859 48.8477C426.771 47.6758 427.435 46.7904 427.852 46.1914C428.294 45.5924 428.698 45.0195 429.062 44.4727Z" fill="#FFFCF4"/>
<path d="M446.25 44.4727C444.401 47.2852 442.188 49.8112 439.609 52.0508C437.031 54.2904 434.466 56.0612 431.914 57.3633C432.409 58.7435 432.474 60.2799 432.109 61.9727C431.745 63.6654 431.146 65.3581 430.312 67.0508C429.479 68.7695 428.424 70.4362 427.148 72.0508C425.872 73.6654 424.57 75.0977 423.242 76.3477C421.888 77.5977 420.534 78.5872 419.18 79.3164C417.799 80.0716 416.615 80.4492 415.625 80.4492C414.375 80.4492 413.75 79.6549 413.75 78.0664C413.75 76.556 414.284 74.7461 415.352 72.6367C416.393 70.5534 417.695 68.5352 419.258 66.582C420.82 64.6549 422.513 62.8581 424.336 61.1914C426.159 59.5247 427.826 58.2878 429.336 57.4805C429.258 55.6576 428.581 54.4336 427.305 53.8086L427.227 52.9492C428.763 52.2201 430.404 51.1003 432.148 49.5898C433.919 48.0794 435.495 46.4909 436.875 44.8242C438.255 43.1576 439.414 41.4909 440.352 39.8242C441.289 38.1576 441.758 36.7904 441.758 35.7227C441.784 35.1758 441.693 34.707 441.484 34.3164C441.276 33.8997 440.964 33.6914 440.547 33.6914C439.948 33.6914 439.271 33.9648 438.516 34.5117C437.786 35.0586 436.94 35.9049 435.977 37.0508C435.013 38.1706 434.154 39.2253 433.398 40.2148C432.643 41.2044 431.667 42.5326 430.469 44.1992C430.156 44.6419 429.922 44.9674 429.766 45.1758L428.555 45.2539C431.107 41.556 432.982 38.9909 434.18 37.5586C436.862 34.3555 439.102 32.7539 440.898 32.7539C442.956 32.7539 444.258 33.457 444.805 34.8633C445.352 36.2695 445.026 38.2227 443.828 40.7227C443.125 42.207 441.784 43.8737 439.805 45.7227C437.852 47.5716 435.833 49.1992 433.75 50.6055C431.667 51.9857 429.922 52.9492 428.516 53.4961C429.896 54.2513 430.898 55.2409 431.523 56.4648C433.841 55.3451 436.211 53.7435 438.633 51.6602C441.081 49.5768 443.216 47.181 445.039 44.4727H446.25ZM415.352 79.5117C416.523 79.5117 417.917 78.7565 419.531 77.2461C421.12 75.7617 422.63 73.9518 424.062 71.8164C425.469 69.707 426.693 67.4023 427.734 64.9023C428.75 62.4284 429.297 60.2669 429.375 58.418C427.135 59.8242 424.883 61.7513 422.617 64.1992C420.352 66.6732 418.477 69.2122 416.992 71.8164C415.508 74.4466 414.766 76.6471 414.766 78.418C414.766 79.1471 414.961 79.5117 415.352 79.5117Z" fill="#FFFCF4"/>
<path d="M464.18 40.0586C463.815 40.0586 463.516 39.9414 463.281 39.707C463.047 39.4466 462.93 39.0299 462.93 38.457C462.93 37.8581 463.112 37.2461 463.477 36.6211C463.867 35.9701 464.245 35.4362 464.609 35.0195C465 34.5768 465.195 34.3164 465.195 34.2383C465.195 34.0039 465.104 33.7695 464.922 33.5352C464.74 33.3008 464.492 33.1836 464.18 33.1836C463.685 33.1836 463.151 33.3919 462.578 33.8086C462.005 34.2253 461.419 34.7591 460.82 35.4102C460.221 36.0352 459.271 36.9857 457.969 38.2617C456.667 39.5117 455.273 40.7487 453.789 41.9727C455.977 42.1289 457.07 43.2617 457.07 45.3711C457.07 45.9961 456.771 46.9727 456.172 48.3008C455.573 49.6029 454.974 50.8529 454.375 52.0508C453.776 53.2487 453.477 54.0299 453.477 54.3945C453.477 55.0977 453.763 55.4492 454.336 55.4492C455.013 55.4492 455.846 55.0586 456.836 54.2773C457.852 53.4961 458.893 52.4674 459.961 51.1914C461.029 49.9154 461.966 48.7435 462.773 47.6758C463.581 46.6081 464.336 45.5404 465.039 44.4727H466.211C465.716 45.2539 465.156 46.0742 464.531 46.9336C463.932 47.793 463.151 48.8216 462.188 50.0195C461.25 51.2174 460.339 52.2721 459.453 53.1836C458.594 54.069 457.682 54.8372 456.719 55.4883C455.755 56.1393 454.922 56.4648 454.219 56.4648C453.984 56.4648 453.724 56.4388 453.438 56.3867C453.151 56.3346 452.826 56.2305 452.461 56.0742C452.096 55.8919 451.771 55.6706 451.484 55.4102C451.224 55.1237 450.99 54.7331 450.781 54.2383C450.599 53.7435 450.508 53.1836 450.508 52.5586C450.508 51.9076 450.846 50.918 451.523 49.5898C452.227 48.2617 452.917 47.0247 453.594 45.8789C454.271 44.707 454.609 44.0039 454.609 43.7695C454.609 43.4831 454.505 43.2487 454.297 43.0664C454.089 42.8841 453.867 42.793 453.633 42.793C452.539 42.793 451.406 43.2227 450.234 44.082L442.578 56.2695H438.008L452.578 32.832H457.695L451.211 42.5586C451.68 42.3242 452.135 42.1549 452.578 42.0508C453.073 41.556 453.75 40.8268 454.609 39.8633C455.469 38.8737 456.263 37.9883 456.992 37.207C457.721 36.4258 458.503 35.6445 459.336 34.8633C460.169 34.056 461.003 33.431 461.836 32.9883C462.669 32.5195 463.451 32.2852 464.18 32.2852C464.492 32.2852 464.792 32.3372 465.078 32.4414C465.365 32.5456 465.664 32.7279 465.977 32.9883C466.289 33.2227 466.536 33.6003 466.719 34.1211C466.927 34.6419 467.031 35.2669 467.031 35.9961C467.031 36.8034 466.745 37.6888 466.172 38.6523C465.599 39.5898 464.935 40.0586 464.18 40.0586Z" fill="#FFFCF4"/>
<path d="M487.5 44.4727H488.672C488.464 44.8112 488.177 45.2539 487.812 45.8008C487.474 46.3216 486.797 47.2721 485.781 48.6523C484.792 50.0326 483.841 51.2565 482.93 52.3242C482.044 53.3659 481.042 54.3164 479.922 55.1758C478.828 56.0352 477.904 56.4648 477.148 56.4648C476.289 56.4648 475.521 55.9831 474.844 55.0195C474.167 54.056 473.828 52.6758 473.828 50.8789C473.828 50.306 473.984 49.5638 474.297 48.6523C470.26 53.8607 467.5 56.4648 466.016 56.4648C465.182 56.4648 464.427 55.9831 463.75 55.0195C463.073 54.056 462.734 52.6758 462.734 50.8789C462.734 50.0716 463.06 48.8997 463.711 47.3633C464.362 45.8268 465.143 44.2643 466.055 42.6758C466.992 41.0612 467.93 39.5117 468.867 38.0273C469.805 36.543 470.599 35.332 471.25 34.3945L472.227 32.9492H477.188C476.875 33.418 476.458 34.0299 475.938 34.7852C475.417 35.5404 474.492 36.9596 473.164 39.043C471.836 41.1003 470.664 43.0013 469.648 44.7461C468.633 46.4909 467.708 48.2878 466.875 50.1367C466.042 51.9596 465.625 53.3138 465.625 54.1992C465.625 54.8763 465.898 55.2148 466.445 55.2148C467.617 55.2148 470.82 51.7383 476.055 44.7852C476.888 43.1706 477.904 41.3867 479.102 39.4336C480.326 37.4544 481.328 35.8789 482.109 34.707L483.32 32.9492H488.281C487.969 33.418 487.539 34.0299 486.992 34.7852C486.471 35.5404 485.547 36.9596 484.219 39.043C482.891 41.1003 481.719 43.0013 480.703 44.7461C479.714 46.4909 478.802 48.2878 477.969 50.1367C477.135 51.9596 476.719 53.3138 476.719 54.1992C476.719 54.8763 476.992 55.2148 477.539 55.2148C478.008 55.2148 478.646 54.8763 479.453 54.1992C480.26 53.5221 481.042 52.7539 481.797 51.8945C482.552 51.0352 483.385 50.0195 484.297 48.8477C485.208 47.6758 485.872 46.7904 486.289 46.1914C486.732 45.5924 487.135 45.0195 487.5 44.4727Z" fill="#FFFCF4"/>
<path d="M490.938 55.4492C493.542 55.4492 497.643 51.7904 503.242 44.4727H504.453C503.229 46.0872 502.044 47.5586 500.898 48.8867C499.779 50.1888 498.594 51.4388 497.344 52.6367C496.12 53.8346 494.935 54.7721 493.789 55.4492C492.643 56.1263 491.615 56.4648 490.703 56.4648C489.323 56.4648 488.151 55.9701 487.188 54.9805C486.25 53.9909 485.781 52.4935 485.781 50.4883C485.781 48.7435 486.302 46.8164 487.344 44.707C488.385 42.5716 489.674 40.6315 491.211 38.8867C492.773 37.1419 494.505 35.6836 496.406 34.5117C498.307 33.3398 500.065 32.7539 501.68 32.7539C501.966 32.7539 502.253 32.806 502.539 32.9102C502.852 33.0143 503.164 33.1966 503.477 33.457C503.789 33.6914 504.036 34.069 504.219 34.5898C504.427 35.0846 504.531 35.7096 504.531 36.4648C504.531 38.1836 503.828 39.8372 502.422 41.4258C501.016 43.0143 499.336 44.1732 497.383 44.9023C495.43 45.6055 493.711 45.6836 492.227 45.1367C490.404 48.4961 489.492 51.1003 489.492 52.9492C489.492 54.6159 489.974 55.4492 490.938 55.4492ZM501.445 33.5742C500.742 33.5742 499.453 34.7201 497.578 37.0117C495.729 39.3034 494.036 41.8294 492.5 44.5898C493.464 44.7461 494.44 44.5898 495.43 44.1211C496.445 43.6523 497.331 43.0143 498.086 42.207C498.867 41.3737 499.557 40.4753 500.156 39.5117C500.781 38.5221 501.25 37.5716 501.562 36.6602C501.901 35.7487 502.07 34.9935 502.07 34.3945C502.07 33.8477 501.862 33.5742 501.445 33.5742Z" fill="#FFFCF4"/>
<path d="M506.367 46.0742L524.883 8.45703H532.148L507.344 46.0742H506.367ZM503.086 56.4648C502.331 56.4648 501.771 56.2435 501.406 55.8008C501.016 55.332 500.833 54.7852 500.859 54.1602C500.911 53.4049 501.185 52.7799 501.68 52.2852C502.174 51.7904 502.826 51.543 503.633 51.543C504.492 51.543 505.091 51.8034 505.43 52.3242C505.768 52.819 505.911 53.3529 505.859 53.9258C505.807 54.6029 505.534 55.2018 505.039 55.7227C504.57 56.2174 503.919 56.4648 503.086 56.4648Z" fill="#FFFCF4"/>
</svg>
