<svg width="351" height="315" viewBox="0 0 351 315" fill="none" xmlns="http://www.w3.org/2000/svg">
<g clip-path="url(#clip0_79_1291)">
<path d="M134.798 150.086C132.797 147.539 130.25 144.265 127.158 140.263C124.066 136.261 120.882 132.123 117.608 127.849C114.425 123.574 111.333 119.481 108.331 115.57C105.33 111.568 102.92 108.34 101.101 105.884L97.69 109.295V139.035C97.69 141.309 97.8719 143.083 98.2358 144.356C98.6905 145.538 99.3726 146.448 100.282 147.085C101.192 147.63 102.329 147.949 103.693 148.04C105.148 148.131 106.831 148.176 108.741 148.176V150.086H73.4063V148.176C75.3162 148.176 76.9533 148.131 78.3176 148.04C79.7728 147.949 80.9551 147.63 81.8647 147.085C82.7742 146.448 83.4108 145.538 83.7746 144.356C84.2294 143.083 84.4567 141.309 84.4567 139.035V76.5524C84.4567 74.2787 84.2294 72.5051 83.7746 71.2318C83.4108 69.9585 82.7742 69.049 81.8647 68.5033C81.0461 67.8666 79.9092 67.5028 78.454 67.4119C77.0897 67.3209 75.4072 67.2755 73.4063 67.2755V65.5019H108.741V67.2755C106.74 67.2755 105.012 67.3664 103.556 67.5483C102.192 67.6393 101.055 68.0031 100.146 68.6397C99.3272 69.1854 98.6905 70.0949 98.2358 71.3682C97.8719 72.5506 97.69 74.2787 97.69 76.5524V105.338L124.43 78.1895C127.158 75.461 128.522 73.0963 128.522 71.0954C128.522 70.1859 128.204 69.5038 127.567 69.049C127.022 68.5033 126.294 68.094 125.384 67.8212C124.475 67.5483 123.52 67.4119 122.52 67.4119C121.61 67.3209 120.791 67.2755 120.064 67.2755V65.5019H154.443V67.2755C149.532 67.2755 144.711 68.4123 139.982 70.6861C135.344 72.8689 131.296 75.6429 127.84 79.0081L110.514 96.4706L130.569 123.074C133.661 127.348 136.344 130.895 138.618 133.715C140.983 136.534 142.938 138.854 144.484 140.673C145.757 142.037 146.894 143.219 147.895 144.22C148.895 145.129 149.941 145.902 151.033 146.539C152.124 147.085 153.306 147.494 154.58 147.767C155.944 148.04 157.581 148.176 159.491 148.176V150.086H134.798Z" fill="#212844"/>
<path d="M271.809 180.373C271.627 181.556 271.263 183.329 270.717 185.694C270.263 188.059 269.808 190.423 269.353 192.788C268.898 195.062 268.444 197.108 267.989 198.927C267.625 200.655 267.443 201.519 267.443 201.519C265.897 202.702 263.896 203.748 261.44 204.657C259.258 205.476 256.438 206.203 252.982 206.84C249.526 207.567 245.206 207.931 240.022 207.931C233.109 207.931 226.561 206.976 220.376 205.066C214.283 203.156 208.962 200.382 204.414 196.744C199.867 193.015 196.274 188.422 193.637 182.965C190.999 177.417 189.68 171.051 189.68 163.866C189.68 156.772 190.863 150.496 193.228 145.039C195.592 139.491 198.912 134.852 203.187 131.124C207.552 127.304 212.736 124.393 218.739 122.392C224.742 120.391 231.427 119.391 238.794 119.391C246.797 119.391 253.528 120.892 258.985 123.893C259.712 124.166 260.304 124.302 260.758 124.302C261.759 124.302 262.577 123.847 263.214 122.938C263.851 122.028 264.169 120.846 264.169 119.391H265.942L270.445 146.949L268.671 147.222C267.58 143.948 266.17 140.81 264.442 137.808C262.714 134.716 260.622 132.033 258.166 129.759C255.802 127.395 253.028 125.53 249.844 124.166C246.661 122.711 243.023 121.983 238.93 121.983C232.837 121.983 227.607 123.12 223.241 125.394C218.967 127.576 215.419 130.578 212.6 134.398C209.871 138.127 207.871 142.492 206.597 147.495C205.324 152.406 204.687 157.59 204.687 163.047C204.687 168.322 205.415 173.506 206.87 178.6C208.416 183.693 210.69 188.24 213.691 192.242C216.693 196.153 220.376 199.336 224.742 201.792C229.198 204.157 234.292 205.339 240.022 205.339C247.48 205.339 253.71 203.111 258.712 198.654C263.714 194.198 267.489 188.059 270.035 180.237L271.809 180.373Z" fill="#212844"/>
<path d="M173.872 64.519V225.621" stroke="#212844" stroke-width="1.22958" stroke-miterlimit="10"/>
<path d="M177.801 64.519V225.621" stroke="#212844" stroke-width="1.22958" stroke-miterlimit="10"/>
<path d="M122.357 314.071C122.357 314.071 122.004 313.992 121.886 313.874C121.611 313.599 121.611 313.167 121.886 312.931C130.02 304.994 140 299.218 150.766 296.271C158.704 294.071 166.169 294.11 174.067 294.149C177.211 294.149 180.433 294.149 183.694 294.031C218.626 292.499 252.418 280.829 276.387 262.007C300.788 242.832 316.898 214.777 325.739 176.309C326.721 172.065 327.586 167.586 328.332 162.989C333.912 129.079 331.711 98.8623 321.731 73.2039C309.982 42.9482 286.76 19.7259 259.569 11.0814C259.216 10.9636 259.019 10.5706 259.137 10.217C259.255 9.86334 259.648 9.66688 260.001 9.78476C287.585 18.5471 311.161 42.0837 323.028 72.6931C333.087 98.5873 335.326 129.039 329.668 163.225C328.922 167.861 328.018 172.38 327.036 176.623C318.155 215.406 301.849 243.697 277.212 263.108C253.047 282.126 218.979 293.914 183.773 295.446C180.472 295.603 177.211 295.564 174.067 295.564C166.287 295.564 158.9 295.525 151.159 297.646C140.629 300.554 130.845 306.173 122.908 313.953C122.79 314.071 122.593 314.149 122.436 314.149L122.357 314.071Z" fill="#212844"/>
<path d="M127.584 304.601C127.269 304.601 126.994 304.404 126.916 304.09C126.837 303.736 127.073 303.343 127.426 303.265C132.338 302.125 135.324 301.143 138.468 300.082C140.825 299.296 143.261 298.471 146.641 297.567C146.994 297.449 147.387 297.685 147.466 298.039C147.584 298.392 147.348 298.785 146.994 298.864C143.654 299.768 141.218 300.593 138.9 301.379C135.717 302.44 132.692 303.461 127.701 304.601C127.662 304.601 127.584 304.601 127.544 304.601H127.584Z" fill="#212844"/>
<path d="M194.42 294.581C194.067 294.581 193.792 294.345 193.752 293.991C193.713 293.638 193.988 293.284 194.342 293.245C212.024 291.123 249.313 271.83 269.47 258.706C289.745 245.503 326.288 205.385 331.318 182.792C334.658 167.782 327.781 146.996 320.473 124.952C316.779 113.832 312.968 102.28 310.571 91.5136C310.492 91.16 310.728 90.7671 311.082 90.6885C311.475 90.6099 311.828 90.8457 311.907 91.1993C314.304 101.926 318.115 113.439 321.769 124.52C329.117 146.721 336.072 167.703 332.654 183.067C327.545 205.935 290.688 246.486 270.217 259.806C249.941 273.009 212.377 292.42 194.499 294.581C194.499 294.581 194.46 294.581 194.42 294.581Z" fill="#212844"/>
<path d="M330.1 155.994C330.1 155.994 330.021 155.994 329.982 155.994C329.628 155.955 329.353 155.601 329.392 155.208C331.554 140.905 338.862 123.97 348.017 112.025C348.253 111.71 348.685 111.671 348.96 111.907C349.275 112.143 349.314 112.575 349.078 112.85C340.08 124.638 332.85 141.338 330.728 155.444C330.689 155.797 330.375 156.033 330.06 156.033L330.1 155.994Z" fill="#212844"/>
<path d="M336.427 134.422C336.427 134.422 336.151 134.383 336.034 134.304C335.719 134.068 335.68 133.636 335.916 133.361C339.02 129.235 344.01 125.463 348.647 123.695C349 123.577 349.393 123.734 349.511 124.088C349.629 124.442 349.472 124.834 349.118 124.952C344.717 126.603 339.963 130.218 337.016 134.147C336.898 134.343 336.662 134.422 336.466 134.422H336.427Z" fill="#212844"/>
<path d="M339.923 127.389C339.923 127.389 339.923 127.389 339.844 127.389C339.451 127.389 339.176 127.035 339.216 126.642L340.001 117.919C340.001 117.526 340.355 117.251 340.748 117.29C341.141 117.29 341.416 117.644 341.377 118.037L340.591 126.76C340.591 127.114 340.277 127.389 339.923 127.389Z" fill="#212844"/>
<path d="M342.123 116.426C342.123 117.212 341.494 117.84 340.709 117.84C339.923 117.84 339.294 117.212 339.294 116.426C339.294 115.64 339.923 115.011 340.709 115.011C341.494 115.011 342.123 115.64 342.123 116.426Z" fill="#212844"/>
<path d="M350.218 111.986C350.218 112.772 349.589 113.4 348.803 113.4C348.017 113.4 347.389 112.772 347.389 111.986C347.389 111.2 348.017 110.571 348.803 110.571C349.589 110.571 350.218 111.2 350.218 111.986Z" fill="#212844"/>
<path d="M350.258 124.322C350.258 125.108 349.63 125.737 348.844 125.737C348.058 125.737 347.429 125.108 347.429 124.322C347.429 123.536 348.058 122.908 348.844 122.908C349.63 122.908 350.258 123.536 350.258 124.322Z" fill="#212844"/>
<path d="M330.021 154.893C330.021 154.893 329.667 154.814 329.51 154.657C328.567 153.635 327.663 152.653 326.76 151.671C319.058 143.341 311.75 135.482 306.563 123.419C304.284 118.154 302.83 114.106 302.083 111.002C302.005 110.727 302.123 110.413 302.398 110.256C302.634 110.099 302.987 110.138 303.184 110.334C317.801 122.987 325.266 139.49 330.689 153.989C330.807 154.303 330.689 154.657 330.414 154.814C330.296 154.893 330.178 154.932 330.06 154.932L330.021 154.893ZM304.009 112.888C304.834 115.56 306.091 118.861 307.82 122.869C312.928 134.735 320.119 142.515 327.781 150.767C327.899 150.885 328.017 151.042 328.135 151.16C323.105 138.272 316.229 124.165 304.009 112.888Z" fill="#212844"/>
<path d="M311.201 91.9845C311.004 91.9845 310.808 91.9059 310.65 91.7095C301.22 79.3714 298.98 64.9115 298.077 53.713C298.077 53.3986 298.234 53.1236 298.509 53.0057C298.784 52.8878 299.098 53.0057 299.295 53.2415C308.45 65.1866 313.047 79.0964 311.869 91.3558C311.869 91.6309 311.633 91.8666 311.397 91.9452C311.318 91.9452 311.279 91.9452 311.201 91.9452V91.9845ZM299.648 56.0313C300.631 66.2082 302.949 78.5856 310.65 89.4305C311.161 78.6249 307.232 66.6797 299.648 56.0313Z" fill="#212844"/>
<path d="M321.338 123.46C321.024 123.46 320.788 123.263 320.709 122.949C317.645 110.415 317.684 97.1728 320.788 84.6383C320.867 84.3632 321.102 84.1667 321.417 84.1274C321.692 84.1274 321.967 84.3239 322.045 84.599C325.621 96.269 325.621 110.257 321.967 122.949C321.888 123.224 321.613 123.421 321.338 123.421V123.46ZM321.456 88.489C319.098 99.6089 319.059 111.2 321.377 122.32C324.128 111.043 324.167 98.9803 321.456 88.489Z" fill="#212844"/>
<path d="M285.345 256.191C285.11 256.191 284.874 256.073 284.756 255.837C284.599 255.562 284.638 255.248 284.874 255.012C298.273 241.338 315.012 231.122 333.322 225.542C333.637 225.463 333.951 225.542 334.108 225.856C334.265 226.131 334.226 226.485 333.99 226.682C327.114 233.44 319.766 238.784 312.222 244.088C304.756 249.354 295.758 253.401 285.542 256.112C285.502 256.112 285.424 256.112 285.385 256.112L285.345 256.191ZM330.886 227.782C314.697 233.165 299.844 242.242 287.664 254.187C296.701 251.554 304.678 247.821 311.436 243.067C318.155 238.312 324.717 233.558 330.925 227.821L330.886 227.782Z" fill="#212844"/>
<path d="M296.072 236.938C296.072 236.938 295.954 236.938 295.876 236.938C295.601 236.859 295.404 236.584 295.404 236.27C295.797 219.885 301.888 202.321 311.672 189.236C311.868 189 312.182 188.882 312.458 189C312.733 189.118 312.929 189.393 312.89 189.668C311.79 205.307 305.738 222.871 296.662 236.624C296.544 236.82 296.308 236.938 296.112 236.938H296.072ZM311.318 191.987C303.027 203.932 297.723 219.217 296.858 233.755C304.599 221.26 309.903 205.975 311.318 191.987Z" fill="#212844"/>
<path d="M323.421 202.517C323.421 202.517 323.107 202.478 322.989 202.36C322.753 202.124 322.675 201.77 322.832 201.495C323.539 200.356 324.207 199.177 324.875 197.998C326.918 194.422 329.04 190.768 331.987 187.939C334.738 185.346 337.999 183.185 341.064 181.259C341.771 180.827 342.635 180.277 343.618 180.08C344.797 179.845 345.975 180.159 346.643 180.945C347.586 182.006 347.429 183.499 346.84 184.56C346.526 185.11 346.133 185.582 345.7 185.974C346.25 186.171 346.801 186.446 347.272 186.917C348.215 187.861 348.49 189.275 347.979 190.336C347.429 191.436 346.211 192.026 344.325 192.143H344.089C343.068 192.222 342.007 192.301 341.378 192.89C340.985 193.283 340.789 193.872 340.592 194.54C340.396 195.208 340.16 195.876 339.689 196.466C338.588 197.88 336.702 197.998 335.681 197.959C335.091 197.959 334.502 197.841 333.912 197.762C333.244 197.684 332.616 197.605 331.948 197.566C329.197 197.566 327.075 199.491 324.993 201.338C324.639 201.652 324.286 202.006 323.932 202.281C323.814 202.399 323.657 202.438 323.5 202.438L323.421 202.517ZM332.969 188.921C330.14 191.593 328.097 195.13 326.132 198.588C327.783 197.291 329.669 196.23 331.908 196.23C332.655 196.23 333.362 196.309 334.07 196.426C334.62 196.505 335.17 196.584 335.72 196.623C336.309 196.623 337.842 196.623 338.588 195.641C338.903 195.248 339.06 194.698 339.256 194.147C339.492 193.401 339.767 192.576 340.396 191.947C341.378 191.004 342.753 190.886 343.971 190.808H344.207C345.582 190.69 346.447 190.336 346.761 189.707C347.036 189.157 346.84 188.371 346.329 187.861C345.7 187.232 344.797 187.075 344.129 187.035C343.854 187.035 343.618 186.839 343.539 186.564C343.461 186.289 343.539 186.014 343.775 185.817C344.482 185.267 345.268 184.638 345.7 183.892C346.054 183.263 346.133 182.359 345.7 181.849C345.347 181.456 344.639 181.259 343.971 181.416C343.225 181.574 342.518 182.006 341.85 182.399C338.824 184.285 335.681 186.407 332.969 188.921Z" fill="#212844"/>
<path d="M323.617 187.94C323.617 187.94 323.538 187.94 323.46 187.94C323.106 187.861 322.87 187.507 322.949 187.154C323.735 183.342 322.32 178.431 319.648 175.719L319.295 175.366C318.666 174.737 317.919 174.03 317.605 173.087C317.173 171.829 317.526 170.651 317.88 169.472C317.998 169.118 318.076 168.725 318.155 168.372C318.509 166.721 318.234 164.953 317.369 163.499C316.898 162.674 316.269 162.006 315.601 161.26C315.129 160.749 314.658 160.199 314.265 159.649C313.243 158.273 313.008 156.859 313.636 155.837C314.226 154.894 315.522 154.462 317.016 154.698C319.648 155.091 322.202 156.898 323.813 159.531C325.11 161.613 325.896 164.089 326.289 167.389C326.917 172.419 326.446 179.609 325.189 184.089C325.11 184.403 324.835 184.6 324.521 184.6C324.521 185.582 324.481 186.564 324.285 187.468C324.206 187.782 323.931 188.018 323.617 188.018V187.94ZM316.23 155.955C315.64 155.955 315.051 156.112 314.815 156.505C314.344 157.252 315.129 158.43 315.365 158.745C315.758 159.256 316.19 159.766 316.623 160.277C317.291 161.024 317.998 161.81 318.548 162.753C319.57 164.482 319.923 166.643 319.491 168.607C319.412 169 319.295 169.393 319.177 169.786C318.902 170.808 318.587 171.751 318.902 172.576C319.137 173.244 319.687 173.755 320.238 174.344L320.631 174.737C322.477 176.584 323.735 179.295 324.285 182.085C325.189 177.802 325.503 171.829 324.953 167.507C324.56 164.403 323.853 162.085 322.674 160.199C321.259 157.92 319.059 156.348 316.819 155.994C316.623 155.994 316.426 155.955 316.23 155.955Z" fill="#212844"/>
<path d="M331.868 123.459C331.475 123.459 331.2 123.145 331.2 122.752C331.278 119.923 331.475 117.094 332.025 114.658C331.946 114.658 331.868 114.697 331.789 114.736C331.396 114.775 331.082 114.5 331.043 114.107L330.964 113.361C330.296 105.345 329.589 97.0149 332.3 90.2172C332.929 88.6454 333.754 86.9165 335.404 85.9735C336.387 85.3841 337.644 85.2662 338.744 85.6592C339.609 85.9735 340.277 86.5629 340.591 87.3095C341.062 88.4097 340.827 89.7063 339.884 91.2781L339.569 91.7496C339.058 92.5748 338.587 93.3213 338.548 94.1465C338.508 94.9716 338.862 95.7968 339.255 96.7005C339.373 96.9756 339.491 97.2506 339.609 97.5257C340.355 99.3332 340.198 100.983 339.176 101.927C338.901 102.162 338.626 102.359 338.351 102.516C338.115 102.673 337.919 102.791 337.762 102.948C337.29 103.459 337.29 104.245 337.33 105.227C337.33 105.895 337.369 106.563 337.251 107.231C337.015 108.331 336.308 109.196 335.64 110.021C335.443 110.257 335.247 110.492 335.051 110.767C332.85 113.754 332.654 119.883 332.536 122.83C332.536 123.184 332.221 123.498 331.868 123.498V123.459ZM337.408 85.6592C336.937 85.6592 336.426 85.777 336.033 86.0128C334.775 86.7594 334.068 88.2132 333.518 89.5885C330.964 96.0718 331.632 104.245 332.3 112.103V112.221C332.693 110.925 333.204 109.746 333.911 108.803C334.108 108.528 334.343 108.253 334.54 108.017C335.129 107.27 335.719 106.602 335.876 105.817C335.994 105.345 335.954 104.756 335.954 104.166C335.915 103.066 335.876 101.809 336.779 100.905C337.055 100.63 337.369 100.433 337.644 100.276C337.88 100.158 338.076 100.04 338.233 99.8833C338.901 99.2546 338.744 97.9579 338.312 96.9756C338.194 96.7005 338.076 96.4648 337.958 96.1897C337.526 95.2074 337.055 94.1465 337.133 93.007C337.212 91.8282 337.801 90.8851 338.351 89.9814L338.626 89.5099C339.334 88.3311 339.53 87.4666 339.216 86.7594C339.019 86.2486 338.548 85.9735 338.194 85.8556C337.919 85.777 337.644 85.7377 337.33 85.7377L337.408 85.6592Z" fill="#212844"/>
<path d="M330.926 102.555C330.572 102.555 330.258 102.28 330.258 101.926C329.629 94.4213 329.001 86.6806 329.472 79.0184C330.022 70.4132 331.987 62.9475 335.327 56.8571C335.523 56.5427 335.916 56.4248 336.27 56.582C336.584 56.7785 336.741 57.1714 336.545 57.525C333.284 63.4583 331.398 70.7275 330.847 79.1363C330.376 86.6806 331.005 94.382 331.633 101.808C331.633 102.201 331.398 102.516 331.005 102.555C331.005 102.555 331.005 102.555 330.965 102.555H330.926Z" fill="#212844"/>
<path d="M307.781 46.9163C307.781 46.9163 307.428 46.8377 307.271 46.6806C303.027 42.0047 295.129 37.6431 288.017 36.0321C281.259 34.4997 274.264 34.2639 267.742 34.2246C267.349 34.2246 267.074 33.9103 267.074 33.5567C267.074 33.1637 267.388 32.8887 267.742 32.8887C274.382 32.928 281.455 33.203 288.292 34.7355C295.64 36.3858 303.852 40.9438 308.253 45.8161C308.489 46.0912 308.489 46.5234 308.214 46.7592C308.096 46.877 307.939 46.9163 307.742 46.9163H307.781Z" fill="#212844"/>
<path d="M203.576 292.537C203.576 292.537 203.223 292.458 203.105 292.34C202.869 292.144 202.83 291.79 202.987 291.515C211.71 274.855 227.309 261.338 244.795 255.365C245.07 255.287 245.384 255.365 245.541 255.601C245.738 255.837 245.738 256.151 245.581 256.387C241.062 263.538 235.286 269.629 226.877 276.151L226.641 276.309C219.411 281.888 211.946 287.664 203.93 292.419C203.812 292.497 203.694 292.497 203.576 292.497V292.537ZM243.341 257.33C227.742 263.224 213.832 275.169 205.423 289.904C212.535 285.425 219.294 280.238 225.816 275.208L226.052 275.051C233.675 269.197 239.058 263.656 243.341 257.33Z" fill="#212844"/>
<path d="M201.887 302.872C192.299 302.872 182.555 300.358 173.242 295.367C172.967 295.21 172.81 294.896 172.888 294.621C172.967 294.306 173.242 294.11 173.556 294.11C185.894 293.992 199.136 294.66 212.221 300.633C212.496 300.75 212.653 301.026 212.614 301.34C212.614 301.615 212.378 301.89 212.064 301.929C208.684 302.597 205.305 302.912 201.847 302.912L201.887 302.872ZM176.385 295.446C187.27 300.672 198.625 302.558 209.588 300.947C198.39 296.35 187.113 295.446 176.385 295.446Z" fill="#212844"/>
<path d="M247.348 280.672C247.112 280.672 246.837 280.515 246.719 280.279C246.562 279.925 246.719 279.532 247.034 279.375C252.771 276.664 258.507 272.224 264.558 265.819C269.784 260.318 273.242 254.227 274.578 248.176C274.657 247.823 275.01 247.587 275.403 247.666C275.757 247.744 275.993 248.098 275.914 248.491C274.5 254.778 270.924 261.104 265.541 266.801C259.372 273.324 253.517 277.843 247.623 280.632C247.545 280.672 247.427 280.711 247.348 280.711V280.672Z" fill="#212844"/>
<path d="M320.002 68.4487C319.727 68.4487 319.452 68.2522 319.373 67.9772C316.662 59.0183 317.448 49.0772 321.495 40.6684C321.613 40.3934 321.888 40.2362 322.202 40.2755C322.477 40.2755 322.713 40.5113 322.792 40.8256C324.796 50.0988 324.088 59.2541 320.67 68.0558C320.552 68.3308 320.316 68.488 320.041 68.488L320.002 68.4487ZM321.849 42.6331C318.98 49.6273 318.391 57.5645 320.12 64.9123C322.556 57.6824 323.106 50.1774 321.849 42.6331Z" fill="#212844"/>
<path d="M306.759 45.8544C306.563 45.8544 306.366 45.7758 306.209 45.5793C299.726 37.0134 293.832 22.1213 295.089 10.3334C295.089 10.0583 295.285 9.82257 295.561 9.74398C295.836 9.6654 296.111 9.74398 296.268 9.94045C303.93 18.5064 308.527 33.0055 307.427 45.2257C307.427 45.5007 307.191 45.7365 306.956 45.8151C306.877 45.8151 306.838 45.8151 306.759 45.8151V45.8544ZM296.307 12.0623C295.757 22.5535 300.59 35.0881 306.17 43.2217C306.602 32.4947 302.594 19.9209 296.307 12.0623Z" fill="#212844"/>
<path d="M265.384 45.6578C265.109 45.6578 264.873 45.5006 264.755 45.2649C264.637 44.9898 264.677 44.6755 264.912 44.479C271.003 38.6636 279.294 35.088 287.702 34.5771C287.978 34.5771 288.253 34.7343 288.37 34.9701C288.488 35.2451 288.41 35.5202 288.213 35.7166C282.83 41.0605 275.364 44.3218 265.463 45.6185H265.384V45.6578ZM285.816 36.1489C279.176 36.9347 272.692 39.7245 267.545 44.0075C275.207 42.7108 281.219 40.1568 285.816 36.1489Z" fill="#212844"/>
<path d="M280.472 20.7459C280.472 20.7459 280.197 20.7066 280.079 20.6281C274.657 16.8952 270.531 11.1191 268.763 4.79292C268.684 4.51786 268.763 4.24281 268.999 4.08564C269.234 3.92847 269.509 3.88917 269.745 4.04635C276.386 7.7399 280.315 13.2802 281.14 20.0387C281.14 20.3137 281.062 20.5495 280.826 20.7066C280.708 20.7852 280.59 20.8245 280.472 20.8245V20.7459ZM270.61 6.12888C272.339 10.9619 275.482 15.3628 279.529 18.5455C278.468 13.4767 275.443 9.23304 270.61 6.12888Z" fill="#212844"/>
<path d="M257.959 11.0807C249.118 11.0807 240.709 7.66216 233.558 1.17879C233.361 0.982329 233.283 0.707277 233.361 0.432225C233.518 0.0392931 233.99 0 234.422 0C241.966 0 252.418 1.76819 260.159 9.90187C260.356 10.0983 260.395 10.3734 260.316 10.6092C260.198 10.8449 260.002 11.0414 259.727 11.0414C259.137 11.0414 258.509 11.0807 257.919 11.0807H257.959ZM235.876 1.17879C242.438 6.67984 250.021 9.50894 257.959 9.50894H258.116C251.279 3.10416 242.634 1.37526 235.876 1.17879Z" fill="#212844"/>
<path d="M270.964 26.4059C266.17 26.4059 261.297 25.4236 256.386 23.4982C256.111 23.3803 255.954 23.1446 255.954 22.8302C255.954 22.5552 256.15 22.2801 256.425 22.2015C265.502 19.451 275.443 19.5296 284.48 22.398C284.755 22.4766 284.952 22.7516 284.952 23.0267C284.952 23.3017 284.795 23.5768 284.52 23.6947C280.08 25.5022 275.522 26.4059 270.924 26.4059H270.964ZM258.901 22.9481C266.838 25.6593 274.657 25.7379 282.201 23.1446C274.657 21.1013 266.523 21.0227 258.901 22.9481Z" fill="#212844"/>
<path d="M324.56 79.4908C319.609 76.8975 315.483 72.7324 312.929 67.7422C318.116 70.3355 322.242 74.147 324.56 79.4908Z" fill="#212844"/>
<path d="M324.56 80.1585C324.56 80.1585 324.324 80.1585 324.246 80.0799C319.177 77.408 314.933 73.125 312.301 68.0562C312.183 67.7811 312.222 67.4668 312.419 67.2703C312.615 67.0739 312.929 66.9953 313.204 67.1525C318.863 69.9816 322.871 74.0681 325.15 79.2155C325.267 79.4905 325.189 79.8049 324.992 80.0013C324.874 80.1192 324.678 80.1978 324.521 80.1978L324.56 80.1585ZM314.737 69.51C316.819 72.7714 319.648 75.6005 322.91 77.7223C321.024 74.4217 318.273 71.6712 314.737 69.51Z" fill="#212844"/>
<path d="M291.829 28.4075C287.428 24.5961 284.363 19.2522 283.263 13.5547C287.939 17.0518 291.475 22.5921 291.829 28.4075Z" fill="#212844"/>
<path d="M291.829 29.0766C291.829 29.0766 291.515 29.0374 291.397 28.9195C286.878 24.9902 283.735 19.5677 282.595 13.6737C282.556 13.3987 282.674 13.1236 282.91 12.9665C283.145 12.8093 283.46 12.8486 283.696 12.9665C288.882 16.8565 292.183 22.5933 292.536 28.3301C292.536 28.6051 292.419 28.8802 292.144 28.9981C292.065 29.0374 291.947 29.0766 291.829 29.0766ZM284.364 15.3633C285.542 19.607 287.821 23.497 290.925 26.6405C290.179 22.5147 287.821 18.5068 284.364 15.3633Z" fill="#212844"/>
<path d="M319.373 200.041C315.405 193.833 313.715 186.171 314.776 178.862C318.313 185.306 320.159 192.733 319.373 200.041Z" fill="#212844"/>
<path d="M319.374 200.709C319.138 200.709 318.941 200.591 318.784 200.395C314.737 194.069 313.008 186.21 314.069 178.784C314.108 178.509 314.344 178.273 314.619 178.194C314.894 178.155 315.209 178.273 315.326 178.548C319.138 185.503 320.749 192.969 320.002 200.12C320.002 200.395 319.767 200.631 319.492 200.709C319.452 200.709 319.374 200.709 319.334 200.709H319.374ZM315.209 181.22C314.855 186.917 316.112 192.772 318.824 197.802C319.02 192.261 317.802 186.603 315.209 181.22Z" fill="#212844"/>
<path d="M329.826 209.314C322.753 209.472 315.877 213.244 311.908 219.098C318.509 217.212 324.757 213.951 329.826 209.314Z" fill="#212844"/>
<path d="M311.868 219.766C311.672 219.766 311.436 219.649 311.318 219.491C311.161 219.256 311.161 218.941 311.318 218.706C315.405 212.654 322.517 208.804 329.786 208.646C330.1 208.646 330.336 208.804 330.415 209.079C330.532 209.354 330.415 209.629 330.257 209.825C325.346 214.305 319.059 217.723 312.065 219.766C311.986 219.766 311.947 219.766 311.868 219.766ZM327.821 210.14C322.359 210.808 317.212 213.597 313.715 217.802C319.02 216.034 323.813 213.401 327.821 210.14Z" fill="#212844"/>
<path d="M290.965 227.665C284.56 233.205 280.984 240.867 281.377 249.826C287.35 243.775 289.786 236.073 290.965 227.665Z" fill="#212844"/>
<path d="M281.377 250.533C281.377 250.533 281.219 250.533 281.141 250.494C280.905 250.415 280.709 250.14 280.709 249.905C280.316 240.946 283.734 233.087 290.532 227.193C290.728 226.997 291.043 226.957 291.318 227.115C291.554 227.232 291.711 227.507 291.671 227.822C290.257 238.038 287.231 245.032 281.887 250.376C281.77 250.494 281.573 250.573 281.416 250.573L281.377 250.533ZM289.982 229.472C284.834 234.541 282.084 240.946 282.005 248.136C286.092 243.5 288.607 237.606 289.982 229.472Z" fill="#212844"/>
<path d="M253.401 260.749C248.018 263.538 243.931 268.764 242.556 274.698C248.175 271.672 251.594 266.878 253.401 260.749Z" fill="#212844"/>
<path d="M242.556 275.366C242.556 275.366 242.281 275.327 242.124 275.209C241.928 275.052 241.81 274.777 241.888 274.502C243.303 268.372 247.468 262.989 253.087 260.12C253.323 260.002 253.637 260.042 253.833 260.199C254.03 260.356 254.148 260.67 254.069 260.906C252.105 267.547 248.45 272.262 242.91 275.248C242.792 275.287 242.714 275.327 242.596 275.327L242.556 275.366ZM252.183 262.203C248.175 264.757 245.11 268.726 243.657 273.244C247.625 270.69 250.454 267.075 252.183 262.203Z" fill="#212844"/>
<path d="M135.874 312.498C135.677 308.097 137.563 303.657 140.825 300.75C140.707 305.229 139.292 309.669 135.874 312.498Z" fill="#212844"/>
<path d="M135.874 313.167C135.874 313.167 135.678 313.167 135.599 313.128C135.363 313.01 135.206 312.774 135.206 312.539C135.01 307.902 136.935 303.305 140.393 300.24C140.589 300.043 140.904 300.004 141.139 300.122C141.375 300.24 141.532 300.476 141.532 300.751C141.414 304.484 140.432 309.631 136.306 313.01C136.188 313.128 136.031 313.167 135.874 313.167ZM140.039 302.519C138.035 304.837 136.817 307.823 136.581 310.888C138.821 308.413 139.725 305.269 140.039 302.519Z" fill="#212844"/>
<path d="M242.79 291.634C236.307 288.412 228.723 287.469 221.65 289.04C228.134 291.359 236.032 293.048 242.79 291.634Z" fill="#212844"/>
<path d="M237.447 292.813C231.592 292.813 225.738 291.202 221.376 289.669C221.101 289.551 220.905 289.276 220.944 289.001C220.944 288.687 221.18 288.451 221.494 288.373C228.763 286.762 236.425 287.705 243.105 291.045C243.38 291.162 243.498 291.437 243.459 291.752C243.459 292.027 243.223 292.263 242.909 292.341C241.141 292.695 239.294 292.852 237.447 292.852V292.813ZM224.362 289.198C229.038 290.652 234.893 291.87 240.394 291.28C235.325 289.198 229.785 288.49 224.362 289.198Z" fill="#212844"/>
<path d="M290.691 273.323C278.903 270.219 266.014 271.28 254.895 276.309C266.565 280.357 280.003 279.492 290.691 273.323Z" fill="#212844"/>
<path d="M269.668 279.453C264.638 279.453 259.53 278.628 254.658 276.938C254.383 276.859 254.226 276.624 254.187 276.309C254.187 276.034 254.344 275.759 254.579 275.641C265.935 270.533 278.784 269.472 290.808 272.616C291.083 272.694 291.279 272.891 291.319 273.166C291.319 273.441 291.24 273.716 290.965 273.834C284.599 277.488 277.173 279.374 269.629 279.374L269.668 279.453ZM256.819 276.231C267.585 279.453 279.295 278.51 288.804 273.598C278.155 271.162 266.917 272.105 256.819 276.231Z" fill="#212844"/>
<path d="M227.861 314.071C227.861 314.071 227.507 313.992 227.39 313.874C219.452 306.094 209.668 300.436 199.138 297.568C191.358 295.446 184.01 295.485 176.23 295.485C173.086 295.485 169.825 295.485 166.525 295.367C131.318 293.835 97.2507 282.047 73.0854 263.029C48.4486 243.658 32.1419 215.366 23.2617 176.545C22.2794 172.301 21.4149 167.782 20.6291 163.146C15.0101 129 17.2498 98.5087 27.2696 72.6145C39.1361 42.0051 62.712 18.4685 90.2958 9.70615C90.6494 9.58827 91.0424 9.78473 91.1603 10.1384C91.2781 10.492 91.0817 10.8849 90.728 11.0028C63.5372 19.6473 40.2756 42.8696 28.5663 73.1253C18.6251 98.7837 16.3854 129 21.965 162.91C22.7116 167.507 23.6153 171.987 24.5584 176.231C33.36 214.699 49.5095 242.754 73.9106 261.929C97.8794 280.75 131.632 292.46 166.603 293.953C169.864 294.11 173.086 294.071 176.23 294.071C184.128 294.071 191.554 294.031 199.531 296.192C210.297 299.139 220.278 304.916 228.372 312.853C228.647 313.128 228.647 313.56 228.372 313.796C228.254 313.914 228.058 313.992 227.9 313.992L227.861 314.071Z" fill="#212844"/>
<path d="M222.674 304.601C222.674 304.601 222.556 304.601 222.517 304.601C217.527 303.461 214.501 302.44 211.318 301.379C209 300.593 206.564 299.768 203.224 298.864C202.87 298.785 202.634 298.392 202.752 298.039C202.831 297.685 203.224 297.449 203.578 297.567C206.957 298.51 209.393 299.296 211.75 300.082C214.894 301.143 217.88 302.125 222.792 303.265C223.145 303.343 223.381 303.697 223.303 304.09C223.224 304.404 222.949 304.601 222.635 304.601H222.674Z" fill="#212844"/>
<path d="M155.836 294.581C155.836 294.581 155.796 294.581 155.757 294.581C137.879 292.459 100.315 273.009 80.0393 259.806C59.5675 246.486 22.7106 205.935 17.6025 183.067C14.1839 167.703 21.1388 146.721 28.4867 124.52C32.1802 113.4 35.9524 101.926 38.3492 91.1993C38.4278 90.8457 38.7815 90.6099 39.1744 90.6885C39.528 90.7671 39.7638 91.1207 39.6852 91.5136C37.249 102.319 33.4376 113.832 29.7833 124.952C22.4748 146.996 15.5985 167.782 18.9384 182.792C21.2174 193.086 30.2548 207.9 44.4004 224.482C56.6206 238.824 70.884 252.262 80.7858 258.706C100.943 271.83 138.272 291.162 155.914 293.245C156.307 293.284 156.543 293.638 156.504 293.991C156.464 294.345 156.15 294.581 155.836 294.581Z" fill="#212844"/>
<path d="M20.1184 155.994C19.8041 155.994 19.4897 155.758 19.4504 155.404C17.3286 141.298 10.138 124.599 1.10053 112.811C0.864776 112.496 0.943362 112.103 1.21841 111.868C1.53276 111.632 1.92569 111.71 2.16145 111.986C11.3168 123.931 18.6253 140.905 20.7864 155.169C20.8257 155.522 20.5899 155.876 20.197 155.955C20.197 155.955 20.1184 155.955 20.0791 155.955L20.1184 155.994Z" fill="#212844"/>
<path d="M13.8296 134.422C13.6332 134.422 13.4367 134.343 13.2795 134.147C10.2932 130.218 5.53878 126.603 1.17724 124.952C0.8236 124.834 0.666427 124.442 0.784306 124.088C0.902186 123.734 1.29512 123.577 1.64876 123.695C6.24605 125.424 11.2363 129.196 14.3797 133.361C14.6155 133.675 14.5369 134.068 14.2619 134.304C14.144 134.383 13.9868 134.422 13.8689 134.422H13.8296Z" fill="#212844"/>
<path d="M10.2942 126.879C9.94054 126.879 9.66549 126.604 9.6262 126.25L8.84033 117.527C8.84033 117.134 9.07609 116.82 9.46902 116.781C9.86195 116.702 10.1763 117.016 10.2156 117.409L11.0015 126.132C11.0015 126.525 10.7657 126.84 10.3728 126.879C10.3728 126.879 10.3335 126.879 10.2942 126.879Z" fill="#212844"/>
<path d="M8.13232 116.426C8.13232 117.212 8.76102 117.84 9.54688 117.84C10.3327 117.84 10.9614 117.212 10.9614 116.426C10.9614 115.64 10.3327 115.011 9.54688 115.011C8.76102 115.011 8.13232 115.64 8.13232 116.426Z" fill="#212844"/>
<path d="M-0.000488281 111.986C-0.000488281 112.772 0.628202 113.4 1.41407 113.4C2.19993 113.4 2.82862 112.772 2.82862 111.986C2.82862 111.2 2.19993 110.571 1.41407 110.571C0.628202 110.571 -0.000488281 111.239 -0.000488281 111.986Z" fill="#212844"/>
<path d="M-0.000488281 124.325C-0.000488281 125.111 0.628202 125.739 1.41407 125.739C2.19993 125.739 2.82862 125.111 2.82862 124.325C2.82862 123.539 2.19993 122.91 1.41407 122.91C0.628202 122.91 -0.000488281 123.539 -0.000488281 124.325Z" fill="#212844"/>
<path d="M20.2357 154.894C20.2357 154.894 20 154.894 19.8821 154.776C19.607 154.619 19.4892 154.265 19.607 153.951C24.9902 139.452 32.4952 122.949 47.1122 110.296C47.348 110.1 47.6623 110.06 47.8981 110.218C48.1339 110.375 48.291 110.689 48.2125 110.964C47.4659 114.068 45.9727 118.116 43.733 123.381C38.5463 135.444 31.2378 143.302 23.5364 151.633C22.6326 152.615 21.6896 153.597 20.7858 154.619C20.668 154.776 20.4715 154.855 20.275 154.855L20.2357 154.894ZM46.2478 112.89C34.0669 124.167 27.1513 138.273 22.1218 151.161C22.2397 151.043 22.3576 150.886 22.5147 150.768C30.1376 142.517 37.3283 134.737 42.4364 122.87C44.1653 118.862 45.4226 115.561 46.2478 112.89Z" fill="#212844"/>
<path d="M39.0563 91.9856C39.0563 91.9856 38.9384 91.9856 38.8598 91.9856C38.5848 91.907 38.3883 91.6712 38.3883 91.3962C37.2095 79.1367 41.8068 65.2269 50.9621 53.2818C51.1586 53.0461 51.4729 52.9675 51.748 53.0461C52.023 53.164 52.2195 53.439 52.1802 53.7533C51.2764 64.9519 49.076 79.4118 39.6064 91.7498C39.4885 91.907 39.292 92.0249 39.0563 92.0249V91.9856ZM50.5692 56.0324C42.9856 66.6415 39.0563 78.6259 39.5671 89.4315C47.2685 78.5866 49.5868 66.2093 50.5692 56.0324Z" fill="#212844"/>
<path d="M28.9198 127.388C28.6054 127.388 28.3304 127.192 28.2518 126.878C24.4796 113.714 24.4404 99.1759 28.1732 87.0736C28.2518 86.7985 28.5268 86.6021 28.8412 86.6021C29.1555 86.6021 29.3913 86.8378 29.4699 87.1129C32.6919 100.119 32.6919 113.871 29.5485 126.878C29.4699 127.192 29.1948 127.388 28.9198 127.388ZM28.8019 88.4881C26.0907 98.9794 26.13 111.042 28.8805 122.32C31.1988 111.2 31.1595 99.6081 28.8019 88.4881Z" fill="#212844"/>
<path d="M64.9125 256.192C64.9125 256.192 64.7947 256.192 64.7554 256.192C54.5391 253.481 45.541 249.434 38.0753 244.168C30.531 238.825 23.1439 233.481 16.3069 226.762C16.0712 226.526 16.0319 226.211 16.189 225.936C16.3462 225.661 16.6605 225.543 16.9749 225.622C35.2855 231.202 52.0244 241.379 65.4233 255.092C65.6198 255.328 65.6984 255.642 65.5412 255.917C65.4233 256.114 65.1876 256.271 64.9518 256.271L64.9125 256.192ZM19.3325 227.783C25.5015 233.52 32.0635 238.274 38.8219 243.029C45.541 247.783 53.5568 251.516 62.5942 254.149C50.3741 242.243 35.5213 233.166 19.3718 227.744L19.3325 227.783Z" fill="#212844"/>
<path d="M54.1444 236.938C53.9086 236.938 53.7122 236.82 53.5943 236.624C44.5176 222.871 38.4271 205.307 37.3662 189.668C37.3662 189.354 37.5234 189.079 37.7984 189C38.0735 188.882 38.3878 189 38.5843 189.236C48.3683 202.321 54.4587 219.885 54.8517 236.27C54.8517 236.584 54.6552 236.859 54.3801 236.938C54.3016 236.938 54.2623 236.938 54.1837 236.938H54.1444ZM38.8986 191.987C40.3132 205.975 45.6178 221.221 53.3585 233.755C52.4941 219.217 47.1895 203.932 38.8986 191.987Z" fill="#212844"/>
<path d="M26.836 202.517C26.836 202.517 26.5217 202.478 26.4038 202.36C26.0501 202.046 25.6965 201.732 25.3429 201.417C23.2603 199.57 21.1385 197.645 18.388 197.645C17.7593 197.645 17.0913 197.724 16.384 197.841C15.7946 197.92 15.2052 197.999 14.6158 198.038C13.5942 198.038 11.7081 197.92 10.6079 196.545C10.1364 195.955 9.93995 195.287 9.70419 194.619C9.50773 193.991 9.31126 193.362 8.91833 192.969C8.28964 192.38 7.22873 192.301 6.2071 192.223H5.97134C4.04598 192.105 2.86719 191.515 2.31708 190.415C1.76698 189.354 2.08132 187.9 2.98507 186.997C3.45658 186.525 4.00669 186.25 4.55679 186.054C4.12457 185.661 3.69234 185.189 3.41729 184.639C2.82789 183.578 2.67072 182.085 3.61376 181.024C4.28174 180.238 5.46053 179.924 6.63933 180.16C7.62166 180.356 8.48611 180.906 9.19338 181.338C12.2582 183.264 15.5196 185.425 18.2701 188.018C21.2564 190.808 23.3389 194.502 25.3822 198.077C26.0501 199.256 26.7181 200.435 27.4254 201.574C27.5826 201.849 27.5433 202.242 27.2682 202.439C27.1503 202.557 26.9932 202.596 26.836 202.596V202.517ZM18.2701 198.117H18.3487C20.6277 198.117 22.4745 199.177 24.1248 200.474C22.1601 197.016 20.0776 193.441 17.2878 190.808C14.6158 188.293 11.4331 186.171 8.40752 184.285C7.77883 183.892 7.03226 183.421 6.28569 183.303C5.57841 183.146 4.91043 183.303 4.55679 183.735C4.08527 184.246 4.20315 185.189 4.55679 185.778C4.98902 186.564 5.77488 187.154 6.48216 187.704C6.71791 187.861 6.7965 188.175 6.71791 188.45C6.63933 188.725 6.40357 188.922 6.12852 188.922C5.46053 188.961 4.55679 189.158 3.9281 189.747C3.41729 190.258 3.22082 191.044 3.49588 191.594C3.81022 192.223 4.67467 192.576 6.04993 192.655H6.28569C7.50378 192.733 8.87904 192.851 9.86137 193.794C10.4901 194.423 10.7651 195.248 11.0009 195.995C11.1973 196.545 11.3545 197.095 11.6689 197.488C12.4154 198.47 13.9479 198.509 14.5373 198.47C15.0874 198.47 15.6375 198.352 16.1876 198.274C16.8555 198.195 17.5628 198.077 18.3094 198.077L18.2701 198.117Z" fill="#212844"/>
<path d="M26.6396 189.746C26.3253 189.746 26.0502 189.51 25.9716 189.196C25.7752 188.292 25.6966 187.31 25.7359 186.328C25.4215 186.328 25.1465 186.131 25.0679 185.817C23.8105 181.337 23.339 174.186 23.9677 169.117C24.3606 165.817 25.1465 163.302 26.4432 161.259C28.0935 158.587 30.5689 156.858 33.2409 156.426C34.734 156.19 36.0307 156.622 36.6201 157.565C37.2488 158.587 37.0523 159.962 35.9914 161.377C35.5592 161.927 35.1269 162.477 34.6554 162.988C33.9874 163.734 33.3588 164.441 32.8872 165.227C32.0228 166.681 31.7477 168.449 32.1014 170.1C32.18 170.453 32.2978 170.807 32.3764 171.2C32.7301 172.379 33.0837 173.557 32.6515 174.815C32.3371 175.797 31.5906 176.504 30.9619 177.094L30.6082 177.447C27.9363 180.159 26.5217 185.07 27.3076 188.882C27.3862 189.235 27.1504 189.628 26.7968 189.668C26.7575 189.668 26.7182 189.668 26.6396 189.668V189.746ZM34.0267 155.954C33.8303 155.954 33.6338 155.954 33.4373 155.993C31.1976 156.347 28.9972 157.919 27.5827 160.198C26.4039 162.084 25.6966 164.402 25.3037 167.506C24.7928 171.829 25.0679 177.762 25.9716 182.084C26.4825 179.294 27.7791 176.583 29.6259 174.736L30.0188 174.343C30.6082 173.793 31.1583 173.243 31.3548 172.575C31.6299 171.75 31.3548 170.768 31.0797 169.785C30.9619 169.392 30.844 168.999 30.7654 168.607C30.3332 166.642 30.6868 164.52 31.7084 162.752C32.2585 161.809 32.9658 161.023 33.6338 160.276C34.066 159.805 34.4983 159.294 34.8912 158.783C35.1269 158.43 35.9128 157.29 35.4413 156.544C35.1662 156.111 34.5768 155.993 34.0267 155.993V155.954Z" fill="#212844"/>
<path d="M18.3889 123.458C18.0353 123.458 17.7209 123.183 17.7209 122.79C17.6423 119.843 17.4459 113.714 15.2061 110.727C15.0097 110.492 14.8132 110.217 14.6167 109.981C13.9488 109.156 13.2415 108.33 13.0057 107.191C12.8486 106.523 12.8878 105.855 12.9271 105.187C12.9271 104.244 13.0057 103.419 12.4949 102.908C12.3377 102.751 12.1413 102.633 11.9055 102.476C11.6305 102.319 11.3554 102.161 11.0804 101.886C10.098 100.943 9.94086 99.293 10.6481 97.4855C10.766 97.2105 10.8839 96.9354 11.0018 96.6604C11.3947 95.7959 11.7876 94.9315 11.7091 94.1063C11.6698 93.2812 11.1982 92.4953 10.6874 91.7094L10.3731 91.2379C9.46935 89.6662 9.23359 88.4088 9.66581 87.2693C9.98016 86.4835 10.6481 85.8941 11.5126 85.619C12.5735 85.2654 13.8702 85.3833 14.8525 85.9334C16.4635 86.8764 17.328 88.6053 17.9567 90.177C20.6286 96.9747 19.9606 105.266 19.2926 113.321L19.214 114.067C19.214 114.421 18.8997 114.735 18.4675 114.696C18.3889 114.696 18.3103 114.696 18.2317 114.617C18.7818 117.054 18.939 119.883 19.0569 122.712C19.0569 123.105 18.7818 123.419 18.3889 123.419V123.458ZM12.8486 85.6583C12.5735 85.6583 12.2592 85.6976 11.9841 85.7762C11.6305 85.8941 11.1589 86.1298 10.9625 86.6799C10.6874 87.3872 10.8839 88.2517 11.5519 89.4304L11.8269 89.902C12.377 90.8057 12.9664 91.788 13.045 92.9275C13.1236 94.1063 12.6521 95.1279 12.2199 96.1103C12.102 96.3853 11.9841 96.6211 11.8662 96.8961C11.4733 97.8785 11.2768 99.1359 11.9841 99.8038C12.1413 99.961 12.3377 100.079 12.5735 100.197C12.8486 100.354 13.1629 100.55 13.438 100.825C14.3417 101.729 14.3024 102.987 14.2631 104.087C14.2631 104.676 14.2238 105.226 14.3417 105.737C14.5382 106.523 15.0883 107.23 15.6777 107.938C15.8741 108.213 16.1099 108.448 16.3064 108.723C17.0136 109.666 17.5244 110.845 17.9174 112.142V112.024C18.5854 104.126 19.2533 95.9924 16.6993 89.509C16.1492 88.1731 15.4419 86.6799 14.1845 85.9334C13.7916 85.6976 13.3201 85.5797 12.8093 85.5797L12.8486 85.6583Z" fill="#212844"/>
<path d="M19.3318 103.814C19.3318 103.814 19.3318 103.814 19.2925 103.814C18.8996 103.814 18.6245 103.461 18.6638 103.068C19.2925 95.6412 19.9212 87.9398 19.4497 80.3955C18.9389 71.9868 17.0135 64.7175 13.7522 58.7843C13.5557 58.4699 13.7129 58.0377 14.0272 57.8412C14.3416 57.6448 14.7738 57.7626 14.9703 58.1163C18.3102 64.2067 20.2748 71.6724 20.8249 80.2776C21.2965 87.9398 20.6678 95.6805 20.0391 103.186C20.0391 103.539 19.7247 103.814 19.3711 103.814H19.3318Z" fill="#212844"/>
<path d="M42.4758 46.9163C42.4758 46.9163 42.1615 46.877 42.0043 46.7592C41.7293 46.5234 41.69 46.0912 41.965 45.8161C46.3659 40.9438 54.5781 36.3858 61.926 34.7355C68.8023 33.203 75.875 32.928 82.4763 32.8887C82.8692 32.8887 83.1443 33.203 83.1443 33.5567C83.1443 33.9496 82.8299 34.2246 82.4763 34.2246C75.9143 34.2639 68.9594 34.539 62.201 36.0321C55.0889 37.6431 47.191 42.0047 42.9474 46.6806C42.8295 46.8377 42.633 46.9163 42.4366 46.9163H42.4758Z" fill="#212844"/>
<path d="M146.642 292.538C146.642 292.538 146.406 292.538 146.288 292.46C138.311 287.666 130.806 281.89 123.576 276.35L123.341 276.193C114.932 269.709 109.156 263.619 104.637 256.428C104.48 256.192 104.519 255.878 104.676 255.642C104.873 255.406 105.148 255.328 105.423 255.406C122.869 261.379 138.508 274.896 147.231 291.556C147.388 291.831 147.31 292.146 147.113 292.381C146.995 292.499 146.799 292.578 146.642 292.578V292.538ZM106.916 257.332C111.199 263.658 116.582 269.159 124.205 275.053L124.441 275.21C130.964 280.24 137.722 285.466 144.834 289.906C136.425 275.171 122.516 263.186 106.916 257.332Z" fill="#212844"/>
<path d="M148.37 302.873C144.952 302.873 141.533 302.558 138.154 301.89C137.879 301.851 137.643 301.615 137.604 301.301C137.604 301.026 137.722 300.711 137.997 300.594C151.082 294.66 164.323 293.953 176.661 294.071C176.976 294.071 177.251 294.307 177.329 294.582C177.408 294.896 177.251 295.21 176.976 295.328C167.663 300.279 157.919 302.833 148.331 302.833L148.37 302.873ZM140.669 300.947C151.632 302.558 162.987 300.672 173.872 295.446C163.145 295.446 151.867 296.35 140.669 300.947Z" fill="#212844"/>
<path d="M102.869 280.671C102.869 280.671 102.673 280.671 102.594 280.592C96.7003 277.803 90.8456 273.284 84.6766 266.761C79.2935 261.103 75.7178 254.738 74.3032 248.451C74.2246 248.097 74.4604 247.704 74.814 247.625C75.207 247.547 75.5606 247.783 75.6392 248.136C76.9752 254.187 80.433 260.278 85.6589 265.779C91.7101 272.184 97.4469 276.585 103.184 279.335C103.537 279.492 103.655 279.885 103.498 280.239C103.38 280.475 103.144 280.632 102.869 280.632V280.671Z" fill="#212844"/>
<path d="M30.2163 68.4493C29.9412 68.4493 29.6662 68.2921 29.5876 68.0171C26.2084 59.2154 25.5011 50.0601 27.4658 40.7869C27.5444 40.5119 27.7801 40.2761 28.0552 40.2368C28.3302 40.2368 28.6053 40.3547 28.7624 40.6297C32.8096 49.0385 33.5562 59.0189 30.8843 67.9385C30.8057 68.2135 30.5306 68.41 30.2556 68.41L30.2163 68.4493ZM28.4088 42.6337C27.1121 50.2173 27.7015 57.683 30.1377 64.9129C31.8666 57.5651 31.2772 49.6279 28.4088 42.6337Z" fill="#212844"/>
<path d="M43.4973 45.8556C43.4973 45.8556 43.3794 45.8556 43.3008 45.8556C43.0257 45.777 42.8293 45.5413 42.8293 45.2662C41.7291 33.0461 46.3264 18.5076 53.9885 9.98097C54.185 9.78451 54.46 9.70592 54.6958 9.78451C54.9316 9.8631 55.128 10.0989 55.1673 10.3739C56.4247 22.2011 50.5307 37.0539 44.0474 45.6199C43.9295 45.777 43.733 45.8949 43.4973 45.8949V45.8556ZM53.9492 12.0635C47.623 19.9221 43.6544 32.4567 44.0867 43.223C49.6663 35.1286 54.4993 22.5548 53.9492 12.0635Z" fill="#212844"/>
<path d="M84.8339 45.6587C84.8339 45.6587 84.7946 45.6587 84.7553 45.6587C74.8534 44.362 67.3877 41.14 62.0045 35.7568C61.8081 35.5603 61.7295 35.246 61.8474 35.0102C61.9653 34.7352 62.201 34.578 62.5154 34.6173C70.9241 35.0888 79.2149 38.7038 85.3054 44.5192C85.5018 44.7156 85.5804 45.03 85.4626 45.305C85.3447 45.5408 85.1089 45.698 84.8339 45.698V45.6587ZM64.4014 36.1497C68.9987 40.1183 75.0106 42.7117 82.6727 44.0084C77.5253 39.7254 71.042 36.9356 64.4014 36.1497Z" fill="#212844"/>
<path d="M69.7833 20.747C69.7833 20.747 69.5476 20.747 69.4297 20.6291C69.1939 20.4719 69.0761 20.2362 69.1154 19.9611C69.9405 13.2027 73.8698 7.66235 80.5104 3.96879C80.7461 3.85091 81.0605 3.85091 81.2569 4.00808C81.4534 4.16526 81.5713 4.4796 81.4927 4.71536C79.7245 11.0416 75.5987 16.8177 70.1763 20.5505C70.0584 20.6291 69.9405 20.6684 69.7833 20.6684V20.747ZM79.6459 6.12991C74.8522 9.23407 71.7873 13.4777 70.7264 18.5465C74.7736 15.3638 77.917 10.963 79.6459 6.12991Z" fill="#212844"/>
<path d="M92.26 11.0813C91.6706 11.0813 91.0419 11.0813 90.4525 11.042C90.1775 11.042 89.9417 10.8455 89.8631 10.6098C89.7846 10.374 89.8238 10.099 90.0203 9.90249C97.9182 1.61163 108.567 -0.0779706 116.229 0.000615659C116.504 0.000615659 116.74 0.157788 116.858 0.43284C116.975 0.707892 116.858 0.982944 116.661 1.17941C109.51 7.66278 101.14 11.0813 92.26 11.0813ZM92.1029 9.50956H92.26C100.197 9.50956 107.781 6.64116 114.343 1.17941C107.584 1.37588 98.9006 3.14407 92.1029 9.50956Z" fill="#212844"/>
<path d="M79.2542 26.4059C74.6176 26.4059 70.0989 25.5022 65.6588 23.6947C65.3837 23.5768 65.2266 23.341 65.2266 23.0267C65.2266 22.7516 65.423 22.4766 65.6981 22.398C74.7355 19.5296 84.6767 19.451 93.7534 22.2015C94.0284 22.2801 94.2249 22.5552 94.2249 22.8302C94.2249 23.1053 94.0677 23.3803 93.7927 23.4982C88.881 25.4629 84.0087 26.4059 79.2542 26.4059ZM68.0557 23.1446C75.5607 25.7379 83.38 25.6986 91.3565 22.9481C83.7729 21.0227 75.6392 21.1013 68.0557 23.1446Z" fill="#212844"/>
<path d="M25.6973 79.4908C30.6482 76.8975 34.774 72.7324 37.328 67.7422C32.1413 70.3355 28.0156 74.147 25.6973 79.4908Z" fill="#212844"/>
<path d="M25.6963 80.1595C25.6963 80.1595 25.3426 80.0809 25.2248 79.963C25.0283 79.7666 24.9497 79.4522 25.0676 79.1772C27.3466 74.0298 31.3545 69.9433 37.0127 67.1142C37.2878 66.9963 37.6021 67.0356 37.7986 67.232C37.995 67.4285 38.0736 67.7428 37.9164 68.0179C35.2838 73.0867 31.0402 77.3697 25.9713 80.0416C25.8535 80.0809 25.7749 80.1202 25.657 80.1202L25.6963 80.1595ZM35.5196 69.511C31.9832 71.6722 29.2327 74.4227 27.3466 77.7233C30.6079 75.6015 33.437 72.8117 35.5196 69.511Z" fill="#212844"/>
<path d="M58.4287 28.4095C62.8295 24.598 65.8944 19.2541 66.9946 13.5566C62.3187 17.0537 58.7823 22.5941 58.4287 28.4095Z" fill="#212844"/>
<path d="M58.428 29.0772C58.428 29.0772 58.2315 29.0772 58.1136 28.9986C57.8779 28.8807 57.7207 28.6057 57.7207 28.3306C58.0743 22.5938 61.4143 16.857 66.5617 12.967C66.7974 12.8098 67.0725 12.7705 67.3475 12.967C67.5833 13.1242 67.7012 13.3992 67.6619 13.6743C66.5224 19.5683 63.3789 24.9907 58.8602 28.92C58.7423 29.0379 58.5852 29.0772 58.428 29.0772ZM65.8937 15.3639C62.4359 18.468 60.0783 22.5152 59.3317 26.641C62.4359 23.5369 64.7149 19.6075 65.8937 15.3639Z" fill="#212844"/>
<path d="M30.8823 200.041C34.8509 193.833 36.5405 186.171 35.4796 178.862C31.9432 185.306 30.0965 192.733 30.8823 200.041Z" fill="#212844"/>
<path d="M30.883 200.709C30.883 200.709 30.7652 200.709 30.7259 200.709C30.4508 200.631 30.2543 200.395 30.215 200.12C29.4685 192.969 31.0795 185.503 34.8909 178.548C35.0481 178.273 35.3232 178.155 35.5982 178.194C35.8733 178.234 36.109 178.469 36.1483 178.784C37.2092 186.21 35.4803 194.108 31.4331 200.395C31.3153 200.591 31.0795 200.709 30.8437 200.709H30.883ZM35.0088 181.22C32.4155 186.642 31.1974 192.301 31.3938 197.802C34.1051 192.772 35.4017 186.917 35.0088 181.22Z" fill="#212844"/>
<path d="M20.4321 209.314C27.5049 209.472 34.3812 213.244 38.3498 219.098C31.7486 217.212 25.5009 213.951 20.4321 209.314Z" fill="#212844"/>
<path d="M38.3493 219.766C38.3493 219.766 38.2314 219.766 38.1528 219.766C31.1587 217.763 24.8325 214.305 19.9601 209.825C19.7637 209.629 19.6851 209.314 19.8029 209.079C19.9208 208.804 20.1959 208.686 20.4316 208.646C27.7402 208.804 34.8129 212.694 38.8994 218.706C39.0566 218.941 39.0566 219.256 38.8994 219.491C38.7815 219.688 38.5458 219.766 38.3493 219.766ZM22.4356 210.14C26.4435 213.401 31.2373 216.034 36.5418 217.802C33.0054 213.597 27.858 210.808 22.4356 210.14Z" fill="#212844"/>
<path d="M59.2925 227.665C65.6973 233.205 69.2729 240.867 68.88 249.826C62.9075 243.775 60.4713 236.073 59.2925 227.665Z" fill="#212844"/>
<path d="M68.8802 250.533C68.8802 250.533 68.5265 250.454 68.4087 250.336C63.0648 244.953 60.0392 237.998 58.6247 227.782C58.5854 227.507 58.7425 227.232 58.9783 227.075C59.2141 226.957 59.5284 226.957 59.7642 227.153C66.6012 233.047 69.9804 240.906 69.5875 249.865C69.5875 250.14 69.391 250.375 69.1552 250.454C69.0766 250.454 68.9981 250.493 68.9195 250.493L68.8802 250.533ZM60.2357 229.471C61.6109 237.644 64.1257 243.499 68.2122 248.136C68.1336 240.906 65.3831 234.54 60.2357 229.471Z" fill="#212844"/>
<path d="M96.8564 260.75C102.24 263.54 106.326 268.766 107.701 274.7C102.082 271.674 98.6639 266.88 96.8564 260.75Z" fill="#212844"/>
<path d="M107.702 275.367C107.702 275.367 107.466 275.367 107.387 275.288C101.847 272.302 98.1929 267.587 96.2282 260.946C96.1496 260.671 96.2282 260.396 96.464 260.239C96.6604 260.082 96.9748 260.042 97.2105 260.16C102.79 263.029 106.995 268.412 108.409 274.542C108.488 274.817 108.409 275.092 108.173 275.249C108.055 275.328 107.898 275.406 107.741 275.406L107.702 275.367ZM98.075 262.204C99.8039 267.076 102.633 270.691 106.602 273.245C105.148 268.726 102.083 264.758 98.075 262.204Z" fill="#212844"/>
<path d="M214.384 312.498C214.581 308.097 212.694 303.657 209.433 300.75C209.551 305.229 210.966 309.669 214.384 312.498Z" fill="#212844"/>
<path d="M214.383 313.167C214.383 313.167 214.069 313.128 213.951 313.01C209.825 309.592 208.843 304.444 208.725 300.751C208.725 300.476 208.882 300.24 209.118 300.122C209.354 300.004 209.668 300.043 209.865 300.24C213.322 303.305 215.248 307.902 215.051 312.539C215.051 312.814 214.894 313.01 214.658 313.128C214.58 313.128 214.462 313.167 214.383 313.167ZM210.218 302.519C210.533 305.269 211.436 308.413 213.676 310.888C213.44 307.823 212.222 304.837 210.218 302.519Z" fill="#212844"/>
<path d="M107.467 291.634C113.95 288.412 121.534 287.469 128.607 289.04C122.123 291.359 114.225 293.048 107.467 291.634Z" fill="#212844"/>
<path d="M112.771 292.813C110.924 292.813 109.116 292.656 107.309 292.302C107.034 292.263 106.798 292.027 106.759 291.713C106.759 291.438 106.877 291.163 107.112 291.006C113.792 287.705 121.454 286.723 128.724 288.334C129.038 288.412 129.234 288.648 129.274 288.962C129.274 289.277 129.117 289.552 128.842 289.63C124.519 291.202 118.625 292.774 112.771 292.774V292.813ZM109.824 291.281C115.325 291.87 121.179 290.652 125.855 289.198C120.433 288.491 114.892 289.198 109.824 291.281Z" fill="#212844"/>
<path d="M59.5688 273.325C71.3568 270.221 84.2449 271.282 95.3649 276.311C83.6948 280.358 70.2566 279.494 59.5688 273.325Z" fill="#212844"/>
<path d="M80.5907 279.454C73.0071 279.454 65.5807 277.568 59.2545 273.914C59.0188 273.757 58.9009 273.521 58.9009 273.246C58.9009 272.971 59.1366 272.735 59.4117 272.696C71.4354 269.513 84.3235 270.613 95.64 275.722C95.8757 275.839 96.0722 276.075 96.0329 276.389C96.0329 276.665 95.8364 276.9 95.5614 277.018C90.689 278.708 85.6202 279.533 80.5514 279.533L80.5907 279.454ZM61.4156 273.56C70.9246 278.472 82.6339 279.454 93.4003 276.193C83.3019 272.028 72.0641 271.124 61.4156 273.56Z" fill="#212844"/>
</g>
<defs>
<clipPath id="clip0_79_1291">
<rect width="350.259" height="314.07" fill="white"/>
</clipPath>
</defs>
</svg>
