<svg width="233" height="71" viewBox="0 0 233 71" fill="none" xmlns="http://www.w3.org/2000/svg">
<path d="M84.4328 6.41276C84.5891 6.41276 84.7844 6.46484 85.0188 6.56901C85.2532 6.64714 85.4224 6.73828 85.5266 6.84245C83.287 8.43099 81.1907 10.2799 79.2375 12.3893C82.2584 13.2487 85.162 14.1862 87.9485 15.2018C90.761 16.1914 93.4563 17.168 96.0344 18.1315C97.9094 18.8346 99.7323 19.5117 101.503 20.1628C103.3 20.7878 105.006 21.3346 106.62 21.8034C108.235 22.2721 109.758 22.6237 111.191 22.8581C112.649 23.0924 113.99 23.1706 115.214 23.0924C116.698 23.0143 117.961 22.6628 119.003 22.0378C120.071 21.3867 120.852 20.3581 121.347 18.9518C121.191 18.4049 120.93 17.8451 120.566 17.2721C120.227 16.6732 119.967 16.1263 119.784 15.6315C119.628 15.1367 119.641 14.7331 119.823 14.4206C120.032 14.1081 120.605 13.9388 121.542 13.9128C122.219 14.0169 122.766 14.3945 123.183 15.0456C123.626 15.6706 123.873 16.4128 123.925 17.2721C123.691 18.3919 123.365 19.3424 122.948 20.1237C122.558 20.8789 122.102 21.5169 121.581 22.0378C121.06 22.5586 120.475 22.9883 119.823 23.3268C119.172 23.6393 118.495 23.9128 117.792 24.1471C116.386 24.6159 114.745 24.8503 112.87 24.8503C110.995 24.8503 108.938 24.694 106.698 24.3815C104.485 24.069 102.115 23.6393 99.5891 23.0924C97.0631 22.5195 94.4459 21.9076 91.7375 21.2565C89.0552 20.6055 86.3078 19.9414 83.4953 19.2643C80.6828 18.5612 77.8834 17.9102 75.0969 17.3112C72.7792 20.3841 70.6438 23.6393 68.6907 27.0768C66.7636 30.5143 64.8625 34.0039 62.9875 37.5456C61.7115 39.9414 60.4485 42.3242 59.1985 44.694C57.9745 47.0378 56.6854 49.3034 55.3313 51.4909C54.0032 53.6523 52.5839 55.7096 51.0735 57.6628C49.5631 59.5898 47.8964 61.3477 46.0735 62.9362C44.2766 64.5247 42.2844 65.9049 40.0969 67.0768C37.9354 68.2487 35.5266 69.1602 32.8703 69.8112C31.4641 70.1758 29.9146 70.4362 28.2219 70.5924C26.5552 70.7487 25.0058 70.8268 23.5735 70.8268C20.3443 70.8268 17.2714 70.4102 14.3547 69.5768C11.4381 68.7435 8.89899 67.5456 6.73753 65.9831C4.57607 64.4206 2.88336 62.5195 1.6594 60.2799C0.435447 58.0404 -0.111428 55.5143 0.01878 52.7018C0.122947 50.7227 0.604717 48.7044 1.46409 46.6471C2.32347 44.5638 3.61253 42.5977 5.33128 40.7487C7.07607 38.8997 9.27659 37.2331 11.9328 35.7487C14.5891 34.2383 17.7532 33.0794 21.425 32.2721C21.8677 30.3971 22.5839 28.5872 23.5735 26.8424C24.5891 25.0716 25.761 23.418 27.0891 21.8815C28.4433 20.319 29.9016 18.8997 31.4641 17.6237C33.0266 16.3477 34.6151 15.2539 36.2297 14.3424C39.7193 12.4674 43.2349 11.1393 46.7766 10.3581C50.3183 9.55078 53.8729 9.12109 57.4407 9.06901V8.79557C57.5188 7.75391 57.4537 6.77734 57.2453 5.86589C57.0631 4.95443 56.6854 4.16016 56.1125 3.48307C55.5396 2.80599 54.7453 2.27214 53.7297 1.88151C52.7141 1.46484 51.425 1.23047 49.8625 1.17839L49.9016 0.670573C50.2922 0.436198 50.6698 0.266927 51.0344 0.16276C51.425 0.0325521 51.8417 -0.0195312 52.2844 0.00651042C53.6907 0.0585937 54.8365 0.31901 55.7219 0.78776C56.6073 1.23047 57.2974 1.82943 57.7922 2.58464C58.287 3.3138 58.6125 4.16016 58.7688 5.1237C58.925 6.08724 58.9641 7.10286 58.886 8.17057C58.8599 8.32682 58.8469 8.48307 58.8469 8.63932C58.8469 8.76953 58.8339 8.91276 58.8078 9.06901C59.1724 9.06901 59.537 9.06901 59.9016 9.06901C60.2662 9.06901 60.6308 9.08203 60.9953 9.10807C63.912 9.26432 66.7896 9.60286 69.6282 10.1237C72.4667 10.6445 75.2662 11.2826 78.0266 12.0378C79.0422 10.9701 80.0709 9.96745 81.1125 9.02995C82.1802 8.09245 83.287 7.22005 84.4328 6.41276ZM60.4485 15.1628L57.5188 15.0456C56.9719 16.8424 56.1776 18.7174 55.136 20.6706C54.1203 22.6237 52.9094 24.5508 51.5032 26.4518C50.1229 28.3268 48.5995 30.1367 46.9328 31.8815C45.2922 33.6263 43.5865 35.1888 41.8157 36.569C42.7271 37.5586 43.4433 38.7044 43.9641 40.0065C44.4849 41.3086 44.7063 42.7799 44.6282 44.4206C44.524 46.4258 43.912 48.2747 42.7922 49.9674C41.6985 51.6341 40.2532 53.0664 38.4563 54.2643C36.6594 55.4622 34.5761 56.3997 32.2063 57.0768C29.8625 57.7279 27.4016 58.0534 24.8235 58.0534C23.1308 58.0534 21.5032 57.8971 19.9407 57.5846C18.3782 57.2721 16.9849 56.7643 15.761 56.0612C14.5631 55.332 13.6125 54.3945 12.9094 53.2487C12.2323 52.1029 11.9328 50.7096 12.011 49.069C12.0631 47.8971 12.4146 46.7643 13.0657 45.6706C13.7167 44.5768 14.4979 43.6523 15.4094 42.8971C15.5396 42.793 15.7349 42.7409 15.9953 42.7409C16.6724 42.7409 16.9979 42.9622 16.9719 43.4049C16.9719 43.5352 16.9328 43.6784 16.8547 43.8346C16.8026 43.9648 16.7375 44.0951 16.6594 44.2253C15.7219 44.7461 14.9667 45.4102 14.3938 46.2174C13.8209 47.0247 13.5084 47.9102 13.4563 48.8737C13.3782 50.332 13.6516 51.569 14.2766 52.5846C14.9016 53.5742 15.7479 54.3945 16.8157 55.0456C17.9094 55.6706 19.1594 56.1263 20.5657 56.4128C21.9979 56.6992 23.4693 56.8424 24.9797 56.8424C27.5058 56.8424 29.8625 56.5169 32.05 55.8659C34.2375 55.1888 36.1386 54.2773 37.7532 53.1315C39.3938 51.9857 40.6959 50.6576 41.6594 49.1471C42.6229 47.6107 43.1438 45.9831 43.2219 44.2643C43.274 42.8581 43.0657 41.5951 42.5969 40.4753C42.1282 39.3555 41.4511 38.3659 40.5657 37.5065C38.8729 38.7305 37.1802 39.7201 35.4875 40.4753C33.8209 41.2305 32.1933 41.6992 30.6047 41.8815C30.0839 41.9336 29.6021 41.9857 29.1594 42.0378C28.7427 42.0638 28.3521 42.0638 27.9875 42.0378C26.8417 42.0117 25.8261 41.8034 24.9407 41.4128C24.0813 41.0221 23.3521 40.5013 22.7532 39.8503C22.1542 39.1992 21.6985 38.457 21.386 37.6237C21.0995 36.7904 20.9823 35.9049 21.0344 34.9674C21.0344 34.6029 21.0735 34.2383 21.1516 33.8737C18.7297 34.4206 16.3469 35.2409 14.0032 36.3346C11.6854 37.4284 9.60211 38.7695 7.75316 40.3581C5.93024 41.9206 4.44586 43.7174 3.30003 45.7487C2.12815 47.7799 1.47711 49.9935 1.3469 52.3893C1.24274 54.2904 1.41201 55.9701 1.85472 57.4284C2.27138 58.8867 2.89638 60.1628 3.72972 61.2565C4.56305 62.3503 5.55263 63.2747 6.69847 64.0299C7.8443 64.7591 9.0943 65.3581 10.4485 65.8268C11.8026 66.2956 13.2089 66.6211 14.6672 66.8034C16.1516 67.0117 17.6229 67.1159 19.0813 67.1159C23.3782 67.1159 27.2974 66.4909 30.8391 65.2409C34.3808 63.9648 37.649 62.2461 40.6438 60.0846C43.6646 57.8971 46.4511 55.3451 49.0032 52.4284C51.5813 49.4857 54.0422 46.3346 56.386 42.9753C57.8443 40.8659 59.2766 38.7044 60.6828 36.4909C62.1151 34.2513 63.5474 32.0247 64.9797 29.8112C66.412 27.5716 67.8443 25.3841 69.2766 23.2487C70.7349 21.0872 72.2323 19.0169 73.7688 17.0378C71.4771 16.5951 69.2115 16.2044 66.9719 15.8659C64.7323 15.5273 62.5578 15.293 60.4485 15.1628ZM31.5032 21.3737C29.4719 22.6237 27.7141 24.1211 26.2297 25.8659C24.7714 27.6107 23.7167 29.668 23.0657 32.0378C24.0292 31.9076 24.9667 31.8164 25.8782 31.7643C26.7896 31.6862 27.6881 31.6471 28.5735 31.6471C29.6151 31.6471 30.6828 31.7253 31.7766 31.8815C32.8964 32.0378 33.9901 32.2852 35.0578 32.6237C36.1516 32.9622 37.1933 33.3919 38.1828 33.9128C39.1724 34.4076 40.0709 35.0065 40.8782 35.7096C42.7011 34.2773 44.4328 32.6628 46.0735 30.8659C47.7141 29.043 49.1854 27.194 50.4875 25.319C51.8157 23.444 52.9615 21.6081 53.925 19.8112C54.8886 18.0143 55.6047 16.4258 56.0735 15.0456C51.7766 15.0195 47.5448 15.4883 43.3782 16.4518C39.2115 17.3893 35.2532 19.0299 31.5032 21.3737ZM86.1907 23.444C84.9927 24.2253 83.8339 25.2018 82.7141 26.3737C81.6203 27.5456 80.5396 28.9648 79.4719 30.6315C78.4302 32.2721 77.4016 34.1732 76.386 36.3346C75.3703 38.4961 74.3417 40.957 73.3 43.7174C72.4146 46.0612 71.425 48.3789 70.3313 50.6706C69.2375 52.9622 67.9615 55.1107 66.5032 57.1159C65.0709 59.1211 63.4172 60.931 61.5422 62.5456C59.6672 64.1341 57.5058 65.3971 55.0578 66.3346L53.6125 66.1393C55.6438 64.9935 57.3495 63.6263 58.7297 62.0378C60.136 60.4232 61.3729 58.6263 62.4407 56.6471C63.5084 54.668 64.498 52.5326 65.4094 50.2409C66.3209 47.9492 67.3365 45.5534 68.4563 43.0534C69.3157 41.0742 70.2922 39.1211 71.386 37.194C72.5058 35.2409 73.7558 33.3789 75.136 31.6081C76.5422 29.8372 78.1047 28.1836 79.8235 26.6471C81.5683 25.1107 83.5084 23.7565 85.6438 22.5846C85.9042 22.4544 86.1386 22.3893 86.3469 22.3893C86.5813 22.3633 86.7375 22.4023 86.8157 22.5065C86.8938 22.5846 86.8808 22.7148 86.7766 22.8971C86.6985 23.0534 86.5032 23.2357 86.1907 23.444ZM94.1203 29.0299C94.4849 28.7695 94.7974 28.6133 95.0578 28.5612C95.3183 28.5091 95.5006 28.5352 95.6047 28.6393C95.7089 28.7435 95.7219 28.8997 95.6438 29.1081C95.5657 29.2904 95.3703 29.4857 95.0578 29.694C93.7558 30.5794 92.4537 31.8164 91.1516 33.4049C89.8756 34.9674 88.6516 36.7253 87.4797 38.6784C86.3339 40.6315 85.2662 42.7018 84.2766 44.8893C83.3131 47.0768 82.4797 49.2253 81.7766 51.3346C81.0995 53.418 80.5657 55.3971 80.175 57.2721C79.8105 59.1471 79.6542 60.7617 79.7063 62.1159C79.7844 63.444 80.0969 64.4466 80.6438 65.1237C81.1907 65.7747 82.024 65.944 83.1438 65.6315C83.7688 65.4492 84.3938 65.0456 85.0188 64.4206C85.6698 63.7956 86.2948 62.9362 86.8938 61.8424L87.2453 61.569C87.8703 61.4648 88.1828 61.5951 88.1828 61.9596C87.5058 63.3659 86.7636 64.4987 85.9563 65.3581C85.149 66.2174 84.1594 66.8164 82.9875 67.1549C81.7636 67.4674 80.6177 67.4935 79.55 67.2331C78.5084 66.9987 77.6099 66.569 76.8547 65.944C76.0995 65.319 75.5136 64.5378 75.0969 63.6003C74.7063 62.6367 74.537 61.6081 74.5891 60.5143C74.5891 59.0039 74.8235 57.3503 75.2922 55.5534C75.787 53.7565 76.4641 51.8945 77.3235 49.9674C78.1828 48.0404 79.2115 46.1003 80.4094 44.1471C81.6334 42.168 82.9615 40.2669 84.3938 38.444C85.8521 36.6211 87.4016 34.9023 89.0422 33.2878C90.6828 31.6732 92.3756 30.2539 94.1203 29.0299ZM22.5969 34.5768C22.5969 35.3581 22.675 36.1133 22.8313 36.8424C23.0136 37.5456 23.3261 38.1836 23.7688 38.7565C24.2115 39.3034 24.7844 39.7591 25.4875 40.1237C26.2167 40.4622 27.1282 40.6445 28.2219 40.6706C30.175 40.7487 32.1021 40.4232 34.0032 39.694C35.9302 38.9388 37.7922 37.9232 39.5891 36.6471C38.0526 35.4232 36.2297 34.5247 34.1203 33.9518C32.011 33.3789 29.8756 33.0924 27.7141 33.0924C26.0474 33.0924 24.3808 33.2487 22.7141 33.5612C22.6881 33.7174 22.662 33.8867 22.636 34.069C22.636 34.2253 22.6229 34.3945 22.5969 34.5768Z" fill="#212844"/>
<path d="M113.808 53.8737H114.941C114.732 54.2122 114.446 54.6549 114.081 55.2018C113.743 55.7227 113.079 56.6732 112.089 58.0534C111.1 59.4336 110.136 60.6576 109.198 61.7253C108.287 62.7669 107.284 63.7174 106.191 64.5768C105.097 65.4362 104.159 65.8659 103.378 65.8659C102.571 65.8659 101.816 65.3841 101.113 64.4206C100.435 63.457 100.097 62.0768 100.097 60.2799V60.0846C97.2063 63.9388 95.0058 65.8659 93.4953 65.8659C92.3235 65.8659 91.4511 65.332 90.8782 64.2643C90.2792 63.1966 89.9797 61.8685 89.9797 60.2799C89.9797 58.7956 90.3834 57.181 91.1907 55.4362C91.998 53.6654 93.0396 52.0247 94.3157 50.5143C95.5917 48.9779 96.9589 47.5716 98.4172 46.2956C99.8756 45.0195 101.308 44.0169 102.714 43.2878C104.146 42.5326 105.344 42.1549 106.308 42.1549C107.61 42.1549 108.027 43.2357 107.558 45.3971L109.589 42.3503H114.55C114.238 42.819 113.821 43.431 113.3 44.1862C112.779 44.9414 111.855 46.3607 110.527 48.444C109.198 50.5013 108.027 52.4023 107.011 54.1471C105.995 55.8919 105.071 57.6888 104.238 59.5378C103.404 61.3607 102.988 62.7148 102.988 63.6003C102.988 64.2773 103.261 64.6159 103.808 64.6159C104.277 64.6159 104.915 64.2773 105.722 63.6003C106.555 62.9232 107.35 62.1549 108.105 61.2956C108.86 60.4362 109.68 59.4206 110.566 58.2487C111.477 57.0768 112.141 56.1914 112.558 55.5924C113.001 54.9935 113.417 54.4206 113.808 53.8737ZM93.4953 64.8503C94.7714 64.8503 97.2323 62.3112 100.878 57.2331C101.633 55.3581 103.04 52.7148 105.097 49.3034C105.279 48.9128 105.488 48.4049 105.722 47.7799C105.982 47.1289 106.23 46.4388 106.464 45.7096C106.698 44.9544 106.803 44.3164 106.777 43.7956C106.777 43.2487 106.62 42.9753 106.308 42.9753C105.084 42.9753 103.678 43.8216 102.089 45.5143C100.501 47.207 99.0552 49.1992 97.7532 51.4909C96.4511 53.7565 95.3443 56.0872 94.4328 58.4831C93.5214 60.8529 93.0657 62.7018 93.0657 64.0299C93.0657 64.5768 93.2089 64.8503 93.4953 64.8503Z" fill="#212844"/>
<path d="M136.152 53.8737H137.323C137.219 54.056 137.089 54.2513 136.933 54.4596C136.803 54.668 136.646 54.9154 136.464 55.2018C136.282 55.4622 136.021 55.8398 135.683 56.3346C135.37 56.8034 134.954 57.3763 134.433 58.0534C133.938 58.7305 133.443 59.3815 132.948 60.0065C132.48 60.6315 132.024 61.2044 131.581 61.7253C130.67 62.793 129.667 63.7435 128.573 64.5768C127.48 65.4362 126.555 65.8659 125.8 65.8659C124.941 65.8659 124.172 65.3841 123.495 64.4206C122.818 63.457 122.48 62.0768 122.48 60.2799C122.48 59.707 122.636 58.9648 122.948 58.0534C118.912 63.2617 116.152 65.8659 114.667 65.8659C114.251 65.8659 113.847 65.7487 113.456 65.5143C113.066 65.2539 112.714 64.8893 112.402 64.4206C112.089 63.9518 111.842 63.3789 111.659 62.7018C111.477 61.9987 111.386 61.1914 111.386 60.2799C111.386 59.4206 111.711 58.2487 112.363 56.7643C113.014 55.2539 113.795 53.6914 114.706 52.0768C115.644 50.4362 116.581 48.8867 117.519 47.4284C118.456 45.944 119.251 44.7331 119.902 43.7956L120.878 42.3503H125.839C125.683 42.5846 125.501 42.8581 125.292 43.1706C125.084 43.4831 124.85 43.8216 124.589 44.1862C124.329 44.5508 123.964 45.0977 123.495 45.8268C123.053 46.5299 122.493 47.4023 121.816 48.444C121.139 49.4857 120.514 50.4753 119.941 51.4128C119.368 52.3503 118.821 53.2617 118.3 54.1471C117.779 55.0326 117.284 55.931 116.816 56.8424C116.373 57.7279 115.943 58.6263 115.527 59.5378C114.693 61.4128 114.277 62.7669 114.277 63.6003C114.277 64.2773 114.55 64.6159 115.097 64.6159C116.269 64.6159 119.472 61.1393 124.706 54.1862C125.123 53.3789 125.579 52.5326 126.073 51.6471C126.594 50.7617 127.154 49.8242 127.753 48.8346C128.352 47.8451 128.899 46.9596 129.394 46.1784C129.915 45.3971 130.37 44.707 130.761 44.1081L131.972 42.3503H136.933C136.777 42.5846 136.594 42.8581 136.386 43.1706C136.178 43.4831 135.93 43.8216 135.644 44.1862C135.383 44.5508 135.019 45.0977 134.55 45.8268C134.107 46.5299 133.547 47.4023 132.87 48.444C132.193 49.4857 131.568 50.4753 130.995 51.4128C130.422 52.3503 129.876 53.2617 129.355 54.1471C128.86 55.0326 128.378 55.931 127.909 56.8424C127.467 57.7279 127.037 58.6263 126.62 59.5378C125.787 61.4128 125.37 62.7669 125.37 63.6003C125.37 64.2773 125.644 64.6159 126.191 64.6159C126.425 64.6159 126.698 64.5247 127.011 64.3424C127.35 64.1602 127.701 63.9128 128.066 63.6003C128.456 63.2878 128.847 62.9362 129.238 62.5456C129.654 62.1549 130.058 61.7383 130.448 61.2956C130.813 60.8529 131.204 60.3841 131.62 59.8893C132.063 59.3945 132.506 58.8477 132.948 58.2487C133.417 57.6758 133.808 57.181 134.12 56.7643C134.433 56.3216 134.706 55.931 134.941 55.5924C135.201 55.2539 135.422 54.9544 135.605 54.694C135.787 54.4336 135.969 54.1602 136.152 53.8737ZM140.448 28.4049C139.902 30.306 139.159 31.9076 138.222 33.2096C137.31 34.5117 136.282 35.5013 135.136 36.1784C133.99 36.8555 132.766 37.2331 131.464 37.3112C130.188 37.3633 128.925 37.0898 127.675 36.4909C127.05 36.1523 126.503 35.7357 126.034 35.2409C125.566 34.7201 125.214 34.1602 124.98 33.5612C124.745 32.9622 124.641 32.3372 124.667 31.6862C124.693 31.0352 124.889 30.3841 125.253 29.7331C125.618 29.082 126.06 28.6263 126.581 28.3659C127.102 28.0794 127.623 27.9492 128.144 27.9753C128.665 27.9753 129.146 28.1055 129.589 28.3659C130.058 28.6003 130.409 28.9258 130.644 29.3424C130.904 29.7331 131.021 30.1888 130.995 30.7096C130.969 31.2305 130.735 31.7513 130.292 32.2721C130.058 32.5326 129.797 32.806 129.511 33.0924C129.225 33.3789 128.99 33.6784 128.808 33.9909C128.652 34.2773 128.6 34.5768 128.652 34.8893C128.73 35.1758 129.016 35.4622 129.511 35.7487C130.344 36.1654 131.256 36.2956 132.245 36.1393C133.235 35.957 134.198 35.5404 135.136 34.8893C136.1 34.2122 136.972 33.3268 137.753 32.2331C138.56 31.1393 139.185 29.8633 139.628 28.4049H140.448Z" fill="#212844"/>
<path d="M171.62 54.2643C170.865 55.306 170.136 56.3086 169.433 57.2721C168.73 58.2096 168.04 59.0951 167.363 59.9284C166.711 60.7357 166.034 61.5169 165.331 62.2721C164.628 63.0273 163.951 63.7044 163.3 64.3034C162.649 64.8763 162.037 65.345 161.464 65.7096C160.917 66.0742 160.475 66.2565 160.136 66.2565C159.745 66.2565 159.316 66.1914 158.847 66.0612C158.378 65.931 157.975 65.6836 157.636 65.319C157.167 64.8242 156.868 64.1992 156.738 63.444C156.607 62.6888 156.594 61.8945 156.698 61.0612C156.803 60.2279 156.998 59.3815 157.284 58.5221C157.571 57.6367 157.896 56.8164 158.261 56.0612C158.756 54.9935 159.316 53.8867 159.941 52.7409C160.592 51.569 161.243 50.4362 161.894 49.3424C162.571 48.2487 163.209 47.2331 163.808 46.2956C164.433 45.332 164.954 44.5378 165.37 43.9128L165.448 43.7565C164.459 44.1732 163.43 44.9935 162.363 46.2174C161.295 47.4154 160.214 48.8216 159.12 50.4362C158.053 52.0247 156.972 53.7044 155.878 55.4753C154.784 57.2201 153.717 58.8477 152.675 60.3581C151.659 61.8685 150.67 63.1445 149.706 64.1862C148.769 65.2279 147.896 65.8268 147.089 65.9831C146.178 66.1654 145.527 65.957 145.136 65.3581C144.771 64.7591 144.602 63.9388 144.628 62.8971C144.68 61.8555 144.902 60.6966 145.292 59.4206C145.683 58.1445 146.191 56.9206 146.816 55.7487C147.363 54.7331 147.961 53.6654 148.613 52.5456C149.264 51.3997 149.902 50.2799 150.527 49.1862C151.178 48.0924 151.803 47.0768 152.402 46.1393C153.001 45.2018 153.508 44.4206 153.925 43.7956L154.003 43.6784C153.066 43.9388 152.193 44.3685 151.386 44.9674C150.605 45.5404 149.863 46.2435 149.159 47.0768C148.456 47.9102 147.792 48.8346 147.167 49.8503C146.542 50.8659 145.943 51.9206 145.37 53.0143C144.537 54.6549 143.717 56.2435 142.909 57.7799C142.128 59.2904 141.321 60.6576 140.488 61.8815C139.784 63.0013 138.977 63.9648 138.066 64.7721C137.154 65.5794 136.1 66.0091 134.902 66.0612C133.86 65.931 133.118 65.5924 132.675 65.0456C132.232 64.4987 131.972 63.8867 131.894 63.2096C131.764 62.7148 131.764 62.181 131.894 61.6081C131.998 61.0352 132.18 60.4883 132.441 59.9674C132.701 59.4466 133.027 58.9779 133.417 58.5612C133.808 58.1445 134.211 57.8581 134.628 57.7018C135.383 57.4935 136.06 57.5065 136.659 57.7409C137.258 57.9753 137.623 58.4049 137.753 59.0299C137.857 59.6549 137.779 60.293 137.519 60.944C137.258 61.569 136.946 62.1549 136.581 62.7018C136.243 63.2487 135.917 63.7435 135.605 64.1862C135.292 64.6029 135.149 64.9154 135.175 65.1237C135.123 65.2539 135.136 65.2799 135.214 65.2018C135.318 65.0977 135.501 65.0716 135.761 65.1237C136.36 64.9154 136.946 64.5768 137.519 64.1081C138.118 63.6133 138.704 62.9232 139.277 62.0378C140.11 60.7357 140.904 59.3424 141.659 57.8581C142.415 56.3477 143.209 54.8503 144.042 53.3659C144.797 51.9857 145.553 50.6706 146.308 49.4206C147.089 48.1445 147.909 47.0247 148.769 46.0612C149.628 45.0716 150.553 44.2643 151.542 43.6393C152.532 42.9883 153.639 42.5846 154.863 42.4284L154.902 42.3503H159.863C159.784 42.4544 159.537 42.8451 159.12 43.5221C158.704 44.1732 158.17 45.0456 157.519 46.1393C156.868 47.2331 156.113 48.4961 155.253 49.9284C154.42 51.3607 153.534 52.8841 152.597 54.4987C152.102 55.332 151.594 56.2435 151.073 57.2331C150.553 58.1966 150.071 59.1471 149.628 60.0846C149.185 60.9961 148.821 61.8294 148.534 62.5846C148.248 63.3398 148.105 63.9258 148.105 64.3424C148.782 63.8477 149.55 63.0143 150.409 61.8424C151.269 60.6445 152.18 59.2904 153.144 57.7799C154.133 56.2435 155.162 54.6419 156.23 52.9753C157.297 51.3086 158.391 49.7591 159.511 48.3268C160.631 46.8685 161.751 45.6185 162.87 44.5768C164.016 43.5091 165.149 42.8451 166.269 42.5846L166.347 42.4674H171.308C171.23 42.5716 170.969 42.9622 170.527 43.6393C170.084 44.2904 169.511 45.1628 168.808 46.2565C168.131 47.3242 167.35 48.5742 166.464 50.0065C165.605 51.4128 164.706 52.9232 163.769 54.5378C163.274 55.3711 162.779 56.2565 162.284 57.194C161.816 58.1315 161.386 59.043 160.995 59.9284C160.631 60.7878 160.331 61.582 160.097 62.3112C159.863 63.0143 159.745 63.5742 159.745 63.9909C159.745 64.668 160.019 65.0065 160.566 65.0065C160.878 65.0065 161.36 64.72 162.011 64.1471C162.688 63.5742 163.469 62.806 164.355 61.8424C165.24 60.8529 166.204 59.707 167.245 58.4049C168.287 57.1029 169.355 55.7227 170.448 54.2643H171.62Z" fill="#212844"/>
<path d="M192.636 53.8737H193.808C193.6 54.2122 193.313 54.6549 192.948 55.2018C192.61 55.7227 191.933 56.6732 190.917 58.0534C189.928 59.4336 188.977 60.6576 188.066 61.7253C187.18 62.7669 186.178 63.7174 185.058 64.5768C183.964 65.4362 183.04 65.8659 182.284 65.8659C181.425 65.8659 180.657 65.3841 179.98 64.4206C179.303 63.457 178.964 62.0768 178.964 60.2799C178.964 59.707 179.12 58.9648 179.433 58.0534C175.396 63.2617 172.636 65.8659 171.152 65.8659C170.318 65.8659 169.563 65.3841 168.886 64.4206C168.209 63.457 167.87 62.0768 167.87 60.2799C167.87 59.4727 168.196 58.3008 168.847 56.7643C169.498 55.2279 170.279 53.6654 171.191 52.0768C172.128 50.4622 173.066 48.9128 174.003 47.4284C174.941 45.944 175.735 44.7331 176.386 43.7956L177.363 42.3503H182.323C182.011 42.819 181.594 43.431 181.073 44.1862C180.553 44.9414 179.628 46.3607 178.3 48.444C176.972 50.5013 175.8 52.4023 174.784 54.1471C173.769 55.8919 172.844 57.6888 172.011 59.5378C171.178 61.3607 170.761 62.7148 170.761 63.6003C170.761 64.2773 171.034 64.6159 171.581 64.6159C172.753 64.6159 175.956 61.1393 181.191 54.1862C182.024 52.5716 183.04 50.7878 184.238 48.8346C185.461 46.8555 186.464 45.2799 187.245 44.1081L188.456 42.3503H193.417C193.105 42.819 192.675 43.431 192.128 44.1862C191.607 44.9414 190.683 46.3607 189.355 48.444C188.027 50.5013 186.855 52.4023 185.839 54.1471C184.85 55.8919 183.938 57.6888 183.105 59.5378C182.271 61.3607 181.855 62.7148 181.855 63.6003C181.855 64.2773 182.128 64.6159 182.675 64.6159C183.144 64.6159 183.782 64.2773 184.589 63.6003C185.396 62.9232 186.178 62.1549 186.933 61.2956C187.688 60.4362 188.521 59.4206 189.433 58.2487C190.344 57.0768 191.008 56.1914 191.425 55.5924C191.868 54.9935 192.271 54.4206 192.636 53.8737Z" fill="#212844"/>
<path d="M201.386 58.0534C201.725 57.2461 202.089 56.4258 202.48 55.5924C202.87 54.7591 203.287 53.9258 203.73 53.0924H198.144L190.956 65.8659H186.191L199.472 42.3503H204.198L198.691 52.0768H204.277C205.24 50.2799 206.23 48.5482 207.245 46.8815C208.261 45.1888 209.159 43.6784 209.941 42.3503H214.902C214.85 42.4284 214.524 42.9492 213.925 43.9128C213.326 44.8503 212.558 46.1003 211.62 47.6628C210.683 49.2253 209.641 51.0352 208.495 53.0924C207.35 55.1237 206.204 57.2721 205.058 59.5378C204.615 60.4492 204.211 61.2435 203.847 61.9206C203.508 62.5977 203.339 63.1576 203.339 63.6003C203.339 64.2773 203.613 64.6159 204.159 64.6159C204.602 64.6159 205.136 64.3815 205.761 63.9128C206.386 63.418 207.037 62.806 207.714 62.0768C208.417 61.3477 209.12 60.5534 209.823 59.694C210.527 58.8086 211.178 57.9753 211.777 57.194C212.376 56.3867 212.883 55.6836 213.3 55.0846C213.717 54.4596 213.99 54.056 214.12 53.8737H215.292C215.24 53.9518 215.071 54.2122 214.784 54.6549C214.524 55.0716 214.146 55.6315 213.652 56.3346C213.183 57.0378 212.597 57.8581 211.894 58.7956C211.217 59.707 210.435 60.6836 209.55 61.7253C209.133 62.2201 208.665 62.7148 208.144 63.2096C207.623 63.7044 207.102 64.1471 206.581 64.5378C206.06 64.9284 205.553 65.2539 205.058 65.5143C204.563 65.7487 204.133 65.8659 203.769 65.8659C203.196 65.8659 202.649 65.6836 202.128 65.319C201.607 64.9544 201.204 64.4466 200.917 63.7956C200.657 63.1185 200.54 62.2982 200.566 61.3346C200.592 60.3711 200.865 59.2773 201.386 58.0534Z" fill="#212844"/>
<path d="M226.191 42.1549C227.284 42.1029 228.105 42.3242 228.652 42.819C229.225 43.3138 229.55 43.9779 229.628 44.8112C229.732 45.6185 229.628 46.5299 229.316 47.5456C229.003 48.5612 228.534 49.5378 227.909 50.4753C226.503 52.5586 225.006 54.5247 223.417 56.3737C221.855 58.2227 220.448 60.0195 219.198 61.7643C218.521 62.7018 218.196 63.5091 218.222 64.1862C218.248 64.8633 218.652 65.1758 219.433 65.1237C220.396 64.9674 221.451 64.4727 222.597 63.6393C223.743 62.806 224.863 61.8294 225.956 60.7096C227.076 59.5638 228.105 58.3789 229.042 57.1549C230.006 55.9049 230.774 54.8112 231.347 53.8737H232.402C231.62 54.9674 230.722 56.2174 229.706 57.6237C228.717 59.0039 227.623 60.332 226.425 61.6081C225.227 62.8581 223.925 63.9388 222.519 64.8503C221.139 65.7617 219.667 66.2695 218.105 66.3737C217.376 66.4258 216.777 66.3346 216.308 66.1003C215.839 65.8659 215.448 65.5273 215.136 65.0846C214.589 64.3034 214.355 63.4701 214.433 62.5846C214.537 61.6992 214.823 60.7878 215.292 59.8503C215.787 58.9128 216.425 57.9622 217.206 56.9987C217.988 56.0352 218.808 55.0846 219.667 54.1471C220.527 53.2096 221.36 52.3112 222.167 51.4518C223.001 50.5664 223.704 49.7331 224.277 48.9518C225.006 48.0924 225.592 47.3112 226.034 46.6081C226.477 45.8789 226.764 45.2669 226.894 44.7721C227.05 44.2773 227.024 43.9128 226.816 43.6784C226.607 43.418 226.204 43.3268 225.605 43.4049C225.006 43.5612 224.381 43.8737 223.73 44.3424C223.079 44.7852 222.402 45.332 221.698 45.9831C221.021 46.6341 220.331 47.3633 219.628 48.1706C218.925 48.9779 218.235 49.8112 217.558 50.6706C216.907 51.5299 216.269 52.3893 215.644 53.2487C215.019 54.1081 214.433 54.9023 213.886 55.6315L212.87 55.5143C213.938 53.7174 215.084 52.0117 216.308 50.3971C217.558 48.7826 218.782 47.3633 219.98 46.1393C221.178 44.9154 222.31 43.9518 223.378 43.2487C224.472 42.5195 225.409 42.1549 226.191 42.1549Z" fill="#212844"/>
</svg>
