<svg width="225" height="81" viewBox="0 0 225 81" fill="none" xmlns="http://www.w3.org/2000/svg">
<path d="M71.0156 4.19922C69.8438 4.53776 68.7109 5.03255 67.6172 5.68359C66.5234 6.30859 65.4818 7.07682 64.4922 7.98828C66.3151 9.78516 67.8385 11.8034 69.0625 14.043C70.2865 16.2565 71.1589 18.6263 71.6797 21.1523C72.2005 23.6784 72.3307 26.3086 72.0703 29.043C71.8359 31.7773 71.1719 34.5378 70.0781 37.3242C68.776 40.5534 67.0052 43.431 64.7656 45.957C62.5521 48.457 60 50.5924 57.1094 52.3633C54.2448 54.1081 51.1198 55.4622 47.7344 56.4258C44.349 57.3633 40.8594 57.8711 37.2656 57.9492C35.3125 57.9492 33.4245 57.7799 31.6016 57.4414C29.8047 57.1289 28.0208 56.7383 26.25 56.2695C25.7292 56.4779 25.1823 56.6732 24.6094 56.8555C24.0625 57.0378 23.5026 57.2201 22.9297 57.4023C22.4349 57.5326 21.7188 57.6888 20.7812 57.8711C19.8698 58.0534 18.8281 58.2227 17.6562 58.3789C16.5104 58.5352 15.2734 58.6654 13.9453 58.7695C12.6172 58.8737 11.2891 58.9258 9.96094 58.9258C8.65885 58.9258 7.40885 58.8607 6.21094 58.7305C5.01302 58.6263 3.94531 58.418 3.00781 58.1055C2.09635 57.793 1.36719 57.3633 0.820312 56.8164C0.273438 56.2956 0 55.6445 0 54.8633C0 54.2122 0.247396 53.6523 0.742188 53.1836C1.26302 52.7148 1.86198 52.3242 2.53906 52.0117C3.24219 51.6992 3.94531 51.4648 4.64844 51.3086C5.3776 51.1523 5.96354 51.0742 6.40625 51.0742H8.00781C9.59635 51.0742 11.1328 51.2044 12.6172 51.4648C14.1276 51.7253 15.599 52.0508 17.0312 52.4414C18.4635 52.832 19.8828 53.2617 21.2891 53.7305C22.6953 54.1732 24.1016 54.6029 25.5078 55.0195C28.0078 53.8997 30.1562 52.5456 31.9531 50.957C33.776 49.3424 35.4297 47.5456 36.9141 45.5664C38.3984 43.5612 39.8047 41.3867 41.1328 39.043C42.4609 36.6992 43.8672 34.2122 45.3516 31.582C46.3411 29.8372 47.4089 27.9622 48.5547 25.957C49.7266 23.9518 51.0026 21.9336 52.3828 19.9023C53.763 17.8451 55.2604 15.8398 56.875 13.8867C58.4896 11.9336 60.2604 10.1367 62.1875 8.49609C60.7292 6.7513 58.8932 5.31901 56.6797 4.19922C53.6068 2.74089 50.3516 1.88151 46.9141 1.62109C43.5026 1.36068 40.0911 1.60807 36.6797 2.36328C33.2943 3.11849 30 4.32943 26.7969 5.99609C23.6198 7.63672 20.7422 9.64193 18.1641 12.0117C15.5859 14.3555 13.3984 16.9987 11.6016 19.9414C9.80469 22.8581 8.60677 25.9831 8.00781 29.3164C7.7474 30.8008 7.59115 32.2331 7.53906 33.6133C7.51302 34.9935 7.63021 36.2956 7.89062 37.5195C8.15104 38.7435 8.58073 39.8633 9.17969 40.8789C9.77865 41.8945 10.5729 42.7669 11.5625 43.4961C13.125 44.668 14.7917 45.4232 16.5625 45.7617C18.3594 46.0742 20.1693 46.0612 21.9922 45.7227C23.8411 45.3841 25.6771 44.7591 27.5 43.8477C29.3229 42.9362 31.0547 41.8424 32.6953 40.5664C34.362 39.2643 35.8854 37.806 37.2656 36.1914C38.6719 34.5768 39.8568 32.9102 40.8203 31.1914C41.7839 29.4727 42.5 27.7409 42.9688 25.9961C43.4635 24.2513 43.6198 22.5716 43.4375 20.957C43.3594 19.7852 43.125 18.6784 42.7344 17.6367C42.3698 16.569 41.8229 15.6445 41.0938 14.8633C40.3646 14.082 39.4661 13.4701 38.3984 13.0273C37.3307 12.5846 36.0547 12.3763 34.5703 12.4023C32.7995 12.4284 31.1458 12.793 29.6094 13.4961C28.0729 14.1732 26.7057 15.0846 25.5078 16.2305C24.3099 17.3503 23.3073 18.6263 22.5 20.0586C21.6927 21.4909 21.1328 22.9492 20.8203 24.4336C20.6901 24.6419 20.612 24.8503 20.5859 25.0586C20.5859 25.2669 20.5859 25.5013 20.5859 25.7617C20.612 26.2565 20.4948 26.6341 20.2344 26.8945C19.974 27.1289 19.7135 27.2201 19.4531 27.168C19.2188 27.0898 19.0495 26.8555 18.9453 26.4648C18.8411 26.0482 18.9583 25.4492 19.2969 24.668C19.7656 22.8451 20.4818 21.1263 21.4453 19.5117C22.4089 17.8711 23.5677 16.4258 24.9219 15.1758C26.276 13.9258 27.8125 12.9362 29.5312 12.207C31.25 11.4779 33.112 11.1003 35.1172 11.0742C36.0026 11.0482 36.9792 11.1914 38.0469 11.5039C39.1406 11.8164 40.1562 12.3503 41.0938 13.1055C42.0573 13.8607 42.8776 14.8633 43.5547 16.1133C44.2578 17.3633 44.6745 18.9258 44.8047 20.8008C44.9609 22.5716 44.7526 24.4336 44.1797 26.3867C43.6328 28.3398 42.8125 30.2669 41.7188 32.168C40.625 34.069 39.3099 35.8919 37.7734 37.6367C36.237 39.3815 34.5703 40.957 32.7734 42.3633C30.9766 43.7435 29.0755 44.8893 27.0703 45.8008C25.0911 46.7122 23.099 47.2982 21.0938 47.5586C19.1146 47.793 17.1615 47.6367 15.2344 47.0898C13.3073 46.543 11.5104 45.5013 9.84375 43.9648C8.85417 43.0534 8.07292 41.9076 7.5 40.5273C6.95312 39.1471 6.57552 37.6497 6.36719 36.0352C6.1849 34.4206 6.17188 32.7669 6.32812 31.0742C6.48438 29.3815 6.79688 27.7669 7.26562 26.2305C7.96875 23.9128 8.97135 21.6732 10.2734 19.5117C11.5755 17.3503 13.099 15.332 14.8438 13.457C16.6146 11.556 18.5677 9.82422 20.7031 8.26172C22.8385 6.67318 25.0911 5.29297 27.4609 4.12109C29.8307 2.94922 32.2786 2.01172 34.8047 1.30859C37.3568 0.605469 39.9089 0.188802 42.4609 0.0585938C45.0391 -0.0976562 47.5781 0.0585938 50.0781 0.527344C52.6042 0.970052 55.0391 1.77734 57.3828 2.94922C58.5547 3.54818 59.6745 4.21224 60.7422 4.94141C61.8099 5.64453 62.7995 6.42578 63.7109 7.28516C64.8828 6.3737 66.0807 5.55339 67.3047 4.82422C68.5547 4.06901 69.8828 3.41797 71.2891 2.87109C71.3672 2.81901 71.4323 2.84505 71.4844 2.94922C71.5625 3.05339 71.6276 3.18359 71.6797 3.33984C71.6797 3.49609 71.6276 3.66536 71.5234 3.84766C71.4453 4.00391 71.276 4.12109 71.0156 4.19922ZM49.375 31.6602C48.0729 34.1602 46.6927 36.5951 45.2344 38.9648C43.776 41.3346 42.1745 43.5612 40.4297 45.6445C38.6849 47.7018 36.7578 49.5898 34.6484 51.3086C32.5651 53.0013 30.2604 54.4336 27.7344 55.6055C29.3229 56.0221 30.9375 56.3216 32.5781 56.5039C34.2188 56.6862 35.9375 56.6862 37.7344 56.5039C40.4948 56.2174 43.099 55.5273 45.5469 54.4336C48.0208 53.3398 50.3125 51.9596 52.4219 50.293C54.5312 48.6003 56.4323 46.6732 58.125 44.5117C59.8438 42.3242 61.3151 40.0326 62.5391 37.6367C63.763 35.2148 64.7135 32.7279 65.3906 30.1758C66.0938 27.6237 66.4844 25.1237 66.5625 22.6758C66.6406 20.2279 66.3802 17.8841 65.7812 15.6445C65.2083 13.3789 64.2708 11.3346 62.9688 9.51172C61.6927 10.8398 60.4688 12.3503 59.2969 14.043C58.151 15.7357 57.0182 17.5326 55.8984 19.4336C54.8047 21.3346 53.7109 23.3268 52.6172 25.4102C51.5495 27.4674 50.4688 29.5508 49.375 31.6602ZM6.875 52.4414C6.22396 52.4674 5.58594 52.5326 4.96094 52.6367C4.36198 52.7148 3.8151 52.8581 3.32031 53.0664C2.82552 53.2747 2.39583 53.5482 2.03125 53.8867C1.69271 54.2253 1.47135 54.6419 1.36719 55.1367C1.70573 55.944 2.33073 56.569 3.24219 57.0117C4.15365 57.4544 5.23438 57.7539 6.48438 57.9102C7.76042 58.0924 9.1276 58.1576 10.5859 58.1055C12.0443 58.0534 13.4766 57.9362 14.8828 57.7539C16.2891 57.5716 17.6172 57.3503 18.8672 57.0898C20.1172 56.8294 21.1458 56.582 21.9531 56.3477C22.6562 56.1133 23.3594 55.8659 24.0625 55.6055C22.7083 55.2148 21.3411 54.8242 19.9609 54.4336C18.6068 54.043 17.2266 53.6914 15.8203 53.3789C14.4141 53.0664 12.9688 52.832 11.4844 52.6758C10 52.4935 8.46354 52.4154 6.875 52.4414Z" fill="#212844"/>
<path d="M94.2578 44.4727H95.4297C94.9089 45.306 94.362 46.1263 93.7891 46.9336C93.2161 47.7409 92.4479 48.7565 91.4844 49.9805C90.5208 51.2044 89.6094 52.2721 88.75 53.1836C87.9167 54.069 87.0182 54.8372 86.0547 55.4883C85.0911 56.1393 84.2578 56.4648 83.5547 56.4648C83.2943 56.4648 83.0339 56.4388 82.7734 56.3867C82.513 56.3086 82.2005 56.1654 81.8359 55.957C81.4974 55.7487 81.1979 55.4753 80.9375 55.1367C80.7031 54.7982 80.4948 54.3164 80.3125 53.6914C80.1302 53.0664 80.0391 52.3372 80.0391 51.5039C80.0391 50.6445 80.3776 49.5638 81.0547 48.2617C81.7578 46.9596 82.6042 45.6576 83.5938 44.3555C84.5833 43.0273 85.5729 41.7513 86.5625 40.5273C87.5521 39.2773 88.3854 38.1315 89.0625 37.0898C89.7656 36.0482 90.1172 35.293 90.1172 34.8242C90.1172 34.2773 89.9219 34.0039 89.5312 34.0039C88.724 34.0039 87.6693 34.4987 86.3672 35.4883C85.0911 36.4518 83.8281 37.6237 82.5781 39.0039C81.3281 40.3841 80.1302 41.7773 78.9844 43.1836C77.8385 44.5638 76.9141 45.7357 76.2109 46.6992L75.1562 48.1836L54.8438 80.8008H50.5078L69.3359 50.7617L72.6562 44.5508L79.8828 32.9492H84.2969L84.2188 33.0664C83.3073 34.6549 81.6797 37.3242 79.3359 41.0742C83.6328 35.5273 87.2266 32.7539 90.1172 32.7539C90.9505 32.7539 91.6406 33.0143 92.1875 33.5352C92.7604 34.056 93.0469 34.8893 93.0469 36.0352C93.0469 36.9987 92.6823 38.1706 91.9531 39.5508C91.25 40.931 90.3906 42.3112 89.375 43.6914C88.3854 45.0716 87.3828 46.4258 86.3672 47.7539C85.3516 49.082 84.4922 50.332 83.7891 51.5039C83.0859 52.6497 82.7344 53.5482 82.7344 54.1992C82.7344 55.0326 83.0078 55.4492 83.5547 55.4492C84.2318 55.4492 85.0651 55.0586 86.0547 54.2773C87.0443 53.4961 88.0729 52.4674 89.1406 51.1914C90.2344 49.9154 91.1719 48.7565 91.9531 47.7148C92.7604 46.6471 93.5286 45.5664 94.2578 44.4727Z" fill="#212844"/>
<path d="M97.6562 55.4492C100.26 55.4492 104.362 51.7904 109.961 44.4727H111.172C109.948 46.0872 108.763 47.5586 107.617 48.8867C106.497 50.1888 105.312 51.4388 104.062 52.6367C102.839 53.8346 101.654 54.7721 100.508 55.4492C99.362 56.1263 98.3333 56.4648 97.4219 56.4648C96.0417 56.4648 94.8698 55.9701 93.9062 54.9805C92.9688 53.9909 92.5 52.4935 92.5 50.4883C92.5 48.7435 93.0208 46.8164 94.0625 44.707C95.1042 42.5716 96.3932 40.6315 97.9297 38.8867C99.4922 37.1419 101.224 35.6836 103.125 34.5117C105.026 33.3398 106.784 32.7539 108.398 32.7539C108.685 32.7539 108.971 32.806 109.258 32.9102C109.57 33.0143 109.883 33.1966 110.195 33.457C110.508 33.6914 110.755 34.069 110.938 34.5898C111.146 35.0846 111.25 35.7096 111.25 36.4648C111.25 38.1836 110.547 39.8372 109.141 41.4258C107.734 43.0143 106.055 44.1732 104.102 44.9023C102.148 45.6055 100.43 45.6836 98.9453 45.1367C97.1224 48.4961 96.2109 51.1003 96.2109 52.9492C96.2109 54.6159 96.6927 55.4492 97.6562 55.4492ZM108.164 33.5742C107.461 33.5742 106.172 34.7201 104.297 37.0117C102.448 39.3034 100.755 41.8294 99.2188 44.5898C100.182 44.7461 101.159 44.5898 102.148 44.1211C103.164 43.6523 104.049 43.0143 104.805 42.207C105.586 41.3737 106.276 40.4753 106.875 39.5117C107.5 38.5221 107.969 37.5716 108.281 36.6602C108.62 35.7487 108.789 34.9935 108.789 34.3945C108.789 33.8477 108.581 33.5742 108.164 33.5742Z" fill="#212844"/>
<path d="M126.562 44.4727C125.859 45.5404 125.169 46.543 124.492 47.4805C123.815 48.418 122.969 49.4596 121.953 50.6055C120.964 51.7513 120 52.7409 119.062 53.5742C118.125 54.3815 117.109 55.0716 116.016 55.6445C114.922 56.1914 113.893 56.4648 112.93 56.4648C111.549 56.4648 110.378 55.9831 109.414 55.0195C108.477 54.056 108.008 52.5846 108.008 50.6055C108.008 49.2253 108.346 47.7018 109.023 46.0352C109.674 44.3685 110.547 42.7669 111.641 41.2305C112.76 39.694 113.984 38.2878 115.312 37.0117C116.667 35.7357 118.086 34.707 119.57 33.9258C121.055 33.1445 122.435 32.7539 123.711 32.7539C123.997 32.7539 124.284 32.806 124.57 32.9102C124.857 33.0143 125.156 33.1966 125.469 33.457C125.807 33.6914 126.068 34.069 126.25 34.5898C126.458 35.0846 126.562 35.6966 126.562 36.4258C126.562 37.2591 126.263 38.1445 125.664 39.082C125.091 40.0195 124.44 40.4883 123.711 40.4883C123.346 40.4883 123.047 40.3581 122.812 40.0977C122.578 39.8372 122.461 39.4206 122.461 38.8477C122.461 38.2747 122.643 37.6628 123.008 37.0117C123.398 36.3607 123.776 35.8138 124.141 35.3711C124.531 34.9284 124.727 34.668 124.727 34.5898C124.727 34.3815 124.622 34.1602 124.414 33.9258C124.206 33.6914 123.971 33.5742 123.711 33.5742C123.086 33.5742 122.083 34.3555 120.703 35.918C119.323 37.4544 117.956 39.2773 116.602 41.3867C115.247 43.4701 114.049 45.6706 113.008 47.9883C111.992 50.306 111.484 52.1289 111.484 53.457C111.484 54.1081 111.615 54.6029 111.875 54.9414C112.161 55.2799 112.643 55.4492 113.32 55.4492C116.315 55.4492 120.326 51.7904 125.352 44.4727H126.562Z" fill="#212844"/>
<path d="M141.953 44.4727C141.25 45.5404 140.56 46.543 139.883 47.4805C139.206 48.418 138.359 49.4596 137.344 50.6055C136.354 51.7513 135.391 52.7409 134.453 53.5742C133.516 54.3815 132.5 55.0716 131.406 55.6445C130.312 56.1914 129.284 56.4648 128.32 56.4648C126.94 56.4648 125.768 55.9831 124.805 55.0195C123.867 54.056 123.398 52.5846 123.398 50.6055C123.398 49.2253 123.737 47.7018 124.414 46.0352C125.065 44.3685 125.938 42.7669 127.031 41.2305C128.151 39.694 129.375 38.2878 130.703 37.0117C132.057 35.7357 133.477 34.707 134.961 33.9258C136.445 33.1445 137.826 32.7539 139.102 32.7539C139.388 32.7539 139.674 32.806 139.961 32.9102C140.247 33.0143 140.547 33.1966 140.859 33.457C141.198 33.6914 141.458 34.069 141.641 34.5898C141.849 35.0846 141.953 35.6966 141.953 36.4258C141.953 37.2591 141.654 38.1445 141.055 39.082C140.482 40.0195 139.831 40.4883 139.102 40.4883C138.737 40.4883 138.438 40.3581 138.203 40.0977C137.969 39.8372 137.852 39.4206 137.852 38.8477C137.852 38.2747 138.034 37.6628 138.398 37.0117C138.789 36.3607 139.167 35.8138 139.531 35.3711C139.922 34.9284 140.117 34.668 140.117 34.5898C140.117 34.3815 140.013 34.1602 139.805 33.9258C139.596 33.6914 139.362 33.5742 139.102 33.5742C138.477 33.5742 137.474 34.3555 136.094 35.918C134.714 37.4544 133.346 39.2773 131.992 41.3867C130.638 43.4701 129.44 45.6706 128.398 47.9883C127.383 50.306 126.875 52.1289 126.875 53.457C126.875 54.1081 127.005 54.6029 127.266 54.9414C127.552 55.2799 128.034 55.4492 128.711 55.4492C131.706 55.4492 135.716 51.7904 140.742 44.4727H141.953Z" fill="#212844"/>
<path d="M148.789 38.2617V37.2852H161.641V38.2617H148.789Z" fill="#212844"/>
<path d="M185.273 40.0586C184.909 40.0586 184.609 39.9414 184.375 39.707C184.141 39.4466 184.023 39.0299 184.023 38.457C184.023 37.8581 184.206 37.2461 184.57 36.6211C184.961 35.9701 185.339 35.4362 185.703 35.0195C186.094 34.5768 186.289 34.3164 186.289 34.2383C186.289 34.0039 186.198 33.7695 186.016 33.5352C185.833 33.3008 185.586 33.1836 185.273 33.1836C184.779 33.1836 184.245 33.3919 183.672 33.8086C183.099 34.2253 182.513 34.7591 181.914 35.4102C181.315 36.0352 180.365 36.9857 179.062 38.2617C177.76 39.5117 176.367 40.7487 174.883 41.9727C177.07 42.1289 178.164 43.2617 178.164 45.3711C178.164 45.9961 177.865 46.9727 177.266 48.3008C176.667 49.6029 176.068 50.8529 175.469 52.0508C174.87 53.2487 174.57 54.0299 174.57 54.3945C174.57 55.0977 174.857 55.4492 175.43 55.4492C176.107 55.4492 176.94 55.0586 177.93 54.2773C178.945 53.4961 179.987 52.4674 181.055 51.1914C182.122 49.9154 183.06 48.7435 183.867 47.6758C184.674 46.6081 185.43 45.5404 186.133 44.4727H187.305C186.81 45.2539 186.25 46.0742 185.625 46.9336C185.026 47.793 184.245 48.8216 183.281 50.0195C182.344 51.2174 181.432 52.2721 180.547 53.1836C179.688 54.069 178.776 54.8372 177.812 55.4883C176.849 56.1393 176.016 56.4648 175.312 56.4648C175.078 56.4648 174.818 56.4388 174.531 56.3867C174.245 56.3346 173.919 56.2305 173.555 56.0742C173.19 55.8919 172.865 55.6706 172.578 55.4102C172.318 55.1237 172.083 54.7331 171.875 54.2383C171.693 53.7435 171.602 53.1836 171.602 52.5586C171.602 51.9076 171.94 50.918 172.617 49.5898C173.32 48.2617 174.01 47.0247 174.688 45.8789C175.365 44.707 175.703 44.0039 175.703 43.7695C175.703 43.4831 175.599 43.2487 175.391 43.0664C175.182 42.8841 174.961 42.793 174.727 42.793C173.633 42.793 172.5 43.2227 171.328 44.082L163.672 56.2695H159.102L173.672 32.832H178.789L172.305 42.5586C172.773 42.3242 173.229 42.1549 173.672 42.0508C174.167 41.556 174.844 40.8268 175.703 39.8633C176.562 38.8737 177.357 37.9883 178.086 37.207C178.815 36.4258 179.596 35.6445 180.43 34.8633C181.263 34.056 182.096 33.431 182.93 32.9883C183.763 32.5195 184.544 32.2852 185.273 32.2852C185.586 32.2852 185.885 32.3372 186.172 32.4414C186.458 32.5456 186.758 32.7279 187.07 32.9883C187.383 33.2227 187.63 33.6003 187.812 34.1211C188.021 34.6419 188.125 35.2669 188.125 35.9961C188.125 36.8034 187.839 37.6888 187.266 38.6523C186.693 39.5898 186.029 40.0586 185.273 40.0586Z" fill="#212844"/>
<path d="M208.047 37.4414L208.711 38.3398C207.435 39.4336 206.354 40.2539 205.469 40.8008C204.609 41.3216 203.841 41.6862 203.164 41.8945C202.852 41.9727 202.617 42.0378 202.461 42.0898C202.305 42.1419 202.083 42.181 201.797 42.207C201.667 42.2331 201.549 42.2461 201.445 42.2461C201.367 42.2461 201.302 42.2461 201.25 42.2461H200.156C199.922 42.819 199.661 43.3919 199.375 43.9648C199.089 44.5378 198.776 45.1237 198.438 45.7227C196.615 48.9779 194.596 51.5951 192.383 53.5742C190.221 55.5013 188.385 56.4648 186.875 56.4648C185.703 56.4648 184.831 55.931 184.258 54.8633C183.659 53.7956 183.359 52.4674 183.359 50.8789C183.359 50.1497 183.464 49.3685 183.672 48.5352C183.88 47.7018 184.18 46.8685 184.57 46.0352C184.961 45.1758 185.417 44.3294 185.938 43.4961C186.484 42.6628 187.07 41.8685 187.695 41.1133C188.607 39.9674 189.609 38.8867 190.703 37.8711C191.797 36.8555 192.891 35.9701 193.984 35.2148C195.078 34.4336 196.12 33.8216 197.109 33.3789C198.099 32.9362 198.958 32.7279 199.688 32.7539C200.182 32.7539 200.586 32.9622 200.898 33.3789C201.237 33.7695 201.458 34.3294 201.562 35.0586C201.667 35.7878 201.641 36.6732 201.484 37.7148C201.328 38.7565 201.016 39.9154 200.547 41.1914C202.526 41.1133 205.026 39.8633 208.047 37.4414ZM197.344 45.332C197.708 44.681 198.021 44.082 198.281 43.5352C198.568 42.9622 198.815 42.4414 199.023 41.9727C198.372 41.6602 197.93 41.1654 197.695 40.4883C197.461 39.7852 197.383 39.1081 197.461 38.457C197.539 37.7018 197.917 36.9206 198.594 36.1133C199.271 35.332 199.948 34.8763 200.625 34.7461C200.417 33.9648 200.104 33.5742 199.688 33.5742C198.49 33.5742 197.083 34.4206 195.469 36.1133C193.854 37.806 192.409 39.7982 191.133 42.0898C190.482 43.2357 189.87 44.3945 189.297 45.5664C188.75 46.7122 188.255 47.8841 187.812 49.082C186.901 51.5039 186.445 53.3529 186.445 54.6289C186.445 55.1758 186.589 55.4492 186.875 55.4492C188.099 55.4492 189.753 54.4727 191.836 52.5195C193.919 50.5404 195.755 48.1445 197.344 45.332Z" fill="#212844"/>
<path d="M208.398 59.707C211.628 59.8372 213.711 60.957 214.648 63.0664L213.984 63.457C213.49 62.5456 212.786 61.8294 211.875 61.3086C210.964 60.8138 209.648 60.5404 207.93 60.4883L200.859 72.2461C199.87 73.7826 198.867 75.1107 197.852 76.2305C196.836 77.3763 195.951 78.2227 195.195 78.7695C194.44 79.3424 193.698 79.7852 192.969 80.0977C192.214 80.4362 191.654 80.6315 191.289 80.6836C190.924 80.7617 190.599 80.8008 190.312 80.8008C189.062 80.8008 188.438 80.0065 188.438 78.418C188.438 76.9336 188.919 75.2669 189.883 73.418C190.846 71.5951 192.07 69.8633 193.555 68.2227C195.039 66.582 196.706 65.0586 198.555 63.6523C200.378 62.2721 202.135 61.2305 203.828 60.5273L208.906 52.3242C206.38 55.0846 204.622 56.4648 203.633 56.4648C202.461 56.4648 201.589 55.931 201.016 54.8633C200.417 53.7956 200.117 52.4674 200.117 50.8789C200.117 49.6289 200.417 48.2878 201.016 46.8555C201.589 45.3971 202.357 44.0169 203.32 42.7148C204.284 41.3867 205.365 40.1107 206.562 38.8867C207.786 37.6628 208.997 36.6081 210.195 35.7227C211.419 34.8112 212.604 34.0951 213.75 33.5742C214.922 33.0273 215.911 32.7539 216.719 32.7539C217.891 32.7539 218.372 33.7956 218.164 35.8789L219.805 32.9492H224.492L208.398 59.707ZM203.633 55.4102C204.31 55.4102 205.378 54.681 206.836 53.2227C208.294 51.7383 209.727 50.0977 211.133 48.3008L211.719 47.2461L216.953 38.0664C217.057 37.5456 217.148 37.0378 217.227 36.543C217.305 36.0221 217.357 35.5273 217.383 35.0586C217.409 34.5898 217.357 34.2253 217.227 33.9648C217.122 33.6784 216.953 33.5352 216.719 33.5352C215.495 33.5352 214.076 34.3815 212.461 36.0742C210.846 37.7669 209.375 39.7591 208.047 42.0508C206.719 44.3424 205.586 46.6732 204.648 49.043C203.711 51.4128 203.242 53.2617 203.242 54.5898C203.242 55.1367 203.372 55.4102 203.633 55.4102ZM190.078 79.8242C190.677 79.8242 191.458 79.3164 192.422 78.3008C193.385 77.3112 194.349 76.0872 195.312 74.6289C196.25 73.1966 197.161 71.7643 198.047 70.332C198.906 68.8997 199.609 67.6888 200.156 66.6992L200.977 65.1758L203.047 61.7773C200.964 62.819 198.867 64.3685 196.758 66.4258C194.622 68.4831 192.878 70.6445 191.523 72.9102C190.143 75.1758 189.453 77.1159 189.453 78.7305C189.453 79.4076 189.661 79.7721 190.078 79.8242Z" fill="#212844"/>
</svg>
