<svg width="385" height="82" viewBox="0 0 385 82" fill="none" xmlns="http://www.w3.org/2000/svg">
<path d="M92.0875 3.59863C88.4938 5.62988 85.2646 7.96061 82.4 10.5908C79.5615 13.195 76.9443 15.9684 74.5484 18.9111C72.1526 21.8278 69.913 24.8356 67.8297 27.9346C65.7724 31.0335 63.7411 34.0674 61.7359 37.0361C59.7307 39.9788 57.6734 42.7913 55.5641 45.4736C53.4547 48.1559 51.163 50.5518 48.6891 52.6611C46.2151 54.7705 43.4938 56.5153 40.525 57.8955C37.5563 59.3018 34.1969 60.2002 30.4469 60.5908C27.9469 60.8512 25.499 60.9033 23.1031 60.7471C20.7073 60.5908 18.4156 60.2002 16.2281 59.5752C14.0667 58.9502 12.0484 58.0908 10.1734 56.9971C8.29844 55.9033 6.64479 54.5622 5.2125 52.9736C3.80625 51.359 2.6474 49.484 1.73594 47.3486C0.850521 45.2132 0.290625 42.8044 0.05625 40.1221C-0.1 38.0648 0.0692708 36.0986 0.564062 34.2236C1.05885 32.3486 1.80104 30.6038 2.79063 28.9893C3.80625 27.3747 5.00417 25.9294 6.38438 24.6533C7.79063 23.3512 9.32708 22.2445 10.9937 21.333C12.6865 20.3955 14.4573 19.6794 16.3062 19.1846C18.1552 18.6637 20.0172 18.4033 21.8922 18.4033C23.5589 18.195 25.2385 18.182 26.9312 18.3643C28.65 18.5205 30.3036 18.859 31.8922 19.3799C33.5068 19.9007 35.0042 20.5778 36.3844 21.4111C37.7906 22.2445 39.0146 23.2471 40.0563 24.4189C41.0979 25.5648 41.9182 26.8669 42.5172 28.3252C43.1161 29.7835 43.4156 31.3721 43.4156 33.0908C43.3115 35.1742 42.7646 37.1012 41.775 38.8721C40.8115 40.6169 39.5484 42.1403 37.9859 43.4424C36.4495 44.7184 34.6917 45.721 32.7125 46.4502C30.7333 47.1794 28.6891 47.5439 26.5797 47.5439C25.2255 47.5179 23.8583 47.4007 22.4781 47.1924C21.0979 46.984 19.7958 46.6585 18.5719 46.2158C17.3479 45.7731 16.2411 45.1872 15.2516 44.458C14.262 43.7028 13.4937 42.7653 12.9469 41.6455C12.426 40.5518 12.1396 39.3929 12.0875 38.1689C12.0615 36.9189 12.2437 35.721 12.6344 34.5752C13.025 33.4294 13.6109 32.3747 14.3922 31.4111C15.1995 30.4476 16.176 29.6663 17.3219 29.0674C17.6604 29.1195 17.8557 29.2757 17.9078 29.5361C17.9599 29.7705 17.9859 30.0439 17.9859 30.3564C16.8922 30.9033 15.9937 31.5934 15.2906 32.4268C14.6135 33.2601 14.1187 34.1585 13.8062 35.1221C13.4937 36.0856 13.3635 37.0882 13.4156 38.1299C13.4677 39.1455 13.7021 40.096 14.1187 40.9814C14.6917 42.1012 15.4859 42.9997 16.5016 43.6768C17.5172 44.3278 18.65 44.8356 19.9 45.2002C21.15 45.5387 22.4651 45.7731 23.8453 45.9033C25.2255 46.0075 26.5536 46.0726 27.8297 46.0986C29.7828 45.9163 31.6448 45.4215 33.4156 44.6143C35.2125 43.7809 36.775 42.7132 38.1031 41.4111C39.4313 40.083 40.4469 38.5726 41.15 36.8799C41.8531 35.1611 42.1005 33.3382 41.8922 31.4111C41.7099 29.5361 41.0979 27.8695 40.0563 26.4111C39.0406 24.9268 37.7255 23.6768 36.1109 22.6611C34.4964 21.6455 32.6604 20.8773 30.6031 20.3564C28.5458 19.8096 26.3974 19.5361 24.1578 19.5361C21.788 19.5361 19.3922 19.8356 16.9703 20.4346C14.5484 21.0335 12.2437 22.0231 10.0562 23.4033C8.80625 24.2106 7.6474 25.1611 6.57969 26.2549C5.51198 27.3226 4.5875 28.5465 3.80625 29.9268C3.025 31.2809 2.41302 32.7783 1.97031 34.4189C1.5276 36.0596 1.30625 37.8564 1.30625 39.8096C1.30625 42.3356 1.73594 44.6012 2.59531 46.6064C3.48073 48.6117 4.6526 50.3825 6.11094 51.9189C7.56927 53.4294 9.26198 54.7054 11.1891 55.7471C13.1161 56.7887 15.1214 57.609 17.2047 58.208C19.288 58.807 21.3844 59.1715 23.4937 59.3018C25.6292 59.432 27.6344 59.3538 29.5094 59.0674C32.4781 58.6247 35.2255 57.8174 37.7516 56.6455C40.2776 55.4476 42.6474 53.9893 44.8609 52.2705C47.1005 50.5518 49.1969 48.6117 51.15 46.4502C53.1292 44.2887 55.0432 41.9971 56.8922 39.5752C58.7672 37.1533 60.6161 34.6533 62.4391 32.0752C64.288 29.4971 66.176 26.932 68.1031 24.3799C70.0302 21.8278 72.0354 19.3408 74.1188 16.9189C76.2021 14.471 78.4417 12.1924 80.8375 10.083C83.2594 7.97363 85.8505 6.07259 88.6109 4.37988C91.3974 2.66113 94.4313 1.24186 97.7125 0.12207C98.1292 -0.00813802 98.4286 -0.0341797 98.6109 0.0439453C98.7932 0.12207 98.8323 0.265299 98.7281 0.473633C98.624 0.655924 98.3766 0.877279 97.9859 1.1377C97.6214 1.37207 97.1005 1.59342 96.4234 1.80176C94.5745 3.46842 92.9469 5.21322 91.5406 7.03613C90.1344 8.85905 88.8583 10.7601 87.7125 12.7393C86.5927 14.6924 85.551 16.7106 84.5875 18.7939C83.65 20.8512 82.6995 22.9606 81.7359 25.1221C80.7984 27.2575 79.8089 29.4189 78.7672 31.6064C77.7516 33.7939 76.5927 35.9814 75.2906 38.1689C73.9885 40.3564 72.5042 42.5439 70.8375 44.7314C69.1969 46.9189 67.2828 49.0674 65.0953 51.1768C66.0589 50.5257 67.2177 49.5101 68.5719 48.1299C69.926 46.7236 71.4234 45.083 73.0641 43.208C74.7307 41.333 76.5276 39.2757 78.4547 37.0361C80.3818 34.7705 82.387 32.4398 84.4703 30.0439C86.5797 27.6481 88.7411 25.2262 90.9547 22.7783C93.1943 20.3304 95.4469 17.9867 97.7125 15.7471C99.9781 13.5075 102.231 11.4242 104.47 9.49707C106.736 7.56999 108.936 5.90332 111.072 4.49707C113.233 3.09082 115.304 2.02311 117.283 1.29395C119.288 0.538737 121.176 0.226237 122.947 0.356445C123.338 0.226237 123.533 0.213216 123.533 0.317383C123.559 0.421549 123.572 0.616862 123.572 0.90332C123.572 1.03353 123.494 1.1377 123.338 1.21582C123.207 1.2679 123.116 1.35905 123.064 1.48926C121.215 2.40072 119.327 3.71582 117.4 5.43457C115.473 7.12728 113.546 9.11947 111.619 11.4111C109.692 13.6768 107.778 16.1637 105.877 18.8721C103.976 21.5544 102.127 24.3278 100.33 27.1924C98.5328 30.0309 96.801 32.8955 95.1344 35.7861C93.4677 38.6507 91.9052 41.4111 90.4469 44.0674C89.0146 46.6976 87.6865 49.1455 86.4625 51.4111C85.2646 53.6768 84.2099 55.6299 83.2984 57.2705L72.8688 57.3486C74.3792 55.5778 76.0328 53.5205 77.8297 51.1768C79.6266 48.807 81.5276 46.2939 83.5328 43.6377C85.538 40.9814 87.6083 38.221 89.7438 35.3564C91.8792 32.4919 94.0276 29.6663 96.1891 26.8799C98.3505 24.0674 100.486 21.346 102.595 18.7158C104.731 16.0856 106.788 13.6768 108.767 11.4893C110.746 9.30176 112.608 7.3877 114.353 5.74707C116.124 4.10645 117.739 2.86947 119.197 2.03613C117.713 2.1403 116.059 2.75228 114.236 3.87207C112.439 4.96582 110.499 6.43717 108.416 8.28613C106.358 10.109 104.184 12.2314 101.892 14.6533C99.6005 17.0492 97.2438 19.6012 94.8219 22.3096C92.426 24.9919 89.9651 27.7523 87.4391 30.5908C84.9391 33.4294 82.426 36.2028 79.9 38.9111C77.4 41.5934 74.9 44.1455 72.4 46.5674C69.926 48.9632 67.5042 51.0726 65.1344 52.8955C62.7906 54.7184 60.512 56.1637 58.2984 57.2314C56.0849 58.3252 53.9885 58.9111 52.0094 58.9893L51.4625 58.4033C53.4417 57.8044 55.2776 56.8278 56.9703 55.4736C58.6891 54.0934 60.2906 52.4919 61.775 50.6689C63.2594 48.846 64.6266 46.8669 65.8766 44.7314C67.1526 42.596 68.3375 40.4476 69.4313 38.2861C70.525 36.0986 71.5406 33.9762 72.4781 31.9189C73.4156 29.8356 74.301 27.9606 75.1344 26.2939C76.176 24.2367 77.2307 22.2575 78.2984 20.3564C79.3661 18.4554 80.551 16.5804 81.8531 14.7314C83.1813 12.8825 84.6656 11.0465 86.3063 9.22363C87.9729 7.40072 89.9 5.52572 92.0875 3.59863Z" fill="#212844"/>
<path d="M99.1969 56.0596C101.801 56.0596 105.903 52.4007 111.502 45.083H112.713C111.489 46.6976 110.304 48.1689 109.158 49.4971C108.038 50.7992 106.853 52.0492 105.603 53.2471C104.379 54.445 103.194 55.3825 102.048 56.0596C100.903 56.7367 99.874 57.0752 98.9625 57.0752C97.5823 57.0752 96.4104 56.5804 95.4469 55.5908C94.5094 54.6012 94.0406 53.1038 94.0406 51.0986C94.0406 49.3538 94.5615 47.4268 95.6031 45.3174C96.6448 43.182 97.9339 41.2419 99.4703 39.4971C101.033 37.7523 102.765 36.2939 104.666 35.1221C106.567 33.9502 108.324 33.3643 109.939 33.3643C110.226 33.3643 110.512 33.4163 110.798 33.5205C111.111 33.6247 111.423 33.807 111.736 34.0674C112.048 34.3018 112.296 34.6794 112.478 35.2002C112.686 35.695 112.791 36.32 112.791 37.0752C112.791 38.7939 112.088 40.4476 110.681 42.0361C109.275 43.6247 107.595 44.7835 105.642 45.5127C103.689 46.2158 101.97 46.2939 100.486 45.7471C98.663 49.1064 97.7516 51.7106 97.7516 53.5596C97.7516 55.2262 98.2333 56.0596 99.1969 56.0596ZM109.705 34.1846C109.002 34.1846 107.713 35.3304 105.838 37.6221C103.989 39.9137 102.296 42.4398 100.759 45.2002C101.723 45.3564 102.699 45.2002 103.689 44.7314C104.705 44.2627 105.59 43.6247 106.345 42.8174C107.127 41.984 107.817 41.0856 108.416 40.1221C109.041 39.1325 109.509 38.182 109.822 37.2705C110.16 36.359 110.33 35.6038 110.33 35.0049C110.33 34.458 110.121 34.1846 109.705 34.1846Z" fill="#212844"/>
<path d="M128.103 45.083C127.4 46.1507 126.71 47.1533 126.033 48.0908C125.356 49.0283 124.509 50.07 123.494 51.2158C122.504 52.3617 121.541 53.3512 120.603 54.1846C119.666 54.9919 118.65 55.682 117.556 56.2549C116.463 56.8018 115.434 57.0752 114.47 57.0752C113.09 57.0752 111.918 56.5934 110.955 55.6299C110.017 54.6663 109.548 53.195 109.548 51.2158C109.548 49.8356 109.887 48.3122 110.564 46.6455C111.215 44.9788 112.088 43.3773 113.181 41.8408C114.301 40.3044 115.525 38.8981 116.853 37.6221C118.207 36.346 119.627 35.3174 121.111 34.5361C122.595 33.7549 123.976 33.3643 125.252 33.3643C125.538 33.3643 125.824 33.4163 126.111 33.5205C126.397 33.6247 126.697 33.807 127.009 34.0674C127.348 34.3018 127.608 34.6794 127.791 35.2002C127.999 35.695 128.103 36.307 128.103 37.0361C128.103 37.8695 127.804 38.7549 127.205 39.6924C126.632 40.6299 125.981 41.0986 125.252 41.0986C124.887 41.0986 124.588 40.9684 124.353 40.708C124.119 40.4476 124.002 40.0309 124.002 39.458C124.002 38.8851 124.184 38.2731 124.548 37.6221C124.939 36.971 125.317 36.4242 125.681 35.9814C126.072 35.5387 126.267 35.2783 126.267 35.2002C126.267 34.9919 126.163 34.7705 125.955 34.5361C125.746 34.3018 125.512 34.1846 125.252 34.1846C124.627 34.1846 123.624 34.9658 122.244 36.5283C120.864 38.0648 119.496 39.8877 118.142 41.9971C116.788 44.0804 115.59 46.2809 114.548 48.5986C113.533 50.9163 113.025 52.7393 113.025 54.0674C113.025 54.7184 113.155 55.2132 113.416 55.5518C113.702 55.8903 114.184 56.0596 114.861 56.0596C117.856 56.0596 121.866 52.4007 126.892 45.083H128.103Z" fill="#212844"/>
<path d="M158.142 45.083H159.314C158.793 45.9163 158.246 46.7367 157.673 47.5439C157.101 48.3512 156.332 49.3669 155.369 50.5908C154.405 51.8148 153.494 52.8825 152.634 53.7939C151.801 54.6794 150.903 55.4476 149.939 56.0986C149.002 56.7497 148.168 57.0752 147.439 57.0752C147.205 57.0752 146.944 57.0492 146.658 56.9971C146.397 56.9189 146.098 56.7757 145.759 56.5674C145.421 56.359 145.121 56.0856 144.861 55.7471C144.601 55.4085 144.379 54.9268 144.197 54.3018C144.015 53.6768 143.923 52.9476 143.923 52.1143C143.923 51.2549 144.275 50.1742 144.978 48.8721C145.681 47.57 146.528 46.2679 147.517 44.9658C148.507 43.6377 149.483 42.3617 150.447 41.1377C151.436 39.8877 152.283 38.7419 152.986 37.7002C153.689 36.6585 154.041 35.9033 154.041 35.4346C154.041 34.8877 153.832 34.6143 153.416 34.6143C152.843 34.6143 152.061 35.0179 151.072 35.8252C150.082 36.6064 149.067 37.596 148.025 38.7939C146.983 39.9658 145.824 41.3851 144.548 43.0518C143.272 44.6924 142.127 46.2028 141.111 47.583C140.121 48.9632 139.106 50.4085 138.064 51.9189C136.736 54.0023 135.616 55.6559 134.705 56.8799H130.486C130.929 56.0986 132.283 53.9632 134.548 50.4736C136.814 46.984 138.754 43.833 140.369 41.0205C141.983 38.182 142.791 36.32 142.791 35.4346C142.791 34.8877 142.621 34.6143 142.283 34.6143C141.84 34.6143 141.163 35.0049 140.252 35.7861C139.366 36.5413 138.455 37.4398 137.517 38.4814C136.58 39.5231 135.538 40.7731 134.392 42.2314C133.246 43.6637 132.296 44.8747 131.541 45.8643C130.811 46.8278 130.082 47.8044 129.353 48.7939L124.588 56.8799H120.017L123.611 51.3721L126.853 45.1611L134.002 33.5596H138.494C138.39 33.7419 138.116 34.1715 137.673 34.8486C137.257 35.5257 136.775 36.2939 136.228 37.1533C135.707 38.0127 135.343 38.6117 135.134 38.9502C134.301 40.3044 133.663 41.32 133.22 41.9971C137.517 36.2419 140.746 33.3643 142.908 33.3643C143.689 33.3643 144.34 33.6377 144.861 34.1846C145.408 34.7054 145.681 35.5257 145.681 36.6455C145.681 37.8695 144.809 40.1221 143.064 43.4033C147.726 36.7106 151.384 33.3643 154.041 33.3643C154.874 33.3643 155.564 33.6247 156.111 34.1455C156.658 34.6663 156.931 35.4997 156.931 36.6455C156.931 37.609 156.567 38.7809 155.837 40.1611C155.134 41.5413 154.275 42.9215 153.259 44.3018C152.27 45.682 151.267 47.0361 150.252 48.3643C149.236 49.6924 148.377 50.9424 147.673 52.1143C146.97 53.2601 146.619 54.1585 146.619 54.8096C146.619 55.6429 146.892 56.0596 147.439 56.0596C147.986 56.0596 148.65 55.7861 149.431 55.2393C150.239 54.6663 151.02 53.9893 151.775 53.208C152.53 52.4007 153.337 51.4632 154.197 50.3955C155.082 49.3278 155.811 48.3903 156.384 47.583C156.983 46.7497 157.569 45.9163 158.142 45.083Z" fill="#212844"/>
<path d="M180.056 38.0518L180.72 38.9502C179.444 40.0439 178.364 40.8643 177.478 41.4111C176.619 41.932 175.851 42.2965 175.173 42.5049C174.861 42.583 174.627 42.6481 174.47 42.7002C174.314 42.7523 174.093 42.7913 173.806 42.8174C173.676 42.8434 173.559 42.8564 173.455 42.8564C173.377 42.8564 173.311 42.8564 173.259 42.8564H172.166C171.931 43.4294 171.671 44.0023 171.384 44.5752C171.098 45.1481 170.785 45.734 170.447 46.333C168.624 49.5882 166.606 52.2054 164.392 54.1846C162.231 56.1117 160.395 57.0752 158.884 57.0752C157.712 57.0752 156.84 56.5413 156.267 55.4736C155.668 54.4059 155.369 53.0778 155.369 51.4893C155.369 50.7601 155.473 49.9788 155.681 49.1455C155.89 48.3122 156.189 47.4788 156.58 46.6455C156.97 45.7861 157.426 44.9398 157.947 44.1064C158.494 43.2731 159.08 42.4788 159.705 41.7236C160.616 40.5778 161.619 39.4971 162.712 38.4814C163.806 37.4658 164.9 36.5804 165.994 35.8252C167.087 35.0439 168.129 34.432 169.119 33.9893C170.108 33.5465 170.968 33.3382 171.697 33.3643C172.192 33.3643 172.595 33.5726 172.908 33.9893C173.246 34.3799 173.468 34.9398 173.572 35.6689C173.676 36.3981 173.65 37.2835 173.494 38.3252C173.337 39.3669 173.025 40.5257 172.556 41.8018C174.535 41.7236 177.035 40.4736 180.056 38.0518ZM169.353 45.9424C169.718 45.2913 170.03 44.6924 170.291 44.1455C170.577 43.5726 170.824 43.0518 171.033 42.583C170.382 42.2705 169.939 41.7757 169.705 41.0986C169.47 40.3955 169.392 39.7184 169.47 39.0674C169.548 38.3122 169.926 37.5309 170.603 36.7236C171.28 35.9424 171.957 35.4867 172.634 35.3564C172.426 34.5752 172.114 34.1846 171.697 34.1846C170.499 34.1846 169.093 35.0309 167.478 36.7236C165.864 38.4163 164.418 40.4085 163.142 42.7002C162.491 43.846 161.879 45.0049 161.306 46.1768C160.759 47.3226 160.265 48.4945 159.822 49.6924C158.91 52.1143 158.455 53.9632 158.455 55.2393C158.455 55.7861 158.598 56.0596 158.884 56.0596C160.108 56.0596 161.762 55.083 163.845 53.1299C165.929 51.1507 167.765 48.7549 169.353 45.9424Z" fill="#212844"/>
<path d="M209.041 45.083H210.212C209.666 45.9163 209.119 46.7367 208.572 47.5439C208.025 48.3512 207.27 49.3669 206.306 50.5908C205.343 51.8148 204.431 52.8825 203.572 53.7939C202.739 54.6794 201.84 55.4476 200.877 56.0986C199.913 56.7497 199.08 57.0752 198.377 57.0752C198.116 57.0752 197.856 57.0492 197.595 56.9971C197.335 56.9189 197.022 56.7757 196.658 56.5674C196.319 56.359 196.02 56.0856 195.759 55.7471C195.525 55.4085 195.317 54.9268 195.134 54.3018C194.952 53.6768 194.861 52.9476 194.861 52.1143C194.861 51.2549 195.199 50.1742 195.877 48.8721C196.58 47.57 197.426 46.2679 198.416 44.9658C199.405 43.6377 200.395 42.3617 201.384 41.1377C202.374 39.8877 203.207 38.7419 203.884 37.7002C204.587 36.6585 204.939 35.9033 204.939 35.4346C204.939 34.8877 204.744 34.6143 204.353 34.6143C203.546 34.6143 202.491 35.109 201.189 36.0986C199.913 37.0622 198.65 38.234 197.4 39.6143C196.15 40.9945 194.952 42.3877 193.806 43.7939C192.66 45.1742 191.736 46.346 191.033 47.3096L189.978 48.7939L185.212 56.8799H180.642L184.236 51.3721L187.478 45.1611L194.627 33.5596H199.119C199.015 33.7419 198.741 34.1715 198.298 34.8486C197.882 35.5257 197.4 36.2939 196.853 37.1533C196.332 38.0127 195.968 38.6117 195.759 38.9502C194.744 40.5908 193.936 41.8669 193.337 42.7783C197.999 36.5023 201.866 33.3643 204.939 33.3643C205.772 33.3643 206.462 33.6247 207.009 34.1455C207.582 34.6663 207.869 35.4997 207.869 36.6455C207.869 37.609 207.504 38.7809 206.775 40.1611C206.072 41.5413 205.212 42.9215 204.197 44.3018C203.207 45.682 202.205 47.0361 201.189 48.3643C200.173 49.6924 199.314 50.9424 198.611 52.1143C197.908 53.2601 197.556 54.1585 197.556 54.8096C197.556 55.6429 197.83 56.0596 198.377 56.0596C198.923 56.0596 199.587 55.7861 200.369 55.2393C201.15 54.6663 201.918 53.9893 202.673 53.208C203.455 52.4007 204.275 51.4632 205.134 50.3955C205.994 49.3278 206.723 48.3903 207.322 47.583C207.921 46.7497 208.494 45.9163 209.041 45.083Z" fill="#212844"/>
<path d="M230.564 45.083H231.736C231.215 45.9163 230.668 46.7367 230.095 47.5439C229.522 48.3512 228.754 49.3669 227.791 50.5908C226.827 51.8148 225.916 52.8825 225.056 53.7939C224.223 54.6794 223.324 55.4476 222.361 56.0986C221.397 56.7497 220.564 57.0752 219.861 57.0752C219.601 57.0752 219.34 57.0492 219.08 56.9971C218.819 56.9189 218.507 56.7757 218.142 56.5674C217.804 56.359 217.504 56.0856 217.244 55.7471C217.009 55.4085 216.801 54.9268 216.619 54.3018C216.436 53.6768 216.345 52.9476 216.345 52.1143C216.345 51.2549 216.684 50.1742 217.361 48.8721C218.064 47.57 218.91 46.2679 219.9 44.9658C220.89 43.6377 221.879 42.3617 222.869 41.1377C223.858 39.8877 224.692 38.7419 225.369 37.7002C226.072 36.6585 226.423 35.9033 226.423 35.4346C226.423 34.8877 226.228 34.6143 225.837 34.6143C225.03 34.6143 223.976 35.109 222.673 36.0986C221.397 37.0622 220.134 38.234 218.884 39.6143C217.634 40.9945 216.436 42.3877 215.291 43.7939C214.145 45.1742 213.22 46.346 212.517 47.3096L211.462 48.7939L191.15 81.4111H186.814L205.642 51.3721L208.962 45.1611L216.189 33.5596H220.603L220.525 33.6768C219.614 35.2653 217.986 37.9346 215.642 41.6846C219.939 36.1377 223.533 33.3643 226.423 33.3643C227.257 33.3643 227.947 33.6247 228.494 34.1455C229.067 34.6663 229.353 35.4997 229.353 36.6455C229.353 37.609 228.989 38.7809 228.259 40.1611C227.556 41.5413 226.697 42.9215 225.681 44.3018C224.692 45.682 223.689 47.0361 222.673 48.3643C221.658 49.6924 220.798 50.9424 220.095 52.1143C219.392 53.2601 219.041 54.1585 219.041 54.8096C219.041 55.6429 219.314 56.0596 219.861 56.0596C220.538 56.0596 221.371 55.6689 222.361 54.8877C223.351 54.1064 224.379 53.0778 225.447 51.8018C226.541 50.5257 227.478 49.3669 228.259 48.3252C229.067 47.2575 229.835 46.1768 230.564 45.083Z" fill="#212844"/>
<path d="M252.4 38.0518L253.064 38.9502C251.788 40.0439 250.707 40.8643 249.822 41.4111C248.962 41.932 248.194 42.2965 247.517 42.5049C247.205 42.583 246.97 42.6481 246.814 42.7002C246.658 42.7523 246.436 42.7913 246.15 42.8174C246.02 42.8434 245.903 42.8564 245.798 42.8564C245.72 42.8564 245.655 42.8564 245.603 42.8564H244.509C244.275 43.4294 244.015 44.0023 243.728 44.5752C243.442 45.1481 243.129 45.734 242.791 46.333C240.968 49.5882 238.949 52.2054 236.736 54.1846C234.574 56.1117 232.739 57.0752 231.228 57.0752C230.056 57.0752 229.184 56.5413 228.611 55.4736C228.012 54.4059 227.712 53.0778 227.712 51.4893C227.712 50.7601 227.817 49.9788 228.025 49.1455C228.233 48.3122 228.533 47.4788 228.923 46.6455C229.314 45.7861 229.77 44.9398 230.291 44.1064C230.837 43.2731 231.423 42.4788 232.048 41.7236C232.96 40.5778 233.962 39.4971 235.056 38.4814C236.15 37.4658 237.244 36.5804 238.337 35.8252C239.431 35.0439 240.473 34.432 241.462 33.9893C242.452 33.5465 243.311 33.3382 244.041 33.3643C244.535 33.3643 244.939 33.5726 245.252 33.9893C245.59 34.3799 245.811 34.9398 245.916 35.6689C246.02 36.3981 245.994 37.2835 245.837 38.3252C245.681 39.3669 245.369 40.5257 244.9 41.8018C246.879 41.7236 249.379 40.4736 252.4 38.0518ZM241.697 45.9424C242.061 45.2913 242.374 44.6924 242.634 44.1455C242.921 43.5726 243.168 43.0518 243.377 42.583C242.726 42.2705 242.283 41.7757 242.048 41.0986C241.814 40.3955 241.736 39.7184 241.814 39.0674C241.892 38.3122 242.27 37.5309 242.947 36.7236C243.624 35.9424 244.301 35.4867 244.978 35.3564C244.77 34.5752 244.457 34.1846 244.041 34.1846C242.843 34.1846 241.436 35.0309 239.822 36.7236C238.207 38.4163 236.762 40.4085 235.486 42.7002C234.835 43.846 234.223 45.0049 233.65 46.1768C233.103 47.3226 232.608 48.4945 232.166 49.6924C231.254 52.1143 230.798 53.9632 230.798 55.2393C230.798 55.7861 230.942 56.0596 231.228 56.0596C232.452 56.0596 234.106 55.083 236.189 53.1299C238.272 51.1507 240.108 48.7549 241.697 45.9424Z" fill="#212844"/>
<path d="M257.4 34.7314C258.702 33.82 259.861 33.3643 260.877 33.3643C261.371 33.3643 261.775 33.5726 262.087 33.9893C262.426 34.3799 262.634 34.9398 262.712 35.6689C262.817 36.3981 262.791 37.2835 262.634 38.3252C262.478 39.3669 262.179 40.5257 261.736 41.8018C263.715 41.7236 266.215 40.4736 269.236 38.0518L269.9 38.9502C267.843 40.5387 266.176 41.5934 264.9 42.1143C263.676 42.609 262.53 42.8564 261.462 42.8564H261.306C261.098 43.4294 260.851 44.0023 260.564 44.5752C260.278 45.1481 259.952 45.734 259.587 46.333C257.765 49.5882 255.746 52.2054 253.533 54.1846C251.371 56.1117 249.548 57.0752 248.064 57.0752C246.892 57.0752 246.02 56.5413 245.447 55.4736C244.848 54.4059 244.548 53.0908 244.548 51.5283C244.548 49.5492 245.199 47.4007 246.502 45.083C247.804 42.8174 248.962 40.7731 249.978 38.9502C250.994 37.1012 251.931 35.4085 252.791 33.8721C253.676 32.3356 254.509 30.9033 255.291 29.5752C256.098 28.221 256.918 26.9059 257.752 25.6299C258.871 23.9111 260.043 22.2575 261.267 20.6689C262.491 19.0544 263.728 17.6351 264.978 16.4111C266.254 15.1872 267.504 14.2497 268.728 13.5986C269.952 12.9215 271.124 12.6611 272.244 12.8174C273.103 12.9476 273.637 13.4424 273.845 14.3018C274.054 15.1611 274.028 16.1507 273.767 17.2705C273.559 18.1038 273.168 19.0413 272.595 20.083C272.048 21.0986 271.358 22.1663 270.525 23.2861C269.692 24.4059 268.741 25.5257 267.673 26.6455C266.632 27.7653 265.538 28.846 264.392 29.8877C263.246 30.9033 262.074 31.8278 260.877 32.6611C259.679 33.4945 258.52 34.1846 257.4 34.7314ZM258.494 45.9424C258.832 45.3434 259.145 44.7705 259.431 44.2236C259.718 43.6507 259.965 43.1038 260.173 42.583C259.548 42.2705 259.119 41.7757 258.884 41.0986C258.65 40.3955 258.572 39.7184 258.65 39.0674C258.728 38.3122 259.106 37.5309 259.783 36.7236C260.408 35.9424 261.085 35.4867 261.814 35.3564C261.606 34.5752 261.28 34.1846 260.837 34.1846C260.603 34.1846 260.291 34.2627 259.9 34.4189C259.535 34.5752 259.132 34.7965 258.689 35.083C258.246 35.3434 257.778 35.6559 257.283 36.0205C256.814 36.3851 256.358 36.7757 255.916 37.1924C255.785 37.4528 255.59 37.7783 255.33 38.1689C255.095 38.5596 254.809 39.0283 254.47 39.5752C254.132 40.096 253.832 40.5518 253.572 40.9424C253.337 41.333 253.155 41.6325 253.025 41.8408C252.739 42.3096 252.426 42.8174 252.087 43.3643C251.749 43.9111 251.384 44.484 250.994 45.083C250.473 46.0986 250.004 47.1012 249.587 48.0908C249.197 49.0544 248.845 49.9788 248.533 50.8643C248.246 51.7236 248.025 52.5309 247.869 53.2861C247.712 54.0413 247.634 54.6924 247.634 55.2393C247.634 55.7861 247.778 56.0596 248.064 56.0596C249.262 56.0596 250.903 55.083 252.986 53.1299C255.121 51.1507 256.957 48.7549 258.494 45.9424ZM256.853 34.1064C258.129 33.2992 259.431 32.3617 260.759 31.2939C262.087 30.2262 263.364 29.0934 264.587 27.8955C265.837 26.6976 266.983 25.4606 268.025 24.1846C269.067 22.8825 269.913 21.6064 270.564 20.3564C271.241 19.0804 271.697 17.8434 271.931 16.6455C272.166 15.4476 272.087 14.3408 271.697 13.3252C271.072 13.1689 270.421 13.3122 269.744 13.7549C269.067 14.1976 268.377 14.8486 267.673 15.708C266.996 16.5413 266.306 17.5179 265.603 18.6377C264.926 19.7314 264.262 20.8512 263.611 21.9971C262.986 23.1429 262.387 24.2497 261.814 25.3174C261.267 26.359 260.772 27.2445 260.33 27.9736C259.679 29.1455 259.067 30.2132 258.494 31.1768C257.921 32.1143 257.374 33.0908 256.853 34.1064Z" fill="#212844"/>
<path d="M267.087 56.0596C269.692 56.0596 273.793 52.4007 279.392 45.083H280.603C279.379 46.6976 278.194 48.1689 277.048 49.4971C275.929 50.7992 274.744 52.0492 273.494 53.2471C272.27 54.445 271.085 55.3825 269.939 56.0596C268.793 56.7367 267.765 57.0752 266.853 57.0752C265.473 57.0752 264.301 56.5804 263.337 55.5908C262.4 54.6012 261.931 53.1038 261.931 51.0986C261.931 49.3538 262.452 47.4268 263.494 45.3174C264.535 43.182 265.824 41.2419 267.361 39.4971C268.923 37.7523 270.655 36.2939 272.556 35.1221C274.457 33.9502 276.215 33.3643 277.83 33.3643C278.116 33.3643 278.403 33.4163 278.689 33.5205C279.002 33.6247 279.314 33.807 279.627 34.0674C279.939 34.3018 280.186 34.6794 280.369 35.2002C280.577 35.695 280.681 36.32 280.681 37.0752C280.681 38.7939 279.978 40.4476 278.572 42.0361C277.166 43.6247 275.486 44.7835 273.533 45.5127C271.58 46.2158 269.861 46.2939 268.377 45.7471C266.554 49.1064 265.642 51.7106 265.642 53.5596C265.642 55.2262 266.124 56.0596 267.087 56.0596ZM277.595 34.1846C276.892 34.1846 275.603 35.3304 273.728 37.6221C271.879 39.9137 270.186 42.4398 268.65 45.2002C269.614 45.3564 270.59 45.2002 271.58 44.7314C272.595 44.2627 273.481 43.6247 274.236 42.8174C275.017 41.984 275.707 41.0856 276.306 40.1221C276.931 39.1325 277.4 38.182 277.712 37.2705C278.051 36.359 278.22 35.6038 278.22 35.0049C278.22 34.458 278.012 34.1846 277.595 34.1846Z" fill="#212844"/>
<path d="M285.642 60.3174C288.871 60.4476 290.955 61.5674 291.892 63.6768L291.228 64.0674C290.733 63.1559 290.03 62.4398 289.119 61.9189C288.207 61.4242 286.892 61.1507 285.173 61.0986L278.103 72.8564C277.114 74.3929 276.111 75.721 275.095 76.8408C274.08 77.9867 273.194 78.833 272.439 79.3799C271.684 79.9528 270.942 80.3955 270.212 80.708C269.457 81.0465 268.897 81.2419 268.533 81.2939C268.168 81.3721 267.843 81.4111 267.556 81.4111C266.306 81.4111 265.681 80.6169 265.681 79.0283C265.681 77.5439 266.163 75.8773 267.127 74.0283C268.09 72.2054 269.314 70.4736 270.798 68.833C272.283 67.1924 273.949 65.6689 275.798 64.2627C277.621 62.8825 279.379 61.8408 281.072 61.1377L286.15 52.9346C283.624 55.695 281.866 57.0752 280.877 57.0752C279.705 57.0752 278.832 56.5413 278.259 55.4736C277.66 54.4059 277.361 53.0778 277.361 51.4893C277.361 50.2393 277.66 48.8981 278.259 47.4658C278.832 46.0075 279.601 44.6273 280.564 43.3252C281.528 41.9971 282.608 40.721 283.806 39.4971C285.03 38.2731 286.241 37.2184 287.439 36.333C288.663 35.4215 289.848 34.7054 290.994 34.1846C292.166 33.6377 293.155 33.3643 293.962 33.3643C295.134 33.3643 295.616 34.4059 295.408 36.4893L297.048 33.5596H301.736L285.642 60.3174ZM280.877 56.0205C281.554 56.0205 282.621 55.2913 284.08 53.833C285.538 52.3486 286.97 50.708 288.377 48.9111L288.962 47.8564L294.197 38.6768C294.301 38.1559 294.392 37.6481 294.47 37.1533C294.548 36.6325 294.601 36.1377 294.627 35.6689C294.653 35.2002 294.601 34.8356 294.47 34.5752C294.366 34.2887 294.197 34.1455 293.962 34.1455C292.739 34.1455 291.319 34.9919 289.705 36.6846C288.09 38.3773 286.619 40.3695 285.291 42.6611C283.962 44.9528 282.83 47.2835 281.892 49.6533C280.955 52.0231 280.486 53.8721 280.486 55.2002C280.486 55.7471 280.616 56.0205 280.877 56.0205ZM267.322 80.4346C267.921 80.4346 268.702 79.9268 269.666 78.9111C270.629 77.9215 271.593 76.6976 272.556 75.2393C273.494 73.807 274.405 72.3747 275.291 70.9424C276.15 69.5101 276.853 68.2992 277.4 67.3096L278.22 65.7861L280.291 62.3877C278.207 63.4294 276.111 64.9788 274.002 67.0361C271.866 69.0934 270.121 71.2549 268.767 73.5205C267.387 75.7861 266.697 77.7262 266.697 79.3408C266.697 80.0179 266.905 80.3825 267.322 80.4346Z" fill="#212844"/>
<path d="M302.556 56.0596C305.16 56.0596 309.262 52.4007 314.861 45.083H316.072C314.848 46.6976 313.663 48.1689 312.517 49.4971C311.397 50.7992 310.212 52.0492 308.962 53.2471C307.739 54.445 306.554 55.3825 305.408 56.0596C304.262 56.7367 303.233 57.0752 302.322 57.0752C300.942 57.0752 299.77 56.5804 298.806 55.5908C297.869 54.6012 297.4 53.1038 297.4 51.0986C297.4 49.3538 297.921 47.4268 298.962 45.3174C300.004 43.182 301.293 41.2419 302.83 39.4971C304.392 37.7523 306.124 36.2939 308.025 35.1221C309.926 33.9502 311.684 33.3643 313.298 33.3643C313.585 33.3643 313.871 33.4163 314.158 33.5205C314.47 33.6247 314.783 33.807 315.095 34.0674C315.408 34.3018 315.655 34.6794 315.837 35.2002C316.046 35.695 316.15 36.32 316.15 37.0752C316.15 38.7939 315.447 40.4476 314.041 42.0361C312.634 43.6247 310.955 44.7835 309.002 45.5127C307.048 46.2158 305.33 46.2939 303.845 45.7471C302.022 49.1064 301.111 51.7106 301.111 53.5596C301.111 55.2262 301.593 56.0596 302.556 56.0596ZM313.064 34.1846C312.361 34.1846 311.072 35.3304 309.197 37.6221C307.348 39.9137 305.655 42.4398 304.119 45.2002C305.082 45.3564 306.059 45.2002 307.048 44.7314C308.064 44.2627 308.949 43.6247 309.705 42.8174C310.486 41.984 311.176 41.0856 311.775 40.1221C312.4 39.1325 312.869 38.182 313.181 37.2705C313.52 36.359 313.689 35.6038 313.689 35.0049C313.689 34.458 313.481 34.1846 313.064 34.1846Z" fill="#212844"/>
<path d="M323.65 49.2627C323.989 48.4554 324.353 47.6351 324.744 46.8018C325.134 45.9684 325.551 45.1351 325.994 44.3018H320.408L313.22 57.0752H308.455L321.736 33.5596H326.462L320.955 43.2861H326.541C327.504 41.4893 328.494 39.7575 329.509 38.0908C330.525 36.3981 331.423 34.8877 332.205 33.5596H337.166C337.114 33.6377 336.788 34.1585 336.189 35.1221C335.59 36.0596 334.822 37.3096 333.884 38.8721C332.947 40.4346 331.905 42.2445 330.759 44.3018C329.614 46.333 328.468 48.4814 327.322 50.7471C326.879 51.6585 326.476 52.4528 326.111 53.1299C325.772 53.807 325.603 54.3669 325.603 54.8096C325.603 55.4867 325.877 55.8252 326.423 55.8252C326.866 55.8252 327.4 55.5908 328.025 55.1221C328.65 54.6273 329.301 54.0153 329.978 53.2861C330.681 52.557 331.384 51.7627 332.087 50.9033C332.791 50.0179 333.442 49.1846 334.041 48.4033C334.64 47.596 335.147 46.8929 335.564 46.2939C335.981 45.6689 336.254 45.2653 336.384 45.083H337.556C337.504 45.1611 337.335 45.4215 337.048 45.8643C336.788 46.2809 336.41 46.8408 335.916 47.5439C335.447 48.2471 334.861 49.0674 334.158 50.0049C333.481 50.9163 332.699 51.8929 331.814 52.9346C331.397 53.4294 330.929 53.9242 330.408 54.4189C329.887 54.9137 329.366 55.3564 328.845 55.7471C328.324 56.1377 327.817 56.4632 327.322 56.7236C326.827 56.958 326.397 57.0752 326.033 57.0752C325.46 57.0752 324.913 56.8929 324.392 56.5283C323.871 56.1637 323.468 55.6559 323.181 55.0049C322.921 54.3278 322.804 53.5075 322.83 52.5439C322.856 51.5804 323.129 50.4867 323.65 49.2627Z" fill="#212844"/>
<path d="M358.103 45.083H359.275C359.067 45.4215 358.78 45.8643 358.416 46.4111C358.077 46.932 357.4 47.8825 356.384 49.2627C355.395 50.6429 354.444 51.8669 353.533 52.9346C352.647 53.9762 351.645 54.9268 350.525 55.7861C349.431 56.6455 348.507 57.0752 347.752 57.0752C346.892 57.0752 346.124 56.5934 345.447 55.6299C344.77 54.6663 344.431 53.2861 344.431 51.4893C344.431 50.9163 344.587 50.1742 344.9 49.2627C340.864 54.471 338.103 57.0752 336.619 57.0752C335.785 57.0752 335.03 56.5934 334.353 55.6299C333.676 54.6663 333.337 53.2861 333.337 51.4893C333.337 50.682 333.663 49.5101 334.314 47.9736C334.965 46.4372 335.746 44.8747 336.658 43.2861C337.595 41.6715 338.533 40.1221 339.47 38.6377C340.408 37.1533 341.202 35.9424 341.853 35.0049L342.83 33.5596H347.791C347.478 34.0283 347.061 34.6403 346.541 35.3955C346.02 36.1507 345.095 37.57 343.767 39.6533C342.439 41.7106 341.267 43.6117 340.252 45.3564C339.236 47.1012 338.311 48.8981 337.478 50.7471C336.645 52.57 336.228 53.9242 336.228 54.8096C336.228 55.4867 336.502 55.8252 337.048 55.8252C338.22 55.8252 341.423 52.3486 346.658 45.3955C347.491 43.7809 348.507 41.9971 349.705 40.0439C350.929 38.0648 351.931 36.4893 352.712 35.3174L353.923 33.5596H358.884C358.572 34.0283 358.142 34.6403 357.595 35.3955C357.074 36.1507 356.15 37.57 354.822 39.6533C353.494 41.7106 352.322 43.6117 351.306 45.3564C350.317 47.1012 349.405 48.8981 348.572 50.7471C347.739 52.57 347.322 53.9242 347.322 54.8096C347.322 55.4867 347.595 55.8252 348.142 55.8252C348.611 55.8252 349.249 55.4867 350.056 54.8096C350.864 54.1325 351.645 53.3643 352.4 52.5049C353.155 51.6455 353.989 50.6299 354.9 49.458C355.811 48.2861 356.476 47.4007 356.892 46.8018C357.335 46.2028 357.739 45.6299 358.103 45.083Z" fill="#212844"/>
<path d="M384.236 45.083C383.481 46.1247 382.752 47.1273 382.048 48.0908C381.345 49.0283 380.655 49.9137 379.978 50.7471C379.327 51.5544 378.65 52.3356 377.947 53.0908C377.244 53.846 376.567 54.5231 375.916 55.1221C375.265 55.695 374.653 56.1637 374.08 56.5283C373.533 56.8929 373.09 57.0752 372.752 57.0752C372.335 57.0752 371.892 57.0101 371.423 56.8799C370.955 56.7236 370.538 56.4372 370.173 56.0205C369.835 55.6038 369.587 55.0309 369.431 54.3018C369.275 53.5726 369.288 52.6351 369.47 51.4893C369.444 50.8122 369.627 49.9658 370.017 48.9502C370.434 47.9085 370.942 46.7887 371.541 45.5908C371.124 45.7471 370.707 45.8643 370.291 45.9424C369.874 45.9945 369.457 46.0205 369.041 46.0205C368.442 46.932 367.752 47.9867 366.97 49.1846C366.189 50.3825 365.33 51.5413 364.392 52.6611C363.481 53.7809 362.504 54.7705 361.462 55.6299C360.421 56.4893 359.34 57.0361 358.22 57.2705C357.127 57.2184 356.345 56.9189 355.877 56.3721C355.382 55.7992 355.069 55.1351 354.939 54.3799C354.809 53.859 354.796 53.2861 354.9 52.6611C355.004 52.0361 355.186 51.4372 355.447 50.8643C355.707 50.2653 356.033 49.7314 356.423 49.2627C356.814 48.7939 357.231 48.4554 357.673 48.2471C358.377 47.9606 359.054 47.9346 359.705 48.1689C360.356 48.3773 360.759 48.82 360.916 49.4971C361.072 50.1481 361.02 50.8252 360.759 51.5283C360.499 52.2054 360.186 52.8434 359.822 53.4424C359.483 54.0413 359.158 54.5882 358.845 55.083C358.533 55.5518 358.39 55.8903 358.416 56.0986C358.416 56.2288 358.442 56.2549 358.494 56.1768C358.546 56.0726 358.715 56.0335 359.002 56.0596C359.731 55.7731 360.512 55.2523 361.345 54.4971C362.179 53.7158 362.986 52.8434 363.767 51.8799C364.574 50.8903 365.343 49.8747 366.072 48.833C366.801 47.7653 367.426 46.8018 367.947 45.9424C367.114 45.8122 366.345 45.5387 365.642 45.1221C364.939 44.6794 364.366 44.1325 363.923 43.4814C363.507 42.8044 363.246 42.0361 363.142 41.1768C363.064 40.2913 363.22 39.3278 363.611 38.2861C364.288 36.359 365.395 34.9268 366.931 33.9893C368.468 33.0518 370.538 32.6611 373.142 32.8174C373.976 32.9476 374.77 33.2861 375.525 33.833C376.306 34.3538 376.879 35.109 377.244 36.0986C377.374 35.8903 377.491 35.695 377.595 35.5127C377.726 35.3304 377.856 35.1611 377.986 35.0049L378.962 33.5596H383.923C383.845 33.6637 383.585 34.0413 383.142 34.6924C382.699 35.3174 382.127 36.1507 381.423 37.1924C380.746 38.234 379.965 39.458 379.08 40.8643C378.22 42.2445 377.322 43.7419 376.384 45.3564C375.89 46.1898 375.395 47.0752 374.9 48.0127C374.431 48.9502 374.002 49.8617 373.611 50.7471C373.246 51.6064 372.947 52.4007 372.712 53.1299C372.478 53.833 372.361 54.3929 372.361 54.8096C372.361 55.4867 372.634 55.8252 373.181 55.8252C373.494 55.8252 373.976 55.5387 374.627 54.9658C375.304 54.3929 376.085 53.6247 376.97 52.6611C377.856 51.6715 378.819 50.5257 379.861 49.2236C380.903 47.9215 381.97 46.5413 383.064 45.083H384.236ZM369.705 45.0439C370.33 45.1221 371.228 44.7705 372.4 43.9893C373.051 42.8174 373.728 41.6715 374.431 40.5518C375.134 39.4059 375.785 38.3512 376.384 37.3877C376.124 36.3981 375.72 35.6429 375.173 35.1221C374.627 34.5752 374.028 34.3018 373.377 34.3018C372.048 34.3538 370.968 34.8356 370.134 35.7471C369.301 36.6585 368.598 37.7393 368.025 38.9893C367.452 40.3955 367.231 41.6455 367.361 42.7393C367.491 43.807 368.051 44.5231 369.041 44.8877L369.705 45.0439Z" fill="#212844"/>
</svg>
