<svg width="193" height="63" viewBox="0 0 193 63" fill="none" xmlns="http://www.w3.org/2000/svg">
<path d="M108.377 0.108507C108.767 -0.0217014 108.963 -0.0347222 108.963 0.0694444C108.989 0.173611 109.002 0.368924 109.002 0.655382C109.002 0.78559 108.976 0.928819 108.923 1.08507C108.871 1.21528 108.819 1.34549 108.767 1.47569C106.658 2.69965 104.666 4.18403 102.791 5.92882C100.916 7.67361 99.0797 9.65278 97.2828 11.8663C95.4859 14.0538 93.7021 16.4757 91.9313 19.1319C90.1865 21.7882 88.3896 24.6267 86.5406 27.6476C84.874 30.3299 83.2464 33.0382 81.6578 35.7726C80.0693 38.4809 78.5458 41.1111 77.0875 43.6632C75.6292 46.1892 74.249 48.572 72.9469 50.8116C71.6448 53.0512 70.4469 55.0304 69.3531 56.7491L58.2984 56.8273C59.262 56.1762 60.0693 55.5512 60.7203 54.9523C61.3974 54.3533 61.9703 53.7934 62.4391 53.2726C62.9078 52.7257 63.3115 52.2309 63.65 51.7882C63.9885 51.3455 64.3401 50.9418 64.7047 50.5773C66.3714 48.0773 67.5302 45.3299 68.1813 42.3351C68.8323 39.3142 69.0146 36.2804 68.7281 33.2335C67.5563 34.5616 66.4234 35.8637 65.3297 37.1398C64.2359 38.3898 63.1943 39.6398 62.2047 40.8898C59.5745 44.197 56.9964 47.1007 54.4703 49.6007C51.9443 52.0747 49.4443 54.171 46.9703 55.8898C44.5224 57.6085 42.0875 58.9627 39.6656 59.9523C37.2438 60.9679 34.8089 61.6319 32.3609 61.9444C29.887 62.2569 27.4 62.3481 24.9 62.2179C22.4 62.0877 19.9911 61.7101 17.6734 61.0851C15.3557 60.4601 13.1682 59.5877 11.1109 58.4679C9.07969 57.3741 7.28281 56.02 5.72031 54.4054C4.15781 52.7648 2.88177 50.8767 1.89219 48.7413C0.902604 46.5799 0.290625 44.158 0.05625 41.4757C-0.1 39.4184 0.0692708 37.4523 0.564062 35.5773C1.05885 33.7023 1.80104 31.9705 2.79063 30.3819C3.80625 28.7674 5.00417 27.322 6.38438 26.046C7.79063 24.77 9.32708 23.6762 10.9937 22.7648C12.6865 21.8533 14.4573 21.1502 16.3062 20.6554C18.1552 20.1606 20.0172 19.9002 21.8922 19.8741C23.6891 19.6658 25.512 19.6658 27.3609 19.8741C29.2099 20.0825 30.9807 20.4861 32.6734 21.0851C33.1682 19.5226 33.8453 18.0903 34.7047 16.7882C35.5901 15.4861 36.6448 14.3533 37.8688 13.3898C39.0927 12.4262 40.4859 11.671 42.0484 11.1241C43.637 10.5512 45.3688 10.2387 47.2438 10.1866C50.2646 10.1085 53.025 10.5903 55.525 11.6319C58.051 12.6736 60.2646 14.1189 62.1656 15.9679C64.0927 17.7908 65.6943 19.9262 66.9703 22.3741C68.2464 24.796 69.1708 27.3611 69.7438 30.0694C71.4104 28.2986 73.2073 26.4236 75.1344 24.4444C77.0875 22.4653 79.1188 20.4861 81.2281 18.5069C83.3635 16.5017 85.5641 14.5486 87.8297 12.6476C90.0953 10.7205 92.374 8.93663 94.6656 7.29601C96.9833 5.65538 99.288 4.22309 101.58 2.99913C103.897 1.74913 106.163 0.78559 108.377 0.108507ZM43.4156 34.4444C43.3375 35.8507 43.0641 37.1788 42.5953 38.4288C43.5328 38.5851 44.4964 38.6632 45.4859 38.6632C47.0484 38.6632 48.4807 38.3767 49.7828 37.8038C51.1109 37.2309 52.3219 36.4497 53.4156 35.4601L55.3297 33.2335H56.0719C56.2021 33.3637 56.2542 33.52 56.2281 33.7023C56.2281 33.8845 56.2281 34.0799 56.2281 34.2882C56.0719 34.4705 55.9026 34.6658 55.7203 34.8741C55.5641 35.0564 55.3818 35.2648 55.1734 35.4991C54.9911 35.7075 54.7828 35.9158 54.5484 36.1241C54.1839 36.4627 53.7802 36.8012 53.3375 37.1398C52.9208 37.4523 52.5302 37.7387 52.1656 37.9991C51.7229 38.3116 51.2802 38.6111 50.8375 38.8976C49.2229 39.5226 47.6734 39.9002 46.1891 40.0304C44.7307 40.1606 43.3375 40.0825 42.0094 39.796C41.3323 41.1762 40.4469 42.4262 39.3531 43.546C38.2594 44.6398 37.0354 45.5903 35.6813 46.3976C34.3271 47.2049 32.8687 47.8299 31.3062 48.2726C29.7698 48.6892 28.1943 48.8976 26.5797 48.8976C25.2255 48.8715 23.8583 48.7543 22.4781 48.546C21.0979 48.3377 19.7958 48.0122 18.5719 47.5694C17.3479 47.1267 16.2411 46.5408 15.2516 45.8116C14.262 45.0564 13.4937 44.1189 12.9469 42.9991C12.426 41.9054 12.1396 40.7465 12.0875 39.5226C12.0615 38.2726 12.2437 37.0747 12.6344 35.9288C13.025 34.783 13.6109 33.7283 14.3922 32.7648C15.1995 31.8012 16.176 31.02 17.3219 30.421C17.6604 30.4731 17.8557 30.6293 17.9078 30.8898C17.9599 31.1241 17.9859 31.3976 17.9859 31.7101C16.8922 32.2569 15.9937 32.947 15.2906 33.7804C14.6135 34.6137 14.1187 35.5122 13.8062 36.4757C13.4937 37.4392 13.3635 38.4418 13.4156 39.4835C13.4677 40.4991 13.7021 41.4497 14.1187 42.3351C14.6917 43.4549 15.4859 44.3533 16.5016 45.0304C17.5172 45.6814 18.65 46.1892 19.9 46.5538C21.15 46.8924 22.4651 47.1267 23.8453 47.2569C25.2255 47.3611 26.5536 47.4262 27.8297 47.4523C29.1839 47.3481 30.499 47.0747 31.775 46.6319C33.051 46.1892 34.2359 45.6293 35.3297 44.9523C36.4495 44.2491 37.4521 43.4288 38.3375 42.4913C39.2229 41.5538 39.9651 40.5382 40.5641 39.4444C39.4182 39.0799 38.3635 38.5981 37.4 37.9991C36.4365 37.3741 35.5901 36.671 34.8609 35.8898C34.1318 35.0825 33.5328 34.2101 33.0641 33.2726C32.5953 32.3351 32.2828 31.3715 32.1266 30.3819C31.6578 27.4392 31.7359 24.6918 32.3609 22.1398C31.137 21.697 29.8479 21.3715 28.4937 21.1632C27.1396 20.9288 25.7464 20.8116 24.3141 20.8116C21.9443 20.8116 19.5224 21.1241 17.0484 21.7491C14.5745 22.3741 12.2437 23.3767 10.0562 24.7569C8.80625 25.5642 7.6474 26.5148 6.57969 27.6085C5.51198 28.6762 4.60052 29.9002 3.84531 31.2804C3.0901 32.6345 2.49115 34.1319 2.04844 35.7726C1.63177 37.4132 1.42344 39.2101 1.42344 41.1632C1.42344 42.908 1.72292 44.5095 2.32188 45.9679C2.94688 47.4002 3.75417 48.7023 4.74375 49.8741C5.75938 51.046 6.90521 52.0747 8.18125 52.9601C9.48333 53.8455 10.8245 54.6007 12.2047 55.2257C15.2516 56.3715 18.3245 57.0616 21.4234 57.296C24.5224 57.5564 27.5823 57.4392 30.6031 56.9444C33.624 56.4757 36.5797 55.6814 39.4703 54.5616C42.387 53.4158 45.1734 52.0356 47.8297 50.421C50.512 48.7804 53.038 46.9314 55.4078 44.8741C57.8036 42.8168 59.9911 40.6424 61.9703 38.3507C62.7516 37.5434 63.6891 36.5538 64.7828 35.3819C65.9026 34.184 67.1396 32.8559 68.4938 31.3976C68.2073 29.6788 67.7906 28.0252 67.2438 26.4366C66.6969 24.822 66.0068 23.2986 65.1734 21.8663C64.0016 19.8872 62.5823 18.1293 60.9156 16.5929C59.275 15.0304 57.4391 13.8194 55.4078 12.9601C53.4026 12.0747 51.2411 11.5799 48.9234 11.4757C46.6318 11.3715 44.262 11.7752 41.8141 12.6866C39.8349 13.4158 38.1813 14.5747 36.8531 16.1632C35.525 17.7517 34.5354 19.5486 33.8844 21.5538C35.2385 22.1267 36.4885 22.8299 37.6344 23.6632C38.8063 24.4965 39.8219 25.4601 40.6813 26.5538C41.5406 27.6215 42.2047 28.8194 42.6734 30.1476C43.1682 31.4757 43.4156 32.908 43.4156 34.4444ZM69.6656 42.9991C71.4104 40.5512 73.3115 37.9861 75.3688 35.3038C77.426 32.6215 79.5094 29.9523 81.6188 27.296C83.7542 24.6137 85.8635 22.0226 87.9469 19.5226C90.0302 17.0226 91.9703 14.7439 93.7672 12.6866C95.5641 10.6033 97.1526 8.80642 98.5328 7.29601C99.9391 5.78559 101.033 4.69184 101.814 4.01476C99.1839 5.62934 96.4885 7.50434 93.7281 9.63976C90.9938 11.7491 88.2724 14.0148 85.5641 16.4366C82.8557 18.8325 80.1865 21.3455 77.5563 23.9757C74.9521 26.5799 72.4521 29.184 70.0563 31.7882C70.3427 33.6632 70.4599 35.5512 70.4078 37.4523C70.3557 39.3273 70.1083 41.1762 69.6656 42.9991ZM41.8922 32.7648C41.6578 30.421 40.7854 28.3898 39.275 26.671C37.7906 24.9523 35.8896 23.5981 33.5719 22.6085C33.2333 23.9366 33.051 25.2778 33.025 26.6319C32.999 27.9601 33.1292 29.2491 33.4156 30.4991C33.8583 32.5043 34.7828 34.145 36.1891 35.421C37.5953 36.697 39.249 37.5955 41.15 38.1163C41.8271 36.3976 42.0745 34.6137 41.8922 32.7648Z" fill="#212844"/>
<path d="M91.2672 48.9366C91.6057 48.1293 91.9703 47.309 92.3609 46.4757C92.7516 45.6424 93.1682 44.809 93.6109 43.9757H88.025L80.8375 56.7491H76.0719L89.3531 33.2335H94.0797L88.5719 42.9601H94.1578C95.1214 41.1632 96.1109 39.4314 97.1266 37.7648C98.1422 36.072 99.0406 34.5616 99.8219 33.2335H104.783C104.731 33.3116 104.405 33.8325 103.806 34.796C103.207 35.7335 102.439 36.9835 101.502 38.546C100.564 40.1085 99.5224 41.9184 98.3766 43.9757C97.2307 46.0069 96.0849 48.1554 94.9391 50.421C94.4964 51.3325 94.0927 52.1267 93.7281 52.8038C93.3896 53.4809 93.2203 54.0408 93.2203 54.4835C93.2203 55.1606 93.4938 55.4991 94.0406 55.4991C94.4833 55.4991 95.0172 55.2648 95.6422 54.796C96.2672 54.3012 96.9182 53.6892 97.5953 52.9601C98.2984 52.2309 99.0016 51.4366 99.7047 50.5773C100.408 49.6918 101.059 48.8585 101.658 48.0773C102.257 47.27 102.765 46.5668 103.181 45.9679C103.598 45.3429 103.871 44.9392 104.002 44.7569H105.173C105.121 44.8351 104.952 45.0955 104.666 45.5382C104.405 45.9549 104.028 46.5148 103.533 47.2179C103.064 47.921 102.478 48.7413 101.775 49.6788C101.098 50.5903 100.317 51.5668 99.4313 52.6085C99.0146 53.1033 98.5458 53.5981 98.025 54.0929C97.5042 54.5877 96.9833 55.0304 96.4625 55.421C95.9417 55.8116 95.4339 56.1372 94.9391 56.3976C94.4443 56.6319 94.0146 56.7491 93.65 56.7491C93.0771 56.7491 92.5302 56.5668 92.0094 56.2023C91.4885 55.8377 91.0849 55.3299 90.7984 54.6788C90.538 54.0017 90.4208 53.1814 90.4469 52.2179C90.4729 51.2543 90.7464 50.1606 91.2672 48.9366Z" fill="#212844"/>
<path d="M122.4 40.3429C122.035 40.3429 121.736 40.2257 121.502 39.9913C121.267 39.7309 121.15 39.3142 121.15 38.7413C121.15 38.1424 121.332 37.5304 121.697 36.9054C122.088 36.2543 122.465 35.7205 122.83 35.3038C123.22 34.8611 123.416 34.6007 123.416 34.5226C123.416 34.2882 123.324 34.0538 123.142 33.8194C122.96 33.5851 122.713 33.4679 122.4 33.4679C121.905 33.4679 121.371 33.6762 120.798 34.0929C120.226 34.5095 119.64 35.0434 119.041 35.6944C118.442 36.3194 117.491 37.27 116.189 38.546C114.887 39.796 113.494 41.033 112.009 42.2569C114.197 42.4132 115.291 43.546 115.291 45.6554C115.291 46.2804 114.991 47.2569 114.392 48.5851C113.793 49.8872 113.194 51.1372 112.595 52.3351C111.996 53.533 111.697 54.3142 111.697 54.6788C111.697 55.3819 111.983 55.7335 112.556 55.7335C113.233 55.7335 114.067 55.3429 115.056 54.5616C116.072 53.7804 117.114 52.7517 118.181 51.4757C119.249 50.1997 120.186 49.0278 120.994 47.9601C121.801 46.8924 122.556 45.8247 123.259 44.7569H124.431C123.936 45.5382 123.377 46.3585 122.752 47.2179C122.153 48.0773 121.371 49.1059 120.408 50.3038C119.47 51.5017 118.559 52.5564 117.673 53.4679C116.814 54.3533 115.903 55.1215 114.939 55.7726C113.976 56.4236 113.142 56.7491 112.439 56.7491C112.205 56.7491 111.944 56.7231 111.658 56.671C111.371 56.6189 111.046 56.5148 110.681 56.3585C110.317 56.1762 109.991 55.9549 109.705 55.6944C109.444 55.408 109.21 55.0174 109.002 54.5226C108.819 54.0278 108.728 53.4679 108.728 52.8429C108.728 52.1918 109.067 51.2023 109.744 49.8741C110.447 48.546 111.137 47.309 111.814 46.1632C112.491 44.9913 112.83 44.2882 112.83 44.0538C112.83 43.7674 112.726 43.533 112.517 43.3507C112.309 43.1684 112.088 43.0773 111.853 43.0773C110.759 43.0773 109.627 43.5069 108.455 44.3663L100.798 56.5538H96.2281L110.798 33.1163H115.916L109.431 42.8429C109.9 42.6085 110.356 42.4392 110.798 42.3351C111.293 41.8403 111.97 41.1111 112.83 40.1476C113.689 39.158 114.483 38.2726 115.213 37.4913C115.942 36.7101 116.723 35.9288 117.556 35.1476C118.39 34.3403 119.223 33.7153 120.056 33.2726C120.89 32.8038 121.671 32.5694 122.4 32.5694C122.713 32.5694 123.012 32.6215 123.298 32.7257C123.585 32.8299 123.884 33.0122 124.197 33.2726C124.509 33.5069 124.757 33.8845 124.939 34.4054C125.147 34.9262 125.252 35.5512 125.252 36.2804C125.252 37.0877 124.965 37.9731 124.392 38.9366C123.819 39.8741 123.155 40.3429 122.4 40.3429Z" fill="#212844"/>
<path d="M126.736 55.7335C129.34 55.7335 133.442 52.0747 139.041 44.7569H140.252C139.028 46.3715 137.843 47.8429 136.697 49.171C135.577 50.4731 134.392 51.7231 133.142 52.921C131.918 54.1189 130.733 55.0564 129.587 55.7335C128.442 56.4106 127.413 56.7491 126.502 56.7491C125.121 56.7491 123.949 56.2543 122.986 55.2648C122.048 54.2752 121.58 52.7778 121.58 50.7726C121.58 49.0278 122.101 47.1007 123.142 44.9913C124.184 42.8559 125.473 40.9158 127.009 39.171C128.572 37.4262 130.304 35.9679 132.205 34.796C134.106 33.6241 135.864 33.0382 137.478 33.0382C137.765 33.0382 138.051 33.0903 138.337 33.1944C138.65 33.2986 138.962 33.4809 139.275 33.7413C139.587 33.9757 139.835 34.3533 140.017 34.8741C140.226 35.3689 140.33 35.9939 140.33 36.7491C140.33 38.4679 139.627 40.1215 138.22 41.7101C136.814 43.2986 135.134 44.4575 133.181 45.1866C131.228 45.8898 129.509 45.9679 128.025 45.421C126.202 48.7804 125.291 51.3845 125.291 53.2335C125.291 54.9002 125.772 55.7335 126.736 55.7335ZM137.244 33.8585C136.541 33.8585 135.252 35.0043 133.377 37.296C131.528 39.5877 129.835 42.1137 128.298 44.8741C129.262 45.0304 130.239 44.8741 131.228 44.4054C132.244 43.9366 133.129 43.2986 133.884 42.4913C134.666 41.658 135.356 40.7595 135.955 39.796C136.58 38.8064 137.048 37.8559 137.361 36.9444C137.699 36.033 137.869 35.2778 137.869 34.6788C137.869 34.1319 137.66 33.8585 137.244 33.8585Z" fill="#212844"/>
<path d="M170.291 44.7569H171.462C170.942 45.5903 170.395 46.4106 169.822 47.2179C169.249 48.0252 168.481 49.0408 167.517 50.2648C166.554 51.4887 165.642 52.5564 164.783 53.4679C163.949 54.3533 163.051 55.1215 162.087 55.7726C161.15 56.4236 160.317 56.7491 159.587 56.7491C159.353 56.7491 159.093 56.7231 158.806 56.671C158.546 56.5929 158.246 56.4497 157.908 56.2413C157.569 56.033 157.27 55.7595 157.009 55.421C156.749 55.0825 156.528 54.6007 156.345 53.9757C156.163 53.3507 156.072 52.6215 156.072 51.7882C156.072 50.9288 156.423 49.8481 157.127 48.546C157.83 47.2439 158.676 45.9418 159.666 44.6398C160.655 43.3116 161.632 42.0356 162.595 40.8116C163.585 39.5616 164.431 38.4158 165.134 37.3741C165.837 36.3325 166.189 35.5773 166.189 35.1085C166.189 34.5616 165.981 34.2882 165.564 34.2882C164.991 34.2882 164.21 34.6918 163.22 35.4991C162.231 36.2804 161.215 37.27 160.173 38.4679C159.132 39.6398 157.973 41.059 156.697 42.7257C155.421 44.3663 154.275 45.8767 153.259 47.2569C152.27 48.6372 151.254 50.0825 150.212 51.5929C148.884 53.6762 147.765 55.3299 146.853 56.5538H142.634C143.077 55.7726 144.431 53.6372 146.697 50.1476C148.962 46.658 150.903 43.5069 152.517 40.6944C154.132 37.8559 154.939 35.9939 154.939 35.1085C154.939 34.5616 154.77 34.2882 154.431 34.2882C153.989 34.2882 153.311 34.6788 152.4 35.4601C151.515 36.2153 150.603 37.1137 149.666 38.1554C148.728 39.197 147.686 40.447 146.541 41.9054C145.395 43.3377 144.444 44.5486 143.689 45.5382C142.96 46.5017 142.231 47.4783 141.502 48.4679L136.736 56.5538H132.166L135.759 51.046L139.002 44.8351L146.15 33.2335H150.642C150.538 33.4158 150.265 33.8455 149.822 34.5226C149.405 35.1997 148.923 35.9679 148.377 36.8273C147.856 37.6866 147.491 38.2856 147.283 38.6241C146.449 39.9783 145.811 40.9939 145.369 41.671C149.666 35.9158 152.895 33.0382 155.056 33.0382C155.837 33.0382 156.489 33.3116 157.009 33.8585C157.556 34.3793 157.83 35.1997 157.83 36.3194C157.83 37.5434 156.957 39.796 155.212 43.0773C159.874 36.3845 163.533 33.0382 166.189 33.0382C167.022 33.0382 167.712 33.2986 168.259 33.8194C168.806 34.3403 169.08 35.1736 169.08 36.3194C169.08 37.283 168.715 38.4549 167.986 39.8351C167.283 41.2153 166.423 42.5955 165.408 43.9757C164.418 45.3559 163.416 46.7101 162.4 48.0382C161.384 49.3663 160.525 50.6163 159.822 51.7882C159.119 52.934 158.767 53.8325 158.767 54.4835C158.767 55.3168 159.041 55.7335 159.587 55.7335C160.134 55.7335 160.798 55.4601 161.58 54.9132C162.387 54.3403 163.168 53.6632 163.923 52.8819C164.679 52.0747 165.486 51.1372 166.345 50.0694C167.231 49.0017 167.96 48.0642 168.533 47.2569C169.132 46.4236 169.718 45.5903 170.291 44.7569Z" fill="#212844"/>
<path d="M191.345 44.7569H192.478C192.27 45.0955 191.983 45.5382 191.619 46.0851C191.28 46.6059 190.616 47.5564 189.627 48.9366C188.637 50.3168 187.673 51.5408 186.736 52.6085C185.824 53.6502 184.822 54.6007 183.728 55.4601C182.634 56.3194 181.697 56.7491 180.916 56.7491C180.108 56.7491 179.353 56.2674 178.65 55.3038C177.973 54.3403 177.634 52.9601 177.634 51.1632V50.9679C174.744 54.822 172.543 56.7491 171.033 56.7491C169.861 56.7491 168.989 56.2153 168.416 55.1476C167.817 54.0799 167.517 52.7517 167.517 51.1632C167.517 49.6788 167.921 48.0642 168.728 46.3194C169.535 44.5486 170.577 42.908 171.853 41.3976C173.129 39.8611 174.496 38.4549 175.955 37.1788C177.413 35.9028 178.845 34.9002 180.252 34.171C181.684 33.4158 182.882 33.0382 183.845 33.0382C185.147 33.0382 185.564 34.1189 185.095 36.2804L187.127 33.2335H192.087C191.775 33.7023 191.358 34.3142 190.837 35.0694C190.317 35.8247 189.392 37.2439 188.064 39.3273C186.736 41.3845 185.564 43.2856 184.548 45.0304C183.533 46.7752 182.608 48.572 181.775 50.421C180.942 52.2439 180.525 53.5981 180.525 54.4835C180.525 55.1606 180.798 55.4991 181.345 55.4991C181.814 55.4991 182.452 55.1606 183.259 54.4835C184.093 53.8064 184.887 53.0382 185.642 52.1788C186.397 51.3194 187.218 50.3038 188.103 49.1319C189.015 47.9601 189.679 47.0747 190.095 46.4757C190.538 45.8767 190.955 45.3038 191.345 44.7569ZM171.033 55.7335C172.309 55.7335 174.77 53.1944 178.416 48.1163C179.171 46.2413 180.577 43.5981 182.634 40.1866C182.817 39.796 183.025 39.2882 183.259 38.6632C183.52 38.0122 183.767 37.322 184.002 36.5929C184.236 35.8377 184.34 35.1997 184.314 34.6788C184.314 34.1319 184.158 33.8585 183.845 33.8585C182.621 33.8585 181.215 34.7049 179.627 36.3976C178.038 38.0903 176.593 40.0825 175.291 42.3741C173.989 44.6398 172.882 46.9705 171.97 49.3663C171.059 51.7361 170.603 53.5851 170.603 54.9132C170.603 55.4601 170.746 55.7335 171.033 55.7335Z" fill="#212844"/>
</svg>
