<svg width="509" height="179" viewBox="0 0 509 179" fill="none" xmlns="http://www.w3.org/2000/svg">
<path d="M91.413 6.32812C91.413 6.09375 91.6213 5.88542 92.038 5.70312C92.4286 5.54688 92.8062 5.52083 93.1708 5.625C93.5354 5.72917 93.8739 5.9375 94.1864 6.25C94.4989 6.53646 94.7724 6.90104 95.0067 7.34375C95.2411 7.78646 95.3974 8.26823 95.4755 8.78906C95.4494 10.013 95.3062 11.0677 95.0458 11.9531C94.8114 12.8125 94.4859 13.5547 94.0692 14.1797C93.6786 14.8047 93.2229 15.3385 92.702 15.7812C92.1812 16.1979 91.6213 16.5885 91.0224 16.9531C89.1213 18.125 86.6734 18.737 83.6786 18.7891C80.7099 18.8411 77.2073 18.5286 73.1708 17.8516C69.3948 17.2526 65.5015 16.6146 61.4911 15.9375C57.4807 15.2604 53.4182 14.7396 49.3036 14.375C49.0172 16.5885 48.6005 18.6979 48.0536 20.7031C47.5328 22.6823 46.8687 24.5703 46.0614 26.3672C45.0718 28.5286 43.7828 30.625 42.1942 32.6562C40.6057 34.6875 38.7828 36.4974 36.7255 38.0859C34.6942 39.6484 32.4416 40.9115 29.9677 41.875C27.5198 42.8125 24.9286 43.2812 22.1942 43.2812C19.538 43.2812 17.4286 42.5781 15.8661 41.1719C14.3036 39.7396 13.4182 37.7604 13.2099 35.2344C13.1317 34.0104 13.1968 32.6562 13.4052 31.1719C13.6135 29.6875 13.9911 28.1641 14.538 26.6016C15.0849 25.0391 15.827 23.4896 16.7645 21.9531C17.7281 20.4167 18.926 18.9583 20.3583 17.5781C22.3375 15.6771 24.4338 14.0625 26.6474 12.7344C28.8869 11.4062 31.1916 10.3385 33.5614 9.53125C35.9573 8.69792 38.4182 8.11198 40.9442 7.77344C43.4703 7.40885 46.0224 7.2526 48.6005 7.30469V5.46875C48.6005 4.73958 48.5093 4.17969 48.327 3.78906C48.1448 3.3724 47.9494 3.03385 47.7411 2.77344C47.5328 2.51302 47.3375 2.29167 47.1552 2.10938C46.9989 1.90104 46.9208 1.61458 46.9208 1.25C46.9208 1.04167 47.0119 0.78125 47.1942 0.46875C47.3765 0.15625 47.5979 0 47.8583 0C48.1968 0 48.4833 0.221354 48.7177 0.664062C48.9781 1.10677 49.1864 1.64062 49.3427 2.26562C49.4989 2.86458 49.6031 3.48958 49.6552 4.14062C49.7333 4.79167 49.7724 5.3125 49.7724 5.70312V7.38281C52.7151 7.51302 55.6578 7.8776 58.6005 8.47656C61.5692 9.07552 64.5119 9.86979 67.4286 10.8594C68.1057 11.0938 69.0302 11.4453 70.202 11.9141C71.3739 12.3568 72.663 12.8385 74.0692 13.3594C75.4755 13.8802 76.9599 14.375 78.5224 14.8438C80.0849 15.2865 81.6083 15.638 83.0927 15.8984C84.577 16.1589 85.9703 16.263 87.2724 16.2109C88.5744 16.1328 89.6812 15.8203 90.5927 15.2734C91.2958 14.8568 91.8557 14.2839 92.2724 13.5547C92.689 12.7995 92.8974 11.8359 92.8974 10.6641C92.8974 10.1953 92.8192 9.76562 92.663 9.375C92.5067 8.95833 92.3375 8.56771 92.1552 8.20312C91.9729 7.83854 91.8036 7.51302 91.6474 7.22656C91.4911 6.91406 91.413 6.61458 91.413 6.32812ZM43.6786 14.0625C41.7515 14.0365 39.6812 14.1536 37.4677 14.4141C35.2802 14.6484 33.1057 15.0781 30.9442 15.7031C28.7828 16.3021 26.7125 17.1094 24.7333 18.125C22.7541 19.1406 20.9963 20.4036 19.4599 21.9141C17.9494 23.4245 16.7385 25.1953 15.827 27.2266C14.9416 29.2578 14.4989 31.6016 14.4989 34.2578C14.4989 35.5859 14.7463 36.7839 15.2411 37.8516C15.7619 38.9193 16.4651 39.7917 17.3505 40.4688C18.2359 41.1458 19.2776 41.6146 20.4755 41.875C21.6994 42.1094 23.0145 42.0703 24.4208 41.7578C26.5823 41.5495 28.6786 41.0156 30.7099 40.1562C32.7411 39.2708 34.6422 38.112 36.413 36.6797C38.1838 35.2474 39.7984 33.5547 41.2567 31.6016C42.7411 29.6484 44.0172 27.5 45.0849 25.1562C46.5432 21.849 47.5458 18.2292 48.0927 14.2969C46.6083 14.1927 45.1369 14.1146 43.6786 14.0625ZM9.14736 64.1797C12.0901 64.9089 14.9547 65.0521 17.7411 64.6094C20.5276 64.1667 23.2229 63.2812 25.827 61.9531C28.4573 60.599 30.9703 58.8802 33.3661 56.7969C35.788 54.6875 38.0927 52.3568 40.2802 49.8047C42.4937 47.2266 44.577 44.4922 46.5302 41.6016C48.4833 38.7109 50.3062 35.8073 51.9989 32.8906C53.4312 30.3646 54.9026 27.8646 56.413 25.3906C57.9234 22.8906 59.6812 20.612 61.6864 18.5547C61.8687 18.3464 62.051 18.151 62.2333 17.9688C62.4156 17.7865 62.6109 17.6172 62.8192 17.4609C63.2359 17.1224 63.5354 16.9531 63.7177 16.9531C63.9 16.9531 64.0041 17.0182 64.0302 17.1484C64.0562 17.2786 64.0172 17.4479 63.913 17.6562C63.8088 17.8646 63.6786 18.0078 63.5224 18.0859C63.3401 18.1901 63.1838 18.3333 63.0536 18.5156C62.9234 18.6719 62.7932 18.8281 62.663 18.9844C60.9182 20.9115 59.3427 23.112 57.9364 25.5859C56.5302 28.0339 55.1239 30.612 53.7177 33.3203C53.3531 33.9974 53.0015 34.6615 52.663 35.3125C52.3505 35.9635 52.025 36.6276 51.6864 37.3047C53.1448 35.7161 54.7073 34.375 56.3739 33.2812C58.0406 32.1875 59.6942 31.3542 61.3349 30.7812C63.0015 30.1823 64.5901 29.8438 66.1005 29.7656C67.6109 29.6615 68.926 29.7917 70.0458 30.1562C71.7645 30.7292 73.2619 31.6797 74.538 33.0078C75.8401 34.3359 76.8297 35.9245 77.5067 37.7734C78.1838 39.6224 78.5093 41.6797 78.4833 43.9453C78.4833 46.2109 78.0536 48.5677 77.1942 51.0156C75.6317 55.3906 73.2619 58.8151 70.0849 61.2891C66.9338 63.763 63.2099 65.1302 58.913 65.3906C57.5067 65.4948 56.0875 65.5078 54.6552 65.4297C53.2229 65.3516 51.8948 65.0781 50.6708 64.6094C49.4729 64.1667 48.4573 63.4635 47.6239 62.5C46.7906 61.5625 46.2698 60.2734 46.0614 58.6328C45.827 57.2266 45.8791 55.7682 46.2177 54.2578C46.5823 52.7214 47.1422 51.237 47.8974 49.8047C48.6526 48.3724 49.551 47.0573 50.5927 45.8594C51.6604 44.6354 52.7802 43.6328 53.952 42.8516C55.3843 41.7057 56.7776 40.9115 58.1317 40.4688C59.5119 40 60.7619 39.8307 61.8817 39.9609C63.0276 40.0911 64.0172 40.4818 64.8505 41.1328C65.6838 41.7578 66.2828 42.5911 66.6474 43.6328C67.038 44.6484 67.1422 45.8333 66.9599 47.1875C66.8036 48.5156 66.2958 49.9479 65.4364 51.4844C65.3062 51.6927 65.0718 52.0052 64.7333 52.4219C64.3948 52.8125 63.952 53.2161 63.4052 53.6328C62.8843 54.0495 62.2593 54.4141 61.5302 54.7266C60.801 55.0391 59.9677 55.1953 59.0302 55.1953C58.6916 55.1953 58.4573 55.1432 58.327 55.0391C58.1968 54.9349 58.1317 54.8177 58.1317 54.6875C58.1578 54.5312 58.2489 54.401 58.4052 54.2969C58.5614 54.1667 58.7567 54.0755 58.9911 54.0234C59.538 54.1536 60.0849 54.1406 60.6317 53.9844C61.1786 53.8281 61.6864 53.5807 62.1552 53.2422C62.65 52.9036 63.0927 52.513 63.4833 52.0703C63.9 51.6016 64.2515 51.1328 64.538 50.6641C65.1109 49.7786 65.5015 48.737 65.7099 47.5391C65.9182 46.3151 65.8791 45.1823 65.5927 44.1406C65.3323 43.099 64.7724 42.2526 63.913 41.6016C63.0797 40.9505 61.8817 40.7422 60.3192 40.9766C59.4338 41.1849 58.5614 41.4844 57.702 41.875C56.8427 42.2656 55.9963 42.7344 55.163 43.2812C53.9651 44.1146 52.8453 45.0911 51.8036 46.2109C50.788 47.3307 49.9026 48.5417 49.1474 49.8438C48.4182 51.1198 47.8583 52.4609 47.4677 53.8672C47.1031 55.2474 46.9599 56.6146 47.038 57.9688C47.1422 59.4531 47.5718 60.6641 48.327 61.6016C49.0823 62.513 50.0067 63.2031 51.1005 63.6719C52.2203 64.1406 53.4312 64.388 54.7333 64.4141C56.0614 64.4401 57.3244 64.2708 58.5224 63.9062C59.9807 63.4896 61.3349 62.8255 62.5849 61.9141C63.8609 60.9766 65.0198 59.8698 66.0614 58.5938C67.1291 57.2917 68.0927 55.8724 68.952 54.3359C69.8114 52.7995 70.5666 51.224 71.2177 49.6094C72.2593 47.0312 72.9494 44.7135 73.288 42.6562C73.6526 40.599 73.7177 38.8151 73.4833 37.3047C73.275 35.7682 72.7932 34.5182 72.038 33.5547C71.3088 32.5651 70.3583 31.849 69.1864 31.4062C67.9104 30.9375 66.3609 30.8464 64.538 31.1328C62.7411 31.4193 60.8661 32.0964 58.913 33.1641C56.9859 34.2057 55.0979 35.625 53.2489 37.4219C51.4 39.2188 49.8114 41.4062 48.4833 43.9844C47.2333 46.5625 45.9573 49.0365 44.6552 51.4062C43.3531 53.75 41.8557 55.8984 40.163 57.8516C38.4703 59.7786 36.5041 61.4714 34.2645 62.9297C32.025 64.4141 29.3557 65.5729 26.2567 66.4062C23.1838 67.2396 20.0979 67.5781 16.9989 67.4219C13.9 67.2656 11.0093 66.6797 8.32705 65.6641C6.13955 64.6484 4.39476 63.4505 3.09267 62.0703C1.81663 60.6901 0.931214 59.2708 0.436422 57.8125C-0.0323276 56.3281 -0.123473 54.8698 0.162985 53.4375C0.449443 51.9792 1.08746 50.7031 2.07705 49.6094C3.06663 48.4896 4.38173 47.6042 6.02236 46.9531C7.66298 46.276 9.60309 45.9635 11.8427 46.0156C12.1552 46.0417 12.6369 46.1198 13.288 46.25C13.9651 46.3802 14.6942 46.6276 15.4755 46.9922C16.2828 47.3568 17.0901 47.8906 17.8974 48.5938C18.7047 49.2708 19.3948 50.1823 19.9677 51.3281C20.202 51.7708 20.2932 52.1094 20.2411 52.3438C20.2151 52.5781 20.1239 52.7344 19.9677 52.8125C19.8114 52.8646 19.6161 52.8385 19.3817 52.7344C19.1474 52.6302 18.939 52.4479 18.7567 52.1875C18.5484 51.4062 18.1838 50.7292 17.663 50.1562C17.1422 49.5833 16.5432 49.1146 15.8661 48.75C15.189 48.3594 14.4729 48.0599 13.7177 47.8516C12.9625 47.6432 12.2333 47.513 11.5302 47.4609C10.1239 47.3568 8.83486 47.474 7.66298 47.8125C6.49111 48.125 5.46246 48.5938 4.57705 49.2188C3.69163 49.8177 2.97548 50.5469 2.42861 51.4062C1.90778 52.2656 1.58226 53.1771 1.45205 54.1406C1.32184 55.026 1.37392 55.9375 1.6083 56.875C1.84267 57.8125 2.27236 58.724 2.89736 59.6094C3.52236 60.4948 4.34267 61.3411 5.3583 62.1484C6.39996 62.9297 7.66298 63.6068 9.14736 64.1797Z" fill="#212844"/>
<path d="M88.6786 65.7031C91.9078 65.8333 93.9911 66.9531 94.9286 69.0625L94.2645 69.4531C93.7698 68.5417 93.0666 67.8255 92.1552 67.3047C91.2437 66.8099 89.9286 66.5365 88.2099 66.4844L81.1395 78.2422C80.15 79.7786 79.1474 81.1068 78.1317 82.2266C77.1161 83.3724 76.2307 84.2188 75.4755 84.7656C74.7203 85.3385 73.9781 85.7812 73.2489 86.0938C72.4937 86.4323 71.9338 86.6276 71.5692 86.6797C71.2047 86.7578 70.8791 86.7969 70.5927 86.7969C69.3427 86.7969 68.7177 86.0026 68.7177 84.4141C68.7177 82.9297 69.1994 81.263 70.163 79.4141C71.1265 77.5911 72.3505 75.8594 73.8349 74.2188C75.3192 72.5781 76.9859 71.0547 78.8349 69.6484C80.6578 68.2682 82.4156 67.2266 84.1083 66.5234L89.6161 57.6562L90.2802 56.4062C86.9729 60.4427 84.6812 62.4609 83.4052 62.4609C82.5718 62.4609 81.8166 61.9922 81.1395 61.0547C80.4364 60.0911 80.0849 58.6979 80.0849 56.875C80.0849 56.0677 80.4104 54.9089 81.0614 53.3984C81.7125 51.862 82.5067 50.2865 83.4442 48.6719C84.3817 47.0573 85.3062 45.5078 86.2177 44.0234C87.1552 42.5391 87.9494 41.3151 88.6005 40.3516L89.6161 38.9453H94.538C94.2255 39.388 93.8088 39.987 93.288 40.7422C92.7672 41.4974 91.8427 42.9167 90.5145 45C89.1864 47.0573 88.0145 48.9714 86.9989 50.7422C85.9833 52.487 85.0588 54.2839 84.2255 56.1328C83.3922 57.9557 82.9755 59.3099 82.9755 60.1953C82.9755 60.8984 83.2489 61.25 83.7958 61.25C84.9677 61.25 88.1448 57.7995 93.327 50.8984L100.085 38.9453H104.772L88.6786 65.7031ZM70.3583 85.8203C70.9573 85.8203 71.7385 85.3125 72.702 84.2969C73.6656 83.3073 74.6291 82.0833 75.5927 80.625C76.5302 79.1927 77.4416 77.7604 78.327 76.3281C79.1864 74.8958 79.8895 73.6849 80.4364 72.6953L81.2567 71.1719L83.327 67.7734C81.2437 68.8151 79.1474 70.3646 77.038 72.4219C74.9026 74.4792 73.1578 76.6406 71.8036 78.9062C70.4234 81.1719 69.7333 83.112 69.7333 84.7266C69.7333 85.4036 69.9416 85.7682 70.3583 85.8203Z" fill="#212844"/>
<path d="M107.741 65.7031C110.97 65.8333 113.054 66.9531 113.991 69.0625L113.327 69.4531C112.832 68.5417 112.129 67.8255 111.218 67.3047C110.306 66.8099 108.991 66.5365 107.272 66.4844L100.202 78.2422C99.2125 79.7786 98.2099 81.1068 97.1942 82.2266C96.1786 83.3724 95.2932 84.2188 94.538 84.7656C93.7828 85.3385 93.0406 85.7812 92.3114 86.0938C91.5562 86.4323 90.9963 86.6276 90.6317 86.6797C90.2672 86.7578 89.9416 86.7969 89.6552 86.7969C88.4052 86.7969 87.7802 86.0026 87.7802 84.4141C87.7802 82.9297 88.2619 81.263 89.2255 79.4141C90.189 77.5911 91.413 75.8594 92.8974 74.2188C94.3817 72.5781 96.0484 71.0547 97.8974 69.6484C99.7203 68.2682 101.478 67.2266 103.171 66.5234L108.249 58.3203C105.723 61.0807 103.965 62.4609 102.975 62.4609C101.804 62.4609 100.931 61.9271 100.358 60.8594C99.7593 59.7917 99.4599 58.4635 99.4599 56.875C99.4599 55.625 99.7593 54.2839 100.358 52.8516C100.931 51.3932 101.699 50.013 102.663 48.7109C103.627 47.3828 104.707 46.1068 105.905 44.8828C107.129 43.6589 108.34 42.6042 109.538 41.7188C110.762 40.8073 111.947 40.0911 113.093 39.5703C114.265 39.0234 115.254 38.75 116.061 38.75C117.233 38.75 117.715 39.7917 117.507 41.875L119.147 38.9453H123.835L107.741 65.7031ZM102.975 61.4062C103.653 61.4062 104.72 60.6771 106.179 59.2188C107.637 57.7344 109.069 56.0938 110.475 54.2969L111.061 53.2422L116.296 44.0625C116.4 43.5417 116.491 43.0339 116.569 42.5391C116.647 42.0182 116.699 41.5234 116.725 41.0547C116.752 40.5859 116.699 40.2214 116.569 39.9609C116.465 39.6745 116.296 39.5312 116.061 39.5312C114.837 39.5312 113.418 40.3776 111.804 42.0703C110.189 43.763 108.718 45.7552 107.39 48.0469C106.061 50.3385 104.929 52.6693 103.991 55.0391C103.054 57.4089 102.585 59.2578 102.585 60.5859C102.585 61.1328 102.715 61.4062 102.975 61.4062ZM89.4208 85.8203C90.0198 85.8203 90.801 85.3125 91.7645 84.2969C92.7281 83.3073 93.6916 82.0833 94.6552 80.625C95.5927 79.1927 96.5041 77.7604 97.3895 76.3281C98.2489 74.8958 98.952 73.6849 99.4989 72.6953L100.319 71.1719L102.39 67.7734C100.306 68.8151 98.2099 70.3646 96.1005 72.4219C93.9651 74.4792 92.2203 76.6406 90.8661 78.9062C89.4859 81.1719 88.7958 83.112 88.7958 84.7266C88.7958 85.4036 89.0041 85.7682 89.4208 85.8203Z" fill="#212844"/>
<path d="M124.655 61.4453C127.259 61.4453 131.361 57.7865 136.96 50.4688H138.171C136.947 52.0833 135.762 53.5547 134.616 54.8828C133.496 56.1849 132.311 57.4349 131.061 58.6328C129.837 59.8307 128.653 60.7682 127.507 61.4453C126.361 62.1224 125.332 62.4609 124.421 62.4609C123.041 62.4609 121.869 61.9661 120.905 60.9766C119.968 59.987 119.499 58.4896 119.499 56.4844C119.499 54.7396 120.02 52.8125 121.061 50.7031C122.103 48.5677 123.392 46.6276 124.929 44.8828C126.491 43.138 128.223 41.6797 130.124 40.5078C132.025 39.3359 133.783 38.75 135.397 38.75C135.684 38.75 135.97 38.8021 136.257 38.9062C136.569 39.0104 136.882 39.1927 137.194 39.4531C137.507 39.6875 137.754 40.0651 137.936 40.5859C138.145 41.0807 138.249 41.7057 138.249 42.4609C138.249 44.1797 137.546 45.8333 136.14 47.4219C134.733 49.0104 133.054 50.1693 131.1 50.8984C129.147 51.6016 127.429 51.6797 125.944 51.1328C124.121 54.4922 123.21 57.0964 123.21 58.9453C123.21 60.612 123.692 61.4453 124.655 61.4453ZM135.163 39.5703C134.46 39.5703 133.171 40.7161 131.296 43.0078C129.447 45.2995 127.754 47.8255 126.218 50.5859C127.181 50.7422 128.158 50.5859 129.147 50.1172C130.163 49.6484 131.048 49.0104 131.804 48.2031C132.585 47.3698 133.275 46.4714 133.874 45.5078C134.499 44.5182 134.968 43.5677 135.28 42.6562C135.619 41.7448 135.788 40.9896 135.788 40.3906C135.788 39.8438 135.58 39.5703 135.163 39.5703Z" fill="#212844"/>
<path d="M173.015 50.8594C172.259 51.901 171.53 52.9036 170.827 53.8672C170.124 54.8047 169.434 55.6901 168.757 56.5234C168.106 57.3307 167.429 58.112 166.725 58.8672C166.022 59.6224 165.345 60.2995 164.694 60.8984C164.043 61.4714 163.431 61.9401 162.858 62.3047C162.311 62.6693 161.869 62.8516 161.53 62.8516C161.14 62.8516 160.71 62.7865 160.241 62.6562C159.772 62.526 159.369 62.2786 159.03 61.9141C158.561 61.4193 158.262 60.7943 158.132 60.0391C158.002 59.2839 157.988 58.4896 158.093 57.6562C158.197 56.8229 158.392 55.9766 158.679 55.1172C158.965 54.2318 159.291 53.4115 159.655 52.6562C160.15 51.5885 160.71 50.4818 161.335 49.3359C161.986 48.1641 162.637 47.0312 163.288 45.9375C163.965 44.8438 164.603 43.8281 165.202 42.8906C165.827 41.9271 166.348 41.1328 166.765 40.5078L166.843 40.3516C165.853 40.7682 164.824 41.5885 163.757 42.8125C162.689 44.0104 161.608 45.4167 160.515 47.0312C159.447 48.6198 158.366 50.2995 157.272 52.0703C156.179 53.8151 155.111 55.4427 154.069 56.9531C153.054 58.4635 152.064 59.7396 151.1 60.7812C150.163 61.8229 149.291 62.4219 148.483 62.5781C147.572 62.7604 146.921 62.5521 146.53 61.9531C146.166 61.3542 145.996 60.5339 146.022 59.4922C146.074 58.4505 146.296 57.2917 146.686 56.0156C147.077 54.7396 147.585 53.5156 148.21 52.3438C148.757 51.3281 149.356 50.2604 150.007 49.1406C150.658 47.9948 151.296 46.875 151.921 45.7812C152.572 44.6875 153.197 43.6719 153.796 42.7344C154.395 41.7969 154.903 41.0156 155.319 40.3906L155.397 40.2734C154.46 40.5339 153.587 40.9635 152.78 41.5625C151.999 42.1354 151.257 42.8385 150.554 43.6719C149.85 44.5052 149.186 45.4297 148.561 46.4453C147.936 47.4609 147.337 48.5156 146.765 49.6094C145.931 51.25 145.111 52.8385 144.304 54.375C143.522 55.8854 142.715 57.2526 141.882 58.4766C141.179 59.5964 140.371 60.5599 139.46 61.3672C138.548 62.1745 137.494 62.6042 136.296 62.6562C135.254 62.526 134.512 62.1875 134.069 61.6406C133.627 61.0938 133.366 60.4818 133.288 59.8047C133.158 59.3099 133.158 58.776 133.288 58.2031C133.392 57.6302 133.574 57.0833 133.835 56.5625C134.095 56.0417 134.421 55.5729 134.811 55.1562C135.202 54.7396 135.606 54.4531 136.022 54.2969C136.778 54.0885 137.455 54.1016 138.054 54.3359C138.653 54.5703 139.017 55 139.147 55.625C139.252 56.25 139.173 56.888 138.913 57.5391C138.653 58.1641 138.34 58.75 137.975 59.2969C137.637 59.8438 137.311 60.3385 136.999 60.7812C136.686 61.1979 136.543 61.5104 136.569 61.7188C136.517 61.849 136.53 61.875 136.608 61.7969C136.712 61.6927 136.895 61.6667 137.155 61.7188C137.754 61.5104 138.34 61.1719 138.913 60.7031C139.512 60.2083 140.098 59.5182 140.671 58.6328C141.504 57.3307 142.298 55.9375 143.054 54.4531C143.809 52.9427 144.603 51.4453 145.436 49.9609C146.192 48.5807 146.947 47.2656 147.702 46.0156C148.483 44.7396 149.304 43.6198 150.163 42.6562C151.022 41.6667 151.947 40.8594 152.936 40.2344C153.926 39.5833 155.033 39.1797 156.257 39.0234L156.296 38.9453H161.257C161.179 39.0495 160.931 39.4401 160.515 40.1172C160.098 40.7682 159.564 41.6406 158.913 42.7344C158.262 43.8281 157.507 45.0911 156.647 46.5234C155.814 47.9557 154.929 49.4792 153.991 51.0938C153.496 51.9271 152.988 52.8385 152.468 53.8281C151.947 54.7917 151.465 55.7422 151.022 56.6797C150.58 57.5911 150.215 58.4245 149.929 59.1797C149.642 59.9349 149.499 60.5208 149.499 60.9375C150.176 60.4427 150.944 59.6094 151.804 58.4375C152.663 57.2396 153.574 55.8854 154.538 54.375C155.528 52.8385 156.556 51.237 157.624 49.5703C158.692 47.9036 159.785 46.3542 160.905 44.9219C162.025 43.4635 163.145 42.2135 164.265 41.1719C165.41 40.1042 166.543 39.4401 167.663 39.1797L167.741 39.0625H172.702C172.624 39.1667 172.363 39.5573 171.921 40.2344C171.478 40.8854 170.905 41.7578 170.202 42.8516C169.525 43.9193 168.744 45.1693 167.858 46.6016C166.999 48.0078 166.1 49.5182 165.163 51.1328C164.668 51.9661 164.173 52.8516 163.679 53.7891C163.21 54.7266 162.78 55.638 162.39 56.5234C162.025 57.3828 161.725 58.1771 161.491 58.9062C161.257 59.6094 161.14 60.1693 161.14 60.5859C161.14 61.263 161.413 61.6016 161.96 61.6016C162.272 61.6016 162.754 61.3151 163.405 60.7422C164.082 60.1693 164.863 59.401 165.749 58.4375C166.634 57.4479 167.598 56.3021 168.64 55C169.681 53.6979 170.749 52.3177 171.843 50.8594H173.015Z" fill="#212844"/>
<path d="M206.491 50.4688H207.663C207.142 51.3021 206.595 52.1224 206.022 52.9297C205.449 53.737 204.681 54.7526 203.718 55.9766C202.754 57.2005 201.843 58.2682 200.983 59.1797C200.15 60.0651 199.252 60.8333 198.288 61.4844C197.324 62.1354 196.491 62.4609 195.788 62.4609C195.528 62.4609 195.267 62.4349 195.007 62.3828C194.746 62.3047 194.434 62.1615 194.069 61.9531C193.731 61.7448 193.431 61.4714 193.171 61.1328C192.936 60.7943 192.728 60.3125 192.546 59.6875C192.363 59.0625 192.272 58.3333 192.272 57.5C192.272 56.6406 192.611 55.5599 193.288 54.2578C193.991 52.9557 194.837 51.6536 195.827 50.3516C196.817 49.0234 197.806 47.7474 198.796 46.5234C199.785 45.2734 200.619 44.1276 201.296 43.0859C201.999 42.0443 202.35 41.2891 202.35 40.8203C202.35 40.2734 202.155 40 201.765 40C200.957 40 199.903 40.4948 198.6 41.4844C197.324 42.4479 196.061 43.6198 194.811 45C193.561 46.3802 192.363 47.7734 191.218 49.1797C190.072 50.5599 189.147 51.7318 188.444 52.6953L187.39 54.1797L167.077 86.7969H162.741L181.569 56.7578L184.89 50.5469L192.116 38.9453H196.53L196.452 39.0625C195.541 40.651 193.913 43.3203 191.569 47.0703C195.866 41.5234 199.46 38.75 202.35 38.75C203.184 38.75 203.874 39.0104 204.421 39.5312C204.994 40.0521 205.28 40.8854 205.28 42.0312C205.28 42.9948 204.916 44.1667 204.186 45.5469C203.483 46.9271 202.624 48.3073 201.608 49.6875C200.619 51.0677 199.616 52.4219 198.6 53.75C197.585 55.0781 196.725 56.3281 196.022 57.5C195.319 58.6458 194.968 59.5443 194.968 60.1953C194.968 61.0286 195.241 61.4453 195.788 61.4453C196.465 61.4453 197.298 61.0547 198.288 60.2734C199.278 59.4922 200.306 58.4635 201.374 57.1875C202.468 55.9115 203.405 54.7526 204.186 53.7109C204.994 52.6432 205.762 51.5625 206.491 50.4688Z" fill="#212844"/>
<path d="M227.468 50.4688H228.6C228.392 50.8073 228.106 51.25 227.741 51.7969C227.403 52.3177 226.738 53.2682 225.749 54.6484C224.759 56.0286 223.796 57.2526 222.858 58.3203C221.947 59.362 220.944 60.3125 219.85 61.1719C218.757 62.0312 217.819 62.4609 217.038 62.4609C216.231 62.4609 215.475 61.9792 214.772 61.0156C214.095 60.0521 213.757 58.6719 213.757 56.875V56.6797C210.866 60.5339 208.666 62.4609 207.155 62.4609C205.983 62.4609 205.111 61.9271 204.538 60.8594C203.939 59.7917 203.64 58.4635 203.64 56.875C203.64 55.3906 204.043 53.776 204.85 52.0312C205.658 50.2604 206.699 48.6198 207.975 47.1094C209.252 45.5729 210.619 44.1667 212.077 42.8906C213.535 41.6146 214.968 40.612 216.374 39.8828C217.806 39.1276 219.004 38.75 219.968 38.75C221.27 38.75 221.686 39.8307 221.218 41.9922L223.249 38.9453H228.21C227.897 39.4141 227.481 40.026 226.96 40.7812C226.439 41.5365 225.515 42.9557 224.186 45.0391C222.858 47.0964 221.686 48.9974 220.671 50.7422C219.655 52.487 218.731 54.2839 217.897 56.1328C217.064 57.9557 216.647 59.3099 216.647 60.1953C216.647 60.8724 216.921 61.2109 217.468 61.2109C217.936 61.2109 218.574 60.8724 219.382 60.1953C220.215 59.5182 221.009 58.75 221.765 57.8906C222.52 57.0312 223.34 56.0156 224.225 54.8438C225.137 53.6719 225.801 52.7865 226.218 52.1875C226.66 51.5885 227.077 51.0156 227.468 50.4688ZM207.155 61.4453C208.431 61.4453 210.892 58.9062 214.538 53.8281C215.293 51.9531 216.699 49.3099 218.757 45.8984C218.939 45.5078 219.147 45 219.382 44.375C219.642 43.724 219.89 43.0339 220.124 42.3047C220.358 41.5495 220.462 40.9115 220.436 40.3906C220.436 39.8438 220.28 39.5703 219.968 39.5703C218.744 39.5703 217.337 40.4167 215.749 42.1094C214.16 43.8021 212.715 45.7943 211.413 48.0859C210.111 50.3516 209.004 52.6823 208.093 55.0781C207.181 57.4479 206.725 59.2969 206.725 60.625C206.725 61.1719 206.869 61.4453 207.155 61.4453Z" fill="#212844"/>
<path d="M233.6 65.7031C236.83 65.8333 238.913 66.9531 239.85 69.0625L239.186 69.4531C238.692 68.5417 237.988 67.8255 237.077 67.3047C236.166 66.8099 234.85 66.5365 233.132 66.4844L226.061 78.2422C225.072 79.7786 224.069 81.1068 223.054 82.2266C222.038 83.3724 221.153 84.2188 220.397 84.7656C219.642 85.3385 218.9 85.7812 218.171 86.0938C217.416 86.4323 216.856 86.6276 216.491 86.6797C216.127 86.7578 215.801 86.7969 215.515 86.7969C214.265 86.7969 213.64 86.0026 213.64 84.4141C213.64 82.9297 214.121 81.263 215.085 79.4141C216.048 77.5911 217.272 75.8594 218.757 74.2188C220.241 72.5781 221.908 71.0547 223.757 69.6484C225.58 68.2682 227.337 67.2266 229.03 66.5234L234.108 58.3203C231.582 61.0807 229.824 62.4609 228.835 62.4609C227.663 62.4609 226.791 61.9271 226.218 60.8594C225.619 59.7917 225.319 58.4635 225.319 56.875C225.319 55.625 225.619 54.2839 226.218 52.8516C226.791 51.3932 227.559 50.013 228.522 48.7109C229.486 47.3828 230.567 46.1068 231.765 44.8828C232.988 43.6589 234.199 42.6042 235.397 41.7188C236.621 40.8073 237.806 40.0911 238.952 39.5703C240.124 39.0234 241.113 38.75 241.921 38.75C243.093 38.75 243.574 39.7917 243.366 41.875L245.007 38.9453H249.694L233.6 65.7031ZM228.835 61.4062C229.512 61.4062 230.58 60.6771 232.038 59.2188C233.496 57.7344 234.929 56.0938 236.335 54.2969L236.921 53.2422L242.155 44.0625C242.259 43.5417 242.35 43.0339 242.429 42.5391C242.507 42.0182 242.559 41.5234 242.585 41.0547C242.611 40.5859 242.559 40.2214 242.429 39.9609C242.324 39.6745 242.155 39.5312 241.921 39.5312C240.697 39.5312 239.278 40.3776 237.663 42.0703C236.048 43.763 234.577 45.7552 233.249 48.0469C231.921 50.3385 230.788 52.6693 229.85 55.0391C228.913 57.4089 228.444 59.2578 228.444 60.5859C228.444 61.1328 228.574 61.4062 228.835 61.4062ZM215.28 85.8203C215.879 85.8203 216.66 85.3125 217.624 84.2969C218.587 83.3073 219.551 82.0833 220.515 80.625C221.452 79.1927 222.363 77.7604 223.249 76.3281C224.108 74.8958 224.811 73.6849 225.358 72.6953L226.179 71.1719L228.249 67.7734C226.166 68.8151 224.069 70.3646 221.96 72.4219C219.824 74.4792 218.08 76.6406 216.725 78.9062C215.345 81.1719 214.655 83.112 214.655 84.7266C214.655 85.4036 214.863 85.7682 215.28 85.8203Z" fill="#212844"/>
<path d="M277.155 50.5859C276.4 51.6276 275.671 52.6302 274.968 53.5938C274.265 54.5312 273.574 55.4167 272.897 56.25C272.22 57.0833 271.53 57.8646 270.827 58.5938C270.15 59.3229 269.473 60.013 268.796 60.6641C267.442 61.9401 266.4 62.5781 265.671 62.5781C265.254 62.5781 264.85 62.4609 264.46 62.2266C264.069 61.9661 263.718 61.6016 263.405 61.1328C263.093 60.6641 262.845 60.0911 262.663 59.4141C262.481 58.7109 262.39 57.9036 262.39 56.9922C262.39 56.1328 262.715 54.9609 263.366 53.4766C264.017 51.9661 264.798 50.4036 265.71 48.7891C265.918 48.4505 266.1 48.125 266.257 47.8125C266.439 47.474 266.634 47.1484 266.843 46.8359C266.14 47.3568 265.384 47.7995 264.577 48.1641C263.77 48.5286 262.91 48.763 261.999 48.8672C262.207 49.8307 262.155 50.9505 261.843 52.2266C261.478 53.737 260.866 55.1302 260.007 56.4062C259.173 57.6823 258.184 58.7891 257.038 59.7266C255.892 60.638 254.655 61.3672 253.327 61.9141C251.999 62.4349 250.684 62.6953 249.382 62.6953C248.418 62.7995 247.65 62.6953 247.077 62.3828C246.504 62.0703 246.061 61.6276 245.749 61.0547C245.436 60.4818 245.254 59.8307 245.202 59.1016C245.124 58.3464 245.124 57.6042 245.202 56.875C245.28 56.1198 245.423 55.4036 245.632 54.7266C245.814 54.0495 246.009 53.4896 246.218 53.0469C247.337 50.2344 248.587 47.6953 249.968 45.4297C251.348 43.138 252.663 40.9766 253.913 38.9453H258.522C258.418 39.0755 257.936 39.8568 257.077 41.2891C256.218 42.6953 254.994 44.8568 253.405 47.7734C254.317 46.9661 255.202 46.3802 256.061 46.0156C256.947 45.651 257.754 45.4948 258.483 45.5469C259.239 45.5729 259.89 45.7943 260.436 46.2109C261.009 46.6016 261.439 47.1484 261.725 47.8516C263.002 47.7995 264.225 47.4089 265.397 46.6797C266.569 45.9245 267.598 45.1042 268.483 44.2188C268.926 43.4635 269.356 42.7865 269.772 42.1875C270.189 41.5625 270.567 41.0026 270.905 40.5078L271.882 39.0625H276.843C276.686 39.2969 276.504 39.5703 276.296 39.8828C276.087 40.1953 275.853 40.5339 275.593 40.8984C275.332 41.263 274.968 41.8099 274.499 42.5391C274.056 43.2422 273.496 44.1146 272.819 45.1562C272.142 46.1979 271.517 47.1875 270.944 48.125C270.371 49.0625 269.824 49.974 269.304 50.8594C268.783 51.7448 268.288 52.6432 267.819 53.5547C267.377 54.4401 266.947 55.3385 266.53 56.25C265.697 58.125 265.28 59.4792 265.28 60.3125C265.28 60.9896 265.554 61.3281 266.1 61.3281C266.778 61.3281 268.028 60.2995 269.85 58.2422C271.725 56.1328 273.77 53.5807 275.983 50.5859H277.155ZM250.944 52.4609C250.528 53.2682 250.124 54.2318 249.733 55.3516C249.343 56.4453 249.056 57.487 248.874 58.4766C248.718 59.4661 248.718 60.2865 248.874 60.9375C249.03 61.5885 249.447 61.875 250.124 61.7969C250.827 61.7188 251.543 61.3802 252.272 60.7812C253.028 60.1562 253.744 59.388 254.421 58.4766C255.124 57.5651 255.762 56.5625 256.335 55.4688C256.934 54.349 257.429 53.2422 257.819 52.1484C258.028 51.6016 258.223 50.9505 258.405 50.1953C258.614 49.4141 258.718 48.737 258.718 48.1641C258.692 47.487 258.483 47.0443 258.093 46.8359C257.702 46.6016 257.194 46.5625 256.569 46.7188C255.97 46.875 255.306 47.2005 254.577 47.6953C253.874 48.1901 253.171 48.8151 252.468 49.5703C252.207 50.013 251.947 50.4818 251.686 50.9766C251.452 51.4453 251.205 51.9401 250.944 52.4609Z" fill="#212844"/>
<path d="M299.89 40.1172C301.192 39.2057 302.35 38.75 303.366 38.75C303.861 38.75 304.265 38.9583 304.577 39.375C304.916 39.7656 305.124 40.3255 305.202 41.0547C305.306 41.7839 305.28 42.6693 305.124 43.7109C304.968 44.7526 304.668 45.9115 304.225 47.1875C306.205 47.1094 308.705 45.8594 311.725 43.4375L312.39 44.3359C310.332 45.9245 308.666 46.9792 307.39 47.5C306.166 47.9948 305.02 48.2422 303.952 48.2422H303.796C303.587 48.8151 303.34 49.388 303.054 49.9609C302.767 50.5339 302.442 51.1198 302.077 51.7188C300.254 54.974 298.236 57.5911 296.022 59.5703C293.861 61.4974 292.038 62.4609 290.554 62.4609C289.382 62.4609 288.509 61.9271 287.936 60.8594C287.337 59.7917 287.038 58.4766 287.038 56.9141C287.038 54.9349 287.689 52.7865 288.991 50.4688C290.293 48.2031 291.452 46.1589 292.468 44.3359C293.483 42.487 294.421 40.7943 295.28 39.2578C296.166 37.7214 296.999 36.2891 297.78 34.9609C298.587 33.6068 299.408 32.2917 300.241 31.0156C301.361 29.2969 302.533 27.6432 303.757 26.0547C304.981 24.4401 306.218 23.0208 307.468 21.7969C308.744 20.5729 309.994 19.6354 311.218 18.9844C312.442 18.3073 313.614 18.0469 314.733 18.2031C315.593 18.3333 316.127 18.8281 316.335 19.6875C316.543 20.5469 316.517 21.5365 316.257 22.6562C316.048 23.4896 315.658 24.4271 315.085 25.4688C314.538 26.4844 313.848 27.5521 313.015 28.6719C312.181 29.7917 311.231 30.9115 310.163 32.0312C309.121 33.151 308.028 34.2318 306.882 35.2734C305.736 36.2891 304.564 37.2135 303.366 38.0469C302.168 38.8802 301.009 39.5703 299.89 40.1172ZM300.983 51.3281C301.322 50.7292 301.634 50.1562 301.921 49.6094C302.207 49.0365 302.455 48.4896 302.663 47.9688C302.038 47.6562 301.608 47.1615 301.374 46.4844C301.14 45.7812 301.061 45.1042 301.14 44.4531C301.218 43.6979 301.595 42.9167 302.272 42.1094C302.897 41.3281 303.574 40.8724 304.304 40.7422C304.095 39.9609 303.77 39.5703 303.327 39.5703C303.093 39.5703 302.78 39.6484 302.39 39.8047C302.025 39.9609 301.621 40.1823 301.179 40.4688C300.736 40.7292 300.267 41.0417 299.772 41.4062C299.304 41.7708 298.848 42.1615 298.405 42.5781C298.275 42.8385 298.08 43.1641 297.819 43.5547C297.585 43.9453 297.298 44.4141 296.96 44.9609C296.621 45.4818 296.322 45.9375 296.061 46.3281C295.827 46.7188 295.645 47.0182 295.515 47.2266C295.228 47.6953 294.916 48.2031 294.577 48.75C294.239 49.2969 293.874 49.8698 293.483 50.4688C292.962 51.4844 292.494 52.487 292.077 53.4766C291.686 54.4401 291.335 55.3646 291.022 56.25C290.736 57.1094 290.515 57.9167 290.358 58.6719C290.202 59.4271 290.124 60.0781 290.124 60.625C290.124 61.1719 290.267 61.4453 290.554 61.4453C291.752 61.4453 293.392 60.4688 295.475 58.5156C297.611 56.5365 299.447 54.1406 300.983 51.3281ZM299.343 39.4922C300.619 38.6849 301.921 37.7474 303.249 36.6797C304.577 35.612 305.853 34.4792 307.077 33.2812C308.327 32.0833 309.473 30.8464 310.515 29.5703C311.556 28.2682 312.403 26.9922 313.054 25.7422C313.731 24.4661 314.186 23.2292 314.421 22.0312C314.655 20.8333 314.577 19.7266 314.186 18.7109C313.561 18.5547 312.91 18.6979 312.233 19.1406C311.556 19.5833 310.866 20.2344 310.163 21.0938C309.486 21.9271 308.796 22.9036 308.093 24.0234C307.416 25.1172 306.752 26.237 306.1 27.3828C305.475 28.5286 304.877 29.6354 304.304 30.7031C303.757 31.7448 303.262 32.6302 302.819 33.3594C302.168 34.5312 301.556 35.599 300.983 36.5625C300.41 37.5 299.864 38.4766 299.343 39.4922Z" fill="#212844"/>
<path d="M328.561 50.4688H329.733C329.525 50.8073 329.239 51.25 328.874 51.7969C328.535 52.3177 327.858 53.2682 326.843 54.6484C325.853 56.0286 324.903 57.2526 323.991 58.3203C323.106 59.362 322.103 60.3125 320.983 61.1719C319.89 62.0312 318.965 62.4609 318.21 62.4609C317.35 62.4609 316.582 61.9792 315.905 61.0156C315.228 60.0521 314.89 58.6719 314.89 56.875C314.89 56.3021 315.046 55.5599 315.358 54.6484C311.322 59.8568 308.561 62.4609 307.077 62.4609C306.244 62.4609 305.489 61.9792 304.811 61.0156C304.134 60.0521 303.796 58.6719 303.796 56.875C303.796 56.0677 304.121 54.8958 304.772 53.3594C305.423 51.8229 306.205 50.2604 307.116 48.6719C308.054 47.0573 308.991 45.5078 309.929 44.0234C310.866 42.5391 311.66 41.3281 312.311 40.3906L313.288 38.9453H318.249C317.936 39.4141 317.52 40.026 316.999 40.7812C316.478 41.5365 315.554 42.9557 314.225 45.0391C312.897 47.0964 311.725 48.9974 310.71 50.7422C309.694 52.487 308.77 54.2839 307.936 56.1328C307.103 57.9557 306.686 59.3099 306.686 60.1953C306.686 60.8724 306.96 61.2109 307.507 61.2109C308.679 61.2109 311.882 57.7344 317.116 50.7812C317.949 49.1667 318.965 47.3828 320.163 45.4297C321.387 43.4505 322.39 41.875 323.171 40.7031L324.382 38.9453H329.343C329.03 39.4141 328.6 40.026 328.054 40.7812C327.533 41.5365 326.608 42.9557 325.28 45.0391C323.952 47.0964 322.78 48.9974 321.765 50.7422C320.775 52.487 319.864 54.2839 319.03 56.1328C318.197 57.9557 317.78 59.3099 317.78 60.1953C317.78 60.8724 318.054 61.2109 318.6 61.2109C319.069 61.2109 319.707 60.8724 320.515 60.1953C321.322 59.5182 322.103 58.75 322.858 57.8906C323.614 57.0312 324.447 56.0156 325.358 54.8438C326.27 53.6719 326.934 52.7865 327.35 52.1875C327.793 51.5885 328.197 51.0156 328.561 50.4688Z" fill="#212844"/>
<path d="M334.772 65.7031C338.002 65.8333 340.085 66.9531 341.022 69.0625L340.358 69.4531C339.864 68.5417 339.16 67.8255 338.249 67.3047C337.337 66.8099 336.022 66.5365 334.304 66.4844L327.233 78.2422C326.244 79.7786 325.241 81.1068 324.225 82.2266C323.21 83.3724 322.324 84.2188 321.569 84.7656C320.814 85.3385 320.072 85.7812 319.343 86.0938C318.587 86.4323 318.028 86.6276 317.663 86.6797C317.298 86.7578 316.973 86.7969 316.686 86.7969C315.436 86.7969 314.811 86.0026 314.811 84.4141C314.811 82.9297 315.293 81.263 316.257 79.4141C317.22 77.5911 318.444 75.8594 319.929 74.2188C321.413 72.5781 323.08 71.0547 324.929 69.6484C326.752 68.2682 328.509 67.2266 330.202 66.5234L335.28 58.3203C332.754 61.0807 330.996 62.4609 330.007 62.4609C328.835 62.4609 327.962 61.9271 327.39 60.8594C326.791 59.7917 326.491 58.4635 326.491 56.875C326.491 55.625 326.791 54.2839 327.39 52.8516C327.962 51.3932 328.731 50.013 329.694 48.7109C330.658 47.3828 331.739 46.1068 332.936 44.8828C334.16 43.6589 335.371 42.6042 336.569 41.7188C337.793 40.8073 338.978 40.0911 340.124 39.5703C341.296 39.0234 342.285 38.75 343.093 38.75C344.265 38.75 344.746 39.7917 344.538 41.875L346.179 38.9453H350.866L334.772 65.7031ZM330.007 61.4062C330.684 61.4062 331.752 60.6771 333.21 59.2188C334.668 57.7344 336.1 56.0938 337.507 54.2969L338.093 53.2422L343.327 44.0625C343.431 43.5417 343.522 43.0339 343.6 42.5391C343.679 42.0182 343.731 41.5234 343.757 41.0547C343.783 40.5859 343.731 40.2214 343.6 39.9609C343.496 39.6745 343.327 39.5312 343.093 39.5312C341.869 39.5312 340.449 40.3776 338.835 42.0703C337.22 43.763 335.749 45.7552 334.421 48.0469C333.093 50.3385 331.96 52.6693 331.022 55.0391C330.085 57.4089 329.616 59.2578 329.616 60.5859C329.616 61.1328 329.746 61.4062 330.007 61.4062ZM316.452 85.8203C317.051 85.8203 317.832 85.3125 318.796 84.2969C319.759 83.3073 320.723 82.0833 321.686 80.625C322.624 79.1927 323.535 77.7604 324.421 76.3281C325.28 74.8958 325.983 73.6849 326.53 72.6953L327.35 71.1719L329.421 67.7734C327.337 68.8151 325.241 70.3646 323.132 72.4219C320.996 74.4792 319.252 76.6406 317.897 78.9062C316.517 81.1719 315.827 83.112 315.827 84.7266C315.827 85.4036 316.035 85.7682 316.452 85.8203Z" fill="#212844"/>
<path d="M351.686 61.4453C354.291 61.4453 358.392 57.7865 363.991 50.4688H365.202C363.978 52.0833 362.793 53.5547 361.647 54.8828C360.528 56.1849 359.343 57.4349 358.093 58.6328C356.869 59.8307 355.684 60.7682 354.538 61.4453C353.392 62.1224 352.364 62.4609 351.452 62.4609C350.072 62.4609 348.9 61.9661 347.936 60.9766C346.999 59.987 346.53 58.4896 346.53 56.4844C346.53 54.7396 347.051 52.8125 348.093 50.7031C349.134 48.5677 350.423 46.6276 351.96 44.8828C353.522 43.138 355.254 41.6797 357.155 40.5078C359.056 39.3359 360.814 38.75 362.429 38.75C362.715 38.75 363.002 38.8021 363.288 38.9062C363.6 39.0104 363.913 39.1927 364.225 39.4531C364.538 39.6875 364.785 40.0651 364.968 40.5859C365.176 41.0807 365.28 41.7057 365.28 42.4609C365.28 44.1797 364.577 45.8333 363.171 47.4219C361.765 49.0104 360.085 50.1693 358.132 50.8984C356.179 51.6016 354.46 51.6797 352.975 51.1328C351.153 54.4922 350.241 57.0964 350.241 58.9453C350.241 60.612 350.723 61.4453 351.686 61.4453ZM362.194 39.5703C361.491 39.5703 360.202 40.7161 358.327 43.0078C356.478 45.2995 354.785 47.8255 353.249 50.5859C354.212 50.7422 355.189 50.5859 356.179 50.1172C357.194 49.6484 358.08 49.0104 358.835 48.2031C359.616 47.3698 360.306 46.4714 360.905 45.5078C361.53 44.5182 361.999 43.5677 362.311 42.6562C362.65 41.7448 362.819 40.9896 362.819 40.3906C362.819 39.8438 362.611 39.5703 362.194 39.5703Z" fill="#212844"/>
<path d="M395.241 50.4688H396.413C395.892 51.3021 395.345 52.1224 394.772 52.9297C394.199 53.737 393.431 54.7526 392.468 55.9766C391.504 57.2005 390.593 58.2682 389.733 59.1797C388.9 60.0651 388.002 60.8333 387.038 61.4844C386.1 62.1354 385.267 62.4609 384.538 62.4609C384.304 62.4609 384.043 62.4349 383.757 62.3828C383.496 62.3047 383.197 62.1615 382.858 61.9531C382.52 61.7448 382.22 61.4714 381.96 61.1328C381.699 60.7943 381.478 60.3125 381.296 59.6875C381.114 59.0625 381.022 58.3333 381.022 57.5C381.022 56.6406 381.374 55.5599 382.077 54.2578C382.78 52.9557 383.627 51.6536 384.616 50.3516C385.606 49.0234 386.582 47.7474 387.546 46.5234C388.535 45.2734 389.382 44.1276 390.085 43.0859C390.788 42.0443 391.14 41.2891 391.14 40.8203C391.14 40.2734 390.931 40 390.515 40C389.942 40 389.16 40.4036 388.171 41.2109C387.181 41.9922 386.166 42.9818 385.124 44.1797C384.082 45.3516 382.923 46.7708 381.647 48.4375C380.371 50.0781 379.225 51.5885 378.21 52.9688C377.22 54.349 376.205 55.7943 375.163 57.3047C373.835 59.388 372.715 61.0417 371.804 62.2656H367.585C368.028 61.4844 369.382 59.349 371.647 55.8594C373.913 52.3698 375.853 49.2188 377.468 46.4062C379.082 43.5677 379.89 41.7057 379.89 40.8203C379.89 40.2734 379.72 40 379.382 40C378.939 40 378.262 40.3906 377.35 41.1719C376.465 41.9271 375.554 42.8255 374.616 43.8672C373.679 44.9089 372.637 46.1589 371.491 47.6172C370.345 49.0495 369.395 50.2604 368.64 51.25C367.91 52.2135 367.181 53.1901 366.452 54.1797L361.686 62.2656H357.116L360.71 56.7578L363.952 50.5469L371.1 38.9453H375.593C375.489 39.1276 375.215 39.5573 374.772 40.2344C374.356 40.9115 373.874 41.6797 373.327 42.5391C372.806 43.3984 372.442 43.9974 372.233 44.3359C371.4 45.6901 370.762 46.7057 370.319 47.3828C374.616 41.6276 377.845 38.75 380.007 38.75C380.788 38.75 381.439 39.0234 381.96 39.5703C382.507 40.0911 382.78 40.9115 382.78 42.0312C382.78 43.2552 381.908 45.5078 380.163 48.7891C384.824 42.0964 388.483 38.75 391.14 38.75C391.973 38.75 392.663 39.0104 393.21 39.5312C393.757 40.0521 394.03 40.8854 394.03 42.0312C394.03 42.9948 393.666 44.1667 392.936 45.5469C392.233 46.9271 391.374 48.3073 390.358 49.6875C389.369 51.0677 388.366 52.4219 387.35 53.75C386.335 55.0781 385.475 56.3281 384.772 57.5C384.069 58.6458 383.718 59.5443 383.718 60.1953C383.718 61.0286 383.991 61.4453 384.538 61.4453C385.085 61.4453 385.749 61.1719 386.53 60.625C387.337 60.0521 388.119 59.375 388.874 58.5938C389.629 57.7865 390.436 56.849 391.296 55.7812C392.181 54.7135 392.91 53.776 393.483 52.9688C394.082 52.1354 394.668 51.3021 395.241 50.4688Z" fill="#212844"/>
<path d="M394.421 53.0469C395.541 50.2344 396.791 47.6953 398.171 45.4297C399.551 43.138 400.866 40.9766 402.116 38.9453H406.725C406.621 39.0755 406.14 39.8568 405.28 41.2891C404.421 42.6953 403.197 44.8568 401.608 47.7734C402.676 46.8099 403.718 46.1589 404.733 45.8203C405.749 45.4818 406.66 45.4167 407.468 45.625C408.275 45.8333 408.926 46.2891 409.421 46.9922C409.942 47.6693 410.241 48.5417 410.319 49.6094C410.788 49.5312 411.309 49.401 411.882 49.2188C412.455 49.0365 413.028 48.8021 413.6 48.5156C414.173 48.2292 414.72 47.8776 415.241 47.4609C415.788 47.0443 416.27 46.5755 416.686 46.0547L417.35 46.6797C415.632 48.7891 413.275 50.1042 410.28 50.625C410.228 51.1458 410.15 51.6797 410.046 52.2266C409.681 53.737 409.069 55.1302 408.21 56.4062C407.377 57.6823 406.387 58.7891 405.241 59.7266C404.095 60.638 402.858 61.3672 401.53 61.9141C400.202 62.4349 398.887 62.6953 397.585 62.6953C396.621 62.7995 395.853 62.6953 395.28 62.3828C394.707 62.0703 394.265 61.6276 393.952 61.0547C393.64 60.4818 393.457 59.8307 393.405 59.1016C393.327 58.3464 393.327 57.6042 393.405 56.875C393.483 56.1198 393.627 55.4036 393.835 54.7266C394.017 54.0495 394.212 53.4896 394.421 53.0469ZM399.147 52.4609C398.731 53.2682 398.327 54.2318 397.936 55.3516C397.546 56.4453 397.259 57.487 397.077 58.4766C396.921 59.4661 396.921 60.2865 397.077 60.9375C397.233 61.5885 397.65 61.875 398.327 61.7969C399.03 61.7188 399.746 61.3802 400.475 60.7812C401.231 60.1562 401.947 59.388 402.624 58.4766C403.327 57.5651 403.965 56.5625 404.538 55.4688C405.137 54.349 405.632 53.2422 406.022 52.1484C406.231 51.6016 406.426 50.9505 406.608 50.1953C406.817 49.4141 406.921 48.737 406.921 48.1641C406.895 47.487 406.686 47.0443 406.296 46.8359C405.905 46.6016 405.397 46.5625 404.772 46.7188C404.173 46.875 403.509 47.2005 402.78 47.6953C402.077 48.1901 401.374 48.8151 400.671 49.5703C400.41 50.013 400.15 50.4818 399.89 50.9766C399.655 51.4453 399.408 51.9401 399.147 52.4609Z" fill="#212844"/>
<path d="M437.468 40.1172C438.77 39.2057 439.929 38.75 440.944 38.75C441.439 38.75 441.843 38.9583 442.155 39.375C442.494 39.7656 442.702 40.3255 442.78 41.0547C442.884 41.7839 442.858 42.6693 442.702 43.7109C442.546 44.7526 442.246 45.9115 441.804 47.1875C443.783 47.1094 446.283 45.8594 449.304 43.4375L449.968 44.3359C447.91 45.9245 446.244 46.9792 444.968 47.5C443.744 47.9948 442.598 48.2422 441.53 48.2422H441.374C441.166 48.8151 440.918 49.388 440.632 49.9609C440.345 50.5339 440.02 51.1198 439.655 51.7188C437.832 54.974 435.814 57.5911 433.6 59.5703C431.439 61.4974 429.616 62.4609 428.132 62.4609C426.96 62.4609 426.087 61.9271 425.515 60.8594C424.916 59.7917 424.616 58.4766 424.616 56.9141C424.616 54.9349 425.267 52.7865 426.569 50.4688C427.871 48.2031 429.03 46.1589 430.046 44.3359C431.061 42.487 431.999 40.7943 432.858 39.2578C433.744 37.7214 434.577 36.2891 435.358 34.9609C436.166 33.6068 436.986 32.2917 437.819 31.0156C438.939 29.2969 440.111 27.6432 441.335 26.0547C442.559 24.4401 443.796 23.0208 445.046 21.7969C446.322 20.5729 447.572 19.6354 448.796 18.9844C450.02 18.3073 451.192 18.0469 452.311 18.2031C453.171 18.3333 453.705 18.8281 453.913 19.6875C454.121 20.5469 454.095 21.5365 453.835 22.6562C453.627 23.4896 453.236 24.4271 452.663 25.4688C452.116 26.4844 451.426 27.5521 450.593 28.6719C449.759 29.7917 448.809 30.9115 447.741 32.0312C446.699 33.151 445.606 34.2318 444.46 35.2734C443.314 36.2891 442.142 37.2135 440.944 38.0469C439.746 38.8802 438.587 39.5703 437.468 40.1172ZM438.561 51.3281C438.9 50.7292 439.212 50.1562 439.499 49.6094C439.785 49.0365 440.033 48.4896 440.241 47.9688C439.616 47.6562 439.186 47.1615 438.952 46.4844C438.718 45.7812 438.64 45.1042 438.718 44.4531C438.796 43.6979 439.173 42.9167 439.85 42.1094C440.475 41.3281 441.153 40.8724 441.882 40.7422C441.673 39.9609 441.348 39.5703 440.905 39.5703C440.671 39.5703 440.358 39.6484 439.968 39.8047C439.603 39.9609 439.199 40.1823 438.757 40.4688C438.314 40.7292 437.845 41.0417 437.35 41.4062C436.882 41.7708 436.426 42.1615 435.983 42.5781C435.853 42.8385 435.658 43.1641 435.397 43.5547C435.163 43.9453 434.877 44.4141 434.538 44.9609C434.199 45.4818 433.9 45.9375 433.64 46.3281C433.405 46.7188 433.223 47.0182 433.093 47.2266C432.806 47.6953 432.494 48.2031 432.155 48.75C431.817 49.2969 431.452 49.8698 431.061 50.4688C430.541 51.4844 430.072 52.487 429.655 53.4766C429.265 54.4401 428.913 55.3646 428.6 56.25C428.314 57.1094 428.093 57.9167 427.936 58.6719C427.78 59.4271 427.702 60.0781 427.702 60.625C427.702 61.1719 427.845 61.4453 428.132 61.4453C429.33 61.4453 430.97 60.4688 433.054 58.5156C435.189 56.5365 437.025 54.1406 438.561 51.3281ZM436.921 39.4922C438.197 38.6849 439.499 37.7474 440.827 36.6797C442.155 35.612 443.431 34.4792 444.655 33.2812C445.905 32.0833 447.051 30.8464 448.093 29.5703C449.134 28.2682 449.981 26.9922 450.632 25.7422C451.309 24.4661 451.765 23.2292 451.999 22.0312C452.233 20.8333 452.155 19.7266 451.765 18.7109C451.14 18.5547 450.489 18.6979 449.811 19.1406C449.134 19.5833 448.444 20.2344 447.741 21.0938C447.064 21.9271 446.374 22.9036 445.671 24.0234C444.994 25.1172 444.33 26.237 443.679 27.3828C443.054 28.5286 442.455 29.6354 441.882 30.7031C441.335 31.7448 440.84 32.6302 440.397 33.3594C439.746 34.5312 439.134 35.599 438.561 36.5625C437.989 37.5 437.442 38.4766 436.921 39.4922Z" fill="#212844"/>
<path d="M464.733 50.4688H465.866C465.658 50.8073 465.371 51.25 465.007 51.7969C464.668 52.3177 464.004 53.2682 463.015 54.6484C462.025 56.0286 461.061 57.2526 460.124 58.3203C459.212 59.362 458.21 60.3125 457.116 61.1719C456.022 62.0312 455.085 62.4609 454.304 62.4609C453.496 62.4609 452.741 61.9792 452.038 61.0156C451.361 60.0521 451.022 58.6719 451.022 56.875V56.6797C448.132 60.5339 445.931 62.4609 444.421 62.4609C443.249 62.4609 442.377 61.9271 441.804 60.8594C441.205 59.7917 440.905 58.4635 440.905 56.875C440.905 55.3906 441.309 53.776 442.116 52.0312C442.923 50.2604 443.965 48.6198 445.241 47.1094C446.517 45.5729 447.884 44.1667 449.343 42.8906C450.801 41.6146 452.233 40.612 453.64 39.8828C455.072 39.1276 456.27 38.75 457.233 38.75C458.535 38.75 458.952 39.8307 458.483 41.9922L460.515 38.9453H465.475C465.163 39.4141 464.746 40.026 464.225 40.7812C463.705 41.5365 462.78 42.9557 461.452 45.0391C460.124 47.0964 458.952 48.9974 457.936 50.7422C456.921 52.487 455.996 54.2839 455.163 56.1328C454.33 57.9557 453.913 59.3099 453.913 60.1953C453.913 60.8724 454.186 61.2109 454.733 61.2109C455.202 61.2109 455.84 60.8724 456.647 60.1953C457.481 59.5182 458.275 58.75 459.03 57.8906C459.785 57.0312 460.606 56.0156 461.491 54.8438C462.403 53.6719 463.067 52.7865 463.483 52.1875C463.926 51.5885 464.343 51.0156 464.733 50.4688ZM444.421 61.4453C445.697 61.4453 448.158 58.9062 451.804 53.8281C452.559 51.9531 453.965 49.3099 456.022 45.8984C456.205 45.5078 456.413 45 456.647 44.375C456.908 43.724 457.155 43.0339 457.39 42.3047C457.624 41.5495 457.728 40.9115 457.702 40.3906C457.702 39.8438 457.546 39.5703 457.233 39.5703C456.009 39.5703 454.603 40.4167 453.015 42.1094C451.426 43.8021 449.981 45.7943 448.679 48.0859C447.377 50.3516 446.27 52.6823 445.358 55.0781C444.447 57.4479 443.991 59.2969 443.991 60.625C443.991 61.1719 444.134 61.4453 444.421 61.4453Z" fill="#212844"/>
<path d="M481.218 50.4688C480.515 51.5365 479.824 52.5391 479.147 53.4766C478.47 54.4141 477.624 55.4557 476.608 56.6016C475.619 57.7474 474.655 58.737 473.718 59.5703C472.78 60.3776 471.765 61.0677 470.671 61.6406C469.577 62.1875 468.548 62.4609 467.585 62.4609C466.205 62.4609 465.033 61.9792 464.069 61.0156C463.132 60.0521 462.663 58.5807 462.663 56.6016C462.663 55.2214 463.002 53.6979 463.679 52.0312C464.33 50.3646 465.202 48.763 466.296 47.2266C467.416 45.6901 468.64 44.2839 469.968 43.0078C471.322 41.7318 472.741 40.7031 474.225 39.9219C475.71 39.1406 477.09 38.75 478.366 38.75C478.653 38.75 478.939 38.8021 479.225 38.9062C479.512 39.0104 479.811 39.1927 480.124 39.4531C480.462 39.6875 480.723 40.0651 480.905 40.5859C481.114 41.0807 481.218 41.6927 481.218 42.4219C481.218 43.2552 480.918 44.1406 480.319 45.0781C479.746 46.0156 479.095 46.4844 478.366 46.4844C478.002 46.4844 477.702 46.3542 477.468 46.0938C477.233 45.8333 477.116 45.4167 477.116 44.8438C477.116 44.2708 477.298 43.6589 477.663 43.0078C478.054 42.3568 478.431 41.8099 478.796 41.3672C479.186 40.9245 479.382 40.6641 479.382 40.5859C479.382 40.3776 479.278 40.1562 479.069 39.9219C478.861 39.6875 478.627 39.5703 478.366 39.5703C477.741 39.5703 476.739 40.3516 475.358 41.9141C473.978 43.4505 472.611 45.2734 471.257 47.3828C469.903 49.4661 468.705 51.6667 467.663 53.9844C466.647 56.3021 466.14 58.125 466.14 59.4531C466.14 60.1042 466.27 60.599 466.53 60.9375C466.817 61.276 467.298 61.4453 467.975 61.4453C470.97 61.4453 474.981 57.7865 480.007 50.4688H481.218Z" fill="#212844"/>
<path d="M483.132 52.0703L501.647 14.4531H508.913L484.108 52.0703H483.132ZM479.85 62.4609C479.095 62.4609 478.535 62.2396 478.171 61.7969C477.78 61.3281 477.598 60.7812 477.624 60.1562C477.676 59.401 477.949 58.776 478.444 58.2812C478.939 57.7865 479.59 57.5391 480.397 57.5391C481.257 57.5391 481.856 57.7995 482.194 58.3203C482.533 58.8151 482.676 59.349 482.624 59.9219C482.572 60.599 482.298 61.1979 481.804 61.7188C481.335 62.2135 480.684 62.4609 479.85 62.4609Z" fill="#212844"/>
<path d="M188.554 102.195C187.382 102.534 186.249 103.029 185.155 103.68C184.061 104.305 183.02 105.073 182.03 105.984C183.853 107.781 185.377 109.799 186.6 112.039C187.824 114.253 188.697 116.622 189.218 119.148C189.738 121.674 189.869 124.305 189.608 127.039C189.374 129.773 188.71 132.534 187.616 135.32C186.314 138.549 184.543 141.427 182.304 143.953C180.09 146.453 177.538 148.589 174.647 150.359C171.783 152.104 168.658 153.458 165.272 154.422C161.887 155.359 158.397 155.867 154.804 155.945C152.85 155.945 150.962 155.776 149.14 155.438C147.343 155.125 145.559 154.734 143.788 154.266C143.267 154.474 142.72 154.669 142.147 154.852C141.6 155.034 141.041 155.216 140.468 155.398C139.973 155.529 139.257 155.685 138.319 155.867C137.408 156.049 136.366 156.219 135.194 156.375C134.048 156.531 132.811 156.661 131.483 156.766C130.155 156.87 128.827 156.922 127.499 156.922C126.197 156.922 124.947 156.857 123.749 156.727C122.551 156.622 121.483 156.414 120.546 156.102C119.634 155.789 118.905 155.359 118.358 154.812C117.811 154.292 117.538 153.641 117.538 152.859C117.538 152.208 117.785 151.648 118.28 151.18C118.801 150.711 119.4 150.32 120.077 150.008C120.78 149.695 121.483 149.461 122.186 149.305C122.916 149.148 123.502 149.07 123.944 149.07H125.546C127.134 149.07 128.671 149.201 130.155 149.461C131.666 149.721 133.137 150.047 134.569 150.438C136.002 150.828 137.421 151.258 138.827 151.727C140.233 152.169 141.64 152.599 143.046 153.016C145.546 151.896 147.694 150.542 149.491 148.953C151.314 147.339 152.968 145.542 154.452 143.562C155.936 141.557 157.343 139.383 158.671 137.039C159.999 134.695 161.405 132.208 162.89 129.578C163.879 127.833 164.947 125.958 166.093 123.953C167.265 121.948 168.541 119.93 169.921 117.898C171.301 115.841 172.798 113.836 174.413 111.883C176.028 109.93 177.798 108.133 179.725 106.492C178.267 104.747 176.431 103.315 174.218 102.195C171.145 100.737 167.89 99.8776 164.452 99.6172C161.041 99.3568 157.629 99.6042 154.218 100.359C150.832 101.115 147.538 102.326 144.335 103.992C141.158 105.633 138.28 107.638 135.702 110.008C133.124 112.352 130.936 114.995 129.14 117.938C127.343 120.854 126.145 123.979 125.546 127.312C125.285 128.797 125.129 130.229 125.077 131.609C125.051 132.99 125.168 134.292 125.429 135.516C125.689 136.74 126.119 137.859 126.718 138.875C127.317 139.891 128.111 140.763 129.1 141.492C130.663 142.664 132.33 143.419 134.1 143.758C135.897 144.07 137.707 144.057 139.53 143.719C141.379 143.38 143.215 142.755 145.038 141.844C146.861 140.932 148.593 139.839 150.233 138.562C151.9 137.26 153.423 135.802 154.804 134.188C156.21 132.573 157.395 130.906 158.358 129.188C159.322 127.469 160.038 125.737 160.507 123.992C161.002 122.247 161.158 120.568 160.975 118.953C160.897 117.781 160.663 116.674 160.272 115.633C159.908 114.565 159.361 113.641 158.632 112.859C157.903 112.078 157.004 111.466 155.936 111.023C154.869 110.581 153.593 110.372 152.108 110.398C150.337 110.424 148.684 110.789 147.147 111.492C145.611 112.169 144.244 113.081 143.046 114.227C141.848 115.346 140.845 116.622 140.038 118.055C139.231 119.487 138.671 120.945 138.358 122.43C138.228 122.638 138.15 122.846 138.124 123.055C138.124 123.263 138.124 123.497 138.124 123.758C138.15 124.253 138.033 124.63 137.772 124.891C137.512 125.125 137.252 125.216 136.991 125.164C136.757 125.086 136.587 124.852 136.483 124.461C136.379 124.044 136.496 123.445 136.835 122.664C137.304 120.841 138.02 119.122 138.983 117.508C139.947 115.867 141.106 114.422 142.46 113.172C143.814 111.922 145.35 110.932 147.069 110.203C148.788 109.474 150.65 109.096 152.655 109.07C153.541 109.044 154.517 109.188 155.585 109.5C156.679 109.812 157.694 110.346 158.632 111.102C159.595 111.857 160.416 112.859 161.093 114.109C161.796 115.359 162.212 116.922 162.343 118.797C162.499 120.568 162.291 122.43 161.718 124.383C161.171 126.336 160.35 128.263 159.257 130.164C158.163 132.065 156.848 133.888 155.311 135.633C153.775 137.378 152.108 138.953 150.311 140.359C148.515 141.74 146.613 142.885 144.608 143.797C142.629 144.708 140.637 145.294 138.632 145.555C136.653 145.789 134.699 145.633 132.772 145.086C130.845 144.539 129.048 143.497 127.382 141.961C126.392 141.049 125.611 139.904 125.038 138.523C124.491 137.143 124.114 135.646 123.905 134.031C123.723 132.417 123.71 130.763 123.866 129.07C124.022 127.378 124.335 125.763 124.804 124.227C125.507 121.909 126.509 119.669 127.811 117.508C129.114 115.346 130.637 113.328 132.382 111.453C134.153 109.552 136.106 107.82 138.241 106.258C140.377 104.669 142.629 103.289 144.999 102.117C147.369 100.945 149.817 100.008 152.343 99.3047C154.895 98.6016 157.447 98.1849 159.999 98.0547C162.577 97.8984 165.116 98.0547 167.616 98.5234C170.142 98.9661 172.577 99.7734 174.921 100.945C176.093 101.544 177.212 102.208 178.28 102.938C179.348 103.641 180.337 104.422 181.249 105.281C182.421 104.37 183.619 103.549 184.843 102.82C186.093 102.065 187.421 101.414 188.827 100.867C188.905 100.815 188.97 100.841 189.022 100.945C189.1 101.049 189.166 101.18 189.218 101.336C189.218 101.492 189.166 101.661 189.061 101.844C188.983 102 188.814 102.117 188.554 102.195ZM166.913 129.656C165.611 132.156 164.231 134.591 162.772 136.961C161.314 139.331 159.712 141.557 157.968 143.641C156.223 145.698 154.296 147.586 152.186 149.305C150.103 150.997 147.798 152.43 145.272 153.602C146.861 154.018 148.475 154.318 150.116 154.5C151.757 154.682 153.475 154.682 155.272 154.5C158.033 154.214 160.637 153.523 163.085 152.43C165.559 151.336 167.85 149.956 169.96 148.289C172.069 146.596 173.97 144.669 175.663 142.508C177.382 140.32 178.853 138.029 180.077 135.633C181.301 133.211 182.252 130.724 182.929 128.172C183.632 125.62 184.022 123.12 184.1 120.672C184.179 118.224 183.918 115.88 183.319 113.641C182.746 111.375 181.809 109.331 180.507 107.508C179.231 108.836 178.007 110.346 176.835 112.039C175.689 113.732 174.556 115.529 173.436 117.43C172.343 119.331 171.249 121.323 170.155 123.406C169.087 125.464 168.007 127.547 166.913 129.656ZM124.413 150.438C123.762 150.464 123.124 150.529 122.499 150.633C121.9 150.711 121.353 150.854 120.858 151.062C120.364 151.271 119.934 151.544 119.569 151.883C119.231 152.221 119.009 152.638 118.905 153.133C119.244 153.94 119.869 154.565 120.78 155.008C121.692 155.451 122.772 155.75 124.022 155.906C125.298 156.089 126.666 156.154 128.124 156.102C129.582 156.049 131.015 155.932 132.421 155.75C133.827 155.568 135.155 155.346 136.405 155.086C137.655 154.826 138.684 154.578 139.491 154.344C140.194 154.109 140.897 153.862 141.6 153.602C140.246 153.211 138.879 152.82 137.499 152.43C136.145 152.039 134.765 151.688 133.358 151.375C131.952 151.062 130.507 150.828 129.022 150.672C127.538 150.49 126.002 150.411 124.413 150.438Z" fill="#212844"/>
<path d="M212.147 135.438L212.811 136.336C211.535 137.43 210.455 138.25 209.569 138.797C208.71 139.318 207.942 139.682 207.265 139.891C206.952 139.969 206.718 140.034 206.561 140.086C206.405 140.138 206.184 140.177 205.897 140.203C205.767 140.229 205.65 140.242 205.546 140.242C205.468 140.242 205.403 140.242 205.35 140.242H204.257C204.022 140.815 203.762 141.388 203.475 141.961C203.189 142.534 202.877 143.12 202.538 143.719C200.715 146.974 198.697 149.591 196.483 151.57C194.322 153.497 192.486 154.461 190.975 154.461C189.804 154.461 188.931 153.927 188.358 152.859C187.759 151.792 187.46 150.464 187.46 148.875C187.46 148.146 187.564 147.365 187.772 146.531C187.981 145.698 188.28 144.865 188.671 144.031C189.061 143.172 189.517 142.326 190.038 141.492C190.585 140.659 191.171 139.865 191.796 139.109C192.707 137.964 193.71 136.883 194.804 135.867C195.897 134.852 196.991 133.966 198.085 133.211C199.179 132.43 200.22 131.818 201.21 131.375C202.199 130.932 203.059 130.724 203.788 130.75C204.283 130.75 204.686 130.958 204.999 131.375C205.337 131.766 205.559 132.326 205.663 133.055C205.767 133.784 205.741 134.669 205.585 135.711C205.429 136.753 205.116 137.911 204.647 139.188C206.627 139.109 209.127 137.859 212.147 135.438ZM201.444 143.328C201.809 142.677 202.121 142.078 202.382 141.531C202.668 140.958 202.916 140.438 203.124 139.969C202.473 139.656 202.03 139.161 201.796 138.484C201.561 137.781 201.483 137.104 201.561 136.453C201.64 135.698 202.017 134.917 202.694 134.109C203.371 133.328 204.048 132.872 204.725 132.742C204.517 131.961 204.205 131.57 203.788 131.57C202.59 131.57 201.184 132.417 199.569 134.109C197.955 135.802 196.509 137.794 195.233 140.086C194.582 141.232 193.97 142.391 193.397 143.562C192.85 144.708 192.356 145.88 191.913 147.078C191.002 149.5 190.546 151.349 190.546 152.625C190.546 153.172 190.689 153.445 190.975 153.445C192.199 153.445 193.853 152.469 195.936 150.516C198.02 148.536 199.856 146.141 201.444 143.328Z" fill="#212844"/>
<path d="M230.507 132.117C231.809 131.206 232.968 130.75 233.983 130.75C234.478 130.75 234.882 130.958 235.194 131.375C235.533 131.766 235.741 132.326 235.819 133.055C235.923 133.784 235.897 134.669 235.741 135.711C235.585 136.753 235.285 137.911 234.843 139.188C236.822 139.109 239.322 137.859 242.343 135.438L243.007 136.336C240.949 137.924 239.283 138.979 238.007 139.5C236.783 139.995 235.637 140.242 234.569 140.242H234.413C234.205 140.815 233.957 141.388 233.671 141.961C233.384 142.534 233.059 143.12 232.694 143.719C230.871 146.974 228.853 149.591 226.64 151.57C224.478 153.497 222.655 154.461 221.171 154.461C219.999 154.461 219.127 153.927 218.554 152.859C217.955 151.792 217.655 150.477 217.655 148.914C217.655 146.935 218.306 144.786 219.608 142.469C220.91 140.203 222.069 138.159 223.085 136.336C224.1 134.487 225.038 132.794 225.897 131.258C226.783 129.721 227.616 128.289 228.397 126.961C229.205 125.607 230.025 124.292 230.858 123.016C231.978 121.297 233.15 119.643 234.374 118.055C235.598 116.44 236.835 115.021 238.085 113.797C239.361 112.573 240.611 111.635 241.835 110.984C243.059 110.307 244.231 110.047 245.35 110.203C246.21 110.333 246.744 110.828 246.952 111.688C247.16 112.547 247.134 113.536 246.874 114.656C246.666 115.49 246.275 116.427 245.702 117.469C245.155 118.484 244.465 119.552 243.632 120.672C242.798 121.792 241.848 122.911 240.78 124.031C239.738 125.151 238.645 126.232 237.499 127.273C236.353 128.289 235.181 129.214 233.983 130.047C232.785 130.88 231.627 131.57 230.507 132.117ZM231.6 143.328C231.939 142.729 232.252 142.156 232.538 141.609C232.824 141.036 233.072 140.49 233.28 139.969C232.655 139.656 232.225 139.161 231.991 138.484C231.757 137.781 231.679 137.104 231.757 136.453C231.835 135.698 232.212 134.917 232.89 134.109C233.515 133.328 234.192 132.872 234.921 132.742C234.712 131.961 234.387 131.57 233.944 131.57C233.71 131.57 233.397 131.648 233.007 131.805C232.642 131.961 232.238 132.182 231.796 132.469C231.353 132.729 230.884 133.042 230.39 133.406C229.921 133.771 229.465 134.161 229.022 134.578C228.892 134.839 228.697 135.164 228.436 135.555C228.202 135.945 227.916 136.414 227.577 136.961C227.238 137.482 226.939 137.938 226.679 138.328C226.444 138.719 226.262 139.018 226.132 139.227C225.845 139.695 225.533 140.203 225.194 140.75C224.856 141.297 224.491 141.87 224.1 142.469C223.58 143.484 223.111 144.487 222.694 145.477C222.304 146.44 221.952 147.365 221.64 148.25C221.353 149.109 221.132 149.917 220.975 150.672C220.819 151.427 220.741 152.078 220.741 152.625C220.741 153.172 220.884 153.445 221.171 153.445C222.369 153.445 224.009 152.469 226.093 150.516C228.228 148.536 230.064 146.141 231.6 143.328ZM229.96 131.492C231.236 130.685 232.538 129.747 233.866 128.68C235.194 127.612 236.47 126.479 237.694 125.281C238.944 124.083 240.09 122.846 241.132 121.57C242.173 120.268 243.02 118.992 243.671 117.742C244.348 116.466 244.804 115.229 245.038 114.031C245.272 112.833 245.194 111.727 244.804 110.711C244.179 110.555 243.528 110.698 242.85 111.141C242.173 111.583 241.483 112.234 240.78 113.094C240.103 113.927 239.413 114.904 238.71 116.023C238.033 117.117 237.369 118.237 236.718 119.383C236.093 120.529 235.494 121.635 234.921 122.703C234.374 123.745 233.879 124.63 233.436 125.359C232.785 126.531 232.173 127.599 231.6 128.562C231.028 129.5 230.481 130.477 229.96 131.492Z" fill="#212844"/>
<path d="M253.319 142.469C252.616 143.536 251.926 144.539 251.249 145.477C250.572 146.414 249.725 147.456 248.71 148.602C247.72 149.747 246.757 150.737 245.819 151.57C244.882 152.378 243.866 153.068 242.772 153.641C241.679 154.188 240.65 154.461 239.686 154.461C238.306 154.461 237.134 153.979 236.171 153.016C235.233 152.052 234.765 150.581 234.765 148.602C234.765 147.221 235.103 145.698 235.78 144.031C236.431 142.365 237.304 140.763 238.397 139.227C239.517 137.69 240.741 136.284 242.069 135.008C243.423 133.732 244.843 132.703 246.327 131.922C247.811 131.141 249.192 130.75 250.468 130.75C250.754 130.75 251.041 130.802 251.327 130.906C251.613 131.01 251.913 131.193 252.225 131.453C252.564 131.688 252.824 132.065 253.007 132.586C253.215 133.081 253.319 133.693 253.319 134.422C253.319 135.255 253.02 136.141 252.421 137.078C251.848 138.016 251.197 138.484 250.468 138.484C250.103 138.484 249.804 138.354 249.569 138.094C249.335 137.833 249.218 137.417 249.218 136.844C249.218 136.271 249.4 135.659 249.765 135.008C250.155 134.357 250.533 133.81 250.897 133.367C251.288 132.924 251.483 132.664 251.483 132.586C251.483 132.378 251.379 132.156 251.171 131.922C250.962 131.688 250.728 131.57 250.468 131.57C249.843 131.57 248.84 132.352 247.46 133.914C246.08 135.451 244.712 137.273 243.358 139.383C242.004 141.466 240.806 143.667 239.765 145.984C238.749 148.302 238.241 150.125 238.241 151.453C238.241 152.104 238.371 152.599 238.632 152.938C238.918 153.276 239.4 153.445 240.077 153.445C243.072 153.445 247.082 149.786 252.108 142.469H253.319Z" fill="#212844"/>
<path d="M283.358 142.469H284.53C284.009 143.302 283.462 144.122 282.89 144.93C282.317 145.737 281.548 146.753 280.585 147.977C279.621 149.201 278.71 150.268 277.85 151.18C277.017 152.065 276.119 152.833 275.155 153.484C274.218 154.135 273.384 154.461 272.655 154.461C272.421 154.461 272.16 154.435 271.874 154.383C271.614 154.305 271.314 154.161 270.975 153.953C270.637 153.745 270.337 153.471 270.077 153.133C269.817 152.794 269.595 152.312 269.413 151.688C269.231 151.062 269.14 150.333 269.14 149.5C269.14 148.641 269.491 147.56 270.194 146.258C270.897 144.956 271.744 143.654 272.733 142.352C273.723 141.023 274.699 139.747 275.663 138.523C276.653 137.273 277.499 136.128 278.202 135.086C278.905 134.044 279.257 133.289 279.257 132.82C279.257 132.273 279.048 132 278.632 132C278.059 132 277.278 132.404 276.288 133.211C275.298 133.992 274.283 134.982 273.241 136.18C272.199 137.352 271.041 138.771 269.765 140.438C268.489 142.078 267.343 143.589 266.327 144.969C265.337 146.349 264.322 147.794 263.28 149.305C261.952 151.388 260.832 153.042 259.921 154.266H255.702C256.145 153.484 257.499 151.349 259.765 147.859C262.03 144.37 263.97 141.219 265.585 138.406C267.199 135.568 268.007 133.706 268.007 132.82C268.007 132.273 267.837 132 267.499 132C267.056 132 266.379 132.391 265.468 133.172C264.582 133.927 263.671 134.826 262.733 135.867C261.796 136.909 260.754 138.159 259.608 139.617C258.462 141.049 257.512 142.26 256.757 143.25C256.028 144.214 255.298 145.19 254.569 146.18L249.804 154.266H245.233L248.827 148.758L252.069 142.547L259.218 130.945H263.71C263.606 131.128 263.332 131.557 262.89 132.234C262.473 132.911 261.991 133.68 261.444 134.539C260.923 135.398 260.559 135.997 260.35 136.336C259.517 137.69 258.879 138.706 258.436 139.383C262.733 133.628 265.962 130.75 268.124 130.75C268.905 130.75 269.556 131.023 270.077 131.57C270.624 132.091 270.897 132.911 270.897 134.031C270.897 135.255 270.025 137.508 268.28 140.789C272.942 134.096 276.6 130.75 279.257 130.75C280.09 130.75 280.78 131.01 281.327 131.531C281.874 132.052 282.147 132.885 282.147 134.031C282.147 134.995 281.783 136.167 281.054 137.547C280.35 138.927 279.491 140.307 278.475 141.688C277.486 143.068 276.483 144.422 275.468 145.75C274.452 147.078 273.593 148.328 272.89 149.5C272.186 150.646 271.835 151.544 271.835 152.195C271.835 153.029 272.108 153.445 272.655 153.445C273.202 153.445 273.866 153.172 274.647 152.625C275.455 152.052 276.236 151.375 276.991 150.594C277.746 149.786 278.554 148.849 279.413 147.781C280.298 146.714 281.028 145.776 281.6 144.969C282.199 144.135 282.785 143.302 283.358 142.469Z" fill="#212844"/>
<path d="M304.921 142.469H306.093C305.572 143.302 305.025 144.122 304.452 144.93C303.879 145.737 303.111 146.753 302.147 147.977C301.184 149.201 300.272 150.268 299.413 151.18C298.58 152.065 297.681 152.833 296.718 153.484C295.754 154.135 294.921 154.461 294.218 154.461C293.957 154.461 293.697 154.435 293.436 154.383C293.176 154.305 292.864 154.161 292.499 153.953C292.16 153.745 291.861 153.471 291.6 153.133C291.366 152.794 291.158 152.312 290.975 151.688C290.793 151.062 290.702 150.333 290.702 149.5C290.702 148.641 291.041 147.56 291.718 146.258C292.421 144.956 293.267 143.654 294.257 142.352C295.246 141.023 296.236 139.747 297.225 138.523C298.215 137.273 299.048 136.128 299.725 135.086C300.429 134.044 300.78 133.289 300.78 132.82C300.78 132.273 300.585 132 300.194 132C299.387 132 298.332 132.495 297.03 133.484C295.754 134.448 294.491 135.62 293.241 137C291.991 138.38 290.793 139.773 289.647 141.18C288.502 142.56 287.577 143.732 286.874 144.695L285.819 146.18L265.507 178.797H261.171L279.999 148.758L283.319 142.547L290.546 130.945H294.96L294.882 131.062C293.97 132.651 292.343 135.32 289.999 139.07C294.296 133.523 297.89 130.75 300.78 130.75C301.614 130.75 302.304 131.01 302.85 131.531C303.423 132.052 303.71 132.885 303.71 134.031C303.71 134.995 303.345 136.167 302.616 137.547C301.913 138.927 301.054 140.307 300.038 141.688C299.048 143.068 298.046 144.422 297.03 145.75C296.015 147.078 295.155 148.328 294.452 149.5C293.749 150.646 293.397 151.544 293.397 152.195C293.397 153.029 293.671 153.445 294.218 153.445C294.895 153.445 295.728 153.055 296.718 152.273C297.707 151.492 298.736 150.464 299.804 149.188C300.897 147.911 301.835 146.753 302.616 145.711C303.423 144.643 304.192 143.562 304.921 142.469Z" fill="#212844"/>
<path d="M308.319 153.445C310.923 153.445 315.025 149.786 320.624 142.469H321.835C320.611 144.083 319.426 145.555 318.28 146.883C317.16 148.185 315.975 149.435 314.725 150.633C313.502 151.831 312.317 152.768 311.171 153.445C310.025 154.122 308.996 154.461 308.085 154.461C306.705 154.461 305.533 153.966 304.569 152.977C303.632 151.987 303.163 150.49 303.163 148.484C303.163 146.74 303.684 144.812 304.725 142.703C305.767 140.568 307.056 138.628 308.593 136.883C310.155 135.138 311.887 133.68 313.788 132.508C315.689 131.336 317.447 130.75 319.061 130.75C319.348 130.75 319.634 130.802 319.921 130.906C320.233 131.01 320.546 131.193 320.858 131.453C321.171 131.688 321.418 132.065 321.6 132.586C321.809 133.081 321.913 133.706 321.913 134.461C321.913 136.18 321.21 137.833 319.804 139.422C318.397 141.01 316.718 142.169 314.765 142.898C312.811 143.602 311.093 143.68 309.608 143.133C307.785 146.492 306.874 149.096 306.874 150.945C306.874 152.612 307.356 153.445 308.319 153.445ZM318.827 131.57C318.124 131.57 316.835 132.716 314.96 135.008C313.111 137.299 311.418 139.826 309.882 142.586C310.845 142.742 311.822 142.586 312.811 142.117C313.827 141.648 314.712 141.01 315.468 140.203C316.249 139.37 316.939 138.471 317.538 137.508C318.163 136.518 318.632 135.568 318.944 134.656C319.283 133.745 319.452 132.99 319.452 132.391C319.452 131.844 319.244 131.57 318.827 131.57Z" fill="#212844"/>
<path d="M337.108 142.469H338.319C336.965 144.318 335.78 145.893 334.765 147.195C333.749 148.497 332.89 149.526 332.186 150.281C329.634 153.068 327.564 154.461 325.975 154.461C324.83 154.461 323.801 153.966 322.89 152.977C321.978 151.987 321.522 150.516 321.522 148.562C321.522 147.547 321.757 146.492 322.225 145.398C322.694 144.279 323.319 143.172 324.1 142.078C324.882 140.958 325.767 139.878 326.757 138.836C327.772 137.768 328.801 136.792 329.843 135.906C330.91 134.995 331.965 134.201 333.007 133.523C334.048 132.82 334.986 132.273 335.819 131.883L328.905 131.922C328.072 133.25 327.069 134.786 325.897 136.531C324.752 138.276 323.397 140.255 321.835 142.469H320.663C323.475 138.484 326.015 134.656 328.28 130.984C328.358 130.646 328.436 130.268 328.515 129.852C328.619 129.435 328.801 128.888 329.061 128.211C329.244 127.742 329.452 127.273 329.686 126.805C329.921 126.336 330.194 125.932 330.507 125.594C330.845 125.229 331.21 124.943 331.6 124.734C332.017 124.5 332.473 124.383 332.968 124.383C333.593 124.383 333.905 124.734 333.905 125.438C333.905 126.609 332.447 128.445 329.53 130.945L329.491 130.984L337.304 130.945L337.225 131.844C336.705 131.87 335.741 132.664 334.335 134.227C332.955 135.763 331.587 137.56 330.233 139.617C329.556 140.633 328.905 141.674 328.28 142.742C327.655 143.81 327.082 144.917 326.561 146.062C325.52 148.354 324.999 150.164 324.999 151.492C324.999 152.82 325.442 153.484 326.327 153.484C326.874 153.484 327.499 153.25 328.202 152.781C328.931 152.286 329.843 151.401 330.936 150.125C331.509 149.474 331.991 148.914 332.382 148.445C332.772 147.977 333.098 147.586 333.358 147.273C333.619 146.961 333.983 146.505 334.452 145.906C334.947 145.307 335.533 144.552 336.21 143.641C336.418 143.38 336.587 143.159 336.718 142.977C336.874 142.768 337.004 142.599 337.108 142.469Z" fill="#212844"/>
<path d="M359.569 142.469H360.741C360.533 142.807 360.246 143.25 359.882 143.797C359.543 144.318 358.866 145.268 357.85 146.648C356.861 148.029 355.91 149.253 354.999 150.32C354.114 151.362 353.111 152.312 351.991 153.172C350.897 154.031 349.973 154.461 349.218 154.461C348.358 154.461 347.59 153.979 346.913 153.016C346.236 152.052 345.897 150.672 345.897 148.875C345.897 148.302 346.054 147.56 346.366 146.648C342.33 151.857 339.569 154.461 338.085 154.461C337.252 154.461 336.496 153.979 335.819 153.016C335.142 152.052 334.804 150.672 334.804 148.875C334.804 148.068 335.129 146.896 335.78 145.359C336.431 143.823 337.212 142.26 338.124 140.672C339.061 139.057 339.999 137.508 340.936 136.023C341.874 134.539 342.668 133.328 343.319 132.391L344.296 130.945H349.257C348.944 131.414 348.528 132.026 348.007 132.781C347.486 133.536 346.561 134.956 345.233 137.039C343.905 139.096 342.733 140.997 341.718 142.742C340.702 144.487 339.778 146.284 338.944 148.133C338.111 149.956 337.694 151.31 337.694 152.195C337.694 152.872 337.968 153.211 338.515 153.211C339.686 153.211 342.89 149.734 348.124 142.781C348.957 141.167 349.973 139.383 351.171 137.43C352.395 135.451 353.397 133.875 354.179 132.703L355.39 130.945H360.35C360.038 131.414 359.608 132.026 359.061 132.781C358.541 133.536 357.616 134.956 356.288 137.039C354.96 139.096 353.788 140.997 352.772 142.742C351.783 144.487 350.871 146.284 350.038 148.133C349.205 149.956 348.788 151.31 348.788 152.195C348.788 152.872 349.061 153.211 349.608 153.211C350.077 153.211 350.715 152.872 351.522 152.195C352.33 151.518 353.111 150.75 353.866 149.891C354.621 149.031 355.455 148.016 356.366 146.844C357.278 145.672 357.942 144.786 358.358 144.188C358.801 143.589 359.205 143.016 359.569 142.469Z" fill="#212844"/>
<path d="M362.655 144.07L381.171 106.453H388.436L363.632 144.07H362.655ZM359.374 154.461C358.619 154.461 358.059 154.24 357.694 153.797C357.304 153.328 357.121 152.781 357.147 152.156C357.199 151.401 357.473 150.776 357.968 150.281C358.462 149.786 359.114 149.539 359.921 149.539C360.78 149.539 361.379 149.799 361.718 150.32C362.056 150.815 362.199 151.349 362.147 151.922C362.095 152.599 361.822 153.198 361.327 153.719C360.858 154.214 360.207 154.461 359.374 154.461Z" fill="#212844"/>
</svg>
