<svg width="198" height="92" viewBox="0 0 198 92" fill="none" xmlns="http://www.w3.org/2000/svg">
<path d="M15.375 52.5398C14.1417 52.5398 12.6 52.1482 10.75 51.3648C9.45 50.8148 8.425 50.4232 7.675 50.1898C6.94167 49.9398 6.18333 49.8148 5.4 49.8148C4.5 49.8148 3.65 50.0065 2.85 50.3898C2.06667 50.7565 1.25833 51.2148 0.425 51.7648C0.358333 51.8148 0.3 51.8398 0.25 51.8398C0.2 51.8398 0.141667 51.8148 0.0750002 51.7648C0.0250001 51.7148 0 51.6732 0 51.6398C0 51.6065 0.0166667 51.5648 0.0500001 51.5148C0.6 50.7648 1.4 50.0565 2.45 49.3898C3.51667 48.7065 4.73333 48.3648 6.1 48.3648C7.35 48.3648 8.9 48.7565 10.75 49.5398L11.3 49.7648C12.4333 50.2315 13.3333 50.5732 14 50.7898C14.6667 51.0065 15.3583 51.1148 16.075 51.1148C16.975 51.1148 17.8167 50.9315 18.6 50.5648C19.3833 50.1815 20.2 49.7065 21.05 49.1398C21.1333 49.0898 21.1917 49.0648 21.225 49.0648C21.275 49.0648 21.325 49.0898 21.375 49.1398C21.4417 49.1898 21.475 49.2315 21.475 49.2648C21.475 49.2982 21.4583 49.3398 21.425 49.3898C20.875 50.1398 20.0667 50.8565 19 51.5398C17.95 52.2065 16.7417 52.5398 15.375 52.5398Z" fill="#212844"/>
<path d="M100.664 14.1992C99.4922 14.5378 98.3594 15.0326 97.2656 15.6836C96.1719 16.3086 95.1302 17.0768 94.1406 17.9883C95.9635 19.7852 97.487 21.8034 98.7109 24.043C99.9349 26.2565 100.807 28.6263 101.328 31.1523C101.849 33.6784 101.979 36.3086 101.719 39.043C101.484 41.7773 100.82 44.5378 99.7266 47.3242C98.4245 50.5534 96.6536 53.431 94.4141 55.957C92.2005 58.457 89.6484 60.5924 86.7578 62.3633C83.8932 64.1081 80.7682 65.4622 77.3828 66.4258C73.9974 67.3633 70.5078 67.8711 66.9141 67.9492C64.9609 67.9492 63.0729 67.7799 61.25 67.4414C59.4531 67.1289 57.6693 66.7383 55.8984 66.2695C55.3776 66.4779 54.8307 66.6732 54.2578 66.8555C53.7109 67.0378 53.151 67.2201 52.5781 67.4023C52.0833 67.5326 51.3672 67.6888 50.4297 67.8711C49.5182 68.0534 48.4766 68.2227 47.3047 68.3789C46.1589 68.5352 44.9219 68.6654 43.5938 68.7695C42.2656 68.8737 40.9375 68.9258 39.6094 68.9258C38.3073 68.9258 37.0573 68.8607 35.8594 68.7305C34.6615 68.6263 33.5938 68.418 32.6562 68.1055C31.7448 67.793 31.0156 67.3633 30.4688 66.8164C29.9219 66.2956 29.6484 65.6445 29.6484 64.8633C29.6484 64.2122 29.8958 63.6523 30.3906 63.1836C30.9115 62.7148 31.5104 62.3242 32.1875 62.0117C32.8906 61.6992 33.5938 61.4648 34.2969 61.3086C35.026 61.1523 35.612 61.0742 36.0547 61.0742H37.6562C39.2448 61.0742 40.7812 61.2044 42.2656 61.4648C43.776 61.7253 45.2474 62.0508 46.6797 62.4414C48.112 62.832 49.5312 63.2617 50.9375 63.7305C52.3438 64.1732 53.75 64.6029 55.1562 65.0195C57.6562 63.8997 59.8047 62.5456 61.6016 60.957C63.4245 59.3424 65.0781 57.5456 66.5625 55.5664C68.0469 53.5612 69.4531 51.3867 70.7812 49.043C72.1094 46.6992 73.5156 44.2122 75 41.582C75.9896 39.8372 77.0573 37.9622 78.2031 35.957C79.375 33.9518 80.651 31.9336 82.0312 29.9023C83.4115 27.8451 84.9089 25.8398 86.5234 23.8867C88.138 21.9336 89.9089 20.1367 91.8359 18.4961C90.3776 16.7513 88.5417 15.319 86.3281 14.1992C83.2552 12.7409 80 11.8815 76.5625 11.6211C73.151 11.3607 69.7396 11.6081 66.3281 12.3633C62.9427 13.1185 59.6484 14.3294 56.4453 15.9961C53.2682 17.6367 50.3906 19.6419 47.8125 22.0117C45.2344 24.3555 43.0469 26.9987 41.25 29.9414C39.4531 32.8581 38.2552 35.9831 37.6562 39.3164C37.3958 40.8008 37.2396 42.2331 37.1875 43.6133C37.1615 44.9935 37.2786 46.2956 37.5391 47.5195C37.7995 48.7435 38.2292 49.8633 38.8281 50.8789C39.4271 51.8945 40.2214 52.7669 41.2109 53.4961C42.7734 54.668 44.4401 55.4232 46.2109 55.7617C48.0078 56.0742 49.8177 56.0612 51.6406 55.7227C53.4896 55.3841 55.3255 54.7591 57.1484 53.8477C58.9714 52.9362 60.7031 51.8424 62.3438 50.5664C64.0104 49.2643 65.5339 47.806 66.9141 46.1914C68.3203 44.5768 69.5052 42.9102 70.4688 41.1914C71.4323 39.4727 72.1484 37.7409 72.6172 35.9961C73.112 34.2513 73.2682 32.5716 73.0859 30.957C73.0078 29.7852 72.7734 28.6784 72.3828 27.6367C72.0182 26.569 71.4714 25.6445 70.7422 24.8633C70.013 24.082 69.1146 23.4701 68.0469 23.0273C66.9792 22.5846 65.7031 22.3763 64.2188 22.4023C62.4479 22.4284 60.7943 22.793 59.2578 23.4961C57.7214 24.1732 56.3542 25.0846 55.1562 26.2305C53.9583 27.3503 52.9557 28.6263 52.1484 30.0586C51.3411 31.4909 50.7812 32.9492 50.4688 34.4336C50.3385 34.6419 50.2604 34.8503 50.2344 35.0586C50.2344 35.2669 50.2344 35.5013 50.2344 35.7617C50.2604 36.2565 50.1432 36.6341 49.8828 36.8945C49.6224 37.1289 49.362 37.2201 49.1016 37.168C48.8672 37.0898 48.6979 36.8555 48.5938 36.4648C48.4896 36.0482 48.6068 35.4492 48.9453 34.668C49.4141 32.8451 50.1302 31.1263 51.0938 29.5117C52.0573 27.8711 53.2161 26.4258 54.5703 25.1758C55.9245 23.9258 57.4609 22.9362 59.1797 22.207C60.8984 21.4779 62.7604 21.1003 64.7656 21.0742C65.651 21.0482 66.6276 21.1914 67.6953 21.5039C68.7891 21.8164 69.8047 22.3503 70.7422 23.1055C71.7057 23.8607 72.526 24.8633 73.2031 26.1133C73.9062 27.3633 74.3229 28.9258 74.4531 30.8008C74.6094 32.5716 74.401 34.4336 73.8281 36.3867C73.2812 38.3398 72.4609 40.2669 71.3672 42.168C70.2734 44.069 68.9583 45.8919 67.4219 47.6367C65.8854 49.3815 64.2188 50.957 62.4219 52.3633C60.625 53.7435 58.724 54.8893 56.7188 55.8008C54.7396 56.7122 52.7474 57.2982 50.7422 57.5586C48.763 57.793 46.8099 57.6367 44.8828 57.0898C42.9557 56.543 41.1589 55.5013 39.4922 53.9648C38.5026 53.0534 37.7214 51.9076 37.1484 50.5273C36.6016 49.1471 36.224 47.6497 36.0156 46.0352C35.8333 44.4206 35.8203 42.7669 35.9766 41.0742C36.1328 39.3815 36.4453 37.7669 36.9141 36.2305C37.6172 33.9128 38.6198 31.6732 39.9219 29.5117C41.224 27.3503 42.7474 25.332 44.4922 23.457C46.263 21.556 48.2161 19.8242 50.3516 18.2617C52.487 16.6732 54.7396 15.293 57.1094 14.1211C59.4792 12.9492 61.9271 12.0117 64.4531 11.3086C67.0052 10.6055 69.5573 10.1888 72.1094 10.0586C74.6875 9.90234 77.2266 10.0586 79.7266 10.5273C82.2526 10.9701 84.6875 11.7773 87.0312 12.9492C88.2031 13.5482 89.3229 14.2122 90.3906 14.9414C91.4583 15.6445 92.4479 16.4258 93.3594 17.2852C94.5312 16.3737 95.7292 15.5534 96.9531 14.8242C98.2031 14.069 99.5312 13.418 100.938 12.8711C101.016 12.819 101.081 12.8451 101.133 12.9492C101.211 13.0534 101.276 13.1836 101.328 13.3398C101.328 13.4961 101.276 13.6654 101.172 13.8477C101.094 14.0039 100.924 14.1211 100.664 14.1992ZM79.0234 41.6602C77.7214 44.1602 76.3411 46.5951 74.8828 48.9648C73.4245 51.3346 71.8229 53.5612 70.0781 55.6445C68.3333 57.7018 66.4062 59.5898 64.2969 61.3086C62.2135 63.0013 59.9089 64.4336 57.3828 65.6055C58.9714 66.0221 60.5859 66.3216 62.2266 66.5039C63.8672 66.6862 65.5859 66.6862 67.3828 66.5039C70.1432 66.2174 72.7474 65.5273 75.1953 64.4336C77.6693 63.3398 79.9609 61.9596 82.0703 60.293C84.1797 58.6003 86.0807 56.6732 87.7734 54.5117C89.4922 52.3242 90.9635 50.0326 92.1875 47.6367C93.4115 45.2148 94.362 42.7279 95.0391 40.1758C95.7422 37.6237 96.1328 35.1237 96.2109 32.6758C96.2891 30.2279 96.0286 27.8841 95.4297 25.6445C94.8568 23.3789 93.9193 21.3346 92.6172 19.5117C91.3411 20.8398 90.1172 22.3503 88.9453 24.043C87.7995 25.7357 86.6667 27.5326 85.5469 29.4336C84.4531 31.3346 83.3594 33.3268 82.2656 35.4102C81.1979 37.4674 80.1172 39.5508 79.0234 41.6602ZM36.5234 62.4414C35.8724 62.4674 35.2344 62.5326 34.6094 62.6367C34.0104 62.7148 33.4635 62.8581 32.9688 63.0664C32.474 63.2747 32.0443 63.5482 31.6797 63.8867C31.3411 64.2253 31.1198 64.6419 31.0156 65.1367C31.3542 65.944 31.9792 66.569 32.8906 67.0117C33.8021 67.4544 34.8828 67.7539 36.1328 67.9102C37.4089 68.0924 38.776 68.1576 40.2344 68.1055C41.6927 68.0534 43.125 67.9362 44.5312 67.7539C45.9375 67.5716 47.2656 67.3503 48.5156 67.0898C49.7656 66.8294 50.7943 66.582 51.6016 66.3477C52.3047 66.1133 53.0078 65.8659 53.7109 65.6055C52.3568 65.2148 50.9896 64.8242 49.6094 64.4336C48.2552 64.043 46.875 63.6914 45.4688 63.3789C44.0625 63.0664 42.6172 62.832 41.1328 62.6758C39.6484 62.4935 38.112 62.4154 36.5234 62.4414Z" fill="#212844"/>
<path d="M105.82 65.4492C108.424 65.4492 112.526 61.7904 118.125 54.4727H119.336C118.112 56.0872 116.927 57.5586 115.781 58.8867C114.661 60.1888 113.477 61.4388 112.227 62.6367C111.003 63.8346 109.818 64.7721 108.672 65.4492C107.526 66.1263 106.497 66.4648 105.586 66.4648C104.206 66.4648 103.034 65.9701 102.07 64.9805C101.133 63.9909 100.664 62.4935 100.664 60.4883C100.664 58.7435 101.185 56.8164 102.227 54.707C103.268 52.5716 104.557 50.6315 106.094 48.8867C107.656 47.1419 109.388 45.6836 111.289 44.5117C113.19 43.3398 114.948 42.7539 116.562 42.7539C116.849 42.7539 117.135 42.806 117.422 42.9102C117.734 43.0143 118.047 43.1966 118.359 43.457C118.672 43.6914 118.919 44.069 119.102 44.5898C119.31 45.0846 119.414 45.7096 119.414 46.4648C119.414 48.1836 118.711 49.8372 117.305 51.4258C115.898 53.0143 114.219 54.1732 112.266 54.9023C110.312 55.6055 108.594 55.6836 107.109 55.1367C105.286 58.4961 104.375 61.1003 104.375 62.9492C104.375 64.6159 104.857 65.4492 105.82 65.4492ZM116.328 43.5742C115.625 43.5742 114.336 44.7201 112.461 47.0117C110.612 49.3034 108.919 51.8294 107.383 54.5898C108.346 54.7461 109.323 54.5898 110.312 54.1211C111.328 53.6523 112.214 53.0143 112.969 52.207C113.75 51.3737 114.44 50.4753 115.039 49.5117C115.664 48.5221 116.133 47.5716 116.445 46.6602C116.784 45.7487 116.953 44.9935 116.953 44.3945C116.953 43.8477 116.745 43.5742 116.328 43.5742Z" fill="#212844"/>
<path d="M149.375 54.4727H150.547C150.026 55.306 149.479 56.1263 148.906 56.9336C148.333 57.7409 147.565 58.7565 146.602 59.9805C145.638 61.2044 144.727 62.2721 143.867 63.1836C143.034 64.069 142.135 64.8372 141.172 65.4883C140.234 66.1393 139.401 66.4648 138.672 66.4648C138.438 66.4648 138.177 66.4388 137.891 66.3867C137.63 66.3086 137.331 66.1654 136.992 65.957C136.654 65.7487 136.354 65.4753 136.094 65.1367C135.833 64.7982 135.612 64.3164 135.43 63.6914C135.247 63.0664 135.156 62.3372 135.156 61.5039C135.156 60.6445 135.508 59.5638 136.211 58.2617C136.914 56.9596 137.76 55.6576 138.75 54.3555C139.74 53.0273 140.716 51.7513 141.68 50.5273C142.669 49.2773 143.516 48.1315 144.219 47.0898C144.922 46.0482 145.273 45.293 145.273 44.8242C145.273 44.2773 145.065 44.0039 144.648 44.0039C144.076 44.0039 143.294 44.4076 142.305 45.2148C141.315 45.9961 140.299 46.9857 139.258 48.1836C138.216 49.3555 137.057 50.7747 135.781 52.4414C134.505 54.082 133.359 55.5924 132.344 56.9727C131.354 58.3529 130.339 59.7982 129.297 61.3086C127.969 63.3919 126.849 65.0456 125.938 66.2695H121.719C122.161 65.4883 123.516 63.3529 125.781 59.8633C128.047 56.3737 129.987 53.2227 131.602 50.4102C133.216 47.5716 134.023 45.7096 134.023 44.8242C134.023 44.2773 133.854 44.0039 133.516 44.0039C133.073 44.0039 132.396 44.3945 131.484 45.1758C130.599 45.931 129.688 46.8294 128.75 47.8711C127.812 48.9128 126.771 50.1628 125.625 51.6211C124.479 53.0534 123.529 54.2643 122.773 55.2539C122.044 56.2174 121.315 57.194 120.586 58.1836L115.82 66.2695H111.25L114.844 60.7617L118.086 54.5508L125.234 42.9492H129.727C129.622 43.1315 129.349 43.5612 128.906 44.2383C128.49 44.9154 128.008 45.6836 127.461 46.543C126.94 47.4023 126.576 48.0013 126.367 48.3398C125.534 49.694 124.896 50.7096 124.453 51.3867C128.75 45.6315 131.979 42.7539 134.141 42.7539C134.922 42.7539 135.573 43.0273 136.094 43.5742C136.641 44.0951 136.914 44.9154 136.914 46.0352C136.914 47.2591 136.042 49.5117 134.297 52.793C138.958 46.1003 142.617 42.7539 145.273 42.7539C146.107 42.7539 146.797 43.0143 147.344 43.5352C147.891 44.056 148.164 44.8893 148.164 46.0352C148.164 46.9987 147.799 48.1706 147.07 49.5508C146.367 50.931 145.508 52.3112 144.492 53.6914C143.503 55.0716 142.5 56.4258 141.484 57.7539C140.469 59.082 139.609 60.332 138.906 61.5039C138.203 62.6497 137.852 63.5482 137.852 64.1992C137.852 65.0326 138.125 65.4492 138.672 65.4492C139.219 65.4492 139.883 65.1758 140.664 64.6289C141.471 64.056 142.253 63.3789 143.008 62.5977C143.763 61.7904 144.57 60.8529 145.43 59.7852C146.315 58.7174 147.044 57.7799 147.617 56.9727C148.216 56.1393 148.802 55.306 149.375 54.4727Z" fill="#212844"/>
<path d="M171.836 54.4727H173.008C172.799 54.8112 172.513 55.2539 172.148 55.8008C171.81 56.3216 171.133 57.2721 170.117 58.6523C169.128 60.0326 168.177 61.2565 167.266 62.3242C166.38 63.3659 165.378 64.3164 164.258 65.1758C163.164 66.0352 162.24 66.4648 161.484 66.4648C160.625 66.4648 159.857 65.9831 159.18 65.0195C158.503 64.056 158.164 62.6758 158.164 60.8789C158.164 60.306 158.32 59.5638 158.633 58.6523C154.596 63.8607 151.836 66.4648 150.352 66.4648C149.518 66.4648 148.763 65.9831 148.086 65.0195C147.409 64.056 147.07 62.6758 147.07 60.8789C147.07 60.0716 147.396 58.8997 148.047 57.3633C148.698 55.8268 149.479 54.2643 150.391 52.6758C151.328 51.0612 152.266 49.5117 153.203 48.0273C154.141 46.543 154.935 45.332 155.586 44.3945L156.562 42.9492H161.523C161.211 43.418 160.794 44.0299 160.273 44.7852C159.753 45.5404 158.828 46.9596 157.5 49.043C156.172 51.1003 155 53.0013 153.984 54.7461C152.969 56.4909 152.044 58.2878 151.211 60.1367C150.378 61.9596 149.961 63.3138 149.961 64.1992C149.961 64.8763 150.234 65.2148 150.781 65.2148C151.953 65.2148 155.156 61.7383 160.391 54.7852C161.224 53.1706 162.24 51.3867 163.438 49.4336C164.661 47.4544 165.664 45.8789 166.445 44.707L167.656 42.9492H172.617C172.305 43.418 171.875 44.0299 171.328 44.7852C170.807 45.5404 169.883 46.9596 168.555 49.043C167.227 51.1003 166.055 53.0013 165.039 54.7461C164.049 56.4909 163.138 58.2878 162.305 60.1367C161.471 61.9596 161.055 63.3138 161.055 64.1992C161.055 64.8763 161.328 65.2148 161.875 65.2148C162.344 65.2148 162.982 64.8763 163.789 64.1992C164.596 63.5221 165.378 62.7539 166.133 61.8945C166.888 61.0352 167.721 60.0195 168.633 58.8477C169.544 57.6758 170.208 56.7904 170.625 56.1914C171.068 55.5924 171.471 55.0195 171.836 54.4727Z" fill="#212844"/>
<path d="M191.375 52.5398C190.142 52.5398 188.6 52.1482 186.75 51.3648C185.45 50.8148 184.425 50.4232 183.675 50.1898C182.942 49.9398 182.183 49.8148 181.4 49.8148C180.5 49.8148 179.65 50.0065 178.85 50.3898C178.067 50.7565 177.258 51.2148 176.425 51.7648C176.358 51.8148 176.3 51.8398 176.25 51.8398C176.2 51.8398 176.142 51.8148 176.075 51.7648C176.025 51.7148 176 51.6732 176 51.6398C176 51.6065 176.017 51.5648 176.05 51.5148C176.6 50.7648 177.4 50.0565 178.45 49.3898C179.517 48.7065 180.733 48.3648 182.1 48.3648C183.35 48.3648 184.9 48.7565 186.75 49.5398L187.3 49.7648C188.433 50.2315 189.333 50.5732 190 50.7898C190.667 51.0065 191.358 51.1148 192.075 51.1148C192.975 51.1148 193.817 50.9315 194.6 50.5648C195.383 50.1815 196.2 49.7065 197.05 49.1398C197.133 49.0898 197.192 49.0648 197.225 49.0648C197.275 49.0648 197.325 49.0898 197.375 49.1398C197.442 49.1898 197.475 49.2315 197.475 49.2648C197.475 49.2982 197.458 49.3398 197.425 49.3898C196.875 50.1398 196.067 50.8565 195 51.5398C193.95 52.2065 192.742 52.5398 191.375 52.5398Z" fill="#212844"/>
</svg>
