<svg width="442" height="260" viewBox="0 0 442 260" fill="none" xmlns="http://www.w3.org/2000/svg">
<path d="M2.49561 125.232C2.49561 121.548 3.00063 118.161 4.01068 115.072C5.02073 111.922 6.44668 109.22 8.28853 106.962C10.1898 104.704 12.4475 102.951 15.0618 101.704C17.676 100.397 20.5874 99.7429 23.7958 99.7429C27.0041 99.7429 29.8857 100.397 32.4406 101.704C34.9954 103.011 37.164 104.823 38.9465 107.14C40.7883 109.398 42.1846 112.101 43.1352 115.251C44.1452 118.399 44.6503 121.816 44.6503 125.499C44.6503 129.124 44.1452 132.539 43.1352 135.749C42.1846 138.897 40.7883 141.63 38.9465 143.948C37.164 146.264 34.9657 148.107 32.3514 149.473C29.7966 150.78 26.915 151.434 23.7066 151.434C20.4982 151.434 17.5869 150.78 14.9727 149.473C12.3584 148.107 10.1304 146.264 8.28853 143.948C6.44668 141.63 5.02073 138.868 4.01068 135.659C3.00063 132.451 2.49561 128.975 2.49561 125.232ZM38.0553 126.836C38.0553 123.925 37.7879 120.954 37.2532 117.924C36.7779 114.834 35.9461 112.041 34.7577 109.546C33.5694 107.051 31.9949 105.001 30.0343 103.397C28.1331 101.793 25.7267 100.991 22.8154 100.991C20.2011 100.991 18.0028 101.733 16.2203 103.219C14.4379 104.645 12.9823 106.516 11.8534 108.833C10.7839 111.091 10.0116 113.616 9.53623 116.408C9.06091 119.141 8.82326 121.845 8.82326 124.519C8.82326 127.549 9.12034 130.579 9.71448 133.61C10.3086 136.639 11.2296 139.402 12.4773 141.897C13.7844 144.334 15.448 146.324 17.4681 147.869C19.4882 149.354 21.9242 150.096 24.7761 150.096C27.5092 150.096 29.7372 149.383 31.4602 147.957C33.1832 146.531 34.52 144.72 35.4708 142.522C36.4808 140.264 37.164 137.769 37.5205 135.036C37.8771 132.243 38.0553 129.51 38.0553 126.836ZM85.9402 136.639C85.9402 139.135 85.3757 141.334 84.2468 143.235C83.118 145.076 81.6029 146.621 79.7017 147.869C77.8598 149.057 75.7505 149.948 73.374 150.542C70.9974 151.196 68.5614 151.523 66.066 151.523C63.8083 151.523 61.5802 151.196 59.3818 150.542C57.2429 149.948 55.312 149.028 53.589 147.78C51.8659 146.531 50.4696 144.988 49.4002 143.145C48.3901 141.244 47.8851 139.045 47.8851 136.55C47.8851 134.768 48.2119 133.135 48.8655 131.649C49.5784 130.163 50.4994 128.797 51.6282 127.549C52.7571 126.301 54.0643 125.203 55.5496 124.252C57.0349 123.241 58.5798 122.351 60.1839 121.578C59.1739 120.925 58.1935 120.241 57.2429 119.528C56.2922 118.815 55.4604 118.043 54.7475 117.211C54.0345 116.32 53.4404 115.368 52.9651 114.359C52.5492 113.348 52.3412 112.22 52.3412 110.972C52.3412 109.012 52.8462 107.348 53.8563 105.981C54.8663 104.556 56.1141 103.397 57.5994 102.506C59.1442 101.615 60.8077 100.961 62.5902 100.545C64.432 100.129 66.1848 99.9211 67.8485 99.9211C69.3338 99.9211 70.8489 100.099 72.3936 100.456C73.9384 100.812 75.3346 101.377 76.5823 102.149C77.8895 102.922 78.9292 103.932 79.7017 105.179C80.5335 106.368 80.9494 107.823 80.9494 109.546C80.9494 111.032 80.6225 112.399 79.969 113.646C79.3154 114.834 78.4837 115.933 77.4736 116.944C76.5229 117.894 75.4535 118.726 74.2652 119.439C73.0769 120.092 71.948 120.657 70.8785 121.132C72.6015 122.024 74.3543 122.945 76.1368 123.894C77.9192 124.786 79.5233 125.826 80.9494 127.014C82.4347 128.203 83.623 129.569 84.5143 131.113C85.4649 132.658 85.9402 134.501 85.9402 136.639ZM57.4212 107.942C57.4212 109.665 57.8371 111.18 58.6689 112.487C59.5601 113.794 60.6296 114.953 61.8773 115.964C63.1844 116.973 64.5806 117.865 66.066 118.637C67.5513 119.35 68.8881 120.033 70.0764 120.686C72.0372 119.677 73.4631 118.37 74.3543 116.765C75.305 115.161 75.7803 113.379 75.7803 111.418C75.7803 109.814 75.4832 108.388 74.8891 107.14C74.3543 105.833 73.6117 104.764 72.6609 103.932C71.7697 103.1 70.7003 102.476 69.4526 102.06C68.2048 101.585 66.8681 101.347 65.4422 101.347C63.1844 101.347 61.2831 101.852 59.7383 102.862C58.1935 103.872 57.4212 105.566 57.4212 107.942ZM80.1472 138.957C80.1472 136.758 79.5233 134.886 78.2757 133.342C77.028 131.738 75.4535 130.312 73.5522 129.064C71.6509 127.817 69.6011 126.658 67.4028 125.589C65.2044 124.519 63.1546 123.39 61.2534 122.201C58.461 123.746 56.5596 125.589 55.5496 127.727C54.5396 129.806 54.0345 132.064 54.0345 134.501C54.0345 136.698 54.3613 138.749 55.0149 140.65C55.7278 142.551 56.7082 144.215 57.9559 145.641C59.263 147.067 60.8077 148.196 62.5902 149.028C64.3726 149.8 66.363 150.186 68.5614 150.186C70.4032 150.186 72.0372 149.889 73.4631 149.295C74.8891 148.641 76.0774 147.78 77.028 146.71C78.038 145.641 78.8104 144.452 79.3451 143.145C79.8799 141.778 80.1472 140.383 80.1472 138.957Z" fill="#212844"/>
<path d="M105.118 89.0669V154.399" stroke="#212844" stroke-width="1.42026"/>
<path d="M107.958 89.1598V154.492" stroke="#212844" stroke-width="1.42026"/>
<path d="M188.639 181.88C192.896 181.576 196.47 180.816 199.359 179.599C202.248 178.383 204.604 176.786 206.429 174.809C208.406 172.834 209.926 170.629 210.991 168.196C212.207 165.611 213.195 162.95 213.956 160.213L216.693 160.441L209.85 193.968H130.935L130.023 191.46C137.93 184.313 144.315 178.307 149.181 173.441C154.047 168.424 158.457 163.938 162.409 159.985C166.515 155.727 170.773 151.089 175.182 146.072C179.744 141.054 183.849 135.884 187.498 130.562C191.3 125.089 194.417 119.691 196.85 114.369C199.283 108.895 200.575 103.649 200.728 98.6312C200.728 94.8299 200.347 91.1806 199.587 87.6834C198.979 84.1862 197.686 81.069 195.71 78.3322C193.733 75.5952 191.072 73.4664 187.726 71.9458C184.381 70.2733 180.123 69.4371 174.954 69.4371C170.545 69.4371 166.439 70.7295 162.637 73.3144C158.989 75.8993 155.644 79.2444 152.603 83.3498C149.713 87.3032 147.204 91.6367 145.076 96.3504C143.099 101.064 141.654 105.55 140.742 109.807L137.778 109.123L145.532 65.1036H148.269C148.269 65.2555 148.269 65.4076 148.269 65.5596C148.269 66.1679 148.421 67.0802 148.725 68.2966C149.029 69.5131 150.094 70.1212 151.918 70.1212C154.047 70.1212 156.1 69.8931 158.077 69.4371C160.052 68.8288 162.181 68.2206 164.462 67.6123C166.743 67.0042 169.252 66.472 171.989 66.0158C174.878 65.4077 178.224 65.1036 182.024 65.1036C193.277 65.1036 201.792 68.1446 207.569 74.2266C213.5 80.3087 216.465 88.0635 216.465 97.4908C216.465 102.356 215.4 107.298 213.271 112.316C211.143 117.334 208.33 122.276 204.832 127.142C201.336 131.854 197.382 136.416 192.972 140.826C188.563 145.084 184.153 149.036 179.744 152.686C175.791 156.183 170.773 160.365 164.69 165.231C158.609 169.945 152.146 175.494 145.304 181.88L145.988 182.793C156.176 182.793 164.766 182.717 171.761 182.565C178.756 182.412 184.381 182.184 188.639 181.88ZM256.595 135.124C247.471 135.124 240.02 132.691 234.242 127.826C228.465 122.808 225.575 115.509 225.575 105.93C225.575 99.6956 226.944 94.0696 229.681 89.0519C232.569 83.8821 236.219 79.5485 240.628 76.0514C245.19 72.5541 250.284 69.8931 255.909 68.0685C261.688 66.0918 267.466 65.1036 273.244 65.1036C280.998 65.1036 287.765 66.7761 293.543 70.1212C299.474 73.4664 304.415 77.876 308.368 83.3498C312.322 88.6717 315.287 94.8299 317.264 101.824C319.239 108.667 320.229 115.661 320.229 122.808C320.229 134.668 318.176 145.464 314.07 155.195C309.965 164.927 304.263 173.365 296.965 180.512C289.818 187.659 281.379 193.437 271.648 197.846C262.068 202.407 251.805 205.373 240.857 206.741L240.628 204.46C252.033 202.483 261.764 199.366 269.823 195.108C278.033 190.852 284.648 185.53 289.666 179.143C294.836 172.606 298.56 165.003 300.841 156.335C303.274 147.669 304.491 138.013 304.491 127.37C304.491 122.2 303.73 116.269 302.21 109.579C300.689 102.889 298.333 96.5785 295.14 90.6484C291.947 84.5663 287.993 79.4725 283.279 75.3671C278.565 71.2617 273.016 69.209 266.63 69.209C262.372 69.209 258.647 70.1212 255.453 71.9458C252.413 73.6185 249.904 75.8993 247.927 78.7883C245.951 81.6773 244.506 85.0224 243.594 88.8238C242.681 92.473 242.225 96.1983 242.225 99.9997C242.225 103.649 242.605 107.222 243.366 110.719C244.278 114.064 245.57 117.106 247.243 119.843C249.068 122.58 251.425 124.785 254.314 126.456C257.202 127.977 260.699 128.737 264.805 128.737C268.15 128.737 271.115 128.433 273.7 127.826C276.286 127.066 278.565 126.153 280.542 125.089C282.519 124.024 284.192 122.884 285.56 121.667C287.081 120.299 288.373 119.082 289.438 118.018L291.262 119.843C287.309 124.861 282.367 128.661 276.438 131.246C270.507 133.831 263.893 135.124 256.595 135.124Z" fill="#212844"/>
<path d="M342.256 89.0669V154.399" stroke="#212844" stroke-width="1.42026"/>
<path d="M345.097 89.1598V154.492" stroke="#212844" stroke-width="1.42026"/>
<path d="M387.425 145.551C389.089 145.433 390.485 145.136 391.613 144.661C392.743 144.185 393.664 143.561 394.377 142.789C395.149 142.016 395.743 141.155 396.159 140.204C396.635 139.195 397.02 138.155 397.318 137.085L398.387 137.175L395.713 150.275H364.877L364.521 149.295C367.61 146.502 370.106 144.155 372.007 142.254C373.908 140.294 375.632 138.541 377.176 136.996C378.78 135.332 380.444 133.52 382.167 131.559C383.95 129.599 385.553 127.579 386.979 125.499C388.465 123.36 389.683 121.251 390.633 119.172C391.584 117.033 392.09 114.982 392.149 113.022C392.149 111.537 392 110.111 391.703 108.744C391.465 107.378 390.96 106.16 390.187 105.09C389.416 104.021 388.376 103.189 387.068 102.595C385.761 101.941 384.098 101.615 382.078 101.615C380.354 101.615 378.751 102.119 377.266 103.13C375.839 104.14 374.532 105.447 373.345 107.051C372.215 108.596 371.235 110.289 370.403 112.131C369.63 113.973 369.066 115.726 368.709 117.388L367.55 117.121L370.581 99.9211H371.65C371.65 99.9807 371.65 100.04 371.65 100.099C371.65 100.337 371.709 100.694 371.829 101.169C371.948 101.644 372.363 101.882 373.076 101.882C373.908 101.882 374.711 101.793 375.482 101.615C376.255 101.377 377.087 101.139 377.979 100.902C378.869 100.664 379.85 100.456 380.919 100.278C382.048 100.04 383.355 99.9211 384.84 99.9211C389.238 99.9211 392.565 101.109 394.823 103.486C397.139 105.863 398.298 108.893 398.298 112.576C398.298 114.478 397.882 116.408 397.05 118.37C396.218 120.331 395.119 122.261 393.753 124.163C392.386 126.004 390.841 127.786 389.118 129.51C387.396 131.173 385.672 132.718 383.95 134.144C382.405 135.511 380.444 137.144 378.067 139.045C375.691 140.888 373.166 143.056 370.492 145.551L370.76 145.908C374.74 145.908 378.098 145.878 380.831 145.818C383.564 145.76 385.761 145.67 387.425 145.551ZM426.634 124.252C430.199 124.252 433.11 125.232 435.368 127.192C437.626 129.093 438.754 131.916 438.754 135.659C438.754 138.095 438.191 140.294 437.061 142.254C435.992 144.215 434.566 145.908 432.783 147.334C431.06 148.701 429.069 149.741 426.813 150.454C424.614 151.226 422.386 151.612 420.128 151.612C417.097 151.612 414.424 150.959 412.108 149.651C409.79 148.344 407.859 146.621 406.315 144.482C404.77 142.343 403.611 139.937 402.838 137.263C402.066 134.53 401.679 131.797 401.679 129.064C401.679 124.43 402.482 120.211 404.086 116.408C405.75 112.606 407.978 109.309 410.77 106.516C413.563 103.664 416.83 101.377 420.574 99.6538C424.376 97.9309 428.416 96.8019 432.694 96.2672L432.873 97.1585C428.356 97.9309 424.524 99.1488 421.376 100.812C418.227 102.417 415.642 104.496 413.622 107.051C411.662 109.546 410.205 112.487 409.255 115.874C408.364 119.26 407.918 123.064 407.918 127.282C407.918 129.302 408.216 131.619 408.81 134.233C409.404 136.848 410.295 139.312 411.483 141.63C412.731 143.948 414.276 145.908 416.117 147.513C418.018 149.116 420.217 149.919 422.713 149.919C424.376 149.919 425.802 149.591 426.99 148.938C428.239 148.225 429.248 147.304 430.021 146.175C430.793 145.047 431.358 143.769 431.714 142.343C432.07 140.917 432.248 139.462 432.248 137.976C432.248 136.55 432.07 135.184 431.714 133.877C431.416 132.51 430.912 131.292 430.199 130.223C429.546 129.153 428.654 128.322 427.526 127.727C426.396 127.073 425.029 126.746 423.426 126.746C420.811 126.746 418.731 127.252 417.187 128.262C415.702 129.212 414.543 130.104 413.711 130.936L412.998 130.223C414.603 128.262 416.563 126.777 418.881 125.766C421.197 124.757 423.782 124.252 426.634 124.252Z" fill="#212844"/>
</svg>
