<svg width="211" height="92" viewBox="0 0 211 92" fill="none" xmlns="http://www.w3.org/2000/svg">
<path d="M15.375 50.3328C14.1417 50.3328 12.6 49.9411 10.75 49.1578C9.45 48.6078 8.425 48.2161 7.675 47.9828C6.94167 47.7328 6.18333 47.6078 5.4 47.6078C4.5 47.6078 3.65 47.7995 2.85 48.1828C2.06667 48.5495 1.25833 49.0078 0.425 49.5578C0.358333 49.6078 0.3 49.6328 0.25 49.6328C0.2 49.6328 0.141667 49.6078 0.0750002 49.5578C0.0250001 49.5078 0 49.4661 0 49.4328C0 49.3995 0.0166667 49.3578 0.0500001 49.3078C0.6 48.5578 1.4 47.8495 2.45 47.1828C3.51667 46.4995 4.73333 46.1578 6.1 46.1578C7.35 46.1578 8.9 46.5495 10.75 47.3328L11.3 47.5578C12.4333 48.0245 13.3333 48.3661 14 48.5828C14.6667 48.7995 15.3583 48.9078 16.075 48.9078C16.975 48.9078 17.8167 48.7245 18.6 48.3578C19.3833 47.9745 20.2 47.4995 21.05 46.9328C21.1333 46.8828 21.1917 46.8578 21.225 46.8578C21.275 46.8578 21.325 46.8828 21.375 46.9328C21.4417 46.9828 21.475 47.0245 21.475 47.0578C21.475 47.0911 21.4583 47.1328 21.425 47.1828C20.875 47.9328 20.0667 48.6495 19 49.3328C17.95 49.9995 16.7417 50.3328 15.375 50.3328Z" fill="#212844"/>
<path d="M85.6016 59.1406C85.5495 60.2344 85.3672 61.4453 85.0547 62.7734C84.7422 64.0755 84.3125 65.4036 83.7656 66.7578C83.2188 68.112 82.5417 69.4271 81.7344 70.7031C80.9271 71.9792 79.9896 73.112 78.9219 74.1016C77.8802 75.0911 76.6953 75.8984 75.3672 76.5234C74.0651 77.1484 72.6328 77.474 71.0703 77.5C69.7682 77.526 68.5312 77.3438 67.3594 76.9531C66.1875 76.5885 65.0547 76.1328 63.9609 75.5859C62.8672 75.0651 61.8125 74.5052 60.7969 73.9062C59.7812 73.3073 58.7786 72.7995 57.7891 72.3828C56.8255 71.9922 55.862 71.7318 54.8984 71.6016C53.9349 71.4974 52.9714 71.6667 52.0078 72.1094C50.9401 72.5781 50.1458 73.2161 49.625 74.0234C49.1302 74.8568 48.8438 75.7161 48.7656 76.6016C48.7135 77.513 48.8568 78.3984 49.1953 79.2578C49.5339 80.1172 50.0286 80.8073 50.6797 81.3281C51.3568 81.875 52.151 82.1745 53.0625 82.2266C54 82.3047 55.0286 82.0052 56.1484 81.3281L55.7969 83.0469C54.7552 83.4635 53.7786 83.6458 52.8672 83.5938C51.9818 83.5417 51.1875 83.3073 50.4844 82.8906C49.7812 82.5 49.1953 81.9661 48.7266 81.2891C48.2578 80.638 47.9193 79.8958 47.7109 79.0625C47.4245 77.9167 47.4115 76.8229 47.6719 75.7812C47.9583 74.7656 48.4141 73.8151 49.0391 72.9297C49.6901 72.0443 50.4714 71.237 51.3828 70.5078C52.3203 69.8047 53.2839 69.2057 54.2734 68.7109C55.2891 68.2422 56.2917 67.8906 57.2812 67.6562C58.2708 67.4219 59.1693 67.3438 59.9766 67.4219C61.2786 67.526 62.5286 67.8255 63.7266 68.3203C64.9505 68.8411 66.1615 69.401 67.3594 70C68.5573 70.625 69.7682 71.2109 70.9922 71.7578C72.2422 72.3307 73.5312 72.7344 74.8594 72.9688C75.6667 73.099 76.474 72.9948 77.2812 72.6562C78.1146 72.3177 78.8958 71.7708 79.625 71.0156C80.3542 70.2865 81.0182 69.362 81.6172 68.2422C82.2161 67.1224 82.7109 65.8333 83.1016 64.375C82.1641 65.651 81.0312 66.4974 79.7031 66.9141C78.5833 67.2266 77.5807 67.2656 76.6953 67.0312C75.8359 66.7969 75.0938 66.3802 74.4688 65.7812C73.8698 65.1823 73.401 64.4141 73.0625 63.4766C72.724 62.5391 72.5547 61.5234 72.5547 60.4297C72.5026 59.9609 72.4896 59.4531 72.5156 58.9062C72.5417 58.3594 72.5938 57.7865 72.6719 57.1875C70.7708 58.5938 68.8698 59.8828 66.9688 61.0547C65.0938 62.2005 63.2448 63.1771 61.4219 63.9844C59.625 64.7917 57.8672 65.4036 56.1484 65.8203C54.4557 66.237 52.8411 66.4193 51.3047 66.3672C49.8984 66.3151 48.7005 66.0156 47.7109 65.4688C46.7214 64.9479 45.9141 64.2839 45.2891 63.4766C44.6641 62.6432 44.2083 61.7318 43.9219 60.7422C43.6615 59.7266 43.5312 58.7109 43.5312 57.6953C43.5312 55.5339 43.9479 53.5026 44.7812 51.6016C45.6146 49.6745 46.6823 47.8516 47.9844 46.1328C49.2865 44.4141 50.7188 42.7995 52.2812 41.2891C53.8698 39.7786 55.4193 38.3464 56.9297 36.9922C58.362 35.7161 59.6901 34.5052 60.9141 33.3594C62.138 32.1875 63.2448 31.0156 64.2344 29.8438C65.224 28.6719 66.0833 27.4479 66.8125 26.1719C67.5677 24.8698 68.1797 23.4505 68.6484 21.9141C69.1693 20.1432 69.2734 18.4115 68.9609 16.7188C68.6745 15 67.8672 13.5417 66.5391 12.3438C66.0182 11.875 65.4062 11.4583 64.7031 11.0938C64.026 10.7292 63.2578 10.4427 62.3984 10.2344C62.3203 10.2344 62.2682 10.2214 62.2422 10.1953C62.1901 10.6901 62.125 11.1719 62.0469 11.6406C61.9948 12.1094 61.9167 12.5781 61.8125 13.0469C61.4479 14.8698 60.8099 16.7839 59.8984 18.7891C59.013 20.7682 57.9193 22.7344 56.6172 24.6875C55.3151 26.6146 53.8438 28.4766 52.2031 30.2734C50.5625 32.0443 48.8177 33.6198 46.9688 35C45.1198 36.3542 43.1927 37.4479 41.1875 38.2812C39.1823 39.1146 37.1641 39.5703 35.1328 39.6484C33.9609 39.7005 32.8802 39.5573 31.8906 39.2188C30.9271 38.8542 30.1458 38.3854 29.5469 37.8125C28.7917 37.2135 28.2318 36.4974 27.8672 35.6641C27.5286 34.8307 27.3333 33.9453 27.2812 33.0078C27.1771 31.4714 27.3203 30 27.7109 28.5938C28.1276 27.1875 28.7135 25.8464 29.4688 24.5703C30.224 23.2682 31.1224 22.0443 32.1641 20.8984C33.2318 19.7526 34.3516 18.6719 35.5234 17.6562C36.7214 16.6406 37.9583 15.6901 39.2344 14.8047C40.5104 13.9193 41.7474 13.112 42.9453 12.3828C44.1172 11.6536 45.4193 11.0026 46.8516 10.4297C48.3099 9.83073 49.8203 9.34896 51.3828 8.98438C52.9714 8.59375 54.5729 8.34635 56.1875 8.24219C57.8281 8.11198 59.4036 8.13802 60.9141 8.32031C60.888 7.33073 60.7318 6.41927 60.4453 5.58594C60.1589 4.7526 59.7031 4.03646 59.0781 3.4375C58.4531 2.8125 57.6328 2.33073 56.6172 1.99219C55.6016 1.65365 54.3516 1.48438 52.8672 1.48438C52.737 1.48438 52.6328 1.47135 52.5547 1.44531V0.742188C53.2057 0.247396 53.9219 0 54.7031 0C56.1615 0 57.3854 0.234375 58.375 0.703125C59.3646 1.17188 60.1458 1.79688 60.7188 2.57812C61.3177 3.35938 61.7344 4.27083 61.9688 5.3125C62.2031 6.35417 62.3203 7.44792 62.3203 8.59375C62.737 8.67188 63.1406 8.77604 63.5312 8.90625C63.9219 9.01042 64.2995 9.1276 64.6641 9.25781C65.7318 9.67448 66.7083 10.2214 67.5938 10.8984C68.5052 11.5495 69.2734 12.3698 69.8984 13.3594C70.5495 14.3229 71.0573 15.4557 71.4219 16.7578C71.7865 18.0339 71.9688 19.4922 71.9688 21.1328C71.9688 23.138 71.6562 25.0781 71.0312 26.9531C70.4062 28.8021 69.5729 30.599 68.5312 32.3438C67.5156 34.0625 66.3438 35.7422 65.0156 37.3828C63.6875 39.0234 62.3333 40.625 60.9531 42.1875C60.276 42.9427 59.4948 43.7891 58.6094 44.7266C57.724 45.6641 56.7995 46.6536 55.8359 47.6953C54.8984 48.737 53.974 49.8177 53.0625 50.9375C52.151 52.0312 51.3307 53.138 50.6016 54.2578C49.8724 55.3776 49.2734 56.4844 48.8047 57.5781C48.362 58.6719 48.1276 59.7266 48.1016 60.7422C48.0755 61.7839 48.362 62.6302 48.9609 63.2812C49.5859 63.9062 50.3411 64.362 51.2266 64.6484C52.138 64.9349 53.1016 65.0521 54.1172 65C55.1589 64.9479 56.0964 64.7396 56.9297 64.375C59.6901 63.3073 62.3984 62.0182 65.0547 60.5078C67.737 58.9974 70.3802 57.2786 72.9844 55.3516C73.375 53.5547 73.974 51.6016 74.7812 49.4922C75.5885 47.3568 76.5391 45.1693 77.6328 42.9297C78.7266 40.6641 79.9505 38.3984 81.3047 36.1328C82.6589 33.8411 84.0781 31.6406 85.5625 29.5312C87.0469 27.3958 88.5573 25.4036 90.0938 23.5547C91.6562 21.6797 93.1927 20.0391 94.7031 18.6328C96.2396 17.2266 97.7109 16.0938 99.1172 15.2344C100.549 14.375 101.878 13.8802 103.102 13.75C103.909 13.9323 104.469 14.3229 104.781 14.9219C105.094 15.4948 105.237 16.1719 105.211 16.9531C105.211 17.7344 105.081 18.5807 104.82 19.4922C104.586 20.4036 104.299 21.276 103.961 22.1094C103.622 22.9167 103.284 23.6458 102.945 24.2969C102.607 24.9479 102.359 25.4167 102.203 25.7031C101.214 27.3958 99.9635 29.2708 98.4531 31.3281C96.9427 33.3594 95.237 35.4948 93.3359 37.7344C91.4349 39.9479 89.3646 42.2005 87.125 44.4922C84.9115 46.7578 82.6068 48.9453 80.2109 51.0547C79.9245 51.9141 79.6641 52.8125 79.4297 53.75C79.2214 54.6615 79.026 55.5599 78.8438 56.4453C78.6875 57.3047 78.5443 58.151 78.4141 58.9844C78.3099 59.7917 78.2318 60.5208 78.1797 61.1719C78.1016 61.849 78.0365 62.487 77.9844 63.0859C77.9323 63.6589 77.9583 64.1536 78.0625 64.5703C78.1667 64.987 78.375 65.2734 78.6875 65.4297C79 65.612 79.4557 65.599 80.0547 65.3906C80.6276 65.2083 81.1875 64.8047 81.7344 64.1797C82.3073 63.5547 82.8411 62.6953 83.3359 61.6016L83.6484 61.3281H83.7266C83.7786 61.0417 83.8177 60.7552 83.8438 60.4688C83.8698 60.1562 83.8958 59.8438 83.9219 59.5312L85.6016 59.1406ZM44.1172 13.2812C41.2005 14.8958 38.5964 16.7969 36.3047 18.9844C34.0391 21.1458 32.138 23.3333 30.6016 25.5469C29.2734 27.9948 28.5964 30.1042 28.5703 31.875C28.5703 33.6458 28.987 35.026 29.8203 36.0156C30.4193 36.7188 31.1615 37.2266 32.0469 37.5391C32.9323 37.8516 33.9479 38.0208 35.0938 38.0469C37.2031 38.0729 39.2474 37.6432 41.2266 36.7578C43.2318 35.8724 45.1198 34.7005 46.8906 33.2422C48.6615 31.7839 50.3021 30.1432 51.8125 28.3203C53.3229 26.4714 54.6641 24.6224 55.8359 22.7734C57.0078 20.9245 57.9714 19.1406 58.7266 17.4219C59.5078 15.7031 60.0417 14.2448 60.3281 13.0469C60.4583 12.526 60.5625 12.0052 60.6406 11.4844C60.7188 10.9635 60.7839 10.4557 60.8359 9.96094C59.4557 9.7526 58.0365 9.6875 56.5781 9.76562C55.1198 9.81771 53.6745 9.98698 52.2422 10.2734C50.8099 10.5599 49.4036 10.9635 48.0234 11.4844C46.6693 12.0052 45.3672 12.6042 44.1172 13.2812ZM100.484 16.9922C99.2865 17.9557 98.0625 19.1667 96.8125 20.625C95.5885 22.0833 94.3646 23.6979 93.1406 25.4688C91.9167 27.2396 90.7188 29.1146 89.5469 31.0938C88.375 33.0729 87.2682 35.0781 86.2266 37.1094C85.1849 39.1146 84.2214 41.1068 83.3359 43.0859C82.4505 45.0391 81.6823 46.888 81.0312 48.6328C81.8385 47.9036 82.6328 47.1615 83.4141 46.4062C84.1953 45.625 84.9635 44.8307 85.7188 44.0234C86.7344 42.9557 87.8411 41.7839 89.0391 40.5078C90.237 39.2318 91.4479 37.9036 92.6719 36.5234C93.9219 35.1172 95.1328 33.6589 96.3047 32.1484C97.5026 30.638 98.5964 29.1146 99.5859 27.5781C100.602 26.0417 101.474 24.5052 102.203 22.9688C102.932 21.4062 103.453 19.8698 103.766 18.3594C103.896 17.6823 103.87 17.1094 103.688 16.6406C103.531 16.1719 103.193 15.8594 102.672 15.7031C102.281 15.8333 101.891 16.0417 101.5 16.3281C101.135 16.5885 100.797 16.8099 100.484 16.9922ZM103.609 13.7109C103.635 13.7109 103.596 13.7109 103.492 13.7109C103.388 13.6849 103.258 13.6719 103.102 13.6719C102.971 13.6719 102.854 13.6719 102.75 13.6719C102.646 13.6719 102.607 13.6719 102.633 13.6719C102.711 13.6979 102.789 13.7109 102.867 13.7109C102.945 13.7109 103.023 13.724 103.102 13.75C103.18 13.75 103.258 13.75 103.336 13.75C103.44 13.724 103.531 13.7109 103.609 13.7109Z" fill="#212844"/>
<path d="M103.023 41.9141C104.326 41.0026 105.484 40.5469 106.5 40.5469C106.995 40.5469 107.398 40.7552 107.711 41.1719C108.049 41.5625 108.258 42.1224 108.336 42.8516C108.44 43.5807 108.414 44.4661 108.258 45.5078C108.102 46.5495 107.802 47.7083 107.359 48.9844C109.339 48.9062 111.839 47.6562 114.859 45.2344L115.523 46.1328C113.466 47.7214 111.799 48.776 110.523 49.2969C109.299 49.7917 108.154 50.0391 107.086 50.0391H106.93C106.721 50.612 106.474 51.1849 106.188 51.7578C105.901 52.3307 105.576 52.9167 105.211 53.5156C103.388 56.7708 101.37 59.388 99.1562 61.3672C96.9948 63.2943 95.1719 64.2578 93.6875 64.2578C92.5156 64.2578 91.6432 63.724 91.0703 62.6562C90.4714 61.5885 90.1719 60.2734 90.1719 58.7109C90.1719 56.7318 90.8229 54.5833 92.125 52.2656C93.4271 50 94.5859 47.9557 95.6016 46.1328C96.6172 44.2839 97.5547 42.5911 98.4141 41.0547C99.2995 39.5182 100.133 38.0859 100.914 36.7578C101.721 35.4036 102.542 34.0885 103.375 32.8125C104.495 31.0938 105.667 29.4401 106.891 27.8516C108.115 26.237 109.352 24.8177 110.602 23.5938C111.878 22.3698 113.128 21.4323 114.352 20.7812C115.576 20.1042 116.747 19.8438 117.867 20C118.727 20.1302 119.26 20.625 119.469 21.4844C119.677 22.3438 119.651 23.3333 119.391 24.4531C119.182 25.2865 118.792 26.224 118.219 27.2656C117.672 28.2812 116.982 29.349 116.148 30.4688C115.315 31.5885 114.365 32.7083 113.297 33.8281C112.255 34.9479 111.161 36.0286 110.016 37.0703C108.87 38.0859 107.698 39.0104 106.5 39.8438C105.302 40.6771 104.143 41.3672 103.023 41.9141ZM104.117 53.125C104.456 52.526 104.768 51.9531 105.055 51.4062C105.341 50.8333 105.589 50.2865 105.797 49.7656C105.172 49.4531 104.742 48.9583 104.508 48.2812C104.273 47.5781 104.195 46.901 104.273 46.25C104.352 45.4948 104.729 44.7135 105.406 43.9062C106.031 43.125 106.708 42.6693 107.438 42.5391C107.229 41.7578 106.904 41.3672 106.461 41.3672C106.227 41.3672 105.914 41.4453 105.523 41.6016C105.159 41.7578 104.755 41.9792 104.312 42.2656C103.87 42.526 103.401 42.8385 102.906 43.2031C102.438 43.5677 101.982 43.9583 101.539 44.375C101.409 44.6354 101.214 44.9609 100.953 45.3516C100.719 45.7422 100.432 46.2109 100.094 46.7578C99.7552 47.2786 99.4557 47.7344 99.1953 48.125C98.9609 48.5156 98.7786 48.8151 98.6484 49.0234C98.362 49.4922 98.0495 50 97.7109 50.5469C97.3724 51.0938 97.0078 51.6667 96.6172 52.2656C96.0964 53.2812 95.6276 54.2839 95.2109 55.2734C94.8203 56.237 94.4688 57.1615 94.1562 58.0469C93.8698 58.9062 93.6484 59.7135 93.4922 60.4688C93.3359 61.224 93.2578 61.875 93.2578 62.4219C93.2578 62.9688 93.401 63.2422 93.6875 63.2422C94.8854 63.2422 96.526 62.2656 98.6094 60.3125C100.745 58.3333 102.581 55.9375 104.117 53.125ZM102.477 41.2891C103.753 40.4818 105.055 39.5443 106.383 38.4766C107.711 37.4089 108.987 36.276 110.211 35.0781C111.461 33.8802 112.607 32.6432 113.648 31.3672C114.69 30.0651 115.536 28.7891 116.188 27.5391C116.865 26.263 117.32 25.026 117.555 23.8281C117.789 22.6302 117.711 21.5234 117.32 20.5078C116.695 20.3516 116.044 20.4948 115.367 20.9375C114.69 21.3802 114 22.0312 113.297 22.8906C112.62 23.724 111.93 24.7005 111.227 25.8203C110.549 26.9141 109.885 28.0339 109.234 29.1797C108.609 30.3255 108.01 31.4323 107.438 32.5C106.891 33.5417 106.396 34.4271 105.953 35.1562C105.302 36.3281 104.69 37.3958 104.117 38.3594C103.544 39.2969 102.997 40.2734 102.477 41.2891Z" fill="#212844"/>
<path d="M112.711 63.2422C115.315 63.2422 119.417 59.5833 125.016 52.2656H126.227C125.003 53.8802 123.818 55.3516 122.672 56.6797C121.552 57.9818 120.367 59.2318 119.117 60.4297C117.893 61.6276 116.708 62.5651 115.562 63.2422C114.417 63.9193 113.388 64.2578 112.477 64.2578C111.096 64.2578 109.924 63.763 108.961 62.7734C108.023 61.7839 107.555 60.2865 107.555 58.2812C107.555 56.5365 108.076 54.6094 109.117 52.5C110.159 50.3646 111.448 48.4245 112.984 46.6797C114.547 44.9349 116.279 43.4766 118.18 42.3047C120.081 41.1328 121.839 40.5469 123.453 40.5469C123.74 40.5469 124.026 40.599 124.312 40.7031C124.625 40.8073 124.938 40.9896 125.25 41.25C125.562 41.4844 125.81 41.862 125.992 42.3828C126.201 42.8776 126.305 43.5026 126.305 44.2578C126.305 45.9766 125.602 47.6302 124.195 49.2188C122.789 50.8073 121.109 51.9661 119.156 52.6953C117.203 53.3984 115.484 53.4766 114 52.9297C112.177 56.2891 111.266 58.8932 111.266 60.7422C111.266 62.4089 111.747 63.2422 112.711 63.2422ZM123.219 41.3672C122.516 41.3672 121.227 42.513 119.352 44.8047C117.503 47.0964 115.81 49.6224 114.273 52.3828C115.237 52.5391 116.214 52.3828 117.203 51.9141C118.219 51.4453 119.104 50.8073 119.859 50C120.641 49.1667 121.331 48.2682 121.93 47.3047C122.555 46.3151 123.023 45.3646 123.336 44.4531C123.674 43.5417 123.844 42.7865 123.844 42.1875C123.844 41.6406 123.635 41.3672 123.219 41.3672Z" fill="#212844"/>
<path d="M156.266 52.2656H157.438C156.917 53.099 156.37 53.9193 155.797 54.7266C155.224 55.5339 154.456 56.5495 153.492 57.7734C152.529 58.9974 151.617 60.0651 150.758 60.9766C149.924 61.862 149.026 62.6302 148.062 63.2812C147.125 63.9323 146.292 64.2578 145.562 64.2578C145.328 64.2578 145.068 64.2318 144.781 64.1797C144.521 64.1016 144.221 63.9583 143.883 63.75C143.544 63.5417 143.245 63.2682 142.984 62.9297C142.724 62.5911 142.503 62.1094 142.32 61.4844C142.138 60.8594 142.047 60.1302 142.047 59.2969C142.047 58.4375 142.398 57.3568 143.102 56.0547C143.805 54.7526 144.651 53.4505 145.641 52.1484C146.63 50.8203 147.607 49.5443 148.57 48.3203C149.56 47.0703 150.406 45.9245 151.109 44.8828C151.812 43.8411 152.164 43.0859 152.164 42.6172C152.164 42.0703 151.956 41.7969 151.539 41.7969C150.966 41.7969 150.185 42.2005 149.195 43.0078C148.206 43.7891 147.19 44.7786 146.148 45.9766C145.107 47.1484 143.948 48.5677 142.672 50.2344C141.396 51.875 140.25 53.3854 139.234 54.7656C138.245 56.1458 137.229 57.5911 136.188 59.1016C134.859 61.1849 133.74 62.8385 132.828 64.0625H128.609C129.052 63.2812 130.406 61.1458 132.672 57.6562C134.938 54.1667 136.878 51.0156 138.492 48.2031C140.107 45.3646 140.914 43.5026 140.914 42.6172C140.914 42.0703 140.745 41.7969 140.406 41.7969C139.964 41.7969 139.286 42.1875 138.375 42.9688C137.49 43.724 136.578 44.6224 135.641 45.6641C134.703 46.7057 133.661 47.9557 132.516 49.4141C131.37 50.8464 130.419 52.0573 129.664 53.0469C128.935 54.0104 128.206 54.987 127.477 55.9766L122.711 64.0625H118.141L121.734 58.5547L124.977 52.3438L132.125 40.7422H136.617C136.513 40.9245 136.24 41.3542 135.797 42.0312C135.38 42.7083 134.898 43.4766 134.352 44.3359C133.831 45.1953 133.466 45.7943 133.258 46.1328C132.424 47.487 131.786 48.5026 131.344 49.1797C135.641 43.4245 138.87 40.5469 141.031 40.5469C141.812 40.5469 142.464 40.8203 142.984 41.3672C143.531 41.888 143.805 42.7083 143.805 43.8281C143.805 45.0521 142.932 47.3047 141.188 50.5859C145.849 43.8932 149.508 40.5469 152.164 40.5469C152.997 40.5469 153.688 40.8073 154.234 41.3281C154.781 41.849 155.055 42.6823 155.055 43.8281C155.055 44.7917 154.69 45.9635 153.961 47.3438C153.258 48.724 152.398 50.1042 151.383 51.4844C150.393 52.8646 149.391 54.2188 148.375 55.5469C147.359 56.875 146.5 58.125 145.797 59.2969C145.094 60.4427 144.742 61.3411 144.742 61.9922C144.742 62.8255 145.016 63.2422 145.562 63.2422C146.109 63.2422 146.773 62.9688 147.555 62.4219C148.362 61.849 149.143 61.1719 149.898 60.3906C150.654 59.5833 151.461 58.6458 152.32 57.5781C153.206 56.5104 153.935 55.5729 154.508 54.7656C155.107 53.9323 155.693 53.099 156.266 52.2656Z" fill="#212844"/>
<path d="M186.383 52.3828C185.628 53.4245 184.898 54.4271 184.195 55.3906C183.492 56.3281 182.802 57.2135 182.125 58.0469C181.448 58.8802 180.758 59.6615 180.055 60.3906C179.378 61.1198 178.701 61.8099 178.023 62.4609C176.669 63.737 175.628 64.375 174.898 64.375C174.482 64.375 174.078 64.2578 173.688 64.0234C173.297 63.763 172.945 63.3984 172.633 62.9297C172.32 62.4609 172.073 61.888 171.891 61.2109C171.708 60.5078 171.617 59.7005 171.617 58.7891C171.617 57.9297 171.943 56.7578 172.594 55.2734C173.245 53.763 174.026 52.2005 174.938 50.5859C175.146 50.2474 175.328 49.9219 175.484 49.6094C175.667 49.2708 175.862 48.9453 176.07 48.6328C175.367 49.1536 174.612 49.5964 173.805 49.9609C172.997 50.3255 172.138 50.5599 171.227 50.6641C171.435 51.6276 171.383 52.7474 171.07 54.0234C170.706 55.5339 170.094 56.9271 169.234 58.2031C168.401 59.4792 167.411 60.5859 166.266 61.5234C165.12 62.4349 163.883 63.1641 162.555 63.7109C161.227 64.2318 159.911 64.4922 158.609 64.4922C157.646 64.5964 156.878 64.4922 156.305 64.1797C155.732 63.8672 155.289 63.4245 154.977 62.8516C154.664 62.2786 154.482 61.6276 154.43 60.8984C154.352 60.1432 154.352 59.401 154.43 58.6719C154.508 57.9167 154.651 57.2005 154.859 56.5234C155.042 55.8464 155.237 55.2865 155.445 54.8438C156.565 52.0312 157.815 49.4922 159.195 47.2266C160.576 44.9349 161.891 42.7734 163.141 40.7422H167.75C167.646 40.8724 167.164 41.6536 166.305 43.0859C165.445 44.4922 164.221 46.6536 162.633 49.5703C163.544 48.763 164.43 48.1771 165.289 47.8125C166.174 47.4479 166.982 47.2917 167.711 47.3438C168.466 47.3698 169.117 47.5911 169.664 48.0078C170.237 48.3984 170.667 48.9453 170.953 49.6484C172.229 49.5964 173.453 49.2057 174.625 48.4766C175.797 47.7214 176.826 46.901 177.711 46.0156C178.154 45.2604 178.583 44.5833 179 43.9844C179.417 43.3594 179.794 42.7995 180.133 42.3047L181.109 40.8594H186.07C185.914 41.0938 185.732 41.3672 185.523 41.6797C185.315 41.9922 185.081 42.3307 184.82 42.6953C184.56 43.0599 184.195 43.6068 183.727 44.3359C183.284 45.0391 182.724 45.9115 182.047 46.9531C181.37 47.9948 180.745 48.9844 180.172 49.9219C179.599 50.8594 179.052 51.7708 178.531 52.6562C178.01 53.5417 177.516 54.4401 177.047 55.3516C176.604 56.237 176.174 57.1354 175.758 58.0469C174.924 59.9219 174.508 61.276 174.508 62.1094C174.508 62.7865 174.781 63.125 175.328 63.125C176.005 63.125 177.255 62.0964 179.078 60.0391C180.953 57.9297 182.997 55.3776 185.211 52.3828H186.383ZM160.172 54.2578C159.755 55.0651 159.352 56.0286 158.961 57.1484C158.57 58.2422 158.284 59.2839 158.102 60.2734C157.945 61.263 157.945 62.0833 158.102 62.7344C158.258 63.3854 158.674 63.6719 159.352 63.5938C160.055 63.5156 160.771 63.1771 161.5 62.5781C162.255 61.9531 162.971 61.1849 163.648 60.2734C164.352 59.362 164.99 58.3594 165.562 57.2656C166.161 56.1458 166.656 55.0391 167.047 53.9453C167.255 53.3984 167.451 52.7474 167.633 51.9922C167.841 51.2109 167.945 50.5339 167.945 49.9609C167.919 49.2839 167.711 48.8411 167.32 48.6328C166.93 48.3984 166.422 48.3594 165.797 48.5156C165.198 48.6719 164.534 48.9974 163.805 49.4922C163.102 49.987 162.398 50.612 161.695 51.3672C161.435 51.8099 161.174 52.2786 160.914 52.7734C160.68 53.2422 160.432 53.737 160.172 54.2578Z" fill="#212844"/>
<path d="M204.375 50.3328C203.142 50.3328 201.6 49.9411 199.75 49.1578C198.45 48.6078 197.425 48.2161 196.675 47.9828C195.942 47.7328 195.183 47.6078 194.4 47.6078C193.5 47.6078 192.65 47.7995 191.85 48.1828C191.067 48.5495 190.258 49.0078 189.425 49.5578C189.358 49.6078 189.3 49.6328 189.25 49.6328C189.2 49.6328 189.142 49.6078 189.075 49.5578C189.025 49.5078 189 49.4661 189 49.4328C189 49.3995 189.017 49.3578 189.05 49.3078C189.6 48.5578 190.4 47.8495 191.45 47.1828C192.517 46.4995 193.733 46.1578 195.1 46.1578C196.35 46.1578 197.9 46.5495 199.75 47.3328L200.3 47.5578C201.433 48.0245 202.333 48.3661 203 48.5828C203.667 48.7995 204.358 48.9078 205.075 48.9078C205.975 48.9078 206.817 48.7245 207.6 48.3578C208.383 47.9745 209.2 47.4995 210.05 46.9328C210.133 46.8828 210.192 46.8578 210.225 46.8578C210.275 46.8578 210.325 46.8828 210.375 46.9328C210.442 46.9828 210.475 47.0245 210.475 47.0578C210.475 47.0911 210.458 47.1328 210.425 47.1828C209.875 47.9328 209.067 48.6495 208 49.3328C206.95 49.9995 205.742 50.3328 204.375 50.3328Z" fill="#212844"/>
</svg>
