<svg width="477" height="233" viewBox="0 0 477 233" fill="none" xmlns="http://www.w3.org/2000/svg">
<path d="M93.1114 54.1294C94.1876 55.1424 95.1056 55.9971 95.8653 56.6935C96.625 57.3266 97.4164 57.833 98.2394 58.2129C99.0624 58.5927 99.9488 58.846 100.898 58.9726C101.911 59.0992 103.146 59.1625 104.602 59.1625V60.3021H89.0279C88.7114 59.8589 87.92 58.8776 86.6538 57.3582C85.3876 55.7755 83.8999 53.8762 82.1905 51.6604C80.4812 49.4445 78.6452 47.0704 76.6826 44.5381C74.72 42.0057 72.8208 39.6 70.9848 37.3208C69.2121 34.9784 67.5977 32.8892 66.1416 31.0532C64.7488 29.2172 63.7675 27.9194 63.1977 27.1597H61.2985V52.705C61.2985 54.351 61.4567 55.6172 61.7733 56.5035C62.1531 57.3899 62.6913 58.023 63.3877 58.4028C64.0841 58.7827 64.9387 59.0042 65.9517 59.0676C66.9646 59.1309 68.1675 59.1625 69.5603 59.1625V60.3021H46.4841V59.1625C48.0035 59.1625 49.2697 59.1309 50.2826 59.0676C51.3589 59.0042 52.2136 58.7827 52.8467 58.4028C53.5431 57.9596 54.0179 57.2949 54.2711 56.4086C54.5877 55.5222 54.746 54.2877 54.746 52.705V9.11654C54.746 7.59712 54.5877 6.39424 54.2711 5.50791C54.0179 4.62158 53.5431 3.95683 52.8467 3.51366C52.2136 3.0705 51.3906 2.78561 50.3776 2.65899C49.3647 2.53237 48.0985 2.46906 46.5791 2.46906V1.42446H69.4654V2.46906C67.9459 2.46906 66.6798 2.53237 65.6668 2.65899C64.6539 2.78561 63.7992 3.0705 63.1028 3.51366C62.4697 3.95683 61.9949 4.62158 61.6783 5.50791C61.4251 6.39424 61.2985 7.59712 61.2985 9.11654V25.1654H63.4826L79.6265 8.92661C81.7157 6.83741 82.7603 5.28633 82.7603 4.27338C82.7603 3.7669 82.5071 3.38705 82.0006 3.13381C81.5574 2.88057 81.0193 2.7223 80.3862 2.65899C79.7531 2.53237 79.12 2.46906 78.4869 2.46906C77.8538 2.46906 77.379 2.46906 77.0625 2.46906V1.42446H98.8092V2.46906C92.225 2.46906 86.5905 4.81151 81.9056 9.49639L68.1359 23.0762L82.5704 41.5942C87.2553 47.5453 90.7689 51.7237 93.1114 54.1294Z" fill="white"/>
<path d="M164.758 52.515C164.758 54.0978 164.916 55.364 165.233 56.3136C165.613 57.1999 166.119 57.8647 166.752 58.3078C167.449 58.6877 168.335 58.9409 169.411 59.0676C170.487 59.1309 171.722 59.1625 173.115 59.1625V60.3021H150.039V59.1625C151.558 59.1625 152.824 59.1309 153.837 59.0676C154.913 58.9409 155.768 58.656 156.401 58.2129C157.098 57.7697 157.604 57.105 157.921 56.2186C158.237 55.3323 158.395 54.0978 158.395 52.515V9.49639L117.466 61.7265L115.092 60.6819V9.11654C115.092 7.53381 114.934 6.29928 114.617 5.41295C114.3 4.52662 113.794 3.86187 113.098 3.4187C112.464 2.97554 111.61 2.7223 110.534 2.65899C109.521 2.53237 108.254 2.46906 106.735 2.46906V1.32949H129.811V2.46906C128.292 2.46906 126.994 2.53237 125.918 2.65899C124.905 2.7223 124.05 2.97554 123.354 3.4187C122.721 3.86187 122.246 4.52662 121.929 5.41295C121.613 6.29928 121.454 7.53381 121.454 9.11654V52.9899L162.859 0L164.758 0.759713V52.515Z" fill="white"/>
<path d="M199.003 34.187C201.345 34.187 203.403 33.7755 205.175 32.9525C207.011 32.1295 208.531 31.0215 209.734 29.6287C211 28.1726 211.95 26.4949 212.583 24.5957C213.279 22.6331 213.627 20.5439 213.627 18.328C213.627 16.1122 213.311 14.0547 212.678 12.1554C212.108 10.1928 211.222 8.48344 210.019 7.02733C208.816 5.57122 207.296 4.43165 205.46 3.60863C203.688 2.7223 201.599 2.27914 199.193 2.27914C197.673 2.27914 196.407 2.34245 195.394 2.46906C194.445 2.59568 193.685 2.91223 193.115 3.4187C192.545 3.86187 192.134 4.52662 191.881 5.41295C191.691 6.29928 191.596 7.50215 191.596 9.02157V52.61C191.596 54.3194 191.881 55.6172 192.45 56.5035C193.083 57.3899 193.906 58.0546 194.919 58.4978C195.996 58.8776 197.262 59.0992 198.718 59.1625C200.174 59.1625 201.725 59.1625 203.371 59.1625V60.3021H176.781V59.1625C178.174 59.1625 179.377 59.1309 180.39 59.0676C181.466 59.0042 182.352 58.7827 183.049 58.4028C183.809 58.023 184.347 57.3899 184.663 56.5035C185.043 55.6172 185.233 54.351 185.233 52.705V8.83164C185.233 7.24891 185.075 6.04604 184.758 5.22302C184.505 4.33669 184.03 3.70359 183.334 3.32374C182.701 2.88057 181.846 2.62734 180.77 2.56403C179.757 2.50072 178.491 2.46906 176.971 2.46906V1.42446H187.322C189.158 1.42446 190.931 1.36115 192.64 1.23453L196.249 1.04461C198.022 0.917986 199.794 0.854676 201.567 0.854676C204.163 0.854676 206.632 1.13957 208.974 1.70935C211.316 2.27913 213.374 3.19712 215.147 4.46331C216.919 5.66618 218.312 7.28057 219.325 9.30647C220.401 11.2691 220.939 13.7065 220.939 16.6187C220.939 19.5309 220.37 22.1899 219.23 24.5957C218.154 26.9381 216.666 28.9323 214.767 30.5784C212.931 32.1611 210.747 33.3956 208.214 34.282C205.682 35.1683 202.991 35.6115 200.142 35.6115C198.623 35.6115 197.198 35.4532 195.869 35.1367C194.54 34.7568 193.527 34.3136 192.83 33.8072V32.5726C193.273 32.8259 194.033 33.1741 195.109 33.6172C196.249 33.9971 197.547 34.187 199.003 34.187Z" fill="white"/>
<path d="M281.701 52.515C281.701 54.0978 281.859 55.364 282.176 56.3136C282.555 57.1999 283.062 57.8647 283.695 58.3078C284.391 58.6877 285.278 58.9409 286.354 59.0676C287.43 59.1309 288.665 59.1625 290.058 59.1625V60.3021H266.981V59.1625C268.501 59.1625 269.767 59.1309 270.78 59.0676C271.856 58.9409 272.711 58.656 273.344 58.2129C274.04 57.7697 274.547 57.105 274.863 56.2186C275.18 55.3323 275.338 54.0978 275.338 52.515V9.49639L234.409 61.7265L232.035 60.6819V9.11654C232.035 7.53381 231.876 6.29928 231.56 5.41295C231.243 4.52662 230.737 3.86187 230.04 3.4187C229.407 2.97554 228.553 2.7223 227.476 2.65899C226.463 2.53237 225.197 2.46906 223.678 2.46906V1.32949H246.754V2.46906C245.235 2.46906 243.937 2.53237 242.861 2.65899C241.848 2.7223 240.993 2.97554 240.297 3.4187C239.663 3.86187 239.189 4.52662 238.872 5.41295C238.556 6.29928 238.397 7.53381 238.397 9.11654V52.9899L279.802 0L281.701 0.759713V52.515Z" fill="white"/>
<path d="M353.361 55.364C353.995 56.2503 354.849 57.105 355.925 57.928C357.065 58.751 358.648 59.1625 360.674 59.1625V60.3021H338.452V59.1625C341.111 59.1625 342.947 58.9409 343.96 58.4978C344.973 58.0546 345.479 57.3582 345.479 56.4086C345.479 55.5855 345.036 54.2244 344.15 52.3251L323.828 9.40143L307.304 48.4316C306.861 49.4445 306.513 50.3942 306.259 51.2805C306.006 52.1668 305.879 52.9899 305.879 53.7496C305.879 55.5222 306.639 56.8834 308.159 57.833C309.678 58.7194 312.084 59.1625 315.376 59.1625V60.3021H292.015V59.1625C294.167 59.1625 295.94 58.8776 297.333 58.3078C298.726 57.7381 299.897 56.9467 300.846 55.9338C301.796 54.8575 302.587 53.623 303.221 52.2302C303.917 50.774 304.613 49.1913 305.31 47.482L325.442 0.0949683H326.487L349.088 47.482C349.911 49.3179 350.671 50.869 351.367 52.1352C352.127 53.4014 352.792 54.4776 353.361 55.364Z" fill="white"/>
<path d="M423.75 55.364C424.383 56.2503 425.238 57.105 426.314 57.928C427.453 58.751 429.036 59.1625 431.062 59.1625V60.3021H408.84V59.1625C411.499 59.1625 413.335 58.9409 414.348 58.4978C415.361 58.0546 415.868 57.3582 415.868 56.4086C415.868 55.5855 415.425 54.2244 414.538 52.3251L394.216 9.40143L377.692 48.4316C377.249 49.4445 376.901 50.3942 376.648 51.2805C376.394 52.1668 376.268 52.9899 376.268 53.7496C376.268 55.5222 377.028 56.8834 378.547 57.833C380.066 58.7194 382.472 59.1625 385.764 59.1625V60.3021H362.403V59.1625C364.556 59.1625 366.328 58.8776 367.721 58.3078C369.114 57.7381 370.285 56.9467 371.235 55.9338C372.184 54.8575 372.976 53.623 373.609 52.2302C374.305 50.774 375.002 49.1913 375.698 47.482L395.83 0.0949683H396.875L419.476 47.482C420.299 49.3179 421.059 50.869 421.756 52.1352C422.515 53.4014 423.18 54.4776 423.75 55.364Z" fill="white"/>
<path d="M234.533 88.7996C238.078 88.7996 240.838 89.7112 242.814 91.5345C244.789 93.3072 245.776 95.485 245.776 98.0681C245.776 100.651 244.89 103.107 243.117 105.437C241.345 107.767 238.838 109.54 235.596 110.755L245.093 124.126L249.043 114.022H245.169V112.655H256.792V114.022H252.006C251.55 114.022 251.196 114.377 250.942 115.086L246.536 126.101L253.449 135.674C253.703 136.079 254.057 136.282 254.513 136.282H257.248V137.649H252.994C250.512 137.649 248.663 137.801 247.448 138.105L243.345 132.255C240.306 136.459 236.153 138.561 230.886 138.561C226.53 138.561 223.086 137.244 220.554 134.61C218.072 131.926 216.831 128.912 216.831 125.57C216.831 122.176 217.844 119.239 219.87 116.757C221.947 114.275 224.935 112.452 228.835 111.287L226.48 107.868C224.353 104.88 223.289 101.892 223.289 98.9037C223.289 95.9155 224.277 93.4845 226.252 91.6105C228.278 89.7365 231.038 88.7996 234.533 88.7996ZM232.405 135.598C236.356 135.598 239.597 133.876 242.13 130.432L230.05 113.034C225.492 115.465 223.213 119.441 223.213 124.962C223.213 128.406 224.099 131.04 225.872 132.863C227.645 134.686 229.822 135.598 232.405 135.598ZM234.457 90.7748C230.202 90.7748 228.075 92.8767 228.075 97.0804C228.075 99.157 228.961 101.436 230.734 103.918L234.457 109.236C236.533 108.223 238.129 106.754 239.243 104.829C240.357 102.854 240.914 100.778 240.914 98.5999C240.914 96.3714 240.332 94.5227 239.167 93.054C238.053 91.5345 236.483 90.7748 234.457 90.7748Z" fill="white"/>
<path d="M56.5035 210.272C56.3769 210.969 56.1553 212.108 55.8388 213.691C55.5222 215.21 55.174 216.793 54.7942 218.439C54.4776 220.022 54.1927 221.446 53.9395 222.712C53.6863 223.915 53.5597 224.517 53.5597 224.517C52.61 225.466 51.2805 226.289 49.5712 226.986C48.1151 227.619 46.1525 228.189 43.6834 228.695C41.2776 229.202 38.2071 229.455 34.4719 229.455C29.7237 229.455 25.2604 228.79 21.082 227.461C16.9036 226.068 13.2316 224.042 10.0662 221.383C6.96402 218.724 4.49496 215.463 2.65899 211.602C0.88633 207.676 0 203.213 0 198.212C0 193.337 0.88633 189.032 2.65899 185.297C4.43165 181.498 6.8374 178.333 9.87625 175.8C12.9784 173.205 16.587 171.242 20.7021 169.912C24.8805 168.52 29.3439 167.823 34.092 167.823C37.6374 167.823 40.423 168.108 42.4489 168.678C44.5381 169.248 46.469 169.976 48.2417 170.862C48.6215 171.052 48.9697 171.147 49.2863 171.147C49.7294 171.147 50.2043 170.894 50.7107 170.387C51.2172 169.817 51.4704 168.963 51.4704 167.823H52.61L55.7438 187.006L54.6043 187.196C53.9079 184.853 52.9899 182.606 51.8503 180.453C50.774 178.301 49.4129 176.402 47.7669 174.756C46.1208 173.11 44.1899 171.812 41.9741 170.862C39.7582 169.849 37.1625 169.343 34.187 169.343C29.8187 169.343 25.9568 170.071 22.6014 171.527C19.3093 172.983 16.5554 175.009 14.3396 177.605C12.1237 180.137 10.446 183.144 9.30646 186.626C8.1669 190.108 7.59711 193.875 7.59711 197.927C7.59711 201.789 8.23021 205.524 9.49639 209.133C10.8259 212.741 12.6619 215.938 15.0043 218.724C17.4101 221.51 20.259 223.757 23.5511 225.466C26.9064 227.112 30.5784 227.935 34.5669 227.935C37.1625 227.935 39.5683 227.524 41.7841 226.701C43.9999 225.815 45.9625 224.58 47.6719 222.997C49.4445 221.415 50.964 219.547 52.2302 217.394C53.4963 215.242 54.5093 212.836 55.269 210.177L56.5035 210.272Z" fill="white"/>
<path d="M90.8738 195.933C93.5328 196.249 95.7803 196.946 97.6162 198.022C99.4522 199.035 100.94 200.238 102.08 201.63C103.219 203.023 104.042 204.543 104.549 206.189C105.055 207.835 105.308 209.449 105.308 211.032C105.308 213.754 104.802 216.223 103.789 218.439C102.776 220.592 101.383 222.459 99.6105 224.042C97.8378 225.561 95.8119 226.764 93.5328 227.651C91.2536 228.474 88.8162 228.885 86.2206 228.885C84.8911 228.885 83.6882 228.853 82.6119 228.79C81.599 228.727 80.5544 228.663 79.4781 228.6C78.4652 228.537 77.3889 228.474 76.2493 228.41C75.1098 228.347 73.7803 228.315 72.2609 228.315H60.6753V227.176C62.0681 227.176 63.2709 227.144 64.2839 227.081C65.3601 226.954 66.2465 226.701 66.9429 226.321C67.7026 225.878 68.2407 225.245 68.5573 224.422C68.9371 223.535 69.1271 222.301 69.1271 220.718V176.845C69.1271 175.199 68.9371 173.964 68.5573 173.141C68.2407 172.255 67.7026 171.622 66.9429 171.242C66.2465 170.862 65.3601 170.641 64.2839 170.577C63.2709 170.514 62.0681 170.482 60.6753 170.482V169.438H72.2609C74.54 169.438 76.4709 169.343 78.0537 169.153C79.6364 168.963 81.3774 168.868 83.2767 168.868C83.5299 168.868 83.7831 168.868 84.0364 168.868C86.0623 168.868 87.9932 169.089 89.8292 169.533C91.7285 169.976 93.4378 170.767 94.9572 171.907C96.4767 172.983 97.6479 174.407 98.4709 176.18C99.3572 177.889 99.8004 179.979 99.8004 182.448C99.8004 185.487 99.0723 188.272 97.6162 190.805C96.1601 193.337 93.9126 195.046 90.8738 195.933ZM84.8911 227.176C93.9443 227.176 98.4709 222.586 98.4709 213.406C98.4709 211.127 98.2177 209.038 97.7112 207.138C97.268 205.176 96.54 203.466 95.527 202.01C94.5774 200.554 93.3112 199.415 91.7285 198.592C90.209 197.769 88.4047 197.357 86.3155 197.357C85.176 197.357 84.0997 197.515 83.0867 197.832C82.0738 198.148 81.1875 198.497 80.4278 198.876C79.668 199.256 79.0666 199.605 78.6234 199.921C78.1803 200.238 77.9587 200.396 77.9587 200.396L77.104 199.351C77.4206 199.098 77.8954 198.781 78.5285 198.402C79.1616 197.958 79.8896 197.547 80.7127 197.167C81.599 196.787 82.5803 196.439 83.6565 196.122C84.7961 195.806 85.9673 195.648 87.1702 195.648C88.3098 195.648 89.2594 195.299 90.0191 194.603C90.8421 193.907 91.5069 192.989 92.0134 191.849C92.5831 190.646 92.963 189.317 93.1529 187.861C93.4062 186.341 93.5328 184.758 93.5328 183.112C93.5328 178.997 92.5198 175.832 90.4939 173.616C88.468 171.4 85.3975 170.292 81.2824 170.292C80.0162 170.292 79.0033 170.419 78.2436 170.672C77.4839 170.862 76.9141 171.21 76.5342 171.717C76.1544 172.223 75.9011 172.92 75.7745 173.806C75.6479 174.692 75.5846 175.769 75.5846 177.035V220.813C75.5846 222.333 75.8378 223.535 76.3443 224.422C76.8508 225.245 77.5155 225.878 78.3386 226.321C79.2249 226.701 80.2062 226.954 81.2824 227.081C82.422 227.144 83.6249 227.176 84.8911 227.176Z" fill="white"/>
<path d="M148.279 214.735C148.025 216.255 147.709 217.964 147.329 219.863C147.013 221.699 146.696 223.472 146.379 225.181L145.43 229.93C145.113 231.322 144.892 232.304 144.765 232.874L143.91 232.779C143.91 232.589 143.91 232.367 143.91 232.114C143.91 231.291 143.657 230.594 143.151 230.025C142.708 229.518 142.074 229.107 141.251 228.79C140.492 228.537 139.669 228.379 138.782 228.315C137.896 228.315 137.105 228.315 136.408 228.315H106.02V227.176C107.539 227.176 108.805 227.112 109.818 226.986C110.895 226.859 111.718 226.606 112.287 226.226C112.92 225.783 113.364 225.118 113.617 224.232C113.933 223.345 114.092 222.143 114.092 220.623V177.035C114.092 175.515 113.933 174.344 113.617 173.521C113.364 172.635 112.92 171.97 112.287 171.527C111.654 171.084 110.831 170.799 109.818 170.672C108.805 170.546 107.539 170.482 106.02 170.482V169.438H132.135C133.464 169.438 134.731 169.374 135.933 169.248C137.136 169.121 138.213 168.9 139.162 168.583C140.112 168.266 140.84 167.855 141.346 167.348C141.853 166.779 142.106 166.082 142.106 165.259C142.106 165.196 142.106 165.101 142.106 164.974L143.056 164.784L146.474 183.017L145.335 183.112C145.018 181.53 144.607 180.042 144.1 178.649C143.594 177.193 142.834 175.927 141.821 174.851C140.808 173.711 139.479 172.825 137.833 172.192C136.187 171.559 134.066 171.242 131.47 171.242H128.051C126.722 171.242 125.551 171.305 124.538 171.432C123.588 171.559 122.797 171.843 122.164 172.287C121.594 172.666 121.151 173.268 120.834 174.091C120.581 174.851 120.454 175.927 120.454 177.32V196.502H131.85C134.446 196.502 136.535 196.091 138.118 195.268C139.7 194.445 140.492 192.609 140.492 189.76H141.631L141.726 206.379H140.492C140.492 203.276 139.764 201.187 138.308 200.111C136.851 199.035 134.604 198.497 131.565 198.497H120.454V220.338C120.454 221.731 120.581 222.839 120.834 223.662C121.151 224.422 121.626 225.023 122.259 225.466C122.892 225.846 123.651 226.099 124.538 226.226C125.487 226.353 126.564 226.416 127.767 226.416H135.269C138.877 226.416 141.536 225.34 143.246 223.187C145.018 220.971 146.316 218.091 147.139 214.546L148.279 214.735Z" fill="white"/>
<path d="M198.828 164.784L202.247 183.017L201.203 183.112C200.823 181.53 200.38 180.042 199.873 178.649C199.43 177.193 198.702 175.927 197.689 174.851C196.739 173.711 195.441 172.825 193.795 172.192C192.213 171.559 190.123 171.242 187.528 171.242H186.388C183.856 171.242 182.146 171.653 181.26 172.476C180.437 173.3 180.026 174.914 180.026 177.32V220.718C180.026 222.364 180.184 223.63 180.5 224.517C180.88 225.403 181.418 226.036 182.115 226.416C182.811 226.796 183.666 227.017 184.679 227.081C185.692 227.144 186.895 227.176 188.287 227.176V228.315H165.306V227.176C166.699 227.176 167.902 227.144 168.915 227.081C169.928 227.017 170.782 226.796 171.479 226.416C172.175 226.036 172.682 225.403 172.998 224.517C173.378 223.63 173.568 222.364 173.568 220.718V177.32C173.568 174.914 173.125 173.3 172.239 172.476C171.416 171.653 169.738 171.242 167.205 171.242H165.971C163.375 171.242 161.254 171.559 159.608 172.192C158.026 172.825 156.759 173.711 155.81 174.851C154.86 175.927 154.132 177.193 153.626 178.649C153.119 180.042 152.708 181.53 152.391 183.112L151.252 183.017L154.765 164.784L155.715 164.974C155.715 165.101 155.715 165.196 155.715 165.259C155.715 166.082 155.968 166.779 156.475 167.348C156.981 167.855 157.677 168.266 158.564 168.583C159.513 168.9 160.59 169.121 161.793 169.248C163.059 169.374 164.357 169.438 165.686 169.438H187.908C189.237 169.438 190.503 169.374 191.706 169.248C192.972 169.121 194.049 168.9 194.935 168.583C195.885 168.266 196.613 167.855 197.119 167.348C197.626 166.779 197.879 166.082 197.879 165.259C197.879 165.196 197.879 165.101 197.879 164.974L198.828 164.784Z" fill="white"/>
<path d="M257.934 223.377C258.567 224.263 259.422 225.118 260.498 225.941C261.637 226.764 263.22 227.176 265.246 227.176V228.315H243.025V227.176C245.684 227.176 247.519 226.954 248.532 226.511C249.545 226.068 250.052 225.371 250.052 224.422C250.052 223.599 249.609 222.238 248.722 220.338L228.4 177.415L211.876 216.445C211.433 217.458 211.085 218.407 210.832 219.294C210.579 220.18 210.452 221.003 210.452 221.763C210.452 223.535 211.212 224.897 212.731 225.846C214.25 226.733 216.656 227.176 219.948 227.176V228.315H196.587V227.176C198.74 227.176 200.512 226.891 201.905 226.321C203.298 225.751 204.469 224.96 205.419 223.947C206.368 222.871 207.16 221.636 207.793 220.243C208.489 218.787 209.186 217.204 209.882 215.495L230.014 168.108H231.059L253.66 215.495C254.483 217.331 255.243 218.882 255.94 220.148C256.699 221.415 257.364 222.491 257.934 223.377Z" fill="white"/>
<path d="M287.962 202.675L282.17 216.445C281.727 217.458 281.378 218.407 281.125 219.294C280.872 220.18 280.745 221.003 280.745 221.763C280.745 223.535 281.505 224.897 283.024 225.846C284.544 226.733 286.95 227.176 290.242 227.176V228.315H266.786V227.176C269.761 227.176 271.914 226.733 273.243 225.846C274.636 224.96 275.68 223.979 276.377 222.902C276.947 222.016 277.548 220.971 278.181 219.769C278.814 218.566 279.479 217.141 280.175 215.495L300.308 168.108H301.352L323.954 215.495C324.777 217.331 325.537 218.882 326.233 220.148C326.929 221.415 327.594 222.491 328.227 223.377C328.86 224.263 329.715 225.118 330.791 225.941C331.931 226.764 333.514 227.176 335.539 227.176V228.315H313.223V227.176C315.945 227.176 317.781 226.954 318.731 226.511C319.744 226.068 320.25 225.371 320.25 224.422C320.25 223.409 319.839 222.048 319.016 220.338L310.659 202.675H287.962ZM298.693 177.415L288.722 200.966H309.804L298.693 177.415Z" fill="white"/>
<path d="M396.436 220.718C396.436 222.364 396.594 223.63 396.911 224.517C397.29 225.403 397.829 226.036 398.525 226.416C399.221 226.796 400.076 227.017 401.089 227.081C402.102 227.144 403.305 227.176 404.698 227.176V228.315H381.526V227.176C382.983 227.176 384.249 227.144 385.325 227.081C386.401 227.017 387.288 226.796 387.984 226.416C388.68 225.973 389.187 225.308 389.503 224.422C389.82 223.535 389.978 222.301 389.978 220.718V198.687H353.892V220.718C353.892 222.364 354.05 223.63 354.367 224.517C354.747 225.403 355.285 226.036 355.981 226.416C356.678 226.796 357.532 227.017 358.545 227.081C359.558 227.144 360.761 227.176 362.154 227.176V228.315H338.983V227.176C340.312 227.176 341.515 227.144 342.591 227.081C343.667 227.017 344.554 226.796 345.25 226.416C345.947 226.036 346.485 225.403 346.865 224.517C347.244 223.63 347.434 222.364 347.434 220.718V177.035C347.434 175.452 347.276 174.217 346.96 173.331C346.643 172.445 346.137 171.812 345.44 171.432C344.744 170.989 343.857 170.735 342.781 170.672C341.705 170.546 340.439 170.482 338.983 170.482V169.438H362.059V170.482C360.603 170.482 359.337 170.546 358.26 170.672C357.247 170.799 356.393 171.084 355.696 171.527C355.063 171.97 354.588 172.635 354.272 173.521C354.019 174.407 353.892 175.61 353.892 177.13V196.597H389.978V177.035C389.978 175.452 389.82 174.217 389.503 173.331C389.187 172.445 388.68 171.812 387.984 171.432C387.351 170.989 386.496 170.735 385.42 170.672C384.407 170.546 383.172 170.482 381.716 170.482V169.438H404.698V170.482C403.305 170.482 402.07 170.546 400.994 170.672C399.981 170.735 399.126 170.989 398.43 171.432C397.797 171.812 397.29 172.445 396.911 173.331C396.594 174.217 396.436 175.484 396.436 177.13V220.718Z" fill="white"/>
<path d="M429.11 202.675L423.317 216.445C422.874 217.458 422.526 218.407 422.273 219.294C422.019 220.18 421.893 221.003 421.893 221.763C421.893 223.535 422.652 224.897 424.172 225.846C425.691 226.733 428.097 227.176 431.389 227.176V228.315H407.933V227.176C410.909 227.176 413.061 226.733 414.391 225.846C415.783 224.96 416.828 223.979 417.524 222.902C418.094 222.016 418.696 220.971 419.329 219.769C419.962 218.566 420.627 217.141 421.323 215.495L441.455 168.108H442.5L465.101 215.495C465.924 217.331 466.684 218.882 467.38 220.148C468.077 221.415 468.742 222.491 469.375 223.377C470.008 224.263 470.862 225.118 471.939 225.941C473.078 226.764 474.661 227.176 476.687 227.176V228.315H454.37V227.176C457.093 227.176 458.929 226.954 459.878 226.511C460.891 226.068 461.398 225.371 461.398 224.422C461.398 223.409 460.986 222.048 460.163 220.338L451.806 202.675H429.11ZM439.841 177.415L429.87 200.966H450.952L439.841 177.415Z" fill="white"/>
</svg>
