<svg width="261" height="49" viewBox="0 0 261 49" fill="none" xmlns="http://www.w3.org/2000/svg">
<path d="M26.9286 31.0585C24.7685 31.0585 22.0683 30.3725 18.8281 29.0006C16.5512 28.0373 14.756 27.3513 13.4424 26.9426C12.158 26.5047 10.8298 26.2858 9.45785 26.2858C7.88154 26.2858 6.39281 26.6215 4.99164 27.2929C3.61967 27.9351 2.20391 28.7379 0.744368 29.7012C0.627604 29.7887 0.525436 29.8325 0.437864 29.8325C0.350291 29.8325 0.248123 29.7887 0.131359 29.7012C0.0437864 29.6136 0 29.5406 0 29.4822C0 29.4238 0.029191 29.3509 0.0875729 29.2633C1.05087 27.9497 2.45204 26.7091 4.29106 25.5415C6.15928 24.3446 8.29021 23.7462 10.6839 23.7462C12.8732 23.7462 15.5879 24.4322 18.8281 25.8042L19.7914 26.1982C21.7764 27.0156 23.3527 27.614 24.5204 27.9935C25.688 28.373 26.8994 28.5627 28.1546 28.5627C29.7309 28.5627 31.2051 28.2416 32.577 27.5994C33.949 26.928 35.3794 26.0961 36.8681 25.1036C37.0141 25.016 37.1162 24.9722 37.1746 24.9722C37.2622 24.9722 37.3498 25.016 37.4373 25.1036C37.5541 25.1912 37.6125 25.2641 37.6125 25.3225C37.6125 25.3809 37.5833 25.4539 37.5249 25.5415C36.5616 26.855 35.1458 28.1102 33.2776 29.3071C31.4386 30.4747 29.3223 31.0585 26.9286 31.0585Z" fill="#212844"/>
<path d="M68.4118 38.1046C68.4118 39.4287 68.5589 40.4586 68.8531 41.1942C69.1964 41.8808 69.6623 42.3712 70.2508 42.6654C70.8883 42.9597 71.6485 43.1313 72.5312 43.1803C73.4139 43.1803 74.3947 43.1803 75.4736 43.1803V44.0631H56.8627V43.1803C57.9906 43.1803 58.996 43.1558 59.8787 43.1068C60.7614 43.0577 61.497 42.8861 62.0855 42.5919C62.674 42.2486 63.1154 41.7336 63.4096 41.0471C63.7529 40.3605 63.9245 39.3797 63.9245 38.1046V11.8433C63.9245 11.402 63.9 10.9116 63.851 10.3721C63.8019 9.78362 63.7039 9.24417 63.5567 8.75377C63.4096 8.21432 63.2135 7.77295 62.9683 7.42967C62.7231 7.08638 62.3798 6.91474 61.9384 6.91474C61.2518 6.91474 60.3936 7.13542 59.3638 7.57679C58.3339 8.01816 57.5002 8.38596 56.8627 8.6802L56.4213 7.79747L67.6762 2.57464L68.4118 3.016V38.1046Z" fill="#212844"/>
<path d="M105.922 3.60449L106.731 4.56079L90.1801 45.0929L84.5895 48.1089L84.0745 47.594L104.23 7.87103L103.936 7.50323C99.9637 7.50323 96.5063 7.52775 93.5639 7.57679C90.6215 7.62583 88.3656 7.69939 86.7963 7.79747C84.2462 7.84651 82.4071 8.38596 81.2792 9.41582C80.2003 10.4457 79.3176 12.0395 78.631 14.1973L77.7483 14.1237L80.47 0L81.2056 0.147125C81.2056 0.294245 81.2056 0.416846 81.2056 0.514929C81.2056 1.69191 81.6225 2.50108 82.4562 2.94244C83.2899 3.38381 84.2952 3.60449 85.4722 3.60449H105.922Z" fill="#212844"/>
<path d="M115.182 24.0545C114.201 24.0545 113.392 23.7602 112.754 23.1717C112.166 22.5832 111.871 21.7741 111.871 20.7442C111.871 19.7634 112.166 19.0033 112.754 18.4638C113.392 17.9244 114.201 17.6547 115.182 17.6547C116.162 17.6547 116.947 17.9244 117.536 18.4638C118.124 19.0033 118.418 19.7634 118.418 20.7442C118.418 21.7741 118.124 22.5832 117.536 23.1717C116.996 23.7602 116.212 24.0545 115.182 24.0545ZM115.182 38.3253C116.162 38.3253 116.947 38.595 117.536 39.1345C118.124 39.6739 118.418 40.4341 118.418 41.4149C118.418 42.4447 118.124 43.2539 117.536 43.8424C116.996 44.4309 116.212 44.7251 115.182 44.7251C114.201 44.7251 113.392 44.4309 112.754 43.8424C112.166 43.2539 111.871 42.4447 111.871 41.4149C111.871 40.4341 112.166 39.6739 112.754 39.1345C113.392 38.595 114.201 38.3253 115.182 38.3253Z" fill="#212844"/>
<path d="M124.47 23.3924C124.47 20.3519 124.887 17.5566 125.72 15.0065C126.554 12.4073 127.731 10.1759 129.251 8.3124C130.821 6.44885 132.684 5.00215 134.842 3.9723C137 2.8934 139.403 2.35395 142.051 2.35395C144.699 2.35395 147.078 2.8934 149.186 3.9723C151.295 5.05119 153.085 6.54694 154.556 8.45952C156.077 10.3231 157.229 12.5544 158.014 15.1536C158.847 17.7527 159.264 20.5726 159.264 23.6131C159.264 26.6046 158.847 29.4244 158.014 32.0726C157.229 34.6718 156.077 36.9276 154.556 38.8402C153.085 40.7528 151.271 42.2731 149.113 43.401C147.004 44.4799 144.626 45.0194 141.977 45.0194C139.329 45.0194 136.926 44.4799 134.768 43.401C132.611 42.2731 130.772 40.7528 129.251 38.8402C127.731 36.9276 126.554 34.6473 125.72 31.9991C124.887 29.3509 124.47 26.482 124.47 23.3924ZM153.821 24.7165C153.821 22.3135 153.6 19.8615 153.159 17.3604C152.766 14.8103 152.08 12.5054 151.099 10.4457C150.118 8.38596 148.819 6.69406 147.2 5.36996C145.631 4.04586 143.645 3.38381 141.242 3.38381C139.084 3.38381 137.27 3.99682 135.798 5.22284C134.327 6.39981 133.126 7.94459 132.194 9.85718C131.311 11.7207 130.674 13.805 130.281 16.1099C129.889 18.3657 129.693 20.5971 129.693 22.8039C129.693 25.305 129.938 27.8061 130.428 30.3072C130.919 32.8082 131.679 35.0886 132.709 37.1483C133.788 39.159 135.161 40.8019 136.828 42.0769C138.496 43.3029 140.506 43.916 142.86 43.916C145.116 43.916 146.955 43.3275 148.377 42.1505C149.799 40.9735 150.903 39.4778 151.687 37.6633C152.521 35.7997 153.085 33.74 153.379 31.4841C153.674 29.1792 153.821 26.9233 153.821 24.7165Z" fill="#212844"/>
<path d="M163.406 23.3924C163.406 20.3519 163.822 17.5566 164.656 15.0065C165.49 12.4073 166.667 10.1759 168.187 8.3124C169.756 6.44885 171.62 5.00215 173.778 3.9723C175.935 2.8934 178.338 2.35395 180.987 2.35395C183.635 2.35395 186.013 2.8934 188.122 3.9723C190.231 5.05119 192.021 6.54694 193.492 8.45952C195.012 10.3231 196.165 12.5544 196.949 15.1536C197.783 17.7527 198.2 20.5726 198.2 23.6131C198.2 26.6046 197.783 29.4244 196.949 32.0726C196.165 34.6718 195.012 36.9276 193.492 38.8402C192.021 40.7528 190.206 42.2731 188.048 43.401C185.94 44.4799 183.561 45.0194 180.913 45.0194C178.265 45.0194 175.862 44.4799 173.704 43.401C171.546 42.2731 169.707 40.7528 168.187 38.8402C166.667 36.9276 165.49 34.6473 164.656 31.9991C163.822 29.3509 163.406 26.482 163.406 23.3924ZM192.756 24.7165C192.756 22.3135 192.536 19.8615 192.094 17.3604C191.702 14.8103 191.015 12.5054 190.035 10.4457C189.054 8.38596 187.754 6.69406 186.136 5.36996C184.567 4.04586 182.58 3.38381 180.177 3.38381C178.02 3.38381 176.205 3.99682 174.734 5.22284C173.263 6.39981 172.061 7.94459 171.129 9.85718C170.247 11.7207 169.609 13.805 169.217 16.1099C168.825 18.3657 168.628 20.5971 168.628 22.8039C168.628 25.305 168.874 27.8061 169.364 30.3072C169.854 32.8082 170.615 35.0886 171.644 37.1483C172.723 39.159 174.096 40.8019 175.764 42.0769C177.431 43.3029 179.442 43.916 181.796 43.916C184.052 43.916 185.891 43.3275 187.313 42.1505C188.735 40.9735 189.838 39.4778 190.623 37.6633C191.457 35.7997 192.021 33.74 192.315 31.4841C192.609 29.1792 192.756 26.9233 192.756 24.7165Z" fill="#212844"/>
<path d="M249.979 31.0585C247.819 31.0585 245.119 30.3725 241.878 29.0006C239.602 28.0373 237.806 27.3513 236.493 26.9426C235.208 26.5047 233.88 26.2858 232.508 26.2858C230.932 26.2858 229.443 26.6215 228.042 27.2929C226.67 27.9351 225.254 28.7379 223.795 29.7012C223.678 29.7887 223.576 29.8325 223.488 29.8325C223.401 29.8325 223.298 29.7887 223.182 29.7012C223.094 29.6136 223.05 29.5406 223.05 29.4822C223.05 29.4238 223.08 29.3509 223.138 29.2633C224.101 27.9497 225.502 26.7091 227.341 25.5415C229.21 24.3446 231.341 23.7462 233.734 23.7462C235.924 23.7462 238.638 24.4322 241.878 25.8042L242.842 26.1982C244.827 27.0156 246.403 27.614 247.571 27.9935C248.738 28.373 249.95 28.5627 251.205 28.5627C252.781 28.5627 254.255 28.2416 255.627 27.5994C256.999 26.928 258.43 26.0961 259.918 25.1036C260.064 25.016 260.167 24.9722 260.225 24.9722C260.313 24.9722 260.4 25.016 260.488 25.1036C260.604 25.1912 260.663 25.2641 260.663 25.3225C260.663 25.3809 260.634 25.4539 260.575 25.5415C259.612 26.855 258.196 28.1102 256.328 29.3071C254.489 30.4747 252.373 31.0585 249.979 31.0585Z" fill="#212844"/>
</svg>
