<svg width="261" height="46" viewBox="0 0 261 46" fill="none" xmlns="http://www.w3.org/2000/svg">
<path d="M26.9286 30.985C24.7685 30.985 22.0683 30.299 18.8281 28.927C16.5512 27.9637 14.756 27.2777 13.4424 26.8691C12.158 26.4312 10.8298 26.2123 9.45785 26.2123C7.88154 26.2123 6.39281 26.548 4.99164 27.2193C3.61967 27.8615 2.20391 28.6643 0.744368 29.6276C0.627604 29.7152 0.525436 29.759 0.437864 29.759C0.350291 29.759 0.248123 29.7152 0.131359 29.6276C0.0437864 29.54 0 29.467 0 29.4087C0 29.3503 0.029191 29.2773 0.0875729 29.1897C1.05087 27.8761 2.45204 26.6355 4.29106 25.4679C6.15928 24.2711 8.29021 23.6726 10.6839 23.6726C12.8732 23.6726 15.5879 24.3586 18.8281 25.7306L19.7914 26.1247C21.7764 26.942 23.3527 27.5404 24.5204 27.9199C25.688 28.2994 26.8994 28.4891 28.1546 28.4891C29.7309 28.4891 31.2051 28.168 32.577 27.5258C33.949 26.8545 35.3794 26.0225 36.8681 25.03C37.0141 24.9425 37.1162 24.8987 37.1746 24.8987C37.2622 24.8987 37.3498 24.9425 37.4373 25.03C37.5541 25.1176 37.6125 25.1906 37.6125 25.249C37.6125 25.3073 37.5833 25.3803 37.5249 25.4679C36.5616 26.7815 35.1458 28.0367 33.2776 29.2335C31.4386 30.4012 29.3223 30.985 26.9286 30.985Z" fill="#212844"/>
<path d="M68.4118 38.0311C68.4118 39.3552 68.5589 40.385 68.8531 41.1206C69.1964 41.8072 69.6623 42.2976 70.2508 42.5919C70.8883 42.8861 71.6485 43.0577 72.5312 43.1068C73.4139 43.1068 74.3947 43.1068 75.4736 43.1068V43.9895H56.8627V43.1068C57.9906 43.1068 58.996 43.0823 59.8787 43.0332C60.7614 42.9842 61.497 42.8125 62.0855 42.5183C62.674 42.175 63.1154 41.6601 63.4096 40.9735C63.7529 40.2869 63.9245 39.3061 63.9245 38.0311V11.7698C63.9245 11.3284 63.9 10.838 63.851 10.2985C63.8019 9.71006 63.7039 9.17061 63.5567 8.68021C63.4096 8.14076 63.2135 7.69939 62.9683 7.35611C62.7231 7.01282 62.3798 6.84118 61.9384 6.84118C61.2518 6.84118 60.3936 7.06186 59.3638 7.50323C58.3339 7.9446 57.5002 8.3124 56.8627 8.60664L56.4213 7.72391L67.6762 2.50108L68.4118 2.94244V38.0311Z" fill="#212844"/>
<path d="M92.2398 19.935C94.3486 19.935 96.2366 20.2538 97.904 20.8913C99.5714 21.4798 100.994 22.3135 102.171 23.3924C103.348 24.4713 104.255 25.7709 104.892 27.2912C105.53 28.8114 105.849 30.5033 105.849 32.3669C105.849 33.8871 105.505 35.4319 104.819 37.0012C104.181 38.5705 103.2 39.9682 101.876 41.1942C100.601 42.3712 99.0565 43.3029 97.242 43.9895C95.4275 44.7251 93.3923 45.0929 91.1364 45.0929C90.8421 45.0929 90.5479 45.0929 90.2537 45.0929C88.5863 45.0439 87.066 44.7251 85.6929 44.1366C84.3688 43.5481 83.1918 42.8125 82.1619 41.9298C81.1321 40.998 80.2494 39.9682 79.5137 38.8402C78.8272 37.7123 78.2877 36.6089 77.8954 35.53L78.7781 35.1622C79.7589 37.5652 81.2056 39.6249 83.1182 41.3413C85.0308 43.0087 87.3603 43.8424 90.1065 43.8424C91.921 43.8424 93.4658 43.5236 94.7409 42.8861C96.065 42.2486 97.1439 41.4394 97.9776 40.4586C98.8113 39.4287 99.4243 38.2763 99.8166 37.0012C100.209 35.7262 100.405 34.4511 100.405 33.176C100.405 31.901 100.258 30.6259 99.9637 29.3509C99.6695 28.0268 99.1545 26.8498 98.4189 25.8199C97.7324 24.7901 96.8251 23.9319 95.6972 23.2453C94.6183 22.5587 93.2697 22.1909 91.6513 22.1419C91.308 22.1419 90.9647 22.1419 90.6215 22.1419C89.3464 22.1419 87.9978 22.3135 86.5756 22.6568C85.2025 22.951 83.5841 23.4415 81.7206 24.128L80.9114 23.6131L84.2216 3.53093H93.711C96.2611 3.53093 98.0266 3.23669 99.0074 2.6482C100.037 2.05971 100.601 1.2015 100.699 0.0735645L101.361 0L104.083 14.0502L103.2 14.1973C103.004 13.3636 102.735 12.5544 102.391 11.7698C102.048 10.9361 101.533 10.225 100.846 9.6365C100.16 8.99897 99.2526 8.50856 98.1247 8.16528C97.0458 7.77295 95.6481 7.57679 93.9317 7.57679L85.1779 7.35611L82.6769 22.3626C84.3442 21.4798 85.9871 20.8668 87.6055 20.5235C89.2728 20.1312 90.8176 19.935 92.2398 19.935Z" fill="#212844"/>
<path d="M114.894 23.9809C113.913 23.9809 113.104 23.6867 112.467 23.0982C111.878 22.5097 111.584 21.7005 111.584 20.6707C111.584 19.6898 111.878 18.9297 112.467 18.3903C113.104 17.8508 113.913 17.5811 114.894 17.5811C115.875 17.5811 116.66 17.8508 117.248 18.3903C117.837 18.9297 118.131 19.6898 118.131 20.6707C118.131 21.7005 117.837 22.5097 117.248 23.0982C116.709 23.6867 115.924 23.9809 114.894 23.9809ZM114.894 38.2518C115.875 38.2518 116.66 38.5215 117.248 39.0609C117.837 39.6004 118.131 40.3605 118.131 41.3413C118.131 42.3712 117.837 43.1803 117.248 43.7688C116.709 44.3573 115.924 44.6516 114.894 44.6516C113.913 44.6516 113.104 44.3573 112.467 43.7688C111.878 43.1803 111.584 42.3712 111.584 41.3413C111.584 40.3605 111.878 39.6004 112.467 39.0609C113.104 38.5215 113.913 38.2518 114.894 38.2518Z" fill="#212844"/>
<path d="M124.183 23.3189C124.183 20.2783 124.599 17.483 125.433 14.9329C126.267 12.3337 127.444 10.1024 128.964 8.23884C130.533 6.37529 132.397 4.92859 134.555 3.89874C136.712 2.81984 139.115 2.28039 141.764 2.28039C144.412 2.28039 146.79 2.81984 148.899 3.89874C151.008 4.97763 152.798 6.47338 154.269 8.38596C155.789 10.2495 156.942 12.4809 157.726 15.08C158.56 17.6792 158.977 20.499 158.977 23.5395C158.977 26.531 158.56 29.3509 157.726 31.9991C156.942 34.5982 155.789 36.8541 154.269 38.7667C152.798 40.6793 150.983 42.1995 148.826 43.3275C146.717 44.4064 144.338 44.9458 141.69 44.9458C139.042 44.9458 136.639 44.4064 134.481 43.3275C132.323 42.1995 130.484 40.6793 128.964 38.7667C127.444 36.8541 126.267 34.5737 125.433 31.9255C124.599 29.2773 124.183 26.4084 124.183 23.3189ZM153.533 24.643C153.533 22.24 153.313 19.7879 152.871 17.2868C152.479 14.7367 151.792 12.4318 150.812 10.3721C149.831 8.3124 148.531 6.6205 146.913 5.2964C145.344 3.9723 143.357 3.31025 140.954 3.31025C138.797 3.31025 136.982 3.92326 135.511 5.14928C134.04 6.32625 132.838 7.87103 131.906 9.78362C131.024 11.6472 130.386 13.7314 129.994 16.0363C129.602 18.2922 129.405 20.5235 129.405 22.7304C129.405 25.2314 129.651 27.7325 130.141 30.2336C130.631 32.7347 131.392 35.0151 132.421 37.0748C133.5 39.0854 134.873 40.7283 136.541 42.0034C138.208 43.2294 140.219 43.8424 142.573 43.8424C144.829 43.8424 146.668 43.2539 148.09 42.0769C149.512 40.8999 150.615 39.4042 151.4 37.5897C152.234 35.7262 152.798 33.6664 153.092 31.4106C153.386 29.1057 153.533 26.8498 153.533 24.643Z" fill="#212844"/>
<path d="M163.118 23.3189C163.118 20.2783 163.535 17.483 164.369 14.9329C165.202 12.3337 166.379 10.1024 167.9 8.23884C169.469 6.37529 171.333 4.92859 173.49 3.89874C175.648 2.81984 178.051 2.28039 180.699 2.28039C183.347 2.28039 185.726 2.81984 187.835 3.89874C189.943 4.97763 191.733 6.47338 193.205 8.38596C194.725 10.2495 195.877 12.4809 196.662 15.08C197.496 17.6792 197.913 20.499 197.913 23.5395C197.913 26.531 197.496 29.3509 196.662 31.9991C195.877 34.5982 194.725 36.8541 193.205 38.7667C191.733 40.6793 189.919 42.1995 187.761 43.3275C185.652 44.4064 183.274 44.9458 180.626 44.9458C177.978 44.9458 175.575 44.4064 173.417 43.3275C171.259 42.1995 169.42 40.6793 167.9 38.7667C166.379 36.8541 165.202 34.5737 164.369 31.9255C163.535 29.2773 163.118 26.4084 163.118 23.3189ZM192.469 24.643C192.469 22.24 192.248 19.7879 191.807 17.2868C191.415 14.7367 190.728 12.4318 189.747 10.3721C188.766 8.3124 187.467 6.6205 185.849 5.2964C184.279 3.9723 182.293 3.31025 179.89 3.31025C177.732 3.31025 175.918 3.92326 174.447 5.14928C172.975 6.32625 171.774 7.87103 170.842 9.78362C169.959 11.6472 169.322 13.7314 168.93 16.0363C168.537 18.2922 168.341 20.5235 168.341 22.7304C168.341 25.2314 168.586 27.7325 169.077 30.2336C169.567 32.7347 170.327 35.0151 171.357 37.0748C172.436 39.0854 173.809 40.7283 175.476 42.0034C177.144 43.2294 179.154 43.8424 181.508 43.8424C183.764 43.8424 185.603 43.2539 187.026 42.0769C188.448 40.8999 189.551 39.4042 190.336 37.5897C191.169 35.7262 191.733 33.6664 192.028 31.4106C192.322 29.1057 192.469 26.8498 192.469 24.643Z" fill="#212844"/>
<path d="M249.692 30.985C247.531 30.985 244.831 30.299 241.591 28.927C239.314 27.9637 237.519 27.2777 236.205 26.8691C234.921 26.4312 233.593 26.2123 232.221 26.2123C230.645 26.2123 229.156 26.548 227.755 27.2193C226.383 27.8615 224.967 28.6643 223.507 29.6276C223.391 29.7152 223.288 29.759 223.201 29.759C223.113 29.759 223.011 29.7152 222.894 29.6276C222.807 29.54 222.763 29.467 222.763 29.4087C222.763 29.3503 222.792 29.2773 222.851 29.1897C223.814 27.8761 225.215 26.6355 227.054 25.4679C228.922 24.2711 231.053 23.6726 233.447 23.6726C235.636 23.6726 238.351 24.3586 241.591 25.7306L242.554 26.1247C244.539 26.942 246.116 27.5404 247.283 27.9199C248.451 28.2994 249.662 28.4891 250.918 28.4891C252.494 28.4891 253.968 28.168 255.34 27.5258C256.712 26.8545 258.142 26.0225 259.631 25.03C259.777 24.9425 259.879 24.8987 259.938 24.8987C260.025 24.8987 260.113 24.9425 260.2 25.03C260.317 25.1176 260.375 25.1906 260.375 25.249C260.375 25.3073 260.346 25.3803 260.288 25.4679C259.325 26.7815 257.909 28.0367 256.041 29.2335C254.202 30.4012 252.085 30.985 249.692 30.985Z" fill="#212844"/>
</svg>
