<svg width="263" height="46" viewBox="0 0 263 46" fill="none" xmlns="http://www.w3.org/2000/svg">
<path d="M26.9286 31.5735C24.7685 31.5735 22.0683 30.8875 18.8281 29.5155C16.5512 28.5522 14.756 27.8662 13.4424 27.4575C12.158 27.0197 10.8298 26.8007 9.45785 26.8007C7.88154 26.8007 6.39281 27.1364 4.99164 27.8078C3.61967 28.45 2.20391 29.2528 0.744368 30.2161C0.627604 30.3037 0.525436 30.3474 0.437864 30.3474C0.350291 30.3474 0.248123 30.3037 0.131359 30.2161C0.0437864 30.1285 0 30.0555 0 29.9971C0 29.9388 0.029191 29.8658 0.0875729 29.7782C1.05087 28.4646 2.45204 27.224 4.29106 26.0564C6.15928 24.8595 8.29021 24.2611 10.6839 24.2611C12.8732 24.2611 15.5879 24.9471 18.8281 26.3191L19.7914 26.7132C21.7764 27.5305 23.3527 28.1289 24.5204 28.5084C25.688 28.8879 26.8994 29.0776 28.1546 29.0776C29.7309 29.0776 31.2051 28.7565 32.577 28.1143C33.949 27.4429 35.3794 26.611 36.8681 25.6185C37.0141 25.5309 37.1162 25.4872 37.1746 25.4872C37.2622 25.4872 37.3498 25.5309 37.4373 25.6185C37.5541 25.7061 37.6125 25.7791 37.6125 25.8374C37.6125 25.8958 37.5833 25.9688 37.5249 26.0564C36.5616 27.37 35.1458 28.6252 33.2776 29.822C31.4386 30.9896 29.3223 31.5735 26.9286 31.5735Z" fill="#212844"/>
<path d="M68.4118 38.6196C68.4118 39.9437 68.5589 40.9735 68.8531 41.7091C69.1964 42.3957 69.6623 42.8861 70.2508 43.1803C70.8883 43.4746 71.6485 43.6462 72.5312 43.6953C73.4139 43.6953 74.3947 43.6953 75.4736 43.6953V44.578H56.8627V43.6953C57.9906 43.6953 58.996 43.6707 59.8787 43.6217C60.7614 43.5727 61.497 43.401 62.0855 43.1068C62.674 42.7635 63.1154 42.2486 63.4096 41.562C63.7529 40.8754 63.9245 39.8946 63.9245 38.6196V12.3583C63.9245 11.9169 63.9 11.4265 63.851 10.887C63.8019 10.2985 63.7039 9.7591 63.5567 9.26869C63.4096 8.72924 63.2135 8.28788 62.9683 7.94459C62.7231 7.60131 62.3798 7.42967 61.9384 7.42967C61.2518 7.42967 60.3936 7.65035 59.3638 8.09171C58.3339 8.53308 57.5002 8.90089 56.8627 9.19513L56.4213 8.3124L67.6762 3.08956L68.4118 3.53093V38.6196Z" fill="#212844"/>
<path d="M98.7132 23.0982C101.656 23.0982 104.059 23.9073 105.922 25.5257C107.786 27.095 108.717 29.4244 108.717 32.514C108.717 34.5247 108.252 36.3392 107.32 37.9575C106.437 39.5758 105.26 40.9735 103.789 42.1505C102.367 43.2784 100.724 44.1366 98.8603 44.7251C97.0458 45.3626 95.2068 45.6814 93.3432 45.6814C90.8421 45.6814 88.6353 45.142 86.7227 44.0631C84.8101 42.9842 83.2163 41.562 81.9413 39.7965C80.6662 38.0311 79.7099 36.0449 79.0724 33.8381C78.4348 31.5822 78.1161 29.3263 78.1161 27.0705C78.1161 23.2453 78.7781 19.7634 80.1022 16.6248C81.4754 13.4862 83.3144 10.7644 85.6193 8.45952C87.9242 6.10557 90.6215 4.2175 93.711 2.79532C96.8496 1.37314 100.184 0.441366 103.715 0L103.862 0.73561C100.135 1.37314 96.9722 2.37847 94.3731 3.75161C91.7739 5.07571 89.6407 6.79214 87.9733 8.90089C86.3549 10.9606 85.1534 13.3881 84.3688 16.1834C83.6332 18.9788 83.2654 22.1174 83.2654 25.5992C83.2654 27.2666 83.5106 29.1792 84.001 31.337C84.4914 33.4948 85.227 35.53 86.2078 37.4426C87.2376 39.3552 88.5127 40.9735 90.033 42.2976C91.6023 43.6217 93.4168 44.2838 95.4765 44.2838C96.8496 44.2838 98.0266 44.014 99.0074 43.4746C100.037 42.8861 100.871 42.126 101.508 41.1942C102.146 40.2624 102.612 39.208 102.906 38.0311C103.2 36.8541 103.348 35.6526 103.348 34.4266C103.348 33.2496 103.2 32.1217 102.906 31.0428C102.661 29.9148 102.244 28.9095 101.656 28.0268C101.116 27.144 100.381 26.4575 99.4488 25.9671C98.517 25.4276 97.3891 25.1579 96.065 25.1579C93.9072 25.1579 92.1908 25.5747 90.9157 26.4084C89.6897 27.1931 88.7334 27.9287 88.0468 28.6152L87.4583 28.0268C88.7824 26.4084 90.4008 25.1824 92.3134 24.3487C94.2259 23.515 96.3592 23.0982 98.7132 23.0982Z" fill="#212844"/>
<path d="M117.48 24.5694C116.5 24.5694 115.69 24.2751 115.053 23.6867C114.464 23.0982 114.17 22.289 114.17 21.2591C114.17 20.2783 114.464 19.5182 115.053 18.9788C115.69 18.4393 116.5 18.1696 117.48 18.1696C118.461 18.1696 119.246 18.4393 119.834 18.9788C120.423 19.5182 120.717 20.2783 120.717 21.2591C120.717 22.289 120.423 23.0982 119.834 23.6867C119.295 24.2751 118.51 24.5694 117.48 24.5694ZM117.48 38.8402C118.461 38.8402 119.246 39.11 119.834 39.6494C120.423 40.1889 120.717 40.949 120.717 41.9298C120.717 42.9597 120.423 43.7688 119.834 44.3573C119.295 44.9458 118.51 45.24 117.48 45.24C116.5 45.24 115.69 44.9458 115.053 44.3573C114.464 43.7688 114.17 42.9597 114.17 41.9298C114.17 40.949 114.464 40.1889 115.053 39.6494C115.69 39.11 116.5 38.8402 117.48 38.8402Z" fill="#212844"/>
<path d="M126.769 23.9073C126.769 20.8668 127.186 18.0715 128.019 15.5214C128.853 12.9222 130.03 10.6909 131.55 8.82732C133.119 6.96378 134.983 5.51708 137.141 4.48722C139.299 3.40833 141.702 2.86888 144.35 2.86888C146.998 2.86888 149.376 3.40833 151.485 4.48722C153.594 5.56612 155.384 7.06186 156.855 8.97445C158.375 10.838 159.528 13.0693 160.313 15.6685C161.146 18.2677 161.563 21.0875 161.563 24.128C161.563 27.1195 161.146 29.9393 160.313 32.5875C159.528 35.1867 158.375 37.4426 156.855 39.3552C155.384 41.2678 153.569 42.788 151.412 43.9159C149.303 44.9948 146.924 45.5343 144.276 45.5343C141.628 45.5343 139.225 44.9948 137.067 43.9159C134.909 42.788 133.07 41.2678 131.55 39.3552C130.03 37.4426 128.853 35.1622 128.019 32.514C127.186 29.8658 126.769 26.9969 126.769 23.9073ZM156.12 25.2314C156.12 22.8284 155.899 20.3764 155.457 17.8753C155.065 15.3252 154.379 13.0203 153.398 10.9606C152.417 8.90089 151.117 7.20898 149.499 5.88488C147.93 4.56078 145.944 3.89873 143.541 3.89873C141.383 3.89873 139.568 4.51174 138.097 5.73776C136.626 6.91474 135.424 8.45952 134.493 10.3721C133.61 12.2357 132.972 14.3199 132.58 16.6248C132.188 18.8807 131.992 21.112 131.992 23.3189C131.992 25.8199 132.237 28.321 132.727 30.8221C133.218 33.3232 133.978 35.6035 135.008 37.6633C136.086 39.6739 137.46 41.3168 139.127 42.5919C140.794 43.8179 142.805 44.4309 145.159 44.4309C147.415 44.4309 149.254 43.8424 150.676 42.6654C152.098 41.4884 153.202 39.9927 153.986 38.1782C154.82 36.3146 155.384 34.2549 155.678 31.9991C155.972 29.6941 156.12 27.4383 156.12 25.2314Z" fill="#212844"/>
<path d="M165.704 23.9073C165.704 20.8668 166.121 18.0715 166.955 15.5214C167.789 12.9222 168.966 10.6909 170.486 8.82732C172.055 6.96378 173.919 5.51708 176.076 4.48722C178.234 3.40833 180.637 2.86888 183.285 2.86888C185.934 2.86888 188.312 3.40833 190.421 4.48722C192.53 5.56612 194.32 7.06186 195.791 8.97445C197.311 10.838 198.464 13.0693 199.248 15.6685C200.082 18.2677 200.499 21.0875 200.499 24.128C200.499 27.1195 200.082 29.9393 199.248 32.5875C198.464 35.1867 197.311 37.4426 195.791 39.3552C194.32 41.2678 192.505 42.788 190.347 43.9159C188.239 44.9948 185.86 45.5343 183.212 45.5343C180.564 45.5343 178.161 44.9948 176.003 43.9159C173.845 42.788 172.006 41.2678 170.486 39.3552C168.966 37.4426 167.789 35.1622 166.955 32.514C166.121 29.8658 165.704 26.9969 165.704 23.9073ZM195.055 25.2314C195.055 22.8284 194.834 20.3764 194.393 17.8753C194.001 15.3252 193.314 13.0203 192.333 10.9606C191.353 8.90089 190.053 7.20898 188.435 5.88488C186.865 4.56078 184.879 3.89873 182.476 3.89873C180.318 3.89873 178.504 4.51174 177.033 5.73776C175.561 6.91474 174.36 8.45952 173.428 10.3721C172.545 12.2357 171.908 14.3199 171.516 16.6248C171.123 18.8807 170.927 21.112 170.927 23.3189C170.927 25.8199 171.172 28.321 171.663 30.8221C172.153 33.3232 172.913 35.6035 173.943 37.6633C175.022 39.6739 176.395 41.3168 178.063 42.5919C179.73 43.8179 181.741 44.4309 184.095 44.4309C186.35 44.4309 188.189 43.8424 189.612 42.6654C191.034 41.4884 192.137 39.9927 192.922 38.1782C193.756 36.3146 194.32 34.2549 194.614 31.9991C194.908 29.6941 195.055 27.4383 195.055 25.2314Z" fill="#212844"/>
<path d="M252.278 31.5735C250.118 31.5735 247.417 30.8875 244.177 29.5155C241.9 28.5522 240.105 27.8662 238.792 27.4575C237.507 27.0197 236.179 26.8007 234.807 26.8007C233.231 26.8007 231.742 27.1364 230.341 27.8078C228.969 28.45 227.553 29.2528 226.094 30.2161C225.977 30.3037 225.875 30.3474 225.787 30.3474C225.699 30.3474 225.597 30.3037 225.48 30.2161C225.393 30.1285 225.349 30.0555 225.349 29.9971C225.349 29.9388 225.378 29.8658 225.437 29.7782C226.4 28.4646 227.801 27.224 229.64 26.0564C231.508 24.8595 233.639 24.2611 236.033 24.2611C238.222 24.2611 240.937 24.9471 244.177 26.3191L245.141 26.7132C247.126 27.5305 248.702 28.1289 249.869 28.5084C251.037 28.8879 252.249 29.0776 253.504 29.0776C255.08 29.0776 256.554 28.7565 257.926 28.1143C259.298 27.4429 260.728 26.611 262.217 25.6185C262.363 25.5309 262.465 25.4872 262.524 25.4872C262.611 25.4872 262.699 25.5309 262.786 25.6185C262.903 25.7061 262.962 25.7791 262.962 25.8374C262.962 25.8958 262.932 25.9688 262.874 26.0564C261.911 27.37 260.495 28.6252 258.627 29.822C256.788 30.9896 254.671 31.5735 252.278 31.5735Z" fill="#212844"/>
</svg>
